<?xml version="1.0" encoding="utf-8"?>
<!-- Generator: Adobe Illustrator 22.0.1, SVG Export Plug-In . SVG Version: 6.00 Build 0)  -->
<svg version="1.1" id="Layer_1" xmlns="http://www.w3.org/2000/svg" xmlns:xlink="http://www.w3.org/1999/xlink" x="0px" y="0px"
	 viewBox="0 0 1792.2 1568.3" style="enable-background:new 0 0 1792.2 1568.3;" xml:space="preserve">
<style type="text/css">
	.st0{fill:#FFD926;}
	.st1{fill:#FFF3F3;}
	.st2{fill:#FF0DD1;}
</style>
<g id="Layer_57">
</g>
<g id="Layer_56">
</g>
<g id="Layer_55">
</g>
<g id="Layer_54">
</g>
<g id="Layer_53">
</g>
<g id="Layer_52">
</g>
<g id="Layer_51">
</g>
<g id="Layer_49">
</g>
<g id="Layer_48">
</g>
<g id="Layer_47">
</g>
<g id="Layer_46">
</g>
<g id="Layer_45">
</g>
<g id="Layer_44">
</g>
<g id="Layer_43">
</g>
<g id="Layer_42">
</g>
<g id="Layer_41">
</g>
<g id="Layer_40">
</g>
<g id="Layer_39">
</g>
<g id="Layer_38">
</g>
<g id="Layer_37">
</g>
<g id="Layer_36">
</g>
<g id="Layer_35">
</g>
<g id="Layer_34">
</g>
<g id="Layer_33">
</g>
<g id="Layer_32">
</g>
<g id="Layer_31">
</g>
<g id="Layer_30">
</g>
<g id="Layer_29">
</g>
<g id="Layer_28">
</g>
<g id="Layer_27">
</g>
<g id="Layer_26">
</g>
<g id="Layer_25">
</g>
<g id="Layer_24">
</g>
<g id="Layer_23">
</g>
<g id="Layer_22">
</g>
<g id="Layer_21">
</g>
<g id="Layer_20">
</g>
<g id="Layer_19">
</g>
<g id="Layer_18">
</g>
<g id="Layer_17">
</g>
<g id="Layer_16">
</g>
<g id="Layer_15">
</g>
<g id="Layer_14">
</g>
<g id="Layer_13">
</g>
<g id="Layer_12">
</g>
<g id="Layer_11">
</g>
<g id="Layer_10">
</g>
<g id="Layer_9">
</g>
<g id="Layer_8">
</g>
<g id="Layer_7">
</g>
<g id="Layer_6">
</g>
<g id="Layer_5">
</g>
<g id="Layer_4">
</g>
<polygon class="st0" points="915.4,501.4 713.5,851.2 1117.4,851.2 "/>
<g>
	<g>
		<path class="st1" d="M739.7,482.5c-96.8,16.1-441.2,6.5-483.2,5.3l-11-0.3l-86.3-255.6l21.7-0.4c0.6,0,63-1.4,136.2-22.8
			c71.4-20.9,131.9-82.6,132.5-83.2l1.5-1.5l1.8-1.1L658.8,0l179.1,23.1l-4.1,31.4L665.6,32.8L470.7,149.1
			c-10.5,10.5-71,68.4-144.8,90c-51.8,15.2-97.6,20.7-123.2,22.8l65.7,194.6c176.4,5,441.6,6.8,478.3-8
			c40.7-16.4,176.4-76.5,239.1-104.4c-3.5-1.1-7.2-2.2-11.2-3.2c-34.6-8.6-71-7.3-108.2,3.8c-18.7,5.6-41.4,7.6-63.4,9.6
			c-28,2.6-59.5,5.5-75.3,16l-6.8,6l-22.2-22.5c2.8-3.1,6-5.9,9.4-8.4l170-148.9l145.1-67.4h3.4c45.1-0.4,124.9-7,146.8-23
			c11.4-8.3,22.3-17.7,31.7-26.4l-205.1,18.3l-160.8,48.7L678,262.3l-18.4-25.7L825,118.1L994,66.9l290.6-26l-26.1,29.7
			c-1.3,1.4-31.2,35.4-66.6,61.1c-35.1,25.5-138.6,28.6-161.8,29l-134.8,62.6L779.5,324.8c6.8-0.7,13.6-1.4,20.5-2
			c20.4-1.8,41.5-3.8,57.3-8.5C961,283.5,1030.5,329,1033.4,331l23.7,16l-26.1,11.7c-8.9,4-218.8,97.6-272.5,119.3
			C754.2,479.6,747.8,481.2,739.7,482.5z"/>
	</g>
	<g>
		<polygon class="st1" points="597.3,202.1 579.4,176.1 700.2,93.6 826.5,70 797.4,61.2 699.7,77.6 571.7,127.4 560.2,97.9 
			691.3,46.9 799.5,28.8 960.8,77 712.6,123.4 		"/>
	</g>
	<g>
		
			<rect x="84.1" y="222.5" transform="matrix(0.8659 -0.5002 0.5002 0.8659 -184.1107 163.1404)" class="st2" width="256.3" height="404.9"/>
	</g>
</g>
<g>
	<g>
		<path class="st1" d="M1506,994.2c-0.2-0.2-23-16.8-73.1-43.4c-48.4-25.6-157.6-29.4-158.7-29.4l1-31.6
			c4.8,0.1,117.7,4.1,172.5,33.1c52.7,27.9,76.2,45.2,77.2,45.9L1506,994.2z"/>
	</g>
	<g>
		<g>
			<path class="st1" d="M1263.7,1025.9l-31.6,0.4c-0.2-14.7-0.2-64,8.2-82l28.7,13.4C1265.3,965.4,1263.4,999.1,1263.7,1025.9z"/>
		</g>
		<g>
			<path class="st1" d="M1631.7,979.6l-24-20.6c0.4-0.4,39.4-46.3,75.4-123.2l58.5-125.2c-2.8,0.3-5.8,0.9-9,1.9
				c-8.5,2.8-16.6,8.4-24.1,16.6c-18.3,20-39.1,53.7-59.2,86.2c-15.2,24.6-30.9,50.1-46.3,71.1c-33.4,45.4-83.2,89-109.1,95.7
				c-0.1,0.1-0.3,0.1-0.4,0.1l-7.5-30.7c0.1,0,0.1,0,0.1-0.1c12.5-3.2,55.8-35.4,91.3-83.7c14.7-19.9,30-44.8,44.9-68.9
				c21.8-35.3,42.4-68.7,62.7-90.9c11.2-12.3,23.9-20.8,37.6-25.3c26.1-8.7,46.6,0.3,48.9,1.3l14.4,6.7l-74.1,158.6
				C1673.8,930.4,1633.4,977.7,1631.7,979.6z"/>
		</g>
		<g>
			<path class="st1" d="M1426.1,945.6l-8-30.6l4.1,15.3L1418,915c0.2-0.1,21-5.8,54.5-26.2c32.8-19.9,60-58.1,84.5-96.3
				c18.3-28.5,91.6-141.3,116.5-172.1c27.5-33.8,89.2-29.7,96.1-29.1l22.6,1.9l-50.7,108.7l-28.7-13.4l30.5-65.4
				c-16.6,1.5-36.2,6-45.2,17.1c-21.7,26.7-87.7,127.4-114.4,169.2c-26.6,41.5-56.4,83-94.7,106.3
				C1451,938.9,1427.1,945.3,1426.1,945.6z"/>
		</g>
		<g>
			<path class="st1" d="M1387.8,929.1c-6.1,1.6-12.6,2.9-19.3,3.8l-4.5-31.3c70.6-10.1,98.7-64,117.3-99.7c2.9-5.7,5.8-11,8.5-15.6
				c21.2-36.5,32.9-60.1,42.2-79.1c15.5-31.4,24-48.7,56.3-81.1c54.6-54.6,108.2-41.5,110.5-41l18.7,4.8l-32.8,67.8l-28.5-13.8
				l13.6-28.2c-15,2.3-36.5,10.1-59.1,32.6c-28.7,28.7-35.5,42.5-50.3,72.7c-9.1,18.4-21.5,43.6-43.3,81.1c-2.3,4-4.8,8.8-7.7,14.4
				C1490.7,852.4,1460.4,910.5,1387.8,929.1z"/>
		</g>
		<g>
			<path class="st1" d="M1125,1337.9l-12.6-5.9l-251.5-117.5l5.8-14c1.1-2.7,27.9-66.6,51.9-111c28.1-52,134.8-115.4,179.4-140.2
				c39.5-22,73.6-30,103.6-37.1c14.7-3.4,28.6-6.8,41.2-11.3c10.1-3.7,19.5-6.1,28.5-8.5c26.6-7,45.8-12,69.5-44.2
				c22.2-30.1,29.5-64.5,36.6-97.7c3.5-16.4,7.1-33.4,12.5-49.6l0.4-1.3l0.6-1.2c0.6-1,14.1-26.3,30.2-46.1
				c16.9-20.9,44.2-21.4,57.6-18.5l16.5,3.7l-4.7,16.2c-10.7,36.5-62.4,250.8-63,252.9l-30.7-7.4c1.8-7.7,40.6-168.1,57.6-233.1
				c-3.2,1.2-6.2,3.1-8.7,6.1c-12.3,15.2-23.5,35-26.2,39.9c-4.6,14.2-7.8,29.1-11.2,45c-7.8,36.5-15.8,74.3-42,109.8
				c-30.4,41.2-59.2,48.8-87,56.1c-8.3,2.2-16.9,4.4-25.7,7.6c-14.3,5.2-29.1,8.7-44.7,12.3c-28,6.6-59.8,14.1-95.5,33.9
				c-67.8,37.8-147.3,91.1-167,127.6c-16.7,30.8-35.2,72.7-44.6,94.1l211.8,98.9c17.7-24.1,62.8-77.7,120.5-87.1
				c82.2-13.6,182.3-37.7,216.5-64.8c28.4-22.5,96.5-90.1,141.6-134.9c10.8-10.7,19.9-19.8,27.1-26.8c-14.1-9.1-39.2-19.3-68.2-4.1
				c-30.6,16-55.4,41.5-77.3,64.1c-16.7,17.2-31.1,32-45.9,40.6c-23.4,13.5-96.8,43.6-123.3,31.2l13.4-28.7
				c-0.1-0.1-0.2-0.1-0.4-0.2c10.2,3,61.7-10.9,94.5-29.8c11-6.3,24-19.7,39-35.2c22.4-23.1,50.3-51.7,85.4-70
				c52.7-27.5,100.4,1.3,118.3,20.3l10.9,11.7l-11.8,10.8c-5.7,5.2-20.5,19.9-39.3,38.6c-45.6,45.2-114.4,113.6-144.2,137.2
				c-47.7,37.8-177.5,62.4-231,71.2c-59,9.8-106.3,83.6-106.8,84.4L1125,1337.9z"/>
		</g>
		<g>
			<path class="st1" d="M1389.2,1096.5c-1.1-0.6-108.2-54.6-180.4-57.6c-57.9-2.5-158.5,69.1-192.4,96.8l-20.1-24.5
				c1.3-1.1,32.9-26.9,74.6-52.7c57.4-35.5,104.3-52.8,139.3-51.4c79.1,3.3,188.8,58.7,193.4,61.1L1389.2,1096.5z"/>
		</g>
		<g>
			
				<rect x="838.9" y="1145.8" transform="matrix(0.5642 -0.8256 0.8256 0.5642 -691.7735 1385.9436)" class="st2" width="256.3" height="404.9"/>
		</g>
	</g>
</g>
</svg>
