<?xml version="1.0" encoding="utf-8"?>
<!-- Generator: Adobe Illustrator 23.0.3, SVG Export Plug-In . SVG Version: 6.00 Build 0)  -->
<svg version="1.1" id="Layer_1" xmlns="http://www.w3.org/2000/svg" xmlns:xlink="http://www.w3.org/1999/xlink" x="0px" y="0px"
	 viewBox="0 0 515.2 456.9" style="enable-background:new 0 0 515.2 456.9;" xml:space="preserve">
<style type="text/css">
	.st0{fill:#F3F315;}
	.st1{fill:#CBAB00;}
	.st2{fill:#FF0DD1;}
	.st3{fill:#FFFFFF;}
	.st4{opacity:0.2;}
	.st5{opacity:0.1;}
	.st6{fill:none;}
	.st7{fill:#b2098b;}
</style>
<path d="M401.5,85.4c-4.1-27.1,21-111-77.6-77.6S211.4,102.8,112,109.3C12.6,115.9,3.1,144.9,11.8,214.6S-44,404.6,60.5,366.2
	s135.2-110,181.7-51.2s99.2,118,142.7,60.7s168.4-113.9,119-149.5C454.5,190.6,414.3,169.5,401.5,85.4z"/>
<path class="st0" d="M375.4,303.2c0,0,1.6,41.9,2.6,54.8c1,12.9,22.3,22.6,30.3,31.3c8.1,8.7,2.9,37.1,2.9,37.1s7.7-18.4,8.4-26.8
	c0.6-8.4-0.6-45.1-15.2-68.3c-7-11.1,0-87.2,0-87.2"/>
<path class="st0" d="M351.4,303c0,0-36.9,92.2-44.3,96.9c0,0,23.9,2.5,32.1-20.5c8.2-22.9,32.8-56.4,37.3-56.4"/>
<path class="st1" d="M416.7,330.8c0,0,3.4-28.8,21.8-33.8c18.4-5,21.4-3.2,27.7-3.2c6.3,0,7.1-8.9,7.1-14.6c0-5.7,3.2-8.9,4.5-12
	c1.3-3.1-3.6-4.1-3.6-4.1s1.7-0.3,4.9-2.2c3.2-1.9-0.6-4.5-1.8-8.9c-1.3-4.5,7-5.7,7-10.1c0-4.4-8.8-10.8-12.6-16.5
	c-3.8-5.7-1.5-17.3-2.7-29.4c-1.2-12-36.6-50.5-36.6-50.5L334,176.8l-9.4,95.8l33.3,52.4L416.7,330.8z"/>
<path class="st0" d="M440.1,162.2c1.3,0.2,15.8,1.4-2.2,16.5c-9.3,7.1-16.8,14.6-21,20c-4.4,5.6-5.6,9.2-6.2,11.8
	c0.1,7.5,7.2,20,10.2,30.7c4,12.3,5,25.5,4.7,26.3c0-0.7-1.2-12.4-9.9-25.7c-4-6.9-9.1-14.8-13.6-22.7c-4.4-7.8-8-15.6-8.1-19.1
	c-0.6-7.3,2.5-15.6,7.4-23.9c4.7-8,11.3-16.1,11.1-15.5"/>
<path class="st0" d="M441.4,160.6c0,0-46.4,25.2-46.4,58.1s-1.9,72.6-1.9,72.6l-2.9,28.1l-43.5-3.9l-31.9-32.9l12.6-38.7l31-61.9
	l61-26.1L441.4,160.6z"/>
<g>
	<path class="st0" d="M414.8,167.4c0,0-1.8,9.7-4.5,20c-2.5,10.4-5.8,21.2-5,26.8c1.5,5.6-2.1,27.5-5.8,49.8
		c-1.5,11.1-2.3,22.3-1.5,31.4c0.7,9.1,3.2,16.2,4.3,19.2c0.2,0.1-18.9-39.4-17.7-74.6"/>
</g>
<g id="Helmet_1_">
	<g>
		<path class="st2" d="M439.9,185c15.9-1.5,31.2,0.9,45,6.4c-17.9-34.1-55.1-55.8-95.8-52.1c-53.8,5-93.4,52.7-88.4,106.5
			c3.5,37.9,28.3,68.8,61.4,82c-5.8-11-9.5-23.2-10.7-36.3C346.5,237.7,386.1,190,439.9,185z"/>
	</g>
	<g>
		<g>
			<path class="st3" d="M346.1,160.2l-111.5-1.2c-11.5-0.1-22.3-3.2-30.4-8.6c-8.3-5.6-12.9-13-12.8-20.9v-1.6l107.2,1.2
				c16.1,0.1,32.1,6,40.9,15c4.4,4.5,6.7,9.5,6.6,14.5V160.2z M194.7,131.2c0.5,6.2,4.5,12,11.3,16.6c7.6,5.1,17.8,7.9,28.6,8.1
				l108.2,1.1c-0.4-3.6-2.3-7.3-5.6-10.6c-8.1-8.2-23.6-13.9-38.6-14L194.7,131.2z"/>
		</g>
	</g>
	<g>
		<g>
			<path class="st3" d="M348.2,192.3l-89.7-1.2c-11.5-0.1-22.3-3.2-30.4-8.6c-8.3-5.6-12.9-13-12.8-20.9V160l89.7,1.2
				c14.6,0.1,28,5.1,36,13.2c4.7,4.8,7.2,10.5,7.2,16.3L348.2,192.3z M218.7,163.3c0.5,6.2,4.5,12,11.3,16.6
				c7.6,5.1,17.8,7.9,28.6,8.1l86.4,1.1c-0.4-4.4-2.5-8.6-6.2-12.4c-7.4-7.5-20-12.1-33.7-12.2L218.7,163.3z"/>
		</g>
	</g>
	<g>
		<g>
			<path class="st3" d="M356.3,224.7l-57.7-1.2c-11.5-0.1-22.3-3.2-30.4-8.6c-8.3-5.6-12.9-13-12.8-20.9v-1.6l57.7,1.2
				c14.5,0.1,28,5.1,36,13.2c4.7,4.8,7.2,10.5,7.2,16.3V224.7z M258.8,195.7c0.5,6.2,4.5,12,11.3,16.6c7.6,5.1,17.8,7.9,28.6,8.1
				l54.3,1.1c-0.4-4.4-2.5-8.6-6.1-12.3c-7.4-7.5-20-12.1-33.7-12.2L258.8,195.7z"/>
		</g>
	</g>
</g>
<g class="st4">
	<g>
		<path class="st3" d="M94.1,255.4c3.7,0,3.7-5.8,0-5.8C90.3,249.6,90.3,255.4,94.1,255.4L94.1,255.4z"/>
	</g>
</g>
<g class="st4">
	<g>
		<path class="st3" d="M173.9,285.9c3.7,0,3.7-5.8,0-5.8C170.2,280.1,170.1,285.9,173.9,285.9L173.9,285.9z"/>
	</g>
</g>
<g class="st4">
	<g>
		<path class="st3" d="M117.3,195.9c3.7,0,3.7-5.8,0-5.8C113.5,190.1,113.5,195.9,117.3,195.9L117.3,195.9z"/>
	</g>
</g>
<g class="st4">
	<g>
		<path class="st3" d="M67.9,124.8c3.7,0,3.7-5.8,0-5.8C64.2,119,64.2,124.8,67.9,124.8L67.9,124.8z"/>
	</g>
</g>
<g class="st4">
	<g>
		<path class="st3" d="M59.2,245.3c3.7,0,3.7-5.8,0-5.8C55.5,239.5,55.5,245.3,59.2,245.3L59.2,245.3z"/>
	</g>
</g>
<g class="st4">
	<g>
		<path class="st3" d="M7,323.7c3.7,0,3.7-5.8,0-5.8S3.2,323.7,7,323.7L7,323.7z"/>
	</g>
</g>
<g class="st4">
	<g>
		<path class="st3" d="M72.3,323.7c3.7,0,3.7-5.8,0-5.8C68.5,317.8,68.5,323.7,72.3,323.7L72.3,323.7z"/>
	</g>
</g>
<g class="st4">
	<g>
		<path class="st3" d="M120.2,304.8c3.7,0,3.7-5.8,0-5.8C116.4,299,116.4,304.8,120.2,304.8L120.2,304.8z"/>
	</g>
</g>
<g class="st4">
	<g>
		<path class="st3" d="M182.6,210.4c3.7,0,3.7-5.8,0-5.8S178.9,210.4,182.6,210.4L182.6,210.4z"/>
	</g>
</g>
<g class="st4">
	<g>
		<path class="st3" d="M380,46.4c3.7,0,3.7-5.8,0-5.8S376.3,46.4,380,46.4L380,46.4z"/>
	</g>
</g>
<g class="st4">
	<g>
		<path class="st3" d="M291.5,46.4c3.7,0,3.7-5.8,0-5.8S287.8,46.4,291.5,46.4L291.5,46.4z"/>
	</g>
</g>
<g class="st4">
	<g>
		<path class="st3" d="M326.3,82.7c3.7,0,3.7-5.8,0-5.8S322.6,82.7,326.3,82.7L326.3,82.7z"/>
	</g>
</g>
<g class="st4">
	<g>
		<path class="st3" d="M266.8,82.7c3.7,0,3.7-5.8,0-5.8S263.1,82.7,266.8,82.7L266.8,82.7z"/>
	</g>
</g>
<g class="st4">
	<g>
		<path class="st3" d="M247.9,258.3c3.7,0,3.7-5.8,0-5.8S244.2,258.3,247.9,258.3L247.9,258.3z"/>
	</g>
</g>
<g class="st5">
	<g>
		<path class="st3" d="M54.9,172.7c7.5,0,7.5-11.6,0-11.6C47.4,161.1,47.4,172.7,54.9,172.7L54.9,172.7z"/>
	</g>
</g>
<g class="st5">
	<g>
		<path class="st3" d="M91.2,291.7c7.5,0,7.5-11.6,0-11.6C83.7,280.1,83.7,291.7,91.2,291.7L91.2,291.7z"/>
	</g>
</g>
<g class="st5">
	<g>
		<path class="st3" d="M185.5,238c7.5,0,7.5-11.6,0-11.6C178,226.4,178,238,185.5,238L185.5,238z"/>
	</g>
</g>
<g class="st5">
	<g>
		<path class="st3" d="M27.3,296.1c7.5,0,7.5-11.6,0-11.6C19.8,284.5,19.8,296.1,27.3,296.1L27.3,296.1z"/>
	</g>
</g>
<g>
	<path class="st0" d="M378.7,317.4c-0.4-0.1-8.7,17.4,3.9,29.7c8.1,6.3,4.5,14.5,5,23.6c-0.6,9,2.8,19.1,0.5,28.9
		c-1.2,9.8-7.9,19.5-17.3,27.1c-9,7.6-20.5,13.1-21,14c-1.9-0.2,14.9-27.7,9.8-48.9c-0.5-5.4,0.7-12.7,0.8-20.5
		c0.3-7.8-0.5-16.3-0.5-24.1c0-7.9,0.7-15.3,3-21.6c2-6.2,5.6-11.3,4.2-14.5"/>
</g>
<g class="st5">
	<g>
		<path class="st3" d="M139.1,245.3c7.5,0,7.5-11.6,0-11.6S131.6,245.3,139.1,245.3L139.1,245.3z"/>
	</g>
</g>
<g class="st5">
	<g>
		<path class="st3" d="M259.5,87.1c7.5,0,7.5-11.6,0-11.6C252.1,75.5,252.1,87.1,259.5,87.1L259.5,87.1z"/>
	</g>
</g>
<g class="st5">
	<g>
		<path class="st3" d="M335,55.1c7.5,0,7.5-11.6,0-11.6C327.6,43.5,327.5,55.1,335,55.1L335,55.1z"/>
	</g>
</g>
<g class="st5">
	<g>
		<path class="st3" d="M367,105.9c7.5,0,7.5-11.6,0-11.6C359.5,94.3,359.5,105.9,367,105.9L367,105.9z"/>
	</g>
</g>
<g>
	<path class="st6" d="M476.6,269.4c-0.8,0.1-1.8,0.1-2.7,0.1c-2.3,0-11.9-6.8-11.9-6.8s9-3.9,11.6-5.8c2.6-1.9,5.5-0.8,5.5-0.8
		l0.2,0.2c-0.7-1.3-1.6-2.7-2.1-4.5c-1.3-4.5,7-5.7,7-10.1c0-4.4-8.8-10.8-12.6-16.5s-1.5-17.3-2.7-29.4
		c-1.2-12-36.6-50.5-36.6-50.5l-98.5,31.3l-4.2,93.7l28.2,54.5l58.8,5.8c0,0,2.7-36.7,21.1-41.7c18.4-5,23.4,0.1,29.8,0.1
		c6.3,0,5.7-4.4,5.8-10.1C473.3,274.8,475.2,271.9,476.6,269.4z"/>
	<path class="st7" d="M473.6,257c-2.6,1.9-11.6,5.8-11.6,5.8s9.7,6.8,11.9,6.8c0.9,0,1.8-0.1,2.7-0.1c0.4-0.8,0.9-1.5,1.2-2.3
		c1.3-3.1-3.6-4.1-3.6-4.1s1.7-0.3,4.9-2.2c1.9-1.1,1.3-2.5,0.2-4.4l-0.2-0.2C479.1,256.2,476.2,255,473.6,257z"/>
</g>
<path class="st0" d="M353.6,295.8c0,0,15.6-0.3-24.7,73.3c-11.6,21.2-29,41.8-23.9,54.8c5.1,13,12.4,33,12.4,33s-1.5-30.7,14.5-39.5
	s34.8-38.9,31.9-43.7c-2.9-4.7,10.2-55.5,22.5-59"/>
<path class="st0" d="M369.2,318.6c0,0,9.3,35.3-2.3,57.4s0.7,24.4,2.3,34c1.9,11.8-1,20.2-1,20.2s-3.2-10.1-10.3-20.8
	c-7.1-10.6-15.4-25.6-17.9-35.8c-4.5-18.6-6.3-29.5-3.4-36.3C339.6,330.6,369.2,318.6,369.2,318.6z"/>
<rect x="332.6" y="297.2" class="st2" width="142.3" height="49.3"/>
<g>
	<path class="st0" d="M384.3,229.1c0.1,1.6,0.1,11.3,3.1,27.9c2.8,15.8,8.6,38.6,13.3,46c4.5,6.3,6,12.6,7,20.3
		c1,7.8,1.3,11.1,1.3,11c0,1.1,0-9.7-1.3-20.2c-0.6-5.1-1.5-9.8-2.4-13.2c-0.9-3.5-1.7-5.6-1.8-9c-0.3-5.5,2.9-23.9,8.2-42.5
		c4.1-19.2,7.6-33-20.2-39.4"/>
</g>
</svg>
