<?xml version="1.0" encoding="utf-8"?>
<!-- Generator: Adobe Illustrator 22.0.1, SVG Export Plug-In . SVG Version: 6.00 Build 0)  -->
<svg version="1.1" id="Layer_1" xmlns="http://www.w3.org/2000/svg" xmlns:xlink="http://www.w3.org/1999/xlink" x="0px" y="0px"
	 viewBox="0 0 2566.2 3537.4" style="enable-background:new 0 0 2566.2 3537.4;" xml:space="preserve">
<style type="text/css">
	.st0{fill:#FF5A62;}
	.st1{fill:#D7EB00;}
	.st2{opacity:0.3;}
	.st3{opacity:0.4;}
</style>
<g>
	<g>
		<path class="st0" d="M2302.2,1463c0,0,156.2-247.8,240-217.2c48.9,17.8,8,161.2,8,161.2l-144,136L2302.2,1463z"/>
	</g>
	<g>
		<path class="st0" d="M1726.2,575l-224-8l48-336c0,0,68.9-48.3,101.7-47.2c24.1,0.9,74.3,31.2,74.3,31.2V575z"/>
	</g>
	<g>
		<path class="st0" d="M390.2,1239.2L226.5,1367l-225-249c0,0-8.5-109.1,15.6-132c24.4-23.2,134.5-9.3,134.5-9.3L390.2,1239.2z"/>
	</g>
	<g>
		<path class="st0" d="M694.2,687l-208-384c0,0-85.3-11.3-112,0.4c-28.7,12.6-56,79.6-56,79.6l192,368L694.2,687z"/>
	</g>
	<g>
		<path class="st0" d="M1286.2,460.4h-112h-112v-252V82.8c0,0,84-82.8,112-82.8s112,82.8,112,82.8v125.6V460.4z"/>
	</g>
	<g>
		<path d="M1173.7,3537.4c-49.4,0-99.3-2.3-149.5-7c-209.7-19.5-349.3-72.2-355.1-74.5c-6.9-2.7-10.9-10-9.3-17.2
			c0.9-4.1,91.8-416.6,115.4-641.2c8.2-78.3-17-134.8-48.9-206.3c-24.8-55.6-52.9-118.6-70.9-205.1
			c-23.6-113.4-29.2-386.7-24.3-491.8c1.1-23.3-10.1-67.5-69.6-146.4c-43.8-58-106.5-125-181.6-193.8
			c-69.6-63.8-138.8-139.3-189.9-207.2c-66.7-88.6-99-158.3-95.8-207.3c1.6-25,12.1-44.5,31.4-58.1c22.9-16.2,53.3-17.2,90.2-2.9
			c30,11.6,64.9,33.1,106.6,65.8c75.6,59.2,159.7,144.1,241,226.1c62,62.5,120.5,121.6,168.7,162.4c67.2,56.9,87.2,53.9,91.7,51.6
			c0,0,6.4-6.8-1.9-44.5c-6.1-27.7-18.6-65.1-38-114.2c-36.5-92.4-91.1-209.6-149-333.6c-63.3-135.8-128.8-276.3-171.5-387.4
			C440.2,644.2,425.7,597.5,419,562c-8.6-45.8-4.1-73.5,14.2-87c42.8-31.7,76.5-43.8,106.1-37.9c43.8,8.7,70.5,53.4,107.5,115.2
			c11.8,19.7,25.1,42,40.2,65c38.6,58.8,105.1,213,175.5,376.2c50.8,117.8,103.3,239.6,148.8,333.9c24.5,50.6,44.5,88.4,61.3,115.5
			c24.1,38.9,34.2,43.6,35.7,44.1c1.1,0.1,2-0.1,3.6-1.7c9.2-9.5,23.3-48.6,13.5-204.6c-7-110.9-23.8-253.1-40-390.5
			c-15.2-128.6-31-261.6-38.2-366.1c-14.3-207.2-1.3-311.2,44.7-358.9c30.2-31.3,71.1-36.6,123.3-34.8c23.9,0.8,37.8,28,46.1,48.5
			c9.9,24.1,19.4,58.3,29.2,104.6c17.9,85.1,33.7,196.6,50.4,314.7c2.9,20.4,5.8,40.9,8.7,61.4c11.8,82.5,20.9,206.6,30.5,338
			c8.9,121.7,18.1,247.5,30,345.7c6.4,52.7,12.9,92.5,19.9,121.6c8,33.4,14.9,44.3,17.8,47.7c13.1-10.7,41.1-60.7,49.2-291.4
			c5.5-158-0.1-340.2-5.8-465.3c-6.7-146.6,1.4-240.3,26.2-303.9c14.4-36.9,34.5-64.3,61.4-83.7c27.3-19.7,61-30.7,103-33.7
			c14.9-1,28.4,4,39.2,14.5c21.4,21,32.9,64.2,36,135.9c2.6,58.9-0.9,129.3-3.9,191.4c-2,41-3.9,79.8-3.9,110.8
			c0,20.1-0.5,54.8-1.2,98.8c-2.1,139-5.7,371.8,0.3,579.4c3.3,114.7,9.2,207.3,17.4,275.2c12.8,105,28.8,128.9,35.1,134.2
			c12.6,10.8,21.2,11,26.6,10.3c29.6-4,66.5-58.8,113.1-128.2c44.4-66.1,99.7-148.4,175.8-229.2c46-48.9,83.3-93.1,116.1-132.1
			c69.6-82.5,115.5-137.1,167.7-139.3c28.1-1.2,55.3,12.5,85.8,43c25.3,25.3,36.5,58.6,33.2,98.8c-2.8,33.5-15.2,71.4-38.2,116.1
			c-40.9,79.6-106.2,163.4-163.9,237.2c-16.8,21.6-32.8,42-46.8,60.7c-53.6,71.4-88.9,118.6-119.7,178.9
			c-30.9,60.5-57,133.2-93,259.4c-33.7,118-107,217.2-171.6,304.8c-74.6,101-139.1,188.3-121,272.8
			c35.9,167.6,40.9,538.1,41.1,553.8c0.1,5.7-3.1,11-8.3,13.6c-127.4,63.7-266,106.5-412,127.3
			C1316.5,3532.5,1245.6,3537.4,1173.7,3537.4z M691.9,3432.2c38.3,13.1,164.7,52.6,336,68.4c120.7,11.1,239.8,8.5,354-7.8
			c139.3-19.9,271.8-60.3,393.8-120.2c-1-59.8-8.1-388.4-40.3-538.5c-9.7-45.2-1.1-92.2,27.1-147.7c24.3-48,60.7-97.2,99.1-149.2
			c63.1-85.5,134.7-182.4,166.9-295.2c72.9-255.1,109.4-303.7,217.6-448c14.2-18.9,30.2-39.4,47.1-61.2
			c56.8-72.8,121.2-155.4,160.8-232.5c43.5-84.7,46.9-143.5,10.5-180c-24.2-24.2-44.2-35-63.4-34.2c-39,1.7-81.6,52.2-146,128.7
			c-33.1,39.3-70.6,83.8-117.2,133.3c-74.4,79-128.9,160.1-172.7,225.3c-54.8,81.5-91,135.3-133.9,141.2c-17.2,2.3-34-3.5-50.1-17.3
			c-12.8-10.9-31.4-38.7-45.3-153.4c-8.4-68.8-14.3-162.3-17.6-277.9c-6-208.3-2.4-441.5-0.3-580.7c0.7-43.8,1.2-78.5,1.2-98.3
			c0-31.7,1.9-70.8,3.9-112.2c3-61.4,6.4-131.1,3.9-188.6c-3.4-77.1-16.5-105.5-27-115.8c-4.7-4.6-9.7-6.5-16.1-6
			c-71.3,5-114,35.3-138.6,98.4c-23.2,59.5-30.6,149.4-24.2,291.6c5.7,125.6,11.4,308.7,5.8,467.7c-8.7,251.2-40.6,300.9-63.9,316.4
			c-8.7,5.8-18.3,6.6-27.1,2.3c-17.7-8.6-36.6-37.8-55.3-191.1c-12.1-99.3-21.5-226.7-30.5-350c-9.6-130.9-18.7-254.5-30.3-335.9
			c-2.9-20.4-5.8-41-8.7-61.4c-16.6-117.6-32.3-228.6-50-312.7c-9.4-44.5-18.4-77-27.6-99.4c-11.6-28.3-19.3-29.9-19.4-29.9
			c-45.5-1.5-78.2,2.3-100.7,25.7c-18.6,19.2-30.6,52.6-36.7,102.1c-6.8,54.7-6.7,131.2,0.4,233.9c7.2,103.7,22.8,236.4,38,364.6
			c16.3,137.9,33.2,280.5,40.2,392.2c8.5,135,1.9,203-22,227.4c-7.8,7.9-17.5,11.6-28.1,10.6c-22.2-2.1-50.9-32.1-118.5-171.4
			c-46.4-95.5-99.9-219.8-151.8-340c-69.8-162-135.8-315-173-371.6c-15.4-23.5-29-46.1-40.9-66.1c-33-55.2-56.8-95-87.6-101.1
			c-20.7-4.1-46.9,6.2-82.3,32.5c-2.8,2-11.1,12.2-2.6,57.4c6.3,33.7,20.4,78.7,43,137.6c42.3,110.2,107.6,250.1,170.7,385.5
			c59.5,127.5,115.6,248,152.4,342.3c20,51.2,32.5,90.1,38.1,118.8c4.8,24.7,8.5,58.8-15.4,70.8c-5.5,2.8-11.6,4.1-18.2,4.1
			c-52.2,0-138.9-84.6-276.9-223.9C461.4,1310.2,378,1226,303.9,1168c-78.2-61.3-132.4-82.2-161-62c-11.6,8.2-17.7,19.8-18.7,35.5
			c-1.3,21,6.3,48.6,22.7,82c15.3,31,37.8,66.5,67.1,105.4c50.1,66.5,118,140.5,186.2,203.1c76.4,70,140.4,138.4,185.3,197.9
			c52.1,69.1,77.5,124.9,75.6,165.9c-5,106.2,1.4,377.3,23.7,484.2c17.4,83.3,44.8,144.8,68.9,199c32.4,72.7,60.4,135.4,51.3,221.7
			C783.6,3004.3,707.6,3360.1,691.9,3432.2z M1108.4,1487C1108.4,1487,1108.4,1487,1108.4,1487C1108.4,1487,1108.4,1487,1108.4,1487
			z"/>
	</g>
	<g>
		<rect x="1102.2" y="1352.3" class="st1" width="323.8" height="37.2"/>
	</g>
	<g>
		<rect x="1106.2" y="1300.3" class="st1" width="323.8" height="37.2"/>
	</g>
	<g>
		<rect x="1106.2" y="1238.3" class="st1" width="323.8" height="37.2"/>
	</g>
	<g>
		
			<rect x="771.1" y="1382.2" transform="matrix(0.9122 -0.4097 0.4097 0.9122 -506.7789 501.2611)" class="st1" width="290.8" height="102.5"/>
	</g>
	<g>
		<path class="st1" d="M1642.2,1361h-90c-24.2,0-44-19.8-44-44v0c0-24.2,19.8-44,44-44h90c24.2,0,44,19.8,44,44v0
			C1686.2,1341.2,1666.4,1361,1642.2,1361z"/>
	</g>
	<g>
		<path class="st1" d="M1734.2,1313h-60c-5.5,0-10-4.5-10-10l0,0c0-5.5,4.5-10,10-10h60c5.5,0,10,4.5,10,10l0,0
			C1744.2,1308.5,1739.7,1313,1734.2,1313z"/>
	</g>
	<g>
		<path class="st1" d="M1730.2,1341h-60c-5.5,0-10-4.5-10-10l0,0c0-5.5,4.5-10,10-10h60c5.5,0,10,4.5,10,10l0,0
			C1740.2,1336.5,1735.7,1341,1730.2,1341z"/>
	</g>
</g>
<g class="st2">
	<g>
		<path class="st0" d="M1264.2,1575c0,97.5,0,195,0,292.4c0,27.9,0,55.7,0,83.6c0,15.7,13.8,30.7,30,30c16.3-0.7,30-13.2,30-30
			c0-97.5,0-195,0-292.4c0-27.9,0-55.7,0-83.6c0-15.7-13.8-30.7-30-30C1277.9,1545.8,1264.2,1558.2,1264.2,1575L1264.2,1575z"/>
	</g>
</g>
<g class="st2">
	<g>
		<path class="st0" d="M957.6,1631c1.8,2.2,3.6,4.4,5.4,6.6c1.4,1.8,7.3,9.7,1.6,2c3.2,4.4,6.5,8.7,9.6,13.1
			c6.4,9.1,12.5,18.4,18.3,27.9c11.5,19,21.6,38.9,30.3,59.3c-1-2.4-2-4.8-3-7.2c11,26.3,19.7,53.5,25.7,81.4
			c3.3,15.4,22.1,25.8,36.9,21c16.2-5.2,24.5-20.5,21-36.9c-12.7-58.6-36.7-115.3-70-165.1c-10.3-15.4-21.5-30.2-33.3-44.4
			c-4.6-5.6-14.2-8.8-21.2-8.8c-7.4,0-16.1,3.3-21.2,8.8c-5.2,5.7-9.1,13.2-8.8,21.2C949.2,1618.2,952.3,1624.6,957.6,1631
			L957.6,1631z"/>
	</g>
</g>
<g class="st2">
	<g>
		<path class="st0" d="M1552.2,1631c0,61.3,0,122.7,0,184c0,15.7,13.8,30.7,30,30c16.3-0.7,30-13.2,30-30c0-61.3,0-122.7,0-184
			c0-15.7-13.8-30.7-30-30C1565.9,1601.8,1552.2,1614.2,1552.2,1631L1552.2,1631z"/>
	</g>
</g>
<g class="st2">
	<g>
		<path class="st0" d="M1934.7,1847.2c-3.4,79-33.8,157.2-87.4,225c-9.3,11.7-19.6,23.4-34.8,30.8c-15.1,7.4-36.2,9.3-50.7,1.3
			c-11.3-6.3-16.4-17-20.3-27.3c-31.7-84.7-16.6-174.9-1.3-262.1c26,26.6,29.2,70.3,70.9,79.8c35.7,8.1,68.4-16.8,91.2-39.1"/>
	</g>
</g>
<g class="st3">
	<g>
		<path class="st0" d="M1276.2,1963c0-69.3,0-138.7,0-208c0-7.7-12-7.7-12,0c0,69.3,0,138.7,0,208
			C1264.2,1970.8,1276.2,1970.8,1276.2,1963L1276.2,1963z"/>
	</g>
</g>
<g class="st3">
	<g>
		<path class="st0" d="M1560.2,1831c0-36,0-72,0-108c0-7.7-12-7.7-12,0c0,36,0,72,0,108C1548.2,1838.8,1560.2,1838.8,1560.2,1831
			L1560.2,1831z"/>
	</g>
</g>
<g class="st3">
	<g>
		<path class="st0" d="M1051.7,1819.1c-1.7-46-27-89.4-66.3-113.6c-6.6-4.1-12.6,6.3-6.1,10.4c35.6,21.9,58.8,61.5,60.3,103.2
			C1040,1826.8,1052,1826.8,1051.7,1819.1L1051.7,1819.1z"/>
	</g>
</g>
<g>
	<g>
		<path class="st0" d="M2269.8,1774.1c-39.8-51.6-95.2-89.9-157.8-108.5c-1.1,3.9-2.1,7.7-3.2,11.6c81.9,23.2,163.9,46.4,245.8,69.6
			c7,2,9.8-7.1,4.6-11c-58.9-43.8-122.6-80.8-189.7-110.4c-1,3.7-2,7.5-3,11.2c51.1-5.8,102.6-5.8,153.7,0.1c5.8,0.7,8.3-8.8,3-11.2
			c-53.1-23.8-108.8-41.5-166-52.4c-7.5-1.4-10.8,9.6-3.2,11.6c51.6,13.1,103.2,26.2,154.8,39.3c7.5,1.9,10.7-9.7,3.2-11.6
			c-51.6-13.1-103.2-26.2-154.8-39.3c-1.1,3.9-2.1,7.7-3.2,11.6c56.1,10.7,111,27.8,163.2,51.2c1-3.7,2-7.5,3-11.2
			c-51.1-5.9-102.6-5.9-153.7-0.1c-5.1,0.6-9.2,8.5-3,11.2c67.2,29.5,130.9,66.6,189.7,110.4c1.5-3.7,3.1-7.3,4.6-11
			c-81.9-23.2-163.9-46.4-245.8-69.6c-7.4-2.1-10.6,9.4-3.2,11.6c59.3,17.6,112.8,53.9,150.7,103c2,2.6,5.1,3.9,8.2,2.2
			C2270.2,1780.9,2271.8,1776.7,2269.8,1774.1L2269.8,1774.1z"/>
	</g>
</g>
<g>
	<g>
		<path class="st0" d="M1670.1,1005.7c-61.8-4.3-123.6-8.6-185.4-13c0,4,0,8,0,12c71.3,2.9,142.5,5.7,213.8,8.6
			c16.8,0.7,36.3-0.8,51,8.8c0.5-3.7,1-7.3,1.4-11c-53.2,18.8-106.4,37.6-159.5,56.5c-6.2,2.2-5.4,11.7,1.6,11.8
			c48.9,0.7,96.2-13.3,142.6-27.3c6.5-2,5.2-11.5-1.6-11.8c-56.8-2.3-113.6,1.4-169.6,10.7c-7.6,1.3-4.4,12.8,3.2,11.6
			c55-9.1,110.8-12.5,166.5-10.2c-0.5-3.9-1.1-7.9-1.6-11.8c-45.4,13.7-91.5,27.5-139.4,26.9c0.5,3.9,1.1,7.9,1.6,11.8
			c53.2-18.8,106.4-37.6,159.5-56.5c4.9-1.7,5.9-8,1.4-11c-12.8-8.4-28.2-9.3-43.1-9.9c-18.6-0.7-37.1-1.5-55.7-2.2
			c-36.5-1.5-72.9-2.9-109.4-4.4c-20.9-0.8-41.8-1.7-62.6-2.5c-7.8-0.3-7.6,11.5,0,12c61.8,4.3,123.6,8.6,185.4,13
			C1677.8,1018.3,1677.8,1006.2,1670.1,1005.7L1670.1,1005.7z"/>
	</g>
</g>
<g>
	<g>
		<path class="st0" d="M1298,1034.2c-57.2-6.3-114.7-9.5-172.2-9.5c-3.7,0-7,3.9-5.8,7.6c4.1,12.5,17.1,15.8,29,15.2
			c7.8-0.4,15.5-2.3,23.2-3.7c9-1.7,17.9-3.5,26.8-5.3c36.7-7.5,73.3-15.8,109.6-24.9c20.5-5.2,41-10.6,61.4-16.2
			c6.7-1.8,5.1-11.5-1.6-11.8c-52.1-2.5-105.8-4.2-154.7,16.9c-5.3,2.3-2.8,9.4,1.4,11c25.8,9.8,53.8,9.2,80.9,8.3
			c-1.4-3.4-2.8-6.8-4.2-10.2c-25.2,20.5-54.6,35.4-85.9,43.9c-6.1,1.7-5.3,9.6,0,11.6c19.3,7.2,41.7,4.1,58.2-8
			c5.4-3.9,2.3-12.5-4.6-11c-37.4,8-72,26.6-99.6,53.1c-5.6,5.4,2.9,13.8,8.5,8.5c26.2-25.1,58.8-42.3,94.3-50
			c-1.5-3.7-3.1-7.3-4.6-11c-14.3,10.5-32.4,13-49,6.8c0,3.9,0,7.7,0,11.6c33.4-9.1,64.4-25.2,91.2-47c4.1-3.3,0.7-10.4-4.2-10.2
			c-26.2,0.9-52.9,1.6-77.7-7.9c0.5,3.7,1,7.3,1.4,11c46.7-20.1,99.1-17.6,148.7-15.3c-0.5-3.9-1.1-7.9-1.6-11.8
			c-65.9,18.3-132.6,33.9-199.8,46.8c-8,1.5-31.6,8.5-35.5-3.4c-1.9,2.5-3.9,5.1-5.8,7.6c57.5,0,115,3.2,172.2,9.5
			C1305.7,1047,1305.6,1035,1298,1034.2L1298,1034.2z"/>
	</g>
</g>
<g>
	<g>
		<path class="st0" d="M854.2,1165c-64.9,1.9-129.6,11.1-192.5,27.2c-7.5,1.9-4.3,13.1,3.2,11.6c65.9-13.5,131.8-27,197.7-40.5
			c18.9-3.9,37.8-7.7,56.8-11.6c-1.1-3.9-2.1-7.7-3.2-11.6c-66.2,17.4-142.8,40-174.7,107.2c-1.9,4,0.3,9.1,5.2,9
			c42.6-0.3,84.2-17.6,114.5-47.6c4.6-4.5-0.3-11-5.8-10c-21.8,3.6-43.2,9.1-64,16.4c-7.2,2.5-4.2,14,3.2,11.6
			c30.8-10.1,60.9-21.9,90.3-35.5c7-3.2,0.9-13.6-6.1-10.4c-28.5,13.1-57.7,24.5-87.5,34.2c1.1,3.9,2.1,7.7,3.2,11.6
			c20.8-7.3,42.2-12.8,64-16.4c-1.9-3.3-3.9-6.7-5.8-10c-28.1,27.8-66.5,43.8-106,44.1c1.7,3,3.5,6,5.2,9
			c30.6-64.2,104.4-85,167.6-101.6c7.5-2,4.3-13.1-3.2-11.6c-65.9,13.5-131.8,27-197.7,40.5c-18.9,3.9-37.8,7.7-56.8,11.6
			c1.1,3.9,2.1,7.7,3.2,11.6c61.9-15.9,125.4-24.9,189.3-26.8C861.9,1176.8,861.9,1164.8,854.2,1165L854.2,1165z"/>
	</g>
</g>
<g>
	<g>
		<path class="st0" d="M518.8,1427.8c-47.9-17.5-106.7,16.1-115.9,66.2c-0.9,5.1,4,9.4,8.8,6.8c47.1-26,93.7-53,139.8-80.8
			c6.7-4,0.8-13.7-6.1-10.4c-49.9,24.4-103.5,51.8-131.3,102.4c-2.5,4.6,1.6,10.2,6.8,8.8c39.4-10.4,77.5-25.1,113.6-43.8
			c-2-3.5-4-6.9-6.1-10.4c-27.6,20.4-55.2,40.8-82.8,61.2c-6.1,4.5-0.2,15,6.1,10.4c27.6-20.4,55.2-40.8,82.8-61.2
			c6.1-4.5,0.9-14-6.1-10.4c-35.3,18.2-72.4,32.5-110.8,42.6c2.3,2.9,4.5,5.9,6.8,8.8c26.8-48.7,79-74.7,127-98.1
			c-2-3.5-4-6.9-6.1-10.4c-46.1,27.8-92.7,54.8-139.8,80.8c2.9,2.3,5.9,4.5,8.8,6.8c8.1-44.1,59-73.2,101.1-57.9
			C522.9,1442,526,1430.4,518.8,1427.8L518.8,1427.8z"/>
	</g>
</g>
<g class="st2">
	<g>
		<path class="st0" d="M775.7,1823.9c36.6,69.2,78,135.8,123.7,199.3c4.7,6.5,9.9,11.6,17.9,13.8c7.2,2,16.7,1.1,23.1-3
			c12.6-8.1,20.6-27.4,10.8-41c-45.7-63.5-87.1-130.1-123.7-199.3c-7.4-13.9-27.8-19.3-41-10.8
			C772.3,1791.9,767.8,1809,775.7,1823.9L775.7,1823.9z"/>
	</g>
</g>
<g class="st2">
	<g>
		<path class="st0" d="M1789.5,3362.8c-9-158-18.1-316.1-27.1-474.1c-2.5-43.6-4.8-87.3,0.6-130.7c-0.6,4.7-1.3,9.3-1.9,14
			c2.4-18.1,6.2-36,11.5-53.6c2.2-7.4,4.7-14.6,7.3-21.8c1.5-4,3.1-8,4.7-12.1c2.4-6.1-4.6,10.6-1.9,4.6c1-2.2,1.9-4.4,2.9-6.6
			c14.2-31.3,32.2-60.9,52.1-89c4.8-6.8,9.7-13.6,14.8-20.3c2.4-3.2,4.8-6.3,7.2-9.4c-10.1,13.4,0.2-0.2,2.8-3.4
			c10.8-13.6,21.9-27,33.2-40.3c21.7-25.7,44.4-50.6,65.6-76.8c37.8-46.8,62-101.3,83.4-157.1c22.7-59.1,40.9-119.8,59.4-180.4
			c20.3-66.6,40.1-133.7,66.4-198.3c-4.5,7.7-9,15.4-13.5,23.2c85-76.6,164.2-162.4,231.3-255c24.2-33.4,46.6-68.4,63.4-106.1
			c5.9-13.3,9.3-25.8,5.3-40.5c-3.4-12.2-12.8-25.4-24.1-31.4c-22.8-12.1-59.9-8-71.8,18.8c-11.5,25.9-25.8,50.5-41.4,74.3
			c-8.4,12.8-17.3,25.4-26.4,37.8c-4.4,5.9-8.6,12.1-13.4,17.8c0.1-0.1,8.6-11,3.7-4.7c-1.3,1.6-2.5,3.3-3.8,4.9
			c-2.8,3.6-5.7,7.2-8.5,10.7c-36.2,45-75.3,87.7-115.8,128.9c-22.8,23.2-46.4,45.6-70.1,67.9c-8.2,7.7-12.7,17.2-17,27.7
			c-5.9,14.5-11.4,29.2-16.7,44c-11.4,31.8-21.7,64-31.7,96.3c-20.4,65.8-39.5,132.1-62.3,197.1c-5.4,15.5-11,30.8-17,46.1
			c-2.7,6.9-5.6,13.8-8.4,20.7c7.1-17.7,1.2-3-0.4,0.8c-1.6,3.6-3.2,7.2-4.8,10.8c-11.3,24.6-23.9,48.8-39.7,70.8
			c-1.5,2.1-3,4.1-4.5,6.1c11.6-15.9,4.2-5.5,1.3-2c-6,7.2-12.1,14.2-18.2,21.3c-12.3,14.3-24.6,28.5-36.8,42.9
			c-26.4,30.9-52.2,62.4-76,95.4c-45.1,62.2-82.1,133.3-92.9,210.1c-6.7,47.7-5.7,94.9-2.9,142.9c2.6,45.8,5.2,91.6,7.9,137.5
			c5.2,91.1,10.4,182.2,15.6,273.3c1.3,22.3,2.6,44.6,3.8,67c1.6,27.4,23,53.8,52.5,52.5C1764.1,3414.1,1791.2,3392.2,1789.5,3362.8
			L1789.5,3362.8z"/>
	</g>
</g>
<g>
	<g>
		<path class="st0" d="M643.7,1841.6c10.1,24.6,18.2,50.4,20.5,77c1.8,21.3,0,42.6-4,63.6c-8.9,47.2-25.8,93.7-29.2,141.9
			c-2.7,39.3,7.5,80,17.1,117.8c11.1,44,24.7,87.2,36.7,130.9c11.7,42.4,17.4,86.1,32.2,127.7c17.5,49.1,42.1,95.2,61.7,143.4
			c21,51.6,35.3,105.9,30.4,162c-2.8,32.8-10.5,65.1-17.5,97.2c-7,32.2-14,64.5-21.1,96.7c-28.3,130-56.6,260.1-85,390.1
			c-3.5,16.1-7,32.2-10.5,48.4c-1.6,7.5,9.9,10.7,11.6,3.2c28.5-131.1,57.1-262.1,85.6-393.2c14-64.5,29.5-128.9,41.8-193.7
			c5.9-31.1,10-62.8,7.2-94.5c-2.3-26.6-8-52.9-16.1-78.4c-15.6-49.3-39.6-95.3-60.1-142.6c-10.9-25.1-20.6-50.8-27.7-77.3
			c-5.5-20.4-8.3-41.3-13.2-61.9c-10.1-42.3-23.5-83.8-35.2-125.6c-11.6-41.6-23.5-84.4-26.1-127.7c-1.3-21.5,2.3-42.1,6.4-63.1
			c4.9-24.7,11.2-49,17-73.4c10.3-44.1,14.4-87.3,2.6-131.5c-3.7-13.7-8.5-27-13.8-40.1C652.4,1831.3,640.8,1834.4,643.7,1841.6
			L643.7,1841.6z"/>
	</g>
</g>
</svg>
