<?xml version="1.0" encoding="utf-8"?>
<!-- Generator: Adobe Illustrator 22.0.1, SVG Export Plug-In . SVG Version: 6.00 Build 0)  -->
<svg version="1.1" id="Layer_1" xmlns="http://www.w3.org/2000/svg" xmlns:xlink="http://www.w3.org/1999/xlink" x="0px" y="0px"
	 viewBox="0 0 5609.2 2510.1" style="enable-background:new 0 0 5609.2 2510.1;" xml:space="preserve">
<style type="text/css">
	.st0{opacity:0.2;}
	.st1{fill:#EFDF00;}
	.st2{opacity:0.3;}
</style>
<g>
	<g class="st0">
		<g>
			<path class="st1" d="M2632.5,1077.4c-20.6-2.2-40.8,0.1-61.2,3.4c-15.6,2.5-30.8,7-45.4,12.7c-34.8,13.6-66.9,31.1-98,51.6
				c-57.8,38.2-113.8,79.4-168.7,121.7c-34.7,26.8-69.1,54-102.9,82c-3.1,4-6.3,8.1-9.4,12.1c-2,4.8-4,9.6-6,14.3
				c-0.7,5.3-1.4,10.6-2.1,16c-0.3,8.3,1.4,16,5.2,23.1c1.4,5.1,4,9.5,7.7,13.2c2.7,4.5,6.3,8.1,10.8,10.8
				c10,7.7,23.4,13.7,36.4,12.9c56.3-3.5,112.7-4.7,169.1-3.6c14.5,0.3,32.5-6.7,42.4-17.6c3.1-4,6.3-8.1,9.4-12.1
				c4.4-6.9,6.8-14.3,7.1-22.3c1.4-5.3,1.4-10.6,0-16c-0.4-8-2.7-15.4-7.1-22.3c-8.8-13.6-20.5-22.4-35.9-27.6
				c-1.1-0.4-2.2-0.8-3.3-1.3c4.8,2,9.6,4,14.3,6c-2.8-1.3-5.4-2.9-7.9-4.7c4,3.1,8.1,6.3,12.1,9.4c-2.4-1.9-4.5-4.1-6.4-6.5
				c3.1,4,6.3,8.1,9.4,12.1c-2.3-3.1-4.2-6.4-5.8-10c2,4.8,4,9.6,6,14.3c-1.8-4.5-3.1-9-3.8-13.8c0.7,5.3,1.4,10.6,2.1,16
				c-0.7-5.3-0.7-10.6-0.1-15.8c-0.7,5.3-1.4,10.6-2.1,16c0.7-4.9,1.9-9.5,3.7-14.1c-2,4.8-4,9.6-6,14.3c2.2-5.1,5.1-9.7,8.4-14.1
				c-3.1,4-6.3,8.1-9.4,12.1c4.3-5.4,9.2-10.2,14.7-14.4c-4,3.1-8.1,6.3-12.1,9.4c8.8-6.7,18.6-11.9,28.8-16.3c-4.8,2-9.6,4-14.3,6
				c13.1-5.4,26.6-9.2,40.2-12.9c19.3-5.3,37.5-11.4,55.9-19.3c28.4-12.1,51.4-33.4,72.7-55.3c9.9-10.1,19.8-20.3,31-29
				c-4,3.1-8.1,6.3-12.1,9.4c7.5-5.7,15.5-10.7,24.2-14.4c-4.8,2-9.6,4-14.3,6c1.3-0.5,2.7-1.1,4-1.6c7.8-1.9,14.6-5.4,20.4-10.7
				c6.5-4.2,11.7-9.8,15.5-16.8c7.5-12.9,10.7-31.8,6-46.2c-4.7-14.5-13.7-28.5-27.6-35.9c-13.7-7.3-31-11.3-46.2-6
				c-67.2,23.4-134.6,46-202.3,67.7c-68,21.8-136.4,42.7-204.9,62.7c-38.5,11.2-77.1,22.2-115.8,32.9c-20.2,5.6-36.3,21.7-41.9,41.9
				c-5.4,19.6-0.4,44.5,15.4,58.4c13.6,11.9,28.2,22.9,43.9,31.9c15.9,9.1,32.9,16.2,49.8,23.1c25.5,10.4,51.9,18.2,77.9,26.8
				c14.7,4.8,29.3,10,43.5,16c-4.8-2-9.6-4-14.3-6c18.3,7.8,36,17.1,51.8,29.2c-4-3.1-8.1-6.3-12.1-9.4c10.2,8,19.5,17.1,27.4,27.4
				c5.4,5.9,11.9,10,19.3,12.4c7.2,3.8,14.9,5.5,23.1,5.2c14.7,0,32.3-6.5,42.4-17.6c10.5-11.4,18.3-26.4,17.6-42.4
				c-0.7-5.3-1.4-10.6-2.1-16c-2.9-10.2-8-19-15.4-26.5c-12.1-15.7-27.2-27.8-43.2-39.5c-12-8.8-25.1-16.1-38.6-22.3
				c-32.2-14.8-65.7-25.6-99.3-36.6c-16.8-5.5-33.5-11.2-49.8-18c4.8,2,9.6,4,14.3,6c-19.2-8.1-37.7-17.8-54.3-30.5
				c4,3.1,8.1,6.3,12.1,9.4c-3.1-2.4-6.2-5-9.2-7.6c-8.8,33.4-17.7,66.9-26.5,100.3c68.5-18.9,136.9-38.7,204.9-59.4
				c68.4-20.8,136.4-42.4,204.2-65c38.1-12.7,76.1-25.6,113.9-38.8c-10.6-38.6-21.3-77.1-31.9-115.7c-13.7,5.1-27.2,10.9-39.1,19.5
				c-11.7,8.5-22.9,17.5-33.2,27.6c-14.4,14-27.7,29.2-43.5,41.7c4-3.1,8.1-6.3,12.1-9.4c-9.4,7.2-19.5,13-30.3,17.6
				c4.8-2,9.6-4,14.3-6c-18.4,7.6-37.8,11.9-56.8,17.5c-21,6.1-42.4,13.9-60.9,25.8c-10.8,6.9-21.6,15-30.3,24.5
				c-8.3,9.1-16.6,19.3-21.6,30.7c-7.5,17-11.2,29.8-12.3,48.7c-0.2,3.3-0.1,6.5,0.2,9.8c0.8,8.4,1.6,17.2,4,25.4
				c4.8,16.9,13.1,30.8,24.5,44c11.3,13,26.9,21.2,43,26.6c5.3-39.3,10.6-78.6,16-117.9c-56.4-1.1-112.8,0.1-169.1,3.6
				c14.1,34.1,28.3,68.3,42.4,102.4c28.8-23.9,58.1-47.3,87.7-70.2c-4,3.1-8.1,6.3-12.1,9.4c31.7-24.5,63.7-48.3,96.3-71.6
				c31.6-22.6,63.3-45.4,96.4-65.7c18.1-11.1,36.7-21.3,56.3-29.6c-4.8,2-9.6,4-14.3,6c18-7.5,36.7-13.2,56.1-16
				c-5.3,0.7-10.6,1.4-16,2.1c13.7-1.8,27.4-2.1,41.1-0.6c8.3,0.3,16-1.4,23.1-5.2c7.4-2.4,13.9-6.6,19.3-12.4
				c10.4-10.4,18.2-27.5,17.6-42.4c-0.7-15.5-5.8-31.6-17.6-42.4c-4-3.1-8.1-6.3-12.1-9.4
				C2653.4,1080.2,2643.3,1077.4,2632.5,1077.4L2632.5,1077.4z"/>
		</g>
	</g>
	<g class="st0">
		<g>
			<path class="st1" d="M2668.7,1580c64,0,128,0,192,0c15.4,0,31.5-6.7,42.4-17.6c10.4-10.4,18.2-27.5,17.6-42.4
				c-0.7-15.5-5.8-31.6-17.6-42.4c-11.7-10.8-26.2-17.6-42.4-17.6c-64,0-128,0-192,0c-15.4,0-31.5,6.7-42.4,17.6
				c-10.4,10.4-18.2,27.5-17.6,42.4c0.7,15.5,5.8,31.6,17.6,42.4C2638.1,1573.2,2652.5,1580,2668.7,1580L2668.7,1580z"/>
		</g>
	</g>
	<g class="st0">
		<g>
			<path class="st1" d="M2926.7,1591.4c82,2.5,164.1,1.8,246.1-2c15.8-0.7,31-6.2,42.4-17.6c10.4-10.4,18.2-27.5,17.6-42.4
				c-0.7-15.5-5.8-31.6-17.6-42.4c-11.4-10.5-26.5-18.3-42.4-17.6c-82,3.8-164.1,4.5-246.1,2c-15.1-0.5-31.9,7-42.4,17.6
				c-10.4,10.4-18.2,27.5-17.6,42.4c0.7,15.5,5.8,31.6,17.6,42.4C2896.2,1584.8,2910.3,1590.9,2926.7,1591.4L2926.7,1591.4z"/>
		</g>
	</g>
	<g class="st0">
		<g>
			<path class="st1" d="M3111.3,936.9c2.3,9.6,4.1,19.3,5.4,29.1c-0.7-5.3-1.4-10.6-2.1-16c3.4,26.2,3.3,52.6-0.1,78.8
				c0.7-5.3,1.4-10.6,2.1-16c-3.7,27.3-10.9,53.9-21.6,79.2c2-4.8,4-9.6,6-14.3c-7.8,18.2-17.3,35.5-28.5,51.9
				c-4.4,6.9-6.8,14.3-7.1,22.3c-1.8,8-1.4,16,1.1,23.9c3.8,13.9,14.6,29,27.6,35.9c13.9,7.4,30.8,11,46.2,6c4.8-2,9.6-4,14.3-6
				c9-5.3,16.2-12.5,21.5-21.5c21.3-31,37.2-66.5,47.4-102.7c5.8-20.6,8.9-41.6,11.4-62.8c2-16.6,2.6-33.4,1.8-50.1
				c-1.1-23.4-4.4-46.9-9.8-69.7c-3.4-14.4-15-28.5-27.6-35.9c-12.9-7.5-31.8-10.7-46.2-6c-14.5,4.7-28.5,13.7-35.9,27.6
				C3109.7,905.2,3107.5,920.6,3111.3,936.9L3111.3,936.9z"/>
		</g>
	</g>
	<g class="st0">
		<g>
			<path class="st1" d="M3531.5,1047.4c2.9,12.2,5.6,24.5,7.3,37c-0.7-5.3-1.4-10.6-2.1-16c1.4,11,2,22,0.6,33
				c0.7-5.3,1.4-10.6,2.1-16c-1.1,7.9-3.2,15.6-6.3,23c2-4.8,4-9.6,6-14.3c-10.3,24.4-27.7,45.8-42.7,67.4
				c-4.4,6.9-6.8,14.3-7.1,22.3c-1.8,8-1.4,16,1.1,23.9c3.8,13.9,14.6,29,27.6,35.9c13.9,7.4,30.8,11,46.2,6c4.8-2,9.6-4,14.3-6
				c9-5.3,16.2-12.5,21.5-21.5c14-20.2,29.8-40.1,40.4-62.5c5.9-12.3,11.7-25.3,14-38.9c2.6-15.1,4.2-29.7,2.8-44.9
				c-1.9-20.4-5.5-40.5-10.2-60.4c-3.4-14.4-15-28.5-27.6-35.9c-12.9-7.5-31.8-10.7-46.2-6c-14.5,4.7-28.5,13.7-35.9,27.6
				C3529.8,1015.8,3527.6,1031.2,3531.5,1047.4L3531.5,1047.4z"/>
		</g>
	</g>
	<g>
		<g>
			<path class="st1" d="M2950.7,1574c33.7,0.1,67.4,0.2,101.1,0.3c7.9,0,7.4-11.1,0-12c-42.6-5.3-85.6-7.5-128.5-6.5
				c-7.8,0.2-7.6,11.4,0,12c29.6,2.2,59.3,0.9,88.6-3.7c15.7-2.5,64.7-7.9,52.7-34.9c-0.8-1.9-3.3-3-5.2-3
				c-63.4-0.2-126.9-0.3-190.3-0.5c0,4,0,8,0,12c82.2-0.9,164.3-8.2,245.5-21.7c7.6-1.3,4.4-12.8-3.2-11.6
				c-80.1,13.3-161.1,20.4-242.3,21.3c-7.7,0.1-7.7,12,0,12c63.4,0.2,126.9,0.3,190.3,0.5c-1.7-1-3.5-2-5.2-3
				c1.4,3.2-4.1,6.5-6.2,7.8c-4.4,2.5-9.3,3.5-14.2,4.6c-12.1,2.8-24.4,5-36.7,6.5c-24.5,3-49.2,3.5-73.9,1.7c0,4,0,8,0,12
				c42.9-1,85.9,1.1,128.5,6.5c0-4,0-8,0-12c-33.7-0.1-67.4-0.2-101.1-0.3C2943,1561.9,2943,1573.9,2950.7,1574L2950.7,1574z"/>
		</g>
	</g>
	<g>
		<g>
			<path class="st1" d="M2665.4,1538c37.4,17.5,80.6,18,118.5,1.6c5.8-2.5,2.4-11-3-11.2c-35-1.1-70.1-2.3-105.1-3.4
				c-7.8-0.3-7.5,11.3,0,12c51.3,5,103.1,1.7,153.5-9.4c7-1.6,4.8-11.2-1.6-11.8c-47.1-4.3-94.7,0-140.4,12.3
				c-6.3,1.7-5.3,12.5,1.6,11.8c17.4-1.9,34.7-3.8,52.1-5.7c7.6-0.8,7.7-12.8,0-12c-17.4,1.9-34.7,3.8-52.1,5.7
				c0.5,3.9,1.1,7.9,1.6,11.8c44.7-12.1,91.1-16.1,137.2-11.9c-0.5-3.9-1.1-7.9-1.6-11.8c-49.3,10.9-100,13.9-150.3,9c0,4,0,8,0,12
				c35,1.1,70.1,2.3,105.1,3.4c-1-3.7-2-7.5-3-11.2c-33.6,14.6-73.3,14-106.4-1.6C2664.5,1524.4,2658.4,1534.8,2665.4,1538
				L2665.4,1538z"/>
		</g>
	</g>
	<g>
		<g>
			<path class="st1" d="M2500.8,1550.7c33.8-0.8,67.6-1.6,101.4-2.4c6.6-0.2,8.3-10,1.6-11.8c-35.4-9.2-70.7-18.4-106.1-27.6
				c0,3.9,0,7.7,0,11.6c35.9-5.2,71.9-10.4,107.8-15.6c6.9-1,4.9-11.6-1.6-11.8c-44.2-1.3-88.3-5-132-11.1c-3.2-0.5-6.4,0.8-7.4,4.2
				c-0.8,2.8,1,6.9,4.2,7.4c44.8,6.3,89.9,10.2,135.2,11.6c-0.5-3.9-1.1-7.9-1.6-11.8c-35.9,5.2-71.9,10.4-107.8,15.6
				c-6.1,0.9-5.4,10.2,0,11.6c35.4,9.2,70.7,18.4,106.1,27.6c0.5-3.9,1.1-7.9,1.6-11.8c-33.8,0.8-67.6,1.6-101.4,2.4
				C2493.1,1538.8,2493.1,1550.9,2500.8,1550.7L2500.8,1550.7z"/>
		</g>
	</g>
	<g>
		<path class="st1" d="M2728.7,2089.9c0,0-114,138-174,132s-102-102-102-102l138-126L2728.7,2089.9z"/>
	</g>
	<g>
		<path class="st1" d="M2584.8,1963.9c0,0-114,138-174,132s-102-102-102-102l138-126L2584.8,1963.9z"/>
	</g>
	<g>
		<path class="st1" d="M3128.5,1725.7l-24,176c0,0,232,120,312,64s67.9-154.2,32-184C3386,1729.8,3128.5,1725.7,3128.5,1725.7z"/>
	</g>
	<g>
		<path class="st1" d="M4285.4,1004.1c-18.4-34.3-42-54-168-54c-77,0-127.1-9-154.4-15.9c-13.2-3.4-26.2,6.3-26.7,19.9l-4,95
			c-0.5,11.6,8.4,21.5,20,22.3l306,19.7c17.8,1.1,21.3-16.3,26.3-33.4C4292.8,1030.5,4291.3,1015,4285.4,1004.1z"/>
	</g>
	<g>
		<g class="st2">
			<g>
				<path class="st1" d="M2432.5,1513.5c51-28.9,77.1-11.6,131.8-33.5c-7.7,3.1-15.3,6.1-23,9.2c33.1-13.2,66.9-24.9,101-35.7
					c41.2-13,82.6-27,120.6-47.2c16.9-9,33.5-18.7,51.4-26c-7.7,3.1-15.3,6.1-23,9.2c12.4-4.9,25.2-8.2,38.5-10
					c-8.5,1.1-17.1,2.2-25.6,3.3c18.3-2.2,36.7-2,55.1-2c18.9,0,37.8,0.1,56.8,0.1c38.2,0.1,76.3,0.1,114.5,0.2
					c21.9,0,43.8,0.1,65.7,0.1c13.3,0.5,25.6-2.1,37.1-7.9c11.9-3.7,22.3-10,31-18.9c9.4-8.3-41.6-18.1-37.7-29.4
					c6-10.9,8.8-22.6,8.3-35.2c-1.1-8.1-2.3-16.2-3.4-24.3c-4.6-15.5-12.8-28.9-24.8-40.3c-18.9-16.4,15.6-26.7-10.5-26.8
					l-13.9-27.6c-59.1-0.1-112.7,5.3-171.7,5.2c-28.8-0.1-79.5-26.3-108.3-25.7c-21.7,0.5-53.6,22.8-74.9,26.9
					c-20.3,4-32.9,13.3-51.5,21.6c-27.1,12.2-65.6,28.8-93.3,40c7.7-3.1-16.7,17.3-9,14.3c-42.4,16.9-7.9,31.4-50.7,47.2
					c-49.8,18.4-98.9,38.8-146.4,62.1c-23.1,11.3-45.8,23.3-68.1,35.9c-11.2,5.7-20.2,13.6-27,23.5"/>
			</g>
		</g>
	</g>
	<g>
		<path d="M3149.9,2006.4c-48.7,0-99.6-6.1-147.8-18.2c-162.4-40.6-524.7-87.4-672.8-79.6c-58.6,3.1-106.2,18.5-156.7,34.8
			c-78.9,25.5-160.6,51.9-293.7,37.1c-153.9-17.1-344.7-147.3-498.1-251.9c-67.5-46-125.7-85.8-171.3-109.7
			c-42-22.1-174.4-52.6-566.8-72.3c-236-11.8-456.2-14-458.4-14c-5.4,0-10.4-3-13-7.8c-0.4-0.8-43.2-78.9-85.3-174.6
			C28.9,1220.7,0,1122,0,1056.9c0-64.6,27.4-181.5,81.5-347.3c40-122.8,80.6-228.3,81-229.4c2.4-6.3,8.7-10.2,15.4-9.5
			c3.3,0.3,335.8,30.9,485.4,30.9c52.1,0,172.5-4.6,311.9-10c271.2-10.5,608.8-23.5,699.1-12.9c95.5,11.2,339.2,56.6,554.1,96.7
			c92.3,17.2,179.4,33.4,246.8,45.5c106.5,19,438.3,96.1,759.2,170.7c332.9,77.4,710.2,165.1,742.2,165.1c27.2,0,99.6,0,163.4,18.8
			c35.7,10.5,64.1,25.5,84.4,44.5c25.4,23.8,38.6,53.9,39.1,89.5c0.7,44.5-13,80.3-40.6,106.5c-70.3,66.7-214,56.8-329.6,48.9
			c-31.5-2.2-61.2-4.2-84.8-4.2c-79.5,0-150.7-12.4-233.2-26.7c-61.1-10.6-124.3-21.6-200.3-29.4c-1.8-0.2-185.5-18.3-245.9-15.9
			c-8.7,0.3-16.5,0.3-23.2,0.1c17.5,41.9,32.6,77.9,46.1,110.2c83.5,199.5,90.3,215.7,107.2,283.3c9.5,38-0.5,66.3-10.7,83.3
			c-2,3.4-4.1,6.5-6.2,9.3c44.7,15.3,138.9,54.5,170.2,120.9c14.4,30.5,14,62.9-1.2,96.1c-12.4,27.2-34,50.3-64.1,68.7
			c-27.3,16.7-60.9,29-100,36.8C3216.9,2003.4,3183.9,2006.4,3149.9,2006.4z M2365.4,1877.8c72.7,0,179.1,8.1,300.5,23
			c133.4,16.4,265,38.7,343.4,58.3c77.8,19.5,162.4,22.7,232.1,8.9c72.5-14.4,123.1-45.8,142.6-88.5c11.5-25.2,11.9-48.3,1.3-70.8
			c-34.7-73.8-173.3-111.8-174.7-112.2c-5.7-1.5-10-6.2-11-12c-1-5.8,1.4-11.5,6.3-14.8c2.1-1.5,37.1-27.9,24-80.1
			c-16.3-65.4-21.4-77.4-105.8-279c-15.9-38-33.9-81-55.5-132.8c-2.1-5-1.3-10.8,2-15c3.3-4.3,8.7-6.4,14.1-5.6
			c0.1,0,16.7,2.5,43,1.5c62.4-2.4,242.4,15.3,250.1,16.1c77.1,7.9,143.7,19.4,202.5,29.6c81.1,14.1,151.2,26.3,228.1,26.3
			c24.6,0,54.9,2.1,86.9,4.3c55,3.8,117.3,8,173.8,3.7c63-4.8,106.6-19.4,133.1-44.5c21.6-20.5,31.8-48,31.2-84.3
			c-0.4-27.5-10.1-49.8-29.6-68c-16.9-15.8-41.3-28.5-72.4-37.6c-59.7-17.5-128.9-17.5-155-17.5c-33,0-305-62.7-749-165.8
			c-320.5-74.5-651.9-151.5-757.7-170.4c-67.5-12.1-154.7-28.3-247-45.5c-214.5-40-457.5-85.2-552.1-96.4
			c-88-10.4-438.5,3.2-694.4,13.1c-139.7,5.4-260.4,10.1-313.1,10.1c-135.1,0-416.8-24.6-476.8-30C161.6,567.5,30,922.7,30,1056.9
			c0,133.4,137.7,397.5,163.5,445.9c43.6,0.5,241,3.4,450.7,13.9c319.4,16,514.3,41.5,579.2,75.7c47.1,24.8,106,65,174.2,111.5
			c150.6,102.7,338,230.6,484.5,246.9c126.7,14.1,205.3-11.3,281.2-35.9c52.4-16.9,101.8-32.9,164.4-36.2
			C2339,1878.1,2351.6,1877.8,2365.4,1877.8z"/>
	</g>
	<g>
		<path d="M2310.8,1452.9l-265.5-105l11-27.9l250.4,99c31.2-21.9,164-114.8,221.9-151.7c4.6-2.9,9.7-6.2,15-9.7
			c73-47,208.8-134.6,319.9-112.4c116.7,23.3,262.4,13.5,263.8,13.4l2.1,29.9c-6.1,0.4-151.2,10.2-271.8-13.9
			c-99.2-19.8-228.4,63.4-297.8,108.2c-5.4,3.5-10.5,6.8-15.2,9.8c-64.9,41.3-225.8,154.4-227.4,155.6L2310.8,1452.9z"/>
	</g>
	<g>
		<path d="M3208.5,1695.6c-23.8-10.6-156.3-33.8-284.4-56.2c-155.7-27.3-316.7-55.4-373-74.8l-118.6-17.8l4.5-29.7l121.4,18.2
			l1.4,0.5c52.6,18.6,221,48.1,369.5,74.1c163.8,28.7,265.6,46.8,291.4,58.4L3208.5,1695.6z"/>
	</g>
	<g>
		<path d="M2891.8,1623.2l-26.2-14.6l25.9-46.6c-15.6-27.6-63.9-114.9-69.5-144.5c-4.1-21.7-67.6-153.9-106.7-232l26.8-13.4
			c10.5,21.1,103.1,206.9,109.3,239.9c4,21.4,45.2,98.8,70.3,142.6l4.2,7.3L2891.8,1623.2z"/>
	</g>
	<g>
		<path d="M2636.4,1572.3c-1.5-5-36.6-122.6-36.6-166.3c0-26.3-45.4-84.9-74-115.8l22-20.4c0.8,0.9,20.3,21.9,40,48.5
			c28.2,38,42,66.7,42,87.7c0,32.6,25.5,124.9,35.4,157.7L2636.4,1572.3z"/>
	</g>
	<g>
		<path d="M2439.8,1548.1c-3.5,0-7.2-0.8-10.9-2.4l-1.7-0.7l-127.5-97.1l18.2-23.9l117.6,89.6c1-10,0.4-32.5-9.3-81.3
			c-7.9-39.5-17.8-76.1-17.9-76.4l28.9-7.9c0.5,1.7,11.2,41.1,19.4,83.6c15.9,82.1,8.3,101.8-2.1,110.9
			C2450.3,1546.3,2445.2,1548.1,2439.8,1548.1z"/>
	</g>
	<g>
		<path d="M2626.8,2200.8c-27.8,0-53.4-6.8-76.2-20.3c-19-11.2-35.8-27.2-48.7-46.3c-15.1-22.4-23.8-47.5-24-67.3
			c-26.4-3.8-80.2-14.7-118-43.1c-11.7-8.8-17.9-20.8-17.8-34.6c0.1-21.1,14.3-45.4,43.4-74.4c20-19.9,39.7-34.5,40.5-35.1
			l17.8,24.2c-29.7,21.9-71.6,62.9-71.7,85.4c0,3,0.7,6.7,5.8,10.5c43.8,32.9,117.4,39,118.1,39l20.3,1.6l-7.6,18.9
			c-3.2,8.1,1.3,33.4,18,58c13.5,19.9,44.5,53.4,100,53.4c37.3,0,100.6-39.1,178.1-110c60.9-55.8,110-112.2,110.5-112.7l22.7,19.7
			c-0.5,0.6-50.8,58.3-112.9,115.2C2739.6,2161.2,2672.9,2200.8,2626.8,2200.8z"/>
	</g>
	<g>
		<rect x="2464.6" y="1963.9" transform="matrix(0.7208 -0.6931 0.6931 0.7208 -653.3457 2335.6182)" width="216.4" height="30"/>
	</g>
	<g>
		<g>
			<path class="st1" d="M2678.4,1080.2c-85.5,29.6-171,59.2-256.5,88.8c-85.2,29.5-170.4,59-255.5,88.5
				c-48.1,16.7-96.2,33.3-144.3,50c2.3,2.9,4.5,5.9,6.8,8.8c11.2-18.2,30.7-27.1,51-31.6c22.4-5,45.4-5.1,68.2-6.4
				c57.2-3.3,113.9-14,168.4-31.5c30.7-9.9,60.6-22,89.6-36.2c6-2.9,1.8-13.4-4.6-11c-89.5,33.8-179,67.5-268.5,101.3
				c-25.3,9.5-50.5,19.1-75.8,28.6c-7.2,2.7-4.5,13.2,3.2,11.6c66.3-14.3,133.7-22.6,201.5-24.6c19.1-0.6,38.2-0.6,57.3-0.2
				c0-4,0-8,0-12c-96.4,2.4-192.5,16.6-285.4,42.5c-26.1,7.3-52,15.5-77.6,24.6c1.1,3.9,2.1,7.7,3.2,11.6
				c51.2-20.9,108-25.6,162.3-15.5c54,10,105.8,33.8,147.6,69.6c23.6,20.2,43.8,44,59.4,70.8c3.9,6.7,14.3,0.6,10.4-6.1
				c-28.8-49.4-72.7-88.9-123.4-114.9c-50.8-26-108.5-39.1-165.5-36.2c-32.2,1.7-64.1,8.4-94,20.7c-7,2.8-4.2,14.2,3.2,11.6
				c89.8-31.9,183.6-52.9,278.5-61.9c27-2.6,54.1-4.1,81.2-4.8c7.7-0.2,7.7-11.8,0-12c-68.5-1.4-137.1,3.4-204.7,14.4
				c-19.2,3.1-38.2,6.7-57.2,10.8c1.1,3.9,2.1,7.7,3.2,11.6c89.5-33.8,179-67.5,268.5-101.3c25.3-9.5,50.5-19.1,75.8-28.6
				c-1.5-3.7-3.1-7.3-4.6-11c-52.7,25.7-108.8,44.3-166.5,55.4c-28.8,5.5-58,9.1-87.3,10.8c-23,1.3-46.3,1.6-68.9,6.6
				c-23.6,5.1-45.8,16.1-58.8,37.2c-2.6,4.3,1.8,10.5,6.8,8.8c85.5-29.6,171-59.2,256.5-88.8c85.2-29.5,170.4-59,255.5-88.5
				c48.1-16.7,96.2-33.3,144.3-50C2688.9,1089.3,2685.8,1077.7,2678.4,1080.2L2678.4,1080.2z"/>
		</g>
	</g>
	<g>
		<g>
			<path class="st1" d="M3540.5,1038.8c-7.9,44.8-3.4,91.2,13.6,133.4c1.9,4.6,8.1,6.2,11,1.4c13.1-22,11.3-48.7,10.5-73.3
				c-0.7-21.5-2.3-49,16.7-63.7c-2.9-2.3-5.9-4.5-8.8-6.8c-21.2,51.7-42.6,105.2-41.2,162.1c0.1,5.5,8.6,8.8,11.2,3
				c19.2-42.5,38.5-85,57.7-127.5c-3.7-1.5-7.3-3.1-11-4.6c-11.3,37.2-15.9,76.3-13.6,115.1c0.4,7.7,12.4,7.7,12,0
				c-2.2-37.9,2.2-75.6,13.2-112c1.9-6.4-8.1-10.9-11-4.6c-19.2,42.5-38.5,85-57.7,127.5c3.7,1,7.5,2,11.2,3
				c-1.3-55.7,20-108.2,40.8-158.9c1.9-4.6-4.8-9.9-8.8-6.8c-44.5,34.3-6.1,98.4-31.6,141.2c3.7,0.5,7.3,1,11,1.4
				c-16.2-40.2-21.2-84.3-13.6-127C3553.4,1034.4,3541.8,1031.2,3540.5,1038.8L3540.5,1038.8z"/>
		</g>
	</g>
	<g>
		<g>
			<path class="st1" d="M3201.1,1149.6c-19.8-21.6-38.2-44.4-54.8-68.5c-7.5-10.8-16.2-22.9-17-36.5c-0.6-9.9,3.9-21.5,14.1-24.7
				c-2.5-1.9-5.1-3.9-7.6-5.8c-0.6,53.2-4.5,106.5-11.8,159.2c3.9,0.5,7.9,1.1,11.8,1.6c0.2-55.2,20.8-109.6,57.5-151
				c-3.1-2.4-6.3-4.8-9.4-7.3c-28.6,52-51.8,106.9-69,163.7c3.9,1.1,7.7,2.1,11.6,3.2c13.7-65.2,34.3-128.8,61.8-189.5
				c3.2-7-5.8-12.4-10.4-6.1c-38.9,54.1-65.1,117-76.1,182.6c-1.3,7.6,10.3,10.8,11.6,3.2c10.9-64.8,36.5-126.4,74.9-179.8
				c-3.5-2-6.9-4-10.4-6.1c-27.9,61.6-49.1,126.1-63,192.3c-1.6,7.5,9.3,10.6,11.6,3.2c16.9-55.8,39.6-109.7,67.8-160.8
				c3.2-5.8-4.8-12.5-9.4-7.3c-38.8,43.8-60.7,101-61,159.5c0,6.5,10.8,8.5,11.8,1.6c7.4-53.8,11.6-108.1,12.2-162.4
				c0-3.8-3.9-7-7.6-5.8c-12.5,3.9-20.4,15.3-22.4,27.9c-2.3,15.1,4.3,29.6,12.2,42.1c18.2,28.4,39.9,54.9,62.6,79.7
				C3197.9,1163.8,3206.4,1155.3,3201.1,1149.6L3201.1,1149.6z"/>
		</g>
	</g>
	<g>
		<path class="st1" d="M4215.8,648.3l20-41l20.2-41l40.3-81.9l40.6-81.8l40.8-81.7c13.6-27.2,26.9-54.6,40.3-81.9l10.2-20.4
			l10.4-20.3c7-13.5,14.1-26.9,21.4-40.3c14.5-26.7,29.4-53.3,44.6-79.7c15.3-26.4,30.9-52.5,47.4-78.2l1.8,0.9
			c-11.5,28.3-23.9,56.2-36.6,83.8c-12.8,27.7-25.9,55.1-39.4,82.4c-6.8,13.6-13.6,27.2-20.6,40.7l-10.6,20.2l-10.8,20.1
			c-14.6,26.7-29.3,53.3-43.7,80.2l-43.2,80.4l-43.5,80.3l-43.7,80.1l-21.9,40.1l-22,40L4215.8,648.3z"/>
	</g>
	<g>
		<path class="st1" d="M4456.8,792.8c46.9-30.4,94.2-60,141.6-89.7c47.4-29.6,94.9-58.9,142.6-88.1c95.3-58.3,191-115.9,287-172.9
			c96-57,192.4-113.5,289.2-169.2c96.8-55.7,194-110.9,292.1-164.3c-93.9,60.6-188.9,119.5-284.1,177.8
			c-95.3,58.3-191,115.9-287,172.9c-96,57-192.4,113.4-289.2,169.2c-48.4,27.9-96.9,55.6-145.6,83
			C4554.6,738.8,4505.9,766.2,4456.8,792.8z"/>
	</g>
	<g>
		<path class="st1" d="M4445,1140l45.3,10.9l45.3,11.1l90.5,22.2l90.5,22.4l90.4,22.7c30.1,7.6,60.3,14.8,90.5,22.2l22.6,5.7
			l22.5,5.9c15,4,30,8.1,44.9,12.4c29.9,8.6,59.6,17.5,89.3,26.8c29.6,9.4,59.2,19.1,88.5,29.9l-0.5,1.9
			c-30.8-5.2-61.2-11.5-91.6-18.1c-30.4-6.7-60.6-13.7-90.8-21.2c-15.1-3.7-30.1-7.6-45.1-11.6l-22.5-6.2l-22.4-6.4
			c-29.8-8.7-59.6-17.4-89.5-25.8l-89.7-25.3l-89.6-25.6l-89.5-25.9l-44.8-12.9l-44.7-13.1L4445,1140z"/>
	</g>
	<g>
		<path class="st1" d="M4193.4,1380.4l60.9,69.8l60.8,69.9l121.5,139.8l121.3,140l121.1,140.2c40.3,46.7,81,93.2,121.5,139.8
			c40.5,46.6,80.5,93.6,120.1,141c39.6,47.4,78.9,95,117.8,143c39,47.9,77.6,96.1,115.5,145l-1.5,1.3
			c-42.2-45.2-83.6-91-124.6-137.1c-41.1-46.1-81.8-92.5-122.3-139.1c-40.5-46.6-80.4-93.7-120-141.1
			c-39.5-47.5-78.9-95-118.6-142.3l-119-141.9L4429,1666.4l-118.6-142.3l-59.3-71.2l-59.2-71.3L4193.4,1380.4z"/>
	</g>
	<g>
		<g>
			<path class="st1" d="M3916.6,1447c7.7,0,7.7-12,0-12C3908.8,1435,3908.8,1447,3916.6,1447L3916.6,1447z"/>
		</g>
	</g>
	<g>
		<path class="st1" d="M3916.6,1441c3.8,13,7.5,26.1,11,39.2c3.5,13.1,6.9,26.2,10.3,39.3c6.7,26.3,13.1,52.6,19.4,78.9
			c12.4,52.7,24.1,105.6,35.1,158.6c11,53,21.4,106.2,30.9,159.5c4.8,26.7,9.3,53.4,13.6,80.1c2.1,13.4,4.2,26.8,6.2,40.2
			c2,13.4,3.8,26.9,5.5,40.3c-3.8-13-7.5-26.1-11-39.2c-3.5-13.1-7-26.2-10.3-39.3c-6.7-26.3-13.1-52.6-19.4-78.9
			c-12.4-52.7-24.1-105.6-35.1-158.6c-11-53-21.3-106.2-30.9-159.5c-4.8-26.7-9.3-53.4-13.6-80.1c-2.1-13.4-4.2-26.8-6.2-40.2
			C3920.1,1468,3918.3,1454.5,3916.6,1441z"/>
	</g>
</g>
</svg>
