<svg id="Layer_1" data-name="Layer 1" xmlns="http://www.w3.org/2000/svg" viewBox="0 0 1178.31 1246.42">
  <defs>
    <style>
      .cls-1 {
        fill: #42ff0d;
      }

      .cls-2 {
        fill: none;
        stroke: #fff;
        stroke-miterlimit: 10;
        stroke-width: 10px;
      }
    </style>
  </defs>
  <title>spilled-glasses</title>
  <path class="cls-1" d="M514.78,185.18C403,154.47,69.63,157.83,69.63,314.5S-87,451.28,69.63,621.63,104.45,814.36,179.05,971s278.53,298.42,482.46,268.58,619.22,22.38,579.43-67.14,318.32-139.27,200.2-245S999.72,737.27,1059.4,671.36s141.75-192.73,0-211.38,41-203.92-108.18-165.38S623.21,215,514.78,185.18Z"/>
  <path class="cls-2" d="M842,207.7,840.5,32.4a87.74,87.74,0,0,0-86.6,80.2A116.85,116.85,0,0,0,636.8,5h0L489.2,6.2l2,233.5,147.2-1.2h.3A116.77,116.77,0,0,0,753.9,129,87.84,87.84,0,0,0,842,207.7Z"/>
  <path class="cls-2" d="M1004,324.7l-1.5-175.3a87.74,87.74,0,0,0-86.6,80.2A116.85,116.85,0,0,0,798.8,122h0l-147.6,1.2,2,233.5,147.2-1.2h.3A116.77,116.77,0,0,0,915.9,246,87.84,87.84,0,0,0,1004,324.7Z"/>
  <path class="cls-2" d="M1130,482.7l-1.5-175.3a87.74,87.74,0,0,0-86.6,80.2A116.85,116.85,0,0,0,924.8,280h0l-147.6,1.2,2,233.5,147.2-1.2h.3A116.77,116.77,0,0,0,1041.9,404,87.84,87.84,0,0,0,1130,482.7Z"/>
</svg>
