<?xml version="1.0" encoding="utf-8"?>
<!-- Generator: Adobe Illustrator 22.0.1, SVG Export Plug-In . SVG Version: 6.00 Build 0)  -->
<svg version="1.1" id="Layer_1" xmlns="http://www.w3.org/2000/svg" xmlns:xlink="http://www.w3.org/1999/xlink" x="0px" y="0px"
	 viewBox="0 0 131.5 216.1" style="enable-background:new 0 0 131.5 216.1;" xml:space="preserve">
<style type="text/css">
	.st0{fill:#FFA31D;}
	.st1{fill:#A06313;}
	.st2{fill:#FFFFFF;}
	.st3{fill:#FF00CC;}
	.st4{fill:#651395;}
	.st5{fill:#FFF800;}
	.st6{fill:#FFE000;}
</style>
<g>
	<rect x="31.5" y="105.7" class="st0" width="21.9" height="28.4"/>
	<rect x="53.4" y="96.3" class="st0" width="56.2" height="37.8"/>
	<rect x="109.6" y="108.8" class="st0" width="18.8" height="25.2"/>
	<rect x="44" y="134.1" class="st1" width="71.9" height="3.4"/>
	<rect x="56.5" y="93.2" class="st0" width="46.9" height="3.1"/>
	<rect x="59.6" y="90.1" class="st0" width="40.6" height="3.1"/>
	<rect x="62.8" y="86.9" class="st0" width="34.4" height="3.1"/>
	<rect x="125.4" y="121.4" class="st0" width="2.2" height="56.2"/>
	<rect x="25.2" y="121.3" class="st0" width="6.5" height="94.8"/>
	<rect x="31.5" y="121.3" class="st0" width="12.5" height="94.8"/>
	<rect x="115.9" y="121.3" class="st0" width="15.6" height="94.8"/>
	<rect x="109.6" y="105.7" class="st2" width="21.9" height="3.1"/>
	<rect x="28.4" y="105.7" class="st2" width="21.9" height="3.1"/>
	<rect x="25.2" y="118.2" class="st2" width="3.1" height="3.1"/>
	<rect x="128.4" y="118.2" class="st2" width="3.1" height="3.1"/>
	<rect x="106.5" y="96.3" class="st2" width="3.1" height="9.4"/>
	<rect x="103.4" y="93.2" class="st2" width="3.1" height="3.1"/>
	<rect x="100.2" y="90.1" class="st2" width="3.1" height="3.1"/>
	<rect x="97.1" y="86.9" class="st2" width="3.1" height="3.1"/>
	<rect x="62.8" y="83.8" class="st2" width="34.4" height="3.1"/>
	<rect x="59.6" y="86.9" class="st2" width="3.1" height="3.1"/>
	<rect x="56.5" y="90.1" class="st2" width="3.1" height="3.1"/>
	<rect x="53.4" y="93.2" class="st2" width="3.1" height="3.1"/>
	<rect x="50.2" y="96.3" class="st2" width="3.1" height="9.4"/>
	<rect x="128.4" y="108.8" class="st2" width="3.1" height="9.4"/>
	<rect x="28.4" y="108.8" class="st2" width="3.1" height="12.5"/>
	<g>
		<rect x="73.7" y="96.3" class="st2" width="3.1" height="3.1"/>
		<rect x="83.1" y="96.3" class="st2" width="3.1" height="3.1"/>
		<g>
			<rect x="76.8" y="93.2" class="st2" width="6.2" height="3.1"/>
			<rect x="70.6" y="108.8" class="st2" width="18.8" height="3.1"/>
			<rect x="86.2" y="99.4" class="st2" width="3.1" height="9.4"/>
			<rect x="76.8" y="96.3" class="st3" width="3.1" height="9.4"/>
			<rect x="79.9" y="99.4" class="st3" width="3.1" height="9.4"/>
			<rect x="83.1" y="99.4" class="st3" width="3.1" height="9.4"/>
			<rect x="73.7" y="99.4" class="st3" width="3.1" height="9.4"/>
			<rect x="70.6" y="99.4" class="st2" width="3.1" height="9.4"/>
			<rect x="83.1" y="99.4" class="st4" width="3.1" height="6.2"/>
			<rect x="79.9" y="96.3" class="st4" width="3.1" height="3.1"/>
		</g>
		<rect x="76.8" y="105.7" class="st5" width="3.1" height="3.1"/>
	</g>
	<rect x="44" y="134.1" class="st1" width="3.1" height="82"/>
	<g>
		<rect x="47.1" y="120.7" class="st4" width="5.7" height="1.9"/>
		<rect x="49" y="122.6" class="st4" width="1.9" height="7.6"/>
		<rect x="64.3" y="120.7" class="st4" width="3.8" height="1.9"/>
		<rect x="64.3" y="128.3" class="st4" width="3.8" height="1.9"/>
		<rect x="56.6" y="120.7" class="st4" width="3.8" height="1.9"/>
		<rect x="54.7" y="124.5" class="st4" width="5.7" height="1.9"/>
		<rect x="54.7" y="120.7" class="st4" width="1.9" height="9.5"/>
		<rect x="62.4" y="120.7" class="st4" width="1.9" height="9.5"/>
		<rect x="73.8" y="120.7" class="st4" width="1.9" height="9.5"/>
		<rect x="71.9" y="120.7" class="st4" width="3.8" height="1.9"/>
		<rect x="71.9" y="128.3" class="st4" width="3.8" height="1.9"/>
		<rect x="70" y="120.7" class="st4" width="1.9" height="9.5"/>
		<rect x="58.5" y="120.7" class="st4" width="1.9" height="9.5"/>
		<g id="Bell_2_">
			<rect x="84.2" y="120.6" class="st4" width="5.7" height="1.9"/>
			<rect x="84.2" y="124.4" class="st4" width="5.7" height="1.9"/>
			<rect x="84.2" y="128.2" class="st4" width="5.7" height="1.9"/>
			<rect x="84.2" y="122.5" class="st4" width="1.9" height="5.7"/>
			<rect x="91.8" y="120.6" class="st4" width="5.7" height="1.9"/>
			<rect x="91.8" y="128.2" class="st4" width="5.7" height="1.9"/>
			<rect x="101.3" y="128.2" class="st4" width="3.8" height="1.9"/>
			<rect x="91.8" y="124.4" class="st4" width="3.8" height="1.9"/>
			<rect x="91.8" y="122.5" class="st4" width="1.9" height="5.7"/>
			<rect x="99.4" y="120.6" class="st4" width="1.9" height="9.5"/>
			<rect x="108.9" y="128.2" class="st4" width="3.8" height="1.9"/>
			<rect x="107" y="120.6" class="st4" width="1.9" height="9.5"/>
			<rect x="88" y="122.5" class="st4" width="1.9" height="5.7"/>
		</g>
	</g>
</g>
<g id="_x37__AM_-_1">
	<g>
		<rect x="18.7" class="st6" width="25" height="62.5"/>
		<rect x="12.4" y="6.2" class="st6" width="6.2" height="50"/>
		<rect x="43.7" y="6.2" class="st6" width="6.2" height="50"/>
		<rect x="50" y="11.2" class="st6" width="6.2" height="40"/>
		<rect x="6.2" y="11.2" class="st6" width="6.2" height="40"/>
		<rect y="16.2" class="st6" width="6.2" height="30"/>
		<rect x="56.2" y="16.2" class="st6" width="6.2" height="30"/>
	</g>
</g>
</svg>
