<svg version="1" id="Layer_1" xmlns="http://www.w3.org/2000/svg" viewBox="0 0 1020 1653"><style>.st1{fill:#b8b8ff}.st2{fill:#ffe000}.st3{fill:#ffa31d}.st4{fill:#a06313}.st5{fill:#fff}.st6{fill:#f0c}.st7{fill:#651395}</style><path id="BOTTOM_-_BG_3_" fill="#d4d4ff" d="M0 688h1020v965H0z"/><path id="BOTTOM_-_BG_1_" class="st1" d="M0 0h1020v692H0z"/><path class="st1" d="M60 692h30v30H60zM0 692h30v30H0zM120 692h30v31h-30zM240 692h30v30h-30zM180 692h30v30h-30zM300 692h30v30h-30zM420 692h30v30h-30zM360 692h30v30h-30zM480 692h30v30h-30zM600 692h30v30h-30zM540 692h30v30h-30zM720 692h30v30h-30zM660 692h30v30h-30zM780 692h30v31h-30zM900 692h30v30h-30zM840 692h30v30h-30zM305 607h10v10h-10zM30 722h30v30H30zM0 752h30v30H0zM0 812h30v30H0zM90 722h30v31H90zM210 722h30v30h-30zM150 722h30v30h-30zM270 722h30v30h-30zM390 722h30v30h-30zM330 722h30v30h-30zM450 722h30v30h-30zM570 722h30v30h-30zM510 722h30v30h-30zM690 722h30v30h-30zM630 722h30v30h-30zM750 722h30v31h-30zM870 722h30v30h-30zM810 722h30v30h-30zM296 617h10v10h-10zM443 175h13v13h-13zM120 752h30v30h-30zM60 752h30v30H60zM180 752h30v31h-30zM300 752h30v30h-30zM240 752h30v30h-30zM360 752h30v30h-30zM480 752h30v30h-30zM420 752h30v30h-30zM540 752h30v30h-30zM660 752h30v30h-30zM600 752h30v30h-30zM780 752h30v30h-30zM720 752h30v30h-30zM840 752h30v31h-30z"/><path class="st1" d="M305 626h10v10h-10zM900 752h30v30h-30zM90 782h30v30H90zM30 782h30v30H30zM150 782h30v31h-30zM270 782h30v30h-30zM210 782h30v30h-30zM330 782h30v30h-30zM450 782h30v30h-30zM390 782h30v30h-30zM510 782h30v30h-30zM630 782h30v30h-30zM570 782h30v30h-30zM750 782h30v30h-30zM690 782h30v30h-30zM810 782h30v31h-30zM296 636h10v10h-10zM870 782h30v30h-30zM443 202h13v13h-13zM120 811h30v30h-30zM60 811h30v30H60zM180 811h30v31h-30zM300 811h30v30h-30zM240 811h30v30h-30zM360 811h30v30h-30zM480 811h30v30h-30zM420 811h30v30h-30zM540 811h30v30h-30zM660 811h30v30h-30zM600 811h30v30h-30zM780 811h30v30h-30zM720 811h30v30h-30zM840 811h30v31h-30z"/><path class="st1" d="M305 645h10v10h-10zM900 811h30v30h-30zM960 692h30v30h-30zM930 722h30v30h-30zM960 752h30v30h-30zM930 782h30v30h-30zM990 722h30v30h-30zM990 782h30v30h-30zM960 811h30v30h-30z"/><path class="st2" d="M300 482h240v600H300zM240 542h60v480h-60zM540 542h60v480h-60zM600 590h60v384h-60zM180 590h60v384h-60zM120 638h60v288h-60zM660 638h60v288h-60z"/><g><path class="st3" d="M273 885h153v199H273zM426 820h394v264H426zM820 907h131v177H820z"/><path class="st4" d="M361 1084h503v24H361z"/><path class="st3" d="M448 798h328v22H448zM470 776h284v22H470zM492 754h241v22H492zM930 994h15v394h-15zM232 994h42v658h-42z"/><path class="st3" d="M273 994h87v658h-87zM863 994h109v658H863z"/><path class="st5" d="M820 885h153v22H820zM251 885h153v22H251zM229 973h22v22h-22zM951 973h22v22h-22zM798 820h22v66h-22zM776 798h22v22h-22zM754 776h22v22h-22zM732 754h22v22h-22zM492 732h241v22H492zM470 754h22v22h-22zM448 776h22v22h-22zM426 798h22v22h-22zM404 820h22v66h-22zM951 907h22v66h-22zM251 907h22v87h-22zM568 820h22v22h-22zM634 820h22v22h-22zM590 798h44v22h-44zM546 907h131v22H546zM656 841h22v66h-22z"/><path class="st6" d="M590 820h22v66h-22zM612 841h22v66h-22zM634 841h22v66h-22zM568 841h22v66h-22z"/><path class="st5" d="M546 841h22v66h-22z"/><path class="st7" d="M634 841h22v44h-22zM612 820h22v22h-22z"/><path fill="#fff800" d="M590 885h22v22h-22z"/><path class="st4" d="M361 1084h22v568h-22z"/><g><path class="st7" d="M382 990h40v13h-40zM396 1003h13v53h-13zM502 990h27v13h-27zM502 1043h27v13h-27zM449 990h27v13h-27zM436 1017h40v13h-40z"/><path class="st7" d="M436 990h13v67h-13zM489 990h13v67h-13zM569 990h13v67h-13z"/><path class="st7" d="M556 990h27v13h-27zM556 1043h27v13h-27zM542 990h13v67h-13zM462 990h13v67h-13z"/><g id="Bell_2_"><path class="st7" d="M642 990h40v13h-40zM642 1016h40v13h-40zM642 1043h40v13h-40z"/><path class="st7" d="M642 1003h13v40h-13zM695 990h40v13h-40zM695 1043h40v13h-40zM762 1043h27v13h-27zM695 1016h27v13h-27z"/><path class="st7" d="M695 1003h13v40h-13zM748 990h13v67h-13zM815 1043h27v13h-27zM802 990h13v67h-13zM668 1003h13v40h-13z"/></g></g></g><path id="Doorway_1_" fill="#333" d="M382 1067h481v584H382z"/></svg>