<?xml version="1.0" encoding="utf-8"?>
<!-- Generator: Adobe Illustrator 23.0.4, SVG Export Plug-In . SVG Version: 6.00 Build 0)  -->
<svg version="1.1" id="Layer_1" xmlns="http://www.w3.org/2000/svg" xmlns:xlink="http://www.w3.org/1999/xlink" x="0px" y="0px"
	 viewBox="0 0 312 400" style="enable-background:new 0 0 312 400;" xml:space="preserve">
<style type="text/css">
	.st0{fill:#030303;}
	.st1{enable-background:new    ;}
	.st2{fill:#FFFFFF;}
	.st3{fill:#23B35D;}
	.st4{fill:none;}
</style>
<rect x="1" y="1" class="st0" width="311" height="398"/>
<g>
	<g class="st1">
		<path class="st2" d="M89,233.2v4.6H84v-14.3H89v4.6h15.6v5.1H89z"/>
		<path class="st2" d="M84,222.6v-5.1h7.9v-6H84v-5.1h20.6v5.1h-7.9v6h7.9v5.1H84z"/>
		<path class="st2" d="M84,205.6v-13H89v7.9h3v-5.4h4.8v5.4h3v-7.9h4.9v13H84z"/>
	</g>
	<g class="st1">
		<path class="st2" d="M82.8,248.1h10.5c5.5,0,9.5,0.2,12.1,0.7c4.2,0.7,8.1,2.4,11.9,5.1c3.7,2.7,6.8,6.1,9.1,10.4
			c2.3,4.2,3.5,8.9,3.5,14c0,4.5-0.9,8.6-2.7,12.4c-1.8,3.8-4.2,7-7.2,9.7c-3,2.7-6.4,4.6-10.1,5.9c-3.9,1.3-9.4,2-16.6,2H82.8
			V248.1z M97.8,293.9c3.6,0,6.7-0.7,9.3-2.1c2.6-1.4,4.6-3.3,5.9-5.7c1.3-2.4,2-5,2-7.8c0-2.8-0.7-5.4-2-7.8
			c-1.3-2.4-3.3-4.3-5.9-5.8c-2.6-1.5-5.7-2.2-9.3-2.2h-0.2v31.4H97.8z"/>
		<path class="st2" d="M131.7,248.1h14.8v60.1h-14.8V248.1z"/>
		<path class="st2" d="M149.1,248.1H187v14.4h-23.1v8.7h15.7v13.9h-15.7v23.1h-14.8V248.1z"/>
		<path class="st2" d="M189.6,248.1h37.9v14.4h-23.1v8.7h15.7v13.9h-15.7v23.1h-14.8V248.1z"/>
	</g>
	<g>
		<g>
			<polygon class="st3" points="174.8,138.3 174.8,91.8 83.8,91.8 83.8,182.8 130.4,182.8 130.4,138.3 			"/>
		</g>
		<g>
			<path class="st3" d="M229.2,237.1H122.6V175h44.5v-44.5h62.1V237.1z M138.1,221.6h75.5v-75.5h-31v44.5h-44.5V221.6z"/>
		</g>
		<g>
			<rect x="130.4" y="138.3" class="st4" width="44.5" height="44.5"/>
		</g>
	</g>
</g>
</svg>
