<?xml version="1.0" encoding="utf-8"?>
<!-- Generator: Adobe Illustrator 22.0.1, SVG Export Plug-In . SVG Version: 6.00 Build 0)  -->
<svg version="1.1" id="Layer_1" xmlns="http://www.w3.org/2000/svg" xmlns:xlink="http://www.w3.org/1999/xlink" x="0px" y="0px"
	 viewBox="0 0 2049.2 1471" style="enable-background:new 0 0 2049.2 1471;" xml:space="preserve">
<style type="text/css">
	.st0{fill:#FAB68E;}
	.st1{fill:none;}
	.st2{fill:#231F20;}
	.st3{fill:#FFFFFF;}
	.st4{fill:#E01D8D;}
	.st5{fill:#C98240;}
	.st6{fill:#41BFBF;}
	.st7{fill:#D01A86;}
	.st8{fill:#59C4C6;}
	.st9{fill:#FFB98E;}
	.st10{fill:#E50695;}
	.st11{fill:#10CFC9;}
	.st12{fill:#2D2A26;}
	.st13{fill:#CA8342;}
</style>
<polygon class="st0" points="1575.2,1471 2049.2,1471 2049.2,997 "/>
<g>
	<g>
		<line class="st1" x1="1851.3" y1="570.6" x2="1943.4" y2="476.6"/>
		<path class="st2" d="M1851.3,573.7c-0.6,0-1.9,0-2.5-0.6c-1.2-1.2-1.2-3.1,0-4.4l92.1-94c1.2-1.2,3.1-1.2,4.4,0s1.2,3.1,0,4.4
			l-92.1,94C1853.2,573.1,1851.9,573.7,1851.3,573.7z"/>
	</g>
	<g>
		<g>
			<path class="st0" d="M1838.2,556.2L1838.2,556.2h-550.3c0,0,45.4,92.8,118.3,92.8c12.5,0,33,0,58.5,0v-56.7
				c0-9.3,7.5-16.8,16.8-16.8s16.8,7.5,16.8,16.8V649c24.9,0,52.3,0,80.9,0v-56.7c0-9.3,7.5-16.8,16.8-16.8s16.8,7.5,16.8,16.8V649
				c27.4,0,54.8,0,80.9,0v-56.7c0-9.3,7.5-16.8,16.8-16.8s16.8,7.5,16.8,16.8V649c63.5,0,110.8,0,110.8,0l0,0
				c25.5,0,45.4-20.5,45.4-46.1C1883.7,577.4,1863.7,556.9,1838.2,556.2z"/>
		</g>
		<g>
			<path class="st3" d="M1710.6,574.9c-9.3,0-16.8,7.5-16.8,16.8v56.7c11.8,0,23,0,33.6,0v-56.7
				C1727.4,583,1719.9,574.9,1710.6,574.9z"/>
		</g>
		<g>
			<path class="st3" d="M1596.1,574.9c-9.3,0-16.8,7.5-16.8,16.8v56.7c11.2,0,22.4,0,33.6,0v-56.7
				C1613.5,583,1605.4,574.9,1596.1,574.9z"/>
		</g>
		<g>
			<path class="st3" d="M1482.1,574.9c-9.3,0-16.8,7.5-16.8,16.8v56.7c10.6,0,21.8,0,33.6,0v-56.7
				C1498.9,583,1491.5,574.9,1482.1,574.9z"/>
		</g>
	</g>
	<g>
		<g>
			<path class="st2" d="M1654.6,556.2l-104-268.9c-6.2-14.9-28-18.7-39.8-6.8l-29.3,28.6c-30.5,30.5-36.7,74.7-14.9,110.8
				l82.8,136.3H1654.6z"/>
		</g>
	</g>
	<path class="st4" d="M1561.2,314.1c-14.3,3.7-25.5,15.6-27.4,31.1l-17.4,157.5l33,54.2h30.5c5-5.6,8.7-12.5,9.3-20.5l13.1-115.2
		L1561.2,314.1z"/>
	<g>
		<g>
			<circle class="st2" cx="1424.9" cy="605.4" r="18.1"/>
		</g>
	</g>
	<g>
		<g>
			<circle class="st2" cx="1538.8" cy="605.4" r="18.1"/>
		</g>
	</g>
	<g>
		<g>
			<circle class="st2" cx="1653.3" cy="605.4" r="18.1"/>
		</g>
	</g>
	<g>
		<g>
			<circle class="st2" cx="1767.9" cy="605.4" r="18.1"/>
		</g>
	</g>
	<g>
		<g>
			<g>
				<path class="st2" d="M1750.4,388.2l59.1,66.6l3.7-358c3.7-35.5-38.6-57.3-70.3-41.7l47.9,247.8c1.9,10-5,19.9-14.9,21.8l0,0
					c-10,1.9-19.9-5-21.8-14.9l-43.6-226l-19.3,18.7l51,263.3c1.9,10-5,19.9-14.9,21.8l0,0c-10,1.9-19.9-5-21.8-14.9l-46.1-239.7
					l-21.2,19.9l52.9,273.9c1.9,10-5,19.9-14.9,21.8c-10,1.9-19.9-5-21.8-14.9L1606,183.3l-25.5,24.3c-11.8,11.2-16.2,28-10.6,43
					l113.9,305h125.8l0.6-51.7l-85.3-93.4L1750.4,388.2z"/>
			</g>
		</g>
		<path class="st5" d="M1790.9,302.9L1743,55.1c-4.4,1.9-8.7,5-12.5,8.7L1710,83.7l43.6,226c1.9,10,11.8,16.8,21.8,14.9l0,0
			C1785.9,322.8,1792.8,312.8,1790.9,302.9z"/>
		<path class="st5" d="M1741.7,365.7l-51-263.3l-32.4,31.1l46.1,239.7c1.9,10,11.8,16.8,21.8,14.9l0,0
			C1736.8,385.7,1743.6,375.7,1741.7,365.7z"/>
		<path class="st5" d="M1690.7,427.4l-52.9-273.9l-32.4,31.1l48.6,250.3c1.9,10,11.8,16.8,21.8,14.9
			C1685.7,447.3,1692.5,437.3,1690.7,427.4z"/>
		<polygon class="st6" points="1750.4,388.2 1724.9,410.6 1809,504.6 1809.6,454.8 		"/>
	</g>
	<g>
		<circle class="st6" cx="1723.1" cy="367" r="14.9"/>
	</g>
	<g>
		<path class="st0" d="M1473.4,439.8l-10.6-16.8c-3.1-5-5-9.3-7.5-14.3c-1.9-5-3.7-10-4.4-14.9c-1.2-5-1.9-10.6-1.9-15.6
			s0-10.6,0.6-15.6c0.6-5,1.9-10,3.1-14.9c1.2-5,3.7-10,5.6-14.3c2.5-5,5-9.3,8.1-13.7s6.8-8.7,10.6-12.5l29.3-28.6l6.8,6.8
			l-29.3,28.6c-3.7,3.7-6.8,7.5-10,11.2c-3.1,3.7-5.6,8.1-7.5,12.5c-1.9,4.4-3.7,8.7-5,13.1c-1.2,4.4-2.5,9.3-3.1,13.7
			c-0.6,4.4-0.6,9.3-0.6,13.7s0.6,9.3,1.9,13.7s2.5,9.3,4.4,13.7s3.7,8.7,6.8,13.1l10.6,16.8L1473.4,439.8z"/>
	</g>
</g>
<rect x="0.5" y="2" class="st0" width="747.2" height="759.8"/>
<path class="st2" d="M453.1,178.7L453.1,178.7c0,31.1,25.7,56.8,56.8,56.8h238.9v-114H509.8C478.3,121.4,453.1,147.1,453.1,178.7z"
	/>
<path class="st5" d="M541.9,287.7c0,12.3,9.9,22.2,22.2,22.2h109.1c12.3,0,22.2-9.9,22.2-22.2s-9.9-22.2-22.2-22.2H564.1
	C552.3,265.5,541.9,275.4,541.9,287.7z"/>
<path class="st5" d="M541.9,69.1c0,12.3,9.9,22.2,22.2,22.2h109.1c12.3,0,22.2-9.9,22.2-22.2s-9.9-22.2-22.2-22.2H564.1
	C552.3,46.9,541.9,56.8,541.9,69.1z"/>
<rect x="238.9" y="282.3" transform="matrix(0.7071 -0.7071 0.7071 0.7071 -240.6403 348.8946)" class="st5" width="123.9" height="365.2"/>
<rect x="90.1" y="427.8" transform="matrix(0.7071 -0.7071 0.7071 0.7071 -271.0543 264.3774)" class="st3" width="187.1" height="63.2"/>
<circle class="st7" cx="294.7" cy="272.9" r="27.6"/>
<circle class="st7" cx="354.9" cy="343.5" r="27.6"/>
<circle class="st7" cx="577" cy="543.4" r="27.6"/>
<circle class="st7" cx="667.8" cy="543.4" r="27.6"/>
<rect x="362.9" y="413.5" transform="matrix(0.7071 -0.7071 0.7071 0.7071 -181.0435 453.1333)" class="st3" width="187.1" height="63.2"/>
<path class="st8" d="M605.6,673.7c0-15.8-12.8-28.6-28.6-28.6c-15.8,0-28.6,12.8-28.6,28.6v86.9h57.7v-86.9H605.6z"/>
<path class="st8" d="M698.9,673.7c0-15.8-12.8-28.6-28.6-28.6c-15.8,0-28.6,12.8-28.6,28.6v86.9h57.7v-86.9H698.9z"/>
<path class="st8" d="M512.3,673.7c0-15.8-12.8-28.6-28.6-28.6s-28.6,12.8-28.6,28.6v86.9h57.7v-86.9H512.3z"/>
<rect x="149.5" class="st8" width="59.2" height="118.5"/>
<path class="st7" d="M163.9,633.7c-9.9-2-19.2-3.5-29.1-3.9c-9.4-0.5-19.2,0-28.6,1c-9.4,1-18.3,3-27.1,5.4s-17.3,5.9-25.7,9.9
	C44.9,650,37,655,29.6,659.9c-7.4,5.4-14.3,11.4-21.2,17.8c-3,3-5.4,5.9-8.4,8.9v28.1c1.5-2,2.5-3.9,3.9-5.9
	c4.9-6.9,10.4-13.3,16.3-19.2c5.9-5.9,12.3-11.4,18.8-15.8c6.9-4.9,13.8-8.9,21.2-12.3s15.3-6.4,23.2-8.9c7.9-2.5,16.3-3.9,24.7-4.9
	c8.4-1,17.3-1.5,25.7-1c8.9,0.5,17.8,1.5,26.7,3.5l71.1,15.3l3.5-16.3L163.9,633.7z"/>
<path class="st3" d="M427.5,1.1c-6.9,4.1-13.4,8.5-19.3,13.2c-7.4,5.9-14.3,12.3-20.7,19.2c-6.4,6.9-12.3,14.3-17.3,22.2
	c-4.9,7.4-9.4,15.8-12.8,24.2c-3.9,8.4-6.9,17.3-8.9,26.2c-2.5,8.9-3.9,17.8-4.4,27.1c-0.5,9.4-0.5,18.8,0.5,28.1
	c1,9.4,3,18.8,5.4,28.1l9.4,34.1l16.8-4.4l-9.4-34.1c-2.5-8.4-3.9-17.3-4.9-25.7c-1-8.4-1-16.8-0.5-25.2c1-8.4,2-16.8,3.9-24.7
	c2-7.9,4.4-15.8,7.9-23.2c3.5-7.4,7.4-14.8,11.8-21.7c4.4-6.9,9.9-13.3,15.3-19.7c5.4-5.9,11.8-11.8,18.8-17.3s14.3-10.4,22.2-14.8
	l21.3-11.7H427.5z"/>
<circle class="st9" cx="1330.9" cy="930.7" r="71.7"/>
<rect x="1220" y="1049.6" transform="matrix(-0.7071 -0.7071 0.7071 -0.7071 1343.1204 2788.0022)" class="st10" width="58" height="132.4"/>
<rect x="1302.1" y="1049.6" transform="matrix(-0.7071 -0.7071 0.7071 -0.7071 1483.2233 2846.0347)" class="st10" width="58" height="132.4"/>
<rect x="1383.9" y="1049.6" transform="matrix(-0.7071 -0.7071 0.7071 -0.7071 1622.9427 2903.9084)" class="st10" width="58" height="132.4"/>
<path class="st11" d="M1143.6,834c0-39.2-30.2-71.4-68.6-74.7c-44.6-3.8-81.3,32.4-81.3,77.2l0,351.1c0,0.2,0.2,0.4,0.4,0.4h149.1
	c0.2,0,0.4-0.2,0.4-0.4V834z"/>
<path class="st12" d="M881.9,918.8v269.2h68V918.8c0-18.8-15.2-34-34-34S881.9,900,881.9,918.8z"/>
<g>
	<path class="st13" d="M842.6,1169.1l-0.6,14.9l-31.2-1.3c-8.5-0.4-17.1-1.4-25.3-3.2c-8.1-1.7-16.1-4.2-23.8-7.2
		c-7.6-3-14.9-6.7-21.8-11c-6.9-4.2-13.4-9.1-19.5-14.4c-6.1-5.3-11.8-11.2-16.9-17.6c-5.2-6.3-9.8-13.2-13.9-20.4
		c-4.1-7.3-7.7-15-10.6-22.9c-3-8.1-5.3-16.5-7-25.1l-12.3-63.2l14.7-2.9l12.3,63.2c1.5,7.8,3.6,15.5,6.3,22.8
		c2.6,7.2,5.9,14.1,9.6,20.7c3.7,6.5,7.9,12.6,12.5,18.3c4.6,5.7,9.7,11,15.2,15.8c5.5,4.8,11.3,9.1,17.5,12.9
		c6.2,3.8,12.8,7.1,19.6,9.8c6.9,2.7,14,4.9,21.3,6.5c7.4,1.6,15.1,2.6,22.8,2.9L842.6,1169.1z"/>
</g>
<g>
	<path class="st2" d="M770.1,1256.1h14.2v69.2h35.2v13.5h-49.4V1256.1z"/>
	<path class="st2" d="M883.5,1310.8c0,16.4-13.2,29.4-29.9,29.4s-29.9-13-29.9-29.4c0-16.5,13.2-29.4,29.9-29.4
		S883.5,1294.3,883.5,1310.8z M869.1,1310.8c0-8.7-5.9-16.2-15.5-16.2s-15.5,7.4-15.5,16.2c0,8.7,5.9,16.2,15.5,16.2
		S869.1,1319.6,869.1,1310.8z"/>
	<path class="st2" d="M898.3,1319.8c0,0,7.4,8,16.9,8c5.8,0,10.6-1.7,10.6-5.1c0-3.7-2.6-4.4-11.1-6.1c-11.1-2.4-20.8-7.1-20.8-17.7
		c0-8.7,8.7-17.5,24.1-17.5c12.6,0,21,6.9,21,6.9l-7.1,10.4c0,0-6.4-4.8-13.9-4.8c-5.3,0-10.2,1.9-10.2,5.3c0,3.4,3.8,4.3,13.2,6.3
		c11.1,2.4,19,6,19,17.6c0,9.6-10.2,17.2-24.4,17.2c-16.4,0-25.3-10.2-25.3-10.2L898.3,1319.8z"/>
	<path class="st2" d="M1011.4,1256.1h14.4l32.1,82.7h-14.3l-7.6-19.6h-35l-7.6,19.6h-14.3L1011.4,1256.1z M1006.2,1306.2h24.8
		l-12.4-32.2L1006.2,1306.2z"/>
	<path class="st2" d="M1116.3,1302.6v36.3h-14.2v-32.7c0-8-5-11.5-11.1-11.5c-7.3,0-11.1,7.2-11.1,7.2v37h-14.2v-56h13.2v8.2
		c0,0,5-9.6,16.8-9.6C1106.6,1281.4,1116.3,1289.1,1116.3,1302.6z"/>
	<path class="st2" d="M1153.9,1340.2c-14.5,0-27.3-12.2-27.3-29.4c0-17.2,12.8-29.4,27.3-29.4c11.7,0,16.9,8.7,16.9,8.7v-7.3h13.1
		v56.5c0,19.5-14.4,28.1-30.1,28.1c-16.1,0-26.6-10.6-26.6-10.6l8-10.9c0,0,7.8,8.3,18.5,8.3c11,0,15.9-6,15.9-14.4v-6.7
		C1167.9,1335.4,1162.8,1340.2,1153.9,1340.2z M1169.8,1302.4c0,0-4-7.8-13.3-7.8c-9.6,0-15.4,7-15.4,16.2c0,9.2,5.8,16.2,15.4,16.2
		c9.2,0,13.3-7.8,13.3-7.8V1302.4z"/>
	<path class="st2" d="M1250.7,1310.6c0,1.1,0,3.2-0.1,5.3h-41.8c1.1,5,6.8,11.3,15.7,11.3c9.8,0,15.4-5.7,15.4-5.7l7.1,10.6
		c0,0-8.9,8-22.4,8c-17,0-30.1-13-30.1-29.4c0-16.4,11.9-29.4,28.1-29.4C1237.8,1281.4,1250.7,1293.3,1250.7,1310.6z M1236.5,1305.6
		c-0.2-4.8-4.7-11.3-14.1-11.3c-9.1,0-13.2,6.4-13.7,11.3H1236.5z"/>
	<path class="st2" d="M1262.7,1249.5h14.2v89.3h-14.2V1249.5z"/>
	<path class="st2" d="M1345.3,1310.6c0,1.1,0,3.2-0.1,5.3h-41.8c1.1,5,6.8,11.3,15.7,11.3c9.8,0,15.4-5.7,15.4-5.7l7.1,10.6
		c0,0-8.9,8-22.4,8c-17,0-30.1-13-30.1-29.4c0-16.4,11.9-29.4,28.1-29.4C1332.4,1281.4,1345.3,1293.3,1345.3,1310.6z M1331.1,1305.6
		c-0.2-4.8-4.7-11.3-14.1-11.3c-9.1,0-13.2,6.4-13.7,11.3H1331.1z"/>
	<path class="st2" d="M1360,1319.8c0,0,7.4,8,16.9,8c5.8,0,10.6-1.7,10.6-5.1c0-3.7-2.6-4.4-11.1-6.1c-11.1-2.4-20.8-7.1-20.8-17.7
		c0-8.7,8.7-17.5,24.1-17.5c12.6,0,21,6.9,21,6.9l-7.1,10.4c0,0-6.4-4.8-13.9-4.8c-5.3,0-10.2,1.9-10.2,5.3c0,3.4,3.8,4.3,13.2,6.3
		c11.1,2.4,19,6,19,17.6c0,9.6-10.2,17.2-24.5,17.2c-16.4,0-25.3-10.2-25.3-10.2L1360,1319.8z"/>
</g>
</svg>
