<?xml version="1.0" encoding="utf-8"?>
<!-- Generator: Adobe Illustrator 22.0.1, SVG Export Plug-In . SVG Version: 6.00 Build 0)  -->
<svg version="1.1" id="Layer_1" xmlns="http://www.w3.org/2000/svg" xmlns:xlink="http://www.w3.org/1999/xlink" x="0px" y="0px"
	 viewBox="0 0 207.6 254.7" style="enable-background:new 0 0 207.6 254.7;" xml:space="preserve">
<style type="text/css">
	.st0{fill:#D01A86;}
	.st1{fill:#C98240;}
	.st2{fill:#FFFFFF;}
	.st3{fill:#59C4C6;}
	.st4{fill:none;}
	.st5{fill:#231F20;}
	.st6{fill:#FAB68E;}
	.st7{fill:#E01D8D;}
	.st8{fill:#41BFBF;}
</style>
<circle class="st0" cx="27.9" cy="92.4" r="7.6"/>
<circle class="st0" cx="52.9" cy="92.4" r="7.6"/>
<g>
	
		<rect x="7.8" y="194.7" transform="matrix(0.7071 -0.7071 0.7071 0.7071 -165.9682 89.2971)" class="st1" width="34.1" height="100.5"/>
	
		<rect x="-33.1" y="234.8" transform="matrix(0.7071 -0.7071 0.7071 0.7071 -174.3181 66.1088)" class="st2" width="51.5" height="17.4"/>
	<circle class="st0" cx="23.2" cy="192.2" r="7.6"/>
	<circle class="st0" cx="39.8" cy="211.6" r="7.6"/>
	
		<rect x="42" y="230.9" transform="matrix(0.7071 -0.7071 0.7071 0.7071 -149.5576 118.083)" class="st2" width="51.5" height="17.4"/>
</g>
<path class="st3" d="M181.8,231.8c0-4.4-3.5-7.9-7.9-7.9s-7.9,3.5-7.9,7.9v23.9h15.9v-23.9H181.8z"/>
<path class="st3" d="M207.5,231.8c0-4.4-3.5-7.9-7.9-7.9s-7.9,3.5-7.9,7.9v23.9h15.9v-23.9H207.5z"/>
<path class="st3" d="M156.1,231.8c0-4.4-3.5-7.9-7.9-7.9s-7.9,3.5-7.9,7.9v23.9h15.9v-23.9H156.1z"/>
<rect x="79.5" y="1.1" class="st3" width="16.3" height="32.6"/>
<path class="st2" d="M45.7,55c-2.7-0.6-5.3-1-8-1.1c-2.6-0.1-5.3,0-7.9,0.3s-5,0.8-7.5,1.5s-4.8,1.6-7.1,2.7
	c-2.3,1.1-4.5,2.5-6.6,3.8c-2,1.5-3.9,3.1-5.8,4.9c-0.8,0.8-1.5,1.6-2.3,2.5v7.7c0.4-0.6,0.7-1.1,1.1-1.6C3,73.8,4.5,72,6.2,70.4
	c1.7-1.6,3.4-3.1,5.2-4.4c1.9-1.3,3.8-2.5,5.8-3.4s4.2-1.8,6.4-2.5s4.5-1.1,6.8-1.3s4.8-0.4,7.1-0.3c2.5,0.1,4.9,0.4,7.4,1l19.5,4.3
	l1-4.5L45.7,55z"/>
<g>
	<g>
		<line class="st4" x1="152.8" y1="173.5" x2="172.1" y2="153.9"/>
		<path class="st5" d="M152.8,174.2c-0.2,0-0.4,0-0.5-0.2c-0.2-0.2-0.2-0.6,0-0.9l19.3-19.7c0.2-0.2,0.6-0.2,0.9,0
			c0.2,0.2,0.2,0.6,0,0.9l-19.3,19.7C153.2,174.1,152.9,174.2,152.8,174.2z"/>
	</g>
	<g>
		<g>
			<path class="st6" d="M150.1,170.5L150.1,170.5H35c0,0,9.5,19.4,24.7,19.4c2.6,0,6.9,0,12.2,0v-11.8c0-1.9,1.5-3.5,3.5-3.5
				c2,0,3.5,1.5,3.5,3.5V190c5.2,0,11,0,16.9,0v-11.8c0-1.9,1.5-3.5,3.5-3.5c2,0,3.5,1.5,3.5,3.5V190c5.7,0,11.4,0,16.9,0v-11.8
				c0-1.9,1.5-3.5,3.5-3.5c1.9,0,3.5,1.5,3.5,3.5V190c13.3,0,23.2,0,23.2,0l0,0c5.3,0,9.5-4.3,9.5-9.7
				C159.6,175,155.4,170.7,150.1,170.5z"/>
		</g>
		<g>
			<path class="st2" d="M123.3,174.5c-1.9,0-3.5,1.5-3.5,3.5v11.8c2.5,0,4.8,0,7,0V178C126.9,176.2,125.3,174.5,123.3,174.5z"/>
		</g>
		<g>
			<path class="st2" d="M99.4,174.5c-1.9,0-3.5,1.5-3.5,3.5v11.8c2.3,0,4.7,0,7,0V178C103,176.2,101.3,174.5,99.4,174.5z"/>
		</g>
		<g>
			<path class="st2" d="M75.6,174.5c-1.9,0-3.5,1.5-3.5,3.5v11.8c2.2,0,4.6,0,7,0V178C79.1,176.2,77.5,174.5,75.6,174.5z"/>
		</g>
	</g>
	<g>
		<g>
			<path class="st5" d="M111.6,170.5l-21.7-56.2c-1.3-3.1-5.9-3.9-8.3-1.4l-6.1,6c-6.4,6.4-7.7,15.6-3.1,23.2l17.3,28.5L111.6,170.5
				L111.6,170.5z"/>
		</g>
	</g>
	<path class="st7" d="M92.1,120c-3,0.8-5.3,3.2-5.7,6.5l-3.6,32.9l6.9,11.4H96c1-1.2,1.9-2.6,1.9-4.3l2.7-24.1L92.1,120z"/>
	<g>
		<g>
			<circle class="st5" cx="63.6" cy="180.9" r="3.8"/>
		</g>
	</g>
	<g>
		<g>
			<circle class="st5" cx="87.4" cy="180.9" r="3.8"/>
		</g>
	</g>
	<g>
		<g>
			<circle class="st5" cx="111.4" cy="180.9" r="3.8"/>
		</g>
	</g>
	<g>
		<g>
			<circle class="st5" cx="135.3" cy="180.9" r="3.8"/>
		</g>
	</g>
	<g>
		<g>
			<g>
				<path class="st5" d="M131.7,135.4l12.4,13.9l0.8-74.8c0.8-7.4-8.1-12-14.7-8.7l10,51.8c0.4,2.1-1,4.2-3.1,4.6l0,0
					c-2.1,0.4-4.2-1-4.6-3.1l-9.1-47.3l-4,3.9l10.7,55.1c0.4,2.1-1,4.2-3.1,4.6l0,0c-2.1,0.4-4.2-1-4.6-3.1l-9.7-50.1l-4.4,4.2
					l11,57.3c0.4,2.1-1,4.2-3.1,4.6c-2.1,0.4-4.2-1-4.6-3.1l-10.1-52.4L96,97.7c-2.5,2.3-3.4,5.9-2.2,9l23.8,63.8H144l0.2-10.8
					l-17.8-19.5L131.7,135.4z"/>
			</g>
		</g>
		<path class="st1" d="M140.2,117.5l-10-51.8c-0.9,0.4-1.9,1-2.6,1.9l-4.3,4.2l9.1,47.3c0.4,2.1,2.5,3.5,4.6,3.1l0,0
			C139.1,121.7,140.6,119.6,140.2,117.5z"/>
		<path class="st1" d="M129.8,130.8l-10.7-55.1l-6.8,6.5l9.7,50.1c0.4,2.1,2.5,3.5,4.6,3.1l0,0C128.8,134.9,130.2,132.8,129.8,130.8
			z"/>
		<path class="st1" d="M119.2,143.6l-11-57.3l-6.8,6.5l10.1,52.4c0.4,2.1,2.5,3.5,4.6,3.1C118.2,147.7,119.6,145.7,119.2,143.6z"/>
		<polygon class="st8" points="131.7,135.4 126.4,140.1 143.9,159.8 144,149.4 		"/>
	</g>
	<g>
		<circle class="st8" cx="126" cy="131" r="3.1"/>
	</g>
	<g>
		<path class="st6" d="M73.8,146.2l-2.2-3.5c-0.6-1-1-1.9-1.5-3c-0.4-1-0.8-2.1-0.9-3.1c-0.2-1-0.4-2.2-0.4-3.2c0-1,0-2.2,0.2-3.2
			c0.2-1,0.4-2.1,0.6-3.1s0.8-2.1,1.2-3c0.5-1,1-1.9,1.7-2.9c0.6-0.9,1.4-1.9,2.2-2.6l6.1-6l1.4,1.4l-6.1,6
			c-0.8,0.8-1.4,1.5-2.1,2.3c-0.6,0.8-1.2,1.7-1.5,2.6c-0.4,0.9-0.8,1.9-1,2.7c-0.2,0.9-0.5,1.9-0.6,2.9c-0.2,0.9-0.2,1.9-0.2,2.9
			c0,0.9,0.2,1.9,0.4,2.9c0.2,0.9,0.5,1.9,0.9,2.9c0.4,0.9,0.8,1.9,1.4,2.7l2.1,3.4L73.8,146.2z"/>
	</g>
</g>
</svg>
