<?xml version="1.0" encoding="utf-8"?>
<!-- Generator: Adobe Illustrator 22.0.1, SVG Export Plug-In . SVG Version: 6.00 Build 0)  -->
<svg version="1.1" id="Layer_1" xmlns="http://www.w3.org/2000/svg" xmlns:xlink="http://www.w3.org/1999/xlink" x="0px" y="0px"
	 viewBox="0 0 530 300" style="enable-background:new 0 0 530 300;" xml:space="preserve">
<style type="text/css">
	.st0{fill:none;}
	.st1{fill:#FFFFFF;}
</style>
<polyline points="0,0 0,300 530,300 530,0 "/>
<polyline class="st0" points="0,0 0,300 530,300 530,0 "/>
<polyline class="st1" points="0,0 264.8,150 226,0 "/>
<polyline class="st0" points="0.4,0 0.4,300 530,300 530,0 "/>
<path class="st1" d="M224.7,82.9c0.7,1.2,0.3,2.7-0.9,3.4s-2.7,0.3-3.4-0.9c-0.7-1.2-0.3-2.7,0.9-3.4S224,81.7,224.7,82.9"/>
<g>
	<path class="st1" d="M35,140.7h12.2c7.9,0,13.2,5.7,13.2,14.5c0,5-1.8,9.1-5,11.5c-2.2,1.7-5.1,2.6-8.7,2.6H35V140.7z M46.2,163.3
		c4.6,0,7-2.9,7-8.2c0-5.2-2.5-8.6-7-8.6h-4.2v16.7H46.2z"/>
	<path class="st1" d="M61.9,159.1c0-6.2,4.4-10.8,11-10.8c6.6,0,10.9,4.7,10.9,10.8c0,6.2-4.3,10.8-10.9,10.8
		C66.3,169.9,61.9,165.3,61.9,159.1z M77.1,159.1c0-3.7-1.5-6.2-4.4-6.2s-4.3,2.5-4.3,6.2c0,3.7,1.5,6.2,4.3,6.2
		S77.1,162.8,77.1,159.1z"/>
	<path class="st1" d="M83.5,148.8h6.6l2.2,8.5c0.4,1.6,0.9,4,0.9,4h0.1c0,0,0.5-2.4,0.9-4.1l2.2-8.4h5.5l2.2,8.4
		c0.4,1.8,1,4.1,1,4.1h0.1c0,0,0.5-2.4,1-4l2.3-8.5h6.4l-6.3,20.5h-6.1l-2.4-9.3c-0.4-1.6-0.9-3.7-0.9-3.7h-0.1c0,0-0.5,2.1-0.9,3.7
		l-2.4,9.3h-6L83.5,148.8z"/>
	<path class="st1" d="M116.5,148.8h6.3v2.8h0.1c1.5-2.2,3.5-3.4,6.3-3.4c4.5,0,7.1,3.2,7.1,7.8v13.3h-6.5v-12c0-2.2-1.1-3.6-3.2-3.6
		c-2.2,0-3.6,1.8-3.6,4.3v11.3h-6.5V148.8z"/>
	<path class="st1" d="M140.5,163.9v-11h-2.7v-4.1h2.7v-6.5h6.4v6.5h3.7v4.1h-3.7v9.6c0,1.6,0.9,2,2.3,2c0.6,0,1.2,0,1.4,0v4.8
		c-0.6,0.2-1.8,0.3-3.6,0.3C143.3,169.5,140.5,168.3,140.5,163.9z"/>
	<path class="st1" d="M153,140.7h6.5v5.3H153V140.7z M153,148.8h6.5v20.5H153V148.8z"/>
	<path class="st1" d="M162.6,148.8h6.2v2.9h0.1c1.3-2.1,3.2-3.5,6.2-3.5c2.7,0,4.7,1.4,5.8,3.6h0.1c1.6-2.5,3.8-3.6,6.4-3.6
		c4.6,0,7,3.2,7,7.8v13.3h-6.5v-12.2c0-2.2-0.9-3.5-2.9-3.5c-2.1,0-3.2,1.7-3.2,4.2v11.5h-6.5v-12.2c0-2.2-0.9-3.5-2.9-3.5
		c-2,0-3.2,1.7-3.2,4.2v11.5h-6.5V148.8z"/>
	<path class="st1" d="M196.5,159c0-6.1,4.3-10.8,10.5-10.8c2.9,0,5.2,1,7,2.6c2.4,2.2,3.6,5.8,3.6,10h-14.7c0.4,2.8,1.9,4.5,4.6,4.5
		c1.7,0,2.8-0.8,3.4-2h6.4c-0.4,1.8-1.6,3.6-3.4,4.8c-1.7,1.2-3.8,1.9-6.4,1.9C200.6,169.9,196.5,165.2,196.5,159z M211,156.9
		c-0.2-2.4-1.8-4-3.9-4c-2.5,0-3.8,1.6-4.2,4H211z"/>
</g>
</svg>
