<?xml version="1.0" encoding="utf-8"?>
<!-- Generator: Adobe Illustrator 22.0.1, SVG Export Plug-In . SVG Version: 6.00 Build 0)  -->
<svg version="1.1" id="Layer_1" xmlns="http://www.w3.org/2000/svg" xmlns:xlink="http://www.w3.org/1999/xlink" x="0px" y="0px"
	 viewBox="0 0 516.5 1184" style="enable-background:new 0 0 516.5 1184;" xml:space="preserve">
<style type="text/css">
	.st0{fill:#00FF00;}
	.st1{clip-path:url(#SVGID_2_);}
</style>
<g>
	<g>
		<path class="st0" d="M6.7,173.3c0,0,51.5,74.2,46.5,113.8s-39.9,65.5-39.9,65.5L0,257.2L6.7,173.3z"/>
	</g>
	<g>
		<path class="st0" d="M294.3,233.6c0,0,11.9,29.7-3.8,35c-15.8,5.3-99.8-60.4-110.3-78.8c-10.5-18.4-10.5-39.4-10.5-39.4
			L294.3,233.6z"/>
	</g>
	<g>
		<path class="st0" d="M356.2,193.8c0,0-38.8,12.9-48.5-25.8c-9.7-38.8-25.8-90.4-25.8-90.4L327.2,0L356.2,193.8z"/>
	</g>
	<g>
		<path class="st0" d="M195,418.9c0,0,17.4,20.3,2.9,34.8S134,500.2,134,500.2s-30.5-2.3-37.7-8.7c-22-19.6,10-30.5,17.4-37.7
			C129.5,438.3,195,418.9,195,418.9z"/>
	</g>
	<g>
		<path class="st0" d="M217.4,456c0,0,40.3,24.4,25.2,40c-15.1,15.7-99.1,40-99.1,40l-31.9-7"/>
	</g>
	<g>
		<g>
			<path d="M252.8,1184c-0.9,0-1.8,0-2.6,0c-29.4-1-48.5-3.2-64.9-11.8c-16.7-8.7-30.1-23.8-46.1-51.8l-0.8-1.4l0.2-1.6
				c0.1-1.1,13.1-106.4,4-137.6c-3.8-13-17-40.9-32.2-73.1c-22.4-47.6-47.8-101.5-55.8-133.5c-3.2-12.7-6-31.6-8.4-56.3
				c-2-20.8-3.7-45.5-4.9-71.5c-1.9-41.2-2.5-89.7-0.1-98.3c1.5-5.3,1.9-39.4,0.1-81.9c-2-45.6-5.6-79.7-9.4-88.9
				c-5.8-13.9-12.7-48.2-16.3-67.4c-5-26.7-8.9-52.5-8.9-58.7c0-11.6,5.5-54.2,5.8-56l1.4-10.7l7,8.2C21,192,43.1,218,64.9,247.1
				c12.9,17.2,23.1,32.1,30.5,44.4c9.7,16.1,14.4,27.6,14.4,35.2c0,23.4-1.3,34.4-1.8,37.9l26.4,84.5l60.1-34.9l0.2-0.1l105.9-50.3
				c-12.1-4.5-31.2-13.2-44.1-26.1c-18.9-18.9-45.5-61.7-58.3-86.1c-3.7-7-15.2-62.1-17.5-73.1l-2.4-11.5l9.8,6.6
				c0.6,0.4,64.3,43.5,127.9,88c37.4,26.1,67.4,47.6,89.2,63.8c42.2,31.3,43.8,35.6,44.7,37.9c5.7,15.2,16,141.3,17.4,159.2
				c1.4,3.5,7.8,19.1,13.9,36.6c9.4,27,13.8,45.4,12.9,54.8c-1.1,12.6-23.5,57.7-45,95.8c-13.7,24.3-48.1,82.8-71.3,102.4
				c-16.2,13.7-28.9,30.8-36.7,49.5c-6.8,16.4-9.5,33.3-7.6,47.5c1.5,10.9,8.5,40.7,16.1,72.4c6.2,26.3,12.7,53.4,17.5,76
				c7.3,34.6,7.4,42.9,6.5,46.5c-2.6,10.2-20.8,31-41.6,47.3c-12.7,9.9-25.6,17.8-38.3,23.4C279.3,1180.8,265.6,1184,252.8,1184z
				 M148.2,1117c14.7,25.4,26.8,39,41.5,46.7c14.8,7.7,32.8,9.7,60.8,10.7c12.1,0.4,25.3-2.5,39.3-8.6c12-5.3,24.2-12.7,36.2-22.2
				c22.9-18,36.9-36.7,38.2-42.1c0.4-1.5,0.5-8.7-6.6-42.2c-4.8-22.4-11.2-49.5-17.4-75.7c-7.9-33.2-14.7-61.9-16.2-73.3
				c-3.9-29.3,9.3-73.4,47.5-105.6c15.3-12.9,41.1-50.2,69.2-99.8c26.1-46.2,43.1-83.7,43.8-92c1.5-16.3-18.6-68.7-26.4-87.6
				l-0.3-0.7l-0.1-0.8c-4.6-57.1-12.8-145.8-16.9-157.2c-0.9-1.4-6.6-7.9-43.5-35.2c-21.9-16.2-51.8-37.5-88.7-63.3
				c-48.2-33.7-96.1-66.4-116.2-80c6,28.1,12.4,55.6,14.2,59c12.5,23.8,38.4,65.5,56.6,83.8c18,18,51.1,27.4,51.4,27.4l12.3,3.4
				l-11.5,5.5L199,422.7l-70.1,40.7l-30.7-98.2l0.2-1.2c0-0.1,1.8-9.7,1.8-37.3c0-6.1-5.6-23.8-43-73.8
				c-14.2-19-28.5-36.6-36.8-46.6c-1.7,13.7-4.3,36.4-4.3,43.9c0,4.9,3.5,29,8.8,56.9c6,32,11.7,55.9,15.7,65.5
				c6.2,15,9.2,69.5,10.2,92.2c1.5,36,1.9,76.8-0.4,84.9c-1.6,5.6-1.8,46,0.4,95.2c2.6,57.3,7.3,103.2,13,125.9
				c7.8,31.1,34.1,86.9,55.2,131.7c15.4,32.6,28.6,60.8,32.7,74.5C160.9,1008.4,149.9,1103,148.2,1117z"/>
		</g>
		<g>
			<path d="M326.8,914.1c-0.3-0.1-32.7-13.4-64.2-31.5c-18.6-10.7-33.4-21.1-43.8-30.7C205,839,198.5,827,199.5,816.1
				c1.8-19.7,17.1-63.2,38.8-110.8c22.9-50.2,45.2-88.1,59.6-101.3c14.4-13.2,29.8-25.5,43.2-34.7c6.5-4.4,14.7-9.6,21.7-12.6
				c-3.3-3.8-7.9-9.3-12.5-15.1c-4.8-6.1-7.9-12-10.6-17.2c-2-3.8-3.7-7.2-5.7-9.7c-5.4-1.8-9.3-1.5-22,1.7c-11.7,2.9-27,3.8-32,4.1
				c-6.1,5-9.1,6.4-12.8,8.1c-1.9,0.9-3.9,1.8-6.9,3.5c-10.2,5.8-22.6,6.3-34.4,6.3c-12.7,0-36.8-3.3-49.9-5.3
				c-8.4-1.3-16.9-2.7-23.9-3.9c-10.8-2-11.8-2.4-12.5-2.8c-1.6-0.8-2.6-2.4-2.7-4.2c-0.1-2.8,2-4.3,4-5.7c1.3-1,3.3-2.3,5.8-3.9
				c5-3.2,12-7.7,20.4-12.8c18.9-11.6,42-25.3,63.4-37.6c26.9-15.4,50.8-28.4,69-37.6c30.8-15.4,39.6-17.1,43.9-16.9
				c7,0.4,22.4,7.6,75,65.1c28.4,31.1,54.4,62.5,54.6,62.8l-7.4,6.1c-0.3-0.3-26.1-31.5-54.3-62.4c-16.6-18.1-30.7-32.6-42-43
				c-18.8-17.3-25-18.9-26.4-19c-2-0.1-9.8,1.2-39.1,15.9c-18,9-41.7,22-68.5,37.3c-36.2,20.7-67.5,39.9-81.9,49.2
				c5.9,1.1,14.2,2.5,24,3.9c22,3.3,39.7,5.2,48.5,5.2c10.5,0,21.4-0.4,29.6-5c3.3-1.9,5.7-3,7.6-3.9c3.6-1.6,5.9-2.7,11.9-7.8
				l1.3-1.1l1.6-0.1c0.2,0,18.8-0.7,31.7-3.8c13.7-3.4,19.7-4.3,28.8-1l1.1,0.4l0.8,0.9c3.1,3.5,5.4,7.9,7.8,12.6
				c2.5,4.8,5.3,10.3,9.6,15.7c8.4,10.6,16.9,20.1,17,20.2l6.1,6.8l-9.1,1.1c-3.3,0.4-11.7,4.2-25.3,13.4
				c-13.1,8.9-28.1,20.9-42.2,33.8c-13.3,12.2-35.3,49.8-57.3,98.2c-21,46-36.3,89.3-38,107.8c-1.4,14.5,19.4,34.8,58.4,57.3
				c30.9,17.8,62.7,30.8,63,31L326.8,914.1z M143.6,517.7C143.6,517.7,143.6,517.7,143.6,517.7C143.6,517.7,143.6,517.7,143.6,517.7
				z"/>
		</g>
		<g>
			<path d="M145.8,493.8c-17.2,0-28.4-2.5-33.9-7.6c-5.7-5.2-6.1-10.4-5.5-13.8c1-5.4,5.4-10.6,13.2-15.4c5.2-3.2,10.2-5.2,10.4-5.3
				l3.5,8.9c0,0-4.4,1.8-8.9,4.6c-5,3.1-8.2,6.4-8.7,8.9c-0.1,0.6-0.4,2.3,2.5,5c1.5,1.4,5.8,3.8,17.4,4.8
				c7.7,0.6,17.4,0.5,28.8-0.5c19.7-1.6,37.7-4.9,37.9-4.9l1.7,9.4c-0.8,0.1-18.7,3.4-38.8,5C158.1,493.5,151.6,493.8,145.8,493.8z"
				/>
		</g>
		<g>
			<path d="M248.4,706.8l-9.3-2.2c0.1-0.6,14-58.7,16.4-96.1c1.2-17.9-13.6-36.8-26.2-49.4c-14.1-14.2-28.8-23.9-29-24l5.3-8
				c0.6,0.4,15.6,10.3,30.4,25.1c8.8,8.8,15.7,17.5,20.6,25.9c6.3,10.9,9.2,21.3,8.5,31C262.6,647.3,249,704.4,248.4,706.8z"/>
		</g>
		<g>
			<path d="M456.3,513.1c-0.2-0.4-24.5-42.4-49.6-81.4c-24.3-37.7-94.3-64-95-64.2l3.3-9c0.7,0.3,18.5,6.9,39.8,18.5
				c28.8,15.8,49,32.4,60,49.5c25.3,39.2,49.6,81.4,49.8,81.8L456.3,513.1z"/>
		</g>
		<g>
			<path d="M362.6,304.9L318.4,52.7c-4.4,7.1-10.4,17.5-16.1,29.6c-17.6,37.6-18.8,62.8-16.7,77.4c7.6,53.1,10.4,90.6,10.5,91
				l-9.5,0.7c0-0.4-2.9-37.6-10.4-90.3c-1.8-12.8-0.8-27.4,3.1-43.2c3.1-12.5,8-25.9,14.5-39.8c11-23.5,22.9-40.2,23.4-40.9l6.6-9.3
				L372,303.3L362.6,304.9z"/>
		</g>
		<g>
			<path d="M191.4,380.7l-74.7-33.2L67.7,225.8l23.2-94.7l77.5,60.8l54.9,127.4L191.4,380.7z M124.2,340.3l62.9,28l25.6-49.4
				l-52.1-121l-63.9-50.1L77.7,225L124.2,340.3z"/>
		</g>
		<g>
			<polygon points="249.6,533.3 256.3,545.2 275,581.6 293.8,618.1 312.6,654.5 331.3,690.9 350.1,727.4 368.8,763.8 387.6,800.2 
				406.3,836.7 425.1,873.1 443.8,909.6 462.6,946 446,909.3 429.4,872.6 412.8,836 396.2,799.3 379.6,762.6 363,725.9 346.4,689.3 
				329.8,652.6 313.2,615.9 296.6,579.2 279.9,542.6 270.2,520.9 			"/>
		</g>
		<g>
			<polyline points="93.7,139.4 189.3,374.5 162.5,363 192.4,420.7 218.7,408.3 196.9,359.2 			"/>
		</g>
	</g>
	<g>
		<defs>
			<path id="SVGID_1_" d="M145.5,1118.7l2.3-38.9c0,0,62.8-20.1,149.3-18.8c33.6,0.5,73.9,42.4,73.9,42.4s-50.8,69.8-111,76.4
				S179.2,1175.1,145.5,1118.7z"/>
		</defs>
		<clipPath id="SVGID_2_">
			<use xlink:href="#SVGID_1_"  style="overflow:visible;"/>
		</clipPath>
		<g class="st1">
			<circle cx="152.6" cy="961.3" r="6.5"/>
		</g>
		<g class="st1">
			<circle cx="185.1" cy="961.3" r="6.5"/>
		</g>
		<g class="st1">
			<circle cx="217.5" cy="961.3" r="6.5"/>
		</g>
		<g class="st1">
			<circle cx="250" cy="961.3" r="6.5"/>
		</g>
		<g class="st1">
			<circle cx="282.4" cy="961.3" r="6.5"/>
		</g>
		<g class="st1">
			<circle cx="314.9" cy="961.3" r="6.5"/>
		</g>
		<g class="st1">
			<circle cx="347.3" cy="961.3" r="6.5"/>
		</g>
		<g class="st1">
			<circle cx="379.8" cy="961.3" r="6.5"/>
		</g>
		<g class="st1">
			<circle cx="131.2" cy="978.4" r="6.5"/>
		</g>
		<g class="st1">
			<circle cx="163.7" cy="978.4" r="6.5"/>
		</g>
		<g class="st1">
			<circle cx="196.1" cy="978.4" r="6.5"/>
		</g>
		<g class="st1">
			<circle cx="228.6" cy="978.4" r="6.5"/>
		</g>
		<g class="st1">
			<circle cx="261" cy="978.4" r="6.5"/>
		</g>
		<g class="st1">
			<circle cx="293.5" cy="978.4" r="6.5"/>
		</g>
		<g class="st1">
			<circle cx="326" cy="978.4" r="6.5"/>
		</g>
		<g class="st1">
			<circle cx="358.4" cy="978.4" r="6.5"/>
		</g>
		<g class="st1">
			<circle cx="179.7" cy="991.8" r="6.5"/>
		</g>
		<g class="st1">
			<circle cx="212.1" cy="991.8" r="6.5"/>
		</g>
		<g class="st1">
			<circle cx="244.6" cy="991.8" r="6.5"/>
		</g>
		<g class="st1">
			<circle cx="277" cy="991.8" r="6.5"/>
		</g>
		<g class="st1">
			<circle cx="309.5" cy="991.8" r="6.5"/>
		</g>
		<g class="st1">
			<circle cx="341.9" cy="991.8" r="6.5"/>
		</g>
		<g class="st1">
			<circle cx="374.4" cy="991.8" r="6.5"/>
		</g>
		<g class="st1">
			<circle cx="406.8" cy="991.8" r="6.5"/>
		</g>
		<g class="st1">
			<circle cx="158.3" cy="1008.9" r="6.5"/>
		</g>
		<g class="st1">
			<circle cx="190.7" cy="1008.9" r="6.5"/>
		</g>
		<g class="st1">
			<circle cx="223.2" cy="1008.9" r="6.5"/>
		</g>
		<g class="st1">
			<circle cx="255.6" cy="1008.9" r="6.5"/>
		</g>
		<g class="st1">
			<circle cx="288.1" cy="1008.9" r="6.5"/>
		</g>
		<g class="st1">
			<circle cx="320.6" cy="1008.9" r="6.5"/>
		</g>
		<g class="st1">
			<circle cx="353" cy="1008.9" r="6.5"/>
		</g>
		<g class="st1">
			<circle cx="385.5" cy="1008.9" r="6.5"/>
		</g>
		<g class="st1">
			<circle cx="196.2" cy="901.6" r="6.5"/>
		</g>
		<g class="st1">
			<circle cx="228.7" cy="901.6" r="6.5"/>
		</g>
		<g class="st1">
			<circle cx="261.1" cy="901.6" r="6.5"/>
		</g>
		<g class="st1">
			<circle cx="293.6" cy="901.6" r="6.5"/>
		</g>
		<g class="st1">
			<circle cx="326" cy="901.6" r="6.5"/>
		</g>
		<g class="st1">
			<circle cx="358.5" cy="901.6" r="6.5"/>
		</g>
		<g class="st1">
			<circle cx="390.9" cy="901.6" r="6.5"/>
		</g>
		<g class="st1">
			<circle cx="423.4" cy="901.6" r="6.5"/>
		</g>
		<g class="st1">
			<circle cx="174.8" cy="918.7" r="6.5"/>
		</g>
		<g class="st1">
			<circle cx="207.3" cy="918.7" r="6.5"/>
		</g>
		<g class="st1">
			<circle cx="239.7" cy="918.7" r="6.5"/>
		</g>
		<g class="st1">
			<circle cx="272.2" cy="918.7" r="6.5"/>
		</g>
		<g class="st1">
			<circle cx="304.6" cy="918.7" r="6.5"/>
		</g>
		<g class="st1">
			<circle cx="337.1" cy="918.7" r="6.5"/>
		</g>
		<g class="st1">
			<circle cx="369.5" cy="918.7" r="6.5"/>
		</g>
		<g class="st1">
			<circle cx="402" cy="918.7" r="6.5"/>
		</g>
		<g class="st1">
			<circle cx="223.3" cy="932.1" r="6.5"/>
		</g>
		<g class="st1">
			<circle cx="255.7" cy="932.1" r="6.5"/>
		</g>
		<g class="st1">
			<circle cx="288.2" cy="932.1" r="6.5"/>
		</g>
		<g class="st1">
			<circle cx="320.6" cy="932.1" r="6.5"/>
		</g>
		<g class="st1">
			<circle cx="353.1" cy="932.1" r="6.5"/>
		</g>
		<g class="st1">
			<circle cx="385.5" cy="932.1" r="6.5"/>
		</g>
		<g class="st1">
			<circle cx="418" cy="932.1" r="6.5"/>
		</g>
		<g class="st1">
			<circle cx="450.4" cy="932.1" r="6.5"/>
		</g>
		<g class="st1">
			<circle cx="201.9" cy="949.2" r="6.5"/>
		</g>
		<g class="st1">
			<circle cx="234.3" cy="949.2" r="6.5"/>
		</g>
		<g class="st1">
			<circle cx="266.8" cy="949.2" r="6.5"/>
		</g>
		<g class="st1">
			<circle cx="299.2" cy="949.2" r="6.5"/>
		</g>
		<g class="st1">
			<circle cx="331.7" cy="949.2" r="6.5"/>
		</g>
		<g class="st1">
			<circle cx="364.1" cy="949.2" r="6.5"/>
		</g>
		<g class="st1">
			<circle cx="396.6" cy="949.2" r="6.5"/>
		</g>
		<g class="st1">
			<circle cx="429.1" cy="949.2" r="6.5"/>
		</g>
		<g class="st1">
			<circle cx="141.4" cy="1022.7" r="6.5"/>
		</g>
		<g class="st1">
			<circle cx="173.9" cy="1022.7" r="6.5"/>
		</g>
		<g class="st1">
			<circle cx="206.3" cy="1022.7" r="6.5"/>
		</g>
		<g class="st1">
			<circle cx="238.8" cy="1022.7" r="6.5"/>
		</g>
		<g class="st1">
			<circle cx="271.2" cy="1022.7" r="6.5"/>
		</g>
		<g class="st1">
			<circle cx="303.7" cy="1022.7" r="6.5"/>
		</g>
		<g class="st1">
			<circle cx="336.1" cy="1022.7" r="6.5"/>
		</g>
		<g class="st1">
			<circle cx="368.6" cy="1022.7" r="6.5"/>
		</g>
		<g class="st1">
			<circle cx="120" cy="1039.8" r="6.5"/>
		</g>
		<g class="st1">
			<circle cx="152.5" cy="1039.8" r="6.5"/>
		</g>
		<g class="st1">
			<circle cx="184.9" cy="1039.8" r="6.5"/>
		</g>
		<g class="st1">
			<circle cx="217.4" cy="1039.8" r="6.5"/>
		</g>
		<g class="st1">
			<circle cx="249.8" cy="1039.8" r="6.5"/>
		</g>
		<g class="st1">
			<circle cx="282.3" cy="1039.8" r="6.5"/>
		</g>
		<g class="st1">
			<circle cx="314.7" cy="1039.8" r="6.5"/>
		</g>
		<g class="st1">
			<circle cx="347.2" cy="1039.8" r="6.5"/>
		</g>
		<g class="st1">
			<circle cx="168.5" cy="1053.2" r="6.5"/>
		</g>
		<g class="st1">
			<circle cx="200.9" cy="1053.2" r="6.5"/>
		</g>
		<g class="st1">
			<circle cx="233.4" cy="1053.2" r="6.5"/>
		</g>
		<g class="st1">
			<circle cx="265.8" cy="1053.2" r="6.5"/>
		</g>
		<g class="st1">
			<circle cx="298.3" cy="1053.2" r="6.5"/>
		</g>
		<g class="st1">
			<circle cx="330.7" cy="1053.2" r="6.5"/>
		</g>
		<g class="st1">
			<circle cx="363.2" cy="1053.2" r="6.5"/>
		</g>
		<g class="st1">
			<circle cx="395.6" cy="1053.2" r="6.5"/>
		</g>
		<g class="st1">
			<circle cx="147.1" cy="1070.3" r="6.5"/>
		</g>
		<g class="st1">
			<circle cx="244.4" cy="1070.3" r="6.5"/>
		</g>
		<g class="st1">
			<circle cx="276.9" cy="1070.3" r="6.5"/>
		</g>
		<g class="st1">
			<circle cx="309.3" cy="1070.3" r="6.5"/>
		</g>
		<g class="st1">
			<circle cx="341.8" cy="1070.3" r="6.5"/>
		</g>
		<g class="st1">
			<circle cx="374.2" cy="1070.3" r="6.5"/>
		</g>
		<g class="st1">
			<circle cx="129" cy="1088.1" r="6.5"/>
		</g>
		<g class="st1">
			<circle cx="161.5" cy="1088.1" r="6.5"/>
		</g>
		<g class="st1">
			<circle cx="193.9" cy="1088.1" r="6.5"/>
		</g>
		<g class="st1">
			<circle cx="226.4" cy="1088.1" r="6.5"/>
		</g>
		<g class="st1">
			<circle cx="258.9" cy="1088.1" r="6.5"/>
		</g>
		<g class="st1">
			<circle cx="291.3" cy="1088.1" r="6.5"/>
		</g>
		<g class="st1">
			<circle cx="323.8" cy="1088.1" r="6.5"/>
		</g>
		<g class="st1">
			<circle cx="107.7" cy="1105.2" r="6.5"/>
		</g>
		<g class="st1">
			<circle cx="140.1" cy="1105.2" r="6.5"/>
		</g>
		<g class="st1">
			<circle cx="172.6" cy="1105.2" r="6.5"/>
		</g>
		<g class="st1">
			<circle cx="205" cy="1105.2" r="6.5"/>
		</g>
		<g class="st1">
			<circle cx="237.5" cy="1105.2" r="6.5"/>
		</g>
		<g class="st1">
			<circle cx="269.9" cy="1105.2" r="6.5"/>
		</g>
		<g class="st1">
			<circle cx="302.4" cy="1105.2" r="6.5"/>
		</g>
		<g class="st1">
			<circle cx="334.8" cy="1105.2" r="6.5"/>
		</g>
		<g class="st1">
			<circle cx="156.1" cy="1118.6" r="6.5"/>
		</g>
		<g class="st1">
			<circle cx="188.6" cy="1118.6" r="6.5"/>
		</g>
		<g class="st1">
			<circle cx="221" cy="1118.6" r="6.5"/>
		</g>
		<g class="st1">
			<circle cx="253.5" cy="1118.6" r="6.5"/>
		</g>
		<g class="st1">
			<circle cx="285.9" cy="1118.6" r="6.5"/>
		</g>
		<g class="st1">
			<circle cx="318.4" cy="1118.6" r="6.5"/>
		</g>
		<g class="st1">
			<circle cx="350.8" cy="1118.6" r="6.5"/>
		</g>
		<g class="st1">
			<circle cx="383.3" cy="1118.6" r="6.5"/>
		</g>
		<g class="st1">
			<circle cx="134.7" cy="1135.8" r="6.5"/>
		</g>
		<g class="st1">
			<circle cx="167.2" cy="1135.8" r="6.5"/>
		</g>
		<g class="st1">
			<circle cx="199.6" cy="1135.8" r="6.5"/>
		</g>
		<g class="st1">
			<circle cx="232.1" cy="1135.8" r="6.5"/>
		</g>
		<g class="st1">
			<circle cx="264.5" cy="1135.8" r="6.5"/>
		</g>
		<g class="st1">
			<circle cx="297" cy="1135.8" r="6.5"/>
		</g>
		<g class="st1">
			<circle cx="329.4" cy="1135.8" r="6.5"/>
		</g>
		<g class="st1">
			<circle cx="361.9" cy="1135.8" r="6.5"/>
		</g>
		<g class="st1">
			<circle cx="146.9" cy="1153.1" r="6.5"/>
		</g>
		<g class="st1">
			<circle cx="179.3" cy="1153.1" r="6.5"/>
		</g>
		<g class="st1">
			<circle cx="211.8" cy="1153.1" r="6.5"/>
		</g>
		<g class="st1">
			<circle cx="244.2" cy="1153.1" r="6.5"/>
		</g>
		<g class="st1">
			<circle cx="276.7" cy="1153.1" r="6.5"/>
		</g>
		<g class="st1">
			<circle cx="309.2" cy="1153.1" r="6.5"/>
		</g>
		<g class="st1">
			<circle cx="341.6" cy="1153.1" r="6.5"/>
		</g>
		<g class="st1">
			<circle cx="374.1" cy="1153.1" r="6.5"/>
		</g>
		<g class="st1">
			<circle cx="125.5" cy="1170.2" r="6.5"/>
		</g>
		<g class="st1">
			<circle cx="158" cy="1170.2" r="6.5"/>
		</g>
		<g class="st1">
			<circle cx="190.4" cy="1170.2" r="6.5"/>
		</g>
		<g class="st1">
			<circle cx="222.9" cy="1170.2" r="6.5"/>
		</g>
		<g class="st1">
			<circle cx="255.3" cy="1170.2" r="6.5"/>
		</g>
		<g class="st1">
			<circle cx="287.8" cy="1170.2" r="6.5"/>
		</g>
		<g class="st1">
			<circle cx="320.2" cy="1170.2" r="6.5"/>
		</g>
		<g class="st1">
			<circle cx="352.7" cy="1170.2" r="6.5"/>
		</g>
		<g class="st1">
			<circle cx="173.9" cy="1183.6" r="6.5"/>
		</g>
		<g class="st1">
			<circle cx="206.4" cy="1183.6" r="6.5"/>
		</g>
		<g class="st1">
			<circle cx="238.8" cy="1183.6" r="6.5"/>
		</g>
		<g class="st1">
			<circle cx="271.3" cy="1183.6" r="6.5"/>
		</g>
		<g class="st1">
			<circle cx="303.8" cy="1183.6" r="6.5"/>
		</g>
		<g class="st1">
			<circle cx="336.2" cy="1183.6" r="6.5"/>
		</g>
		<g class="st1">
			<circle cx="368.7" cy="1183.6" r="6.5"/>
		</g>
		<g class="st1">
			<circle cx="401.1" cy="1183.6" r="6.5"/>
		</g>
		<g class="st1">
			<circle cx="152.6" cy="1200.8" r="6.5"/>
		</g>
		<g class="st1">
			<circle cx="185" cy="1200.8" r="6.5"/>
		</g>
		<g class="st1">
			<circle cx="217.5" cy="1200.8" r="6.5"/>
		</g>
		<g class="st1">
			<circle cx="249.9" cy="1200.8" r="6.5"/>
		</g>
		<g class="st1">
			<circle cx="282.4" cy="1200.8" r="6.5"/>
		</g>
		<g class="st1">
			<circle cx="314.8" cy="1200.8" r="6.5"/>
		</g>
		<g class="st1">
			<circle cx="347.3" cy="1200.8" r="6.5"/>
		</g>
		<g class="st1">
			<circle cx="379.7" cy="1200.8" r="6.5"/>
		</g>
		<g class="st1">
			<circle cx="134.1" cy="1216.9" r="6.5"/>
		</g>
		<g class="st1">
			<circle cx="166.6" cy="1216.9" r="6.5"/>
		</g>
		<g class="st1">
			<circle cx="199" cy="1216.9" r="6.5"/>
		</g>
		<g class="st1">
			<circle cx="231.5" cy="1216.9" r="6.5"/>
		</g>
		<g class="st1">
			<circle cx="264" cy="1216.9" r="6.5"/>
		</g>
		<g class="st1">
			<circle cx="296.4" cy="1216.9" r="6.5"/>
		</g>
		<g class="st1">
			<circle cx="328.9" cy="1216.9" r="6.5"/>
		</g>
		<g class="st1">
			<circle cx="361.3" cy="1216.9" r="6.5"/>
		</g>
		<g class="st1">
			<circle cx="112.8" cy="1234" r="6.5"/>
		</g>
		<g class="st1">
			<circle cx="145.2" cy="1234" r="6.5"/>
		</g>
		<g class="st1">
			<circle cx="177.7" cy="1234" r="6.5"/>
		</g>
		<g class="st1">
			<circle cx="210.1" cy="1234" r="6.5"/>
		</g>
		<g class="st1">
			<circle cx="242.6" cy="1234" r="6.5"/>
		</g>
		<g class="st1">
			<circle cx="275" cy="1234" r="6.5"/>
		</g>
		<g class="st1">
			<circle cx="307.5" cy="1234" r="6.5"/>
		</g>
		<g class="st1">
			<circle cx="339.9" cy="1234" r="6.5"/>
		</g>
		<g class="st1">
			<circle cx="161.2" cy="1247.4" r="6.5"/>
		</g>
		<g class="st1">
			<circle cx="193.6" cy="1247.4" r="6.5"/>
		</g>
		<g class="st1">
			<circle cx="226.1" cy="1247.4" r="6.5"/>
		</g>
		<g class="st1">
			<circle cx="258.6" cy="1247.4" r="6.5"/>
		</g>
		<g class="st1">
			<circle cx="291" cy="1247.4" r="6.5"/>
		</g>
		<g class="st1">
			<circle cx="323.5" cy="1247.4" r="6.5"/>
		</g>
		<g class="st1">
			<circle cx="355.9" cy="1247.4" r="6.5"/>
		</g>
		<g class="st1">
			<circle cx="388.4" cy="1247.4" r="6.5"/>
		</g>
		<g class="st1">
			<circle cx="139.8" cy="1264.5" r="6.5"/>
		</g>
		<g class="st1">
			<circle cx="172.3" cy="1264.5" r="6.5"/>
		</g>
		<g class="st1">
			<circle cx="204.7" cy="1264.5" r="6.5"/>
		</g>
		<g class="st1">
			<circle cx="237.2" cy="1264.5" r="6.5"/>
		</g>
		<g class="st1">
			<circle cx="269.6" cy="1264.5" r="6.5"/>
		</g>
		<g class="st1">
			<circle cx="302.1" cy="1264.5" r="6.5"/>
		</g>
		<g class="st1">
			<circle cx="334.5" cy="1264.5" r="6.5"/>
		</g>
		<g class="st1">
			<circle cx="367" cy="1264.5" r="6.5"/>
		</g>
		<g class="st1">
			<circle cx="160.9" cy="1279.3" r="6.5"/>
		</g>
		<g class="st1">
			<circle cx="193.4" cy="1279.3" r="6.5"/>
		</g>
		<g class="st1">
			<circle cx="225.8" cy="1279.3" r="6.5"/>
		</g>
		<g class="st1">
			<circle cx="258.3" cy="1279.3" r="6.5"/>
		</g>
		<g class="st1">
			<circle cx="290.7" cy="1279.3" r="6.5"/>
		</g>
		<g class="st1">
			<circle cx="323.2" cy="1279.3" r="6.5"/>
		</g>
		<g class="st1">
			<circle cx="355.6" cy="1279.3" r="6.5"/>
		</g>
		<g class="st1">
			<circle cx="388.1" cy="1279.3" r="6.5"/>
		</g>
		<g class="st1">
			<circle cx="139.5" cy="1296.4" r="6.5"/>
		</g>
		<g class="st1">
			<circle cx="172" cy="1296.4" r="6.5"/>
		</g>
		<g class="st1">
			<circle cx="204.4" cy="1296.4" r="6.5"/>
		</g>
		<g class="st1">
			<circle cx="236.9" cy="1296.4" r="6.5"/>
		</g>
		<g class="st1">
			<circle cx="269.3" cy="1296.4" r="6.5"/>
		</g>
		<g class="st1">
			<circle cx="301.8" cy="1296.4" r="6.5"/>
		</g>
		<g class="st1">
			<circle cx="334.2" cy="1296.4" r="6.5"/>
		</g>
		<g class="st1">
			<circle cx="366.7" cy="1296.4" r="6.5"/>
		</g>
		<g class="st1">
			<circle cx="188" cy="1309.8" r="6.5"/>
		</g>
		<g class="st1">
			<circle cx="220.4" cy="1309.8" r="6.5"/>
		</g>
		<g class="st1">
			<circle cx="252.9" cy="1309.8" r="6.5"/>
		</g>
		<g class="st1">
			<circle cx="285.3" cy="1309.8" r="6.5"/>
		</g>
		<g class="st1">
			<circle cx="317.8" cy="1309.8" r="6.5"/>
		</g>
		<g class="st1">
			<circle cx="350.2" cy="1309.8" r="6.5"/>
		</g>
		<g class="st1">
			<circle cx="382.7" cy="1309.8" r="6.5"/>
		</g>
		<g class="st1">
			<circle cx="415.1" cy="1309.8" r="6.5"/>
		</g>
		<g class="st1">
			<circle cx="166.6" cy="1326.9" r="6.5"/>
		</g>
		<g class="st1">
			<circle cx="199" cy="1326.9" r="6.5"/>
		</g>
		<g class="st1">
			<circle cx="231.5" cy="1326.9" r="6.5"/>
		</g>
		<g class="st1">
			<circle cx="263.9" cy="1326.9" r="6.5"/>
		</g>
		<g class="st1">
			<circle cx="296.4" cy="1326.9" r="6.5"/>
		</g>
		<g class="st1">
			<circle cx="328.8" cy="1326.9" r="6.5"/>
		</g>
		<g class="st1">
			<circle cx="361.3" cy="1326.9" r="6.5"/>
		</g>
		<g class="st1">
			<circle cx="393.7" cy="1326.9" r="6.5"/>
		</g>
	</g>
	<g>
		<path class="st0" d="M385,769.4l81.5,184.9L353.6,736.9c0,0,10,3.6,15.1,11.4C373.8,756.1,385,769.4,385,769.4z"/>
	</g>
	<g>
		<path class="st0" d="M465,972.9c-1.2,9.4-18.9,37.4-4.5,37.4s14.8-5.7,9.9-26.3C465.4,963.4,465,972.9,465,972.9z"/>
	</g>
	<g>
		<path class="st0" d="M470.7,1052.4c-1.3,6.4-28,49.7-12.7,49.7s20.4-8.9,17.8-22.9C473.2,1065.1,470.7,1052.4,470.7,1052.4z"/>
	</g>
	<g>
		<path class="st0" d="M508.5,1018.1c0,0-11.7,44.6,0,40.7c11.7-3.9,7.8-17.2,5.5-26.6S508.5,1018.1,508.5,1018.1z"/>
	</g>
</g>
</svg>
