<?xml version="1.0" encoding="utf-8"?>
<!-- Generator: Adobe Illustrator 22.0.1, SVG Export Plug-In . SVG Version: 6.00 Build 0)  -->
<svg version="1.1" id="Layer_1" xmlns="http://www.w3.org/2000/svg" xmlns:xlink="http://www.w3.org/1999/xlink" x="0px" y="0px"
	 viewBox="0 0 1928.2 2826.3" style="enable-background:new 0 0 1928.2 2826.3;" xml:space="preserve">
<style type="text/css">
	.st0{opacity:0.5;}
	.st1{fill:#00A066;}
	.st2{fill:#00FFAA;}
	.st3{opacity:0.5;fill:#00A066;}
	.st4{fill:#00BA7C;}
	.st5{fill:none;stroke:#000000;stroke-width:30;stroke-miterlimit:10;}
	.st6{fill:#877700;}
	.st7{fill:#FFE600;}
</style>
<g class="st0">
	<path class="st1" d="M1413.4,1159.2c-28.4-29.3-72.8-34.7-113.6-37.1c-131-7.7-262.8-1.5-392.4,18.4c-14.2,2.2-28.8,4.7-41.2,12
		c-12.4,7.4-22.3,20.7-21.3,35.1c21.7,5.4,44.1-3.4,66-8.2c23.8-5.2,48.3-5.7,72.7-6.2c98.3-1.9,196.6-3.8,295-5.7
		c32.9-0.6,66.8-1.1,97.4,10.8c7.8,3,15.5,6.9,23.8,7.8s17.8-1.9,21.8-9.3s-1-18.8-9.4-18.5"/>
</g>
<g class="st0">
	<path class="st1" d="M1433.8,1205.5c8.9-3.6,19.8-1.6,27,4.8c10.8,9.6,11.5,27.1,5.1,40c-6.4,12.9-18.5,22.2-30.8,29.7
		c-47.5,28.9-103.8,39.2-159,46.3c-123.3,15.9-252.9,17.9-367.1-31.3c-25.1-10.8-52-27.7-56.3-54.7c-0.5-3-0.6-6.3,0.8-9
		c2.1-3.8,6.7-5.4,10.9-6.5c65.3-16.9,133.8,2,200.4,12.8c126.2,20.6,257.1,11.9,379.4-25.3"/>
</g>
<path class="st2" d="M1827.6,894.1c0,0,84.2,203.1-125.9,509.5s-222.1,653.5-222.1,755.5s54,594,54,594l84-6c0,0-66-636-12-816
	s282-551,282-653s12-290,12-290L1827.6,894.1z"/>
<path class="st2" d="M999.6,711.1l-11.2-404l-22.5-120c0,0-11.2,280-11.2,340s-16.9,216-16.9,216L999.6,711.1z"/>
<path class="st2" d="M1901.6,527.1c0,0-184,288-236,312c0,0,104,8,144-48S1901.6,527.1,1901.6,527.1z"/>
<path class="st2" d="M1448.2,795.8l108-193.5l63-179.7l-4-69c0,0-73,232-105,289s-71,122-71,122L1448.2,795.8z"/>
<path class="st3" d="M689.6,650.8c0,0,17,107.1,118,94.8s168.5-62.7,168.5-62.7s78,136.9,126,142.2c48,5.3,200.5-319.8,200.5-319.8
	s3.5,298.8,45.5,293.5s78,31.6,96,42.1s77.6-10.4,77.6-10.4s23.6,58,60,57.9c36.4-0.1,227.9-97.1,227.9-97.1l90,197.4l-405,14.9
	l-86.5-89.1l-138.5,75.9l-36-65.8l-128,126.6l-157-200.3l-165,150.3L633.9,830.4L689.6,650.8z"/>
<path class="st4" d="M1812.6,419.1c0,0-177,72-201,171s-87,363-87,363l-6-273l42-87l60-90l48-54l84-33L1812.6,419.1z"/>
<path class="st4" d="M1557.6,239.1c0,0-117-30-177,255s-75,402-75,402s0-213-3-279s6-177,9-192s114-162,114-162l81-42L1557.6,239.1z
	"/>
<path class="st4" d="M1227.6,78.1c0,0-84,126-120,282c-25.8,111.6-63.8,315.3-83.4,422.3c-2.1,11.7-19.1,11-20.3-0.7l-40.3,4.5
	l33-312c0,0,78.3-251.5,117-330C1145.6,79.1,1227.6,78.1,1227.6,78.1z"/>
<path class="st4" d="M867.6,12.1c0,0-108,72-108,270s6.3,467.7,6.3,467.7l-78,42l-36-42l41.7-389.7c0,0,36-300,84-324
	S867.6,12.1,867.6,12.1z"/>
<path class="st4" d="M225.6,804.1c0,0,42.6,317.9,186,486c120.4,141.1,316.8,215.8,362,261c124,124,204,388,168,544
	s-49.7,688.3-49.7,688.3l-466.3-128.3c0,0,334-496,286-682s12-245-150-407s-462-366-426-444S225.6,804.1,225.6,804.1z"/>
<path d="M1292.6,941.1c0,0-52-320,89-283s71.2,144.8,40,178C1393.2,866.4,1292.6,941.1,1292.6,941.1z"/>
<path d="M1521.7,956.5c0,0-32.9-131.8,27.3-219.2c60.2-87.5,164.9-26.7,146.5,45.4C1654.6,942.9,1521.7,956.5,1521.7,956.5z"/>
<path class="st5" d="M996.6,474.1"/>
<path class="st5" d="M903.7,691.5"/>
<path d="M789.2,961.1c0,0-105.3-306.2-31.5-371.4s131.4-20.9,143.3,13c23.4,66.9,28.2,86.9-2.2,200.9
	C884.5,857.4,789.2,961.1,789.2,961.1z"/>
<g>
	<g>
		<path class="st4" d="M577.3,1071.5c95,25.5,183.2,71,260,132.4c18.8,15,37.6,30.5,58.8,42.1c22.1,12.1,46.2,18.5,71,22.3
			c12.7,1.9,25.4,3.3,38.2,4.7c11.2,1.3,22.9,2.1,33.9,4.6c11.8,2.7,22.9,9.7,33.3,15.7c15,8.8,29.6,18.4,43.8,28.5
			c5.5,3.9,11,7.8,16.3,12c0.5,0.4,3,2.3,4.2,3.4c1,0.9,2.4,2.9,1.3,1c3.8,6.7,14.1,0.7,10.4-6.1c-1.3-2.4-4.1-4.2-6.2-5.9
			c-4.3-3.4-8.6-6.6-13-9.8c-12.4-9-25.2-17.6-38.2-25.8c-12.6-7.9-25.5-15.7-39.3-21.4c-6-2.5-11.7-3.7-18.1-4.7
			c-12.7-1.9-25.4-3.3-38.2-4.7c-25.1-2.9-50.5-6.2-74.3-15.3c-23.3-9-43.7-24.1-63.1-39.5c-19.5-15.4-38.8-30.9-59.3-44.9
			c-20.5-14.1-41.8-27.1-63.7-38.9c-48.9-26.4-100.8-47-154.4-61.4C573.1,1057.9,569.9,1069.5,577.3,1071.5L577.3,1071.5z"/>
	</g>
</g>
<g>
	<g>
		<path class="st4" d="M1843,1302.2c-63.5-23.8-128.3-45.4-195.6-55.8c-68.7-10.6-138.7-11.5-208-14.7c-40.3-1.9-80.5-3.7-120.8-5.6
			c-6.7-0.3-8.3,10.4-1.6,11.8c63.9,12.9,117.4,52.1,170.4,87.8c26.7,18,53.8,35.5,83,49.3c14.4,6.8,29.2,12.6,44.5,17
			c16.7,4.8,33.9,7.5,51.2,9.6c39.5,4.9,81.4,6.5,116.1,28.3c6.6,4.1,12.6-6.3,6.1-10.4c-30.7-19.3-67-23.7-102.3-27.7
			c-18.2-2-36.4-4-54.3-8c-15.5-3.5-30.7-8.5-45.3-14.8c-60-25.8-110.4-68.6-166.3-101.6c-31.1-18.4-64.4-33.9-100-41.1
			c-0.5,3.9-1.1,7.9-1.6,11.8c70.3,3.3,140.7,6.4,211,9.8c34.4,1.7,68.9,3.7,103,8.4c33.4,4.6,66.4,11.9,98.8,21.1
			c36.6,10.4,72.6,23,108.3,36.4C1847.1,1316.4,1850.2,1304.8,1843,1302.2L1843,1302.2z"/>
	</g>
</g>
<g>
	<g>
		<path d="M249.3,1029.4c-65.6-7.5-137-14.4-199.8,10.9c-17.3,6.9-33.2,16.2-47.6,27.9c-4.2,3.4-0.6,10.3,4.2,10.2
			c82.8-0.5,165.7-1,248.5-1.5c-0.5-3.9-1.1-7.9-1.6-11.8c-62.2,25.5-120.2,59.9-172.4,102.3c-6,4.9,2.5,13.3,8.5,8.5
			c50.5-41,107-74.5,167.2-99.2c5.9-2.4,5.7-11.8-1.6-11.8c-82.8,0.5-165.7,1-248.5,1.5c1.4,3.4,2.8,6.8,4.2,10.2
			c51.1-41.3,120.4-44.6,183.1-40.5c18.7,1.2,37.2,3.1,55.8,5.3C256.9,1042.3,256.9,1030.3,249.3,1029.4L249.3,1029.4z"/>
	</g>
</g>
<g>
	<g>
		<path d="M903.9,192.2c-45.7-4.9-92.1,3.7-133.1,24.4c-5.4,2.7-2.7,11.3,3,11.2c65.6-1.3,131.3-0.2,196.8,3.2
			c-0.5-3.9-1.1-7.9-1.6-11.8c-52.5,11.6-103.6,28.3-152.9,49.6c-7.1,3.1-1,13.4,6.1,10.4c48.3-20.9,98.6-37,150-48.4
			c6.9-1.5,4.9-11.4-1.6-11.8c-65.5-3.4-131.2-4.5-196.8-3.2c1,3.7,2,7.5,3,11.2c39.2-19.7,83.5-27.4,127.1-22.7
			C911.5,205,911.5,193,903.9,192.2L903.9,192.2z"/>
	</g>
</g>
<g>
	<g>
		<path d="M1263.7,241c-49.7-5-99.8-2.4-148.8,7.4c-7.1,1.4-4.7,11.2,1.6,11.8c54.7,5.5,109.4,11.1,164.1,16.6c0-4,0-8,0-12
			c-58.9,7.5-117.4,18.4-175.1,32.6c-7.5,1.8-4.3,13.4,3.2,11.6c56.6-14,114-24.8,171.9-32.2c7.6-1,7.8-11.2,0-12
			c-54.7-5.5-109.4-11.1-164.1-16.6c0.5,3.9,1.1,7.9,1.6,11.8c47.9-9.6,97-11.8,145.6-6.9C1271.4,253.8,1271.3,241.8,1263.7,241
			L1263.7,241z"/>
	</g>
</g>
<g>
	<g>
		<path d="M1545.8,365.9c-43.1,0.2-86.3,0.3-129.4,0.5c0,4,0,8,0,12c76-2.8,152,8.4,224,33.2c0.5-3.9,1.1-7.9,1.6-11.8
			c-75.8-1.5-151.6,8.6-224.3,29.8c-7.4,2.2-4.3,13.7,3.2,11.6c71.8-21,146.4-30.9,221.2-29.4c7,0.1,7.8-9.7,1.6-11.8
			c-72.9-25-150.2-36.5-227.2-33.6c-7.7,0.3-7.8,12,0,12c43.1-0.2,86.3-0.3,129.4-0.5C1553.5,377.9,1553.5,365.9,1545.8,365.9
			L1545.8,365.9z"/>
	</g>
</g>
<g>
	<g>
		<path d="M1846.3,580.4c-35.7-27.6-86-31.9-125.6-10.1c-4.2,2.3-3.8,10.1,1.4,11c33.8,5.6,65,21.7,89.1,46.2
			c2.8-2.8,5.7-5.7,8.5-8.5c-41.8-33.2-94.8-50.6-148.1-48.1c-7.7,0.4-7.7,12.4,0,12c50-2.4,100.3,13.4,139.6,44.5
			c5.9,4.7,14-2.8,8.5-8.5c-25.4-25.8-58.6-43.3-94.4-49.3c0.5,3.7,1,7.3,1.4,11c34.4-19,79.8-16,111.1,8.2c2.6,2,6,2.5,8.5,0
			C1848.3,586.8,1848.8,582.4,1846.3,580.4L1846.3,580.4z"/>
	</g>
</g>
<path class="st2" d="M1169.6,851.1c0,0,49-246,82-333c29.8-78.5,42-291,42-291l7.7,285.8c0.2,6.8-1,13.5-3.5,19.7L1169.6,851.1z"/>
<path d="M1099,640.1c-45.1-0.2-75.2,27.7-87.1,157.9c-5.4,58.4,96,214.1,96,214.1s52-60.6,105.4-188S1153.1,640.4,1099,640.1z"/>
<path class="st2" d="M585.6,363.1c0,0,8,120,4,244s-72,404-72,404l36,12c0,0,100-396,80-464S585.6,363.1,585.6,363.1z"/>
<path class="st6" d="M850,1178.1c46.2-31,157.7-52.8,287.9-52.8c129.7,0,240.8,21.7,287.3,52.5c14.7-9.8,22.7-20.6,22.7-31.9
	c0-46.8-139.1-84.7-310.6-84.7s-310.6,37.9-310.6,84.7C826.6,1157.3,835,1168.2,850,1178.1z"/>
<path class="st7" d="M828.4,1199l-1.2-52.7c0,38.8,139.7,69.7,311.2,69.7s310.6-31.4,310.6-70.2l0.6,53.1v3.9v9.8
	c0,38.8-139.1,70.2-310.6,70.2s-310.6-31.4-310.6-70.2V1199z"/>
<path class="st5" d="M425.6,2655.1c0,0,312-456,296-632s-16-312-144-424s-448-360-440-504s264-600,320-712s136-32,136-32
	s56,272,32,392s-64,288-64,288l128-360c0,0,8-320,16-416s48-232,160-240s131,313,131,459c0,0,101-419,213-403s101,185,104,368
	c0,0,104-256,240-200s40,296,40,296s136-184,272-112s-64,328-56,408s152,144,64,424s-296,568-296,744s48,744,48,744s-440,88-648,64
	S425.6,2655.1,425.6,2655.1z"/>
<path d="M496.6,232.1c0,0,85,230,0,367s-202-45-202-45L496.6,232.1z"/>
</svg>
