<?xml version="1.0" encoding="utf-8"?>
<!-- Generator: Adobe Illustrator 22.0.1, SVG Export Plug-In . SVG Version: 6.00 Build 0)  -->
<svg version="1.1" xmlns="http://www.w3.org/2000/svg" xmlns:xlink="http://www.w3.org/1999/xlink" x="0px" y="0px"
	 viewBox="0 0 1962.7 3094.3" style="enable-background:new 0 0 1962.7 3094.3;" xml:space="preserve">
<style type="text/css">
	.st0{fill:#795EFF;}
	.st1{opacity:0.3;}
</style>
<g id="Layer_1">
</g>
<g id="Layer_2">
	<g>
		<path class="st0" d="M359.7,2718c14.8-24.9,29.7-49.8,44.5-74.6c15.9-26.7,37.4-55.1,37.4-87.6c-0.1-39.3-36.5-76.4-77.1-64.2
			c-30.2,9-49.1,39.5-60.8,66.9c-13.2,30.9-20.5,63.8-18.5,97.5c0.5,8.3,2.7,15.5,7.8,22.1c4.4,5.7,11.5,11.9,19,13.1
			c20.2,3.2,40.2,3.3,60.1-2.5c19.1-5.6,36.3-15.4,51.1-28.7c27.4-24.4,43.1-63.6,40.7-100.1c-0.6-9.7-3.6-18.8-10.7-25.8
			c-6.3-6.3-16.7-11.1-25.8-10.7c-18.7,0.8-37.8,16.1-36.5,36.5c0.4,6.3,0.2,12.6-0.7,18.9c0.4-3.2,0.9-6.5,1.3-9.7
			c-1.2,7.9-3.3,15.4-6.3,22.8c1.2-2.9,2.5-5.8,3.7-8.7c-3.1,7.3-7,14.1-11.8,20.5c1.9-2.5,3.8-4.9,5.7-7.4
			c-4.6,5.9-9.7,11.1-15.5,15.7c2.5-1.9,4.9-3.8,7.4-5.7c-6.3,4.8-13.1,8.8-20.4,12c2.9-1.2,5.8-2.5,8.7-3.7
			c-7.8,3.3-15.9,5.5-24.3,6.7c3.2-0.4,6.5-0.9,9.7-1.3c-7.9,1-15.7,1-23.6,0.1c3.2,0.4,6.5,0.9,9.7,1.3c-1-0.1-2.1-0.3-3.1-0.5
			c8.9,11.7,17.9,23.5,26.8,35.2c-0.7-11.4-0.3-22.7,1.2-34c-0.4,3.2-0.9,6.5-1.3,9.7c2.1-15.2,6.1-30.1,12-44.3
			c-1.2,2.9-2.5,5.8-3.7,8.7c5.4-12.9,12.2-25.3,20.7-36.4c-1.9,2.5-3.8,4.9-5.7,7.4c2.9-3.6,6-6.9,9.6-9.8
			c-2.5,1.9-4.9,3.8-7.4,5.7c2-1.5,4-2.7,6.3-3.7c-2.9,1.2-5.8,2.5-8.7,3.7c1.8-0.7,3.6-1.3,5.5-1.6c-3.2,0.4-6.5,0.9-9.7,1.3
			c1.9-0.2,3.7-0.3,5.5-0.1c-3.2-0.4-6.5-0.9-9.7-1.3c2.1,0.3,4.1,0.9,6.1,1.7c-2.9-1.2-5.8-2.5-8.7-3.7c1.5,0.8,2.9,1.6,4.3,2.6
			c-2.5-1.9-4.9-3.8-7.4-5.7c2.1,1.6,3.8,3.5,5.5,5.5c-1.9-2.5-3.8-4.9-5.7-7.4c1.6,2.2,2.9,4.5,4,6.9c-1.2-2.9-2.5-5.8-3.7-8.7
			c1.2,3,2,5.9,2.5,9.1c-0.4-3.2-0.9-6.5-1.3-9.7c0.3,3.1,0.2,6.1-0.1,9.2c0.4-3.2,0.9-6.5,1.3-9.7c-0.8,5.2-2.2,10.1-4.2,14.9
			c1.2-2.9,2.5-5.8,3.7-8.7c-4.4,10.3-10.5,19.9-16.3,29.5c-6.2,10.5-12.5,20.9-18.7,31.4c-12.5,20.9-25,41.8-37.5,62.8
			c-9.8,16.4-4.2,40.8,13.1,49.9C327.4,2740.5,349.3,2735.6,359.7,2718L359.7,2718z"/>
	</g>
	<g>
		<path class="st0" d="M1066.8,3069.8c18.2-34.8,25-73,26.6-111.9c0.7-16.6,0.5-33.3,0.1-49.9c-0.4-21.2-1.6-44.7-14.1-62.8
			c-6.9-9.9-15.3-19.3-26.3-24.6c-13.8-6.7-27.9-8.7-42.9-5.5c-18.8,4.1-35,19.2-43.4,36.1c-8.9,17.9-12,35.7-13.6,55.5
			c-1.6,18.6-1.5,37.4,0.2,56.1c4,43.5,12.3,92.4,52.5,117.5c16.2,10.1,40.9,4,49.9-13.1c9.5-17.9,4.2-39.1-13.1-49.9
			c-1.6-1-3.2-2.1-4.7-3.2c2.5,1.9,4.9,3.8,7.4,5.7c-3.3-2.7-6.2-5.7-8.8-9c1.9,2.5,3.8,4.9,5.7,7.4c-3.7-5-6.7-10.5-9.1-16.2
			c1.2,2.9,2.5,5.8,3.7,8.7c-5.7-14-8.3-29.1-10.3-44c0.4,3.2,0.9,6.5,1.3,9.7c-3.5-27-4.1-54.7-0.5-81.6c-0.4,3.2-0.9,6.5-1.3,9.7
			c1.1-7.4,2.9-14.5,5.8-21.4c-1.2,2.9-2.5,5.8-3.7,8.7c1.9-4.3,4.1-8.3,6.9-12c-1.9,2.5-3.8,4.9-5.7,7.4c1.7-2.2,3.6-4.1,5.7-5.9
			c-2.5,1.9-4.9,3.8-7.4,5.7c1.8-1.4,3.7-2.5,5.8-3.5c-2.9,1.2-5.8,2.5-8.7,3.7c2.2-0.9,4.3-1.5,6.6-1.8c-3.2,0.4-6.5,0.9-9.7,1.3
			c2.2-0.2,4.3-0.2,6.4,0.1c-3.2-0.4-6.5-0.9-9.7-1.3c1.9,0.3,3.6,0.8,5.4,1.5c-2.9-1.2-5.8-2.5-8.7-3.7c2.6,1.1,5,2.5,7.2,4.2
			c-2.5-1.9-4.9-3.8-7.4-5.7c2.2,1.8,4.2,3.8,6,6.1c-1.9-2.5-3.8-4.9-5.7-7.4c2,2.7,3.7,5.5,5.1,8.6c-1.2-2.9-2.5-5.8-3.7-8.7
			c2,5,3.2,10,4,15.3c-0.4-3.2-0.9-6.5-1.3-9.7c2.1,16.8,1.6,34.2,1.6,51c-0.1,16.9-0.8,33.8-2.9,50.6c0.4-3.2,0.9-6.5,1.3-9.7
			c-2.4,17.7-6.5,35-13.3,51.5c1.2-2.9,2.5-5.8,3.7-8.7c-1.8,4.2-3.8,8.4-5.9,12.5c-4.5,8.6-6.3,18.6-3.7,28.1
			c2.3,8.5,8.9,17.6,16.8,21.8C1033.6,3091.7,1057.3,3087.8,1066.8,3069.8L1066.8,3069.8z"/>
	</g>
	<g>
		<path class="st0" d="M687,3030.4c20.7-19.6,32.9-47.3,37.7-75c5.3-30.2,3.9-60.9,8-91.2c-0.4,3.2-0.9,6.5-1.3,9.7
			c3-21.2,8-42.3,2.3-63.6c-7.5-28-33.3-47.4-62.3-47.2c-51.8,0.3-79.6,51.7-91.9,95.4c-11.3,40.1-13.2,87.3,4.5,125.7
			c8.6,18.7,26.4,36.5,47.3,40.1c15.3,2.7,30.1,1.1,43.8-6.7c10.5-5.9,18.7-15.1,25.1-25.2c13-20.3,16.5-46.3,17.2-69.8
			c0.5-18.1-0.8-37.7-14.2-51.3c-6.6-6.8-14.4-11-23.5-13.8c-4.3-1.3-8.8-1.6-12.9-3.3c2.9,1.2,5.8,2.5,8.7,3.7
			c-1.3-0.7-2.5-1.4-3.7-2.3c2.5,1.9,4.9,3.8,7.4,5.7c-0.7-0.6-1.4-1.3-2-2c1.9,2.5,3.8,4.9,5.7,7.4c-0.6-0.7-1-1.4-1.4-2.2
			c1.2,2.9,2.5,5.8,3.7,8.7c-0.4-0.8-0.6-1.6-0.7-2.4c0.4,3.2,0.9,6.5,1.3,9.7c0-0.4,0-0.8,0-1.2c-0.4,3.2-0.9,6.5-1.3,9.7
			c0.1-0.4,0.2-0.8,0.2-1.2c-1.2,2.9-2.5,5.8-3.7,8.7c0.2-0.4,0.3-0.8,0.5-1.2c4-9.4,6.5-17.8,3.7-28.1c-2.3-8.5-8.9-17.6-16.8-21.8
			c-8.5-4.5-18.7-6.7-28.1-3.7c-8.4,2.7-18.2,8.3-21.8,16.8c-3.3,7.8-5.6,12.2-5.7,20.9c-0.1,4.5,0.7,9,2,13.3
			c3.4,11.2,10.8,19.4,20.2,26c4.9,3.4,10.6,5.9,16.4,7.3c3.6,0.9,7.3,1.4,10.8,2.7c-2.9-1.2-5.8-2.5-8.7-3.7
			c1.3,0.6,2.3,1.1,3.5,1.9c-2.5-1.9-4.9-3.8-7.4-5.7c0.7,0.5,1.4,1.2,1.9,1.8c-1.9-2.5-3.8-4.9-5.7-7.4c0.7,0.8,1.2,1.7,1.7,2.7
			c-1.2-2.9-2.5-5.8-3.7-8.7c0.6,1.5,1,3,1.3,4.6c-0.4-3.2-0.9-6.5-1.3-9.7c1.6,11.6,0.7,23.9-0.8,35.5c0.4-3.2,0.9-6.5,1.3-9.7
			c-1.2,8.6-2.9,17-6.2,25.1c1.2-2.9,2.5-5.8,3.7-8.7c-2,4.6-4.3,8.9-7.3,12.8c1.9-2.5,3.8-4.9,5.7-7.4c-1.9,2.3-3.9,4.4-6.3,6.3
			c2.5-1.9,4.9-3.8,7.4-5.7c-1.7,1.2-3.4,2.3-5.3,3.2c2.9-1.2,5.8-2.5,8.7-3.7c-2.4,1-4.7,1.6-7.2,2c3.2-0.4,6.5-0.9,9.7-1.3
			c-2.1,0.2-4.1,0.2-6.3-0.1c3.2,0.4,6.5,0.9,9.7,1.3c-2-0.3-3.8-0.8-5.7-1.5c2.9,1.2,5.8,2.5,8.7,3.7c-2.2-0.9-4.2-2.1-6.1-3.5
			c2.5,1.9,4.9,3.8,7.4,5.7c-2.6-2.1-4.9-4.4-6.9-7c1.9,2.5,3.8,4.9,5.7,7.4c-2.9-3.9-5.3-8.1-7.2-12.5c1.2,2.9,2.5,5.8,3.7,8.7
			c-2.8-6.8-4.6-13.8-5.6-21c0.4,3.2,0.9,6.5,1.3,9.7c-2.1-16.4-2.1-32.9,0-49.4c-0.4,3.2-0.9,6.5-1.3,9.7
			c2.3-16.4,6.6-32.4,13-47.6c-1.2,2.9-2.5,5.8-3.7,8.7c4.2-9.7,8.9-19.3,15.3-27.8c-1.9,2.5-3.8,4.9-5.7,7.4
			c3-3.8,6.2-7.3,9.9-10.3c-2.5,1.9-4.9,3.8-7.4,5.7c2.9-2.2,5.8-4.1,9.1-5.6c-2.9,1.2-5.8,2.5-8.7,3.7c3.2-1.3,6.3-2.3,9.7-2.8
			c-3.2,0.4-6.5,0.9-9.7,1.3c3.4-0.4,6.6-0.5,10-0.1c-3.2-0.4-6.5-0.9-9.7-1.3c2.3,0.4,4.5,1,6.8,1.8c-2.9-1.2-5.8-2.5-8.7-3.7
			c2.2,1,4.1,2.1,6,3.5c-2.5-1.9-4.9-3.8-7.4-5.7c1.4,1.2,2.7,2.5,4,3.9c-1.9-2.5-3.8-4.9-5.7-7.4c1.7,2.2,3,4.4,4,6.9
			c-1.2-2.9-2.5-5.8-3.7-8.7c1.1,3,1.9,6,2.3,9.2c-0.4-3.2-0.9-6.5-1.3-9.7c0.8,7.3,0.2,14.6-0.7,21.8c0.4-3.2,0.9-6.5,1.3-9.7
			c-2.5,17.6-5.3,35.1-6.3,52.9c-0.9,16.3-1.2,32.7-3.4,49c0.4-3.2,0.9-6.5,1.3-9.7c-1.7,12.2-4.5,24.1-9.2,35.5
			c1.2-2.9,2.5-5.8,3.7-8.7c-3.1,7.3-6.9,14.1-11.6,20.4c1.9-2.5,3.8-4.9,5.7-7.4c-2.6,3.3-5.4,6.4-8.5,9.3
			c-13.9,13.2-14.3,38.5,0,51.6C650.3,3044.1,672.2,3044.4,687,3030.4L687,3030.4z"/>
	</g>
	<g>
		<path class="st0" d="M56.6,2525.5c22.2-1.4,41-10.6,57-25.9c12.1-11.6,22-26.2,30.6-40.6c16.5-27.8,28.6-59.2,34-91.2
			c2.6-15.5,5.3-29.9-2.5-44.6c-6.7-12.7-20.3-21.2-34.4-23.3c-12.3-1.8-23.7-2-35.8,1.4c-8.6,2.4-17.2,6.2-24.6,11.2
			c-28.5,18.8-48.2,48.5-61.6,79.4c-7.8,18.1-14.3,36.2-17.1,55.8c-3.2,22.7-3.2,44.2,2.1,66.7c2.9,12.2,13.6,22.2,25.5,25.5
			c11.7,3.2,27.3,0.3,35.5-9.4c33.6-39.8,64.9-81.6,93.3-125.2c10.5-16,3.7-41-13.1-49.9c-18.2-9.6-38.8-4-49.9,13.1
			c-17.2,26.3-35.3,51.9-54.5,76.8c1.9-2.5,3.8-4.9,5.7-7.4c-10.7,13.9-21.8,27.6-33.1,41c20.3,5.4,40.7,10.7,61,16.1
			c-0.9-3.9-1.6-7.8-2.2-11.7c0.4,3.2,0.9,6.5,1.3,9.7c-1.5-11.8-1.4-23.7,0.1-35.5c-0.4,3.2-0.9,6.5-1.3,9.7
			c2.2-16,6.8-31.4,13.1-46.3c-1.2,2.9-2.5,5.8-3.7,8.7c6.8-15.9,15.1-31.4,25.7-45.1c-1.9,2.5-3.8,4.9-5.7,7.4
			c5.6-7,11.7-13.5,18.8-19c-2.5,1.9-4.9,3.8-7.4,5.7c4.4-3.3,9.1-6.2,14.1-8.4c-2.9,1.2-5.8,2.5-8.7,3.7c4-1.7,8.1-2.8,12.4-3.5
			c-3.2,0.4-6.5,0.9-9.7,1.3c3.4-0.4,6.7-0.4,10.1-0.1c-3.2-0.4-6.5-0.9-9.7-1.3c2.5,0.3,4.9,0.8,7.3,1.7c-2.9-1.2-5.8-2.5-8.7-3.7
			c0.9,0.4,1.8,0.8,2.6,1.4c-2.5-1.9-4.9-3.8-7.4-5.7c0.4,0.3,0.7,0.6,1.1,1c-1.9-2.5-3.8-4.9-5.7-7.4c0.7,0.7,1.2,1.5,1.5,2.4
			c-1.2-2.9-2.5-5.8-3.7-8.7c0.1,0.5,0.2,0.9,0.4,1.4c-0.4-3.2-0.9-6.5-1.3-9.7c0.3,2.5,0,4.9-0.3,7.5c0.4-3.2,0.9-6.5,1.3-9.7
			c-3,21-8.6,41.4-16.8,61c1.2-2.9,2.5-5.8,3.7-8.7c-7.6,17.7-17.1,34.6-28.7,50c1.9-2.5,3.8-4.9,5.7-7.4
			c-5.1,6.6-10.7,12.7-17.3,17.8c2.5-1.9,4.9-3.8,7.4-5.7c-3.7,2.7-7.5,5-11.7,6.8c2.9-1.2,5.8-2.5,8.7-3.7c-3.3,1.3-6.5,2.2-10,2.7
			c3.2-0.4,6.5-0.9,9.7-1.3c-1,0.1-2,0.2-3,0.3c-9.7,0.6-18.8,3.7-25.8,10.7c-6.3,6.3-11.1,16.7-10.7,25.8
			C21,2507.7,36.2,2526.8,56.6,2525.5L56.6,2525.5z"/>
	</g>
	<g>
		<path class="st0" d="M1422.5,2416.1c39.9-9.2,71.7-39.3,99.7-67.4c28.1-28.2,53.4-59.3,76-92.1c5.3-7.7,10.8-15.5,15.4-23.7
			c9.1-15.8,12.5-34,5.3-51.3c-13-30.8-53.3-39.1-79.9-20.6c-17.6,12.3-30.3,31-44,47.3c-12.5,14.9-25.1,29.7-37.4,44.9
			c-27.6,34.1-55.1,72.1-61.2,116.7c-1.4,10.2-1.7,18.9,3.7,28.1c4.4,7.6,13.1,14.8,21.8,16.8c9.3,2.1,19.8,1.7,28.1-3.7
			c7.4-4.8,15.5-12.7,16.8-21.8c1.6-12,5-23.6,9.6-34.7c-1.2,2.9-2.5,5.8-3.7,8.7c8.5-20,20.7-38.1,33.9-55.3
			c-1.9,2.5-3.8,4.9-5.7,7.4c12.7-16.3,26.2-32.1,39.5-47.9c7.1-8.5,14.3-17.1,21.4-25.6c6.4-7.7,12.5-16.1,20.2-22.5
			c-2.5,1.9-4.9,3.8-7.4,5.7c2.1-1.6,4.2-2.9,6.5-4.1c-2.9,1.2-5.8,2.5-8.7,3.7c2.1-0.9,4.1-1.4,6.3-1.7c-3.2,0.4-6.5,0.9-9.7,1.3
			c1.7-0.1,3.3-0.1,5,0.1c-3.2-0.4-6.5-0.9-9.7-1.3c1.7,0.3,3.2,0.7,4.7,1.4c-2.9-1.2-5.8-2.5-8.7-3.7c1.1,0.6,2.1,1.1,3.1,1.9
			c-2.5-1.9-4.9-3.8-7.4-5.7c0.9,0.8,1.7,1.6,2.5,2.6c-1.9-2.5-3.8-4.9-5.7-7.4c0.5,0.7,0.9,1.4,1.2,2.1c-1.2-2.9-2.5-5.8-3.7-8.7
			c0.4,1,0.7,2,0.9,3.1c-0.4-3.2-0.9-6.5-1.3-9.7c0.2,1.7,0.1,3.1,0,4.8c0.4-3.2,0.9-6.5,1.3-9.7c-0.4,2.2-1.1,4.3-2,6.3
			c1.2-2.9,2.5-5.8,3.7-8.7c-4.7,10-11.6,19.2-17.8,28.2c-6.4,9.3-13,18.4-19.9,27.3c1.9-2.5,3.8-4.9,5.7-7.4
			c-26.3,33.9-56,67-90,93.3c2.5-1.9,4.9-3.8,7.4-5.7c-8.8,6.7-18.1,12.6-28.3,17.1c2.9-1.2,5.8-2.5,8.7-3.7
			c-5.1,2.1-10.3,3.8-15.7,5c-18.6,4.3-31.4,26.7-25.5,44.9C1383.9,2410.1,1402.5,2420.7,1422.5,2416.1L1422.5,2416.1z"/>
	</g>
	<g>
		<path class="st0" d="M292.5,2714c10,20,31.5,29.9,52.8,31.6c20,1.6,39.5-7.3,53.9-20.6c13.6-12.6,21.6-29.7,28-46.7
			c5.6-15,9.8-30.6,12.8-46.4c3.5-18.4,5.8-37.2,6.4-56c0.5-16.8,0.6-35.2-5-51.1c-4-11.4-9.5-22-18.2-30.6
			c-7.9-7.8-17-12.8-27.4-16.6c-15.2-5.6-33.9-4.9-49.2-0.1c-16,5-32,14.1-42.6,27.3c-12.1,15-20.6,31.7-25.5,50.4
			c-4.3,16.4-5.9,33.4-7.8,50.1c-2,17.3-3.9,34.7-5.9,52c-1.9,16.8-4.4,34.3,1.4,50.7c7.7,21.6,25.2,39.6,48.6,43.2
			c20.4,3.1,41.4,0.2,58.3-12.5c15.3-11.4,26.9-25.9,36.1-42.6c16.2-29.6,28.4-61.9,35.2-95c3.6-17.8,6.1-36,7.1-54.1
			c1-17.4,1-37.1-9.7-51.9c-9.4-13-23-22.4-39.8-21.7c-9.6,0.4-18.9,3.8-25.8,10.7c-6.3,6.3-11.1,16.7-10.7,25.8
			c0.9,19.1,16.1,37.4,36.5,36.5c0.7-0.1,1.5-0.1,2.2,0c-3.2-0.4-6.5-0.9-9.7-1.3c0.7,0.1,1.4,0.3,2,0.5c-2.9-1.2-5.8-2.5-8.7-3.7
			c1,0.5,1.7,0.9,2.6,1.6c-2.5-1.9-4.9-3.8-7.4-5.7c0.5,0.5,1,1,1.5,1.5c-1.9-2.5-3.8-4.9-5.7-7.4c1.2,1.5,2.1,3.2,2.9,4.9
			c-1.2-2.9-2.5-5.8-3.7-8.7c1,2.8,1.7,5.5,2.1,8.5c-0.4-3.2-0.9-6.5-1.3-9.7c1.5,14.4-0.7,29.9-2.6,44.2c0.4-3.2,0.9-6.5,1.3-9.7
			c-3.8,27.3-11.1,53.9-21.8,79.3c1.2-2.9,2.5-5.8,3.7-8.7c-6.6,15.5-14,31.1-24.2,44.6c1.9-2.5,3.8-4.9,5.7-7.4
			c-3.6,4.5-7.5,8.6-12,12.2c2.5-1.9,4.9-3.8,7.4-5.7c-3.2,2.4-6.5,4.4-10.2,6c2.9-1.2,5.8-2.5,8.7-3.7c-3.4,1.4-6.9,2.3-10.5,2.8
			c3.2-0.4,6.5-0.9,9.7-1.3c-3.2,0.3-6.3,0.3-9.5,0c3.2,0.4,6.5,0.9,9.7,1.3c-3.1-0.5-6-1.2-8.9-2.4c2.9,1.2,5.8,2.5,8.7,3.7
			c-2-0.9-3.8-2-5.6-3.3c2.5,1.9,4.9,3.8,7.4,5.7c-1.7-1.4-3.2-2.9-4.6-4.7c1.9,2.5,3.8,4.9,5.7,7.4c-1.5-2.1-2.7-4.3-3.7-6.6
			c1.2,2.9,2.5,5.8,3.7,8.7c-1.1-2.9-1.8-5.8-2.2-8.9c0.4,3.2,0.9,6.5,1.3,9.7c-1.8-16,1.8-32.7,3.6-48.6c1.9-17,3.6-34.1,5.9-51.1
			c-0.4,3.2-0.9,6.5-1.3,9.7c1.9-13.9,4.5-27.7,9.7-40.8c-1.2,2.9-2.5,5.8-3.7,8.7c2.7-6.4,6-12.3,10.1-17.9
			c-1.9,2.5-3.8,4.9-5.7,7.4c2.8-3.6,5.9-6.8,9.5-9.7c-2.5,1.9-4.9,3.8-7.4,5.7c3.9-3,8-5.4,12.5-7.4c-2.9,1.2-5.8,2.5-8.7,3.7
			c4.9-2,9.8-3.4,15.1-4.1c-3.2,0.4-6.5,0.9-9.7,1.3c3.8-0.4,7.5-0.4,11.3,0c-3.2-0.4-6.5-0.9-9.7-1.3c3.3,0.5,6.4,1.2,9.5,2.4
			c-2.9-1.2-5.8-2.5-8.7-3.7c2.7,1.1,5.1,2.5,7.4,4.2c-2.5-1.9-4.9-3.8-7.4-5.7c2.4,1.9,4.5,4,6.4,6.4c-1.9-2.5-3.8-4.9-5.7-7.4
			c1.8,2.5,3.3,5.2,4.6,8c-1.2-2.9-2.5-5.8-3.7-8.7c2,4.9,3.2,9.9,3.9,15.1c-0.4-3.2-0.9-6.5-1.3-9.7c2.4,19.4,0.9,39.6-1.6,58.9
			c0.4-3.2,0.9-6.5,1.3-9.7c-3.1,23.1-8.5,46.3-17.4,67.9c1.2-2.9,2.5-5.8,3.7-8.7c-3,7-6.5,13.6-11.1,19.7c1.9-2.5,3.8-4.9,5.7-7.4
			c-2.5,3.1-5.2,5.9-8.3,8.4c2.5-1.9,4.9-3.8,7.4-5.7c-2.6,1.9-5.1,3.6-8.1,4.9c2.9-1.2,5.8-2.5,8.7-3.7c-3.2,1.3-6.3,2.1-9.7,2.6
			c3.2-0.4,6.5-0.9,9.7-1.3c-3,0.3-5.8,0.3-8.8,0c3.2,0.4,6.5,0.9,9.7,1.3c-2.9-0.4-5.5-1.1-8.2-2.2c2.9,1.2,5.8,2.5,8.7,3.7
			c-1.8-0.8-3.5-1.8-5.1-3c2.5,1.9,4.9,3.8,7.4,5.7c-1.6-1.2-2.9-2.6-4.2-4.1c1.9,2.5,3.8,4.9,5.7,7.4c-1-1.3-1.8-2.7-2.5-4.1
			c-3.9-7.9-13.5-14.5-21.8-16.8c-8.7-2.4-20.4-1.3-28.1,3.7C288.1,2675.3,283.3,2695.7,292.5,2714L292.5,2714z"/>
	</g>
	<g class="st1">
		<path class="st0" d="M810.3,135.1c-10,39-21.5,77.6-34.7,115.7c-6.3,18.3-13,36.5-20,54.5c-3.2,8.3-6.5,16.6-9.9,24.8
			c-1.9,4.7-3.8,9.4-5.8,14c-0.7,1.7-1.5,3.5-2.2,5.2c-2.3,5.5,3.3-7.8-0.3,0.7c-29.5,68.6-62.4,135.6-95.4,202.6
			c-34,68.9-67.9,137.8-98.1,208.5c-34.3,80.4-63,161.5-83.9,246.5c-20.6,83.9-40.2,168.7-54.7,253.9c-7.8,46.1-14,92.6-16.6,139.4
			c-2.4,42.9-0.9,86-4.9,128.8c-0.3,3.1-1.8,15.7-0.5,6.3c-0.8,5.6-1.7,11.3-2.8,16.9c-1.7,9.1-3.8,18-6.3,26.9
			c-2.2,8-4.7,15.9-7.5,23.8c-1.4,3.9-2.8,7.8-4.4,11.6c-0.8,2.1-1.6,4.5-2.7,6.6c2.7-5.3,2.4-5.5-0.1-0.1
			c-14.7,32.7-33.4,63.4-53.8,92.9c-41.8,60.5-90.3,116-131,177.2c-89.6,134.7-143.7,290.9-161,451.4c-2.1,19.4-3.5,38.9-4.5,58.4
			c-1.2,25.1,22.9,49.1,48,48c27-1.2,46.7-21.1,48-48c0.9-19.5,2.4-39,4.5-58.4c0.5-4.5,1-9,1.6-13.6c0.2-1.6,1.2-9.9,0.4-3.3
			c-0.8,6.2,0.1-0.3,0.2-1.4c1.5-10.3,3.1-20.6,4.9-30.8c6.7-38.4,15.8-76.5,27.2-113.8c5.7-18.7,11.9-37.2,18.7-55.5
			c3.2-8.5,6.5-17,9.9-25.5c0.7-1.8,1.5-3.6,2.2-5.4c0.6-1.4,3.8-9.1,1.3-3.3c-2.3,5.4,0.3-0.6,0.6-1.4c1.3-3,2.6-6,3.9-8.9
			c15.9-35.7,33.9-70.3,54-103.8c75.8-126.1,195.3-230,233.5-376.5c11.3-43.1,13.7-88.1,14.6-132.5c0.9-42.9,2.3-85.4,7.3-128.1
			c0.6-5.1,1.2-10.2,1.9-15.3c-1.4,10.2,1.1-7,1.4-9c1.6-10.9,3.4-21.7,5.3-32.6c3.8-21.7,8-43.3,12.4-64.9
			c8.9-42.8,18.6-85.5,28.3-128.2c18.9-82.8,40.8-164,72.3-243c3.5-8.8,7.1-17.6,10.7-26.3c1-2.5,2.1-5,3.1-7.4
			c-0.7,1.6-3.7,8.8-0.2,0.4c2.1-4.9,4.2-9.8,6.3-14.6c7.8-18,15.8-35.9,24-53.7c16-34.7,32.6-69.1,49.4-103.4
			C772.6,504.1,842.2,367,886.5,219.7c5.9-19.6,11.3-39.3,16.4-59.1c6.2-24.3-7.9-53.2-33.5-59C844.4,95.9,817,109.1,810.3,135.1
			L810.3,135.1z"/>
	</g>
	<g class="st1">
		<path class="st0" d="M1063.2,1732.5c-75.3,125.9-120.3,267.2-160,407.5c-41.9,148-82.6,296.3-123.9,444.5
			c-18.3,65.7-35.8,131.9-62.3,195c2-4.8,4-9.6,6-14.3c-16.3,38.4-35.9,75.7-61.4,108.8c3.1-4,6.3-8.1,9.4-12.1
			c-15.2,19.5-32.4,37.3-51.9,52.5c4-3.1,8.1-6.3,12.1-9.4c-16.7,12.8-34.8,23.5-54.2,31.7c4.8-2,9.6-4,14.3-6
			c-2.1,0.9-4.2,1.7-6.3,2.5c-15,5.9-27.4,13.2-35.9,27.6c-7.5,12.9-10.7,31.8-6,46.2c4.7,14.5,13.7,28.5,27.6,35.9
			c13.4,7.1,31.4,11.8,46.2,6c19.1-7.5,38-15.7,55.4-26.6c17.2-10.8,33.5-23.5,48.5-37.2c26.5-24.3,49-53.8,67.8-84.3
			c19.9-32.3,35.4-67.1,49.4-102.2c12.5-31.1,22.9-63,32.5-95.2c25.1-84.7,47.7-170.2,71.4-255.3c24.6-88.4,49.1-176.9,73.9-265.3
			c23.1-81.9,47.3-163.7,78.7-242.9c3.8-9.6,7.7-19.2,11.7-28.7c-2,4.8-4,9.6-6,14.3c19.3-45.5,41.1-89.9,66.5-132.3
			c7.9-13.3,10.1-31.4,6-46.2c-3.8-13.9-14.6-29-27.6-35.9c-13.9-7.4-30.8-11-46.2-6C1084.1,1709.8,1071.5,1718.8,1063.2,1732.5
			L1063.2,1732.5z"/>
	</g>
	<g class="st1">
		<path class="st0" d="M755,1662.4c-37.1,117.2-75.6,233.9-115.7,350.1c-39.8,115.5-81.2,230.6-123.9,345
			c-22.6,60.5-44.5,121.5-69.5,181.1c2-4.8,4-9.6,6-14.3c-15,35.4-32.2,70.2-55.6,100.8c3.1-4,6.3-8.1,9.4-12.1
			c-11.4,14.7-24.1,28.2-38.8,39.7c4-3.1,8.1-6.3,12.1-9.4c-11.2,8.6-23.2,15.8-36.1,21.4c4.8-2,9.6-4,14.3-6
			c-6.7,2.8-13.4,5.1-20.4,7c-14.5,3.9-28.3,14.6-35.9,27.6c-7.5,12.9-10.7,31.8-6,46.2c4.7,14.5,13.7,28.5,27.6,35.9
			c14.3,7.6,30.3,10.3,46.2,6c71.9-19.2,124.4-75.8,159.4-139.1c17.1-30.9,30.7-63.7,43.6-96.5c14.9-37.9,29.2-75.9,43.6-114
			c29.4-77.9,58.1-156.1,86.2-234.6c28-78.4,55.4-157.1,82.1-236c26.7-78.9,52.6-158.1,77.9-237.4c3.1-9.8,6.2-19.5,9.3-29.3
			c4.6-14.5,1.5-33.3-6-46.2c-7.3-12.4-21.6-24.3-35.9-27.6c-15.4-3.5-32.6-2.7-46.2,6C769.1,1635.2,759.8,1647,755,1662.4
			L755,1662.4z"/>
	</g>
	<g class="st1">
		<path class="st0" d="M525.2,1566.4c-55.4,93-107.6,187.9-156.4,284.5c-50.6,100.2-97.2,202.2-140.7,305.6
			c-22,52.2-41.7,105.3-63.7,157.5c2-4.8,4-9.6,6-14.3c-13.9,32.8-29.6,65.3-51.4,93.7c3.1-4,6.3-8.1,9.4-12.1
			c-10.7,13.8-22.8,26.4-36.6,37c4-3.1,8.1-6.3,12.1-9.4c-9.5,7.2-19.6,13.4-30.3,18.4c-12.9,6.1-23.9,22.6-27.6,35.9
			c-4,14.4-2.2,33.5,6,46.2c8.3,12.8,20.6,24.1,35.9,27.6c5.3,0.7,10.6,1.4,16,2.1c10.8,0,20.9-2.8,30.3-8.2
			c48.4-22.8,85.4-66.3,111.5-112c25.9-45.4,43.2-95.2,62.5-143.7c12-30.2,24.4-60.3,37-90.3c-2,4.8-4,9.6-6,14.3
			c32.5-76.9,67-153,103.6-228.1c36.6-75.1,75.2-149.2,115.8-222.2c22.8-41,46.2-81.7,70.2-122c7.9-13.3,10.1-31.3,6-46.2
			c-3.8-13.9-14.6-29-27.6-35.9c-13.9-7.4-30.8-11-46.2-6C546.1,1543.6,533.4,1552.6,525.2,1566.4L525.2,1566.4z"/>
	</g>
	<g class="st1">
		<path class="st0" d="M1668.1,1072.2c29.8,45.2,59.7,90.4,89.5,135.6c26.1,39.6,52.4,79.4,71.2,123.2c-2-4.8-4-9.6-6-14.3
			c9.7,23.1,17.1,47,20.6,71.8c-0.7-5.3-1.4-10.6-2.1-16c2.7,20.6,2.6,41.2-0.2,61.7c0.7-5.3,1.4-10.6,2.1-16
			c-5.1,35.4-16.8,69.3-29.7,102.5c-12.8,32.8-26.1,65.3-39.8,97.7c2-4.8,4-9.6,6-14.3c-42.9,101.5-89.8,201.4-140.5,299.2
			c-50.8,97.8-105.4,193.7-163.7,287.2c-32.8,52.7-66.8,104.6-102,155.7c-8.4,12.3-9.9,32.3-6,46.2c3.8,13.9,14.6,29,27.6,35.9
			c13.9,7.4,30.8,11,46.2,6c15.5-5,26.6-14.1,35.9-27.6c55.7-81.1,108.6-164.1,158.4-248.9c49.9-84.8,96.7-171.4,140.5-259.5
			c45.5-91.7,87.5-185.1,126.5-279.7c18.9-45.9,39.5-92.2,51-140.6c13.1-55.4,12.7-112.3-5.1-166.7c-15.9-48.7-41.3-93.4-69-136.2
			c-28.2-43.6-57.2-86.8-85.8-130.2c-7.3-11.1-14.7-22.2-22-33.3c-8.6-13-20.5-23.3-35.9-27.6c-14.4-4-33.5-2.2-46.2,6
			c-12.8,8.3-24.1,20.6-27.6,35.9C1658.5,1041.2,1659.2,1058.7,1668.1,1072.2L1668.1,1072.2z"/>
	</g>
	<g class="st1">
		<path class="st0" d="M1527,1439c-55.5,48.1-95.1,112.7-124.8,179.2c-32.4,72.9-58.3,148.7-84.1,224.1
			c-25.8,75.2-48.6,151.3-64.5,229.3c-15.3,74.9-25.7,150.7-35,226.5c-9.9,81.1-18.2,162.4-29,243.4c0.7-5.3,1.4-10.6,2.1-16
			c-13.6,100.5-31.2,200.8-62.4,297.5c-8.8,27.2-18.7,54.1-29.7,80.5c2-4.8,4-9.6,6-14.3c-16.8,39.9-36.5,78.5-59.1,115.4
			c-16.5,26.8-6.7,67.2,21.5,82.1c29.3,15.5,64.5,7,82.1-21.5c57.6-93.7,96.1-198.6,121.3-305.4c25.7-108.6,39.1-219.8,51.9-330.6
			c7-61,13.7-122,21.9-182.8c-0.7,5.3-1.4,10.6-2.1,16c9.9-73.6,22-147,39.8-219.2c20.5-82.9,48.7-163.7,77.4-244.1
			c14-39.3,28-78.7,44.2-117.2c-2,4.8-4,9.6-6,14.3c19.7-46.7,42.9-92.1,73.8-132.4c-3.1,4-6.3,8.1-9.4,12.1
			c14.7-18.9,31-36.4,49.1-52.1c11.1-9.6,17.6-28.1,17.6-42.4c0-14.7-6.5-32.3-17.6-42.4c-11.4-10.5-26.4-18.3-42.4-17.6
			C1552.9,1422.2,1539.6,1428.1,1527,1439L1527,1439z"/>
	</g>
	<g>
		<path d="M1031.4,3055.4c-0.1,0-0.2,0-0.2,0c-22.5-0.1-41-8.6-54.9-25.2c-25.2-30.2-34-85.3-27.6-173.2
			c5.2-72,19.7-152.6,32.4-223.8c8-44.7,14.9-83.3,18.3-112.6c4.2-36.7,14-101.4,25.2-176.3c16.1-107,36.2-240.3,48.9-350
			c6.8-59.1,11-106.7,12.2-141.3c0.7-19.7,0.5-33.7-0.2-43.4c-3.4,7.8-7.7,18.4-13,32.9c-11,29.9-24.3,70.7-40.9,124.7
			c-30.9,100.9-67.1,229.4-105.5,365.5c-40.3,142.8-82,290.5-117.2,404.7c-53,171.7-72.6,205.7-84.7,216.2
			c-32.9,28.6-65,41.5-95.5,38.4c-30.7-3.1-48.9-21.4-57.1-32.1c-5.9-7.8-11.7-22.5-4.2-99.5c4.3-44,12.7-104.4,24.2-174.5
			c22.7-138.1,51-275.8,66.1-335.3c15.5-60.9,43.5-196.2,68.2-329.2c12.7-68.7,22.1-123.5,28.6-164.7c-15.4,42-34,94.1-52.3,145.4
			c-42.6,119.5-95.6,268.2-144.1,391.8c-58.2,148.6-97.3,229.6-122.9,254.9c-21.6,21.3-47.5,33-72.6,33c-3.6,0-7.3-0.2-10.8-0.7
			c-17.5-2.4-42.1-12-60.2-44c-4.4-7.9-7.7-22,5.2-99c7.4-44.1,19.3-103.3,34.5-171.2c27.8-124.3,60.6-252.7,73.3-286.1
			c13.4-35.3,50-159.3,79.5-261.1c-78.7,153.1-199,389.7-220,447c-2.4,6.5-4.8,13.3-7.5,20.6c-16.5,45.9-37.1,103.1-65.4,145.9
			c-16.4,24.8-33.3,41.8-51.7,52.1c-22.5,12.6-46.5,14.5-71.3,5.8c-8.9-3.1-15.7-10.3-19.9-21.3c-20.3-52.2,14.8-206.1,37.6-293.1
			c34.3-131.1,79.4-260.6,112.4-322.3c9-16.8,18.1-33.5,27.7-51.2c65.5-120.3,139.7-256.7,140.1-365.2
			c0.2-67.1,15.4-213.2,43.7-362.6c24.4-128.5,66.7-301.7,129.5-397c131.8-199.9,212.9-378.2,240.1-452
			C820.6,115.1,890.9,44,988.6,14.9c69.7-20.7,153.6-19.9,249.4,2.5c75.7,17.7,159.2,48.8,248.2,92.5
			c150.9,74.1,267.2,160.2,268.3,161.1c4.3,3.2,6.6,8.5,5.9,13.8c-0.1,1-12.4,105-17.8,232c-7.1,167.1,0.9,297.9,23.1,378.2
			c14.2,51.6,36,107.6,59.1,166.8c65.5,168.2,139.7,358.8,65.6,523.8c-30.3,67.5-137.3,303.8-241.2,509.7
			c-52.3,103.7-96.2,184.4-130.4,239.9c-49.4,80.2-76.3,106.3-99.2,96.3c-12.6-5.5-22.4-17.1-29.2-34.5
			c-28.1-72.5-3.1-251.4,52.5-375.3c28.7-64,66.9-174.6,97.2-281.6c14.9-52.7,26.5-99.7,33.6-135.8c6.3-32.6,7.7-50,7.6-59
			c-11.3,7.3-31.8,24.7-57.7,56.2c-27.6,33.4-68.3,91.2-105.7,176.9c-55.6,127.2-94.6,326.2-112.8,433.5c-3,17.8-6.5,39.2-10.6,64
			c-19.1,117.1-51,313-93,475.3c-23.3,90.1-47.4,160.8-71.5,210C1099,3024.6,1066.8,3055.4,1031.4,3055.4z M1090.2,1760.9
			c4,0,7.9,1.4,11.2,4c9.8,7.9,16,24.5,14.7,80c-0.9,35.1-4.7,82.2-11.7,144c-12.7,112-33.4,249.4-50,359.9
			c-11.2,74.6-20.9,139-25.1,175.2c-3.5,30.3-10.5,69.3-18.6,114.5c-12.6,70.4-26.9,150.2-32,220.7c-5.6,77.5,1.4,128.6,20.7,151.8
			c8.2,9.8,18.3,14.4,32,14.4c0,0,0.1,0,0.1,0c25.6,0,77.8-36.7,141.1-281.7c41.6-161,73.4-356.1,92.4-472.6
			c4.1-24.9,7.6-46.4,10.6-64.3c18.5-108.6,58.1-310.3,114.9-440.4c40.9-93.6,85.8-155.7,116.2-191.3c16.9-19.8,33.5-36.2,48.1-47.5
			c22-17.1,32.4-17.3,39.1-15.6c5.9,1.5,10.7,5.6,13.6,11.6c4.1,8.4,7.3,25.6-3.8,84c-7,36.8-18.8,84.7-34,138.6
			c-30.8,109.1-69.8,222.1-99.4,288c-25.1,55.9-45.2,127.9-55.1,197.5c-9.5,67.1-8.4,124.9,3.2,154.6c3.2,8.2,7,13.9,11.1,16.7
			c3-1.7,10.9-7.5,25.8-26.9c13.5-17.7,30.2-43,49.4-75.3c34.1-57.2,76.8-137.1,127.2-237.6c100.8-201.1,202.4-425.7,231.2-489.8
			c30.6-68.2,36.2-148,17.2-244.1c-17-86-50.8-172.7-83.4-256.5c-23.3-60-45.4-116.6-60.1-169.7c-23.3-84.5-31.4-215-24.1-387.7
			c4.5-106.8,13.9-197.5,17-225.3c-26.9-19.3-129.4-90.7-257.2-153.4c-86.8-42.6-168.1-72.9-241.6-90
			c-90.6-21.1-169.3-22.1-233.9-2.9c-42,12.5-78.8,33.9-109.3,63.6c-33.5,32.6-60.4,76.1-80,129.4c-27.6,75-110,256-243.2,458.2
			c-25.3,38.4-49.6,94.8-72.2,167.4c-19.5,62.7-37.3,136.3-52.9,218.7c-28.1,147.6-43,291.4-43.2,357.1
			c-0.4,116-76.6,255.9-143.8,379.4c-9.6,17.7-18.7,34.3-27.6,51c-34.1,63.8-81.6,202.7-115.5,338c-17.4,69.3-29.3,130.1-34.3,175.9
			c-7.4,67.2,2.5,79.4,3.6,80.5c41.8,14.5,70.1-19.4,87.8-46.2c26.3-39.8,46.2-95.1,62.2-139.5c2.6-7.3,5.1-14.2,7.5-20.7
			c32.3-87.8,280.4-564.4,290.9-584.7c3.6-6.8,11.7-9.9,18.8-7c7.1,2.8,11,10.6,8.9,18c-4,14.1-97.7,345-121.9,408.8
			c-11.7,30.8-44,156.9-70.6,275.4c-40.2,179-46.6,245-44,256.3c9.6,16.6,22.3,26.2,37.8,28.3c18.7,2.6,40.4-6.3,58.2-23.9
			c7.8-7.7,22.5-28.5,48.6-84.2c18.7-39.9,41.4-93.8,67.4-160.3c48.3-123.2,101.2-271.7,143.8-390.9
			c24.4-68.5,45.6-127.7,61.6-170.5c8.6-22.8,15.1-39.5,20-50.8c6.7-15.5,11.9-27.7,24.5-27.1c6.9,0.4,12.8,5.3,14.5,12.3
			c1.1,4.6,3.5,14.2-8.7,94.3c-6.8,45-17.2,105-29.8,173.5c-24.9,134.7-53.4,272.2-69.2,334.3c-14.5,57.3-42.1,191-64.5,326.1
			c-36.4,219.1-28.1,253.8-26.5,258c5.4,6.8,16.9,18,35.9,19.9c21.6,2.2,46.7-8.6,72.8-31.2c1.4-1.2,9.5-10,28.7-61.1
			c12.7-33.9,28.1-80.2,47-141.3c35.1-113.8,76.7-261.3,117-403.9c39.9-141.4,77.6-275,109.3-377.7c17.1-55.4,30.8-96.4,41.9-125.5
			c17.5-45.9,26.2-56.3,36.2-59.5C1086.5,1761.2,1088.4,1760.9,1090.2,1760.9z M1589.5,1541.2
			C1589.5,1541.2,1589.5,1541.2,1589.5,1541.2C1589.5,1541.2,1589.5,1541.2,1589.5,1541.2z"/>
	</g>
</g>
</svg>
