<?xml version="1.0" encoding="utf-8"?>
<!-- Generator: Adobe Illustrator 22.0.1, SVG Export Plug-In . SVG Version: 6.00 Build 0)  -->
<svg version="1.1" id="Layer_1" xmlns="http://www.w3.org/2000/svg" xmlns:xlink="http://www.w3.org/1999/xlink" x="0px" y="0px"
	 viewBox="0 0 793.6 1167.8" style="enable-background:new 0 0 793.6 1167.8;" xml:space="preserve">
<style type="text/css">
	.st0{fill:#CC32FF;}
	.st1{opacity:0.1;}
</style>
<g>
	<g>
		<path class="st0" d="M384.9,1058.7c0,0-36,107.9-6.5,102.9s71.9-55.1,71.9-55.1"/>
	</g>
	<g>
		<path class="st0" d="M272.8,1083.4c0,0-23.1,92.6,8.8,83.8c31.9-8.8,64.4-64,64.4-64"/>
	</g>
	<g>
		<path class="st0" d="M139.7,1012.2c0,0-16.3,85.8,17.4,96.7c33.7,10.9,63-64.1,63-64.1"/>
	</g>
	<g>
		<path class="st0" d="M82.4,958.6c0,0-23.7,84.7-52.3,78.6S3.1,974.3,7,929.4"/>
	</g>
	<g>
		<path class="st0" d="M36.6,595c0,0,70.5-18.2,56.8,40.9s-77.3,179.6-91,131.9C-11.2,720.1,36.6,595,36.6,595z"/>
	</g>
	<g>
		<g>
			<path d="M296.9,1143.6c-2.6,0-5.1-0.5-7.5-1.5c-5.3-2.2-9.2-6.4-11.6-12.5c-4-10.1-3.9-25.3,0.2-46.6
				c3.1-16.2,8.6-35.8,16.4-58.3c11.5-33.5,24.7-63.7,27.8-70.7c-0.5-4.2-1.7-15.8-1.1-31.6c0.6-17.8,3.8-44.5,15-71.1l2.2-127.2
				l-10.3-5.1c-4.9,8.1-15.6,25.9-26.6,43.6c-8.8,14.1-16.1,25.4-21.7,33.7c-8.7,12.9-12.1,16.5-14.3,17.8
				c-0.5,1.1-1.7,4.1-3.6,12.3c-1.7,7.2-3.5,16.7-5.4,26.6c-4.5,23.3-9.5,49.8-16.2,67.4c-0.7,1.8-2,11.5-3.4,20.8
				c-2.8,20.1-7.1,50.6-13.9,76.6c-8.8,33.9-19,51.1-32.4,53.9c-7.8,1.7-15,0.2-21.3-4.4c-8.3-6-14.9-17.2-19.6-33.3
				c-3.4-11.5-4.5-21.4-4.5-21.8l-0.1-0.6l13.7-125.7c0.5-3.9,11.4-96,16-120.9c4-22.3,33.2-85.9,41.5-103.7l-9.7-6.1
				c-17.7,21.2-55.6,68.9-61.3,88.2c-7.7,26.4-38.2,109-41.2,117.3c-0.8,4.9-6.3,39.5-15.2,73.5c-13.6,51.8-27.5,76.1-43.8,76.1
				c-0.4,0-0.8,0-1.2,0c-15.7-1.1-25.4-9.3-29.7-24.9c-3.7-13.2-3.5-30.7-3.3-52.9c0-5.2,0.1-10.7,0.1-16.3c0-50,13-79.1,15.1-83.4
				c1.2-3.9,9.6-31.8,19.6-59.8c6.3-17.7,12.1-32.1,17.1-42.7c0.4-0.9,0.8-1.7,1.2-2.6c-0.3,0.3-0.7,0.5-1,0.8
				c-14.6,11.5-26.1,15.1-35.1,10.9c-2.5-1.2-5.9-3.7-7.7-9.1c-3.1-8.9-1.3-24,5.4-46.2c5.1-16.8,13-37.6,23.5-61.9
				c16.8-38.9,35.2-74.6,37.3-78.9c1.3-4.1,11.9-35.6,26.7-71.6c21.4-51.9,41-88,58.4-107.4c22.7-25.3,88.4-65.2,152-103.8
				c51.5-31.3,100.1-60.8,114.1-75.9c30.8-33,89.3-172,89.9-173.4l1.1-2.5l2.6-0.8c0.8-0.2,20.8-5.9,50.7-7.6
				c17.5-1,34.8-0.4,51.4,1.7c20.8,2.7,40.5,7.8,58.6,15.2c78.3,32.2,99.8,71.4,100.6,73.1l1.3,2.4l-77.5,182.5
				c2.8,8.8,14,44.8,23.1,86.9c14.2,65.4,16.9,113.9,8.1,144.1c-8.7,29.8-31.8,71.4-68.8,123.6c-25.1,35.4-48.4,64-52.3,68.7
				l-31.4,78.5l-35,129.4l0,0.1l-27.5,84.7L532,992c-0.2,0.3-20.7,34.7-44.9,68.6c-14.3,20-27,36-37.9,47.5
				c-14.9,15.8-26.1,23.1-35.3,23.1c-8.5,0-15.4-3.1-20.5-9.1c-13.6-16.1-8.1-48.5-7.9-49.9l0.2-1L460.4,946L485,836.5l-9.8-76.8
				l-16.1-3l-24.2,118l-0.1,0.4L397,984.2c-0.1,0.3-12.6,34.9-29.6,71.2c-10,21.4-19.7,39.1-28.7,52.8c-11.8,18-22.3,28.9-32.2,33.3
				C303.2,1142.9,300,1143.6,296.9,1143.6z M323.5,704.2l26.1,13.1l-2.4,136.6l-0.4,1c-6,13.9-13.3,37-14.5,67.8
				c-0.7,18.6,1.2,31.3,1.2,31.4l0.3,1.7l-0.7,1.5c-0.2,0.3-15.2,33.7-28.1,71.3c-16.5,48-22.5,82.4-16.7,96.9
				c1.3,3.2,3,5.2,5.4,6.2c2.4,1,5.1,0.8,8.2-0.6c14.1-6.2,33.7-34.8,55.1-80.5c16.5-35.2,28.8-68.9,29.3-70.2l37.6-108.8
				l26.3-128.2l35.2,6.7l11.1,87l-25.4,113.3l-74.5,124.9c-1.3,8.7-2.6,30,5.5,39.6c2.9,3.4,6.7,5,11.8,5c2.6,0,10.3-1.9,27-19.5
				c10.5-11.1,22.9-26.7,36.9-46.3c22.3-31.2,41.4-62.8,44.1-67.3l27-83.4l35.1-129.8l0.1-0.3l32.2-80.4l0.6-0.7
				c0.2-0.3,25.2-30.5,52.4-68.8c35.7-50.4,58.9-92,67.1-120.2c8.1-27.9,5.2-75.8-8.3-138.4c-10.3-47.8-23.3-87.5-23.5-87.9l-0.7-2
				l77-181.2c-2.3-3.5-7.8-10.9-17.9-20.1c-13.1-12-36.9-29.6-75.6-45.6c-17.1-7-35.8-11.9-55.5-14.4c-15.8-2-32.4-2.6-49.1-1.6
				c-22.7,1.3-39.7,5-46,6.5c-8.5,20-60.8,141.9-90.9,174.2c-15.1,16.2-62.1,44.8-116.5,77.9c-59.9,36.4-127.8,77.7-149.4,101.7
				c-39.7,44.1-82.5,174-83,175.3l-0.1,0.4l-0.2,0.4c-0.2,0.4-19.5,37.7-37.2,78.6c-10.3,23.9-18.1,44.3-23,60.7
				c-7.7,25.6-6.8,35.6-5.6,39.2c0.7,2,1.5,2.3,1.8,2.5c3.4,1.6,17.6,3,57.7-44.5c22.6-26.7,41.8-55.5,42-55.8l9.8,5.8
				c-0.1,0.2-9.9,19.2-21.5,38.4c-21.5,35.7-30.8,42.3-36.4,44c-1.1,0.6-9,6.6-28.5,61.4c-10.4,29.3-18.9,57.9-19,58.2l-0.1,0.5
				l-0.2,0.5c-0.1,0.3-14.1,28.6-14.1,78.7c0,5.7,0,11.2-0.1,16.4c-0.2,21.3-0.3,38.2,2.9,49.8c3,11,8.7,15.8,19.6,16.6
				c2.1,0.2,8-1.3,16.4-18.5c5.7-11.6,11.3-28.1,16.7-49c9.4-35.9,15-72.6,15.1-73l0.1-0.6l0.2-0.5c0.3-0.9,33.4-90.2,41.2-117
				c7.9-27.1,64.3-93.4,66.7-96.2l3.2-3.7l26.6,16.6l-2.2,4.6c-0.4,0.8-38.4,81.5-42.8,105.5c-4.4,24.4-15.6,118.2-15.9,120.1
				l-13.6,124.4c1.3,10.5,7,37.6,19.4,46.5c3.7,2.7,7.7,3.5,12.3,2.5c4.7-1,14.1-8.3,23.7-45.6c6.6-25.4,10.8-55.5,13.6-75.4
				c2-14.1,2.9-20.4,4-23.3c6.3-16.7,11.3-42.7,15.6-65.6c6.8-35.3,9-44.2,14.4-46.7c1.6-1.5,8.2-9.2,33.5-49.8
				c14.4-23.1,27.8-45.6,27.9-45.8L323.5,704.2z M265.5,813.7C265.5,813.7,265.5,813.7,265.5,813.7S265.5,813.7,265.5,813.7z
				 M84.1,717.1C84.1,717.1,84.1,717.1,84.1,717.1C84.1,717.1,84.1,717.1,84.1,717.1z"/>
		</g>
		<g>
			<path d="M141.9,634.9l-9.9-5.6l46-80.8l1.8-0.7c46.4-18.9,89.5-80.7,90-81.4l0.8-1.2l1.3-0.7c0.5-0.3,13.2-6.5,27.7-8.1
				c11.5-1.3,81.5-20.5,127.4-57.9c28-22.8,49.6-50.7,62.7-70.1c14.3-21.1,22.1-37,22.2-37.1l10.2,5c-0.3,0.7-8.1,16.6-22.9,38.4
				c-13.6,20.1-36,49-65.1,72.7c-47.8,39-119.4,58.8-133.4,60.4c-10,1.1-19.4,5-22.6,6.4c-3,4.2-13.1,18-27.7,33.7
				c-22.5,24.3-44.3,41-64.6,49.7L141.9,634.9z"/>
		</g>
		<g>
			<path d="M618.9,700.9c-2.1-1-209.4-99-244-117.1l5.3-10.1c34.4,17.9,241.5,115.9,243.6,116.9L618.9,700.9z"/>
		</g>
		<g>
			<path d="M560.9,564.8c-4.4-0.1-109.4-3.3-152.5-24.9c-42.9-21.5-95-79.2-97.2-81.7l8.5-7.6c0.5,0.6,52.8,58.6,93.8,79.1
				c40.8,20.4,146.7,23.6,147.7,23.7L560.9,564.8z"/>
		</g>
		<g>
			<rect x="406.4" y="667.5" transform="matrix(0.2425 -0.9701 0.9701 0.2425 -403.6282 958.6628)" width="11.4" height="140.6"/>
		</g>
		<g>
			<rect x="268.8" y="628" transform="matrix(0.4551 -0.8904 0.8904 0.4551 -460.8138 617.9749)" width="11.4" height="114.9"/>
		</g>
		<g>
			
				<rect x="530.9" y="703.6" transform="matrix(9.216236e-02 -0.9957 0.9957 9.216236e-02 -269.7039 1224.3264)" width="11.4" height="113"/>
		</g>
		<g>
			<rect x="172.7" y="591.8" transform="matrix(0.6299 -0.7767 0.7767 0.6299 -420.3899 370.3453)" width="11.4" height="69"/>
		</g>
	</g>
	<g>
		<g class="st1">
			<g>
				<path class="st0" d="M510.1,293.5c-11.6,21.4-23.3,42.9-38.2,62.3c2.2-2.9,4.4-5.7,6.6-8.6c-8.9,11.6-19,22.2-30.6,31.2
					c2.9-2.2,5.7-4.4,8.6-6.6c-15.3,11.7-32.8,19.9-50.4,27.6c-18.9,8.4-37.8,16.7-56.7,25c-0.5,0.2-0.9,0.4-1.4,0.6
					c-7.7,3.4-11.7,9.4-16.6,15.8c0,0,0,0,0,0.1c-0.1,0.1-0.2,0.3-0.3,0.4c-0.6,0.7-1.1,1.4-1.7,2.2c2.2-2.9,4.4-5.7,6.6-8.6
					c-13.5,17.5-27.6,34.8-43.1,50.6c-4.4,4.4-8.8,8.7-13.8,12.6c2.9-2.2,5.7-4.4,8.6-6.6c-2.4,1.8-4.8,3.6-7.6,4.7
					c3.4-1.4,6.8-2.9,10.1-4.3c-0.9,0.4-1.8,0.7-2.7,0.8c3.8-0.5,7.5-1,11.3-1.5c-4.7,0.6-9.5,0.7-14.1,1.9
					c-0.6,0.2-1.2,0.4-1.7,0.6c-4,1.5-8,3.2-12,5c-3.5,1.6-6.8,3.6-10.1,5.7c-12.5,8-24.1,17.3-35.8,26.3
					c-10.4,8.1-20.6,16.4-30.8,24.8c-8.6,7.1-17,14.3-25.5,21.6c-4.1,3.5-8.2,7-12.2,10.6c-0.1,0.1-0.1,0.1-0.2,0.2
					c-4.1,3.8-7.1,8.4-8.8,13.7c-2.7,5.1-3.9,10.5-3.7,16.4c-0.2,5.8,1,11.3,3.7,16.4c1.7,5.3,4.6,9.8,8.8,13.7
					c2.9,2.2,5.7,4.4,8.6,6.6c6.6,3.8,13.8,5.8,21.4,5.8c3.8-0.5,7.5-1,11.3-1.5c7.2-2,13.4-5.7,18.7-10.9
					c4.8-4.3,9.7-8.5,14.6-12.7c11-9.5,22.2-18.8,33.4-28c7.1-5.8,14.2-11.5,21.4-17.1c-2.9,2.2-5.7,4.4-8.6,6.6
					c10.1-7.8,20.3-15.6,31.3-22c2-1.1,4-2.2,6.1-3.1c-3.4,1.4-6.8,2.9-10.1,4.3c1.2-0.5,2.5-1,3.9-1.2c-3.8,0.5-7.5,1-11.3,1.5
					c4.5-0.5,9-0.7,13.4-1.7c0.5-0.1,0.9-0.2,1.4-0.4c3.9-1.4,7.9-3.1,11.6-4.9c5.6-2.6,11-7.6,15.6-11.1
					c6.5-5.1,12.3-10.9,17.9-16.9c11.9-12.6,23-26.1,33.8-39.7c4.6-5.9,9.2-11.8,13.7-17.7c-5.1,5.1-10.2,10.2-15.2,15.2
					c16.2-7.1,32.3-14.2,48.5-21.4c15-6.6,30.3-13,44.5-21.3c9.7-5.6,18.6-12.4,27.4-19.4c5.6-4.5,10.9-9.4,15.8-14.6
					c7.4-7.8,13.9-16.3,20.4-24.9c4.5-5.9,8.6-11.9,12.6-18.1c8.9-13.9,16.8-28.4,24.6-42.9c3.1-4.9,4.8-10.1,5-15.8
					c1.3-5.6,1-11.3-0.8-16.9c-1.3-5.5-3.8-10.3-7.6-14.4c-3-4.6-7-8.3-11.9-10.9c-3.4-1.4-6.8-2.9-10.1-4.3c-7.5-2-15-2-22.6,0
					c-3.4,1.4-6.8,2.9-10.1,4.3C518.9,282.1,513.8,287.2,510.1,293.5L510.1,293.5z"/>
			</g>
		</g>
	</g>
	<g>
		<g>
			<path class="st0" d="M328.3,870.5c24.9-6.5,51.1-7.3,76.4-2.3c2.9,0.6,4.1-3.8,1.2-4.4c-26-5.2-53.1-4.5-78.8,2.3
				C324.3,866.9,325.5,871.3,328.3,870.5L328.3,870.5z"/>
		</g>
	</g>
	<g>
		<g>
			<path class="st0" d="M333.1,961.1c17.9,11,41.6,11,59.5,0.1c2.5-1.5,0.2-5.5-2.3-3.9c-16.6,10.1-38.4,10.1-54.9-0.1
				C332.9,955.6,330.6,959.6,333.1,961.1L333.1,961.1z"/>
		</g>
	</g>
	<g>
		<g>
			<path class="st0" d="M477.8,876.4c22.7,2.9,45.3,5.8,68,8.8c2.9,0.4,2.9-4.2,0-4.5c-22.7-2.9-45.3-5.8-68-8.8
				C474.9,871.5,474.9,876.1,477.8,876.4L477.8,876.4z"/>
		</g>
	</g>
	<g>
		<g>
			<path class="st0" d="M468.1,958.5c19.6,5.7,39.2,11.4,58.8,17c2.8,0.8,4-3.6,1.2-4.4c-19.6-5.7-39.2-11.4-58.8-17
				C466.5,953.3,465.3,957.7,468.1,958.5L468.1,958.5z"/>
		</g>
	</g>
	<g>
		<g>
			<path class="st0" d="M184.6,762c15.9,11,33.2,19.9,51.4,26.4c2.8,1,3.9-3.4,1.2-4.4c-17.8-6.4-34.7-15.2-50.3-26
				C184.5,756.4,182.2,760.4,184.6,762L184.6,762z"/>
		</g>
	</g>
	<g>
		<g>
			<path class="st0" d="M232.1,806.5c4.9-0.3,9.7-0.7,14.6-1c2.9-0.2,3-4.5,0-4.5c-22.8-0.3-45.3-5.9-65.7-16.2
				c0.3,1,0.5,2.1,0.8,3.1c2.7-4.2,10.9-1,14.5,0c7.1,1.8,14.1,3.6,21.2,5.4c14.4,3.7,28.8,7.4,43.2,11c0-1.5,0-2.9,0-4.4
				c-12.7,2.5-25.4,5.1-38.2,7.6c-2.9,0.6-1.7,5,1.2,4.4c12.7-2.5,25.4-5.1,38.2-7.6c2.2-0.4,2.1-3.9,0-4.4c-15.6-4-31.2-8-46.8-12
				c-7.6-1.9-15.2-4.1-22.9-5.8c-5-1.1-11.2-1.4-14.3,3.5c-0.6,1-0.2,2.6,0.8,3.1c21,10.7,44.3,16.5,67.9,16.9c0-1.5,0-3,0-4.5
				c-4.9,0.3-9.7,0.7-14.6,1C229.2,802.2,229.2,806.7,232.1,806.5L232.1,806.5z"/>
		</g>
	</g>
	<g>
		<g>
			<path class="st0" d="M225.3,922.3c-17.3,1-37.1,1.3-52.3-8.2c-4.1-2.6-7.6-5.9-10.4-9.9c-1.3,0.8-2.6,1.5-3.9,2.3
				c13.1,17.2,34.3,27.4,56,26.5c2.9-0.1,2.9-4.5,0-4.5c-11-0.2-21.8-2.5-31.9-6.7c-2.5-1-3.8,2.8-1.8,4.2
				c16.2,10.9,36.2,16,55.7,14c2.9-0.3,2.9-4.8,0-4.5c-18.8,1.9-37.7-2.9-53.4-13.4c-0.6,1.4-1.2,2.8-1.8,4.2
				c10.5,4.4,21.8,6.7,33.1,6.9c0-1.5,0-3,0-4.5c-19.9,0.9-40-8.3-52.1-24.3c-1.7-2.3-5.6-0.2-3.9,2.3c11.2,16.2,31.5,20.3,50,20.7
				c5.6,0.1,11.1,0,16.7-0.4C228.2,926.7,228.2,922.1,225.3,922.3L225.3,922.3z"/>
		</g>
	</g>
	<g>
		<g>
			<path class="st0" d="M352.6,947.8c18.8,2.2,37.6,4.4,56.4,6.7c0-1.5,0-3,0-4.5c-17.2,0.9-34.5,0.1-51.6-2.4
				c-2.9-0.4-4.1,4-1.2,4.4c17.5,2.5,35.2,3.4,52.8,2.5c3-0.2,2.9-4.2,0-4.5c-18.8-2.2-37.6-4.4-56.4-6.7
				C349.7,942.9,349.7,947.4,352.6,947.8L352.6,947.8z"/>
		</g>
	</g>
	<g>
		<g>
			<path class="st0" d="M351,854.6c14.1-2.2,28.6-0.9,42.1,3.6c2.8,0.9,4-3.5,1.2-4.4c-14.3-4.8-29.6-6-44.5-3.6
				C346.9,850.6,348.2,855,351,854.6L351,854.6z"/>
		</g>
	</g>
	<g>
		<g>
			<path class="st0" d="M145.7,726.1c-16.5,0.6-32.9-2.9-47.7-10.3c-2.6-1.3-4.8,2.4-2.3,3.9c14.9,9.3,32.4,14,50,13.2
				c2.4-0.1,3.2-3.9,0.6-4.5c-13.8-2.8-27.5-5.6-41.3-8.4c-2.9-0.6-4.1,3.8-1.2,4.4c13.8,2.8,27.5,5.6,41.3,8.4
				c0.2-1.5,0.4-3,0.6-4.5c-16.8,0.7-33.5-3.7-47.7-12.6c-0.8,1.3-1.5,2.6-2.3,3.9c15.5,7.7,32.7,11.5,50,10.9
				C148.6,730.5,148.6,726,145.7,726.1L145.7,726.1z"/>
		</g>
	</g>
	<g>
		<g>
			<path class="st0" d="M84.3,854.3c-21.9,0-43.9,0-65.8,0c0,1.5,0,3,0,4.5c24.7,0,49.3,0,74,0c2.9,0,2.9-4.5,0-4.5
				c-12.6,0-25.1,0-37.7,0c-2.9,0-2.9,4.5,0,4.5c12.6,0,25.1,0,37.7,0c2.9,0,2.9-4.5,0-4.5c-24.7,0-49.3,0-74,0
				c-2.9,0-2.9,4.5,0,4.5c21.9,0,43.9,0,65.8,0C87.2,858.8,87.2,854.3,84.3,854.3L84.3,854.3z"/>
		</g>
	</g>
	<g class="st1">
		<g>
			<path class="st0" d="M351.4,750.4c28.2-0.7,56.5-0.4,84.7,1c0-7.6,0-15.2,0-22.7c-25.5,2.3-50.9,4.9-76.3,7.7
				c-3.1,0.3-5.7,1-8,3.3c-2,2-3.5,5.2-3.3,8c0.3,6.1,5,11.4,11.4,11.4c13.4-0.1,26.7,0.7,40,2.5c-1-0.1-2-0.3-3-0.4
				c13.3,1.8,26.4,4.5,39.2,8.1c1-7.4,2-14.9,3-22.3c-22.5,3-45.2,5-67.9,6.1c-5.9,0.3-11.7,5-11.4,11.4c0.3,5.9,5,11.7,11.4,11.4
				c22.7-1.1,45.3-3.1,67.9-6.1c3-0.4,5.9-1,8-3.3c1.7-1.9,2.8-4,3.1-6.5c0.7-5.6-2.7-10.9-8.1-12.5c-26.7-7.5-54.5-11.2-82.2-11
				c0,7.6,0,15.2,0,22.7c25.4-2.8,50.8-5.4,76.3-7.7c3.1-0.3,5.8-1.1,8-3.3c2-2,3.5-5.2,3.3-8c-0.3-6.4-5-11.1-11.4-11.4
				c-28.2-1.4-56.4-1.7-84.7-1c-5.9,0.2-11.7,5.1-11.4,11.4C340.3,745.1,345.1,750.6,351.4,750.4L351.4,750.4z"/>
		</g>
	</g>
	<g class="st1">
		<g>
			<path class="st0" d="M507.6,788.2c28.3-0.1,56.5-0.2,84.8-0.2c0-7.6,0-15.2,0-22.7c-23,0.8-46.2,1.6-69.1-1.5c1,0.1,2,0.3,3,0.4
				c-10-1.4-19.8-3.5-29.4-6.6c0,7.3,0,14.6,0,21.9c5.8-1.4,11.7-2.5,17.6-3.3c-1,0.1-2,0.3-3,0.4c15.2-2,30.5-2,45.7,0
				c-1-0.1-2-0.3-3-0.4c5.4,0.7,10.8,1.7,16.2,3c0-7.3,0-14.6,0-21.9c-7.1,1.3-14.2,2.5-21.3,3.4c1-0.1,2-0.3,3-0.4
				c-21.1,2.8-42.4,4-63.8,3.6c0,7.6,0,15.2,0,22.7c14.4-0.8,28.9-0.3,43.2,1.6c-1-0.1-2-0.3-3-0.4c11.9,1.6,23.7,4.1,35.2,7.6
				c5.7,1.7,12.6-2,14-7.9c1.4-6.1-1.8-12.2-7.9-14c-26.3-7.9-54.1-11.2-81.4-9.6c-5.9,0.3-11.7,5-11.4,11.4
				c0.3,6.3,5,11.2,11.4,11.4c29.5,0.6,59.1-2,88.1-7.5c4.7-0.9,8.6-6.3,8.3-11c-0.2-4.9-3.4-9.8-8.3-11
				c-28.1-6.5-57.4-6.4-85.5,0.4c-4.7,1.1-8.6,6.1-8.3,11c0.2,5.2,3.4,9.4,8.3,11c25.5,8.3,52.7,9.6,79.3,9.1
				c7.4-0.1,14.9-0.4,22.3-0.7c5.9-0.2,11.7-5.1,11.4-11.4c-0.3-6.1-5-11.4-11.4-11.4c-28.3,0.1-56.5,0.2-84.8,0.2
				c-5.9,0-11.6,5.2-11.4,11.4C496.5,783,501.2,788.3,507.6,788.2L507.6,788.2z"/>
		</g>
	</g>
	<g class="st1">
		<g>
			<path class="st0" d="M287.7,715.4c2.1,0,4.2,0,6.3,0c4.8,0,9.9-3.5,11-8.3c1.2-5.2-0.9-9.8-5.2-12.8
				c-24.1-16.9-50.4-30.1-76.6-43.2c-5.1-2.6-11.1-1.7-14.7,2.9c-3.2,4.1-3.5,11.3,0.9,14.9c21.6,18.1,45,33.9,70,46.8
				c6.9,3.6,13.9,6.9,21.1,10c1.9-7.1,3.8-14.1,5.7-21.2c-5.7,0.2-11.4-0.2-17.1-0.9c1,0.1,2,0.3,3,0.4
				c-15.2-2.1-29.9-6.8-44.4-11.6c-2,7.3-4,14.6-6,21.9c16.3,4,32.6,7.9,48.9,11.9c5.8,1.4,12.6-1.8,14-7.9c1.3-5.9-1.8-12.5-7.9-14
				c-16.3-4-32.6-7.9-48.9-11.9c-5.8-1.4-12.6,1.8-14,7.9c-1.4,6.3,1.9,12,7.9,14c20.8,6.9,42.3,13.6,64.5,12.9
				c4.8-0.1,9.8-3.4,11-8.3c0.5-2,0.5-4,0-6c-0.5-2.4-2.9-5.8-5.2-6.8c-24.8-10.8-48.4-24.4-70.2-40.4c-1.5-1.1-3.1-2.3-4.6-3.4
				c-0.3-0.2-0.5-0.4-0.8-0.6c-0.2-0.1-2-1.5-0.5-0.3c1.4,1.1,0.2,0.1-0.2-0.1c-0.4-0.3-0.9-0.7-1.3-1c-3-2.4-6-4.8-8.9-7.2
				c-4.6,6-9.2,11.9-13.8,17.9c26.2,13.1,52.5,26.3,76.6,43.2c1.9-7.1,3.8-14.1,5.7-21.2c-2.1,0-4.2,0-6.3,0
				c-5.9,0-11.6,5.2-11.4,11.4C276.7,710.2,281.4,715.4,287.7,715.4L287.7,715.4z"/>
		</g>
	</g>
	<g class="st1">
		<g>
			<path class="st0" d="M179.2,639c-12.7-7-26.5-12.3-40.7-15.3c-4.8-1-10.4,0.6-12.8,5.2c-2.4,4.5-1.9,10.1,1.8,13.8
				c15.2,14.9,33.5,26.2,53.4,33.5c1-7.4,2-14.9,3-22.3c-8.2,0.3-16.4,0.5-24.6,0.8c-5.7,0.2-10.4,4.2-11.2,9.9
				c-0.7,5.2,2.6,11.5,8.1,12.5c14.7,2.7,29.3,5.3,44,8c-1.7-6.3-3.3-12.7-5-19c-0.8,0.8-0.4,0.5,1.2-0.9c0.9-0.4,1.8-0.8,2.7-1.1
				c-0.3,0.1-0.6,0.2-0.9,0.3c1-0.1,2-0.3,3-0.4c-0.3,0-0.6,0-1,0c1,0.1,2,0.3,3,0.4c-0.2,0-0.3-0.1-0.5-0.1
				c-5.7-1.5-12.6,1.9-14,7.9c-1.4,5.9,1.8,12.4,7.9,14c5.1,1.3,11,0.1,14.6-4c2.7-3.1,4.1-7,2.9-11.1c-1-3.6-4.1-7.3-7.9-7.9
				c-14.7-2.7-29.3-5.3-44-8c-1,7.4-2,14.9-3,22.3c8.2-0.3,16.4-0.5,24.6-0.8c5.7-0.2,10.4-4.2,11.2-9.9c0.8-5.9-2.8-10.5-8.1-12.5
				c-2-0.7-4-1.5-6-2.3c0.9,0.4,1.8,0.8,2.7,1.1c-7.8-3.3-15.3-7.3-22.3-11.9c-1.7-1.1-3.4-2.3-5-3.5c-0.9-0.6-1.7-1.2-2.6-1.9
				c0.6,0.5,1.9,1.5,0.5,0.4c-0.4-0.3-0.8-0.7-1.3-1c-3.3-2.7-6.5-5.6-9.6-8.5c-3.7,6.3-7.4,12.7-11.1,19c8.6,1.8,16.9,4.4,25,7.8
				c-0.9-0.4-1.8-0.8-2.7-1.1c4.4,1.9,8.8,4,13,6.3c5.2,2.9,12.6,1.4,15.6-4.1C186.1,649.3,184.8,642.1,179.2,639L179.2,639z"/>
		</g>
	</g>
	<g class="st1">
		<g>
			<path class="st0" d="M293.8,475c-1.6,18.4,12.5,32.7,26.2,42.5c6.6,4.7,13.7,8.8,20.8,12.9c7.6,4.4,15.2,8.5,23,12.5
				c31.3,15.8,64.5,28.4,99,35.1c19.7,3.9,39.8,6,59.9,5.9c5.9,0,11.6-5.2,11.4-11.4c-0.3-6.1-5-11.4-11.4-11.4
				c-13.1,0.1-26.2-0.8-39.2-2.5c1,0.1,2,0.3,3,0.4c-23.4-3.2-46.3-9.1-68.4-17.1c-6.3-2.3-12.5-4.7-18.7-7.3
				c0.9,0.4,1.8,0.8,2.7,1.1c-13.6-5.8-26.9-12.2-39.9-19.3c-6.6-3.6-13.1-7.3-19.5-11.2c-2.9-1.8-5.8-3.5-8.6-5.4
				c-1.3-0.9-2.5-1.7-3.8-2.6c-0.7-0.5-2.8-2.3,0,0c-0.7-0.6-1.4-1.1-2-1.6c-2.7-2.3-5.3-4.7-7.5-7.4c-0.2-0.2-0.5-0.8-0.7-0.9
				c0.4,0.2,1.8,2.3,0.6,0.8c-0.5-0.7-0.9-1.3-1.4-2c-1-1.5-1.8-3.1-2.5-4.7c0.4,0.9,0.8,1.8,1.1,2.7c-0.9-2.1-1.5-4.3-1.8-6.6
				c0.1,1,0.3,2,0.4,3c-0.2-1.8-0.2-3.6-0.1-5.4c0.2-2.7-1.4-6.2-3.3-8c-2-2-5.2-3.5-8-3.3C298.5,464,294.3,468.7,293.8,475
				L293.8,475z"/>
		</g>
	</g>
	<g class="st1">
		<g>
			<path class="st0" d="M594.1,696.4c-26.2-14-52.5-28-78.7-42.1c-13-6.9-26-13.9-39-20.8c-12.7-6.8-25.3-14-38.3-20.2
				c-15.2-7.2-32.6-12.8-49.3-7.2c-4.4,1.5-7.5,4.8-8.1,9.5c-0.6,4.4,1.4,9.1,5.4,11.3c26.4,14.6,52.9,29.2,79.3,43.8
				c26.3,14.5,52.7,29,79,43.5c14.9,8.2,29.8,16.4,44.7,24.6c5,2.7,11.2,1.6,14.7-2.9c3.5-4.5,3.1-10.8-0.9-14.9
				c-18.1-18.7-42.8-29.6-65.7-41.1c-24.8-12.5-49.7-24.8-74.7-36.8c-14.1-6.7-28.2-13.4-42.4-20c-1.9,7.1-3.8,14.1-5.7,21.2
				c2.2-0.1,4.4,0,6.5,0.3c-1-0.1-2-0.3-3-0.4c4.4,0.6,8.5,1.9,12.6,3.6c-0.9-0.4-1.8-0.8-2.7-1.1c10.5,4.5,20.2,11,29.9,17
				c10.4,6.4,20.7,12.9,31,19.4c20.6,13,41,26.3,61.5,39.5c2.1,1.4,4.3,2.8,6.3,4.2c1.1,0.8,2.2,1.6,3.3,2.4c-2.9-2-1.1-0.8-0.5-0.3
				c0.6,0.5,1.2,1,1.8,1.5c2,1.8,3.7,3.8,5.6,5.8c-2.3-2.4-1-1.3-0.4-0.5c0.4,0.6,0.8,1.3,1.2,1.9c0.7,1.2,1.3,2.3,1.8,3.6
				c-0.4-0.9-0.8-1.8-1.1-2.7c0.1,0.2,0.1,0.4,0.2,0.5c4.7-4.7,9.3-9.3,14-14c-17.2-7.2-34.4-14.4-51.6-21.6c0,7.3,0,14.6,0,21.9
				c1.4-0.4,2.8-0.7,4.2-0.9c-1,0.1-2,0.3-3,0.4c2.5-0.3,4.9-0.3,7.4,0c-1-0.1-2-0.3-3-0.4c2.5,0.4,4.8,1,7.1,2
				c-0.9-0.4-1.8-0.8-2.7-1.1c1.3,0.6,2.6,1.2,3.8,2c5.1,3.2,12.7,1.2,15.6-4.1c3-5.6,1.3-12.2-4.1-15.6c-9.2-5.7-20.8-7.3-31.2-4.2
				c-4.6,1.4-8.6,6-8.3,11c0.1,2,0.6,4,1.6,5.7c1.5,2.8,4.1,4.1,6.8,5.2c17.2,7.2,34.4,14.4,51.6,21.6c3.6,1.5,8.5-0.3,11.1-2.9
				c2.6-2.6,4.4-7.4,2.9-11.1c-2.7-6.5-6.3-12.2-11.4-17.1c-4.6-4.4-9.8-8.1-15.1-11.5c-11.5-7.6-23.2-15-34.8-22.5
				c-23.5-15.1-47.1-30.1-71-44.7c-13.3-8.1-27.6-16.3-43.7-15.7c-4.8,0.2-9.8,3.4-11,8.3c-0.5,2-0.5,4,0,6c0.6,2.5,2.9,5.7,5.2,6.8
				c25,11.6,49.8,23.4,74.5,35.5c24.2,11.9,48.6,23.7,72.4,36.6c5.9,3.2,11.8,6.6,17.4,10.5c1.3,0.9,2.7,1.9,4,2.8
				c0.3,0.3,0.7,0.5,1,0.8c-0.3-0.3-1.9-1.5-0.8-0.6c0.7,0.5,1.4,1.1,2,1.6c2.7,2.2,5.2,4.6,7.7,7.1c4.6-6,9.2-11.9,13.8-17.9
				c-26.5-14.5-52.9-29.1-79.4-43.7c-26.3-14.5-52.7-29-79-43.6c-14.9-8.2-29.7-16.4-44.6-24.7c-0.9,6.9-1.8,13.9-2.7,20.8
				c2.3-0.8,4.6-1.3,7-1.6c-1,0.1-2,0.3-3,0.4c3.4-0.4,6.9-0.3,10.3,0.1c-1-0.1-2-0.3-3-0.4c6.2,0.8,12.2,2.8,17.9,5.2
				c-0.9-0.4-1.8-0.8-2.7-1.1c10.5,4.5,20.5,10.3,30.6,15.7c10.5,5.6,20.9,11.2,31.4,16.8c21.1,11.3,42.3,22.6,63.4,33.9
				c12,6.4,24,12.8,36,19.2c5.2,2.8,12.6,1.5,15.6-4.1C601,706.7,599.7,699.4,594.1,696.4L594.1,696.4z"/>
		</g>
	</g>
	<g class="st1">
		<g>
			<path class="st0" d="M273.8,456c-0.9,0.4-1.8,0.6-2.8,0.8c1-0.1,2-0.3,3-0.4c-1,0.1-1.9,0.1-2.9,0c1,0.1,2,0.3,3,0.4
				c-1.4-0.2-2.7-0.6-4-1.1c0.9,0.4,1.8,0.8,2.7,1.1c-1.1-0.5-2.2-1.1-3.3-1.7c-0.5-0.3-1-0.8-1.6-1.1c2.6,1.5,1,0.8,0.3,0.2
				c-1.9-1.6-3.6-3.4-5.3-5.3c-1.6-1.8-3.2-3.6-4.7-5.4c-0.4-0.5-0.8-1-1.2-1.5c-1.6-2,0.9,1.3,0.2,0.3c-0.7-1-1.5-2-2.2-3
				c-5.8-8-10.6-16.7-14.5-25.8c0.4,0.9,0.8,1.8,1.1,2.7c-4.4-10.4-7.4-21.2-9-32.3c-0.4-2.6-3.1-5.5-5.2-6.8c-2.4-1.4-6-2-8.8-1.1
				c-2.8,0.9-5.4,2.6-6.8,5.2c-1.5,2.9-1.6,5.6-1.1,8.8c2.1,14.8,6.9,29,13.5,42.4c3.1,6.3,6.8,12.4,10.9,18.2
				c4.5,6.2,9.3,12.4,14.8,17.8c7.5,7.3,19,13.9,29.7,9.6c2.9-1.1,5.2-2.5,6.8-5.2c1.4-2.4,2-6,1.1-8.8c-0.9-2.8-2.6-5.4-5.2-6.8
				C280,455.8,276.6,454.9,273.8,456L273.8,456z"/>
		</g>
	</g>
	<g class="st1">
		<g>
			<path class="st0" d="M181.6,541c-2.5,0.3-4.9,0.3-7.4,0c1,0.1,2,0.3,3,0.4c-3-0.4-5.8-1.2-8.6-2.3c0.9,0.4,1.8,0.8,2.7,1.1
				c-2.1-0.9-4.1-2-6-3.3c-0.4-0.3-0.9-0.6-1.3-0.9c-1.7-1.2,2.2,1.8,0.6,0.5c-0.9-0.8-1.7-1.5-2.6-2.3c-0.8-0.8-1.6-1.6-2.3-2.5
				c-0.6-0.7-1.4-2.3,0.5,0.6c-0.3-0.4-0.6-0.9-0.9-1.3c-1.3-1.9-2.4-3.9-3.3-6c0.4,0.9,0.8,1.8,1.1,2.7c-1.1-2.6-1.8-5.3-2.2-8.1
				c0.1,1,0.3,2,0.4,3c-0.2-1.2-0.2-2.5-0.3-3.7c-0.1-5.9-5.2-11.7-11.4-11.4c-6.1,0.3-11.5,5-11.4,11.4c0.2,12.4,6,24.5,15.3,32.7
				c9.2,8.1,21.6,13.4,34,12c3.1-0.3,5.7-1,8-3.3c2-2,3.5-5.2,3.3-8c-0.1-2.9-1.1-6-3.3-8C187.6,542.5,184.5,540.7,181.6,541
				L181.6,541z"/>
		</g>
	</g>
	<g class="st1">
		<g>
			<path class="st0" d="M140.6,726c-0.5,0.1-0.9,0.1-1.4,0.2c1-0.1,2-0.3,3-0.4c-8.9,1.2-18,1.2-26.9,0.1c1,0.1,2,0.3,3,0.4
				c-5.9-0.8-11.7-2.1-17.3-3.8c-5.7-1.8-12.7,2.1-14,7.9c-1.4,6.2,1.9,12.1,7.9,14c16.8,5.3,34.3,6.1,51.7,3.6
				c2.6-0.4,5.5-3,6.8-5.2c1.4-2.4,2-6,1.1-8.8c-0.9-2.8-2.6-5.4-5.2-6.8C146.5,725.7,143.8,725.6,140.6,726L140.6,726z"/>
		</g>
	</g>
	<g class="st1">
		<g>
			<path class="st0" d="M95.2,857.3c-17.2-1.2-34.4-1.5-51.6-0.7c-5.9,0.3-11.7,5-11.4,11.4c0.3,5.9,5,11.6,11.4,11.4
				c17.2-0.7,34.4-0.5,51.6,0.7c5.9,0.4,11.6-5.5,11.4-11.4C106.3,862.1,101.6,857.7,95.2,857.3L95.2,857.3z"/>
		</g>
	</g>
	<g class="st1">
		<g>
			<path class="st0" d="M248.5,793.6c-0.8-0.1-1.7-0.1-2.5-0.2c1,0.1,2,0.3,3,0.4c-3.4-0.5-6.6-1.4-9.7-2.7c0.9,0.4,1.8,0.8,2.7,1.1
				c-7.1-3.1-13.4-7.7-19.6-12.3c-2.2-1.7-6.2-1.8-8.8-1.1c-2.6,0.7-5.5,2.8-6.8,5.2c-1.4,2.6-2.1,5.8-1.1,8.8c1,3,2.7,4.9,5.2,6.8
				c11.3,8.5,23.1,15.9,37.6,16.9c5.9,0.4,11.6-5.5,11.4-11.4C259.6,798.5,254.9,794,248.5,793.6L248.5,793.6z"/>
		</g>
	</g>
	<g class="st1">
		<g>
			<path class="st0" d="M222.3,935.1c-1.1-0.8-2.2-1.6-3.3-2.4c-0.5-0.4-1.1-0.9-1.6-1.2c2.7,1.7,0.8,0.6,0.1,0.1
				c-2.2-1.8-4.5-3.6-6.6-5.5c-4.2-3.7-8.3-7.6-12.1-11.7c-4.1-4.3-12-4.4-16.1,0c-4.3,4.6-4.4,11.5,0,16.1
				c8.6,9.1,18.1,17.1,28.2,24.4c2.3,1.6,6.2,1.9,8.8,1.1c2.6-0.7,5.5-2.8,6.8-5.2C229.5,944.8,227.5,938.8,222.3,935.1L222.3,935.1
				z"/>
		</g>
	</g>
	<g class="st1">
		<g>
			<path class="st0" d="M416.3,862.1c-19.8-7.2-42-7.8-62.3-2.1c-5.7,1.6-9.8,8.1-7.9,14c1.9,5.9,7.8,9.6,14,7.9
				c4.2-1.2,8.4-2,12.7-2.6c-1,0.1-2,0.3-3,0.4c8.1-1,16.3-1,24.4,0c-1-0.1-2-0.3-3-0.4c6.5,0.9,12.9,2.5,19.1,4.7
				c5.6,2,12.7-2.3,14-7.9C425.7,869.7,422.3,864.3,416.3,862.1L416.3,862.1z"/>
		</g>
	</g>
	<g class="st1">
		<g>
			<path class="st0" d="M392.5,940.6c-4.6,1.6-9.3,2.7-14.2,3.4c1-0.1,2-0.3,3-0.4c-6.4,0.8-12.8,0.8-19.2,0c1,0.1,2,0.3,3,0.4
				c-6.2-0.8-12.2-2.4-17.9-4.8c-2.5-1-6.5-0.2-8.8,1.1c-2.4,1.4-4.6,4.1-5.2,6.8c-0.7,2.9-0.5,6.2,1.1,8.8c1.7,2.7,3.9,4,6.8,5.2
				c17.9,7.3,39.1,7.7,57.4,1.3c5.6-2,9.9-7.9,7.9-14C404.7,943,398.5,938.5,392.5,940.6L392.5,940.6z"/>
		</g>
	</g>
	<g class="st1">
		<g>
			<path class="st0" d="M478.8,882.6c12.6,1.4,25.4,2.5,38,1.3c6.8-0.7,13.7-1.7,20.2-4c7.5-2.6,14-6.3,20.3-11.2
				c2.1-1.7,3.3-5.5,3.3-8c0-2.8-1.2-6.1-3.3-8c-2.2-2-5-3.5-8-3.3c-3.2,0.1-5.5,1.4-8,3.3c3-2.4-0.2,0.1-1,0.6
				c-0.9,0.6-1.8,1.1-2.7,1.7c-1.9,1.1-3.9,2.1-6,2.9c0.9-0.4,1.8-0.8,2.7-1.1c-5.4,2.2-11.1,3.6-16.8,4.4c1-0.1,2-0.3,3-0.4
				c-13.8,1.9-27.8,0.6-41.6-0.9c-2.7-0.3-6.2,1.5-8,3.3c-2,2-3.5,5.2-3.3,8c0.1,2.9,1.1,6,3.3,8
				C473.1,881.4,475.6,882.2,478.8,882.6L478.8,882.6z"/>
		</g>
	</g>
	<g class="st1">
		<g>
			<path class="st0" d="M516.7,967.1c-15.7,0.4-31.4-0.2-47-1.7c-2.7-0.3-6.2,1.5-8,3.3c-2,2-3.5,5.2-3.3,8c0.1,2.9,1.1,6,3.3,8
				c2.3,2.1,4.9,3,8,3.3c15.6,1.5,31.3,2.1,47,1.7c5.9-0.2,11.7-5.1,11.4-11.4C527.8,972.4,523.1,966.9,516.7,967.1L516.7,967.1z"/>
		</g>
	</g>
	<g class="st1">
		<g>
			<path class="st0" d="M270.6,467.5c0,1-0.1,2.1-0.2,3.1c0.1-1,0.3-2,0.4-3c-0.3,2-0.9,4-1.7,5.9c0.4-0.9,0.8-1.8,1.1-2.7
				c-1.3,2.9-3,5.6-4.8,8.2c-0.5,0.7-1,1.4-1.5,2c-0.1,0.1,1.6-2,0.8-1.1c-0.3,0.3-0.5,0.7-0.8,1c-1.1,1.4-2.2,2.7-3.3,4
				c-4.4,5.5-9,10.8-13.7,16c-9.3,10.4-19.1,20.4-29.3,29.9c-5.7,5.3-11.6,10.5-17.6,15.6c-2.1,1.8-3.3,5.4-3.3,8
				c0,2.8,1.2,6.1,3.3,8c4.9,4.5,11.2,4.1,16.1,0c23.9-20,45.9-42.5,65.1-67.1c6.4-8.2,12.2-17.1,12.2-28c0-5.9-5.2-11.6-11.4-11.4
				C275.8,456.4,270.6,461.1,270.6,467.5L270.6,467.5z"/>
		</g>
	</g>
	<g class="st1">
		<g>
			<path class="st0" d="M189.4,552.6c-0.7,2.8-1.7,5.5-2.8,8.2c0.4-0.9,0.8-1.8,1.1-2.7c-1.4,3.2-3,6.2-4.8,9.1
				c-0.5,0.7-1,1.4-1.4,2.1c-0.2,0.3-0.4,0.6-0.7,0.9c-1.3,1.7,0.3-0.7,0.6-0.7c-0.3,0-1.4,1.8-1.6,2c-0.6,0.7-1.1,1.3-1.7,1.9
				c-1.1,1.2-2.3,2.3-3.5,3.5c-0.6,0.6-1.3,1.2-1.9,1.7c-0.4,0.3-0.7,0.6-1.1,0.9c-0.3,0.3-1.5,1.2,0,0c1.6-1.2,0.1-0.1-0.2,0.1
				c-0.3,0.2-0.6,0.4-0.9,0.7c-0.7,0.5-1.4,1-2.2,1.4c-1.5,1-3.1,1.9-4.7,2.7c-5.3,2.7-7.3,10.6-4.1,15.6c3.5,5.4,9.9,7,15.6,4.1
				c17.8-9.1,31.3-26.2,36.4-45.5c1.5-5.7-1.9-12.6-7.9-14C197.4,543.3,191.1,546.4,189.4,552.6L189.4,552.6z"/>
		</g>
	</g>
	<g class="st1">
		<g>
			<path class="st0" d="M155.8,639.6c0.4,0,0.8,0.1,1.2,0.2c-1-0.1-2-0.3-3-0.4c5.1,0.7,10,2.1,14.8,4c-0.9-0.4-1.8-0.8-2.7-1.1
				c3.4,1.4,6.7,3.2,9.8,5.2c0.7,0.4,1.4,0.9,2,1.4c0.4,0.3,0.8,0.6,1.2,0.9c1.1,0.8-1.9-1.6-0.8-0.6c1.5,1.3,3,2.5,4.4,3.9
				c4.3,4.2,11.9,4.6,16.1,0c4.1-4.5,4.6-11.6,0-16.1c-5.4-5.3-11.8-9.9-18.6-13.1c-7.9-3.7-15.7-5.8-24.3-6.9
				c-2.7-0.3-6.2,1.5-8,3.3c-2,2-3.5,5.2-3.3,8c0.1,2.9,1.1,6,3.3,8C150.2,638.5,152.7,639.2,155.8,639.6L155.8,639.6z"/>
		</g>
	</g>
	<g class="st1">
		<g>
			<path class="st0" d="M225.5,695.2c0.2,0,0.4-0.1,0.6-0.1c-1,0.1-2,0.3-3,0.4c2.1-0.3,4.2-0.2,6.3,0c-1-0.1-2-0.3-3-0.4
				c3.2,0.5,6.2,1.4,9.2,2.6c-0.9-0.4-1.8-0.8-2.7-1.1c4.7,2,9.1,4.5,13.5,7c4.7,2.6,9.6,5,14.5,7.2c10.6,4.6,21.4,8.2,32.8,10.5
				c5.6,1.1,11.1-1.2,13.4-6.6c1-2.3,1.3-5,0.6-7.4c-1-3-2.7-4.9-5.2-6.8c-17.6-13.3-35.2-26.7-52.8-40c-2.2-1.7-6.2-1.8-8.8-1.1
				c-2.6,0.7-5.5,2.8-6.8,5.2c-1.4,2.6-2.1,5.8-1.1,8.8c1,3,2.7,4.9,5.2,6.8c17.6,13.3,35.2,26.7,52.8,40c2.9-6.9,5.8-13.9,8.8-20.8
				c-10-2-19.7-5.1-29.1-9c0.9,0.4,1.8,0.8,2.7,1.1c-8.1-3.4-15.6-7.9-23.3-11.9c-4.3-2.2-8.9-4.4-13.6-5.6
				c-5.7-1.5-11.2-1.6-17.1-0.7c-2.6,0.4-5.5,3-6.8,5.2c-1.4,2.4-2,6-1.1,8.8c0.9,2.8,2.6,5.4,5.2,6.8
				C219.6,695.6,222.3,695.7,225.5,695.2L225.5,695.2z"/>
		</g>
	</g>
	<g class="st1">
		<g>
			<path class="st0" d="M346.9,747c4.1,0.4,8.2,0.8,12.3,1.4c-1-0.1-2-0.3-3-0.4c24.4,3.3,48.3,9.9,71,19.4
				c-0.9-0.4-1.8-0.8-2.7-1.1c5.5,2.3,10.9,4.8,16.3,7.5c5.3,2.7,12.6,1.6,15.6-4.1c2.7-5.2,1.6-12.7-4.1-15.6
				c-25.2-12.6-52.1-21.7-79.8-26.5c-8.5-1.5-17-2.6-25.6-3.4c-2.7-0.2-6.2,1.4-8,3.3c-2,2-3.5,5.2-3.3,8
				C335.8,742.2,340.5,746.4,346.9,747L346.9,747z"/>
		</g>
	</g>
	<g class="st1">
		<g>
			<path class="st0" d="M481.7,779.4c24.9-0.6,49.9-1.2,74.6,2.1c-1-0.1-2-0.3-3-0.4c8.7,1.2,17.4,2.9,25.9,5.2
				c5.7,1.6,12.6-1.9,14-7.9c1.4-6-1.8-12.3-7.9-14c-26.3-7.1-53.8-8.4-80.9-8.1c-7.6,0.1-15.1,0.3-22.6,0.5
				c-5.9,0.2-11.7,5.1-11.4,11.4C470.6,774.1,475.4,779.6,481.7,779.4L481.7,779.4z"/>
		</g>
	</g>
	<g class="st1">
		<g>
			<path class="st0" d="M571.2,783.5c-1.4,0.2-2.7,0.5-4.1,0.6c1-0.1,2-0.3,3-0.4c-7.7,1-15.6,0.9-23.3-0.1c1,0.1,2,0.3,3,0.4
				c-6.8-1-13.5-2.7-19.9-5.2c-2.6-1-6.5-0.2-8.8,1.1c-2.4,1.4-4.6,4.1-5.2,6.8c-0.7,2.9-0.5,6.2,1.1,8.8c1.7,2.6,3.9,4.1,6.8,5.2
				c17,6.6,35.5,7.8,53.3,4.6c2.7-0.5,5.5-3,6.8-5.2c1.4-2.4,2-6,1.1-8.8c-0.9-2.8-2.6-5.4-5.2-6.8
				C577.1,783.1,574.4,782.9,571.2,783.5L571.2,783.5z"/>
		</g>
	</g>
</g>
</svg>
