<?xml version="1.0" encoding="utf-8"?>
<!-- Generator: Adobe Illustrator 22.0.1, SVG Export Plug-In . SVG Version: 6.00 Build 0)  -->
<svg version="1.1" id="Layer_1" xmlns="http://www.w3.org/2000/svg" xmlns:xlink="http://www.w3.org/1999/xlink" x="0px" y="0px"
	 viewBox="0 0 3556.3 2642.2" style="enable-background:new 0 0 3556.3 2642.2;" xml:space="preserve">
<style type="text/css">
	.st0{fill:#22F0FF;}
	.st1{opacity:0.3;}
	.st2{opacity:0.3;fill:#22F0FF;enable-background:new    ;}
</style>
<g>
	<g>
		<path class="st0" d="M480,1034.3v48l-284,4c0,0,80-80,116-84s156-4,156-4L480,1034.3z"/>
	</g>
	<g>
		<g>
			<path class="st0" d="M1258.6,1702.5c64.8-8.8,120.5-47.4,167.2-91.1c49.3-46.2,90.5-100.3,141.8-144.4
				c23.1-19.9,48.4-36.5,75-51.4c24.6-13.7,49.7-26.4,74-40.7c23.2-13.7,45.9-29.1,64.8-48.4c9.1-9.3,17.4-19.7,24.2-30.8
				c7.2-11.7,17.2-27.9,13.6-42.1c-6.7-26.3-41.5-15.3-57.1-5.2c-6.5,4.3-12.3,9.7-18.2,14.7c-7.2,6.2-14.5,12.4-21.7,18.6
				c-14.7,12.6-29.5,25.2-44.2,37.8c-7.5,6.4-15,12.8-22.5,19.2c3.3,1.9,6.7,3.9,10,5.8c19.6-61.9,48.9-120.4,86.7-173.2
				c3.9-5.5-5.1-12.5-9.4-7.3c-43.6,53.3-87.3,106.5-130.9,159.8c3.3,1.9,6.7,3.9,10,5.8c7.6-49.2,21.5-97.4,41.5-143
				c2.7-6.1-4.1-12-9.4-7.3c-33.2,29.2-66.4,58.5-99.6,87.7c3.3,1.9,6.7,3.9,10,5.8c6.2-23.8,19.7-44.7,38.7-60.4
				c3.6-3,1.4-8.9-2.6-10c-16.3-4.7-13-28.5-6.7-39.8c5.3-9.3,13.3-16.8,20.2-24.8c7.3-8.4,13.7-17.4,17-28.1c1-3.2-1.2-6.4-4.2-7.4
				c-27.6-9.3-51.9-26.3-70.5-48.6c-5-5.9-13.4,2.6-8.5,8.5c20,23.9,46.4,41.7,75.8,51.7c-1.4-2.5-2.8-4.9-4.2-7.4
				c-7.3,23.4-32.1,35.9-40,59.1c-6,17.7-2.8,42.5,17.8,48.4c-0.9-3.3-1.8-6.7-2.6-10c-20.4,16.9-35.1,40-41.7,65.7
				c-1.6,6,5.6,9.7,10,5.8c33.2-29.2,66.4-58.5,99.6-87.7c-3.1-2.4-6.3-4.8-9.4-7.3c-20.5,46.6-34.9,95.6-42.7,145.9
				c-0.8,5.2,5.8,11,10,5.8c43.6-53.3,87.3-106.5,130.9-159.8c-3.1-2.4-6.3-4.8-9.4-7.3c-38.4,53.6-68.1,113.2-87.9,176.1
				c-1.9,6.1,5.8,9.5,10,5.8c28.2-24.1,56.4-48.3,84.7-72.4c10.4-8.9,20.2-18.4,33.4-23c6.6-2.3,19-5.8,24.1,1.3
				c4.3,6.1,0.5,14.5-2.3,20.4c-2.6,5.7-5.6,11.3-8.9,16.7c-6.6,10.7-14.5,20.4-23.4,29.2c-18.1,18.2-39.6,32.5-61.6,45.5
				c-47.8,28.1-98.4,50.6-141.6,85.9c-50.4,41.2-90.8,92.6-136.8,138.4c-43.1,42.9-93.6,82.9-153.8,97.6c-7.3,1.8-14.8,3.2-22.3,4.2
				c-3.2,0.4-4.9,4.6-4.2,7.4C1252.2,1701.8,1255.4,1702.9,1258.6,1702.5L1258.6,1702.5z"/>
		</g>
	</g>
	<g>
		<path class="st0" d="M296,714.3l8,84l-284,76c0,0,4-64,48-84S296,714.3,296,714.3z"/>
	</g>
	<g>
		<path class="st0" d="M292,442.3l20,88l-312,60c0,0,76-124,148-132S292,442.3,292,442.3z"/>
	</g>
	<g>
		<path class="st0" d="M587.8,51.5l-33.1,89.2l-317.8-37.1c0,0,95.9-103.4,173-98S587.8,51.5,587.8,51.5z"/>
	</g>
	<g>
		<path class="st0" d="M988,1754.3c0,0-304-64-332-4s4,156,48,176s296,16,296,16l-12-160"/>
	</g>
	<g>
		<path d="M3058,2188c-2.4-1.1-243.3-106.4-423.3-173.9c-135.9-51-400.8-36.9-576-27.5c-56.9,3-106.1,5.7-141,5.7
			c-43.1,0-91.6-3.3-147.8-7c-130.5-8.8-292.8-19.7-473.5,6.9c-99.8,14.7-219.7,11.9-329-7.7c-112.2-20.1-201.5-54.8-251.3-97.9
			c-30-25.9-45.2-54.2-45.2-84.2c0-34.3,10-62.2,30.6-85.4c18.4-20.7,45.4-37.3,82.3-50.7c67.4-24.4,160.4-35.9,278.2-50.5
			c8.2-1,16.6-2.1,25-3.1c135.5-16.9,236.9-38.4,310.2-65.7c82-30.5,126.7-68.1,132.9-111.6c5.8-40.7-10.8-78.7-49.3-113.1
			c-25.2-22.5-59.4-43.1-101.4-61.1c-16.6-7.1-101.3-16.5-289.1-21.6c-140.3-3.8-293.8-3.8-373.3,0s-184.8-10.7-274.9-37.7
			c-45.6-13.7-84.3-29.9-112.1-46.8c-33.8-20.6-52.1-42.8-54.4-65.8c-1.6-16,3.2-39.6,35.4-61.4c13.9-9.4,32.2-18.1,54.4-25.8
			c-38.7-1.1-78.3-2.9-106.8-5.8c-32.8-3.3-68.4-12.1-97.7-24.1c-40.1-16.5-67.3-38-80.7-64.1c-14.6-28.3-12.2-59.9,7.2-93.9
			c20.4-35.8,61.7-60.1,123.1-72.6c-28.7-4-55-8-74.8-11.6c-46.2-8.4-79.3-28.5-95.7-58.1c-15.9-28.7-15.6-65.6,0.8-106.7
			C53.1,534.6,90.6,512.3,159,495c56.4-14.3,128.1-23.7,197.4-32.9c46.5-6.1,94.5-12.5,136.6-20.1c70.4-12.8,167.9-18,290-15.4
			c7.7,0.2,15.2,0.3,22.6,0.6c-168.6-46.6-441.7-125.5-500.5-163c-18-11.5-31.6-25.5-40.5-41.7c-8.2-15.2-12.2-31.8-11.6-49.6
			c0.7-24,9.5-48.8,25.5-71.8c14.9-21.5,35.4-40.2,57.8-52.7c8.1-4.5,23.9-8.5,80-4.2c37.1,2.8,87.3,9,149.2,18.3
			c115,17.3,269.7,45.5,435.6,79.4c300,61.3,660.1,146.5,788.2,198.6c141.6,57.5,269.8,169.9,383,269.1
			c82,71.8,159.4,139.6,225.8,171.3c158,75.3,1000.2,509.8,1008.7,514.2l-13.8,26.7c-8.5-4.4-850.2-438.7-1007.8-513.8
			c-70.2-33.4-149.1-102.6-232.7-175.8C2041.1,534.6,1914.8,424,1778,368.3c-125.5-51.3-482-135.6-779.5-196.5
			C833.8,138.1,679.7,110,564.9,92.6c-61.3-9.3-111.1-15.5-148-18.4c-54.2-4.3-64.7-0.1-65.8,0.4c-38.8,21.5-66.7,62.3-67.8,99.1
			c-0.8,26.6,12.1,48.5,38.2,65.1c80.7,51.4,621.4,194.4,626.8,195.8c7.5,2,12.3,9.4,11,17c-1.3,7.7-8.2,13.1-16,12.4
			c-2.8-0.2-281.3-22.3-444.7,7.4c-42.8,7.8-91.3,14.2-138.1,20.4c-68.4,9-139.2,18.4-194,32.2C110,538.4,77.1,556,69,576.3
			c-13.2,32.9-14,60.1-2.4,81c11.9,21.5,37.7,36.4,74.8,43.1c65,11.8,206.1,28.5,263.2,35.1c14.9,1.4,24.1,2.7,25.1,2.9
			c8.1,1.2,13.8,8.6,12.8,16.7c-1,8.1-8.4,13.9-16.5,13c-1.6-0.2-10-1.1-23-2.6c-25.4-2.4-69.2-5.4-115.6-3
			c-63.7,3.3-145.6,17.5-173.6,66.6c-14.2,24.9-16.4,46.3-6.6,65.2c9.9,19.2,32.5,36.5,65.4,50.1c37.9,15.6,75.1,20.6,89.3,22
			c74.4,7.4,232.6,7.5,234.2,7.5c8,0,14.6,6.2,15,14.2s-5.5,14.9-13.4,15.7c-0.5,0.1-52.8,5.8-103.2,20.5
			c-34.4,10-91.8,31.5-88.7,61.9c1.3,12.8,15.6,28.2,40.2,43.2c25.6,15.6,61.9,30.8,105.1,43.7c87.1,26.1,188.5,40.1,264.9,36.4
			c80.2-3.8,234.6-3.8,375.6,0c118.8,3.2,267.4,10,300.1,24c45,19.3,81.9,41.6,109.6,66.3c20.9,18.6,36.6,38.7,46.7,59.7
			c12.2,25.4,16.3,52.3,12.4,80c-4.2,29.4-20.6,56.2-48.7,79.7c-24.8,20.7-59.6,39.4-103.5,55.8c-75.5,28.1-179.2,50.1-317,67.4
			c-8.4,1.1-16.8,2.1-25,3.1c-111.3,13.8-207.4,25.8-271.7,49c-32.1,11.6-55.1,25.5-70.1,42.4c-15.5,17.4-23,38.9-23,65.5
			c0,20.8,11.7,41.5,34.8,61.5c95.1,82.1,355,128.2,556.3,98.6c183.8-27,347.9-16,479.8-7.1c55.6,3.7,103.7,7,145.8,7
			c34.1,0,82.9-2.6,139.4-5.6c89.9-4.8,201.8-10.8,307.9-8.9c125.5,2.2,217.2,14.7,280.2,38.3c180.8,67.8,422.4,173.4,424.8,174.5
			L3058,2188z"/>
	</g>
	<g>
		<path d="M1556.2,1447.6l-22.1-20.3c32.1-35.1,25.1-127.4,17-234.3c-7-92.2-15-196.8-1.6-298.3c11.4-86.4-89.2-188.1-290.8-294
			c-155.9-81.9-317.4-136.8-319-137.4l9.6-28.4c1.6,0.6,165.4,56.2,323.3,139.2c93.3,49,166.6,98,217.7,145.5
			c66.5,61.7,96.4,122,88.9,179.1c-12.9,98.4-5.1,201.3,1.8,292.1C1590,1309.3,1597.2,1403,1556.2,1447.6z"/>
	</g>
	<g>
		<path d="M1330.4,875.7c-47.9,0-137.4-33.5-202.7-57.9c-26.8-10-49.9-18.7-58.2-20.3c-37-7.4-300.3-53.7-333-53.7
			c-34.9,0-304.9,24.2-307.6,24.4l-2.7-29.9c11.2-1,274.1-24.6,310.3-24.6c38.7,0,317.6,50,338.9,54.3c10.6,2.1,32.5,10.3,62.8,21.7
			c59.6,22.3,149.7,56,192.2,56c64.7,0,104.3-2.4,104.6-2.4l1.9,29.9C1435.3,873.3,1396.1,875.7,1330.4,875.7z"/>
	</g>
	<g>
		<path d="M1383.9,1113.4c-6.9,0-21.6-4.7-67.2-30c-55.2-30.6-177.5-69.7-202.2-69.7c-29.2,0-132.5-0.1-234.9-1.5
			c-218.9-3-236.9-9-243.7-11.3c-26.8-8.9-108.6-1-137.9,2.9l-3.9-29.7c11.5-1.5,113.1-14.3,151.3-1.6c16.2,5.4,170,11.2,469.2,11.2
			c34.8,0,162.4,43.2,216.8,73.5c43.1,24,53.4,26.2,53.9,26.2c-0.1,0-2.6-0.5-5.9,0.6l9.4,28.5
			C1387.4,1112.9,1386.1,1113.4,1383.9,1113.4z"/>
	</g>
	<g>
		<path d="M1370.6,1249.1c-0.4-3.6-9.5-88.9,14.7-202c23.6-110.2,55.9-342.1,56.2-344.4l29.7,4.1c-0.3,2.3-32.8,235.3-56.6,346.6
			c-23.1,108-14.3,191.5-14.2,192.4L1370.6,1249.1z"/>
	</g>
	<g>
		<g>
			<path class="st0" d="M1070.2,466.2c-3.7-29.9,0.4-60.4,12.7-87.9c3.1-7-5.8-12.4-10.4-6.1c-28.8,40.6-51.7,85.2-68.1,132.3
				c-2.2,6.3,8.1,10.8,11,4.6C1045,446,1079,385,1117.3,326.8c-3.7-1.5-7.3-3.1-11-4.6c-11.4,30.6-28.9,58.7-51.1,82.6
				c3.3,1.9,6.7,3.9,10,5.8c2.9-8.8,9.4-15.2,17.8-18.8c7.1-3,1-13.4-6.1-10.4c-11.3,4.8-19.5,14.4-23.3,26c-1.9,5.7,6,10.2,10,5.8
				c23.7-25.5,42-55.3,54.2-87.9c2.5-6.6-7.4-10-11-4.6c-38.3,58.3-72.3,119.3-101.9,182.4c3.7,1.5,7.3,3.1,11,4.6
				c16.1-46.1,38.7-89.6,66.9-129.4c-3.5-2-6.9-4-10.4-6.1c-13.2,29.5-18.4,61.9-14.4,94C1059.2,473.8,1071.2,473.9,1070.2,466.2
				L1070.2,466.2z"/>
		</g>
	</g>
	<g>
		<g>
			<path class="st0" d="M644.4,209.6c-18.7,46.4-37.5,92.8-56.2,139.2c3.7-0.5,7.3-1,11-1.4c-2.3-5,3.4-10.7,6.4-14
				c3.9-4.2,8-8.2,11.4-12.8c6.4-8.8,9.6-19.6,11.7-30.1c3.9-19.8,3.5-44.4,20-58.7c-3.4-1.4-6.8-2.8-10.2-4.2
				c-3.9,41.6-18.2,81.7-41.1,116.6c3.7,1.5,7.3,3.1,11,4.6c1.8-9.8,11.4-15.1,18.6-20.9c7.8-6.3,13.1-13.7,16.5-23.1
				c3.3-8.9,4.6-18.3,7-27.4c2.2-8.3,5.3-16.8,12.8-21.6c6.5-4.2,0.5-14.5-6.1-10.4C639,257,638.8,279.5,633,298.1
				c-3.2,10.2-8.8,16.8-17.2,23.3c-8.3,6.5-17.1,13.2-19.1,24.2c-1.2,6.6,7.1,10.5,11,4.6c24.1-36.7,38.6-78.9,42.7-122.6
				c0.5-5.6-6.7-7.3-10.2-4.2c-18.9,16.3-18.7,42.7-23.4,65.3c-2.4,11.7-6.2,22.1-14.5,30.9c-8.9,9.5-19.8,20.1-13.5,34.1
				c2.4,5.3,9.3,2.8,11-1.4c18.7-46.4,37.5-92.8,56.2-139.2C658.9,205.6,647.3,202.5,644.4,209.6L644.4,209.6z"/>
		</g>
	</g>
	<g>
		<g>
			<path class="st0" d="M462,734.3c0-40.9,0-81.8,0-122.8c-4,0-8,0-12,0c1.2,41.6-0.6,83.3-5.4,124.7c4,0,8,0,12,0
				c3.2-48.3,6.3-96.5,9.5-144.8c0.5-7.9-11-7.4-12,0c-6.5,50-5.1,100.5-3.5,150.8c0.2,7.7,12.2,7.7,12,0
				c-1.5-50.3-3-100.8,3.5-150.8c-4,0-8,0-12,0c-3.2,48.3-6.3,96.5-9.5,144.8c-0.5,7.8,11.1,7.5,12,0c4.8-41.4,6.6-83,5.4-124.7
				c-0.2-7.7-12-7.7-12,0c0,40.9,0,81.8,0,122.8C450,742,462,742,462,734.3L462,734.3z"/>
		</g>
	</g>
	<g>
		<g>
			<path class="st0" d="M945.9,650.6c-24,33.2-48.1,66.4-72.1,99.6c3.7,1.5,7.3,3.1,11,4.6c19.7-49.6,49-95.2,85.8-133.8
				c4.8-5.1-1.2-12.4-7.3-9.4c-42.4,21-66.9,63.9-88.7,103.8c3.7,1.5,7.3,3.1,11,4.6c18.5-46.5,44.8-89.8,77.5-127.7
				c-2.8-2.8-5.7-5.7-8.5-8.5c-32,40.2-59,84.2-80,131.1c-3.1,7,7.2,13.1,10.4,6.1c20.6-45.9,46.8-89.3,78.1-128.7
				c4.7-5.9-3.4-14.4-8.5-8.5c-34.2,39.5-61.4,84.4-80.6,133c-2.5,6.4,7.8,10.5,11,4.6c20.9-38.2,43.8-79.4,84.4-99.5
				c-2.4-3.1-4.8-6.3-7.3-9.4c-38.3,40.2-68.4,87.5-88.9,139.1c-2.7,6.8,7.3,9.7,11,4.6c24-33.2,48.1-66.4,72.1-99.6
				C960.8,650.4,950.4,644.4,945.9,650.6L945.9,650.6z"/>
		</g>
	</g>
	<g>
		<g>
			<path class="st0" d="M450.4,894.3c-0.4,37.9-7.4,75.3-20.6,110.9c3.9,0.5,7.9,1.1,11.8,1.6c0.7-52.3,11.7-104.3,32.5-152.4
				c3.1-7.1-5.8-12.4-10.4-6.1c-29.6,40.5-43.2,92-37.4,141.9c0.9,7.6,12.9,7.7,12,0c-5.5-48.1,7.3-96.8,35.8-135.8
				c-3.5-2-6.9-4-10.4-6.1c-21.7,50-33.4,103.9-34.1,158.4c-0.1,7.1,9.5,7.7,11.8,1.6c13.5-36.5,20.6-75.2,21-114.1
				C462.5,886.5,450.5,886.5,450.4,894.3L450.4,894.3z"/>
		</g>
	</g>
	<g>
		<g>
			<path class="st0" d="M864.6,880.1c-13.6,43-25.2,86.7-34.6,130.9c3.9,0.5,7.9,1.1,11.8,1.6c0.3-45.7,7.8-101.2,53.4-124.1
				c-2.4-3.1-4.8-6.3-7.3-9.4c-36.6,31.9-78.3,71.4-73.7,124.6c3.9-0.5,7.9-1.1,11.8-1.6c-0.8-4.7,0.5-9,3.1-12.8
				c4.3-6.4-6.1-12.4-10.4-6.1c-4.5,6.7-5.7,14.2-4.4,22.1c1.1,6.6,12.4,5.1,11.8-1.6c-4.3-49.9,36.1-86.3,70.2-116.1
				c5.4-4.7-1.5-12.3-7.3-9.4c-49.5,24.9-58.9,84.7-59.3,134.5c0,6.6,10.4,8.3,11.8,1.6c9.4-44.2,20.9-87.9,34.6-130.9
				C878.5,875.9,866.9,872.8,864.6,880.1L864.6,880.1z"/>
		</g>
	</g>
	<g>
		<g>
			<path class="st0" d="M1005.8,1126.3c-1.4,41.8-2.8,83.6-4.2,125.4c4,0,8,0,12,0c-4.4-48.8,7.1-98,32.9-139.7
				c-3.5-2-6.9-4-10.4-6.1c-21,40.9-35.4,84.9-42.3,130.4c3.9,0.5,7.9,1.1,11.8,1.6c0.4-48.5,11.1-96.6,31.5-140.5
				c3.2-7-7.1-13.1-10.4-6.1c-21.3,45.9-32.8,95.9-33.2,146.6c-0.1,6.5,10.7,8.4,11.8,1.6c6.7-44.4,20.5-87.5,41.1-127.5
				c3.5-6.8-6.3-12.7-10.4-6.1c-26.8,43.3-39.1,95-34.5,145.8c0.7,7.6,11.7,7.8,12,0c1.4-41.8,2.8-83.6,4.2-125.4
				C1018,1118.5,1006,1118.5,1005.8,1126.3L1005.8,1126.3z"/>
		</g>
	</g>
	<g>
		<g>
			<path class="st0" d="M731,1224.3c-14-43.5-19.7-89.2-16.9-134.9c-4,0-8,0-12,0c3.4,31.6-8.1,61.9-8.6,93.3
				c-0.4,24.2,5.8,50.8,25.8,66.4c4.1,3.2,9.9,1.3,10.2-4.2c2-33.4-1.6-66.9-10.5-99.1c-1.5-5.3-10.6-6.1-11.6,0
				c-6,35.8-7.7,72.2-5,108.4c0.6,7.7,12.6,7.7,12,0c-2.7-35.1-1.2-70.5,4.5-105.2c-3.9,0-7.7,0-11.6,0c8.7,31.3,12,63.5,10.1,95.9
				c3.4-1.4,6.8-2.8,10.2-4.2c-18.9-14.7-23.2-39.6-22.2-62.3c1.4-29.9,11.7-58.8,8.4-88.9c-0.8-7.6-11.5-7.8-12,0
				c-2.8,46.6,3.1,93.6,17.3,138C721.8,1234.8,733.3,1231.7,731,1224.3L731,1224.3z"/>
		</g>
	</g>
	<g class="st1">
		<path class="st0" d="M1260,586.3c0,0,57,33,117,70.5s123,79.5,135,97.5s24,51,33,87s15,75,15,105s1,91,2.5,150.5
			s3.5,117.5,5.5,141.5s-4,64-10.5,98s-13.5,62-13.5,62s-14-25-33-51.5s-43-54.5-63-60.5s-48-20-71-32.5s-41-23.5-41-23.5
			s92-28,80-268C1411.4,869.7,1260,586.3,1260,586.3z"/>
	</g>
	<g>
		<path class="st0" d="M3404,1289.9c-107.9-56.5-214.3,105.7-335.6,346.3s-118.1,653.8,81,538.1c199-115.7,308.4-162.2,383.1-459.8
			C3604.2,1428.4,3500,1340.1,3404,1289.9z"/>
	</g>
</g>
<path class="st2" d="M2726.4,1516.1c-98.1,0,10.9,403.4-163.6,392.5s21.8-327.1,10.9-545.2s-207.2,87.2-272.6,229
	s135.2,482.9,48,657.4s-319.2,19.6-232-144s42.2-960.4-88.6-971.3s-109,970.4-239.9,1046.8s-272.6-229-87.2-381.6
	s163.6-567,130.8-708.7s-261.7,109-294.4,338s-174.5,316.2-327.1,294.4s54.5-348.9,98.1-490.7S1287.1,960,1178,949.1
	c-109-10.9-163.6,207.2-119.9,381.6c43.6,174.5-43.6,272.6-130.8,250.8s-98.1-185.4-54.5-316.2s10.9-425.2,10.9-577.9
	S741.9,872.8,698.3,938.2c-43.6,65.4,32.7,436.2,32.7,588.8s-218.1-21.8-261.7-130.8s196.3-796,54.5-872.3s-141.7,458-174.5,523.4
	s10.9,512.5,10.9,512.5s0,0-98.1,141.7s-272.6-98.1-119.9-370.7S172.5,67.4,262.1,21.8c178-90.6,1121.7,122.3,1427,243
	c183.5,72.5,520.2,355,635,436c204,144,528.3,324.6,577.4,335.5S2726.4,1516.1,2726.4,1516.1z"/>
<g class="st1">
	<path class="st0" d="M3115.8,1529.8c48.3,136-18.7,82.8-24.9,234.3s21.1,302.9,15.4,454.5c-3,81.3-24.2,173.8-108.5,215.4
		c-20.3,10-46,16.2-67.4,8c-13.8-5.3-23.7-15.7-32.1-26.2c-33.1-41.3-52-90.2-54.1-139.8c-3.7-88.4,44.5-172,64.7-258.9
		c20.1-86.9-0.3-193.9-95.5-233.8c-122.8,68-141.1,208.2-156.5,329.9c-12.3,97.5-30.4,194.5-54,290.6
		c-13.2,53.9-28.9,108.7-65,154.8s-96.7,82.6-163.1,81.7c-14.4-0.2-29.7-2.5-40-10.8c-12.7-10.3-14.1-26.6-14.2-41.3
		c-1.2-219.3,121.2-424.7,177.4-639c20.6-78.5,24.3-175.5-54-222.9c-51.5-31.2-125.2-28.4-181.5-3.6s-97.7,68.1-129.2,114.1
		c-83.7,121.6-108.2,263.9-146.9,400.2c-38.7,136.3-99,277.3-230.5,365.2c-40.8,27.3-94.7,49.3-144.5,35.6
		c-50.6-13.8-78-59.3-89.3-102.4c-12.6-48.3-11.7-99.1,4-146.8c33.1-100.6,127-179.2,179.2-274s40.2-233.8-77.3-271.1
		c-21.4-6.8-46-9.3-66.9-1.3c-30.8,11.7-43.9,41.4-55,67.9c-60.2,143.9-148.6,279.3-256.7,402.5c-34.6,39.4-74.3,79.5-129.9,95.4
		s-129.9-4.2-143.8-51.5c-8-27.1,5-55.1,18.2-80.7c61.2-118.5,133.8-233,216.7-342c77.5-101.8,177.2-206.3,319.6-230.3
		c54.8-9.3,117.8-79.6,171-93.8c100.3-26.8,180.6-1125.6,264-1072c560,360,422.4,287.4,648,376c224,88,438.6,242.5,536,280
		C3295.9,1250.3,3043.5,1464,3115.8,1529.8"/>
</g>
</svg>
