<?xml version="1.0" encoding="utf-8"?>
<!-- Generator: Adobe Illustrator 23.0.3, SVG Export Plug-In . SVG Version: 6.00 Build 0)  -->
<svg version="1.1" id="Layer_1" xmlns="http://www.w3.org/2000/svg" xmlns:xlink="http://www.w3.org/1999/xlink" x="0px" y="0px"
	 viewBox="0 0 360 718" style="enable-background:new 0 0 360 718;" xml:space="preserve">
<style type="text/css">
	.st0{fill:#DEFFE2;}
	.st1{fill:none;}
	.st2{fill:#FFFFFF;}
	.st3{fill:#F2F2F2;}
</style>
<rect x="17.7" y="16.3" class="st0" width="325.8" height="672.4"/>
<g id="XMLID_52_">
	<path id="XMLID_158_" class="st1" d="M306.6,19h-28.5c-6.1,0-8.3-0.8-8.7,6.9c-0.2,4-1.7,7-4,9.5c-2.4,2.5-5.6,4.7-9.3,5.8
		c-2.5,0.8-5.3,1.7-8,1.7h-5.4H121.9h-5.4c-2.7,0-5.5-1-8-1.8c-3.7-1.2-7-3.3-9.3-5.8c-2.4-2.6-3.8-5.5-4-9.5c-0.4-7.7-2.6-7-8.7-7
		H57.7C40.2,19,25,31.4,25,48.8v613.3c0,17.5,15.2,32.9,32.6,32.9h249c17.5,0,30.4-15.4,30.4-32.9V48.8C337,31.4,324.1,19,306.6,19z
		"/>
	<path id="XMLID_156_" class="st2" d="M356,163V50.6C356,21.8,333.6,0,304.8,0H56C27.2,0,3,21.9,3,50.6V94H0v27h3v25H0v51h3v15H0v51
		h3v401.4C3,693.2,27.3,718,56,718h248.8c28.8,0,51.2-24.8,51.2-53.6V246h4v-83H356z M222.3,22.5c0,2.4-2,4.4-4.4,4.4
		s-4.4-2-4.4-4.4s2-4.4,4.4-4.4S222.3,20.1,222.3,22.5z M162.8,22h39c1.7,0,3,1,3,2.5s-1.3,2.5-3,2.5h-39c-1.7,0-3-1-3-2.5
		S161.1,22,162.8,22z M337,662.1c0,17.5-12.9,32.9-30.4,32.9h-249C40.1,695,25,679.6,25,662.1V48.8C25,31.4,40.2,19,57.6,19h28.8
		c6.1,0,8.3-0.9,8.7,6.8c0.2,4,1.7,7,4,9.6c2.4,2.5,5.6,4.8,9.3,5.9c2.5,0.8,5.3,1.7,8,1.7h5.4h120.7h5.4c2.7,0,5.5-1.1,8-1.9
		c3.7-1.2,7-3.2,9.3-5.7c2.4-2.5,3.8-5.4,4-9.4c0.4-7.7,2.6-7.1,8.7-7.1h28.5c17.5,0,30.4,12.4,30.4,29.8v613.4H337z"/>
	<path id="XMLID_159_" class="st3" d="M201.8,22h-39c-1.7,0-3,1-3,2.5s1.3,2.5,3,2.5h39c1.7,0,3-1,3-2.5S203.4,22,201.8,22z"/>
	<circle id="XMLID_51_" class="st3" cx="217.9" cy="22.5" r="4.4"/>
</g>
<g>
	<path d="M66.9,173.9c-4.2,0-7.4-0.9-9.4-2.6c-2-1.8-3-4-3-6.9c0-1.5,0.4-2.7,1.3-3.5c0.8-0.9,1.9-1.3,3.3-1.3c0.2,3.3,1,6,2.5,8
		c1.4,2.1,3.4,3.1,5.8,3.1c2.3,0,4.1-0.8,5.4-2.3c1.3-1.5,1.9-3.7,1.9-6.4c0-2-0.3-3.6-1-4.9c-0.7-1.3-1.7-2.5-3-3.6
		c-1.4-1.1-3.1-2.2-5.1-3.3c-3.3-1.9-5.7-3.9-7.3-6.2c-1.6-2.3-2.4-5.3-2.4-9.2c0-2.5,0.5-4.6,1.6-6.5c1.1-1.8,2.6-3.3,4.4-4.3
		c1.9-1,3.9-1.5,6.2-1.5c2.3,0,4.3,0.4,5.9,1.2c1.6,0.8,2.8,1.8,3.7,3c0.8,1.2,1.3,2.5,1.3,3.7c0,1.5-0.4,2.6-1.2,3.3
		c-0.8,0.7-2,1-3.6,1c0-2.3-0.5-4.4-1.6-6.2c-1.1-1.8-2.8-2.7-5-2.7c-2.1,0-3.6,0.7-4.7,2.2c-1.1,1.5-1.6,3.5-1.6,6
		c0,1.7,0.3,3.1,0.8,4.3c0.5,1.2,1.4,2.3,2.7,3.4c1.3,1,3,2.2,5.2,3.3c3.4,1.9,6,3.9,7.7,6.1c1.8,2.2,2.6,5.2,2.6,8.9
		c0,4.4-1.2,7.8-3.7,10.2S70.8,173.9,66.9,173.9z"/>
	<path d="M98.6,173.9c-4.2,0-7.5-1.7-9.8-5c-2.3-3.4-3.4-8.1-3.4-14.1c0-6.6,1.1-11.5,3.3-14.8c2.2-3.3,5.3-4.9,9.3-4.9
		c3.7,0,6.6,1.4,8.7,4.3c2.1,2.9,3.2,7.1,3.2,12.6v2.8H91.5c0,5.2,0.8,9.1,2.2,11.6c1.4,2.5,3.5,3.7,6.1,3.7c1.9,0,3.5-0.5,4.8-1.6
		c1.3-1.1,2.2-2.4,2.9-3.9c0.4,0.2,0.7,0.5,1,0.8c0.3,0.4,0.4,0.9,0.4,1.5c0,1-0.4,2-1.1,3.1c-0.7,1.1-1.8,2-3.4,2.8
		C102.9,173.5,101,173.9,98.6,173.9z M91.6,151.3h12.3c0-3.8-0.5-6.9-1.4-9.3c-0.9-2.4-2.3-3.5-4.4-3.5c-2.1,0-3.7,1.1-4.8,3.3
		C92.3,144,91.7,147.2,91.6,151.3z"/>
	<path d="M113.4,173.2v-2.9h0.7c1.4,0,2.4-0.3,3.2-0.9s1.2-2,1.2-4.2v-37.5c0-2.1-0.5-3.4-1.4-3.9c-0.9-0.6-1.9-0.8-3-0.8h-0.7V120
		h11.1v45.2c0,2.2,0.4,3.6,1.2,4.2c0.8,0.6,1.9,0.9,3.2,0.9h0.6v2.9H113.4z"/>
	<path d="M131.7,173.2v-2.9h0.8c0.7,0,1.5-0.1,2.1-0.4c0.7-0.2,1.2-0.7,1.6-1.4c0.4-0.7,0.6-1.8,0.6-3.3V139h-5v-3.4h5v-3.6
		c0-4.2,0.9-7.3,2.7-9.5c1.8-2.2,4.4-3.3,7.9-3.3c2.8,0,4.7,0.5,5.8,1.4c1.1,0.9,1.7,2.1,1.7,3.4c0,1.2-0.4,2.1-1.2,2.9
		c-0.8,0.7-1.9,1.1-3.5,1.1c0-1.4-0.2-2.8-0.6-4s-1.3-1.8-2.7-1.8c-1.4,0-2.5,0.8-3.1,2.4c-0.6,1.6-0.9,3.8-0.9,6.7v4.2h7.8v3.4H143
		v26.2c0,2.2,0.4,3.6,1.3,4.2c0.9,0.6,1.9,0.9,3.1,0.9h2.2v2.9H131.7z"/>
	<path d="M152.7,156.7v-5.1h14.4v5.1H152.7z"/>
	<path d="M54,243.2v-2.9h1.3c1.2,0,2.1-0.3,2.8-0.9c0.7-0.6,1.1-2,1.1-4v-34.5c0-2-0.4-3.3-1.2-3.9c-0.8-0.6-1.8-0.9-3-0.9H54v-2.9
		h17.3c5.8,0,10.4,2.2,13.6,6.6c3.2,4.4,4.9,10.5,4.9,18.5c0,5.1-0.7,9.6-2.1,13.3c-1.4,3.7-3.4,6.6-6.2,8.6c-2.7,2-6.1,3-10.3,3H54
		z M65.6,239.7H70c4.2,0,7.4-1.8,9.6-5.5c2.1-3.7,3.2-9,3.2-15.9c0-7-1.1-12.4-3.2-16.1c-2.1-3.7-5.3-5.6-9.5-5.6h-4.4V239.7z"/>
	<path d="M109,243.9c-4.2,0-7.5-1.7-9.8-5c-2.3-3.4-3.4-8.1-3.4-14.1c0-6.6,1.1-11.5,3.3-14.8c2.2-3.3,5.3-4.9,9.3-4.9
		c3.7,0,6.6,1.4,8.7,4.3c2.1,2.9,3.2,7.1,3.2,12.6v2.8H102c0,5.2,0.8,9.1,2.2,11.6c1.4,2.5,3.5,3.7,6.1,3.7c1.9,0,3.5-0.5,4.8-1.6
		c1.3-1.1,2.2-2.4,2.9-3.9c0.4,0.2,0.7,0.5,1,0.8c0.3,0.4,0.4,0.9,0.4,1.5c0,1-0.4,2-1.1,3.1c-0.7,1.1-1.8,2-3.4,2.8
		C113.4,243.5,111.4,243.9,109,243.9z M102,221.3h12.3c0-3.8-0.5-6.9-1.4-9.3c-0.9-2.4-2.3-3.5-4.4-3.5c-2.1,0-3.7,1.1-4.8,3.3
		C102.7,214,102.1,217.2,102,221.3z"/>
	<path d="M124.4,243.2v-2.9h0.8c0.7,0,1.5-0.1,2.1-0.4c0.7-0.2,1.2-0.7,1.6-1.4c0.4-0.7,0.6-1.8,0.6-3.3V209h-5v-3.4h5V203
		c0-2.7,0.5-5,1.4-7.1c0.9-2.1,2.4-3.8,4.4-5c2-1.2,4.6-1.8,7.9-1.8c4.2,0,7.1,0.6,8.8,1.8c1.7,1.2,2.5,2.5,2.5,4.1
		c0,2.8-1.8,4.1-5.4,4.1c0-1.1-0.2-2.2-0.6-3.3c-0.4-1-1-1.9-1.9-2.6c-0.9-0.7-2.2-1-3.8-1c-2,0-3.5,0.6-4.5,1.9
		c-1,1.2-1.7,2.8-2.1,4.6c-0.4,1.8-0.6,3.7-0.6,5.6v1.5h19.5v29.5c0,2.2,0.4,3.6,1.2,4.2c0.8,0.6,1.8,0.9,3.1,0.9h0.7v2.9h-15.7
		v-2.9h0.6c1.3,0,2.3-0.3,3-0.9c0.7-0.6,1-1.9,1-4V209h-13.4v26.2c0,2.2,0.4,3.6,1.3,4.2c0.9,0.6,1.9,0.9,3.1,0.9h0.9v2.9H124.4z"/>
	<path d="M162.5,243.2v-2.9h0.5c1.3,0,2.3-0.3,3.1-0.9c0.8-0.6,1.3-2,1.3-4.2v-22c0-2.1-0.4-3.4-1.3-3.9s-1.8-0.8-3-0.8h-0.3v-2.9
		h9.7l0.7,5.7h0.3c0.9-2.4,2.1-4,3.5-5c1.4-1,3.1-1.4,5.1-1.4c2.9,0,5.2,1.1,6.8,3.3c1.6,2.2,2.4,5.7,2.4,10.5v16.5
		c0,2.2,0.4,3.6,1.1,4.2c0.7,0.6,1.7,0.9,2.9,0.9h0.3v2.9h-10.4v-24.3c0-3-0.4-5.3-1.2-7.1c-0.8-1.7-2.2-2.6-4.1-2.6
		c-1.6,0-2.9,0.5-3.9,1.6c-1,1.1-1.6,2.5-2,4.3c-0.4,1.8-0.6,3.6-0.6,5.6v14.9c0,2.1,0.4,3.4,1.2,3.9c0.8,0.5,1.8,0.8,3,0.8h0.4v2.9
		H162.5z"/>
	<path d="M213.3,243.9c-4.2,0-7.5-1.7-9.8-5c-2.3-3.4-3.4-8.1-3.4-14.1c0-6.6,1.1-11.5,3.3-14.8c2.2-3.3,5.3-4.9,9.3-4.9
		c3.7,0,6.6,1.4,8.7,4.3c2.1,2.9,3.2,7.1,3.2,12.6v2.8h-18.4c0,5.2,0.8,9.1,2.2,11.6c1.4,2.5,3.5,3.7,6.1,3.7c1.9,0,3.5-0.5,4.8-1.6
		c1.3-1.1,2.2-2.4,2.9-3.9c0.4,0.2,0.7,0.5,1,0.8c0.3,0.4,0.4,0.9,0.4,1.5c0,1-0.4,2-1.1,3.1c-0.7,1.1-1.8,2-3.4,2.8
		C217.6,243.5,215.7,243.9,213.3,243.9z M206.3,221.3h12.3c0-3.8-0.5-6.9-1.4-9.3c-0.9-2.4-2.3-3.5-4.4-3.5c-2.1,0-3.7,1.1-4.8,3.3
		C207,214,206.4,217.2,206.3,221.3z"/>
	<path d="M241.3,243.9c-3.5,0-6.3-1.6-8.2-4.7c-1.9-3.1-2.9-8-2.9-14.7c0-6.8,1-11.7,2.9-14.8c1.9-3.1,4.7-4.7,8.4-4.7
		c2.1,0,3.9,0.6,5.1,1.7c1.3,1.1,2.3,2.6,3.1,4.4h0.3c0-1.1-0.1-2.2-0.1-3.5c0-1.3,0-2.5,0-3.9v-6.1c0-2.1-0.5-3.4-1.4-4
		c-0.9-0.6-2-0.8-3.2-0.8h-0.4V190h11v45.4c0,2.1,0.4,3.4,1.2,4c0.8,0.6,1.8,0.9,3.1,0.9h0.6v2.9h-9.9l-0.7-6.4H250
		c-0.9,2.2-2,3.9-3.4,5.2C245.3,243.3,243.5,243.9,241.3,243.9z M242.8,240c2.5,0,4.3-1.4,5.4-4.2c1.1-2.8,1.6-6.6,1.6-11.3
		c0-5-0.5-8.9-1.5-11.6c-1-2.7-2.9-4.1-5.6-4.1c-2.3,0-3.9,1.4-4.9,4.1c-1,2.7-1.5,6.6-1.5,11.7c0,5.2,0.5,9.1,1.5,11.6
		C238.8,238.8,240.5,240,242.8,240z"/>
</g>
<g>
	<path d="M48,349.9v-1.1h0.5c0.5,0,0.9-0.1,1.2-0.4c0.3-0.3,0.6-0.8,0.9-1.7l6-16h2.1l6.1,16.7c0.2,0.6,0.4,0.9,0.7,1.1
		c0.3,0.2,0.7,0.3,1.2,0.3h0.4v1.1h-7.4v-1.1h0.6c1.1,0,1.6-0.4,1.6-1.3c0-0.1,0-0.3-0.1-0.5s-0.1-0.3-0.2-0.5l-1.1-3h-7.1l-1,2.8
		c-0.2,0.4-0.2,0.8-0.2,1.2c0,0.9,0.6,1.3,1.8,1.3h0.6v1.1H48z M54,342.1h6.1l-1.7-4.7c-0.3-0.8-0.5-1.5-0.8-2.2
		c-0.2-0.7-0.4-1.4-0.6-2c-0.1,0.6-0.3,1.3-0.5,1.9c-0.2,0.6-0.5,1.3-0.8,2.2L54,342.1z"/>
	<path d="M74.9,349.9v-1.1h0.4c0.6,0,1.1-0.1,1.5-0.3c0.4-0.2,0.6-0.8,0.6-1.6v-8.4c0-0.8-0.2-1.3-0.6-1.5c-0.4-0.2-0.9-0.3-1.5-0.3
		h-0.1v-1.1h4.2l0.4,2.2h0.1c0.5-1,1.1-1.7,1.8-2c0.7-0.3,1.4-0.5,2.3-0.5c0.9,0,1.6,0.2,2.3,0.6c0.7,0.4,1.2,1,1.6,1.9h0.2
		c0.5-1,1.2-1.7,1.9-2c0.7-0.3,1.5-0.5,2.3-0.5c1.4,0,2.4,0.4,3.2,1.3c0.8,0.8,1.2,2.2,1.2,4v6.4c0,0.8,0.2,1.4,0.6,1.6
		c0.4,0.2,0.9,0.3,1.5,0.3h0.1v1.1h-4.7v-9.3c0-1.2-0.2-2.1-0.6-2.7s-1.2-1-2.2-1c-0.8,0-1.4,0.2-1.8,0.6c-0.4,0.4-0.7,0.9-0.9,1.5
		c-0.2,0.6-0.3,1.3-0.3,2v5.9c0,0.8,0.2,1.4,0.6,1.6c0.4,0.2,0.9,0.3,1.5,0.3h0.1v1.1h-4.7v-9.3c0-1.2-0.2-2.1-0.6-2.7
		c-0.4-0.6-1.2-1-2.2-1c-0.8,0-1.4,0.2-1.9,0.6c-0.5,0.4-0.8,0.9-1,1.6c-0.2,0.7-0.3,1.4-0.3,2.2v5.7c0,0.8,0.2,1.3,0.7,1.5
		c0.4,0.2,1,0.3,1.6,0.3h0.1v1.1H74.9z"/>
	<path d="M107.4,350.2c-1.9,0-3.5-0.6-4.6-1.9c-1.1-1.2-1.7-3.1-1.7-5.7c0-2.5,0.5-4.4,1.6-5.6c1.1-1.2,2.7-1.8,4.7-1.8
		c1.9,0,3.5,0.6,4.6,1.8c1.1,1.2,1.7,3.1,1.7,5.6c0,2.5-0.5,4.4-1.6,5.7S109.4,350.2,107.4,350.2z M107.4,348.8
		c1.3,0,2.3-0.5,2.8-1.6c0.5-1,0.8-2.6,0.8-4.6s-0.3-3.5-0.8-4.5c-0.6-1-1.5-1.5-2.9-1.5s-2.3,0.5-2.8,1.5c-0.5,1-0.8,2.5-0.8,4.5
		s0.3,3.5,0.8,4.6C105.1,348.3,106.1,348.8,107.4,348.8z"/>
	<path d="M122.2,350.2c-1.8,0-3.1-0.6-4.1-1.8c-0.9-1.2-1.4-3.1-1.4-5.7c0-2.6,0.5-4.5,1.4-5.7c0.9-1.2,2.3-1.8,4.1-1.8
		c1,0,1.9,0.2,2.6,0.7c0.7,0.4,1.2,1,1.6,1.7h0.2c-0.1-0.4-0.1-0.9-0.1-1.5s0-1,0-1.5v-2.2c0-0.8-0.2-1.3-0.7-1.5
		c-0.4-0.2-1-0.3-1.6-0.3h-0.2v-1.1h5V347c0,0.8,0.2,1.3,0.7,1.5c0.4,0.2,1,0.3,1.6,0.3h0.2v1.1h-4.6l-0.3-2.4h-0.1
		c-0.4,0.8-0.9,1.5-1.6,2S123.2,350.2,122.2,350.2z M122.6,348.5c1.4,0,2.4-0.5,2.9-1.4c0.5-0.9,0.8-2.4,0.8-4.3
		c0-1.9-0.3-3.3-0.8-4.3s-1.5-1.5-2.9-1.5c-1.2,0-2,0.5-2.6,1.5s-0.8,2.4-0.8,4.3c0,1.9,0.3,3.3,0.8,4.3S121.4,348.5,122.6,348.5z"
		/>
	<path d="M139.5,350.2c-2,0-3.5-0.6-4.6-1.9s-1.7-3.1-1.7-5.5c0-2.5,0.5-4.4,1.6-5.7c1-1.3,2.5-1.9,4.4-1.9c1.7,0,3.1,0.5,4.1,1.6
		s1.5,2.7,1.5,4.8v1.2h-9c0,2,0.4,3.4,1.1,4.3c0.7,0.9,1.7,1.3,3,1.3c0.9,0,1.7-0.2,2.4-0.6c0.7-0.4,1.1-0.8,1.5-1.3
		c0.1,0.1,0.2,0.2,0.4,0.3s0.2,0.4,0.2,0.6c0,0.4-0.2,0.7-0.5,1.2s-0.9,0.8-1.6,1.1C141.5,350,140.6,350.2,139.5,350.2z
		 M135.9,341.4h6.2c0-1.4-0.2-2.6-0.7-3.5c-0.4-0.9-1.2-1.3-2.3-1.3c-1,0-1.8,0.4-2.3,1.2C136.3,338.7,136,339.9,135.9,341.4z"/>
	<path d="M147.1,349.9v-1.1h0.1c0.6,0,1.1-0.1,1.6-0.3c0.4-0.2,0.6-0.8,0.6-1.6v-8.4c0-0.8-0.2-1.3-0.7-1.5c-0.4-0.2-1-0.3-1.6-0.3
		h-0.1v-1.1h4.2l0.5,2.7h0.1c0.2-0.5,0.5-1,0.8-1.5c0.3-0.4,0.6-0.8,1.1-1.1c0.4-0.3,1.1-0.4,1.9-0.4c1,0,1.7,0.2,2.2,0.5
		c0.5,0.3,0.7,0.8,0.7,1.5c0,0.6-0.2,1-0.6,1.4c-0.4,0.4-1,0.5-1.9,0.5c0-0.7-0.1-1.3-0.3-1.6c-0.2-0.3-0.6-0.5-1.1-0.5
		c-0.5,0-0.9,0.2-1.3,0.6c-0.3,0.4-0.6,0.9-0.8,1.5c-0.2,0.6-0.3,1.2-0.4,1.9c-0.1,0.7-0.1,1.2-0.1,1.8v4.2c0,0.8,0.2,1.3,0.7,1.5
		c0.4,0.2,1,0.3,1.6,0.3h0.8v1.1H147.1z"/>
	<path d="M159.7,349.9v-1.1h0.2c0.6,0,1.1-0.1,1.6-0.3c0.4-0.2,0.6-0.8,0.6-1.6v-8.4c0-0.8-0.2-1.3-0.6-1.5
		c-0.4-0.2-0.9-0.3-1.5-0.3h-0.1v-1.1h4.4l0.4,2.2h0.1c0.6-1,1.2-1.7,1.9-2c0.7-0.3,1.5-0.5,2.3-0.5c1.4,0,2.5,0.4,3.3,1.3
		s1.2,2.2,1.2,4v6.4c0,0.8,0.2,1.4,0.6,1.6c0.4,0.2,0.9,0.3,1.5,0.3h0.1v1.1h-4.7v-9.3c0-1.2-0.2-2.1-0.7-2.7s-1.2-1-2.3-1
		c-0.8,0-1.5,0.2-1.9,0.6c-0.5,0.4-0.8,0.9-1,1.6c-0.2,0.7-0.3,1.4-0.3,2.2v5.7c0,0.8,0.2,1.3,0.6,1.5s0.9,0.3,1.5,0.3h0.1v1.1
		H159.7z"/>
	<path d="M190.4,350.2c-1.8,0-3.1-0.6-4.1-1.8c-0.9-1.2-1.4-3.1-1.4-5.7c0-2.6,0.5-4.5,1.4-5.7c0.9-1.2,2.3-1.8,4.1-1.8
		c1,0,1.9,0.2,2.6,0.7c0.7,0.4,1.2,1,1.6,1.7h0.2c-0.1-0.4-0.1-0.9-0.1-1.5c0-0.5,0-1,0-1.5v-2.2c0-0.8-0.2-1.3-0.7-1.5
		c-0.4-0.2-1-0.3-1.6-0.3h-0.2v-1.1h5V347c0,0.8,0.2,1.3,0.7,1.5c0.4,0.2,1,0.3,1.6,0.3h0.2v1.1h-4.6l-0.3-2.4h-0.1
		c-0.4,0.8-0.9,1.5-1.6,2C192.3,350,191.4,350.2,190.4,350.2z M190.8,348.5c1.4,0,2.4-0.5,2.9-1.4c0.5-0.9,0.8-2.4,0.8-4.3
		c0-1.9-0.3-3.3-0.8-4.3c-0.5-1-1.5-1.5-2.9-1.5c-1.2,0-2,0.5-2.6,1.5c-0.5,1-0.8,2.4-0.8,4.3c0,1.9,0.3,3.3,0.8,4.3
		C188.7,348,189.6,348.5,190.8,348.5z"/>
	<path d="M200.6,349.9v-1.1h0.4c0.6,0,1.1-0.1,1.6-0.3s0.7-0.7,0.7-1.5v-8.6c0-0.8-0.2-1.3-0.7-1.5c-0.4-0.2-1-0.3-1.6-0.3h-0.1
		v-1.1h4.8v11.4c0,0.8,0.2,1.4,0.6,1.6c0.4,0.2,1,0.3,1.6,0.3h0.4v1.1H200.6z M204.3,332.8c-0.4,0-0.8-0.1-1.1-0.4s-0.4-0.7-0.4-1.3
		c0-0.6,0.1-1.1,0.4-1.3s0.7-0.4,1.1-0.4c0.4,0,0.8,0.1,1.1,0.4c0.3,0.2,0.5,0.7,0.5,1.3c0,0.6-0.2,1-0.5,1.3
		C205.1,332.6,204.7,332.8,204.3,332.8z"/>
	<path d="M216.2,350.2c-1.2,0-2.3-0.3-3.2-0.8c-0.9-0.5-1.6-1.3-2.2-2.4c-0.5-1.1-0.8-2.5-0.8-4.3c0-1.9,0.3-3.4,0.8-4.5
		c0.5-1.1,1.2-1.9,2.1-2.3c0.9-0.5,1.9-0.7,3.1-0.7c0.8,0,1.5,0.1,2.2,0.3c0.7,0.2,1.3,0.5,1.8,0.9c0.5,0.4,0.7,0.9,0.7,1.5
		c0,0.6-0.2,1-0.6,1.3c-0.4,0.3-1,0.4-1.8,0.4c0-0.8-0.2-1.6-0.5-2.2c-0.3-0.6-0.9-0.9-1.8-0.9c-0.7,0-1.3,0.2-1.8,0.5
		c-0.5,0.4-0.9,1-1.2,1.9s-0.4,2.2-0.4,3.8c0,1.9,0.3,3.3,1,4.3s1.7,1.4,3.1,1.4c0.8,0,1.6-0.2,2.2-0.5c0.6-0.4,1.1-0.8,1.4-1.4
		c0.3,0.3,0.5,0.6,0.5,1.1c0,0.4-0.2,0.8-0.5,1.2c-0.3,0.4-0.8,0.7-1.5,1C218.1,350.1,217.2,350.2,216.2,350.2z"/>
	<path d="M228.3,350.2c-1.4,0-2.4-0.3-3-0.9c-0.6-0.6-0.9-1.7-0.9-3.3v-9h-2.1v-1.1c0.3,0,0.7-0.1,1.1-0.2c0.4-0.1,0.7-0.4,1-0.7
		c0.3-0.3,0.6-0.7,0.8-1.2c0.2-0.5,0.4-1,0.5-1.7h1.2v3.3h3.5v1.5H227v9.1c0,0.9,0.2,1.6,0.6,2c0.4,0.4,0.9,0.6,1.5,0.6
		c0.3,0,0.6,0,0.9-0.1c0.3,0,0.5-0.1,0.8-0.1v1.2c-0.2,0.1-0.6,0.2-1.1,0.3C229.2,350.1,228.8,350.2,228.3,350.2z"/>
	<path d="M232,349.9v-1.1h0.4c0.6,0,1.1-0.1,1.6-0.3s0.7-0.7,0.7-1.5v-8.6c0-0.8-0.2-1.3-0.7-1.5c-0.4-0.2-1-0.3-1.6-0.3h-0.1v-1.1
		h4.8v11.4c0,0.8,0.2,1.4,0.6,1.6c0.4,0.2,1,0.3,1.6,0.3h0.4v1.1H232z M235.7,332.8c-0.4,0-0.8-0.1-1.1-0.4
		c-0.3-0.3-0.4-0.7-0.4-1.3c0-0.6,0.1-1.1,0.4-1.3c0.3-0.2,0.7-0.4,1.1-0.4c0.4,0,0.8,0.1,1.1,0.4s0.5,0.7,0.5,1.3
		c0,0.6-0.2,1-0.5,1.3S236.1,332.8,235.7,332.8z"/>
	<path d="M247.8,350.2c-1.9,0-3.5-0.6-4.6-1.9c-1.1-1.2-1.7-3.1-1.7-5.7c0-2.5,0.5-4.4,1.6-5.6c1.1-1.2,2.7-1.8,4.7-1.8
		c1.9,0,3.5,0.6,4.6,1.8c1.1,1.2,1.7,3.1,1.7,5.6c0,2.5-0.5,4.4-1.6,5.7S249.8,350.2,247.8,350.2z M247.8,348.8
		c1.4,0,2.3-0.5,2.8-1.6s0.8-2.6,0.8-4.6s-0.3-3.5-0.8-4.5s-1.5-1.5-2.9-1.5c-1.4,0-2.3,0.5-2.8,1.5c-0.5,1-0.8,2.5-0.8,4.5
		s0.3,3.5,0.8,4.6C245.5,348.3,246.5,348.8,247.8,348.8z"/>
	<path d="M256.3,349.9v-1.1h0.2c0.6,0,1.1-0.1,1.6-0.3c0.4-0.2,0.6-0.8,0.6-1.6v-8.4c0-0.8-0.2-1.3-0.6-1.5
		c-0.4-0.2-0.9-0.3-1.5-0.3h-0.1v-1.1h4.4l0.4,2.2h0.1c0.6-1,1.2-1.7,1.9-2c0.7-0.3,1.5-0.5,2.3-0.5c1.4,0,2.5,0.4,3.3,1.3
		c0.8,0.8,1.2,2.2,1.2,4v6.4c0,0.8,0.2,1.4,0.6,1.6c0.4,0.2,0.9,0.3,1.5,0.3h0.1v1.1h-4.7v-9.3c0-1.2-0.2-2.1-0.7-2.7
		c-0.4-0.6-1.2-1-2.3-1c-0.8,0-1.5,0.2-1.9,0.6c-0.5,0.4-0.8,0.9-1,1.6s-0.3,1.4-0.3,2.2v5.7c0,0.8,0.2,1.3,0.6,1.5s0.9,0.3,1.5,0.3
		h0.1v1.1H256.3z"/>
	<path d="M278.5,350.2c-1.2,0-2.2-0.4-3-1.1s-1.2-1.8-1.2-3.3c0-1.4,0.5-2.5,1.5-3.2c1-0.7,2.6-1.1,4.6-1.1l2.2-0.1v-1.6
		c0-0.6-0.1-1.2-0.2-1.7s-0.3-0.9-0.7-1.2s-0.9-0.4-1.6-0.4c-0.7,0-1.2,0.1-1.6,0.4s-0.6,0.6-0.7,1.1s-0.2,1-0.2,1.5
		c-0.8,0-1.3-0.1-1.7-0.4c-0.4-0.3-0.6-0.7-0.6-1.3c0-0.6,0.2-1.1,0.7-1.5c0.4-0.4,1-0.7,1.8-0.8c0.7-0.2,1.5-0.3,2.4-0.3
		c1.7,0,2.9,0.4,3.7,1.1c0.8,0.7,1.2,1.9,1.2,3.6v7c0,0.8,0.1,1.3,0.4,1.5c0.3,0.3,0.7,0.4,1.3,0.4h0.1v1.1h-3.6l-0.4-2.3h-0.2
		c-0.4,0.5-0.7,1-1.1,1.3s-0.8,0.7-1.3,0.9S279.3,350.2,278.5,350.2z M279.2,348.5c1.1,0,2-0.3,2.6-1c0.6-0.7,1-1.6,1-2.7v-2.2
		l-1.7,0.1c-1.5,0.1-2.6,0.4-3.2,0.9s-0.9,1.4-0.9,2.4C277,347.7,277.7,348.5,279.2,348.5z"/>
	<path d="M289.1,349.9v-1.1h0.1c0.6,0,1.1-0.1,1.6-0.3c0.4-0.2,0.6-0.8,0.6-1.6v-8.4c0-0.8-0.2-1.3-0.7-1.5c-0.4-0.2-1-0.3-1.6-0.3
		h-0.1v-1.1h4.2l0.5,2.7h0.1c0.2-0.5,0.5-1,0.8-1.5c0.3-0.4,0.6-0.8,1.1-1.1c0.4-0.3,1.1-0.4,1.9-0.4c1,0,1.7,0.2,2.2,0.5
		c0.5,0.3,0.7,0.8,0.7,1.5c0,0.6-0.2,1-0.6,1.4c-0.4,0.4-1,0.5-1.9,0.5c0-0.7-0.1-1.3-0.3-1.6c-0.2-0.3-0.6-0.5-1.1-0.5
		c-0.5,0-0.9,0.2-1.3,0.6c-0.3,0.4-0.6,0.9-0.8,1.5c-0.2,0.6-0.3,1.2-0.4,1.9c-0.1,0.7-0.1,1.2-0.1,1.8v4.2c0,0.8,0.2,1.3,0.7,1.5
		c0.4,0.2,1,0.3,1.6,0.3h0.8v1.1H289.1z"/>
	<path d="M301.9,356.4v-1.3c1.2,0,2.2-0.2,3-0.7c0.8-0.5,1.4-1.1,1.9-1.9c0.5-0.8,0.9-1.7,1.2-2.7l-5-11.8c-0.3-0.6-0.5-0.9-0.8-1.1
		s-0.6-0.3-1.2-0.3H301v-1.1h6.5v1.1h-0.1c-1.1,0-1.6,0.4-1.6,1.3c0,0.3,0.1,0.6,0.2,1l2,4.8c0.2,0.4,0.4,0.9,0.5,1.4s0.3,1,0.5,1.4
		c0.1,0.5,0.2,0.8,0.3,1.1c0.1-0.5,0.3-1,0.5-1.6c0.2-0.6,0.4-1.1,0.6-1.7l1.8-5.3c0.2-0.4,0.2-0.8,0.2-1.2c0-0.9-0.6-1.3-1.8-1.3
		h-0.1v-1.1h5.6v1.1h-0.1c-0.5,0-0.9,0.1-1.2,0.4c-0.3,0.3-0.6,0.8-0.9,1.7l-4.1,11.3c-0.5,1.3-0.9,2.4-1.3,3.2
		c-0.4,0.8-0.9,1.5-1.4,1.9c-0.5,0.5-1.2,0.8-2,1c-0.8,0.2-1.8,0.3-3,0.3H301.9z"/>
	<path d="M53.6,382.6c-1.2,0-2.2-0.4-3-1.1c-0.8-0.7-1.2-1.8-1.2-3.3c0-1.4,0.5-2.5,1.5-3.2c1-0.7,2.6-1.1,4.6-1.1l2.2-0.1v-1.6
		c0-0.6-0.1-1.2-0.2-1.7s-0.3-0.9-0.7-1.2s-0.9-0.4-1.6-0.4c-0.7,0-1.2,0.1-1.6,0.4c-0.4,0.3-0.6,0.6-0.7,1.1
		c-0.1,0.5-0.2,1-0.2,1.5c-0.8,0-1.3-0.1-1.7-0.4c-0.4-0.3-0.6-0.7-0.6-1.3c0-0.6,0.2-1.1,0.7-1.5c0.4-0.4,1-0.7,1.8-0.8
		s1.5-0.3,2.4-0.3c1.7,0,2.9,0.4,3.7,1.1c0.8,0.7,1.2,1.9,1.2,3.6v7c0,0.8,0.1,1.3,0.4,1.5c0.3,0.3,0.7,0.4,1.3,0.4h0.1v1.1h-3.6
		L58,380h-0.2c-0.4,0.5-0.7,1-1.1,1.3c-0.4,0.4-0.8,0.7-1.3,0.9C54.9,382.5,54.3,382.6,53.6,382.6z M54.2,380.9c1.1,0,2-0.3,2.6-1
		c0.6-0.7,1-1.6,1-2.7V375l-1.7,0.1c-1.5,0.1-2.6,0.4-3.2,0.9c-0.6,0.5-0.9,1.4-0.9,2.4C52,380.1,52.7,380.9,54.2,380.9z"/>
	<path d="M72.8,382.6c-1,0-1.9-0.2-2.6-0.7c-0.7-0.4-1.2-1-1.6-1.7h-0.2l-0.5,2.1h-4.3v-1.1h0.2c0.6,0,1.1-0.1,1.6-0.3
		c0.4-0.2,0.6-0.8,0.6-1.6v-14.5c0-0.8-0.2-1.3-0.7-1.5c-0.4-0.2-1-0.3-1.6-0.3h-0.2v-1.1h5v5c0,0.3,0,0.7,0,1.2c0,0.5,0,0.9,0,1.4
		c0,0.4,0,0.8-0.1,1h0.1c0.4-0.8,0.9-1.5,1.6-2c0.6-0.5,1.5-0.7,2.6-0.7c1.8,0,3.1,0.6,4.1,1.8c0.9,1.2,1.4,3.1,1.4,5.7
		c0,2.6-0.5,4.5-1.4,5.7C76,382,74.6,382.6,72.8,382.6z M72.4,380.9c1.2,0,2-0.5,2.6-1.5c0.5-1,0.8-2.4,0.8-4.3
		c0-1.9-0.3-3.3-0.8-4.3c-0.5-1-1.4-1.4-2.6-1.4c-1.4,0-2.4,0.5-2.9,1.4c-0.5,0.9-0.8,2.4-0.8,4.3c0,1.9,0.3,3.3,0.8,4.3
		S71,380.9,72.4,380.9z"/>
	<path d="M87.6,382.6c-1.9,0-3.5-0.6-4.6-1.9c-1.1-1.2-1.7-3.1-1.7-5.7c0-2.5,0.5-4.4,1.6-5.6c1.1-1.2,2.7-1.8,4.7-1.8
		c1.9,0,3.5,0.6,4.6,1.8c1.1,1.2,1.7,3.1,1.7,5.6c0,2.5-0.5,4.4-1.6,5.7S89.6,382.6,87.6,382.6z M87.6,381.2c1.3,0,2.3-0.5,2.8-1.6
		c0.5-1,0.8-2.6,0.8-4.6s-0.3-3.5-0.8-4.5c-0.6-1-1.5-1.5-2.9-1.5s-2.3,0.5-2.8,1.5c-0.5,1-0.8,2.5-0.8,4.5s0.3,3.5,0.8,4.6
		C85.3,380.7,86.3,381.2,87.6,381.2z"/>
	<path d="M102.8,382.6c-1.4,0-2.5-0.4-3.3-1.3c-0.8-0.8-1.2-2.2-1.2-4v-6.5c0-0.8-0.2-1.3-0.7-1.5c-0.4-0.2-1-0.3-1.6-0.3H96v-1.1
		h4.8v9.3c0,1.2,0.2,2.1,0.6,2.7c0.4,0.6,1.1,1,2.2,1c1.2,0,2.1-0.4,2.6-1.2s0.8-1.9,0.8-3.2v-5.6c0-0.8-0.2-1.4-0.6-1.6
		c-0.4-0.2-1-0.3-1.6-0.3h-0.1v-1.1h4.8v11.5c0,0.8,0.2,1.3,0.7,1.5c0.4,0.2,1,0.3,1.6,0.3h0.1v1.1h-4.3l-0.4-2.2h-0.1
		c-0.6,1-1.2,1.7-1.9,2C104.5,382.4,103.7,382.6,102.8,382.6z"/>
	<path d="M119,382.6c-1.4,0-2.4-0.3-3-0.9s-0.9-1.7-0.9-3.3v-9h-2.1v-1.1c0.3,0,0.7-0.1,1.1-0.2c0.4-0.1,0.7-0.4,1-0.7
		c0.3-0.3,0.6-0.7,0.8-1.2c0.2-0.5,0.4-1,0.5-1.7h1.2v3.3h3.5v1.5h-3.5v9.1c0,0.9,0.2,1.6,0.6,2c0.4,0.4,0.9,0.6,1.5,0.6
		c0.3,0,0.6,0,0.9-0.1s0.5-0.1,0.8-0.1v1.2c-0.2,0.1-0.6,0.2-1.1,0.3C119.9,382.6,119.5,382.6,119,382.6z"/>
	<path d="M136.4,382.6c-1.4,0-2.5-0.4-3.3-1.3c-0.8-0.8-1.2-2.2-1.2-4v-6.5c0-0.8-0.2-1.3-0.7-1.5c-0.4-0.2-1-0.3-1.6-0.3h-0.1v-1.1
		h4.8v9.3c0,1.2,0.2,2.1,0.6,2.7c0.4,0.6,1.1,1,2.2,1c1.2,0,2.1-0.4,2.6-1.2s0.8-1.9,0.8-3.2v-5.6c0-0.8-0.2-1.4-0.6-1.6
		c-0.4-0.2-1-0.3-1.6-0.3h-0.1v-1.1h4.8v11.5c0,0.8,0.2,1.3,0.7,1.5c0.4,0.2,1,0.3,1.6,0.3h0.1v1.1h-4.3l-0.4-2.2h-0.1
		c-0.6,1-1.2,1.7-1.9,2C138.1,382.4,137.3,382.6,136.4,382.6z"/>
	<path d="M151.9,382.6c-1.4,0-2.4-0.2-3.2-0.7s-1.2-1.2-1.2-2.1c0-0.5,0.1-0.9,0.3-1.1c0.2-0.3,0.4-0.5,0.7-0.6s0.5-0.2,0.7-0.2
		c0,1,0.2,1.8,0.6,2.4c0.4,0.7,1.2,1,2.3,1c1,0,1.7-0.2,2.2-0.7c0.5-0.4,0.8-1,0.8-1.8c0-0.4-0.1-0.8-0.3-1.1s-0.5-0.6-1-0.9
		c-0.5-0.3-1.2-0.6-2-1c-0.9-0.4-1.7-0.8-2.3-1.2c-0.6-0.4-1.1-0.8-1.4-1.3s-0.4-1.2-0.4-1.9c0-1.2,0.5-2.2,1.4-2.8
		c0.9-0.7,2.2-1,3.7-1c1.3,0,2.3,0.2,2.9,0.7s1,1.1,1,1.7c0,0.5-0.2,0.9-0.5,1.2c-0.3,0.3-0.8,0.4-1.4,0.4c0-0.9-0.2-1.6-0.6-2.1
		s-1-0.8-1.8-0.8c-0.9,0-1.6,0.2-2,0.6c-0.4,0.4-0.6,0.9-0.6,1.6c0,0.7,0.3,1.2,0.8,1.6c0.5,0.4,1.4,0.8,2.6,1.3
		c1,0.4,1.7,0.8,2.3,1.2c0.6,0.4,1,0.9,1.3,1.4c0.3,0.5,0.4,1.2,0.4,1.9c0,1.4-0.5,2.5-1.5,3.2C154.7,382.2,153.5,382.6,151.9,382.6
		z"/>
	<path d="M161.8,382.5c-0.5,0-0.9-0.1-1.2-0.4c-0.3-0.3-0.5-0.7-0.5-1.4c0-0.7,0.2-1.2,0.5-1.4c0.3-0.3,0.7-0.4,1.2-0.4
		c0.4,0,0.8,0.1,1.2,0.4c0.3,0.3,0.5,0.7,0.5,1.4c0,0.7-0.2,1.2-0.5,1.4C162.6,382.4,162.2,382.5,161.8,382.5z"/>
	<path d="M179.6,382.3l-4.9-16.7c-0.2-0.6-0.4-0.9-0.7-1.1c-0.3-0.2-0.7-0.3-1.2-0.3h-0.4V363h7.4v1.1h-0.6c-1.1,0-1.6,0.4-1.6,1.3
		c0,0.1,0,0.3,0.1,0.5c0,0.2,0.1,0.3,0.1,0.5l2.5,8.6c0.2,0.8,0.5,1.6,0.6,2.4c0.2,0.8,0.4,1.5,0.5,2.2c0.1-0.7,0.3-1.5,0.5-2.3
		c0.2-0.8,0.4-1.7,0.6-2.6l3.2-11.6h1.9l3.4,11.7c0.3,0.9,0.5,1.8,0.7,2.6c0.2,0.8,0.4,1.5,0.5,2.2c0.1-0.6,0.3-1.3,0.5-2.1
		c0.2-0.7,0.4-1.5,0.6-2.4l2.4-8.3c0.1-0.2,0.1-0.5,0.2-0.8c0.1-0.3,0.1-0.5,0.1-0.6c0-0.9-0.6-1.3-1.8-1.3h-0.6V363h6.6v1.1h-0.5
		c-0.5,0-0.9,0.1-1.2,0.4c-0.3,0.3-0.6,0.8-0.8,1.7l-4.6,16h-2.4l-4.4-15.1l-4.1,15.1H179.6z"/>
	<path d="M206.6,382.6c-2,0-3.5-0.6-4.6-1.9c-1.1-1.3-1.7-3.1-1.7-5.5c0-2.5,0.5-4.4,1.6-5.7c1-1.3,2.5-1.9,4.4-1.9
		c1.7,0,3.1,0.5,4.1,1.6s1.5,2.7,1.5,4.8v1.2h-9c0,2,0.4,3.4,1.1,4.3c0.7,0.9,1.7,1.3,3,1.3c0.9,0,1.7-0.2,2.4-0.6
		c0.7-0.4,1.1-0.8,1.5-1.3c0.1,0.1,0.2,0.2,0.4,0.3c0.1,0.2,0.2,0.4,0.2,0.6c0,0.4-0.2,0.7-0.5,1.2s-0.9,0.8-1.6,1.1
		S207.6,382.6,206.6,382.6z M203,373.8h6.2c0-1.4-0.2-2.6-0.7-3.5s-1.2-1.3-2.3-1.3c-1,0-1.8,0.4-2.3,1.2
		C203.4,371.1,203.1,372.3,203,373.8z"/>
	<path d="M227.3,382.6c-1.8,0-3.1-0.6-4.1-1.8s-1.4-3.1-1.4-5.7c0-2.6,0.5-4.5,1.4-5.7s2.3-1.8,4.1-1.8c1,0,1.9,0.2,2.6,0.7
		c0.7,0.4,1.2,1,1.6,1.7h0.2c-0.1-0.4-0.1-0.9-0.1-1.5c0-0.5,0-1,0-1.5v-2.2c0-0.8-0.2-1.3-0.7-1.5c-0.4-0.2-1-0.3-1.6-0.3H229v-1.1
		h5v17.5c0,0.8,0.2,1.3,0.7,1.5s1,0.3,1.6,0.3h0.2v1.1h-4.6l-0.3-2.4h-0.1c-0.4,0.8-0.9,1.5-1.6,2
		C229.2,382.4,228.3,382.6,227.3,382.6z M227.7,380.9c1.4,0,2.4-0.5,2.9-1.4c0.5-0.9,0.8-2.4,0.8-4.3c0-1.9-0.3-3.3-0.8-4.3
		s-1.5-1.5-2.9-1.5c-1.2,0-2,0.5-2.6,1.5c-0.5,1-0.8,2.4-0.8,4.3c0,1.9,0.3,3.3,0.8,4.3C225.7,380.4,226.5,380.9,227.7,380.9z"/>
	<path d="M244.6,382.6c-2,0-3.5-0.6-4.6-1.9s-1.7-3.1-1.7-5.5c0-2.5,0.5-4.4,1.6-5.7c1-1.3,2.5-1.9,4.4-1.9c1.7,0,3.1,0.5,4.1,1.6
		s1.5,2.7,1.5,4.8v1.2h-9c0,2,0.4,3.4,1.1,4.3c0.7,0.9,1.7,1.3,3,1.3c0.9,0,1.7-0.2,2.4-0.6c0.7-0.4,1.1-0.8,1.5-1.3
		c0.1,0.1,0.2,0.2,0.4,0.3c0.1,0.2,0.2,0.4,0.2,0.6c0,0.4-0.2,0.7-0.5,1.2c-0.3,0.4-0.9,0.8-1.6,1.1S245.7,382.6,244.6,382.6z
		 M241,373.8h6.2c0-1.4-0.2-2.6-0.7-3.5c-0.4-0.9-1.2-1.3-2.3-1.3c-1,0-1.8,0.4-2.3,1.2C241.4,371.1,241.1,372.3,241,373.8z"/>
	<path d="M252,382.3v-1.1h0.4c0.6,0,1.1-0.1,1.6-0.3c0.4-0.2,0.6-0.8,0.6-1.6v-10.1h-2.5v-1.3h2.5V367c0-1.7,0.5-3,1.6-4.1
		c1-1.1,2.7-1.6,4.9-1.6c1.7,0,2.9,0.2,3.8,0.6c0.8,0.4,1.3,0.9,1.3,1.6c0,0.5-0.2,0.9-0.7,1.3c-0.5,0.3-1,0.5-1.8,0.5
		c0-0.4-0.1-0.8-0.3-1.2c-0.2-0.4-0.5-0.8-0.9-1.1c-0.4-0.3-1.1-0.5-1.8-0.5c-0.9,0-1.7,0.2-2.1,0.6c-0.5,0.4-0.8,1-1,1.6
		c-0.2,0.7-0.3,1.4-0.3,2.1v0.8h9.2v11.4c0,0.8,0.2,1.4,0.6,1.6c0.4,0.2,1,0.3,1.6,0.3h0.4v1.1h-7.4v-1.1h0.1c0.6,0,1.1-0.1,1.6-0.3
		s0.7-0.7,0.7-1.5v-10.3h-6.6v10.1c0,0.8,0.2,1.4,0.6,1.6c0.4,0.2,1,0.3,1.6,0.3h0.5v1.1H252z"/>
	<path d="M270,382.3v-1.1h0.2c0.6,0,1.1-0.1,1.6-0.3c0.4-0.2,0.6-0.8,0.6-1.6v-8.4c0-0.8-0.2-1.3-0.6-1.5c-0.4-0.2-0.9-0.3-1.5-0.3
		h-0.1v-1.1h4.4l0.4,2.2h0.1c0.6-1,1.2-1.7,1.9-2c0.7-0.3,1.5-0.5,2.3-0.5c1.4,0,2.5,0.4,3.3,1.3c0.8,0.8,1.2,2.2,1.2,4v6.4
		c0,0.8,0.2,1.4,0.6,1.6c0.4,0.2,0.9,0.3,1.5,0.3h0.1v1.1h-4.7V373c0-1.2-0.2-2.1-0.7-2.7c-0.4-0.6-1.2-1-2.3-1
		c-0.8,0-1.5,0.2-1.9,0.6c-0.5,0.4-0.8,0.9-1,1.6s-0.3,1.4-0.3,2.2v5.7c0,0.8,0.2,1.3,0.6,1.5s0.9,0.3,1.5,0.3h0.1v1.1H270z"/>
	<path d="M294.4,382.6c-2,0-3.5-0.6-4.6-1.9s-1.7-3.1-1.7-5.5c0-2.5,0.5-4.4,1.6-5.7c1-1.3,2.5-1.9,4.4-1.9c1.7,0,3.1,0.5,4.1,1.6
		s1.5,2.7,1.5,4.8v1.2h-9c0,2,0.4,3.4,1.1,4.3c0.7,0.9,1.7,1.3,3,1.3c0.9,0,1.7-0.2,2.4-0.6c0.7-0.4,1.1-0.8,1.5-1.3
		c0.1,0.1,0.2,0.2,0.4,0.3c0.1,0.2,0.2,0.4,0.2,0.6c0,0.4-0.2,0.7-0.5,1.2c-0.3,0.4-0.9,0.8-1.6,1.1S295.4,382.6,294.4,382.6z
		 M290.8,373.8h6.2c0-1.4-0.2-2.6-0.7-3.5c-0.4-0.9-1.2-1.3-2.3-1.3c-1,0-1.8,0.4-2.3,1.2C291.2,371.1,290.9,372.3,290.8,373.8z"/>
	<path d="M55.8,415c-1.9,0-3.5-0.6-4.6-1.9c-1.1-1.2-1.7-3.1-1.7-5.7c0-2.5,0.5-4.4,1.6-5.6c1.1-1.2,2.7-1.8,4.7-1.8
		c1.9,0,3.5,0.6,4.6,1.8c1.1,1.2,1.7,3.1,1.7,5.6c0,2.5-0.5,4.4-1.6,5.7S57.9,415,55.8,415z M55.8,413.6c1.3,0,2.3-0.5,2.8-1.6
		c0.5-1,0.8-2.6,0.8-4.6s-0.3-3.5-0.8-4.5c-0.6-1-1.5-1.5-2.9-1.5s-2.3,0.5-2.8,1.5c-0.5,1-0.8,2.5-0.8,4.5s0.3,3.5,0.8,4.6
		C53.5,413.1,54.5,413.6,55.8,413.6z"/>
	<path d="M71,415c-1.4,0-2.5-0.4-3.3-1.3c-0.8-0.8-1.2-2.2-1.2-4v-6.5c0-0.8-0.2-1.3-0.7-1.5c-0.4-0.2-1-0.3-1.6-0.3h-0.1v-1.1h4.8
		v9.3c0,1.2,0.2,2.1,0.6,2.7c0.4,0.6,1.1,1,2.2,1c1.2,0,2.1-0.4,2.6-1.2s0.8-1.9,0.8-3.2v-5.6c0-0.8-0.2-1.4-0.6-1.6
		c-0.4-0.2-1-0.3-1.6-0.3H73v-1.1h4.8v11.5c0,0.8,0.2,1.3,0.7,1.5c0.4,0.2,1,0.3,1.6,0.3h0.1v1.1h-4.3l-0.4-2.2h-0.1
		c-0.6,1-1.2,1.7-1.9,2C72.7,414.8,71.9,415,71,415z"/>
	<path d="M81.7,414.7v-1.1h0.1c0.6,0,1.1-0.1,1.6-0.3c0.4-0.2,0.6-0.8,0.6-1.6v-8.4c0-0.8-0.2-1.3-0.7-1.5c-0.4-0.2-1-0.3-1.6-0.3
		h-0.1v-1.1h4.2l0.5,2.7h0.1c0.2-0.5,0.5-1,0.8-1.5c0.3-0.4,0.6-0.8,1.1-1.1c0.4-0.3,1.1-0.4,1.9-0.4c1,0,1.7,0.2,2.2,0.5
		c0.5,0.3,0.7,0.8,0.7,1.5c0,0.6-0.2,1-0.6,1.4c-0.4,0.4-1,0.5-1.9,0.5c0-0.7-0.1-1.3-0.3-1.6c-0.2-0.3-0.6-0.5-1.1-0.5
		c-0.5,0-0.9,0.2-1.3,0.6c-0.3,0.4-0.6,0.9-0.8,1.5c-0.2,0.6-0.3,1.2-0.4,1.9c-0.1,0.7-0.1,1.2-0.1,1.8v4.2c0,0.8,0.2,1.3,0.7,1.5
		c0.4,0.2,1,0.3,1.6,0.3h0.8v1.1H81.7z"/>
	<path d="M106.1,414.7l-3.5-11.9c-0.2-0.6-0.4-0.9-0.7-1.1c-0.3-0.2-0.7-0.3-1.2-0.3h-0.1v-1.1h6.7v1.1h-0.4c-0.5,0-0.9,0.1-1.2,0.2
		c-0.3,0.2-0.4,0.5-0.4,0.9c0,0.1,0,0.3,0.1,0.5s0.1,0.4,0.1,0.6l1.3,4.5c0.1,0.4,0.2,0.9,0.4,1.4c0.1,0.5,0.2,1,0.4,1.5
		s0.2,0.9,0.2,1.2h0.1c0.1-0.5,0.2-1,0.4-1.8c0.2-0.7,0.4-1.4,0.7-2.1l2.8-8.2h1.7l2.7,8c0.1,0.4,0.3,0.9,0.5,1.4
		c0.2,0.5,0.3,1,0.4,1.5s0.2,0.8,0.3,1.1h0.1c0.2-0.9,0.5-2.2,1.1-3.9l1.3-4.3c0.1-0.2,0.1-0.5,0.2-0.7c0-0.3,0.1-0.5,0.1-0.6
		c0-0.9-0.6-1.3-1.8-1.3H118v-1.1h5.8v1.1h-0.4c-0.5,0-0.9,0.1-1.2,0.4c-0.3,0.3-0.6,0.8-0.8,1.7l-3.5,11.2h-2.2l-3.7-11.3
		l-3.8,11.3H106.1z"/>
	<path d="M131.5,415c-1.9,0-3.5-0.6-4.6-1.9c-1.1-1.2-1.7-3.1-1.7-5.7c0-2.5,0.5-4.4,1.6-5.6c1.1-1.2,2.7-1.8,4.7-1.8
		c1.9,0,3.5,0.6,4.6,1.8c1.1,1.2,1.7,3.1,1.7,5.6c0,2.5-0.5,4.4-1.6,5.7S133.6,415,131.5,415z M131.6,413.6c1.3,0,2.3-0.5,2.8-1.6
		c0.5-1,0.8-2.6,0.8-4.6s-0.3-3.5-0.8-4.5c-0.6-1-1.5-1.5-2.9-1.5s-2.3,0.5-2.8,1.5c-0.5,1-0.8,2.5-0.8,4.5s0.3,3.5,0.8,4.6
		C129.3,413.1,130.2,413.6,131.6,413.6z"/>
	<path d="M140.2,414.7v-1.1h0.1c0.6,0,1.1-0.1,1.6-0.3c0.4-0.2,0.6-0.8,0.6-1.6v-8.4c0-0.8-0.2-1.3-0.7-1.5c-0.4-0.2-1-0.3-1.6-0.3
		h-0.1v-1.1h4.2l0.5,2.7h0.1c0.2-0.5,0.5-1,0.8-1.5c0.3-0.4,0.6-0.8,1.1-1.1c0.4-0.3,1.1-0.4,1.9-0.4c1,0,1.7,0.2,2.2,0.5
		c0.5,0.3,0.7,0.8,0.7,1.5c0,0.6-0.2,1-0.6,1.4c-0.4,0.4-1,0.5-1.9,0.5c0-0.7-0.1-1.3-0.3-1.6c-0.2-0.3-0.6-0.5-1.1-0.5
		c-0.5,0-0.9,0.2-1.3,0.6c-0.3,0.4-0.6,0.9-0.8,1.5c-0.2,0.6-0.3,1.2-0.4,1.9c-0.1,0.7-0.1,1.2-0.1,1.8v4.2c0,0.8,0.2,1.3,0.7,1.5
		c0.4,0.2,1,0.3,1.6,0.3h0.8v1.1H140.2z"/>
	<path d="M159.1,415c-1.8,0-3.1-0.6-4.1-1.8c-0.9-1.2-1.4-3.1-1.4-5.7c0-2.6,0.5-4.5,1.4-5.7c0.9-1.2,2.3-1.8,4.1-1.8
		c1,0,1.9,0.2,2.6,0.7c0.7,0.4,1.2,1,1.6,1.7h0.2c-0.1-0.4-0.1-0.9-0.1-1.5s0-1,0-1.5v-2.2c0-0.8-0.2-1.3-0.7-1.5
		c-0.4-0.2-1-0.3-1.6-0.3h-0.2v-1.1h5v17.5c0,0.8,0.2,1.3,0.7,1.5c0.4,0.2,1,0.3,1.6,0.3h0.2v1.1h-4.6l-0.3-2.4h-0.1
		c-0.4,0.8-0.9,1.5-1.6,2S160.1,415,159.1,415z M159.5,413.3c1.4,0,2.4-0.5,2.9-1.4c0.5-0.9,0.8-2.4,0.8-4.3c0-1.9-0.3-3.3-0.8-4.3
		s-1.5-1.5-2.9-1.5c-1.2,0-2,0.5-2.6,1.5s-0.8,2.4-0.8,4.3c0,1.9,0.3,3.3,0.8,4.3S158.3,413.3,159.5,413.3z"/>
	<path d="M174.3,415c-1.4,0-2.4-0.2-3.2-0.7s-1.2-1.2-1.2-2.1c0-0.5,0.1-0.9,0.3-1.1c0.2-0.3,0.4-0.5,0.7-0.6s0.5-0.2,0.7-0.2
		c0,1,0.2,1.8,0.6,2.4c0.4,0.7,1.2,1,2.3,1c1,0,1.7-0.2,2.2-0.7c0.5-0.4,0.8-1,0.8-1.8c0-0.4-0.1-0.8-0.3-1.1s-0.5-0.6-1-0.9
		c-0.5-0.3-1.2-0.6-2-1c-0.9-0.4-1.7-0.8-2.3-1.2c-0.6-0.4-1.1-0.8-1.4-1.3s-0.4-1.2-0.4-1.9c0-1.2,0.5-2.2,1.4-2.8
		c0.9-0.7,2.2-1,3.7-1c1.3,0,2.3,0.2,2.9,0.7s1,1.1,1,1.7c0,0.5-0.2,0.9-0.5,1.2c-0.3,0.3-0.8,0.4-1.4,0.4c0-0.9-0.2-1.6-0.6-2.1
		s-1-0.8-1.8-0.8c-0.9,0-1.6,0.2-2,0.6c-0.4,0.4-0.6,0.9-0.6,1.6c0,0.7,0.3,1.2,0.8,1.6c0.5,0.4,1.4,0.8,2.6,1.3
		c1,0.4,1.7,0.8,2.3,1.2c0.6,0.4,1,0.9,1.3,1.4c0.3,0.5,0.4,1.2,0.4,1.9c0,1.4-0.5,2.5-1.5,3.2C177.2,414.6,175.9,415,174.3,415z"/>
	<path d="M181.6,418.9v-1.1c1.7-0.6,2.6-1.4,2.6-2.4c0-0.3-0.1-0.5-0.3-0.6c-0.2-0.1-0.4-0.3-0.7-0.4s-0.5-0.3-0.7-0.5
		c-0.2-0.2-0.3-0.5-0.3-0.9c0-0.5,0.2-0.9,0.5-1.2s0.8-0.4,1.3-0.4c0.6,0,1,0.2,1.5,0.6c0.4,0.4,0.6,1,0.6,1.7c0,1.2-0.3,2.2-1,3.2
		C184.4,417.7,183.2,418.4,181.6,418.9z"/>
	<path d="M204.2,415c-1,0-1.9-0.2-2.6-0.7c-0.7-0.4-1.2-1-1.6-1.7h-0.2l-0.5,2.1h-4.3v-1.1h0.2c0.6,0,1.1-0.1,1.6-0.3
		c0.4-0.2,0.6-0.8,0.6-1.6v-14.5c0-0.8-0.2-1.3-0.7-1.5c-0.4-0.2-1-0.3-1.6-0.3h-0.2v-1.1h5v5c0,0.3,0,0.7,0,1.2c0,0.5,0,0.9,0,1.4
		c0,0.4,0,0.8-0.1,1h0.1c0.4-0.8,0.9-1.5,1.6-2c0.6-0.5,1.5-0.7,2.6-0.7c1.8,0,3.1,0.6,4.1,1.8c0.9,1.2,1.4,3.1,1.4,5.7
		c0,2.6-0.5,4.5-1.4,5.7C207.3,414.4,206,415,204.2,415z M203.7,413.3c1.2,0,2-0.5,2.6-1.5s0.8-2.4,0.8-4.3c0-1.9-0.3-3.3-0.8-4.3
		s-1.4-1.4-2.6-1.4c-1.4,0-2.4,0.5-2.9,1.4c-0.5,0.9-0.8,2.4-0.8,4.3c0,1.9,0.3,3.3,0.8,4.3C201.4,412.8,202.3,413.3,203.7,413.3z"
		/>
	<path d="M218.5,415c-1.4,0-2.5-0.4-3.3-1.3c-0.8-0.8-1.2-2.2-1.2-4v-6.5c0-0.8-0.2-1.3-0.7-1.5c-0.4-0.2-1-0.3-1.6-0.3h-0.1v-1.1
		h4.8v9.3c0,1.2,0.2,2.1,0.6,2.7c0.4,0.6,1.1,1,2.2,1c1.2,0,2.1-0.4,2.6-1.2s0.8-1.9,0.8-3.2v-5.6c0-0.8-0.2-1.4-0.6-1.6
		c-0.4-0.2-1-0.3-1.6-0.3h-0.1v-1.1h4.8v11.5c0,0.8,0.2,1.3,0.7,1.5c0.4,0.2,1,0.3,1.6,0.3h0.1v1.1h-4.3l-0.4-2.2h-0.1
		c-0.6,1-1.2,1.7-1.9,2C220.2,414.8,219.4,415,218.5,415z"/>
	<path d="M234.8,415c-1.4,0-2.4-0.3-3-0.9c-0.6-0.6-0.9-1.7-0.9-3.3v-9h-2.1v-1.1c0.3,0,0.7-0.1,1.1-0.2c0.4-0.1,0.7-0.4,1-0.7
		c0.3-0.3,0.6-0.7,0.8-1.2c0.2-0.5,0.4-1,0.5-1.7h1.2v3.3h3.5v1.5h-3.5v9.1c0,0.9,0.2,1.6,0.6,2c0.4,0.4,0.9,0.6,1.5,0.6
		c0.3,0,0.6,0,0.9-0.1c0.3,0,0.5-0.1,0.8-0.1v1.2c-0.2,0.1-0.6,0.2-1.1,0.3C235.7,415,235.2,415,234.8,415z"/>
	<path d="M251.3,415c-1.4,0-2.4-0.3-3-0.9c-0.6-0.6-0.9-1.7-0.9-3.3v-9h-2.1v-1.1c0.3,0,0.7-0.1,1.1-0.2c0.4-0.1,0.7-0.4,1-0.7
		c0.3-0.3,0.6-0.7,0.8-1.2c0.2-0.5,0.4-1,0.5-1.7h1.2v3.3h3.5v1.5h-3.5v9.1c0,0.9,0.2,1.6,0.6,2c0.4,0.4,0.9,0.6,1.5,0.6
		c0.3,0,0.6,0,0.9-0.1c0.3,0,0.5-0.1,0.8-0.1v1.2c-0.2,0.1-0.6,0.2-1.1,0.3C252.2,415,251.8,415,251.3,415z"/>
	<path d="M254.8,414.7v-1.1h0.2c0.6,0,1.1-0.1,1.6-0.3c0.4-0.2,0.6-0.8,0.6-1.6v-14.5c0-0.8-0.2-1.3-0.7-1.5c-0.4-0.2-1-0.3-1.6-0.3
		h-0.2v-1.1h5v5.9c0,0.3,0,0.7,0,1s0,0.8-0.1,1.3h0.1c0.8-1.6,2.1-2.5,4-2.5c1.5,0,2.7,0.4,3.6,1.3c0.8,0.8,1.2,2.2,1.2,4v6.4
		c0,0.8,0.2,1.4,0.6,1.6c0.4,0.2,0.9,0.3,1.5,0.3h0.1v1.1H266v-9.3c0-1.2-0.2-2.1-0.7-2.7s-1.2-1-2.3-1c-1.1,0-1.9,0.4-2.5,1.2
		c-0.5,0.8-0.8,1.9-0.8,3.2v5.7c0,0.8,0.2,1.3,0.7,1.5s1,0.3,1.6,0.3h0.1v1.1H254.8z"/>
	<path d="M279.2,415c-2,0-3.5-0.6-4.6-1.9s-1.7-3.1-1.7-5.5c0-2.5,0.5-4.4,1.6-5.7c1-1.3,2.5-1.9,4.4-1.9c1.7,0,3.1,0.5,4.1,1.6
		s1.5,2.7,1.5,4.8v1.2h-9c0,2,0.4,3.4,1.1,4.3c0.7,0.9,1.7,1.3,3,1.3c0.9,0,1.7-0.2,2.4-0.6c0.7-0.4,1.1-0.8,1.5-1.3
		c0.1,0.1,0.2,0.2,0.4,0.3c0.1,0.2,0.2,0.4,0.2,0.6c0,0.4-0.2,0.7-0.5,1.2c-0.3,0.4-0.9,0.8-1.6,1.1S280.3,415,279.2,415z
		 M275.6,406.2h6.2c0-1.4-0.2-2.6-0.7-3.5c-0.4-0.9-1.2-1.3-2.3-1.3c-1,0-1.8,0.4-2.3,1.2C276.1,403.5,275.7,404.7,275.6,406.2z"/>
	<path d="M287,421.2v-1.3c1.2,0,2.2-0.2,3-0.7c0.8-0.5,1.4-1.1,1.9-1.9c0.5-0.8,0.9-1.7,1.2-2.7l-5-11.8c-0.3-0.6-0.5-0.9-0.8-1.1
		s-0.6-0.3-1.2-0.3H286v-1.1h6.5v1.1h-0.1c-1.1,0-1.6,0.4-1.6,1.3c0,0.3,0.1,0.6,0.2,1l2,4.8c0.2,0.4,0.4,0.9,0.5,1.4s0.3,1,0.5,1.4
		c0.1,0.5,0.2,0.8,0.3,1.1c0.1-0.5,0.3-1,0.5-1.6c0.2-0.6,0.4-1.1,0.6-1.7l1.8-5.3c0.2-0.4,0.2-0.8,0.2-1.2c0-0.9-0.6-1.3-1.8-1.3
		h-0.1v-1.1h5.6v1.1h-0.1c-0.5,0-0.9,0.1-1.2,0.4c-0.3,0.3-0.6,0.8-0.9,1.7l-4.1,11.3c-0.5,1.3-0.9,2.4-1.3,3.2
		c-0.4,0.8-0.9,1.5-1.4,1.9c-0.5,0.5-1.2,0.8-2,1c-0.8,0.2-1.8,0.3-3,0.3H287z"/>
	<path d="M55,447.4c-1.8,0-3.1-0.6-4.1-1.8c-0.9-1.2-1.4-3.1-1.4-5.7c0-2.6,0.5-4.5,1.4-5.7c0.9-1.2,2.3-1.8,4.1-1.8
		c1,0,1.9,0.2,2.6,0.7c0.7,0.4,1.2,1,1.6,1.7h0.2c-0.1-0.4-0.1-0.9-0.1-1.5s0-1,0-1.5v-2.2c0-0.8-0.2-1.3-0.7-1.5
		c-0.4-0.2-1-0.3-1.6-0.3h-0.2v-1.1h5v17.5c0,0.8,0.2,1.3,0.7,1.5c0.4,0.2,1,0.3,1.6,0.3h0.2v1.1h-4.6l-0.3-2.4h-0.1
		c-0.4,0.8-0.9,1.5-1.6,2S56.1,447.4,55,447.4z M55.5,445.7c1.4,0,2.4-0.5,2.9-1.4c0.5-0.9,0.8-2.4,0.8-4.3c0-1.9-0.3-3.3-0.8-4.3
		s-1.5-1.5-2.9-1.5c-1.2,0-2,0.5-2.6,1.5s-0.8,2.4-0.8,4.3c0,1.9,0.3,3.3,0.8,4.3S54.3,445.7,55.5,445.7z"/>
	<path d="M72.4,447.4c-1.9,0-3.5-0.6-4.6-1.9c-1.1-1.2-1.7-3.1-1.7-5.7c0-2.5,0.5-4.4,1.6-5.6c1.1-1.2,2.7-1.8,4.7-1.8
		c1.9,0,3.5,0.6,4.6,1.8c1.1,1.2,1.7,3.1,1.7,5.6c0,2.5-0.5,4.4-1.6,5.7S74.4,447.4,72.4,447.4z M72.4,446c1.3,0,2.3-0.5,2.8-1.6
		c0.5-1,0.8-2.6,0.8-4.6s-0.3-3.5-0.8-4.5c-0.6-1-1.5-1.5-2.9-1.5s-2.3,0.5-2.8,1.5c-0.5,1-0.8,2.5-0.8,4.5s0.3,3.5,0.8,4.6
		C70.1,445.5,71.1,446,72.4,446z"/>
	<path d="M81,447.1V446h0.2c0.6,0,1.1-0.1,1.6-0.3c0.4-0.2,0.6-0.8,0.6-1.6v-8.4c0-0.8-0.2-1.3-0.6-1.5c-0.4-0.2-0.9-0.3-1.5-0.3
		h-0.1v-1.1h4.4l0.4,2.2h0.1c0.6-1,1.2-1.7,1.9-2c0.7-0.3,1.5-0.5,2.3-0.5c1.4,0,2.5,0.4,3.3,1.3s1.2,2.2,1.2,4v6.4
		c0,0.8,0.2,1.4,0.6,1.6c0.4,0.2,0.9,0.3,1.5,0.3h0.1v1.1h-4.7v-9.3c0-1.2-0.2-2.1-0.7-2.7s-1.2-1-2.3-1c-0.8,0-1.5,0.2-1.9,0.6
		c-0.5,0.4-0.8,0.9-1,1.6c-0.2,0.7-0.3,1.4-0.3,2.2v5.7c0,0.8,0.2,1.3,0.6,1.5s0.9,0.3,1.5,0.3h0.1v1.1H81z"/>
	<path d="M98.4,435.5v-1.1c1.7-0.6,2.6-1.4,2.6-2.4c0-0.3-0.1-0.5-0.3-0.6c-0.2-0.1-0.4-0.3-0.7-0.4c-0.3-0.1-0.5-0.3-0.7-0.5
		c-0.2-0.2-0.3-0.5-0.3-0.9c0-0.5,0.2-0.9,0.5-1.2c0.3-0.3,0.8-0.4,1.3-0.4c0.6,0,1,0.2,1.5,0.6c0.4,0.4,0.6,1,0.6,1.7
		c0,1.2-0.3,2.2-1,3.2C101.2,434.3,100,435,98.4,435.5z"/>
	<path d="M110.8,447.4c-1.4,0-2.4-0.3-3-0.9s-0.9-1.7-0.9-3.3v-9h-2.1v-1.1c0.3,0,0.7-0.1,1.1-0.2c0.4-0.1,0.7-0.4,1-0.7
		c0.3-0.3,0.6-0.7,0.8-1.2c0.2-0.5,0.4-1,0.5-1.7h1.2v3.3h3.5v1.5h-3.5v9.1c0,0.9,0.2,1.6,0.6,2c0.4,0.4,0.9,0.6,1.5,0.6
		c0.3,0,0.6,0,0.9-0.1s0.5-0.1,0.8-0.1v1.2c-0.2,0.1-0.6,0.2-1.1,0.3C111.7,447.4,111.3,447.4,110.8,447.4z"/>
	<path d="M127.9,447.4c-1.8,0-3.1-0.6-4.1-1.8c-0.9-1.2-1.4-3.1-1.4-5.7c0-2.6,0.5-4.5,1.4-5.7c0.9-1.2,2.3-1.8,4.1-1.8
		c1,0,1.9,0.2,2.6,0.7c0.7,0.4,1.2,1,1.6,1.7h0.2c-0.1-0.4-0.1-0.9-0.1-1.5s0-1,0-1.5v-2.2c0-0.8-0.2-1.3-0.7-1.5
		c-0.4-0.2-1-0.3-1.6-0.3h-0.2v-1.1h5v17.5c0,0.8,0.2,1.3,0.7,1.5c0.4,0.2,1,0.3,1.6,0.3h0.2v1.1h-4.6l-0.3-2.4H132
		c-0.4,0.8-0.9,1.5-1.6,2S128.9,447.4,127.9,447.4z M128.3,445.7c1.4,0,2.4-0.5,2.9-1.4c0.5-0.9,0.8-2.4,0.8-4.3
		c0-1.9-0.3-3.3-0.8-4.3s-1.5-1.5-2.9-1.5c-1.2,0-2,0.5-2.6,1.5s-0.8,2.4-0.8,4.3c0,1.9,0.3,3.3,0.8,4.3S127.1,445.7,128.3,445.7z"
		/>
	<path d="M145.2,447.4c-2,0-3.5-0.6-4.6-1.9s-1.7-3.1-1.7-5.5c0-2.5,0.5-4.4,1.6-5.7c1-1.3,2.5-1.9,4.4-1.9c1.7,0,3.1,0.5,4.1,1.6
		s1.5,2.7,1.5,4.8v1.2h-9c0,2,0.4,3.4,1.1,4.3c0.7,0.9,1.7,1.3,3,1.3c0.9,0,1.7-0.2,2.4-0.6c0.7-0.4,1.1-0.8,1.5-1.3
		c0.1,0.1,0.2,0.2,0.4,0.3s0.2,0.4,0.2,0.6c0,0.4-0.2,0.7-0.5,1.2s-0.9,0.8-1.6,1.1C147.2,447.2,146.3,447.4,145.2,447.4z
		 M141.6,438.6h6.2c0-1.4-0.2-2.6-0.7-3.5c-0.4-0.9-1.2-1.3-2.3-1.3c-1,0-1.8,0.4-2.3,1.2C142,435.9,141.7,437.1,141.6,438.6z"/>
	<path d="M152.6,447.1V446h0.4c0.6,0,1.1-0.1,1.6-0.3c0.4-0.2,0.6-0.8,0.6-1.6v-10.1h-2.5v-1.3h2.5v-0.8c0-1.7,0.5-3,1.6-4.1
		s2.7-1.6,4.9-1.6c1.7,0,2.9,0.2,3.8,0.6s1.3,0.9,1.3,1.6c0,0.5-0.2,0.9-0.7,1.3c-0.5,0.3-1,0.5-1.8,0.5c0-0.4-0.1-0.8-0.3-1.2
		c-0.2-0.4-0.5-0.8-0.9-1.1c-0.4-0.3-1.1-0.5-1.8-0.5c-0.9,0-1.7,0.2-2.1,0.6c-0.5,0.4-0.8,1-1,1.6c-0.2,0.7-0.3,1.4-0.3,2.1v0.8
		h9.2V444c0,0.8,0.2,1.4,0.6,1.6c0.4,0.2,1,0.3,1.6,0.3h0.4v1.1h-7.4V446h0.1c0.6,0,1.1-0.1,1.6-0.3c0.4-0.2,0.7-0.7,0.7-1.5v-10.3
		h-6.6V444c0,0.8,0.2,1.4,0.6,1.6c0.4,0.2,1,0.3,1.6,0.3h0.5v1.1H152.6z"/>
	<path d="M170.6,447.1V446h0.2c0.6,0,1.1-0.1,1.6-0.3c0.4-0.2,0.6-0.8,0.6-1.6v-8.4c0-0.8-0.2-1.3-0.6-1.5c-0.4-0.2-0.9-0.3-1.5-0.3
		h-0.1v-1.1h4.4l0.4,2.2h0.1c0.6-1,1.2-1.7,1.9-2c0.7-0.3,1.5-0.5,2.3-0.5c1.4,0,2.5,0.4,3.3,1.3s1.2,2.2,1.2,4v6.4
		c0,0.8,0.2,1.4,0.6,1.6c0.4,0.2,0.9,0.3,1.5,0.3h0.1v1.1h-4.7v-9.3c0-1.2-0.2-2.1-0.7-2.7c-0.4-0.6-1.2-1-2.3-1
		c-0.8,0-1.5,0.2-1.9,0.6c-0.5,0.4-0.8,0.9-1,1.6c-0.2,0.7-0.3,1.4-0.3,2.2v5.7c0,0.8,0.2,1.3,0.6,1.5s0.9,0.3,1.5,0.3h0.1v1.1
		H170.6z"/>
	<path d="M195,447.4c-2,0-3.5-0.6-4.6-1.9c-1.1-1.3-1.7-3.1-1.7-5.5c0-2.5,0.5-4.4,1.6-5.7c1-1.3,2.5-1.9,4.4-1.9
		c1.7,0,3.1,0.5,4.1,1.6s1.5,2.7,1.5,4.8v1.2h-9c0,2,0.4,3.4,1.1,4.3s1.7,1.3,3,1.3c0.9,0,1.7-0.2,2.4-0.6c0.7-0.4,1.1-0.8,1.5-1.3
		c0.1,0.1,0.2,0.2,0.4,0.3c0.1,0.2,0.2,0.4,0.2,0.6c0,0.4-0.2,0.7-0.5,1.2s-0.9,0.8-1.6,1.1C196.9,447.2,196,447.4,195,447.4z
		 M191.4,438.6h6.2c0-1.4-0.2-2.6-0.7-3.5c-0.4-0.9-1.2-1.3-2.3-1.3c-1,0-1.8,0.4-2.3,1.2C191.8,435.9,191.5,437.1,191.4,438.6z"/>
	<path d="M216.1,447.4c-1.4,0-2.5-0.4-3.3-1.3c-0.8-0.8-1.2-2.2-1.2-4v-6.5c0-0.8-0.2-1.3-0.7-1.5c-0.4-0.2-1-0.3-1.6-0.3h-0.1v-1.1
		h4.8v9.3c0,1.2,0.2,2.1,0.6,2.7c0.4,0.6,1.1,1,2.2,1c1.2,0,2.1-0.4,2.6-1.2c0.5-0.8,0.8-1.9,0.8-3.2v-5.6c0-0.8-0.2-1.4-0.6-1.6
		c-0.4-0.2-1-0.3-1.6-0.3h-0.1v-1.1h4.8v11.5c0,0.8,0.2,1.3,0.7,1.5s1,0.3,1.6,0.3h0.1v1.1h-4.3l-0.4-2.2h-0.1c-0.6,1-1.2,1.7-1.9,2
		C217.8,447.2,216.9,447.4,216.1,447.4z"/>
	<path d="M231.5,447.4c-1.3,0-2.4-0.2-3.2-0.7c-0.8-0.5-1.2-1.2-1.2-2.1c0-0.5,0.1-0.9,0.3-1.1c0.2-0.3,0.4-0.5,0.7-0.6
		c0.3-0.1,0.5-0.2,0.7-0.2c0,1,0.2,1.8,0.6,2.4c0.4,0.7,1.2,1,2.3,1c1,0,1.7-0.2,2.2-0.7c0.5-0.4,0.8-1,0.8-1.8
		c0-0.4-0.1-0.8-0.3-1.1c-0.2-0.3-0.5-0.6-1-0.9c-0.5-0.3-1.2-0.6-2-1c-0.9-0.4-1.7-0.8-2.3-1.2c-0.6-0.4-1.1-0.8-1.3-1.3
		s-0.4-1.2-0.4-1.9c0-1.2,0.5-2.2,1.4-2.8c0.9-0.7,2.2-1,3.7-1c1.3,0,2.3,0.2,2.9,0.7s1,1.1,1,1.7c0,0.5-0.2,0.9-0.5,1.2
		c-0.3,0.3-0.8,0.4-1.4,0.4c0-0.9-0.2-1.6-0.6-2.1s-1-0.8-1.8-0.8c-0.9,0-1.6,0.2-2,0.6c-0.4,0.4-0.6,0.9-0.6,1.6
		c0,0.7,0.3,1.2,0.8,1.6s1.4,0.8,2.6,1.3c1,0.4,1.7,0.8,2.3,1.2c0.6,0.4,1,0.9,1.3,1.4s0.4,1.2,0.4,1.9c0,1.4-0.5,2.5-1.5,3.2
		C234.4,447,233.1,447.4,231.5,447.4z"/>
	<path d="M241.4,447.3c-0.5,0-0.9-0.1-1.2-0.4c-0.3-0.3-0.5-0.7-0.5-1.4c0-0.7,0.2-1.2,0.5-1.4c0.3-0.3,0.7-0.4,1.2-0.4
		c0.5,0,0.8,0.1,1.2,0.4c0.3,0.3,0.5,0.7,0.5,1.4c0,0.7-0.2,1.2-0.5,1.4C242.2,447.2,241.8,447.3,241.4,447.3z"/>
</g>
<g>
	<path d="M59.5,524.9h-4.8v3.8h4.4v1.2h-4.4v5.5h-1.4v-11.7h6.2V524.9z"/>
	<path d="M66.5,526.5c1.2,0,2.1,0.4,2.8,1.2s1.1,1.9,1.1,3.3c0,1.4-0.4,2.5-1.1,3.3s-1.6,1.3-2.8,1.3c-1.2,0-2.1-0.4-2.8-1.2
		c-0.7-0.8-1.1-1.9-1.1-3.3c0-1.4,0.4-2.5,1.1-3.3S65.3,526.5,66.5,526.5z M66.5,534.5c0.8,0,1.4-0.3,1.9-1s0.7-1.5,0.7-2.4
		c0-1-0.2-1.8-0.7-2.5s-1.1-1-1.9-1c-0.8,0-1.4,0.3-1.9,1s-0.7,1.5-0.7,2.5c0,1,0.2,1.8,0.7,2.4C65.1,534.2,65.7,534.5,66.5,534.5z"
		/>
	<path d="M80.2,527l-0.5,1.2c-0.6-0.2-1.1-0.4-1.5-0.4c-0.4,0-0.8,0.1-1.1,0.3s-0.7,0.5-1,0.9c-0.3,0.4-0.5,0.6-0.5,0.7v5.6h-1.3
		v-8.6h1.3v1.8c0.7-1.3,1.6-2,2.7-2C78.9,526.5,79.5,526.7,80.2,527z"/>
	<path d="M100.4,535.4h-1.3v-5.5c0-0.8-0.1-1.3-0.4-1.7c-0.2-0.3-0.6-0.5-1.2-0.5c-0.8,0-1.6,0.5-2.5,1.5v6.3h-1.3v-8.6h1.3v1.3
		c0.9-1,1.9-1.5,2.9-1.5c1.6,0,2.4,1,2.4,2.9V535.4z"/>
	<path d="M107.3,526.5c1.2,0,2.1,0.4,2.8,1.2s1.1,1.9,1.1,3.3c0,1.4-0.4,2.5-1.1,3.3s-1.6,1.3-2.8,1.3c-1.2,0-2.1-0.4-2.8-1.2
		c-0.7-0.8-1.1-1.9-1.1-3.3c0-1.4,0.4-2.5,1.1-3.3S106.1,526.5,107.3,526.5z M107.3,534.5c0.8,0,1.4-0.3,1.9-1s0.7-1.5,0.7-2.4
		c0-1-0.2-1.8-0.7-2.5s-1.1-1-1.9-1c-0.8,0-1.4,0.3-1.9,1s-0.7,1.5-0.7,2.5c0,1,0.2,1.8,0.7,2.4
		C105.9,534.2,106.5,534.5,107.3,534.5z"/>
	<path d="M121.8,526.8l-1.2,8.6h-1l-2-4.9l-2,4.9h-1l-1.2-8.6h1.3c0.5,4,0.7,6.2,0.7,6.4l1.6-3.8h1.3l1.6,3.7l0.7-6.3H121.8z"/>
	<path d="M127.7,535.6c-0.3,0-0.5-0.2-0.7-0.4s-0.3-0.4-0.3-0.7c0-0.3,0.1-0.5,0.3-0.7s0.4-0.3,0.7-0.3c0.3,0,0.6,0.1,0.8,0.4
		s0.3,0.6,0.3,0.9c0,1.1-0.6,1.9-1.8,2.5l-0.3-0.6C127.4,536.5,127.7,536.1,127.7,535.6z"/>
	<path d="M151.5,535c-0.9,0.4-1.7,0.6-2.6,0.6c-1.5,0-2.3-0.8-2.3-2.4v-5.3H145v-1.1h1.7v-2.4h1.3v2.4h2.9v1.1h-2.9v4.9
		c0,0.5,0.1,0.9,0.3,1.2c0.2,0.3,0.5,0.4,0.9,0.4c0.7,0,1.4-0.2,2.1-0.5L151.5,535z"/>
	<path d="M161.6,535.4h-1.3v-5.5c0-0.8-0.1-1.3-0.4-1.7c-0.2-0.3-0.6-0.5-1.2-0.5c-0.8,0-1.6,0.5-2.5,1.5v6.3H155v-11.7h1.3v4.3
		c0.9-1,1.9-1.5,2.9-1.5c1.6,0,2.4,1,2.4,2.9V535.4z"/>
	<path d="M169.7,535.4h-1.3v-7.5h-2.5v-1.1h3.8V535.4z M169,523.5c0.2,0,0.5,0.1,0.6,0.3c0.2,0.2,0.3,0.4,0.3,0.6
		c0,0.3-0.1,0.5-0.3,0.6c-0.2,0.2-0.4,0.3-0.6,0.3c-0.2,0-0.4-0.1-0.6-0.3c-0.2-0.2-0.3-0.4-0.3-0.6c0-0.2,0.1-0.4,0.3-0.6
		C168.6,523.6,168.8,523.5,169,523.5z"/>
	<path d="M181.1,528c-0.7-0.2-1.4-0.4-2-0.4c-0.7,0-1.3,0.1-1.7,0.4s-0.6,0.5-0.6,0.9c0,0.2,0.1,0.5,0.3,0.7s0.6,0.4,1.1,0.5
		l1.2,0.4c0.6,0.2,1,0.4,1.4,0.6c0.4,0.2,0.6,0.5,0.8,0.8c0.2,0.3,0.3,0.7,0.3,1.1c0,0.8-0.3,1.5-1,2c-0.7,0.5-1.6,0.7-2.6,0.7
		c-1.1,0-1.9-0.2-2.6-0.5l0.2-1.1c0.7,0.3,1.5,0.5,2.3,0.5c0.7,0,1.3-0.1,1.8-0.4c0.5-0.3,0.7-0.6,0.7-1.1c0-0.3-0.1-0.6-0.3-0.8
		c-0.2-0.2-0.8-0.5-1.6-0.7c-0.7-0.2-1.2-0.4-1.5-0.5s-0.6-0.3-0.9-0.5s-0.5-0.4-0.6-0.7c-0.1-0.3-0.2-0.6-0.2-0.9
		c0-0.7,0.3-1.3,1-1.8s1.5-0.7,2.6-0.7c0.7,0,1.5,0.1,2.3,0.4L181.1,528z"/>
	<path d="M201.5,528c-0.7-0.2-1.4-0.4-2-0.4c-0.7,0-1.3,0.1-1.7,0.4c-0.4,0.2-0.6,0.5-0.6,0.9c0,0.2,0.1,0.5,0.3,0.7
		c0.2,0.2,0.6,0.4,1.1,0.5l1.2,0.4c0.6,0.2,1,0.4,1.4,0.6c0.4,0.2,0.6,0.5,0.8,0.8c0.2,0.3,0.3,0.7,0.3,1.1c0,0.8-0.3,1.5-1,2
		c-0.7,0.5-1.6,0.7-2.6,0.7c-1.1,0-1.9-0.2-2.6-0.5l0.2-1.1c0.7,0.3,1.5,0.5,2.3,0.5c0.7,0,1.3-0.1,1.8-0.4s0.7-0.6,0.7-1.1
		c0-0.3-0.1-0.6-0.3-0.8c-0.2-0.2-0.8-0.5-1.6-0.7c-0.7-0.2-1.2-0.4-1.5-0.5s-0.6-0.3-0.9-0.5c-0.3-0.2-0.5-0.4-0.6-0.7
		c-0.1-0.3-0.2-0.6-0.2-0.9c0-0.7,0.3-1.3,1-1.8c0.7-0.4,1.5-0.7,2.6-0.7c0.7,0,1.5,0.1,2.3,0.4L201.5,528z"/>
	<path d="M212.7,535c-0.9,0.4-1.7,0.6-2.6,0.6c-1.5,0-2.3-0.8-2.3-2.4v-5.3h-1.7v-1.1h1.7v-2.4h1.3v2.4h2.9v1.1h-2.9v4.9
		c0,0.5,0.1,0.9,0.3,1.2c0.2,0.3,0.5,0.4,0.9,0.4c0.7,0,1.4-0.2,2.1-0.5L212.7,535z"/>
	<path d="M223.1,535.4h-1.3c-0.1-0.3-0.2-0.8-0.2-1.4c-0.7,1.1-1.7,1.6-3,1.6c-0.6,0-1.2-0.2-1.7-0.7c-0.5-0.5-0.7-1-0.7-1.8
		c0-0.4,0.1-0.8,0.3-1.1c0.2-0.3,0.4-0.6,0.8-0.8c0.3-0.2,0.7-0.4,1.2-0.5c0.5-0.1,1-0.2,1.7-0.3l1.5-0.1v-0.4
		c0-1.5-0.7-2.2-2.1-2.2c-0.3,0-0.7,0.1-1.2,0.2c-0.5,0.1-0.9,0.3-1.3,0.5l-0.3-0.9c1.2-0.6,2.3-0.9,3.3-0.9c2,0,3,1,3,3.1v3.7
		C222.8,534.1,222.9,534.8,223.1,535.4z M221.5,532.8v-1.6c-1.2,0.1-2,0.2-2.4,0.3c-0.4,0.1-0.8,0.3-1.1,0.5c-0.3,0.2-0.5,0.6-0.5,1
		c0,0.4,0.1,0.7,0.4,0.9s0.6,0.4,1,0.4c0.5,0,0.9-0.1,1.4-0.4C220.8,533.7,221.2,533.3,221.5,532.8z"/>
	<path d="M233,535.4h-1.3v-5.5c0-0.8-0.1-1.3-0.4-1.7s-0.6-0.5-1.2-0.5c-0.8,0-1.6,0.5-2.5,1.5v6.3h-1.3v-8.6h1.3v1.3
		c0.9-1,1.9-1.5,2.9-1.5c1.6,0,2.4,1,2.4,2.9V535.4z"/>
	<path d="M243.2,535.4h-1.3v-1.2c-0.3,0.4-0.6,0.8-1.1,1.1c-0.5,0.3-1,0.4-1.6,0.4c-1,0-1.8-0.4-2.3-1.3c-0.6-0.9-0.9-2-0.9-3.4
		c0-1.3,0.3-2.3,0.9-3.2s1.4-1.2,2.4-1.2c1.1,0,2,0.4,2.6,1.3v-4.2h1.3V535.4z M241.9,532.8v-3.6c-0.6-1-1.4-1.5-2.2-1.5
		c-0.7,0-1.3,0.3-1.7,1s-0.6,1.4-0.6,2.4c0,1,0.2,1.8,0.6,2.5c0.4,0.7,0.9,1,1.6,1c0.3,0,0.7-0.1,1-0.3c0.3-0.2,0.6-0.4,0.9-0.8
		C241.8,533,241.9,532.8,241.9,532.8z"/>
	<path d="M252.5,528c-0.7-0.2-1.4-0.4-2-0.4c-0.7,0-1.3,0.1-1.7,0.4c-0.4,0.2-0.6,0.5-0.6,0.9c0,0.2,0.1,0.5,0.3,0.7
		c0.2,0.2,0.6,0.4,1.1,0.5l1.2,0.4c0.6,0.2,1,0.4,1.4,0.6c0.4,0.2,0.6,0.5,0.8,0.8s0.3,0.7,0.3,1.1c0,0.8-0.3,1.5-1,2
		c-0.7,0.5-1.6,0.7-2.6,0.7c-1.1,0-1.9-0.2-2.6-0.5l0.2-1.1c0.7,0.3,1.5,0.5,2.3,0.5c0.7,0,1.3-0.1,1.8-0.4s0.7-0.6,0.7-1.1
		c0-0.3-0.1-0.6-0.3-0.8c-0.2-0.2-0.8-0.5-1.6-0.7c-0.7-0.2-1.2-0.4-1.5-0.5c-0.3-0.1-0.6-0.3-0.9-0.5c-0.3-0.2-0.5-0.4-0.6-0.7
		c-0.1-0.3-0.2-0.6-0.2-0.9c0-0.7,0.3-1.3,1-1.8c0.7-0.4,1.5-0.7,2.6-0.7c0.7,0,1.5,0.1,2.3,0.4L252.5,528z"/>
	<path d="M274.1,535.4h-1.3c-0.1-0.3-0.2-0.8-0.2-1.4c-0.7,1.1-1.7,1.6-3,1.6c-0.6,0-1.2-0.2-1.7-0.7c-0.5-0.5-0.7-1-0.7-1.8
		c0-0.4,0.1-0.8,0.3-1.1s0.4-0.6,0.8-0.8c0.3-0.2,0.7-0.4,1.2-0.5c0.5-0.1,1-0.2,1.7-0.3l1.5-0.1v-0.4c0-1.5-0.7-2.2-2.1-2.2
		c-0.3,0-0.7,0.1-1.2,0.2c-0.5,0.1-0.9,0.3-1.3,0.5l-0.3-0.9c1.2-0.6,2.3-0.9,3.3-0.9c2,0,3,1,3,3.1v3.7
		C273.8,534.1,273.9,534.8,274.1,535.4z M272.6,532.8v-1.6c-1.2,0.1-2,0.2-2.4,0.3c-0.4,0.1-0.8,0.3-1.1,0.5c-0.3,0.2-0.5,0.6-0.5,1
		c0,0.4,0.1,0.7,0.4,0.9s0.6,0.4,1,0.4c0.5,0,0.9-0.1,1.4-0.4C271.8,533.7,272.2,533.3,272.6,532.8z"/>
	<path d="M283.1,528c-0.7-0.2-1.4-0.4-2-0.4c-0.7,0-1.3,0.1-1.7,0.4c-0.4,0.2-0.6,0.5-0.6,0.9c0,0.2,0.1,0.5,0.3,0.7
		c0.2,0.2,0.6,0.4,1.1,0.5l1.2,0.4c0.6,0.2,1,0.4,1.4,0.6c0.4,0.2,0.6,0.5,0.8,0.8s0.3,0.7,0.3,1.1c0,0.8-0.3,1.5-1,2
		c-0.7,0.5-1.6,0.7-2.6,0.7c-1.1,0-1.9-0.2-2.6-0.5l0.2-1.1c0.7,0.3,1.5,0.5,2.3,0.5c0.7,0,1.3-0.1,1.8-0.4s0.7-0.6,0.7-1.1
		c0-0.3-0.1-0.6-0.3-0.8c-0.2-0.2-0.8-0.5-1.6-0.7c-0.7-0.2-1.2-0.4-1.5-0.5c-0.3-0.1-0.6-0.3-0.9-0.5c-0.3-0.2-0.5-0.4-0.6-0.7
		c-0.1-0.3-0.2-0.6-0.2-0.9c0-0.7,0.3-1.3,1-1.8c0.7-0.4,1.5-0.7,2.6-0.7c0.7,0,1.5,0.1,2.3,0.4L283.1,528z"/>
	<path d="M59.8,555.8h-1.3c-0.1-0.3-0.2-0.8-0.2-1.4c-0.7,1.1-1.7,1.6-3,1.6c-0.6,0-1.2-0.2-1.7-0.7c-0.5-0.5-0.7-1-0.7-1.8
		c0-0.4,0.1-0.8,0.3-1.1s0.4-0.6,0.8-0.8c0.3-0.2,0.7-0.4,1.2-0.5s1-0.2,1.7-0.3l1.5-0.1v-0.4c0-1.5-0.7-2.2-2.1-2.2
		c-0.3,0-0.7,0.1-1.2,0.2c-0.5,0.1-0.9,0.3-1.3,0.5l-0.3-0.9c1.2-0.6,2.3-0.9,3.3-0.9c2,0,3,1,3,3.1v3.7
		C59.6,554.5,59.7,555.2,59.8,555.8z M58.3,553.2v-1.6c-1.2,0.1-2,0.2-2.4,0.3c-0.4,0.1-0.8,0.3-1.1,0.5c-0.3,0.2-0.5,0.6-0.5,1
		c0,0.4,0.1,0.7,0.4,0.9s0.6,0.4,1,0.4c0.5,0,0.9-0.1,1.4-0.4C57.6,554.1,58,553.7,58.3,553.2z"/>
	<path d="M79.4,555.8h-3.5v-10.6h-2.3v-1.1h3.6v10.6h2.2V555.8z"/>
	<path d="M88.1,555.8h-1.3v-7.5h-2.5v-1.1h3.8V555.8z M87.4,543.9c0.2,0,0.5,0.1,0.6,0.3c0.2,0.2,0.3,0.4,0.3,0.6
		c0,0.3-0.1,0.5-0.3,0.6c-0.2,0.2-0.4,0.3-0.6,0.3c-0.2,0-0.4-0.1-0.6-0.3c-0.2-0.2-0.3-0.4-0.3-0.6c0-0.2,0.1-0.4,0.3-0.6
		C87,544,87.2,543.9,87.4,543.9z"/>
	<path d="M99.5,548.4c-0.7-0.2-1.4-0.4-2.1-0.4c-0.7,0-1.3,0.1-1.7,0.4s-0.6,0.5-0.6,0.9c0,0.2,0.1,0.5,0.3,0.7s0.6,0.4,1.1,0.5
		l1.2,0.4c0.6,0.2,1,0.4,1.4,0.6c0.4,0.2,0.6,0.5,0.8,0.8c0.2,0.3,0.3,0.7,0.3,1.1c0,0.8-0.3,1.5-1,2s-1.6,0.7-2.6,0.7
		c-1.1,0-1.9-0.2-2.6-0.5l0.2-1.1c0.7,0.3,1.5,0.5,2.3,0.5c0.7,0,1.3-0.1,1.8-0.4c0.5-0.3,0.7-0.6,0.7-1.1c0-0.3-0.1-0.6-0.3-0.8
		c-0.2-0.2-0.8-0.5-1.6-0.7c-0.7-0.2-1.2-0.4-1.5-0.5s-0.6-0.3-0.9-0.5s-0.5-0.4-0.6-0.7c-0.1-0.3-0.2-0.6-0.2-0.9
		c0-0.7,0.3-1.3,1-1.8s1.5-0.7,2.6-0.7c0.7,0,1.5,0.1,2.3,0.4L99.5,548.4z"/>
	<path d="M110.7,555.4c-0.9,0.4-1.7,0.6-2.6,0.6c-1.5,0-2.3-0.8-2.3-2.4v-5.3h-1.7v-1.1h1.7v-2.4h1.3v2.4h2.9v1.1h-2.9v4.9
		c0,0.5,0.1,0.9,0.3,1.2c0.2,0.3,0.5,0.4,0.9,0.4c0.7,0,1.4-0.2,2.1-0.5L110.7,555.4z"/>
	<path d="M127.7,546.9c1.2,0,2.1,0.4,2.8,1.2s1.1,1.9,1.1,3.3c0,1.4-0.4,2.5-1.1,3.3s-1.6,1.3-2.8,1.3c-1.2,0-2.1-0.4-2.8-1.2
		c-0.7-0.8-1.1-1.9-1.1-3.3c0-1.4,0.4-2.5,1.1-3.3S126.5,546.9,127.7,546.9z M127.7,554.9c0.8,0,1.4-0.3,1.9-1s0.7-1.5,0.7-2.4
		c0-1-0.2-1.8-0.7-2.5s-1.1-1-1.9-1c-0.8,0-1.4,0.3-1.9,1s-0.7,1.5-0.7,2.5c0,1,0.2,1.8,0.7,2.4
		C126.3,554.6,126.9,554.9,127.7,554.9z"/>
	<path d="M141.2,555.8h-1.3v-5.5c0-0.8-0.1-1.3-0.4-1.7c-0.2-0.3-0.6-0.5-1.2-0.5c-0.8,0-1.6,0.5-2.5,1.5v6.3h-1.3v-8.6h1.3v1.3
		c0.9-1,1.9-1.5,2.9-1.5c1.6,0,2.4,1,2.4,2.9V555.8z"/>
	<path d="M150.8,555.8h-3.5v-10.6H145v-1.1h3.6v10.6h2.2V555.8z"/>
	<path d="M162,547.2l-3.3,8.6c-0.5,1.3-0.9,2.2-1.4,2.7c-0.5,0.5-1,0.8-1.6,0.8c-0.5,0-1.1-0.1-1.6-0.3l0.2-1
		c0.4,0.1,0.8,0.2,1.1,0.2c0.5,0,0.8-0.2,1.1-0.5c0.3-0.4,0.6-0.9,0.9-1.8l-3.2-8.6h1.4l2.4,6.9l2.4-6.9H162z"/>
	<path d="M168.5,556c-0.3,0-0.5-0.2-0.7-0.4s-0.3-0.4-0.3-0.7c0-0.3,0.1-0.5,0.3-0.7s0.4-0.3,0.7-0.3c0.3,0,0.6,0.1,0.8,0.4
		s0.3,0.6,0.3,0.9c0,1.1-0.6,1.9-1.8,2.5l-0.3-0.6C168.2,556.9,168.5,556.5,168.5,556z"/>
	<path d="M192.3,544.2l-0.3,1.1c-0.6-0.2-1.2-0.3-1.7-0.3c-0.5,0-0.8,0.1-1,0.4c-0.2,0.3-0.3,0.8-0.3,1.6v0.2h2.9v1.1h-2.9v7.5h-1.3
		v-7.5h-2.2v-1.1h2.2v-0.3c0-1.1,0.2-1.9,0.6-2.3c0.4-0.4,1-0.7,2-0.7C190.9,543.9,191.6,544,192.3,544.2z"/>
	<path d="M202.6,547.4l-0.5,1.2c-0.6-0.2-1.1-0.4-1.5-0.4c-0.4,0-0.8,0.1-1.1,0.3s-0.7,0.5-1,0.9c-0.3,0.4-0.5,0.6-0.5,0.7v5.6h-1.3
		v-8.6h1.3v1.8c0.7-1.3,1.6-2,2.7-2C201.3,546.9,202,547.1,202.6,547.4z"/>
	<path d="M209.3,546.9c1.2,0,2.1,0.4,2.8,1.2c0.7,0.8,1.1,1.9,1.1,3.3c0,1.4-0.4,2.5-1.1,3.3c-0.7,0.8-1.6,1.3-2.8,1.3
		c-1.2,0-2.1-0.4-2.8-1.2s-1-1.9-1-3.3c0-1.4,0.4-2.5,1.1-3.3C207.2,547.4,208.1,546.9,209.3,546.9z M209.3,554.9
		c0.8,0,1.4-0.3,1.9-1c0.5-0.7,0.7-1.5,0.7-2.4c0-1-0.2-1.8-0.7-2.5s-1.1-1-1.9-1c-0.8,0-1.4,0.3-1.9,1c-0.4,0.6-0.7,1.5-0.7,2.5
		c0,1,0.2,1.8,0.7,2.4C207.9,554.6,208.5,554.9,209.3,554.9z"/>
	<path d="M223.5,555.8h-1.3v-5.7c0-1.4-0.3-2.1-0.8-2.1c-0.3,0-0.5,0.2-0.9,0.7c-0.3,0.5-0.5,0.7-0.5,0.8v6.2h-1.3v-5.7
		c0-1.4-0.3-2.1-0.8-2.1c-0.3,0-0.5,0.2-0.9,0.7c-0.3,0.5-0.5,0.7-0.5,0.8v6.2h-1.3v-8.6h1.2v1.3c0.2-0.5,0.5-0.8,0.9-1.1
		c0.3-0.3,0.7-0.4,1-0.4c0.3,0,0.7,0.1,0.9,0.4c0.3,0.3,0.5,0.6,0.6,1.1c0.2-0.5,0.5-0.8,0.9-1.1c0.3-0.3,0.7-0.4,1-0.4
		c1,0,1.6,0.9,1.6,2.8V555.8z"/>
	<path d="M244.3,547.2l-1.2,8.6h-1l-2-4.9l-2,4.9h-1l-1.2-8.6h1.3c0.5,4,0.7,6.2,0.7,6.4l1.6-3.8h1.3l1.6,3.7l0.7-6.3H244.3z"/>
	<path d="M253.4,555.8h-1.3v-5.5c0-0.8-0.1-1.3-0.4-1.7s-0.6-0.5-1.2-0.5c-0.8,0-1.6,0.5-2.5,1.5v6.3h-1.3v-11.7h1.3v4.3
		c0.9-1,1.9-1.5,2.9-1.5c1.6,0,2.4,1,2.4,2.9V555.8z"/>
	<path d="M261.5,555.8h-1.3v-7.5h-2.5v-1.1h3.8V555.8z M260.9,543.9c0.2,0,0.5,0.1,0.6,0.3c0.2,0.2,0.3,0.4,0.3,0.6
		c0,0.3-0.1,0.5-0.3,0.6s-0.4,0.3-0.6,0.3c-0.2,0-0.4-0.1-0.6-0.3c-0.2-0.2-0.3-0.4-0.3-0.6c0-0.2,0.1-0.4,0.3-0.6
		C260.4,544,260.6,543.9,260.9,543.9z"/>
	<path d="M273.8,555.5c-0.8,0.3-1.6,0.5-2.5,0.5c-1.4,0-2.4-0.4-3.3-1.2s-1.2-1.9-1.2-3.3s0.4-2.5,1.2-3.3s1.9-1.2,3.2-1.2
		c0.9,0,1.7,0.2,2.5,0.5l-0.3,1.1c-0.8-0.3-1.5-0.4-2.1-0.4c-1,0-1.7,0.3-2.3,0.9c-0.6,0.6-0.8,1.4-0.8,2.5c0,1,0.3,1.8,0.9,2.4
		c0.6,0.7,1.3,1,2.2,1c0.7,0,1.5-0.1,2.3-0.4L273.8,555.5z"/>
	<path d="M284,555.8h-1.3v-5.5c0-0.8-0.1-1.3-0.4-1.7s-0.6-0.5-1.2-0.5c-0.8,0-1.6,0.5-2.5,1.5v6.3h-1.3v-11.7h1.3v4.3
		c0.9-1,1.9-1.5,2.9-1.5c1.6,0,2.4,1,2.4,2.9V555.8z"/>
	<path d="M60,567.6l-3.3,8.6c-0.5,1.3-0.9,2.2-1.4,2.7c-0.5,0.5-1,0.8-1.6,0.8c-0.5,0-1.1-0.1-1.6-0.3l0.2-1
		c0.4,0.1,0.8,0.2,1.1,0.2c0.5,0,0.8-0.2,1.1-0.5c0.3-0.4,0.6-0.9,0.9-1.8l-3.2-8.6h1.4l2.4,6.9l2.4-6.9H60z"/>
	<path d="M66.5,567.3c1.2,0,2.1,0.4,2.8,1.2s1.1,1.9,1.1,3.3c0,1.4-0.4,2.5-1.1,3.3s-1.6,1.3-2.8,1.3c-1.2,0-2.1-0.4-2.8-1.2
		c-0.7-0.8-1.1-1.9-1.1-3.3c0-1.4,0.4-2.5,1.1-3.3S65.3,567.3,66.5,567.3z M66.5,575.3c0.8,0,1.4-0.3,1.9-1s0.7-1.5,0.7-2.4
		c0-1-0.2-1.8-0.7-2.5s-1.1-1-1.9-1c-0.8,0-1.4,0.3-1.9,1s-0.7,1.5-0.7,2.5c0,1,0.2,1.8,0.7,2.4C65.1,575,65.7,575.3,66.5,575.3z"/>
	<path d="M80,576.2h-1.3v-1.3c-0.9,1-1.9,1.5-2.9,1.5c-1.6,0-2.4-1-2.4-2.9v-5.9h1.3v5.5c0,0.7,0.1,1.3,0.3,1.6s0.6,0.5,1.2,0.5
		c0.8,0,1.6-0.5,2.5-1.5v-6.3H80V576.2z"/>
	<path d="M100.4,575.9c-0.8,0.3-1.6,0.5-2.5,0.5c-1.4,0-2.4-0.4-3.3-1.2c-0.8-0.8-1.2-1.9-1.2-3.3s0.4-2.5,1.2-3.3
		c0.8-0.8,1.9-1.2,3.2-1.2c0.9,0,1.7,0.2,2.5,0.5l-0.3,1.1c-0.8-0.3-1.5-0.4-2.1-0.4c-1,0-1.7,0.3-2.3,0.9c-0.6,0.6-0.8,1.4-0.8,2.5
		c0,1,0.3,1.8,0.9,2.4c0.6,0.7,1.3,1,2.2,1c0.7,0,1.5-0.1,2.3-0.4L100.4,575.9z"/>
	<path d="M110.8,576.2h-1.3c-0.1-0.3-0.2-0.8-0.2-1.4c-0.7,1.1-1.7,1.6-3,1.6c-0.6,0-1.2-0.2-1.7-0.7c-0.5-0.5-0.7-1-0.7-1.8
		c0-0.4,0.1-0.8,0.3-1.1s0.4-0.6,0.8-0.8c0.3-0.2,0.7-0.4,1.2-0.5s1-0.2,1.7-0.3l1.5-0.1v-0.4c0-1.5-0.7-2.2-2.1-2.2
		c-0.3,0-0.7,0.1-1.2,0.2c-0.5,0.1-0.9,0.3-1.3,0.5l-0.3-0.9c1.2-0.6,2.3-0.9,3.3-0.9c2,0,3,1,3,3.1v3.7
		C110.6,574.9,110.7,575.6,110.8,576.2z M109.3,573.6v-1.6c-1.2,0.1-2,0.2-2.4,0.3c-0.4,0.1-0.8,0.3-1.1,0.5c-0.3,0.2-0.5,0.6-0.5,1
		c0,0.4,0.1,0.7,0.4,0.9s0.6,0.4,1,0.4c0.5,0,0.9-0.1,1.4-0.4C108.6,574.5,109,574.1,109.3,573.6z"/>
	<path d="M120.8,576.2h-1.3v-5.5c0-0.8-0.1-1.3-0.4-1.7c-0.2-0.3-0.6-0.5-1.2-0.5c-0.8,0-1.6,0.5-2.5,1.5v6.3h-1.3v-8.6h1.3v1.3
		c0.9-1,1.9-1.5,2.9-1.5c1.6,0,2.4,1,2.4,2.9V576.2z"/>
	<path d="M140.3,568.8c-0.7-0.2-1.4-0.4-2.1-0.4c-0.7,0-1.3,0.1-1.7,0.4s-0.6,0.5-0.6,0.9c0,0.2,0.1,0.5,0.3,0.7s0.6,0.4,1.1,0.5
		l1.2,0.4c0.6,0.2,1,0.4,1.4,0.6c0.4,0.2,0.6,0.5,0.8,0.8c0.2,0.3,0.3,0.7,0.3,1.1c0,0.8-0.3,1.5-1,2s-1.6,0.7-2.6,0.7
		c-1.1,0-1.9-0.2-2.6-0.5l0.2-1.1c0.7,0.3,1.5,0.5,2.3,0.5c0.7,0,1.3-0.1,1.8-0.4c0.5-0.3,0.7-0.6,0.7-1.1c0-0.3-0.1-0.6-0.3-0.8
		c-0.2-0.2-0.8-0.5-1.6-0.7c-0.7-0.2-1.2-0.4-1.5-0.5s-0.6-0.3-0.9-0.5s-0.5-0.4-0.6-0.7c-0.1-0.3-0.2-0.6-0.2-0.9
		c0-0.7,0.3-1.3,1-1.8s1.5-0.7,2.6-0.7c0.7,0,1.5,0.1,2.3,0.4L140.3,568.8z"/>
	<path d="M151.7,571.9h-5.9c0,1,0.3,1.8,0.9,2.4c0.6,0.6,1.3,1,2.1,1c0.8,0,1.6-0.1,2.4-0.4l0.2,1c-0.8,0.3-1.7,0.5-2.7,0.5
		c-1.3,0-2.3-0.4-3.1-1.2s-1.2-1.9-1.2-3.3c0-1.4,0.4-2.5,1.1-3.3c0.7-0.8,1.6-1.2,2.7-1.2c1,0,1.8,0.4,2.5,1.1s1,1.8,1,3V571.9z
		 M150.3,570.9c0-0.7-0.2-1.2-0.6-1.7s-0.9-0.7-1.4-0.7c-0.7,0-1.2,0.2-1.7,0.7c-0.4,0.4-0.7,1-0.7,1.7H150.3z"/>
	<path d="M161,576.2h-3.5v-10.6h-2.3v-1.1h3.6v10.6h2.2V576.2z"/>
	<path d="M171.9,564.6l-0.3,1.1c-0.6-0.2-1.2-0.3-1.7-0.3c-0.5,0-0.8,0.1-1,0.4c-0.2,0.3-0.3,0.8-0.3,1.6v0.2h2.9v1.1h-2.9v7.5h-1.3
		v-7.5h-2.2v-1.1h2.2v-0.3c0-1.1,0.2-1.9,0.6-2.3s1-0.7,2-0.7C170.5,564.3,171.2,564.4,171.9,564.6z"/>
	<path d="M181.1,572.2h-4.9v-1.3h4.9V572.2z"/>
	<path d="M192.5,571.9h-5.9c0,1,0.3,1.8,0.9,2.4c0.6,0.6,1.3,1,2.1,1c0.8,0,1.6-0.1,2.4-0.4l0.2,1c-0.8,0.3-1.7,0.5-2.7,0.5
		c-1.3,0-2.3-0.4-3.1-1.2c-0.8-0.8-1.2-1.9-1.2-3.3c0-1.4,0.4-2.5,1.1-3.3c0.7-0.8,1.6-1.2,2.7-1.2c1,0,1.8,0.4,2.5,1.1
		c0.7,0.8,1,1.8,1,3V571.9z M191.1,570.9c0-0.7-0.2-1.2-0.6-1.7c-0.4-0.5-0.9-0.7-1.4-0.7c-0.7,0-1.2,0.2-1.7,0.7
		c-0.4,0.4-0.7,1-0.7,1.7H191.1z"/>
	<path d="M202.4,576.2h-1.3V575c-0.3,0.4-0.6,0.8-1.1,1.1c-0.5,0.3-1,0.4-1.6,0.4c-1,0-1.8-0.4-2.3-1.3c-0.6-0.9-0.9-2-0.9-3.4
		c0-1.3,0.3-2.3,0.9-3.2c0.6-0.8,1.4-1.2,2.4-1.2c1.1,0,2,0.4,2.6,1.3v-4.2h1.3V576.2z M201.1,573.6V570c-0.6-1-1.4-1.5-2.2-1.5
		c-0.7,0-1.3,0.3-1.7,1s-0.6,1.4-0.6,2.4c0,1,0.2,1.8,0.6,2.5c0.4,0.7,0.9,1,1.6,1c0.3,0,0.7-0.1,1-0.3c0.3-0.2,0.6-0.4,0.9-0.8
		C201,573.8,201.1,573.6,201.1,573.6z"/>
	<path d="M212.6,576.2h-1.3v-1.3c-0.9,1-1.9,1.5-2.9,1.5c-1.6,0-2.4-1-2.4-2.9v-5.9h1.3v5.5c0,0.7,0.1,1.3,0.3,1.6s0.6,0.5,1.2,0.5
		c0.8,0,1.6-0.5,2.5-1.5v-6.3h1.3V576.2z"/>
	<path d="M222.8,575.9c-0.8,0.3-1.6,0.5-2.5,0.5c-1.4,0-2.4-0.4-3.3-1.2s-1.2-1.9-1.2-3.3s0.4-2.5,1.2-3.3s1.9-1.2,3.2-1.2
		c0.9,0,1.7,0.2,2.5,0.5l-0.3,1.1c-0.8-0.3-1.5-0.4-2.1-0.4c-1,0-1.7,0.3-2.3,0.9c-0.6,0.6-0.8,1.4-0.8,2.5c0,1,0.3,1.8,0.9,2.4
		c0.6,0.7,1.3,1,2.2,1c0.7,0,1.5-0.1,2.3-0.4L222.8,575.9z"/>
	<path d="M233.3,576.2H232c-0.1-0.3-0.2-0.8-0.2-1.4c-0.7,1.1-1.7,1.6-3,1.6c-0.6,0-1.2-0.2-1.7-0.7c-0.5-0.5-0.7-1-0.7-1.8
		c0-0.4,0.1-0.8,0.3-1.1s0.4-0.6,0.8-0.8c0.3-0.2,0.7-0.4,1.2-0.5c0.5-0.1,1-0.2,1.7-0.3l1.5-0.1v-0.4c0-1.5-0.7-2.2-2.1-2.2
		c-0.3,0-0.7,0.1-1.2,0.2c-0.5,0.1-0.9,0.3-1.3,0.5l-0.3-0.9c1.2-0.6,2.3-0.9,3.3-0.9c2,0,3,1,3,3.1v3.7
		C233,574.9,233.1,575.6,233.3,576.2z M231.7,573.6v-1.6c-1.2,0.1-2,0.2-2.4,0.3c-0.4,0.1-0.8,0.3-1.1,0.5c-0.3,0.2-0.5,0.6-0.5,1
		c0,0.4,0.1,0.7,0.4,0.9s0.6,0.4,1,0.4c0.5,0,0.9-0.1,1.4-0.4C231,574.5,231.4,574.1,231.7,573.6z"/>
	<path d="M243.3,575.8c-0.9,0.4-1.7,0.6-2.6,0.6c-1.5,0-2.3-0.8-2.3-2.4v-5.3h-1.7v-1.1h1.7v-2.4h1.3v2.4h2.9v1.1h-2.9v4.9
		c0,0.5,0.1,0.9,0.3,1.2c0.2,0.3,0.5,0.4,0.9,0.4c0.7,0,1.4-0.2,2.1-0.5L243.3,575.8z"/>
	<path d="M253.7,571.9h-5.9c0,1,0.3,1.8,0.9,2.4s1.3,1,2.1,1c0.8,0,1.6-0.1,2.4-0.4l0.2,1c-0.8,0.3-1.7,0.5-2.7,0.5
		c-1.3,0-2.3-0.4-3.1-1.2s-1.2-1.9-1.2-3.3c0-1.4,0.4-2.5,1.1-3.3c0.7-0.8,1.6-1.2,2.7-1.2c1,0,1.8,0.4,2.5,1.1s1,1.8,1,3V571.9z
		 M252.3,570.9c0-0.7-0.2-1.2-0.6-1.7c-0.4-0.5-0.9-0.7-1.4-0.7c-0.7,0-1.2,0.2-1.7,0.7c-0.4,0.4-0.7,1-0.7,1.7H252.3z"/>
	<path d="M260.2,574.3c0.3,0,0.5,0.1,0.7,0.3s0.3,0.4,0.3,0.7c0,0.3-0.1,0.6-0.3,0.8s-0.4,0.3-0.7,0.3c-0.3,0-0.5-0.1-0.7-0.3
		s-0.3-0.5-0.3-0.8s0.1-0.5,0.3-0.7S260,574.3,260.2,574.3z"/>
	<path d="M59.5,586.1h-4.8v3.8h4.4v1.2h-4.4v5.5h-1.4v-11.7h6.2V586.1z"/>
	<path d="M69.8,596.6h-1.3v-1.3c-0.9,1-1.9,1.5-2.9,1.5c-1.6,0-2.4-1-2.4-2.9V588h1.3v5.5c0,0.7,0.1,1.3,0.3,1.6s0.6,0.5,1.2,0.5
		c0.8,0,1.6-0.5,2.5-1.5V588h1.3V596.6z"/>
	<path d="M80.1,596.2c-0.9,0.4-1.7,0.6-2.6,0.6c-1.5,0-2.3-0.8-2.3-2.4v-5.3h-1.7V588h1.7v-2.4h1.3v2.4h2.9v1.1h-2.9v4.9
		c0,0.5,0.1,0.9,0.3,1.2c0.2,0.3,0.5,0.4,0.9,0.4c0.7,0,1.4-0.2,2.1-0.5L80.1,596.2z"/>
	<path d="M90.2,596.6h-1.3v-1.3c-0.9,1-1.9,1.5-2.9,1.5c-1.6,0-2.4-1-2.4-2.9V588h1.3v5.5c0,0.7,0.1,1.3,0.3,1.6s0.6,0.5,1.2,0.5
		c0.8,0,1.6-0.5,2.5-1.5V588h1.3V596.6z"/>
	<path d="M100.6,588.2l-0.5,1.2c-0.6-0.2-1.1-0.4-1.5-0.4c-0.4,0-0.8,0.1-1.1,0.3s-0.7,0.5-1,0.9c-0.3,0.4-0.5,0.6-0.5,0.7v5.6h-1.3
		V588H96v1.8c0.7-1.3,1.6-2,2.7-2C99.3,587.7,99.9,587.9,100.6,588.2z"/>
	<path d="M110.9,592.3h-5.9c0,1,0.3,1.8,0.9,2.4c0.6,0.6,1.3,1,2.1,1c0.8,0,1.6-0.1,2.4-0.4l0.2,1c-0.8,0.3-1.7,0.5-2.7,0.5
		c-1.3,0-2.3-0.4-3.1-1.2s-1.2-1.9-1.2-3.3c0-1.4,0.4-2.5,1.1-3.3c0.7-0.8,1.6-1.2,2.7-1.2c1,0,1.8,0.4,2.5,1.1s1,1.8,1,3V592.3z
		 M109.5,591.3c0-0.7-0.2-1.2-0.6-1.7s-0.9-0.7-1.4-0.7c-0.7,0-1.2,0.2-1.7,0.7c-0.4,0.4-0.7,1-0.7,1.7H109.5z"/>
	<path d="M125.7,589.1c0.3-0.4,0.7-0.7,1.2-1c0.5-0.2,1-0.4,1.5-0.4c1,0,1.8,0.4,2.3,1.2c0.6,0.8,0.9,1.9,0.9,3.2
		c0,1.3-0.3,2.4-0.9,3.3c-0.6,0.9-1.4,1.3-2.4,1.3c-0.5,0-1-0.1-1.5-0.4c-0.5-0.3-0.8-0.6-1.1-1.1v4.7h-1.3V588h1.3V589.1z
		 M125.7,590.4v3.6c0.2,0.5,0.6,0.9,1,1.2s0.8,0.5,1.3,0.5c0.7,0,1.3-0.3,1.7-1c0.4-0.7,0.6-1.5,0.6-2.4c0-1-0.2-1.8-0.6-2.4
		s-0.9-0.9-1.6-0.9C127.1,588.9,126.3,589.4,125.7,590.4z"/>
	<path d="M141.2,596.6h-1.3v-5.5c0-0.8-0.1-1.3-0.4-1.7c-0.2-0.3-0.6-0.5-1.2-0.5c-0.8,0-1.6,0.5-2.5,1.5v6.3h-1.3v-11.7h1.3v4.3
		c0.9-1,1.9-1.5,2.9-1.5c1.6,0,2.4,1,2.4,2.9V596.6z"/>
	<path d="M151.6,596.6h-1.3c-0.1-0.3-0.2-0.8-0.2-1.4c-0.7,1.1-1.7,1.6-3,1.6c-0.6,0-1.2-0.2-1.7-0.7c-0.5-0.5-0.7-1-0.7-1.8
		c0-0.4,0.1-0.8,0.3-1.1s0.4-0.6,0.8-0.8c0.3-0.2,0.7-0.4,1.2-0.5s1-0.2,1.7-0.3l1.5-0.1v-0.4c0-1.5-0.7-2.2-2.1-2.2
		c-0.3,0-0.7,0.1-1.2,0.2c-0.5,0.1-0.9,0.3-1.3,0.5l-0.3-0.9c1.2-0.6,2.3-0.9,3.3-0.9c2,0,3,1,3,3.1v3.7
		C151.4,595.3,151.5,596,151.6,596.6z M150.1,594v-1.6c-1.2,0.1-2,0.2-2.4,0.3c-0.4,0.1-0.8,0.3-1.1,0.5c-0.3,0.2-0.5,0.6-0.5,1
		c0,0.4,0.1,0.7,0.4,0.9s0.6,0.4,1,0.4c0.5,0,0.9-0.1,1.4-0.4C149.4,594.9,149.8,594.5,150.1,594z"/>
	<path d="M160.7,589.2c-0.7-0.2-1.4-0.4-2.1-0.4c-0.7,0-1.3,0.1-1.7,0.4s-0.6,0.5-0.6,0.9c0,0.2,0.1,0.5,0.3,0.7s0.6,0.4,1.1,0.5
		l1.2,0.4c0.6,0.2,1,0.4,1.4,0.6c0.4,0.2,0.6,0.5,0.8,0.8c0.2,0.3,0.3,0.7,0.3,1.1c0,0.8-0.3,1.5-1,2s-1.6,0.7-2.6,0.7
		c-1.1,0-1.9-0.2-2.6-0.5l0.2-1.1c0.7,0.3,1.5,0.5,2.3,0.5c0.7,0,1.3-0.1,1.8-0.4c0.5-0.3,0.7-0.6,0.7-1.1c0-0.3-0.1-0.6-0.3-0.8
		c-0.2-0.2-0.8-0.5-1.6-0.7c-0.7-0.2-1.2-0.4-1.5-0.5s-0.6-0.3-0.9-0.5s-0.5-0.4-0.6-0.7c-0.1-0.3-0.2-0.6-0.2-0.9
		c0-0.7,0.3-1.3,1-1.8s1.5-0.7,2.6-0.7c0.7,0,1.5,0.1,2.3,0.4L160.7,589.2z"/>
	<path d="M172.1,592.3h-5.9c0,1,0.3,1.8,0.9,2.4c0.6,0.6,1.3,1,2.1,1c0.8,0,1.6-0.1,2.4-0.4l0.2,1c-0.8,0.3-1.7,0.5-2.7,0.5
		c-1.3,0-2.3-0.4-3.1-1.2s-1.2-1.9-1.2-3.3c0-1.4,0.4-2.5,1.1-3.3c0.7-0.8,1.6-1.2,2.7-1.2c1,0,1.8,0.4,2.5,1.1s1,1.8,1,3V592.3z
		 M170.7,591.3c0-0.7-0.2-1.2-0.6-1.7s-0.9-0.7-1.4-0.7c-0.7,0-1.2,0.2-1.7,0.7c-0.4,0.4-0.7,1-0.7,1.7H170.7z"/>
	<path d="M181.1,589.2c-0.7-0.2-1.4-0.4-2-0.4c-0.7,0-1.3,0.1-1.7,0.4s-0.6,0.5-0.6,0.9c0,0.2,0.1,0.5,0.3,0.7s0.6,0.4,1.1,0.5
		l1.2,0.4c0.6,0.2,1,0.4,1.4,0.6c0.4,0.2,0.6,0.5,0.8,0.8c0.2,0.3,0.3,0.7,0.3,1.1c0,0.8-0.3,1.5-1,2c-0.7,0.5-1.6,0.7-2.6,0.7
		c-1.1,0-1.9-0.2-2.6-0.5l0.2-1.1c0.7,0.3,1.5,0.5,2.3,0.5c0.7,0,1.3-0.1,1.8-0.4c0.5-0.3,0.7-0.6,0.7-1.1c0-0.3-0.1-0.6-0.3-0.8
		c-0.2-0.2-0.8-0.5-1.6-0.7c-0.7-0.2-1.2-0.4-1.5-0.5s-0.6-0.3-0.9-0.5s-0.5-0.4-0.6-0.7c-0.1-0.3-0.2-0.6-0.2-0.9
		c0-0.7,0.3-1.3,1-1.8s1.5-0.7,2.6-0.7c0.7,0,1.5,0.1,2.3,0.4L181.1,589.2z"/>
	<path d="M203.5,588l-1.2,8.6h-1l-2-4.9l-2,4.9h-1l-1.2-8.6h1.3c0.5,4,0.7,6.2,0.7,6.4l1.6-3.8h1.3l1.6,3.7l0.7-6.3H203.5z"/>
	<path d="M210.5,596.6h-1.3v-7.5h-2.5V588h3.8V596.6z M209.9,584.7c0.2,0,0.5,0.1,0.6,0.3c0.2,0.2,0.3,0.4,0.3,0.6
		c0,0.3-0.1,0.5-0.3,0.6s-0.4,0.3-0.6,0.3c-0.2,0-0.4-0.1-0.6-0.3c-0.2-0.2-0.3-0.4-0.3-0.6c0-0.2,0.1-0.4,0.3-0.6
		C209.4,584.8,209.6,584.7,209.9,584.7z"/>
	<path d="M222.2,596.6h-3.5V586h-2.3v-1.1h3.6v10.6h2.2V596.6z"/>
	<path d="M232.4,596.6h-3.5V586h-2.3v-1.1h3.6v10.6h2.2V596.6z"/>
	<path d="M57.5,617h-1.3v-7.5h-2.5v-1.1h3.8V617z M56.8,605.1c0.2,0,0.5,0.1,0.6,0.3c0.2,0.2,0.3,0.4,0.3,0.6c0,0.3-0.1,0.5-0.3,0.6
		c-0.2,0.2-0.4,0.3-0.6,0.3c-0.2,0-0.4-0.1-0.6-0.3c-0.2-0.2-0.3-0.4-0.3-0.6c0-0.2,0.1-0.4,0.3-0.6
		C56.4,605.2,56.6,605.1,56.8,605.1z"/>
	<path d="M69.8,617h-1.3v-5.5c0-0.8-0.1-1.3-0.4-1.7c-0.2-0.3-0.6-0.5-1.2-0.5c-0.8,0-1.6,0.5-2.5,1.5v6.3h-1.3v-8.6h1.3v1.3
		c0.9-1,1.9-1.5,2.9-1.5c1.6,0,2.4,1,2.4,2.9V617z"/>
	<path d="M80,616.7c-0.8,0.3-1.6,0.5-2.5,0.5c-1.4,0-2.4-0.4-3.3-1.2c-0.8-0.8-1.2-1.9-1.2-3.3s0.4-2.5,1.2-3.3
		c0.8-0.8,1.9-1.2,3.2-1.2c0.9,0,1.7,0.2,2.5,0.5l-0.3,1.1c-0.8-0.3-1.5-0.4-2.1-0.4c-1,0-1.7,0.3-2.3,0.9c-0.6,0.6-0.8,1.4-0.8,2.5
		c0,1,0.3,1.8,0.9,2.4c0.6,0.7,1.3,1,2.2,1c0.7,0,1.5-0.1,2.3-0.4L80,616.7z"/>
	<path d="M89.6,617h-3.5v-10.6h-2.3v-1.1h3.6v10.6h2.2V617z"/>
	<path d="M100.4,617h-1.3v-1.3c-0.9,1-1.9,1.5-2.9,1.5c-1.6,0-2.4-1-2.4-2.9v-5.9H95v5.5c0,0.7,0.1,1.3,0.3,1.6s0.6,0.5,1.2,0.5
		c0.8,0,1.6-0.5,2.5-1.5v-6.3h1.3V617z"/>
	<path d="M110.6,617h-1.3v-1.2c-0.3,0.4-0.6,0.8-1.1,1.1c-0.5,0.3-1,0.4-1.6,0.4c-1,0-1.8-0.4-2.3-1.3s-0.9-2-0.9-3.4
		c0-1.3,0.3-2.3,0.9-3.2c0.6-0.8,1.4-1.2,2.4-1.2c1.1,0,2,0.4,2.6,1.3v-4.2h1.3V617z M109.3,614.4v-3.6c-0.6-1-1.4-1.5-2.2-1.5
		c-0.7,0-1.3,0.3-1.7,1s-0.6,1.4-0.6,2.4c0,1,0.2,1.8,0.6,2.5c0.4,0.7,0.9,1,1.6,1c0.3,0,0.7-0.1,1-0.3c0.3-0.2,0.6-0.4,0.9-0.8
		C109.1,614.6,109.3,614.4,109.3,614.4z"/>
	<path d="M121.1,612.7h-5.9c0,1,0.3,1.8,0.9,2.4c0.6,0.6,1.3,1,2.1,1c0.8,0,1.6-0.1,2.4-0.4l0.2,1c-0.8,0.3-1.7,0.5-2.7,0.5
		c-1.3,0-2.3-0.4-3.1-1.2s-1.2-1.9-1.2-3.3c0-1.4,0.4-2.5,1.1-3.3c0.7-0.8,1.6-1.2,2.7-1.2c1,0,1.8,0.4,2.5,1.1s1,1.8,1,3V612.7z
		 M119.7,611.7c0-0.7-0.2-1.2-0.6-1.7s-0.9-0.7-1.4-0.7c-0.7,0-1.2,0.2-1.7,0.7c-0.4,0.4-0.7,1-0.7,1.7H119.7z"/>
	<path d="M141.2,617h-1.3v-1.2c-0.3,0.4-0.6,0.8-1.1,1.1c-0.5,0.3-1,0.4-1.6,0.4c-1,0-1.8-0.4-2.3-1.3s-0.9-2-0.9-3.4
		c0-1.3,0.3-2.3,0.9-3.2c0.6-0.8,1.4-1.2,2.4-1.2c1.1,0,2,0.4,2.6,1.3v-4.2h1.3V617z M139.9,614.4v-3.6c-0.6-1-1.4-1.5-2.2-1.5
		c-0.7,0-1.3,0.3-1.7,1s-0.6,1.4-0.6,2.4c0,1,0.2,1.8,0.6,2.5c0.4,0.7,0.9,1,1.6,1c0.3,0,0.7-0.1,1-0.3c0.3-0.2,0.6-0.4,0.9-0.8
		C139.8,614.6,139.9,614.4,139.9,614.4z"/>
	<path d="M151.7,612.7h-5.9c0,1,0.3,1.8,0.9,2.4c0.6,0.6,1.3,1,2.1,1c0.8,0,1.6-0.1,2.4-0.4l0.2,1c-0.8,0.3-1.7,0.5-2.7,0.5
		c-1.3,0-2.3-0.4-3.1-1.2s-1.2-1.9-1.2-3.3c0-1.4,0.4-2.5,1.1-3.3c0.7-0.8,1.6-1.2,2.7-1.2c1,0,1.8,0.4,2.5,1.1s1,1.8,1,3V612.7z
		 M150.3,611.7c0-0.7-0.2-1.2-0.6-1.7s-0.9-0.7-1.4-0.7c-0.7,0-1.2,0.2-1.7,0.7c-0.4,0.4-0.7,1-0.7,1.7H150.3z"/>
	<path d="M161.7,605.4l-0.3,1.1c-0.6-0.2-1.2-0.3-1.7-0.3c-0.5,0-0.8,0.1-1,0.4c-0.2,0.3-0.3,0.8-0.3,1.6v0.2h2.9v1.1h-2.9v7.5h-1.3
		v-7.5H155v-1.1h2.2v-0.3c0-1.1,0.2-1.9,0.6-2.3s1-0.7,2-0.7C160.3,605.1,161,605.2,161.7,605.4z"/>
	<path d="M169.7,617h-1.3v-7.5h-2.5v-1.1h3.8V617z M169,605.1c0.2,0,0.5,0.1,0.6,0.3c0.2,0.2,0.3,0.4,0.3,0.6c0,0.3-0.1,0.5-0.3,0.6
		c-0.2,0.2-0.4,0.3-0.6,0.3c-0.2,0-0.4-0.1-0.6-0.3c-0.2-0.2-0.3-0.4-0.3-0.6c0-0.2,0.1-0.4,0.3-0.6
		C168.6,605.2,168.8,605.1,169,605.1z"/>
	<path d="M182,617h-1.3v-5.5c0-0.8-0.1-1.3-0.4-1.7c-0.2-0.3-0.6-0.5-1.2-0.5c-0.8,0-1.6,0.5-2.5,1.5v6.3h-1.3v-8.6h1.3v1.3
		c0.9-1,1.9-1.5,2.9-1.5c1.6,0,2.4,1,2.4,2.9V617z"/>
	<path d="M190.1,617h-1.3v-7.5h-2.5v-1.1h3.8V617z M189.4,605.1c0.2,0,0.5,0.1,0.6,0.3c0.2,0.2,0.3,0.4,0.3,0.6
		c0,0.3-0.1,0.5-0.3,0.6s-0.4,0.3-0.6,0.3c-0.2,0-0.4-0.1-0.6-0.3c-0.2-0.2-0.3-0.4-0.3-0.6c0-0.2,0.1-0.4,0.3-0.6
		C189,605.2,189.2,605.1,189.4,605.1z"/>
	<path d="M202.5,616.6c-0.9,0.4-1.7,0.6-2.6,0.6c-1.5,0-2.3-0.8-2.3-2.4v-5.3H196v-1.1h1.7V606h1.3v2.4h2.9v1.1h-2.9v4.9
		c0,0.5,0.1,0.9,0.3,1.2c0.2,0.3,0.5,0.4,0.9,0.4c0.7,0,1.4-0.2,2.1-0.5L202.5,616.6z"/>
	<path d="M210.5,617h-1.3v-7.5h-2.5v-1.1h3.8V617z M209.9,605.1c0.2,0,0.5,0.1,0.6,0.3c0.2,0.2,0.3,0.4,0.3,0.6
		c0,0.3-0.1,0.5-0.3,0.6s-0.4,0.3-0.6,0.3c-0.2,0-0.4-0.1-0.6-0.3c-0.2-0.2-0.3-0.4-0.3-0.6c0-0.2,0.1-0.4,0.3-0.6
		C209.4,605.2,209.6,605.1,209.9,605.1z"/>
	<path d="M219.5,608.1c1.2,0,2.1,0.4,2.8,1.2s1.1,1.9,1.1,3.3c0,1.4-0.4,2.5-1.1,3.3s-1.6,1.3-2.8,1.3c-1.2,0-2.1-0.4-2.8-1.2
		c-0.7-0.8-1.1-1.9-1.1-3.3c0-1.4,0.4-2.5,1.1-3.3S218.3,608.1,219.5,608.1z M219.5,616.1c0.8,0,1.4-0.3,1.9-1s0.7-1.5,0.7-2.4
		c0-1-0.2-1.8-0.7-2.5c-0.4-0.6-1.1-1-1.9-1c-0.8,0-1.4,0.3-1.9,1c-0.4,0.6-0.7,1.5-0.7,2.5c0,1,0.2,1.8,0.7,2.4
		C218.1,615.8,218.7,616.1,219.5,616.1z"/>
	<path d="M233,617h-1.3v-5.5c0-0.8-0.1-1.3-0.4-1.7s-0.6-0.5-1.2-0.5c-0.8,0-1.6,0.5-2.5,1.5v6.3h-1.3v-8.6h1.3v1.3
		c0.9-1,1.9-1.5,2.9-1.5c1.6,0,2.4,1,2.4,2.9V617z"/>
	<path d="M242.3,609.6c-0.7-0.2-1.4-0.4-2-0.4c-0.7,0-1.3,0.1-1.7,0.4c-0.4,0.2-0.6,0.5-0.6,0.9c0,0.2,0.1,0.5,0.3,0.7
		c0.2,0.2,0.6,0.4,1.1,0.5l1.2,0.4c0.6,0.2,1,0.4,1.4,0.6c0.4,0.2,0.6,0.5,0.8,0.8s0.3,0.7,0.3,1.1c0,0.8-0.3,1.5-1,2
		c-0.7,0.5-1.6,0.7-2.6,0.7c-1.1,0-1.9-0.2-2.6-0.5l0.2-1.1c0.7,0.3,1.5,0.5,2.3,0.5c0.7,0,1.3-0.1,1.8-0.4s0.7-0.6,0.7-1.1
		c0-0.3-0.1-0.6-0.3-0.8c-0.2-0.2-0.8-0.5-1.6-0.7c-0.7-0.2-1.2-0.4-1.5-0.5c-0.3-0.1-0.6-0.3-0.9-0.5c-0.3-0.2-0.5-0.4-0.6-0.7
		c-0.1-0.3-0.2-0.6-0.2-0.9c0-0.7,0.3-1.3,1-1.8c0.7-0.4,1.5-0.7,2.6-0.7c0.7,0,1.5,0.1,2.3,0.4L242.3,609.6z"/>
	<path d="M253.1,605.1l-5.1,12.2h-1.2l5.1-12.2H253.1z"/>
	<path d="M59.8,637.4h-1.3c-0.1-0.3-0.2-0.8-0.2-1.4c-0.7,1.1-1.7,1.6-3,1.6c-0.6,0-1.2-0.2-1.7-0.7c-0.5-0.5-0.7-1-0.7-1.8
		c0-0.4,0.1-0.8,0.3-1.1s0.4-0.6,0.8-0.8c0.3-0.2,0.7-0.4,1.2-0.5s1-0.2,1.7-0.3l1.5-0.1v-0.4c0-1.5-0.7-2.2-2.1-2.2
		c-0.3,0-0.7,0.1-1.2,0.2c-0.5,0.1-0.9,0.3-1.3,0.5l-0.3-0.9c1.2-0.6,2.3-0.9,3.3-0.9c2,0,3,1,3,3.1v3.7
		C59.6,636.1,59.7,636.8,59.8,637.4z M58.3,634.8v-1.6c-1.2,0.1-2,0.2-2.4,0.3c-0.4,0.1-0.8,0.3-1.1,0.5c-0.3,0.2-0.5,0.6-0.5,1
		c0,0.4,0.1,0.7,0.4,0.9s0.6,0.4,1,0.4c0.5,0,0.9-0.1,1.4-0.4C57.6,635.7,58,635.3,58.3,634.8z"/>
	<path d="M69.8,637.4h-1.3v-5.5c0-0.8-0.1-1.3-0.4-1.7c-0.2-0.3-0.6-0.5-1.2-0.5c-0.8,0-1.6,0.5-2.5,1.5v6.3h-1.3v-8.6h1.3v1.3
		c0.9-1,1.9-1.5,2.9-1.5c1.6,0,2.4,1,2.4,2.9V637.4z"/>
	<path d="M80,637.4h-1.3v-1.2c-0.3,0.4-0.6,0.8-1.1,1.1c-0.5,0.3-1,0.4-1.6,0.4c-1,0-1.8-0.4-2.3-1.3s-0.9-2-0.9-3.4
		c0-1.3,0.3-2.3,0.9-3.2c0.6-0.8,1.4-1.2,2.4-1.2c1.1,0,2,0.4,2.6,1.3v-4.2H80V637.4z M78.7,634.8v-3.6c-0.6-1-1.4-1.5-2.2-1.5
		c-0.7,0-1.3,0.3-1.7,1s-0.6,1.4-0.6,2.4c0,1,0.2,1.8,0.6,2.5c0.4,0.7,0.9,1,1.6,1c0.3,0,0.7-0.1,1-0.3c0.3-0.2,0.6-0.4,0.9-0.8
		C78.5,635,78.7,634.8,78.7,634.8z"/>
	<path d="M100.6,629l-0.5,1.2c-0.6-0.2-1.1-0.4-1.5-0.4c-0.4,0-0.8,0.1-1.1,0.3s-0.7,0.5-1,0.9c-0.3,0.4-0.5,0.6-0.5,0.7v5.6h-1.3
		v-8.6H96v1.8c0.7-1.3,1.6-2,2.7-2C99.3,628.5,99.9,628.7,100.6,629z"/>
	<path d="M110.9,633.1h-5.9c0,1,0.3,1.8,0.9,2.4c0.6,0.6,1.3,1,2.1,1c0.8,0,1.6-0.1,2.4-0.4l0.2,1c-0.8,0.3-1.7,0.5-2.7,0.5
		c-1.3,0-2.3-0.4-3.1-1.2s-1.2-1.9-1.2-3.3c0-1.4,0.4-2.5,1.1-3.3c0.7-0.8,1.6-1.2,2.7-1.2c1,0,1.8,0.4,2.5,1.1s1,1.8,1,3V633.1z
		 M109.5,632.1c0-0.7-0.2-1.2-0.6-1.7s-0.9-0.7-1.4-0.7c-0.7,0-1.2,0.2-1.7,0.7c-0.4,0.4-0.7,1-0.7,1.7H109.5z"/>
	<path d="M119.9,630c-0.7-0.2-1.4-0.4-2.1-0.4c-0.7,0-1.3,0.1-1.7,0.4s-0.6,0.5-0.6,0.9c0,0.2,0.1,0.5,0.3,0.7s0.6,0.4,1.1,0.5
		l1.2,0.4c0.6,0.2,1,0.4,1.4,0.6c0.4,0.2,0.6,0.5,0.8,0.8c0.2,0.3,0.3,0.7,0.3,1.1c0,0.8-0.3,1.5-1,2s-1.6,0.7-2.6,0.7
		c-1.1,0-1.9-0.2-2.6-0.5l0.2-1.1c0.7,0.3,1.5,0.5,2.3,0.5c0.7,0,1.3-0.1,1.8-0.4c0.5-0.3,0.7-0.6,0.7-1.1c0-0.3-0.1-0.6-0.3-0.8
		c-0.2-0.2-0.8-0.5-1.6-0.7c-0.7-0.2-1.2-0.4-1.5-0.5s-0.6-0.3-0.9-0.5s-0.5-0.4-0.6-0.7c-0.1-0.3-0.2-0.6-0.2-0.9
		c0-0.7,0.3-1.3,1-1.8s1.5-0.7,2.6-0.7c0.7,0,1.5,0.1,2.3,0.4L119.9,630z"/>
	<path d="M127.7,628.5c1.2,0,2.1,0.4,2.8,1.2s1.1,1.9,1.1,3.3c0,1.4-0.4,2.5-1.1,3.3s-1.6,1.3-2.8,1.3c-1.2,0-2.1-0.4-2.8-1.2
		c-0.7-0.8-1.1-1.9-1.1-3.3c0-1.4,0.4-2.5,1.1-3.3S126.5,628.5,127.7,628.5z M127.7,636.5c0.8,0,1.4-0.3,1.9-1s0.7-1.5,0.7-2.4
		c0-1-0.2-1.8-0.7-2.5s-1.1-1-1.9-1c-0.8,0-1.4,0.3-1.9,1s-0.7,1.5-0.7,2.5c0,1,0.2,1.8,0.7,2.4
		C126.3,636.2,126.9,636.5,127.7,636.5z"/>
	<path d="M141.2,637.4h-1.3v-1.3c-0.9,1-1.9,1.5-2.9,1.5c-1.6,0-2.4-1-2.4-2.9v-5.9h1.3v5.5c0,0.7,0.1,1.3,0.3,1.6s0.6,0.5,1.2,0.5
		c0.8,0,1.6-0.5,2.5-1.5v-6.3h1.3V637.4z"/>
	<path d="M151.6,629l-0.5,1.2c-0.6-0.2-1.1-0.4-1.5-0.4c-0.4,0-0.8,0.1-1.1,0.3s-0.7,0.5-1,0.9c-0.3,0.4-0.5,0.6-0.5,0.7v5.6h-1.3
		v-8.6h1.3v1.8c0.7-1.3,1.6-2,2.7-2C150.3,628.5,150.9,628.7,151.6,629z"/>
	<path d="M161.6,637.1c-0.8,0.3-1.6,0.5-2.5,0.5c-1.4,0-2.4-0.4-3.3-1.2c-0.8-0.8-1.2-1.9-1.2-3.3s0.4-2.5,1.2-3.3
		c0.8-0.8,1.9-1.2,3.2-1.2c0.9,0,1.7,0.2,2.5,0.5l-0.3,1.1c-0.8-0.3-1.5-0.4-2.1-0.4c-1,0-1.7,0.3-2.3,0.9c-0.6,0.6-0.8,1.4-0.8,2.5
		c0,1,0.3,1.8,0.9,2.4c0.6,0.7,1.3,1,2.2,1c0.7,0,1.5-0.1,2.3-0.4L161.6,637.1z"/>
	<path d="M172.1,633.1h-5.9c0,1,0.3,1.8,0.9,2.4c0.6,0.6,1.3,1,2.1,1c0.8,0,1.6-0.1,2.4-0.4l0.2,1c-0.8,0.3-1.7,0.5-2.7,0.5
		c-1.3,0-2.3-0.4-3.1-1.2s-1.2-1.9-1.2-3.3c0-1.4,0.4-2.5,1.1-3.3c0.7-0.8,1.6-1.2,2.7-1.2c1,0,1.8,0.4,2.5,1.1s1,1.8,1,3V633.1z
		 M170.7,632.1c0-0.7-0.2-1.2-0.6-1.7s-0.9-0.7-1.4-0.7c-0.7,0-1.2,0.2-1.7,0.7c-0.4,0.4-0.7,1-0.7,1.7H170.7z"/>
	<path d="M181.1,630c-0.7-0.2-1.4-0.4-2-0.4c-0.7,0-1.3,0.1-1.7,0.4s-0.6,0.5-0.6,0.9c0,0.2,0.1,0.5,0.3,0.7s0.6,0.4,1.1,0.5
		l1.2,0.4c0.6,0.2,1,0.4,1.4,0.6c0.4,0.2,0.6,0.5,0.8,0.8c0.2,0.3,0.3,0.7,0.3,1.1c0,0.8-0.3,1.5-1,2c-0.7,0.5-1.6,0.7-2.6,0.7
		c-1.1,0-1.9-0.2-2.6-0.5l0.2-1.1c0.7,0.3,1.5,0.5,2.3,0.5c0.7,0,1.3-0.1,1.8-0.4c0.5-0.3,0.7-0.6,0.7-1.1c0-0.3-0.1-0.6-0.3-0.8
		c-0.2-0.2-0.8-0.5-1.6-0.7c-0.7-0.2-1.2-0.4-1.5-0.5s-0.6-0.3-0.9-0.5s-0.5-0.4-0.6-0.7c-0.1-0.3-0.2-0.6-0.2-0.9
		c0-0.7,0.3-1.3,1-1.8s1.5-0.7,2.6-0.7c0.7,0,1.5,0.1,2.3,0.4L181.1,630z"/>
	<path d="M188.8,635.5c0.3,0,0.5,0.1,0.7,0.3s0.3,0.4,0.3,0.7c0,0.3-0.1,0.6-0.3,0.8c-0.2,0.2-0.4,0.3-0.7,0.3
		c-0.3,0-0.5-0.1-0.7-0.3s-0.3-0.5-0.3-0.8s0.1-0.5,0.3-0.7C188.3,635.6,188.5,635.5,188.8,635.5z"/>
</g>
<rect x="47.9" y="262.4" class="st2" width="270.1" height="14.6"/>
</svg>
