<svg id="Layer_1" data-name="Layer 1" xmlns="http://www.w3.org/2000/svg" viewBox="0 0 1178.31 1033.42">
  <defs>
    <style>
      .cls-1 {
        fill: #42ff0d;
      }

      .cls-2 {
        fill: none;
        stroke: #fff;
        stroke-miterlimit: 10;
        stroke-width: 10px;
      }
    </style>
  </defs>
  <title>spilled-glasses</title>
  <path class="cls-1" d="M414,182.2c-89.9-24.7-358-22-358,104s-126,110,0,247,28,155,88,281,224,240,388,216,498,18,466-54,256-112,161-197-355-153-307-206,114-155,0-170,33-164-87-133S501.2,206.2,414,182.2Z" transform="translate(0)"/>
  <path class="cls-2" d="M842,207.7,840.5,32.4a87.74,87.74,0,0,0-86.6,80.2A116.85,116.85,0,0,0,636.8,5h0L489.2,6.2l2,233.5,147.2-1.2h.3A116.77,116.77,0,0,0,753.9,129,87.84,87.84,0,0,0,842,207.7Z" transform="translate(0)"/>
  <path class="cls-2" d="M1004,324.7l-1.5-175.3a87.74,87.74,0,0,0-86.6,80.2A116.85,116.85,0,0,0,798.8,122h0l-147.6,1.2,2,233.5,147.2-1.2h.3A116.77,116.77,0,0,0,915.9,246,87.84,87.84,0,0,0,1004,324.7Z" transform="translate(0)"/>
  <path class="cls-2" d="M1130,482.7l-1.5-175.3a87.74,87.74,0,0,0-86.6,80.2A116.85,116.85,0,0,0,924.8,280h0l-147.6,1.2,2,233.5,147.2-1.2h.3A116.77,116.77,0,0,0,1041.9,404,87.84,87.84,0,0,0,1130,482.7Z" transform="translate(0)"/>
</svg>
