<svg version="1.1" id="Layer_1" xmlns="http://www.w3.org/2000/svg" x="0" y="0" viewBox="0 0 2049.2 1471" xml:space="preserve"><style>.st0{fill:#fab68e}.st2{fill:#231f20}.st3{fill:#fff}.st5{fill:#c98240}.st6{fill:#41bfbf}.st7{fill:#d01a86}.st8{fill:#59c4c6}.st10{fill:#e50695}</style><path class="st0" d="M1575.2 1471h474V997z"/><path fill="none" d="M1851.3 570.6l92.1-94"/><path class="st2" d="M1851.3 573.7c-.6 0-1.9 0-2.5-.6-1.2-1.2-1.2-3.1 0-4.4l92.1-94c1.2-1.2 3.1-1.2 4.4 0s1.2 3.1 0 4.4l-92.1 94s-1.3.6-1.9.6z"/><path class="st0" d="M1838.2 556.2h-550.3s45.4 92.8 118.3 92.8h58.5v-56.7c0-9.3 7.5-16.8 16.8-16.8s16.8 7.5 16.8 16.8V649h80.9v-56.7c0-9.3 7.5-16.8 16.8-16.8s16.8 7.5 16.8 16.8V649h80.9v-56.7c0-9.3 7.5-16.8 16.8-16.8s16.8 7.5 16.8 16.8V649h110.8c25.5 0 45.4-20.5 45.4-46.1.2-25.5-19.8-46-45.3-46.7z"/><path class="st3" d="M1710.6 574.9c-9.3 0-16.8 7.5-16.8 16.8v56.7h33.6v-56.7c0-8.7-7.5-16.8-16.8-16.8zM1596.1 574.9c-9.3 0-16.8 7.5-16.8 16.8v56.7h33.6v-56.7c.6-8.7-7.5-16.8-16.8-16.8zM1482.1 574.9c-9.3 0-16.8 7.5-16.8 16.8v56.7h33.6v-56.7c0-8.7-7.4-16.8-16.8-16.8z"/><path class="st2" d="M1654.6 556.2l-104-268.9c-6.2-14.9-28-18.7-39.8-6.8l-29.3 28.6c-30.5 30.5-36.7 74.7-14.9 110.8l82.8 136.3h105.2z"/><path d="M1561.2 314.1c-14.3 3.7-25.5 15.6-27.4 31.1l-17.4 157.5 33 54.2h30.5c5-5.6 8.7-12.5 9.3-20.5l13.1-115.2-41.1-107.1z" fill="#e01d8d"/><circle class="st2" cx="1424.9" cy="605.4" r="18.1"/><circle class="st2" cx="1538.8" cy="605.4" r="18.1"/><circle class="st2" cx="1653.3" cy="605.4" r="18.1"/><circle class="st2" cx="1767.9" cy="605.4" r="18.1"/><path class="st2" d="M1750.4 388.2l59.1 66.6 3.7-358c3.7-35.5-38.6-57.3-70.3-41.7l47.9 247.8c1.9 10-5 19.9-14.9 21.8-10 1.9-19.9-5-21.8-14.9l-43.6-226-19.3 18.7 51 263.3c1.9 10-5 19.9-14.9 21.8-10 1.9-19.9-5-21.8-14.9L1659.4 133l-21.2 19.9 52.9 273.9c1.9 10-5 19.9-14.9 21.8-10 1.9-19.9-5-21.8-14.9L1606 183.3l-25.5 24.3c-11.8 11.2-16.2 28-10.6 43l113.9 305h125.8l.6-51.7-85.3-93.4 25.5-22.3z"/><path class="st5" d="M1790.9 302.9L1743 55.1c-4.4 1.9-8.7 5-12.5 8.7L1710 83.7l43.6 226c1.9 10 11.8 16.8 21.8 14.9 10.5-1.8 17.4-11.8 15.5-21.7zM1741.7 365.7l-51-263.3-32.4 31.1 46.1 239.7c1.9 10 11.8 16.8 21.8 14.9 10.6-2.4 17.4-12.4 15.5-22.4zM1690.7 427.4l-52.9-273.9-32.4 31.1 48.6 250.3c1.9 10 11.8 16.8 21.8 14.9 9.9-2.5 16.7-12.5 14.9-22.4z"/><path class="st6" d="M1750.4 388.2l-25.5 22.4 84.1 94 .6-49.8z"/><circle class="st6" cx="1723.1" cy="367" r="14.9"/><path class="st0" d="M1473.4 439.8l-10.6-16.8c-3.1-5-5-9.3-7.5-14.3-1.9-5-3.7-10-4.4-14.9-1.2-5-1.9-10.6-1.9-15.6s0-10.6.6-15.6 1.9-10 3.1-14.9c1.2-5 3.7-10 5.6-14.3 2.5-5 5-9.3 8.1-13.7s6.8-8.7 10.6-12.5l29.3-28.6 6.8 6.8-29.3 28.6c-3.7 3.7-6.8 7.5-10 11.2-3.1 3.7-5.6 8.1-7.5 12.5-1.9 4.4-3.7 8.7-5 13.1-1.2 4.4-2.5 9.3-3.1 13.7-.6 4.4-.6 9.3-.6 13.7s.6 9.3 1.9 13.7 2.5 9.3 4.4 13.7 3.7 8.7 6.8 13.1l10.6 16.8-7.9 4.3zM.5 2h747.2v759.8H.5z"/><path class="st2" d="M453.1 178.7c0 31.1 25.7 56.8 56.8 56.8h238.9v-114h-239c-31.5-.1-56.7 25.6-56.7 57.2z"/><path class="st5" d="M541.9 287.7c0 12.3 9.9 22.2 22.2 22.2h109.1c12.3 0 22.2-9.9 22.2-22.2s-9.9-22.2-22.2-22.2H564.1c-11.8 0-22.2 9.9-22.2 22.2zM541.9 69.1c0 12.3 9.9 22.2 22.2 22.2h109.1c12.3 0 22.2-9.9 22.2-22.2s-9.9-22.2-22.2-22.2H564.1c-11.8 0-22.2 9.9-22.2 22.2z"/><path transform="rotate(-45.001 300.829 464.932)" class="st5" d="M238.9 282.3h123.9v365.2H238.9z"/><path transform="rotate(-45.001 183.6 459.385)" class="st3" d="M90.1 427.8h187.1V491H90.1z"/><circle class="st7" cx="294.7" cy="272.9" r="27.6"/><circle class="st7" cx="354.9" cy="343.5" r="27.6"/><circle class="st7" cx="577" cy="543.4" r="27.6"/><circle class="st7" cx="667.8" cy="543.4" r="27.6"/><path transform="rotate(-45.001 456.456 445.113)" class="st3" d="M362.9 413.5H550v63.2H362.9z"/><path class="st8" d="M605.6 673.7c0-15.8-12.8-28.6-28.6-28.6s-28.6 12.8-28.6 28.6v86.9h57.7v-86.9h-.5zM698.9 673.7c0-15.8-12.8-28.6-28.6-28.6s-28.6 12.8-28.6 28.6v86.9h57.7v-86.9h-.5zM512.3 673.7c0-15.8-12.8-28.6-28.6-28.6s-28.6 12.8-28.6 28.6v86.9h57.7v-86.9h-.5zM149.5 0h59.2v118.5h-59.2z"/><path class="st7" d="M163.9 633.7c-9.9-2-19.2-3.5-29.1-3.9-9.4-.5-19.2 0-28.6 1-9.4 1-18.3 3-27.1 5.4s-17.3 5.9-25.7 9.9C44.9 650 37 655 29.6 659.9c-7.4 5.4-14.3 11.4-21.2 17.8-3 3-5.4 5.9-8.4 8.9v28.1c1.5-2 2.5-3.9 3.9-5.9 4.9-6.9 10.4-13.3 16.3-19.2 5.9-5.9 12.3-11.4 18.8-15.8 6.9-4.9 13.8-8.9 21.2-12.3s15.3-6.4 23.2-8.9c7.9-2.5 16.3-3.9 24.7-4.9 8.4-1 17.3-1.5 25.7-1 8.9.5 17.8 1.5 26.7 3.5l71.1 15.3 3.5-16.3-71.2-15.5z"/><path class="st3" d="M427.5 1.1c-6.9 4.1-13.4 8.5-19.3 13.2-7.4 5.9-14.3 12.3-20.7 19.2-6.4 6.9-12.3 14.3-17.3 22.2-4.9 7.4-9.4 15.8-12.8 24.2-3.9 8.4-6.9 17.3-8.9 26.2-2.5 8.9-3.9 17.8-4.4 27.1-.5 9.4-.5 18.8.5 28.1 1 9.4 3 18.8 5.4 28.1l9.4 34.1 16.8-4.4-9.4-34.1c-2.5-8.4-3.9-17.3-4.9-25.7-1-8.4-1-16.8-.5-25.2 1-8.4 2-16.8 3.9-24.7 2-7.9 4.4-15.8 7.9-23.2 3.5-7.4 7.4-14.8 11.8-21.7 4.4-6.9 9.9-13.3 15.3-19.7 5.4-5.9 11.8-11.8 18.8-17.3s14.3-10.4 22.2-14.8L462.6 1h-35.1z"/><circle cx="1330.9" cy="930.7" r="71.7" fill="#ffb98e"/><path transform="rotate(-134.999 1248.978 1115.84)" class="st10" d="M1220 1049.6h58V1182h-58z"/><path transform="rotate(-134.999 1331.049 1115.84)" class="st10" d="M1302.1 1049.6h58V1182h-58z"/><path transform="rotate(-134.999 1412.895 1115.84)" class="st10" d="M1383.9 1049.6h58V1182h-58z"/><path d="M1143.6 834c0-39.2-30.2-71.4-68.6-74.7-44.6-3.8-81.3 32.4-81.3 77.2v351.1c0 .2.2.4.4.4h149.1c.2 0 .4-.2.4-.4V834z" fill="#10cfc9"/><path d="M881.9 918.8V1188h68V918.8c0-18.8-15.2-34-34-34s-34 15.2-34 34z" fill="#2d2a26"/><g><path d="M842.6 1169.1l-.6 14.9-31.2-1.3c-8.5-.4-17.1-1.4-25.3-3.2-8.1-1.7-16.1-4.2-23.8-7.2-7.6-3-14.9-6.7-21.8-11-6.9-4.2-13.4-9.1-19.5-14.4-6.1-5.3-11.8-11.2-16.9-17.6-5.2-6.3-9.8-13.2-13.9-20.4-4.1-7.3-7.7-15-10.6-22.9-3-8.1-5.3-16.5-7-25.1l-12.3-63.2 14.7-2.9 12.3 63.2c1.5 7.8 3.6 15.5 6.3 22.8 2.6 7.2 5.9 14.1 9.6 20.7 3.7 6.5 7.9 12.6 12.5 18.3 4.6 5.7 9.7 11 15.2 15.8 5.5 4.8 11.3 9.1 17.5 12.9 6.2 3.8 12.8 7.1 19.6 9.8 6.9 2.7 14 4.9 21.3 6.5 7.4 1.6 15.1 2.6 22.8 2.9l31.1 1.4z" fill="#ca8342"/></g><g><path class="st2" d="M770.1 1256.1h14.2v69.2h35.2v13.5h-49.4v-82.7zM883.5 1310.8c0 16.4-13.2 29.4-29.9 29.4s-29.9-13-29.9-29.4c0-16.5 13.2-29.4 29.9-29.4s29.9 12.9 29.9 29.4zm-14.4 0c0-8.7-5.9-16.2-15.5-16.2s-15.5 7.4-15.5 16.2c0 8.7 5.9 16.2 15.5 16.2s15.5-7.4 15.5-16.2zM898.3 1319.8s7.4 8 16.9 8c5.8 0 10.6-1.7 10.6-5.1 0-3.7-2.6-4.4-11.1-6.1-11.1-2.4-20.8-7.1-20.8-17.7 0-8.7 8.7-17.5 24.1-17.5 12.6 0 21 6.9 21 6.9l-7.1 10.4s-6.4-4.8-13.9-4.8c-5.3 0-10.2 1.9-10.2 5.3s3.8 4.3 13.2 6.3c11.1 2.4 19 6 19 17.6 0 9.6-10.2 17.2-24.4 17.2-16.4 0-25.3-10.2-25.3-10.2l8-10.3zM1011.4 1256.1h14.4l32.1 82.7h-14.3l-7.6-19.6h-35l-7.6 19.6h-14.3l32.3-82.7zm-5.2 50.1h24.8l-12.4-32.2-12.4 32.2zM1116.3 1302.6v36.3h-14.2v-32.7c0-8-5-11.5-11.1-11.5-7.3 0-11.1 7.2-11.1 7.2v37h-14.2v-56h13.2v8.2s5-9.6 16.8-9.6c10.9-.1 20.6 7.6 20.6 21.1zM1153.9 1340.2c-14.5 0-27.3-12.2-27.3-29.4s12.8-29.4 27.3-29.4c11.7 0 16.9 8.7 16.9 8.7v-7.3h13.1v56.5c0 19.5-14.4 28.1-30.1 28.1-16.1 0-26.6-10.6-26.6-10.6l8-10.9s7.8 8.3 18.5 8.3c11 0 15.9-6 15.9-14.4v-6.7c-1.7 2.3-6.8 7.1-15.7 7.1zm15.9-37.8s-4-7.8-13.3-7.8c-9.6 0-15.4 7-15.4 16.2s5.8 16.2 15.4 16.2c9.2 0 13.3-7.8 13.3-7.8v-16.8zM1250.7 1310.6c0 1.1 0 3.2-.1 5.3h-41.8c1.1 5 6.8 11.3 15.7 11.3 9.8 0 15.4-5.7 15.4-5.7l7.1 10.6s-8.9 8-22.4 8c-17 0-30.1-13-30.1-29.4s11.9-29.4 28.1-29.4c15.2.1 28.1 12 28.1 29.3zm-14.2-5c-.2-4.8-4.7-11.3-14.1-11.3-9.1 0-13.2 6.4-13.7 11.3h27.8zM1262.7 1249.5h14.2v89.3h-14.2v-89.3zM1345.3 1310.6c0 1.1 0 3.2-.1 5.3h-41.8c1.1 5 6.8 11.3 15.7 11.3 9.8 0 15.4-5.7 15.4-5.7l7.1 10.6s-8.9 8-22.4 8c-17 0-30.1-13-30.1-29.4s11.9-29.4 28.1-29.4c15.2.1 28.1 12 28.1 29.3zm-14.2-5c-.2-4.8-4.7-11.3-14.1-11.3-9.1 0-13.2 6.4-13.7 11.3h27.8zM1360 1319.8s7.4 8 16.9 8c5.8 0 10.6-1.7 10.6-5.1 0-3.7-2.6-4.4-11.1-6.1-11.1-2.4-20.8-7.1-20.8-17.7 0-8.7 8.7-17.5 24.1-17.5 12.6 0 21 6.9 21 6.9l-7.1 10.4s-6.4-4.8-13.9-4.8c-5.3 0-10.2 1.9-10.2 5.3s3.8 4.3 13.2 6.3c11.1 2.4 19 6 19 17.6 0 9.6-10.2 17.2-24.5 17.2-16.4 0-25.3-10.2-25.3-10.2l8.1-10.3z"/></g></svg>