<svg version="1.1" id="Layer_1" xmlns="http://www.w3.org/2000/svg" x="0" y="0" viewBox="0 0 207.6 254.7" xml:space="preserve"><style>.st0{fill:#d01a86}.st1{fill:#c98240}.st2{fill:#fff}.st3{fill:#59c4c6}.st5{fill:#231f20}.st6{fill:#fab68e}.st8{fill:#41bfbf}</style><circle class="st0" cx="27.9" cy="92.4" r="7.6"/><circle class="st0" cx="52.9" cy="92.4" r="7.6"/><path transform="rotate(-45.001 24.804 244.991)" class="st1" d="M7.8 194.7h34.1v100.5H7.8z"/><path transform="rotate(-45.001 -7.362 243.476)" class="st2" d="M-33.1 234.8h51.5v17.4h-51.5z"/><circle class="st0" cx="23.2" cy="192.2" r="7.6"/><circle class="st0" cx="39.8" cy="211.6" r="7.6"/><path transform="rotate(-45.001 67.758 239.575)" class="st2" d="M42 230.9h51.5v17.4H42z"/><path class="st3" d="M181.8 231.8c0-4.4-3.5-7.9-7.9-7.9s-7.9 3.5-7.9 7.9v23.9h15.9v-23.9h-.1zM207.5 231.8c0-4.4-3.5-7.9-7.9-7.9s-7.9 3.5-7.9 7.9v23.9h15.9v-23.9h-.1zM156.1 231.8c0-4.4-3.5-7.9-7.9-7.9s-7.9 3.5-7.9 7.9v23.9h15.9v-23.9h-.1zM79.5 1.1h16.3v32.6H79.5z"/><path class="st2" d="M45.7 55c-2.7-.6-5.3-1-8-1.1-2.6-.1-5.3 0-7.9.3s-5 .8-7.5 1.5-4.8 1.6-7.1 2.7-4.5 2.5-6.6 3.8c-2 1.5-3.9 3.1-5.8 4.9-.8.8-1.5 1.6-2.3 2.5v7.7c.4-.6.7-1.1 1.1-1.6C3 73.8 4.5 72 6.2 70.4c1.7-1.6 3.4-3.1 5.2-4.4 1.9-1.3 3.8-2.5 5.8-3.4s4.2-1.8 6.4-2.5 4.5-1.1 6.8-1.3 4.8-.4 7.1-.3c2.5.1 4.9.4 7.4 1l19.5 4.3 1-4.5L45.7 55z"/><g><path fill="none" d="M152.8 173.5l19.3-19.6"/><path class="st5" d="M152.8 174.2c-.2 0-.4 0-.5-.2-.2-.2-.2-.6 0-.9l19.3-19.7c.2-.2.6-.2.9 0 .2.2.2.6 0 .9L153.2 174c0 .1-.3.2-.4.2z"/><path class="st6" d="M150.1 170.5H35s9.5 19.4 24.7 19.4h12.2v-11.8c0-1.9 1.5-3.5 3.5-3.5s3.5 1.5 3.5 3.5V190h16.9v-11.8c0-1.9 1.5-3.5 3.5-3.5s3.5 1.5 3.5 3.5V190h16.9v-11.8c0-1.9 1.5-3.5 3.5-3.5 1.9 0 3.5 1.5 3.5 3.5V190h23.2c5.3 0 9.5-4.3 9.5-9.7.2-5.3-4-9.6-9.3-9.8z"/><path class="st2" d="M123.3 174.5c-1.9 0-3.5 1.5-3.5 3.5v11.8h7V178c.1-1.8-1.5-3.5-3.5-3.5zM99.4 174.5c-1.9 0-3.5 1.5-3.5 3.5v11.8h7V178c.1-1.8-1.6-3.5-3.5-3.5zM75.6 174.5c-1.9 0-3.5 1.5-3.5 3.5v11.8h7V178c0-1.8-1.6-3.5-3.5-3.5z"/><path class="st5" d="M111.6 170.5l-21.7-56.2c-1.3-3.1-5.9-3.9-8.3-1.4l-6.1 6c-6.4 6.4-7.7 15.6-3.1 23.2l17.3 28.5 21.9-.1z"/><path d="M92.1 120c-3 .8-5.3 3.2-5.7 6.5l-3.6 32.9 6.9 11.4H96c1-1.2 1.9-2.6 1.9-4.3l2.7-24.1-8.5-22.4z" fill="#e01d8d"/><circle class="st5" cx="63.6" cy="180.9" r="3.8"/><circle class="st5" cx="87.4" cy="180.9" r="3.8"/><circle class="st5" cx="111.4" cy="180.9" r="3.8"/><g><circle class="st5" cx="135.3" cy="180.9" r="3.8"/></g><g><path class="st5" d="M131.7 135.4l12.4 13.9.8-74.8c.8-7.4-8.1-12-14.7-8.7l10 51.8c.4 2.1-1 4.2-3.1 4.6-2.1.4-4.2-1-4.6-3.1l-9.1-47.3-4 3.9 10.7 55.1c.4 2.1-1 4.2-3.1 4.6-2.1.4-4.2-1-4.6-3.1l-9.7-50.1-4.4 4.2 11 57.3c.4 2.1-1 4.2-3.1 4.6-2.1.4-4.2-1-4.6-3.1l-10.1-52.4-5.5 4.9c-2.5 2.3-3.4 5.9-2.2 9l23.8 63.8H144l.2-10.8-17.8-19.5 5.3-4.8z"/><path class="st1" d="M140.2 117.5l-10-51.8c-.9.4-1.9 1-2.6 1.9l-4.3 4.2 9.1 47.3c.4 2.1 2.5 3.5 4.6 3.1 2.1-.5 3.6-2.6 3.2-4.7zM129.8 130.8l-10.7-55.1-6.8 6.5 9.7 50.1c.4 2.1 2.5 3.5 4.6 3.1 2.2-.5 3.6-2.6 3.2-4.6zM119.2 143.6l-11-57.3-6.8 6.5 10.1 52.4c.4 2.1 2.5 3.5 4.6 3.1 2.1-.6 3.5-2.6 3.1-4.7z"/><path class="st8" d="M131.7 135.4l-5.3 4.7 17.5 19.7.1-10.4z"/></g><g><circle class="st8" cx="126" cy="131" r="3.1"/></g><g><path class="st6" d="M73.8 146.2l-2.2-3.5c-.6-1-1-1.9-1.5-3-.4-1-.8-2.1-.9-3.1-.2-1-.4-2.2-.4-3.2s0-2.2.2-3.2.4-2.1.6-3.1.8-2.1 1.2-3c.5-1 1-1.9 1.7-2.9.6-.9 1.4-1.9 2.2-2.6l6.1-6 1.4 1.4-6.1 6c-.8.8-1.4 1.5-2.1 2.3-.6.8-1.2 1.7-1.5 2.6-.4.9-.8 1.9-1 2.7-.2.9-.5 1.9-.6 2.9-.2.9-.2 1.9-.2 2.9 0 .9.2 1.9.4 2.9.2.9.5 1.9.9 2.9.4.9.8 1.9 1.4 2.7l2.1 3.4-1.7.9z"/></g></g></svg>