<svg version="1.1" id="Layer_1" xmlns="http://www.w3.org/2000/svg" x="0" y="0" viewBox="0 0 530 300" xml:space="preserve"><style>.st0{fill:none}.st1{fill:#fff}</style><path d="M0 0v300h530V0"/><path class="st0" d="M0 0v300h530V0"/><path class="st1" d="M0 0l264.8 150L226 0"/><path class="st0" d="M.4 0v300H530V0"/><path class="st1" d="M224.7 82.9c.7 1.2.3 2.7-.9 3.4s-2.7.3-3.4-.9c-.7-1.2-.3-2.7.9-3.4s2.7-.3 3.4.9M35 140.7h12.2c7.9 0 13.2 5.7 13.2 14.5 0 5-1.8 9.1-5 11.5-2.2 1.7-5.1 2.6-8.7 2.6H35v-28.6zm11.2 22.6c4.6 0 7-2.9 7-8.2 0-5.2-2.5-8.6-7-8.6H42v16.7h4.2zM61.9 159.1c0-6.2 4.4-10.8 11-10.8s10.9 4.7 10.9 10.8c0 6.2-4.3 10.8-10.9 10.8-6.6 0-11-4.6-11-10.8zm15.2 0c0-3.7-1.5-6.2-4.4-6.2s-4.3 2.5-4.3 6.2 1.5 6.2 4.3 6.2 4.4-2.5 4.4-6.2zM83.5 148.8h6.6l2.2 8.5c.4 1.6.9 4 .9 4h.1s.5-2.4.9-4.1l2.2-8.4h5.5l2.2 8.4c.4 1.8 1 4.1 1 4.1h.1s.5-2.4 1-4l2.3-8.5h6.4l-6.3 20.5h-6.1l-2.4-9.3c-.4-1.6-.9-3.7-.9-3.7h-.1s-.5 2.1-.9 3.7l-2.4 9.3h-6l-6.3-20.5zM116.5 148.8h6.3v2.8h.1c1.5-2.2 3.5-3.4 6.3-3.4 4.5 0 7.1 3.2 7.1 7.8v13.3h-6.5v-12c0-2.2-1.1-3.6-3.2-3.6-2.2 0-3.6 1.8-3.6 4.3v11.3h-6.5v-20.5zM140.5 163.9v-11h-2.7v-4.1h2.7v-6.5h6.4v6.5h3.7v4.1h-3.7v9.6c0 1.6.9 2 2.3 2h1.4v4.8c-.6.2-1.8.3-3.6.3-3.7-.1-6.5-1.3-6.5-5.7zM153 140.7h6.5v5.3H153v-5.3zm0 8.1h6.5v20.5H153v-20.5zM162.6 148.8h6.2v2.9h.1c1.3-2.1 3.2-3.5 6.2-3.5 2.7 0 4.7 1.4 5.8 3.6h.1c1.6-2.5 3.8-3.6 6.4-3.6 4.6 0 7 3.2 7 7.8v13.3h-6.5v-12.2c0-2.2-.9-3.5-2.9-3.5-2.1 0-3.2 1.7-3.2 4.2v11.5h-6.5v-12.2c0-2.2-.9-3.5-2.9-3.5s-3.2 1.7-3.2 4.2v11.5h-6.5v-20.5zM196.5 159c0-6.1 4.3-10.8 10.5-10.8 2.9 0 5.2 1 7 2.6 2.4 2.2 3.6 5.8 3.6 10h-14.7c.4 2.8 1.9 4.5 4.6 4.5 1.7 0 2.8-.8 3.4-2h6.4c-.4 1.8-1.6 3.6-3.4 4.8-1.7 1.2-3.8 1.9-6.4 1.9-6.9-.1-11-4.8-11-11zm14.5-2.1c-.2-2.4-1.8-4-3.9-4-2.5 0-3.8 1.6-4.2 4h8.1z"/></svg>