<svg version="1.1" id="Layer_1" xmlns="http://www.w3.org/2000/svg" x="0" y="0" viewBox="0 0 1792.2 1568.3" xml:space="preserve"><style>.st1{fill:#fff3f3}.st2{fill:#ff0dd1}</style><path fill="#ffd926" d="M915.4 501.4L713.5 851.2h403.9z"/><path class="st1" d="M739.7 482.5c-96.8 16.1-441.2 6.5-483.2 5.3l-11-.3-86.3-255.6 21.7-.4c.6 0 63-1.4 136.2-22.8 71.4-20.9 131.9-82.6 132.5-83.2l1.5-1.5 1.8-1.1L658.8 0l179.1 23.1-4.1 31.4-168.2-21.7-194.9 116.3c-10.5 10.5-71 68.4-144.8 90-51.8 15.2-97.6 20.7-123.2 22.8l65.7 194.6c176.4 5 441.6 6.8 478.3-8 40.7-16.4 176.4-76.5 239.1-104.4-3.5-1.1-7.2-2.2-11.2-3.2-34.6-8.6-71-7.3-108.2 3.8-18.7 5.6-41.4 7.6-63.4 9.6-28 2.6-59.5 5.5-75.3 16l-6.8 6-22.2-22.5c2.8-3.1 6-5.9 9.4-8.4l170-148.9 145.1-67.4h3.4c45.1-.4 124.9-7 146.8-23 11.4-8.3 22.3-17.7 31.7-26.4L1000 98l-160.8 48.7L678 262.3l-18.4-25.7L825 118.1l169-51.2 290.6-26-26.1 29.7c-1.3 1.4-31.2 35.4-66.6 61.1-35.1 25.5-138.6 28.6-161.8 29l-134.8 62.6-115.8 101.5c6.8-.7 13.6-1.4 20.5-2 20.4-1.8 41.5-3.8 57.3-8.5C961 283.5 1030.5 329 1033.4 331l23.7 16-26.1 11.7c-8.9 4-218.8 97.6-272.5 119.3-4.3 1.6-10.7 3.2-18.8 4.5z"/><path class="st1" d="M597.3 202.1l-17.9-26 120.8-82.5L826.5 70l-29.1-8.8-97.7 16.4-128 49.8-11.5-29.5 131.1-51 108.2-18.1L960.8 77l-248.2 46.4z"/><path transform="rotate(-30.014 212.22 424.969)" class="st2" d="M84.1 222.5h256.3v404.9H84.1z"/><g><path class="st1" d="M1506 994.2c-.2-.2-23-16.8-73.1-43.4-48.4-25.6-157.6-29.4-158.7-29.4l1-31.6c4.8.1 117.7 4.1 172.5 33.1 52.7 27.9 76.2 45.2 77.2 45.9l-18.9 25.4zM1263.7 1025.9l-31.6.4c-.2-14.7-.2-64 8.2-82l28.7 13.4c-3.7 7.7-5.6 41.4-5.3 68.2z"/><path class="st1" d="M1631.7 979.6l-24-20.6c.4-.4 39.4-46.3 75.4-123.2l58.5-125.2c-2.8.3-5.8.9-9 1.9-8.5 2.8-16.6 8.4-24.1 16.6-18.3 20-39.1 53.7-59.2 86.2-15.2 24.6-30.9 50.1-46.3 71.1-33.4 45.4-83.2 89-109.1 95.7-.1.1-.3.1-.4.1l-7.5-30.7c.1 0 .1 0 .1-.1 12.5-3.2 55.8-35.4 91.3-83.7 14.7-19.9 30-44.8 44.9-68.9 21.8-35.3 42.4-68.7 62.7-90.9 11.2-12.3 23.9-20.8 37.6-25.3 26.1-8.7 46.6.3 48.9 1.3l14.4 6.7-74.1 158.6c-38 81.2-78.4 128.5-80.1 130.4z"/><path class="st1" d="M1426.1 945.6l-8-30.6 4.1 15.3-4.2-15.3c.2-.1 21-5.8 54.5-26.2 32.8-19.9 60-58.1 84.5-96.3 18.3-28.5 91.6-141.3 116.5-172.1 27.5-33.8 89.2-29.7 96.1-29.1l22.6 1.9-50.7 108.7-28.7-13.4 30.5-65.4c-16.6 1.5-36.2 6-45.2 17.1-21.7 26.7-87.7 127.4-114.4 169.2-26.6 41.5-56.4 83-94.7 106.3-38 23.2-61.9 29.6-62.9 29.9z"/><path class="st1" d="M1387.8 929.1c-6.1 1.6-12.6 2.9-19.3 3.8l-4.5-31.3c70.6-10.1 98.7-64 117.3-99.7 2.9-5.7 5.8-11 8.5-15.6 21.2-36.5 32.9-60.1 42.2-79.1 15.5-31.4 24-48.7 56.3-81.1 54.6-54.6 108.2-41.5 110.5-41l18.7 4.8-32.8 67.8-28.5-13.8 13.6-28.2c-15 2.3-36.5 10.1-59.1 32.6-28.7 28.7-35.5 42.5-50.3 72.7-9.1 18.4-21.5 43.6-43.3 81.1-2.3 4-4.8 8.8-7.7 14.4-18.7 35.9-49 94-121.6 112.6z"/><path class="st1" d="M1125 1337.9l-12.6-5.9-251.5-117.5 5.8-14c1.1-2.7 27.9-66.6 51.9-111 28.1-52 134.8-115.4 179.4-140.2 39.5-22 73.6-30 103.6-37.1 14.7-3.4 28.6-6.8 41.2-11.3 10.1-3.7 19.5-6.1 28.5-8.5 26.6-7 45.8-12 69.5-44.2 22.2-30.1 29.5-64.5 36.6-97.7 3.5-16.4 7.1-33.4 12.5-49.6l.4-1.3.6-1.2c.6-1 14.1-26.3 30.2-46.1 16.9-20.9 44.2-21.4 57.6-18.5l16.5 3.7-4.7 16.2c-10.7 36.5-62.4 250.8-63 252.9l-30.7-7.4c1.8-7.7 40.6-168.1 57.6-233.1-3.2 1.2-6.2 3.1-8.7 6.1-12.3 15.2-23.5 35-26.2 39.9-4.6 14.2-7.8 29.1-11.2 45-7.8 36.5-15.8 74.3-42 109.8-30.4 41.2-59.2 48.8-87 56.1-8.3 2.2-16.9 4.4-25.7 7.6-14.3 5.2-29.1 8.7-44.7 12.3-28 6.6-59.8 14.1-95.5 33.9-67.8 37.8-147.3 91.1-167 127.6-16.7 30.8-35.2 72.7-44.6 94.1l211.8 98.9c17.7-24.1 62.8-77.7 120.5-87.1 82.2-13.6 182.3-37.7 216.5-64.8 28.4-22.5 96.5-90.1 141.6-134.9 10.8-10.7 19.9-19.8 27.1-26.8-14.1-9.1-39.2-19.3-68.2-4.1-30.6 16-55.4 41.5-77.3 64.1-16.7 17.2-31.1 32-45.9 40.6-23.4 13.5-96.8 43.6-123.3 31.2l13.4-28.7c-.1-.1-.2-.1-.4-.2 10.2 3 61.7-10.9 94.5-29.8 11-6.3 24-19.7 39-35.2 22.4-23.1 50.3-51.7 85.4-70 52.7-27.5 100.4 1.3 118.3 20.3l10.9 11.7-11.8 10.8c-5.7 5.2-20.5 19.9-39.3 38.6-45.6 45.2-114.4 113.6-144.2 137.2-47.7 37.8-177.5 62.4-231 71.2-59 9.8-106.3 83.6-106.8 84.4l-7.6 12z"/><path class="st1" d="M1389.2 1096.5c-1.1-.6-108.2-54.6-180.4-57.6-57.9-2.5-158.5 69.1-192.4 96.8l-20.1-24.5c1.3-1.1 32.9-26.9 74.6-52.7 57.4-35.5 104.3-52.8 139.3-51.4 79.1 3.3 188.8 58.7 193.4 61.1l-14.4 28.3z"/><path transform="rotate(-55.652 967.037 1348.326)" class="st2" d="M838.9 1145.8h256.3v404.9H838.9z"/></g></svg>