<svg version="1.1" id="Layer_1" xmlns="http://www.w3.org/2000/svg" x="0" y="0" viewBox="0 0 515.2 456.9" xml:space="preserve"><style>.st0{fill:#f3f315}.st2{fill:#ff5327}.st3{fill:#fff}.st4{opacity:.2}.st5{opacity:.1}</style><path d="M401.5 85.4c-4.1-27.1 21-111-77.6-77.6s-112.5 95-211.9 101.5C12.6 115.9 3.1 144.9 11.8 214.6s-55.8 190 48.7 151.6 135.2-110 181.7-51.2 99.2 118 142.7 60.7 168.4-113.9 119-149.5c-49.4-35.6-89.6-56.7-102.4-140.8z"/><path class="st0" d="M375.4 303.2s1.6 41.9 2.6 54.8c1 12.9 22.3 22.6 30.3 31.3 8.1 8.7 2.9 37.1 2.9 37.1s7.7-18.4 8.4-26.8c.6-8.4-.6-45.1-15.2-68.3-7-11.1 0-87.2 0-87.2"/><path class="st0" d="M351.4 303s-36.9 92.2-44.3 96.9c0 0 23.9 2.5 32.1-20.5 8.2-22.9 32.8-56.4 37.3-56.4"/><path d="M416.7 330.8s3.4-28.8 21.8-33.8c18.4-5 21.4-3.2 27.7-3.2 6.3 0 7.1-8.9 7.1-14.6 0-5.7 3.2-8.9 4.5-12 1.3-3.1-3.6-4.1-3.6-4.1s1.7-.3 4.9-2.2c3.2-1.9-.6-4.5-1.8-8.9-1.3-4.5 7-5.7 7-10.1 0-4.4-8.8-10.8-12.6-16.5-3.8-5.7-1.5-17.3-2.7-29.4-1.2-12-36.6-50.5-36.6-50.5L334 176.8l-9.4 95.8 33.3 52.4 58.8 5.8z" fill="#cbab00"/><path class="st0" d="M440.1 162.2c1.3.2 15.8 1.4-2.2 16.5-9.3 7.1-16.8 14.6-21 20-4.4 5.6-5.6 9.2-6.2 11.8.1 7.5 7.2 20 10.2 30.7 4 12.3 5 25.5 4.7 26.3 0-.7-1.2-12.4-9.9-25.7-4-6.9-9.1-14.8-13.6-22.7-4.4-7.8-8-15.6-8.1-19.1-.6-7.3 2.5-15.6 7.4-23.9 4.7-8 11.3-16.1 11.1-15.5"/><path class="st0" d="M441.4 160.6S395 185.8 395 218.7s-1.9 72.6-1.9 72.6l-2.9 28.1-43.5-3.9-31.9-32.9 12.6-38.7 31-61.9 61-26.1 22 4.7z"/><path class="st0" d="M414.8 167.4s-1.8 9.7-4.5 20c-2.5 10.4-5.8 21.2-5 26.8 1.5 5.6-2.1 27.5-5.8 49.8-1.5 11.1-2.3 22.3-1.5 31.4.7 9.1 3.2 16.2 4.3 19.2.2.1-18.9-39.4-17.7-74.6"/><g id="Helmet_1_"><path class="st2" d="M439.9 185c15.9-1.5 31.2.9 45 6.4-17.9-34.1-55.1-55.8-95.8-52.1-53.8 5-93.4 52.7-88.4 106.5 3.5 37.9 28.3 68.8 61.4 82-5.8-11-9.5-23.2-10.7-36.3-4.9-53.8 34.7-101.5 88.5-106.5z"/><path class="st3" d="M346.1 160.2L234.6 159c-11.5-.1-22.3-3.2-30.4-8.6-8.3-5.6-12.9-13-12.8-20.9v-1.6l107.2 1.2c16.1.1 32.1 6 40.9 15 4.4 4.5 6.7 9.5 6.6 14.5v1.6zm-151.4-29c.5 6.2 4.5 12 11.3 16.6 7.6 5.1 17.8 7.9 28.6 8.1l108.2 1.1c-.4-3.6-2.3-7.3-5.6-10.6-8.1-8.2-23.6-13.9-38.6-14l-103.9-1.2zM348.2 192.3l-89.7-1.2c-11.5-.1-22.3-3.2-30.4-8.6-8.3-5.6-12.9-13-12.8-20.9V160l89.7 1.2c14.6.1 28 5.1 36 13.2 4.7 4.8 7.2 10.5 7.2 16.3v1.6zm-129.5-29c.5 6.2 4.5 12 11.3 16.6 7.6 5.1 17.8 7.9 28.6 8.1l86.4 1.1c-.4-4.4-2.5-8.6-6.2-12.4-7.4-7.5-20-12.1-33.7-12.2l-86.4-1.2zM356.3 224.7l-57.7-1.2c-11.5-.1-22.3-3.2-30.4-8.6-8.3-5.6-12.9-13-12.8-20.9v-1.6l57.7 1.2c14.5.1 28 5.1 36 13.2 4.7 4.8 7.2 10.5 7.2 16.3v1.6zm-97.5-29c.5 6.2 4.5 12 11.3 16.6 7.6 5.1 17.8 7.9 28.6 8.1l54.3 1.1c-.4-4.4-2.5-8.6-6.1-12.3-7.4-7.5-20-12.1-33.7-12.2l-54.4-1.3z"/></g><g class="st4"><path class="st3" d="M94.1 255.4c3.7 0 3.7-5.8 0-5.8-3.8 0-3.8 5.8 0 5.8z"/></g><g class="st4"><path class="st3" d="M173.9 285.9c3.7 0 3.7-5.8 0-5.8s-3.8 5.8 0 5.8z"/></g><g class="st4"><path class="st3" d="M117.3 195.9c3.7 0 3.7-5.8 0-5.8-3.8 0-3.8 5.8 0 5.8z"/></g><g class="st4"><path class="st3" d="M67.9 124.8c3.7 0 3.7-5.8 0-5.8s-3.7 5.8 0 5.8z"/></g><g class="st4"><path class="st3" d="M59.2 245.3c3.7 0 3.7-5.8 0-5.8s-3.7 5.8 0 5.8z"/></g><g class="st4"><path class="st3" d="M7 323.7c3.7 0 3.7-5.8 0-5.8s-3.8 5.8 0 5.8z"/></g><g class="st4"><path class="st3" d="M72.3 323.7c3.7 0 3.7-5.8 0-5.8-3.8-.1-3.8 5.8 0 5.8z"/></g><g class="st4"><path class="st3" d="M120.2 304.8c3.7 0 3.7-5.8 0-5.8-3.8 0-3.8 5.8 0 5.8z"/></g><g class="st4"><path class="st3" d="M182.6 210.4c3.7 0 3.7-5.8 0-5.8s-3.7 5.8 0 5.8z"/></g><g class="st4"><path class="st3" d="M380 46.4c3.7 0 3.7-5.8 0-5.8s-3.7 5.8 0 5.8z"/></g><g class="st4"><path class="st3" d="M291.5 46.4c3.7 0 3.7-5.8 0-5.8s-3.7 5.8 0 5.8z"/></g><g class="st4"><path class="st3" d="M326.3 82.7c3.7 0 3.7-5.8 0-5.8s-3.7 5.8 0 5.8z"/></g><g class="st4"><path class="st3" d="M266.8 82.7c3.7 0 3.7-5.8 0-5.8s-3.7 5.8 0 5.8z"/></g><g class="st4"><path class="st3" d="M247.9 258.3c3.7 0 3.7-5.8 0-5.8s-3.7 5.8 0 5.8z"/></g><g class="st5"><path class="st3" d="M54.9 172.7c7.5 0 7.5-11.6 0-11.6s-7.5 11.6 0 11.6z"/></g><g class="st5"><path class="st3" d="M91.2 291.7c7.5 0 7.5-11.6 0-11.6s-7.5 11.6 0 11.6z"/></g><g class="st5"><path class="st3" d="M185.5 238c7.5 0 7.5-11.6 0-11.6s-7.5 11.6 0 11.6z"/></g><g class="st5"><path class="st3" d="M27.3 296.1c7.5 0 7.5-11.6 0-11.6s-7.5 11.6 0 11.6z"/></g><path class="st0" d="M378.7 317.4c-.4-.1-8.7 17.4 3.9 29.7 8.1 6.3 4.5 14.5 5 23.6-.6 9 2.8 19.1.5 28.9-1.2 9.8-7.9 19.5-17.3 27.1-9 7.6-20.5 13.1-21 14-1.9-.2 14.9-27.7 9.8-48.9-.5-5.4.7-12.7.8-20.5.3-7.8-.5-16.3-.5-24.1 0-7.9.7-15.3 3-21.6 2-6.2 5.6-11.3 4.2-14.5"/><g class="st5"><path class="st3" d="M139.1 245.3c7.5 0 7.5-11.6 0-11.6s-7.5 11.6 0 11.6z"/></g><g class="st5"><path class="st3" d="M259.5 87.1c7.5 0 7.5-11.6 0-11.6-7.4 0-7.4 11.6 0 11.6z"/></g><g class="st5"><path class="st3" d="M335 55.1c7.5 0 7.5-11.6 0-11.6-7.4 0-7.5 11.6 0 11.6z"/></g><g class="st5"><path class="st3" d="M367 105.9c7.5 0 7.5-11.6 0-11.6s-7.5 11.6 0 11.6z"/></g><path d="M476.6 269.4c-.8.1-1.8.1-2.7.1-2.3 0-11.9-6.8-11.9-6.8s9-3.9 11.6-5.8c2.6-1.9 5.5-.8 5.5-.8l.2.2c-.7-1.3-1.6-2.7-2.1-4.5-1.3-4.5 7-5.7 7-10.1 0-4.4-8.8-10.8-12.6-16.5s-1.5-17.3-2.7-29.4c-1.2-12-36.6-50.5-36.6-50.5l-98.5 31.3-4.2 93.7 28.2 54.5 58.8 5.8s2.7-36.7 21.1-41.7c18.4-5 23.4.1 29.8.1 6.3 0 5.7-4.4 5.8-10.1 0-4.1 1.9-7 3.3-9.5z" fill="none"/><path d="M473.6 257c-2.6 1.9-11.6 5.8-11.6 5.8s9.7 6.8 11.9 6.8c.9 0 1.8-.1 2.7-.1.4-.8.9-1.5 1.2-2.3 1.3-3.1-3.6-4.1-3.6-4.1s1.7-.3 4.9-2.2c1.9-1.1 1.3-2.5.2-4.4l-.2-.2c0-.1-2.9-1.3-5.5.7z" fill="#ff0dd1"/><path class="st0" d="M353.6 295.8s15.6-.3-24.7 73.3c-11.6 21.2-29 41.8-23.9 54.8 5.1 13 12.4 33 12.4 33s-1.5-30.7 14.5-39.5 34.8-38.9 31.9-43.7c-2.9-4.7 10.2-55.5 22.5-59"/><path class="st0" d="M369.2 318.6s9.3 35.3-2.3 57.4.7 24.4 2.3 34c1.9 11.8-1 20.2-1 20.2s-3.2-10.1-10.3-20.8c-7.1-10.6-15.4-25.6-17.9-35.8-4.5-18.6-6.3-29.5-3.4-36.3 3-6.7 32.6-18.7 32.6-18.7z"/><path class="st2" d="M332.6 297.2h142.3v49.3H332.6z"/><g><path class="st0" d="M384.3 229.1c.1 1.6.1 11.3 3.1 27.9 2.8 15.8 8.6 38.6 13.3 46 4.5 6.3 6 12.6 7 20.3 1 7.8 1.3 11.1 1.3 11 0 1.1 0-9.7-1.3-20.2-.6-5.1-1.5-9.8-2.4-13.2-.9-3.5-1.7-5.6-1.8-9-.3-5.5 2.9-23.9 8.2-42.5 4.1-19.2 7.6-33-20.2-39.4"/></g></svg>