<svg version="1.1" id="Layer_1" xmlns="http://www.w3.org/2000/svg" x="0" y="0" viewBox="0 0 889 900" xml:space="preserve"><style>.st1{fill:#231f20}.st2{fill:#fab68e}.st3{fill:#fff}.st5{fill:#c98240}.st6{fill:#41bfbf}.st7{fill:#d01a86}.st8{fill:#59c4c6}</style><path fill="#d07947" d="M2129 619.6l78.3-80.1"/><path class="st1" d="M2129 622.3c-.7 0-1.4-.3-1.9-.8-1.1-1-1.1-2.7 0-3.8l78.3-80.1c1-1.1 2.8-1.1 3.8 0 1.1 1 1.1 2.7 0 3.8l-78.3 80.1c-.5.6-1.2.8-1.9.8z"/><path class="st2" d="M2117.9 607.6H1650s38.8 78.6 100.6 78.6h50V638c0-7.9 6.4-14.4 14.4-14.4 7.9 0 14.4 6.4 14.4 14.4v48.2h68.6V638c0-7.9 6.4-14.4 14.4-14.4 7.9 0 14.4 6.4 14.4 14.4v48.2h68.6V638c0-7.9 6.4-14.4 14.4-14.4 7.9 0 14.4 6.4 14.4 14.4v48.2h94c21.5-.2 38.9-17.7 38.9-39.3-.4-21.6-17.8-39-39.2-39.3z"/><path class="st3" d="M2009.5 623.6c-7.9 0-14.4 6.4-14.4 14.4v48.2h28.7V638c0-8-6.4-14.4-14.3-14.4zM1912.2 623.6c-7.9 0-14.4 6.4-14.4 14.4v48.2h28.7V638c0-8-6.4-14.4-14.3-14.4zM1814.9 623.6c-7.9 0-14.4 6.4-14.4 14.4v48.2h28.7V638c0-8-6.4-14.4-14.3-14.4z"/><path class="st1" d="M1961.9 607.7l-88.6-229.1c-5.5-12.7-23.9-15.7-34.1-5.6l-24.8 24.6c-26.1 25.8-31.1 63.7-12.5 94.3l70.3 115.8h89.7z"/><path d="M1882.1 401.4c-12.1 3-21.6 13.3-23.1 26.3l-14.9 133.7 28.1 46.3h25.9c4.4-4.7 7.4-10.7 8.1-17.5l10.9-98.1-35-90.7z" fill="#e01d8d"/><circle class="st1" cx="1766.2" cy="649.3" r="15.5"/><circle class="st1" cx="1863.5" cy="649.3" r="15.5"/><circle class="st1" cx="1960.8" cy="649.3" r="15.5"/><circle class="st1" cx="2058.1" cy="649.3" r="15.5"/><path class="st1" d="M2043.1 464.5l50.4 56.6 3-304.1c3-30.4-32.9-48.7-59.6-35.5l40.7 210.5c1.7 8.7-4 17.1-12.7 18.8-8.7 1.7-17.1-4-18.8-12.7l-37.2-192.4-16.4 15.7 43.3 224.2c1.7 8.7-4 17.1-12.7 18.8-8.7 1.7-17.1-4-18.8-12.7l-39.3-204-17.8 17 45 233.1c1.7 8.7-4 17.1-12.7 18.8-8.7 1.7-17.1-4-18.8-12.7l-41.1-212.8-21.6 20.8c-10.2 9.8-13.6 23.8-8.9 36.6l96.6 259.2h106.8l.4-44.1-71.3-80 21.5-19.1z"/><path class="st5" d="M2077.5 392l-40.7-210.5c-3.7 1.8-7.2 4.2-10.4 7.3l-17.6 16.9 37.2 192.4c1.7 8.7 10.1 14.4 18.8 12.7 8.7-1.7 14.4-10.1 12.7-18.8zM2035.8 445.5l-43.3-224.2-27.5 26.4 39.4 203.8c1.7 8.7 10.1 14.4 18.8 12.7 8.6-1.6 14.3-10 12.6-18.7zM1992.3 497.9l-45-233.1-27.5 26.4 41.1 212.8c1.7 8.7 10.1 14.4 18.8 12.7 8.6-1.7 14.3-10.1 12.6-18.8z"/><path class="st6" d="M2043.1 464.5l-21.3 19 71.2 80 .5-42.4z"/><circle class="st6" cx="2019.7" cy="446.5" r="12.5"/><g><path class="st2" d="M1807.8 508.5L1799 494c-2.4-4-4.5-8.1-6.2-12.4-1.7-4.2-3-8.5-3.9-12.9-.9-4.3-1.5-8.7-1.6-13.1-.2-4.4 0-8.8.6-13.2.6-4.3 1.5-8.7 2.8-12.9 1.3-4.2 3-8.4 5-12.4s4.4-8 7.1-11.7c2.7-3.8 5.8-7.4 9.2-10.7l24.8-24.6 5.7 5.8-24.8 24.6c-3.1 3-5.9 6.3-8.4 9.7-2.4 3.4-4.6 6.9-6.4 10.6-1.8 3.6-3.3 7.4-4.5 11.2-1.2 3.8-2 7.7-2.5 11.6-.5 3.9-.7 7.9-.6 11.8.1 3.9.6 7.9 1.5 11.8.8 3.9 2 7.8 3.5 11.6s3.4 7.6 5.6 11.2l8.8 14.5-6.9 4z"/></g><path class="st2" d="M-1.8 1.1h889.9v897.3H-1.8z"/><path class="st1" d="M537.2 211.7c0 37.3 30.5 67.8 67.8 67.8h284.3V143.9H604.9c-37.2 0-67.7 30.5-67.7 67.8z"/><path class="st5" d="M643.4 342c0 14.8 12 26.7 26.7 26.7H800c14.8 0 26.7-12 26.7-26.7 0-14.8-12-26.7-26.7-26.7H670.1c-14.8 0-26.7 11.9-26.7 26.7zM643.4 81.4c0 14.8 12 26.7 26.7 26.7H800c14.8 0 26.7-12 26.7-26.7 0-14.8-12-26.7-26.7-26.7H670.1c-14.8-.1-26.7 11.9-26.7 26.7z"/><path transform="rotate(-45.001 356.105 552.741)" class="st5" d="M282.4 335.3h147.4v434.8H282.4z"/><path transform="rotate(-134.999 216.098 546.285)" class="st3" d="M178.3 435h75.5v222.6h-75.5z"/><circle class="st7" cx="348.9" cy="324.2" r="32.7"/><circle class="st7" cx="420.3" cy="408" r="32.7"/><circle class="st7" cx="684.9" cy="646.2" r="32.7"/><circle class="st7" cx="793" cy="646.2" r="32.7"/><path transform="rotate(-134.999 541.245 528.988)" class="st3" d="M503.5 417.7H579v222.6h-75.5z"/><path class="st8" d="M719.2 801.5c0-19-15.4-34.4-34.4-34.4s-34.4 15.4-34.4 34.4V905h68.7V801.5zM830.4 801.5c0-19-15.4-34.4-34.4-34.4s-34.4 15.4-34.4 34.4V905h68.7V801.5zM608 801.5c0-19-15.4-34.4-34.4-34.4s-34.4 15.4-34.4 34.4V905H608V801.5zM175.9-1h70.7v141.3h-70.7z"/><g><path class="st3" d="M425.5 265.6l-11.2-40.5c-3.1-11.1-5.2-22.5-6.4-33.8-1.1-11.1-1.3-22.4-.6-33.4.7-10.9 2.4-21.9 5-32.5 2.6-10.6 6.1-21 10.4-31 4.3-10 9.5-19.7 15.5-28.9s12.8-18.1 20.3-26.3c7.6-8.3 16-16.1 24.9-23.1 9.1-7.1 18.9-13.6 29.2-19.3L588.4-45l9.7 17.6-75.8 41.9c-9.4 5.2-18.3 11.1-26.5 17.6-8.1 6.4-15.7 13.4-22.5 20.8-6.8 7.4-12.9 15.3-18.3 23.6-5.3 8.3-10 17-13.9 25.9-3.9 8.9-7 18.3-9.3 27.8-2.3 9.5-3.8 19.3-4.5 29.1-.7 9.9-.5 20 .5 30 1 10.1 3 20.4 5.8 30.4l11.2 40.5-19.3 5.4z"/></g><path class="st7" d="M193.1 753.6c-11.5-2.5-23.2-4-34.7-4.5-11.4-.6-22.8-.2-33.9 1.1-11 1.3-22 3.5-32.5 6.5s-20.8 7-30.6 11.7c-9.8 4.7-19.2 10.3-28.1 16.6-8.9 6.3-17.3 13.5-25.1 21.3-3.4 3.4-6.7 7.1-9.9 10.8v33.7c1.6-2.5 3.2-4.9 4.9-7.3 5.8-8.2 12.3-16 19.3-23 6.9-7 14.5-13.4 22.5-19 8-5.7 16.4-10.7 25.2-14.9 8.8-4.2 18-7.8 27.5-10.5s19.3-4.7 29.3-5.9c10.1-1.2 20.4-1.5 30.7-1 10.5.5 21.1 1.9 31.5 4.1l84.7 18 4.2-19.6-85-18.1z"/></svg>