<svg version="1.1" id="Layer_1" xmlns="http://www.w3.org/2000/svg" x="0" y="0" viewBox="0 0 1928.2 2826.3" xml:space="preserve"><style>.st0{opacity:.5}.st1{fill:#00a066}.st2{fill:#0fa}.st4{fill:#00ba7c}.st5{fill:none;stroke:#000;stroke-width:30;stroke-miterlimit:10}</style><g class="st0"><path class="st1" d="M1413.4 1159.2c-28.4-29.3-72.8-34.7-113.6-37.1-131-7.7-262.8-1.5-392.4 18.4-14.2 2.2-28.8 4.7-41.2 12-12.4 7.4-22.3 20.7-21.3 35.1 21.7 5.4 44.1-3.4 66-8.2 23.8-5.2 48.3-5.7 72.7-6.2 98.3-1.9 196.6-3.8 295-5.7 32.9-.6 66.8-1.1 97.4 10.8 7.8 3 15.5 6.9 23.8 7.8s17.8-1.9 21.8-9.3-1-18.8-9.4-18.5"/></g><g class="st0"><path class="st1" d="M1433.8 1205.5c8.9-3.6 19.8-1.6 27 4.8 10.8 9.6 11.5 27.1 5.1 40-6.4 12.9-18.5 22.2-30.8 29.7-47.5 28.9-103.8 39.2-159 46.3-123.3 15.9-252.9 17.9-367.1-31.3-25.1-10.8-52-27.7-56.3-54.7-.5-3-.6-6.3.8-9 2.1-3.8 6.7-5.4 10.9-6.5 65.3-16.9 133.8 2 200.4 12.8 126.2 20.6 257.1 11.9 379.4-25.3"/></g><path class="st2" d="M1827.6 894.1s84.2 203.1-125.9 509.5-222.1 653.5-222.1 755.5 54 594 54 594l84-6s-66-636-12-816 282-551 282-653 12-290 12-290l-72-94zM999.6 711.1l-11.2-404-22.5-120s-11.2 280-11.2 340-16.9 216-16.9 216l61.8-32zM1901.6 527.1s-184 288-236 312c0 0 104 8 144-48s92-264 92-264zM1448.2 795.8l108-193.5 63-179.7-4-69s-73 232-105 289-71 122-71 122l9 31.2z"/><path d="M689.6 650.8s17 107.1 118 94.8 168.5-62.7 168.5-62.7 78 136.9 126 142.2c48 5.3 200.5-319.8 200.5-319.8s3.5 298.8 45.5 293.5 78 31.6 96 42.1 77.6-10.4 77.6-10.4 23.6 58 60 57.9c36.4-.1 227.9-97.1 227.9-97.1l90 197.4-405 14.9-86.5-89.1-138.5 75.9-36-65.8-128 126.6-157-200.3-165 150.3-149.7-170.8 55.7-179.6z" opacity=".5" fill="#00a066"/><path class="st4" d="M1812.6 419.1s-177 72-201 171-87 363-87 363l-6-273 42-87 60-90 48-54 84-33 60 3zM1557.6 239.1s-117-30-177 255-75 402-75 402 0-213-3-279 6-177 9-192 114-162 114-162l81-42 51 18zM1227.6 78.1s-84 126-120 282c-25.8 111.6-63.8 315.3-83.4 422.3-2.1 11.7-19.1 11-20.3-.7l-40.3 4.5 33-312s78.3-251.5 117-330c32-65.1 114-66.1 114-66.1zM867.6 12.1s-108 72-108 270 6.3 467.7 6.3 467.7l-78 42-36-42 41.7-389.7s36-300 84-324 90-24 90-24zM225.6 804.1s42.6 317.9 186 486c120.4 141.1 316.8 215.8 362 261 124 124 204 388 168 544s-49.7 688.3-49.7 688.3l-466.3-128.3s334-496 286-682 12-245-150-407-462-366-426-444 90-318 90-318z"/><path d="M1292.6 941.1s-52-320 89-283 71.2 144.8 40 178c-28.4 30.3-129 105-129 105zM1521.7 956.5s-32.9-131.8 27.3-219.2c60.2-87.5 164.9-26.7 146.5 45.4-40.9 160.2-173.8 173.8-173.8 173.8zM789.2 961.1s-105.3-306.2-31.5-371.4 131.4-20.9 143.3 13c23.4 66.9 28.2 86.9-2.2 200.9-14.3 53.8-109.6 157.5-109.6 157.5z"/><path class="st4" d="M577.3 1071.5c95 25.5 183.2 71 260 132.4 18.8 15 37.6 30.5 58.8 42.1 22.1 12.1 46.2 18.5 71 22.3 12.7 1.9 25.4 3.3 38.2 4.7 11.2 1.3 22.9 2.1 33.9 4.6 11.8 2.7 22.9 9.7 33.3 15.7 15 8.8 29.6 18.4 43.8 28.5 5.5 3.9 11 7.8 16.3 12 .5.4 3 2.3 4.2 3.4 1 .9 2.4 2.9 1.3 1 3.8 6.7 14.1.7 10.4-6.1-1.3-2.4-4.1-4.2-6.2-5.9-4.3-3.4-8.6-6.6-13-9.8-12.4-9-25.2-17.6-38.2-25.8-12.6-7.9-25.5-15.7-39.3-21.4-6-2.5-11.7-3.7-18.1-4.7-12.7-1.9-25.4-3.3-38.2-4.7-25.1-2.9-50.5-6.2-74.3-15.3-23.3-9-43.7-24.1-63.1-39.5-19.5-15.4-38.8-30.9-59.3-44.9-20.5-14.1-41.8-27.1-63.7-38.9-48.9-26.4-100.8-47-154.4-61.4-7.6-1.9-10.8 9.7-3.4 11.7zM1843 1302.2c-63.5-23.8-128.3-45.4-195.6-55.8-68.7-10.6-138.7-11.5-208-14.7-40.3-1.9-80.5-3.7-120.8-5.6-6.7-.3-8.3 10.4-1.6 11.8 63.9 12.9 117.4 52.1 170.4 87.8 26.7 18 53.8 35.5 83 49.3 14.4 6.8 29.2 12.6 44.5 17 16.7 4.8 33.9 7.5 51.2 9.6 39.5 4.9 81.4 6.5 116.1 28.3 6.6 4.1 12.6-6.3 6.1-10.4-30.7-19.3-67-23.7-102.3-27.7-18.2-2-36.4-4-54.3-8-15.5-3.5-30.7-8.5-45.3-14.8-60-25.8-110.4-68.6-166.3-101.6-31.1-18.4-64.4-33.9-100-41.1-.5 3.9-1.1 7.9-1.6 11.8 70.3 3.3 140.7 6.4 211 9.8 34.4 1.7 68.9 3.7 103 8.4 33.4 4.6 66.4 11.9 98.8 21.1 36.6 10.4 72.6 23 108.3 36.4 7.5 2.6 10.6-9 3.4-11.6z"/><path d="M249.3 1029.4c-65.6-7.5-137-14.4-199.8 10.9-17.3 6.9-33.2 16.2-47.6 27.9-4.2 3.4-.6 10.3 4.2 10.2l248.5-1.5c-.5-3.9-1.1-7.9-1.6-11.8-62.2 25.5-120.2 59.9-172.4 102.3-6 4.9 2.5 13.3 8.5 8.5 50.5-41 107-74.5 167.2-99.2 5.9-2.4 5.7-11.8-1.6-11.8l-248.5 1.5 4.2 10.2c51.1-41.3 120.4-44.6 183.1-40.5 18.7 1.2 37.2 3.1 55.8 5.3 7.6.9 7.6-11.1 0-12zM903.9 192.2c-45.7-4.9-92.1 3.7-133.1 24.4-5.4 2.7-2.7 11.3 3 11.2 65.6-1.3 131.3-.2 196.8 3.2-.5-3.9-1.1-7.9-1.6-11.8-52.5 11.6-103.6 28.3-152.9 49.6-7.1 3.1-1 13.4 6.1 10.4 48.3-20.9 98.6-37 150-48.4 6.9-1.5 4.9-11.4-1.6-11.8-65.5-3.4-131.2-4.5-196.8-3.2 1 3.7 2 7.5 3 11.2 39.2-19.7 83.5-27.4 127.1-22.7 7.6.7 7.6-11.3 0-12.1zM1263.7 241c-49.7-5-99.8-2.4-148.8 7.4-7.1 1.4-4.7 11.2 1.6 11.8 54.7 5.5 109.4 11.1 164.1 16.6v-12c-58.9 7.5-117.4 18.4-175.1 32.6-7.5 1.8-4.3 13.4 3.2 11.6 56.6-14 114-24.8 171.9-32.2 7.6-1 7.8-11.2 0-12-54.7-5.5-109.4-11.1-164.1-16.6.5 3.9 1.1 7.9 1.6 11.8 47.9-9.6 97-11.8 145.6-6.9 7.7.7 7.6-11.3 0-12.1zM1545.8 365.9c-43.1.2-86.3.3-129.4.5v12c76-2.8 152 8.4 224 33.2.5-3.9 1.1-7.9 1.6-11.8-75.8-1.5-151.6 8.6-224.3 29.8-7.4 2.2-4.3 13.7 3.2 11.6 71.8-21 146.4-30.9 221.2-29.4 7 .1 7.8-9.7 1.6-11.8-72.9-25-150.2-36.5-227.2-33.6-7.7.3-7.8 12 0 12 43.1-.2 86.3-.3 129.4-.5 7.6 0 7.6-12-.1-12zM1846.3 580.4c-35.7-27.6-86-31.9-125.6-10.1-4.2 2.3-3.8 10.1 1.4 11 33.8 5.6 65 21.7 89.1 46.2l8.5-8.5c-41.8-33.2-94.8-50.6-148.1-48.1-7.7.4-7.7 12.4 0 12 50-2.4 100.3 13.4 139.6 44.5 5.9 4.7 14-2.8 8.5-8.5-25.4-25.8-58.6-43.3-94.4-49.3.5 3.7 1 7.3 1.4 11 34.4-19 79.8-16 111.1 8.2 2.6 2 6 2.5 8.5 0 2-2 2.5-6.4 0-8.4z"/><path class="st2" d="M1169.6 851.1s49-246 82-333c29.8-78.5 42-291 42-291l7.7 285.8c.2 6.8-1 13.5-3.5 19.7l-128.2 318.5z"/><path d="M1099 640.1c-45.1-.2-75.2 27.7-87.1 157.9-5.4 58.4 96 214.1 96 214.1s52-60.6 105.4-188-60.2-183.7-114.3-184z"/><path class="st2" d="M585.6 363.1s8 120 4 244-72 404-72 404l36 12s100-396 80-464-48-196-48-196z"/><path d="M850 1178.1c46.2-31 157.7-52.8 287.9-52.8 129.7 0 240.8 21.7 287.3 52.5 14.7-9.8 22.7-20.6 22.7-31.9 0-46.8-139.1-84.7-310.6-84.7s-310.6 37.9-310.6 84.7c-.1 11.4 8.3 22.3 23.3 32.2z" fill="#877700"/><path d="M828.4 1199l-1.2-52.7c0 38.8 139.7 69.7 311.2 69.7s310.6-31.4 310.6-70.2l.6 53.1V1212.6c0 38.8-139.1 70.2-310.6 70.2s-310.6-31.4-310.6-70.2V1199z" fill="#ffe600"/><path class="st5" d="M425.6 2655.1s312-456 296-632-16-312-144-424-448-360-440-504 264-600 320-712 136-32 136-32 56 272 32 392-64 288-64 288l128-360s8-320 16-416 48-232 160-240 131 313 131 459c0 0 101-419 213-403s101 185 104 368c0 0 104-256 240-200s40 296 40 296 136-184 272-112-64 328-56 408 152 144 64 424-296 568-296 744 48 744 48 744-440 88-648 64-552-152-552-152z"/><path d="M496.6 232.1s85 230 0 367-202-45-202-45l202-322z"/></svg>