<svg version="1.1" id="Layer_1" xmlns="http://www.w3.org/2000/svg" x="0" y="0" viewBox="0 0 1572.2 3166.4" xml:space="preserve"><style>.st1{opacity:.2}.st2{fill:#ffec8d}.st3{opacity:.3}</style><path d="M1004.4 2985.3s43.6-261.7 101.8-392.5 186.1-203.5 194.8-299.5c8.7-96 197.7-456.5 197.7-567s11.6-221 32-314 55.2-209.4-17.4-250.1c-72.7-40.7-161.4-16-239.9 175.9s-127.9 404.2-127.9 404.2-8.7 101.8-52.3 101.8c-43.6 0 52.3-616.4 66.9-837.4 14.5-221 49.4-703.7 49.4-703.7s5.8-104.7-55.2-107.6c-61.1-2.9-107.6 2.9-130.8 81.4s-96 680.4-96 680.4l-26.2 308.2s11.6 101.8-58.2 93-17.4-418.7-17.4-418.7V174.9S863.5 15 741.4 15 619.2 160.4 619.2 160.4l-32 761.8-5.8 270.4s20.4 110.5-20.4 110.5-58.2-110.5-58.2-110.5l-43.6-639.7s20.4-145.4-104.7-145.4-93 162.8-93 162.8l17.4 633.9s32 116.3-17.4 116.3-43.6-116.3-43.6-116.3L183 747.8s-14.5-116.3-75.6-116.3S20.2 739 20.2 739s-11.6 424.5 0 500.1S78.4 1620 90 1724.7s61.1 305.3 78.5 340.2 55.2 148.3 78.5 191.9c23.3 43.6-29.1 459.4-29.1 459.4s29.1 20.4 113.4 66.9 244.3 116.3 351.8 157 321.3 45.2 321.3 45.2z" fill="#a36400"/><path d="M1017.1 3000.5l-13-.3c-8.8-.2-217.6-4.9-326.3-46-105.7-40-266.9-110-353.8-157.9-84.1-46.4-113.5-66.9-114.8-67.7l-7.4-5.2 1.1-9c.1-1 13.2-105 23.2-212.9 5.9-63.2 9.6-115.4 11-155 2.5-67.7-2.5-80.6-3.5-82.6-13.4-25.2-30.6-70.4-47.3-114.2-12.4-32.6-24.1-63.3-31.4-78-10.9-21.8-29.2-90.3-42.6-147.2-18.3-77.9-31.9-150.1-37.3-198.1-12.4-111.6-63.9-447.1-69.7-485-11.7-76-.6-485.4-.1-502.8V737l.4-1.5c.3-1.2 7.2-29 22-57.2 26.9-51.1 58.2-61.8 79.8-61.8 22.1 0 53 11.8 74.7 67.7 11.8 30.5 15.6 60.5 15.8 61.7l.1.7 35 457.5v.9c-1.4 28.1 2.4 79.1 18.3 95.8 3.1 3.3 6.3 4.8 10.3 4.8 3.7 0 5.4-1.2 6.8-3 11.1-14.6 4.3-64.9-3.8-94.3l-.5-1.8L246.6 572c-2.1-11.9-15.2-94.9 25.2-144 19.3-23.5 47.2-35.4 82.8-35.4 38 0 67.9 12.2 88.9 36.3 38.3 44.1 32.3 112.7 30.9 124.5l43.5 637.5c.7 4.1 5 28.5 13.2 52.4 11.4 33.1 23.3 44.8 30 44.8 1.3 0 2-.2 3.2-1.6 10.7-12.8 7.8-62 2.4-91.2l-.3-1.5v-1.5l5.8-270.7 32-761.6c0-4.2.8-41 16.4-78.1C643.1 28.3 684.8 0 741.3 0c34.8 0 61.6 11.6 79.7 34.5 37.8 47.8 22.5 128.6 19.6 142v764l-.1.9c-.1.9-11.1 87.7-16.2 180.9-9 165.8 8.4 207.5 16.4 217.7 1.1 1.4 2.8 3.2 4.3 3.4 11.6 1.4 20.3-.9 26.7-7.2 16.6-16.4 16.3-55.6 14.7-69.3l-.2-1.5.1-1.5 26.2-308.5v-.3c3-24.6 73.1-604.1 96.5-682.9 12-40.5 31.3-66.8 59-80.4 24.4-12 52.4-13.3 86.9-11.7 16.8.8 31.1 7.6 42.4 20.1 30.6 33.9 27.3 100.5 27.1 103.3v.2c-.3 4.8-35.1 485.2-49.4 703.6-5 75.9-19.4 197.1-34.7 325.4-13.6 114.5-27.7 232.9-36 327.2-4.5 50.7-6.9 89.6-7.3 118.8-.4 27.9 1.1 41.7 2.4 48.3 8-4.6 15.7-17.9 21.8-38 7.2-23.7 9.3-48 9.3-48.2l.1-1.1.2-1c.5-2.1 50.6-215.6 128.7-406.5 44.7-109.2 96.8-174.8 155-195.1 34.7-12.1 70.4-8.2 106.1 11.8 18.5 10.4 32.2 25.6 40.7 45.4 7.2 16.8 10.8 36.6 10.9 60.5.1 42.1-10.6 88.9-20.9 134.2-2.1 9.1-4 17.7-5.9 26.3-20.4 93.3-31.6 203.7-31.6 310.8 0 63.6-56.3 198.1-110.7 328.1-41 97.9-83.4 199.2-87.1 240.3-5.1 56.3-47.1 104.5-91.5 155.5-36.8 42.3-78.6 90.2-104.6 148.8-56.7 127.6-100.2 386.3-100.7 388.9l-2.1 12.8zm-783.2-291.6c13.2 8.5 45.1 28.3 104.6 61.1 85.7 47.3 245.2 116.5 349.9 156.1 89 33.7 256 42 303.4 43.7 9.7-55 49.1-267.3 100.6-383.2 27.9-62.7 71.2-112.4 109.4-156.3 42.9-49.3 80-91.8 84.2-138.5 4.2-45.7 43.6-140 89.3-249.1 50.8-121.4 108.4-259 108.4-316.5 0-109.3 11.5-221.9 32.3-317.2 1.9-8.7 4-17.8 6-26.5 10-43.7 20.2-88.8 20.1-127.4-.1-40.6-11.6-66-36.2-79.8-27.8-15.6-55.3-18.8-81.5-9.7-22.9 8-45.4 25.5-67 52-24.7 30.4-48.3 72.9-70.2 126.2-74.4 182-123.2 385.1-127 400.9-.5 5.5-3.1 28.9-10.3 52.8-15.3 50.9-39.4 61.6-56.9 61.6-5.7 0-11.1-2.5-15-7-9.5-10.7-17.6-34-4.2-188.3 8.3-95.7 22.7-217 36.7-334.3 15.2-127.9 29.6-248.7 34.5-323.8 14.3-217.2 48.7-693.3 49.4-703.6.8-15.9-1.1-61.1-19.5-81.5-5.9-6.5-12.7-9.8-21.5-10.2-29.9-1.4-53.7-.5-72.3 8.7-20 9.9-33.9 29.6-43.5 62-22.5 75.8-93.5 662.2-95.4 677.7l-26 306.5c1.1 11.3 4.6 64.6-23.6 92.4-9 8.9-25.3 18.9-51.5 15.6-6.5-.8-15.9-4-24.2-14.8-12.9-16.7-20.7-48.8-23.7-98.2-2.3-37.1-1.9-84.1 1.1-139.7 4.8-88.9 15-172.1 16.2-181.9V173.2l.4-1.7c.2-.8 17.9-78.6-13.6-118.4-12.2-15.5-30.5-23.1-56-23.1-43.8 0-75 21.1-92.7 62.8-14.1 33.2-14.4 67.3-14.4 67.6v.6l-32 761.7-5.8 268.8c.9 5.3 3.7 22.9 4.7 43.1 1.7 34.7-2.8 57.9-13.9 71.2-6.8 8.1-15.8 12.4-26.2 12.4-24 0-43.7-22-58.5-65.4-9.8-28.5-14.2-56.6-14.4-57.8l-.1-.7v-.7l-43.7-641.3.2-1.5c.1-.6 8.5-65.5-23.7-102.4-15-17.2-37.3-25.9-66.1-25.9-26.6 0-46.1 8-59.6 24.4-33.7 40.9-18.9 119.8-18.7 120.6l.2 1.2v1.3l17.4 632.1c1.5 5.6 5.8 23.4 8.4 43.8 4.4 35.6 1.1 60.1-10.1 74.8-7.4 9.7-18 14.9-30.6 14.9-12.2 0-23.3-4.9-32.1-14.1-29-30.5-27.1-104.6-26.6-117l-34.8-455.2c-.4-3.1-4.2-29.3-14.1-54.7-8.6-22-23.6-48.1-46.5-48.1-44.7 0-69 82.9-72.3 94.7-.8 29.7-11 424.7-.1 495.7 5.8 38 57.4 374 69.9 486.2 11.4 102.4 60.5 302.2 77 335.2 8 16.1 19.4 46.1 32.6 80.8 15.5 40.9 33.2 87.3 45.7 110.8 4.6 8.5 16.7 31.2-4.1 254.5-8.5 89.6-19 176.6-22.4 204.5z"/><g class="st1"><path class="st2" d="M1132.5 236.9c.8 0 1.5.1 2.3.2 3.2.1-4.7-.3-4.2-.5.8-.5 4 1 5 1.3.7.2 1.4.6 2 .7.1 0-6.1-3.1-3.9-1.6 1.3.9 3 1.6 4.4 2.5l1.8 1.2c3 1.8-5.1-4.6-2.7-2 1 1.1 2.2 2 3.2 3 1 1.1 1.9 2.3 3 3.3 2.1 2-2.4-3.3-2.3-3.1.6 1.1 1.5 2.1 2.2 3.1 1.8 2.6 3.4 5.4 4.8 8.1.8 1.4 1.4 2.9 2.1 4.3 3 6.1-2.2-5.9.2.4 2.6 6.7 4.6 13.6 6.2 20.6.8 3.4 1.5 6.9 2 10.3.3 1.8.6 3.7.8 5.5.2 1.2.3 2.4.5 3.6.7 4.5-.7-5.3-.1-.8 1.3 10.8 2.6 21.6 3.5 32.4 1.8 20.8 2.8 41.7 3.2 62.5.7 42.3-1.4 84.6-5.1 126.7-1.8 21-4.1 41.9-6.6 62.8-1.3 10.9-2.7 21.7-4.1 32.6-.3 2.4-.6 4.8-1 7.2-.8 6 .6-4.3-.2 1.7-.8 5.6-1.5 11.2-2.3 16.9-12.1 86.3-24.9 172.5-35.6 259-10.5 84.8-19.5 169.8-27.2 254.9s-13.9 170.3-18.8 255.7c-.6 10.6-1.2 21.1-1.7 31.7-.8 15.7 14.4 30.7 30 30 17-.8 29.1-13.2 30-30 4.6-87.4 10.7-174.7 18.3-261.8 7.5-86.8 16.5-173.4 26.9-259.8 2.6-21.8 5.4-43.6 8.2-65.4 1.4-10.9 2.8-21.8 4.3-32.7.8-6-.6 4.3.2-1.7.4-2.8.8-5.6 1.1-8.5.8-5.6 1.5-11.3 2.3-16.9 5.9-43 12.4-85.9 18.5-128.8 12.4-87.8 23.5-176.1 22.8-264.9-.3-43.5-2.8-87.9-10.7-130.8-5.9-32-21.3-69-52-84.6-10.2-5.2-20.1-7.6-31.5-8.2-15.7-.9-30.7 14.5-30 30 .9 17 13.3 28.9 30.2 29.9z"/></g><g class="st1"><path class="st2" d="M701.1 62.9c3.1 2.7 6.2 5.6 9.1 8.6 3.3 3.4 6 8 9.5 10.9-.1-.1-3.4-4.7-1.6-1.9.6.9 1.2 1.7 1.8 2.5 1.2 1.7 2.4 3.4 3.5 5.2 2.5 3.8 4.8 7.7 6.9 11.6 2.2 4 4.2 8 6.2 12.2.8 1.8 1.4 4.2 2.6 5.8-.1-.1-2.2-5.4-1-2.3.5 1.3 1.1 2.6 1.6 3.9 3.2 8.2 6 16.6 8.5 25.1 5.8 19.7 10 39.9 13.3 60.2.8 4.9 1.6 9.9 2.3 14.9.9 6-.5-4 .3 2 .4 2.9.7 5.8 1 8.7 1.2 10.8 2.2 21.6 3 32.5 6.3 87 1.8 174.8.4 261.9-1.5 89.4-2.5 178.9-4.9 268.2s-9.8 177.9-18.8 266.7c-8.9 87.7-17.6 175.7-15.3 263.9.3 11.2.8 22.5 1.4 33.7.9 15.6 13.1 30.8 30 30 15.5-.7 31-13.2 30-30-5.2-89.4 2-178.9 10.8-267.9 8.9-89.6 18-178.9 21-268.9 3.1-90.7 3.8-181.5 5.3-272.2.8-44.8 1.5-89.5 2.3-134.3.7-43.7 1.3-87.4-1-131.1-2.3-45.2-7.5-90.6-18.1-134.7-9.3-39-24-76.5-49.1-108-5.6-7.1-11.8-13.6-18.6-19.5-11.8-10.3-31-12.5-42.4 0-10.4 11.2-12.6 31.3 0 42.3z"/></g><g class="st1"><path class="st2" d="M347.4 459c3.4 1 6.8 2.1 10.1 3.5l-7.2-3c5.2 2.2 10.1 4.8 14.9 7.8 1.1.7 2.1 1.4 3.2 2.2 4.8 3.5-1.9-1.3-1.8-1.5 0 0 5.8 5.1 6.3 5.6 1.8 1.8 3.6 3.6 5.3 5.5.8 1 1.6 2 2.4 2.9-5.7-5.8-2.6-3.3-1-1.2 3.4 4.9 6.2 10.1 8.6 15.6l-3-7.2c5.2 12.3 8 25.3 9.8 38.5-.4-2.7-.7-5.3-1.1-8 3.5 26.2 5.1 52.7 7.5 79.1 2.5 27.5 4.9 55.1 7.4 82.6 4.8 54.1 9.2 108.4 5.7 162.8-1.8 27.1-4.9 54-6.7 81.1-1.8 27.2-1.8 54.5-.1 81.7 3.4 54.6 11.5 109.2 22.3 162.8 11.6 57.4 27.4 114 48.9 168.5 3 7.5 6.6 13.7 13.8 17.9 6.4 3.8 15.9 5.4 23.1 3 7.3-2.3 14.3-6.8 17.9-13.8 3.5-6.7 5.9-15.7 3-23.1-24.8-63.1-42.1-128.8-54-195.5-3.4-19-6.3-38-8.9-57.1.4 2.7.7 5.3 1.1 8-6.2-46.3-10.1-93-7.9-139.8 2.3-46.5 9-92.7 8.8-139.4-.2-47.2-5-94.2-9.2-141.1-2.1-23.6-4.2-47.1-6.3-70.7-2-22.4-3.5-44.8-6.4-67.1-1.8-13.6-3.8-27.1-8.4-40-5.2-14.5-12-26.9-21.5-38.9-15.2-19.2-37.1-33-60.6-39.7-15.1-4.3-33.3 5.2-36.9 21-3.7 16 4.8 32.4 20.9 37z"/></g><g class="st1"><path class="st2" d="M79.2 687.7c.9-.2 1.7-.4 2.6-.5-2.7.4-5.3.7-8 1.1 1.7-.1 3.3-.1 5.1 0-2.7-.4-5.3-.7-8-1.1 2.1.3 4 .8 5.9 1.6l-7.2-3c1.6.7 3 1.5 4.4 2.4 4.2 2.3-5.7-5.1-1.9-1.5 1 .9 2 1.8 2.9 2.8.8.9 4.8 5.8 1.2 1.2-3.6-4.6.3.7.9 1.6.8 1.2 1.5 2.5 2.2 3.7 1.6 2.9 3.1 5.9 4.4 9l-3-7.2c16.1 39 24.2 81.9 29.8 123.5-.4-2.7-.7-5.3-1.1-8 9.3 70.1 10.6 141.1 17.5 211.5 7.3 74.9 18.4 149.5 33.4 223.2 8.3 40.5 17.7 80.6 28.4 120.5 4 15.2 21.6 25.9 36.9 21 15.6-5 25.3-20.7 21-36.9-17.7-66.4-32.2-133.6-43.2-201.4-3.2-19.4-6.1-38.9-8.7-58.4.4 2.7.7 5.3 1.1 8-8.9-66.4-13.4-133-18-199.8-4.6-66.2-10.9-133.4-31.3-196.9-6.1-19.1-13-37-25.5-52.8-14.1-17.9-35.6-26-57.9-21.5-15.4 3.1-25.7 22.2-21 36.9 5.5 16.4 20.6 24.4 37.1 21z"/></g><g class="st3"><path class="st2" d="M950.3 1603.7c-5.4 37.6-17.7 73.6-32.4 108.5l3-7.2c-23.4 55.2-51.2 108.4-72.2 164.6-20.8 55.8-36.6 113.4-47 172-6.2 35-10.7 70.3-13.4 105.7-1.2 15.7 14.7 30.7 30 30 17.3-.8 28.7-13.2 30-30 1.5-19.2 3.5-38.3 6-57.3-.4 2.7-.7 5.3-1.1 8 9.1-67 25-133 47.6-196.7 6.4-18.1 13.4-36 20.8-53.8l-3 7.2c25.7-60.8 58.4-119 77.6-182.4 5.2-17.3 9.3-34.8 11.9-52.7 1.2-8.3 1.4-15.6-3-23.1-3.6-6.2-10.8-12.2-17.9-13.8-7.7-1.7-16.3-1.4-23.1 3-6.1 4-12.7 10.5-13.8 18z"/></g><g class="st3"><path class="st2" d="M664 1508.4c-5.9 38.4-6.2 76.6-2.6 115.2 3.6 38.7 10 77.2 15.2 115.7-.4-2.7-.7-5.3-1.1-8 5 37.2 8.2 74.5 7.8 112-.4 37.9-3.8 75.7-8.9 113.2.4-2.7.7-5.3 1.1-8-6.5 48.1-15.6 95.8-24.7 143.4-1.5 8-1.2 15.9 3 23.1 3.6 6.2 10.8 12.2 17.9 13.8 14.8 3.4 33.7-4.5 36.9-21 22-114.7 43.3-230.9 30.4-348-3.8-33.9-9.2-67.7-13.7-101.5.4 2.7.7 5.3 1.1 8-6.3-47.2-10.7-95.1-4.6-142.5-.4 2.7-.7 5.3-1.1 8 .3-2.5.7-5.1 1.1-7.6 1.3-8.3 1.4-15.6-3-23.1-3.6-6.2-10.8-12.2-17.9-13.8-7.7-1.7-16.3-1.4-23.1 3-6.1 4.1-12.6 10.5-13.8 18.1z"/></g><g class="st3"><path class="st2" d="M386.6 1558c22.4 70.7 43.2 141.9 62.4 213.6 19.2 72 36.7 144.4 52.5 217.3 8.9 40.8 17.2 81.8 25 122.9 2.9 15.4 22.4 25.7 36.9 21 16.5-5.3 24.1-20.4 21-36.9-13.9-72.9-29.4-145.5-46.6-217.6-17.3-72.5-36.3-144.6-57-216.1-11.6-40.2-23.7-80.2-36.4-120-4.7-14.9-21.1-26.1-36.9-21-15 4.8-26 20.8-20.9 36.8z"/></g><path d="M70.7 1639.4s256 747 289 774 141.7 197.8 275 270c144 78 582-300 582-300l-236 602s-328.5-35.3-448.3-89.1-338.7-179.9-338.7-179.9 72-381 57-444-141.6-300.5-162.3-381.2c-20.7-80.8-17.7-251.8-17.7-251.8z"/><path d="M492.7 2078.4c-7.1 0-13.3-5-14.7-12.2l-100-524c-1.6-8.1 3.8-16 11.9-17.5 8.1-1.6 16 3.8 17.5 11.9l100 524c1.6 8.1-3.8 16-11.9 17.5-.9.2-1.9.3-2.8.3zM660.7 2114.4c-8.3 0-15-6.7-15-15v-588c0-8.3 6.7-15 15-15s15 6.7 15 15v588c0 8.3-6.7 15-15 15zM796.7 2138.4c-1.3 0-2.7-.2-4-.5-8-2.2-12.7-10.5-10.5-18.5l148-536c2.2-8 10.5-12.7 18.5-10.5s12.7 10.5 10.5 18.5l-148 536c-1.9 6.6-7.9 11-14.5 11zM432.7 2080.4c-2.4 0-4.5-1.7-4.9-4.1l-1.1-5.9c-.5-2.7 1.3-5.3 4-5.8s5.3 1.3 5.8 4l1.1 5.9c.5 2.7-1.3 5.3-4 5.8-.3.1-.6.1-.9.1zM426.2 2044c-2.4 0-4.5-1.7-4.9-4.1l-2.2-12.2c-.5-2.7 1.3-5.3 4-5.8s5.3 1.3 5.8 4l2.2 12.2c.5 2.7-1.3 5.3-4 5.8-.3.1-.6.1-.9.1zm-7.7-42.7c-2.4 0-4.5-1.7-4.9-4.1l-2.2-12.2c-.5-2.7 1.3-5.3 4-5.8s5.3 1.3 5.8 4l2.2 12.2c.5 2.7-1.3 5.3-4 5.8-.3.1-.6.1-.9.1zm-7.7-42.7c-2.4 0-4.5-1.7-4.9-4.1l-2.2-12.2c-.5-2.7 1.3-5.3 4-5.8s5.3 1.3 5.8 4l2.2 12.2c.5 2.7-1.3 5.3-4 5.8-.3.1-.6.1-.9.1zm-7.6-42.7c-2.4 0-4.5-1.7-4.9-4.1l-2.2-12.2c-.5-2.7 1.3-5.3 4-5.8s5.3 1.3 5.8 4l2.2 12.2c.5 2.7-1.3 5.3-4 5.8-.3.1-.6.1-.9.1zm-7.7-42.7c-2.4 0-4.5-1.7-4.9-4.1l-2.2-12.2c-.5-2.7 1.3-5.3 4-5.8s5.3 1.3 5.8 4l2.2 12.2c.5 2.7-1.3 5.3-4 5.8-.3.1-.6.1-.9.1zm-7.7-42.7c-2.4 0-4.5-1.7-4.9-4.1l-2.2-12.2c-.5-2.7 1.3-5.3 4-5.8s5.3 1.3 5.8 4l2.2 12.2c.5 2.7-1.3 5.3-4 5.8-.3.1-.6.1-.9.1zm-7.7-42.7c-2.4 0-4.5-1.7-4.9-4.1l-2.2-12.2c-.5-2.7 1.3-5.3 4-5.8s5.3 1.3 5.8 4l2.2 12.2c.5 2.7-1.3 5.3-4 5.8-.3.1-.6.1-.9.1zm-7.6-42.7c-2.4 0-4.5-1.7-4.9-4.1l-2.2-12.2c-.5-2.7 1.3-5.3 4-5.8s5.3 1.3 5.8 4l2.2 12.2c.5 2.7-1.3 5.3-4 5.8-.3.1-.6.1-.9.1zm-7.7-42.7c-2.4 0-4.5-1.7-4.9-4.1l-2.2-12.2c-.5-2.7 1.3-5.3 4-5.8s5.3 1.3 5.8 4l2.2 12.2c.5 2.7-1.3 5.3-4 5.8-.3.1-.6.1-.9.1zm-7.7-42.7c-2.4 0-4.5-1.7-4.9-4.1l-2.2-12.2c-.5-2.7 1.3-5.3 4-5.8s5.3 1.3 5.8 4l2.2 12.2c.5 2.7-1.3 5.3-4 5.8-.3.1-.6.1-.9.1zm-7.6-42.7c-2.4 0-4.5-1.7-4.9-4.1l-2.2-12.2c-.5-2.7 1.3-5.3 4-5.8s5.3 1.3 5.8 4l2.2 12.2c.5 2.7-1.3 5.3-4 5.8-.4.1-.7.1-.9.1zM341.8 1574.3c-2.4 0-4.5-1.7-4.9-4.1l-1.1-5.9c-.5-2.7 1.3-5.3 4-5.8s5.3 1.3 5.8 4l1.1 5.9c.5 2.7-1.3 5.3-4 5.8-.3.1-.6.1-.9.1zM612.7 2116.4c-2.8 0-5-2.3-5-5v-6c0-2.8 2.3-5 5-5 2.8 0 5 2.3 5 5v6c0 2.8-2.2 5-5 5zM613 2080s-.1 0 0 0c-2.8 0-5-2.3-5-5l.1-12.2c0-2.7 2.3-5 5-5 2.8 0 5 2.3 5 5l-.1 12.2c0 2.8-2.3 5-5 5zm.3-42.6c-.1 0-.1 0 0 0-2.8 0-5-2.3-5-5l.1-12.2c0-2.8 2.3-5 5-5 2.8 0 5 2.3 5 5l-.1 12.2c-.1 2.8-2.3 5-5 5zm.2-42.6c-2.8 0-5-2.3-5-5l.1-12.2c0-2.8 2.3-5 5-5 2.8 0 5 2.3 5 5l-.1 12.2c0 2.8-2.2 5-5 5zm.3-42.6c-2.8 0-5-2.3-5-5l.1-12.2c0-2.7 2.3-5 5-5 2.8 0 5 2.3 5 5l-.1 12.2c0 2.8-2.2 5-5 5zm.3-42.6c-2.8 0-5-2.3-5-5l.1-12.2c0-2.8 2.3-5 5-5 2.8 0 5 2.3 5 5l-.1 12.2c0 2.8-2.2 5-5 5zm.3-42.5c-2.8 0-5-2.3-5-5l.1-12.2c0-2.8 2.3-4.9 5-5 2.8 0 5 2.3 5 5l-.1 12.2c0 2.7-2.3 5-5 5zm.3-42.6c-2.8 0-5-2.3-5-5l.1-12.2c0-2.7 2.3-5 5-5 2.8 0 5 2.3 5 5l-.1 12.2c0 2.8-2.3 5-5 5zm.3-42.6s-.1 0 0 0c-2.8 0-5-2.3-5-5l.1-12.2c0-2.8 2.3-5 5-5 2.8 0 5 2.3 5 5l-.1 12.2c0 2.8-2.3 5-5 5zm.3-42.6c-.1 0-.1 0 0 0-2.8 0-5-2.3-5-5l.1-12.2c0-2.8 2.3-5 5-5 2.8 0 5 2.3 5 5l-.1 12.2c-.1 2.8-2.3 5-5 5zm.2-42.6c-2.8 0-5-2.3-5-5l.1-12.2c0-2.8 2.3-5 5-5 2.8 0 5 2.3 5 5l-.1 12.2c0 2.8-2.2 5-5 5zm.3-42.6c-2.8 0-5-2.3-5-5l.1-12.2c0-2.8 2.3-5 5-5 2.8 0 5 2.3 5 5l-.1 12.2c0 2.8-2.2 5-5 5zm.3-42.5c-2.8 0-5-2.3-5-5l.1-12.2c0-2.8 2.3-5 5-5 2.8 0 5 2.3 5 5l-.1 12.2c0 2.7-2.2 5-5 5zm.3-42.6c-2.8 0-5-2.3-5-5l.1-12.2c0-2.8 2.3-5 5-5 2.8 0 5 2.3 5 5l-.1 12.2c0 2.7-2.3 5-5 5zM616.7 1526.4c-2.8 0-5-2.3-5-5v-6c0-2.8 2.3-5 5-5 2.8 0 5 2.3 5 5v6c0 2.8-2.3 5-5 5zM752.7 2116.4c-.4 0-.8-.1-1.3-.2-2.7-.7-4.3-3.4-3.6-6.1l1.5-5.8c.7-2.7 3.4-4.3 6.1-3.6 2.7.7 4.3 3.4 3.6 6.1l-1.5 5.8c-.5 2.3-2.6 3.8-4.8 3.8zM761.9 2081.1c-.4 0-.8-.1-1.3-.2-2.7-.7-4.3-3.4-3.6-6.1l3.1-11.8c.7-2.7 3.4-4.3 6.1-3.6 2.7.7 4.3 3.4 3.6 6.1l-3.1 11.8c-.5 2.3-2.5 3.8-4.8 3.8zm10.8-41.2c-.4 0-.8-.1-1.3-.2-2.7-.7-4.3-3.4-3.6-6.1l3.1-11.8c.7-2.7 3.4-4.3 6.1-3.6 2.7.7 4.3 3.4 3.6 6.1l-3.1 11.8c-.5 2.3-2.6 3.8-4.8 3.8zm10.8-41.3c-.4 0-.8-.1-1.3-.2-2.7-.7-4.3-3.4-3.6-6.1l3.1-11.8c.7-2.7 3.4-4.3 6.1-3.6 2.7.7 4.3 3.4 3.6 6.1l-3.1 11.8c-.6 2.3-2.6 3.8-4.8 3.8zm10.8-41.2c-.4 0-.8-.1-1.3-.2-2.7-.7-4.3-3.4-3.6-6.1l3.1-11.8c.7-2.7 3.4-4.3 6.1-3.6 2.7.7 4.3 3.4 3.6 6.1l-3.1 11.8c-.6 2.3-2.6 3.8-4.8 3.8zm10.7-41.3c-.4 0-.8-.1-1.3-.2-2.7-.7-4.3-3.4-3.6-6.1l3.1-11.8c.7-2.7 3.4-4.3 6.1-3.6 2.7.7 4.3 3.4 3.6 6.1l-3.1 11.8c-.5 2.4-2.5 3.8-4.8 3.8zm10.8-41.2c-.4 0-.8-.1-1.3-.2-2.7-.7-4.3-3.4-3.6-6.1l3.1-11.8c.7-2.7 3.4-4.3 6.1-3.6 2.7.7 4.3 3.4 3.6 6.1l-3.1 11.8c-.5 2.3-2.6 3.8-4.8 3.8zm10.8-41.2c-.4 0-.8-.1-1.3-.2-2.7-.7-4.3-3.4-3.6-6.1l3.1-11.8c.7-2.7 3.4-4.3 6.1-3.6 2.7.7 4.3 3.4 3.6 6.1l-3.1 11.8c-.6 2.3-2.6 3.8-4.8 3.8zm10.7-41.3c-.4 0-.8-.1-1.3-.2-2.7-.7-4.3-3.4-3.6-6.1l3.1-11.8c.7-2.7 3.4-4.3 6.1-3.6 2.7.7 4.3 3.4 3.6 6.1l-3.1 11.8c-.5 2.3-2.5 3.8-4.8 3.8zm10.8-41.2c-.4 0-.8-.1-1.3-.2-2.7-.7-4.3-3.4-3.6-6.1l3.1-11.8c.7-2.7 3.4-4.3 6.1-3.6 2.7.7 4.3 3.4 3.6 6.1l-3.1 11.8c-.5 2.3-2.6 3.8-4.8 3.8zm10.8-41.3c-.4 0-.8-.1-1.3-.2-2.7-.7-4.3-3.4-3.6-6.1l3.1-11.8c.7-2.7 3.4-4.3 6.1-3.6 2.7.7 4.3 3.4 3.6 6.1l-3.1 11.8c-.6 2.3-2.6 3.8-4.8 3.8zm10.8-41.2c-.4 0-.8-.1-1.3-.2-2.7-.7-4.3-3.4-3.6-6.1l3.1-11.8c.7-2.7 3.4-4.3 6.1-3.6 2.7.7 4.3 3.4 3.6 6.1l-3.1 11.8c-.6 2.3-2.6 3.8-4.8 3.8zm10.7-41.3c-.4 0-.8-.1-1.3-.2-2.7-.7-4.3-3.4-3.6-6.1l3.1-11.8c.7-2.7 3.4-4.3 6.1-3.6 2.7.7 4.3 3.4 3.6 6.1l-3.1 11.8c-.5 2.3-2.5 3.8-4.8 3.8zM891.2 1586.2c-.4 0-.8-.1-1.3-.2-2.7-.7-4.3-3.4-3.6-6.1l1.5-5.8c.7-2.7 3.4-4.3 6.1-3.6 2.7.7 4.3 3.4 3.6 6.1l-1.5 5.8c-.5 2.3-2.6 3.8-4.8 3.8zM967.7 2986.4l-81.8 180c-98.8-6-748-249-748-249l106.8-186"/><g><path d="M930.5 1321.3h-.6c-2.7-.3-4.7-2.8-4.4-5.6l1.4-12c.3-2.7 2.8-4.7 5.6-4.4 2.7.3 4.7 2.8 4.4 5.6l-1.4 12c-.3 2.6-2.5 4.4-5 4.4zm5.1-41.9h-.6c-2.7-.3-4.7-2.8-4.4-5.6l1.4-11.9c.3-2.7 2.8-4.7 5.6-4.4 2.7.3 4.7 2.8 4.4 5.6l-1.4 11.9c-.4 2.5-2.5 4.4-5 4.4zm5-41.8h-.6c-2.7-.3-4.7-2.8-4.4-5.6l1.4-11.9c.3-2.7 2.8-4.7 5.6-4.4 2.7.3 4.7 2.8 4.4 5.6l-1.4 11.9c-.3 2.5-2.5 4.4-5 4.4zm5.1-41.8h-.6c-2.7-.3-4.7-2.8-4.4-5.6l1.4-11.9c.3-2.7 2.8-4.7 5.6-4.4 2.7.3 4.7 2.8 4.4 5.6l-1.4 11.9c-.4 2.5-2.5 4.4-5 4.4zm5-41.8h-.6c-2.7-.3-4.7-2.8-4.4-5.6l1.4-11.9c.3-2.7 2.8-4.7 5.6-4.4 2.7.3 4.7 2.8 4.4 5.6l-1.4 11.9c-.3 2.5-2.5 4.4-5 4.4zm5.1-41.8h-.6c-2.7-.3-4.7-2.8-4.4-5.6l1.4-11.9c.3-2.7 2.8-4.7 5.6-4.4 2.7.3 4.7 2.8 4.4 5.6l-1.4 11.9c-.4 2.5-2.5 4.4-5 4.4zm5-41.8h-.6c-2.7-.3-4.7-2.8-4.4-5.6l1.4-11.9c.3-2.7 2.8-4.7 5.6-4.4 2.7.3 4.7 2.8 4.4 5.6l-1.4 11.9c-.3 2.6-2.5 4.4-5 4.4zm5.1-41.7h-.6c-2.7-.3-4.7-2.8-4.4-5.6l1.5-11.9c.3-2.7 2.8-4.7 5.6-4.4 2.7.3 4.7 2.8 4.4 5.6l-1.4 11.9c-.4 2.5-2.6 4.4-5.1 4.4zm5.1-41.8h-.6c-2.7-.3-4.7-2.8-4.4-5.6l1.5-11.9c.3-2.7 2.8-4.7 5.6-4.4 2.7.3 4.7 2.8 4.4 5.6l-1.5 11.9c-.4 2.5-2.5 4.4-5 4.4zm5.1-41.8h-.6c-2.7-.3-4.7-2.8-4.4-5.6l1.5-11.9c.3-2.7 2.8-4.7 5.6-4.4 2.7.3 4.7 2.8 4.4 5.6l-1.5 11.9c-.4 2.6-2.5 4.4-5 4.4zm5.1-41.7h-.6c-2.7-.3-4.7-2.8-4.4-5.6l1.5-11.9c.3-2.7 2.8-4.7 5.6-4.4 2.7.3 4.7 2.8 4.4 5.6l-1.5 11.9c-.4 2.5-2.5 4.4-5 4.4zm5.1-41.8h-.6c-2.7-.3-4.7-2.8-4.4-5.6l1.5-11.9c.3-2.7 2.8-4.7 5.6-4.4 2.7.3 4.7 2.8 4.4 5.6l-1.5 11.9c-.4 2.5-2.5 4.4-5 4.4zm5.1-41.7h-.6c-2.7-.3-4.7-2.8-4.4-5.6l1.5-11.9c.3-2.7 2.8-4.7 5.6-4.4 2.7.3 4.7 2.8 4.4 5.6l-1.5 11.9c-.4 2.5-2.5 4.4-5 4.4zm5.1-41.8h-.6c-2.7-.3-4.7-2.8-4.3-5.6l1.5-11.9c.3-2.7 2.8-4.7 5.6-4.4 2.7.3 4.7 2.8 4.4 5.6l-1.5 11.9c-.4 2.6-2.6 4.4-5.1 4.4zm5.2-41.7h-.6c-2.7-.3-4.7-2.8-4.3-5.6l1.5-11.9c.3-2.7 2.8-4.7 5.6-4.3 2.7.3 4.7 2.8 4.3 5.6l-1.5 11.9c-.4 2.4-2.5 4.3-5 4.3zm5.2-41.8h-.6c-2.7-.3-4.7-2.8-4.3-5.6l1.5-11.9c.3-2.7 2.8-4.7 5.6-4.3 2.7.3 4.7 2.8 4.3 5.6l-1.5 11.9c-.4 2.5-2.6 4.3-5 4.3zm5.2-41.7h-.6c-2.7-.3-4.7-2.8-4.3-5.6l1.5-11.9c.3-2.7 2.8-4.7 5.6-4.3 2.7.3 4.7 2.8 4.3 5.6l-1.5 11.9c-.4 2.4-2.6 4.3-5 4.3zm5.2-41.8h-.6c-2.7-.3-4.7-2.8-4.3-5.6l1.5-11.9c.3-2.7 2.9-4.7 5.6-4.3 2.7.3 4.7 2.8 4.3 5.6l-1.5 11.9c-.4 2.5-2.5 4.3-5 4.3zm5.3-41.7h-.6c-2.7-.3-4.7-2.9-4.3-5.6l1.5-11.9c.3-2.7 2.8-4.7 5.6-4.3 2.7.3 4.7 2.9 4.3 5.6l-1.5 11.9c-.4 2.4-2.6 4.3-5 4.3zm5.3-41.8h-.6c-2.7-.4-4.7-2.9-4.3-5.6l1.5-11.9c.4-2.7 2.9-4.7 5.6-4.3 2.7.4 4.7 2.9 4.3 5.6l-1.5 11.9c-.4 2.4-2.5 4.3-5 4.3zm5.4-41.8h-.7c-2.7-.4-4.7-2.9-4.3-5.6.5-4.2 1.1-8.1 1.6-11.9.4-2.7 2.9-4.7 5.6-4.3 2.7.4 4.7 2.9 4.3 5.6-.5 3.8-1 7.8-1.6 11.9-.3 2.5-2.4 4.3-4.9 4.3zm5.7-41.7c-.2 0-.5 0-.7-.1-2.7-.4-4.6-2.9-4.2-5.7.6-4 1.2-8 1.7-11.9.4-2.7 2.9-4.6 5.7-4.2 2.7.4 4.6 3 4.2 5.7-.6 3.9-1.2 7.8-1.7 11.8-.4 2.6-2.5 4.4-5 4.4zm6.4-41.5c-.3 0-.5 0-.8-.1-2.7-.5-4.6-3-4.1-5.7.7-4 1.3-8 2-11.9.5-2.7 3.1-4.5 5.8-4.1 2.7.5 4.5 3.1 4.1 5.8-.7 3.9-1.3 7.8-2 11.8-.5 2.5-2.6 4.2-5 4.2zm7.4-41.3c-.3 0-.6 0-.9-.1-2.7-.5-4.5-3.1-4-5.9.8-4 1.5-8 2.3-11.8.5-2.7 3.2-4.5 5.9-3.9 2.7.5 4.5 3.2 3.9 5.9-.8 3.8-1.5 7.7-2.3 11.7-.5 2.4-2.6 4.1-4.9 4.1zm8.5-41.1c-.4 0-.7 0-1.1-.1-2.7-.6-4.4-3.3-3.8-6 .9-3.9 1.8-7.9 2.7-11.7.6-2.7 3.3-4.3 6-3.7 2.7.6 4.3 3.3 3.7 6-.9 3.8-1.8 7.7-2.7 11.6-.5 2.3-2.5 3.9-4.8 3.9zm10.1-40.8c-.4 0-.9-.1-1.3-.2-2.7-.7-4.2-3.5-3.5-6.1 1.1-4 2.2-7.9 3.3-11.6.8-2.6 3.6-4.2 6.2-3.4 2.6.8 4.2 3.6 3.4 6.2-1.1 3.7-2.2 7.5-3.3 11.4-.6 2.3-2.6 3.7-4.8 3.7zm12.7-40c-.6 0-1.2-.1-1.8-.3-2.6-1-3.9-3.9-2.9-6.4 3-7.8 4.7-11.4 4.8-11.5 1.2-2.5 4.2-3.5 6.7-2.2 2.5 1.2 3.5 4.2 2.2 6.7-.1.2-1.7 3.5-4.4 10.6-.6 1.9-2.5 3.1-4.6 3.1z"/></g><g><path d="M719 51.1c-1.1 0-2.1-.3-3-1a4.96 4.96 0 01-.9-7c2.4-3.1 3.7-4.7 3.8-4.8 1.7-2.1 4.9-2.5 7-.7 2.1 1.7 2.5 4.9.7 7 0 0-1.4 1.7-3.6 4.6-1 1.2-2.5 1.9-4 1.9zM617.8 1294.9h-.2c-2.8-.1-4.9-2.4-4.8-5.2l.4-12c.1-2.8 2.4-4.9 5.2-4.8s4.9 2.4 4.8 5.2l-.4 12c-.1 2.7-2.3 4.8-5 4.8zm1.4-42.1h-.2c-2.8-.1-4.9-2.4-4.8-5.2l.4-12c.1-2.8 2.4-4.9 5.2-4.8s4.9 2.4 4.8 5.2l-.4 12c0 2.7-2.3 4.8-5 4.8zm1.4-42h-.2c-2.8-.1-4.9-2.4-4.8-5.2l.4-12c.1-2.8 2.4-4.9 5.2-4.8s4.9 2.4 4.8 5.2l-.4 12c0 2.6-2.3 4.8-5 4.8zm1.4-42.1h-.2c-2.8-.1-4.9-2.4-4.8-5.2l.4-12c.1-2.8 2.4-4.9 5.2-4.8s4.9 2.4 4.8 5.2l-.4 12c-.1 2.7-2.3 4.8-5 4.8zm1.4-42h-.2c-2.8-.1-4.9-2.4-4.8-5.2l.4-12c.1-2.8 2.4-4.9 5.2-4.8s4.9 2.4 4.8 5.2l-.4 12c-.1 2.7-2.3 4.8-5 4.8zm1.4-42h-.2c-2.8-.1-4.9-2.4-4.8-5.2l.4-12c.1-2.8 2.4-4.9 5.2-4.8s4.9 2.4 4.8 5.2l-.4 12c-.1 2.6-2.3 4.8-5 4.8zm1.4-42h-.2c-2.8-.1-4.9-2.4-4.8-5.2l.4-12c.1-2.8 2.4-4.9 5.2-4.8 2.8.1 4.9 2.4 4.8 5.2l-.4 12c-.1 2.6-2.3 4.8-5 4.8zm1.4-42.1h-.2c-2.8-.1-4.9-2.4-4.8-5.2l.4-12c.1-2.8 2.4-4.9 5.2-4.8 2.8.1 4.9 2.4 4.8 5.2l-.4 12c-.1 2.7-2.3 4.8-5 4.8zm1.4-42h-.2c-2.8-.1-4.9-2.4-4.8-5.2l.4-12c.1-2.8 2.4-4.9 5.2-4.8 2.8.1 4.9 2.4 4.8 5.2l-.4 12c-.1 2.7-2.3 4.8-5 4.8zm1.4-42h-.2c-2.8-.1-4.9-2.4-4.8-5.2l.4-12c.1-2.8 2.4-4.9 5.2-4.8 2.8.1 4.9 2.4 4.8 5.2l-.4 12c-.1 2.7-2.4 4.8-5 4.8zm1.3-42h-.2c-2.8-.1-4.9-2.4-4.8-5.2l.4-12c.1-2.8 2.4-4.9 5.2-4.8 2.8.1 4.9 2.4 4.8 5.2l-.4 12c-.1 2.7-2.3 4.8-5 4.8zm1.4-42h-.2c-2.8-.1-4.9-2.4-4.8-5.2l.4-12c.1-2.8 2.4-4.9 5.2-4.8 2.8.1 4.9 2.4 4.8 5.2l-.4 12c-.1 2.7-2.3 4.8-5 4.8zm1.4-41.9h-.2c-2.8-.1-4.9-2.4-4.8-5.2l.4-12c.1-2.8 2.4-4.9 5.2-4.8 2.8.1 4.9 2.4 4.8 5.2l-.4 12c-.1 2.6-2.3 4.8-5 4.8zm1.3-42.1h-.2c-2.8-.1-4.9-2.4-4.8-5.2l.4-12c.1-2.7 2.3-4.8 5-4.8h.2c2.8.1 4.9 2.4 4.8 5.2l-.4 12c0 2.6-2.3 4.8-5 4.8zm1.4-42.1h-.2c-2.8-.1-4.9-2.4-4.8-5.2l.4-12c.1-2.8 2.4-4.9 5.2-4.8 2.8.1 4.9 2.4 4.8 5.2l-.4 12c-.1 2.7-2.3 4.8-5 4.8zm1.4-41.9h-.2c-2.8-.1-4.9-2.4-4.8-5.2l.4-12c.1-2.8 2.4-4.9 5.2-4.8 2.8.1 4.9 2.4 4.8 5.2l-.4 12c-.1 2.6-2.3 4.8-5 4.8zm1.3-42h-.2c-2.8-.1-4.9-2.4-4.8-5.2l.4-12c.1-2.8 2.4-4.9 5.2-4.8 2.8.1 4.9 2.4 4.8 5.2l-.4 12c-.1 2.6-2.3 4.8-5 4.8zm1.4-42h-.2c-2.8-.1-4.9-2.4-4.8-5.2l.4-12c.1-2.8 2.4-4.9 5.2-4.8 2.8.1 4.9 2.4 4.8 5.2l-.4 12c-.1 2.6-2.4 4.8-5 4.8zm1.3-42h-.2c-2.8-.1-4.9-2.4-4.8-5.2l.4-12c.1-2.8 2.4-4.9 5.2-4.8 2.8.1 4.9 2.4 4.8 5.2l-.4 12c-.1 2.6-2.3 4.8-5 4.8zm1.3-42h-.2c-2.8-.1-4.9-2.4-4.8-5.2l.4-12c.1-2.8 2.4-4.9 5.2-4.8s4.9 2.4 4.8 5.2l-.4 12c-.1 2.6-2.3 4.8-5 4.8zm1.4-42.1h-.2c-2.8-.1-4.9-2.4-4.8-5.2l.4-12c.1-2.8 2.4-4.9 5.2-4.8s4.9 2.4 4.8 5.2l-.4 12c-.1 2.7-2.4 4.8-5 4.8zm1.3-42h-.2c-2.8-.1-4.9-2.4-4.8-5.2l.4-12c.1-2.8 2.4-4.9 5.2-4.8s4.9 2.4 4.8 5.2l-.4 12c-.1 2.7-2.3 4.8-5 4.8zm1.3-42h-.2c-2.8-.1-4.9-2.4-4.8-5.2l.4-12c.1-2.8 2.4-5 5.2-4.8 2.8.1 4.9 2.4 4.8 5.1l-.4 12c-.1 2.8-2.3 4.9-5 4.9zm1.2-42h-.2c-2.8-.1-4.9-2.4-4.8-5.1l.4-12c.1-2.8 2.4-4.9 5.1-4.8 2.8.1 4.9 2.4 4.8 5.1l-.4 12c.1 2.6-2.2 4.8-4.9 4.8zm1.3-42.1h-.2c-2.8-.1-4.9-2.4-4.9-5.1l.3-12c.1-2.8 2.4-4.9 5.1-4.9 2.8.1 4.9 2.4 4.9 5.1l-.3 12c0 2.7-2.2 4.9-4.9 4.9zm1.2-42.1c-2.9-.1-5-2.4-5-5.1.1-4.2.2-8.2.3-12 .1-2.7 2.3-4.9 5-4.9h.1c2.8.1 4.9 2.4 4.9 5.1-.1 3.8-.2 7.8-.3 12-.1 2.7-2.3 4.9-5 4.9zm1-42.2s-.1 0 0 0c-2.9-.1-5.1-2.3-5-5.1.1-4.4.1-7.6.1-9.6v-2.6c.1-2.8 2.4-5 5.1-4.8 2.8.1 4.9 2.4 4.8 5.1v2.2c0 2.1 0 5.3-.1 9.8 0 2.8-2.2 5-4.9 5zm5.4-41.6c-.5 0-1-.1-1.4-.2-2.6-.8-4.2-3.6-3.4-6.2 1.1-3.8 2.4-7.7 3.9-11.7 1-2.6 3.8-3.9 6.4-3 2.6 1 3.9 3.8 3 6.4-1.4 3.8-2.6 7.5-3.7 11.1-.7 2.2-2.7 3.6-4.8 3.6zm15.9-38.7c-.8 0-1.5-.2-2.3-.5-2.5-1.2-3.4-4.3-2.2-6.7 1.8-3.5 3.7-7.1 5.7-10.8 1.3-2.4 4.4-3.3 6.8-2 2.4 1.3 3.3 4.4 2 6.8-1.9 3.5-3.8 7-5.5 10.5-.9 1.7-2.7 2.7-4.5 2.7zm21-36.4c-.9 0-1.9-.3-2.7-.8-2.3-1.5-3-4.6-1.5-6.9 2.2-3.3 4.4-6.8 6.7-10.1 1.5-2.3 4.7-2.9 6.9-1.3 2.3 1.5 2.9 4.7 1.3 6.9-2.2 3.3-4.4 6.6-6.5 9.9-1 1.5-2.6 2.3-4.2 2.3zM616.7 1328.4h-.2c-2.8-.1-4.9-2.4-4.8-5.2l.2-6c.1-2.8 2.4-4.9 5.2-4.8s4.9 2.4 4.8 5.2l-.2 6c-.1 2.7-2.3 4.8-5 4.8z"/></g><g><path d="M319 1297.1c-2.7 0-4.9-2.2-5-4.9l-.3-12c-.1-2.8 2.1-5.1 4.9-5.1s5.1 2.1 5.1 4.9l.3 12.1c.1 2.8-2.1 5.1-4.9 5.1 0-.1 0-.1-.1-.1zm-1.1-42.1c-2.7 0-4.9-2.2-5-4.9l-.3-12c-.1-2.8 2.1-5.1 4.9-5.1 2.7-.1 5.1 2.1 5.1 4.9l.3 12c.1 2.8-2.1 5.1-4.9 5.1h-.1zm-1.1-42.2c-2.7 0-4.9-2.2-5-4.9l-.3-12c-.1-2.8 2.1-5.1 4.9-5.1 2.8-.1 5.1 2.1 5.1 4.9l.3 12c.1 2.8-2.1 5.1-4.9 5.1h-.1zm-1.1-42c-2.7 0-4.9-2.1-5-4.9l-.3-12c-.1-2.8 2.1-5.1 4.9-5.1h.1c2.7 0 4.9 2.1 5 4.9l.3 12c.1 2.8-2.1 5.1-4.9 5.1h-.1zm-1.3-42.1c-2.7 0-4.9-2.1-5-4.9l-.4-12c-.1-2.8 2.1-5.1 4.9-5.1 2.7-.1 5.1 2.1 5.1 4.9l.4 12c.1 2.8-2.1 5.1-4.9 5.1h-.1zm-1.2-42.1c-2.7 0-4.9-2.1-5-4.8l-.4-12c-.1-2.8 2.1-5.1 4.8-5.2 2.8-.1 5.1 2.1 5.2 4.8l.4 12c.1 2.8-2.1 5.1-4.8 5.1-.1.1-.2.1-.2.1zm-1.3-42.1c-2.7 0-4.9-2.1-5-4.8l-.4-12c-.1-2.8 2.1-5.1 4.8-5.2 2.8-.1 5.1 2.1 5.2 4.8l.4 12c.1 2.8-2.1 5.1-4.8 5.2h-.2zm-1.4-42c-2.7 0-4.9-2.1-5-4.8l-.4-12c-.1-2.8 2.1-5.1 4.8-5.2 2.7-.1 5.1 2.1 5.2 4.8l.4 12c.1 2.8-2.1 5.1-4.8 5.2h-.2zm-1.4-42.1c-2.7 0-4.9-2.1-5-4.8l-.4-12c-.1-2.8 2.1-5.1 4.8-5.2 2.7-.1 5.1 2.1 5.2 4.8l.4 12c.1 2.8-2.1 5.1-4.8 5.2h-.2zm-1.5-42c-2.7 0-4.9-2.1-5-4.8l-.4-12c-.1-2.8 2.1-5.1 4.8-5.2 2.8-.1 5.1 2.1 5.2 4.8l.4 12c.1 2.8-2.1 5.1-4.8 5.2h-.2zm-1.5-42.1c-2.7 0-4.9-2.1-5-4.8l-.5-12c-.1-2.8 2-5.1 4.8-5.2 2.8-.1 5.1 2 5.2 4.8l.5 12c.1 2.8-2 5.1-4.8 5.2h-.2zm-1.7-42c-2.7 0-4.9-2.1-5-4.8-.2-4-.3-8-.5-12-.1-2.8 2-5.1 4.8-5.2 2.7-.1 5.1 2 5.2 4.8.2 4 .3 8 .5 12 .1 2.8-2 5.1-4.8 5.2h-.2zm-1.8-42c-2.7 0-4.9-2.1-5-4.8-.2-4-.4-8-.5-12-.1-2.8 2-5.1 4.8-5.2 2.7-.1 5.1 2 5.2 4.8.2 4 .4 8 .5 12 .1 2.8-2 5.1-4.8 5.2h-.2zm-1.9-42.1c-2.7 0-4.9-2.1-5-4.8l-.6-12c-.1-2.8 2-5.1 4.7-5.2 2.8-.1 5.1 2 5.2 4.7l.6 12c.1 2.8-2 5.1-4.8 5.2.1.1 0 .1-.1.1zm-2.2-42c-2.6 0-4.8-2.1-5-4.7-.2-4.1-.4-8.1-.7-12-.2-2.8 2-5.1 4.7-5.3s5.1 2 5.3 4.7c.2 3.9.4 7.9.7 12 .2 2.8-2 5.1-4.7 5.3h-.3zm-2.4-42.1c-2.6 0-4.8-2-5-4.7-.3-4.1-.5-8.1-.8-12-.2-2.8 1.9-5.1 4.6-5.3s5.1 1.9 5.3 4.6c.3 3.9.5 7.9.8 12 .2 2.8-1.9 5.1-4.7 5.3 0 .1-.1.1-.2.1zm-3.1-42c-2.6 0-4.8-2-5-4.6-.4-4.2-.7-8.2-1.1-11.9-.3-2.7 1.8-5.2 4.5-5.4 2.8-.3 5.2 1.8 5.4 4.5.4 3.8.7 7.8 1.1 12 .2 2.8-1.8 5.2-4.6 5.4h-.3zm-4.6-41.9c-2.4 0-4.6-1.8-4.9-4.3-.6-4.1-1.1-8.2-1.6-12.1-.3-2.7 1.7-5.2 4.5-5.5s5.2 1.7 5.5 4.5c.4 3.8.9 7.7 1.5 11.7.4 2.7-1.5 5.3-4.2 5.7-.3-.1-.6 0-.8 0zm-2.6-41.9h-.2c-2.8-.1-4.9-2.4-4.8-5.2.2-4.2.5-8.3 1-12.3.3-2.7 2.8-4.7 5.5-4.4s4.7 2.8 4.4 5.5c-.4 3.8-.7 7.7-.9 11.6-.1 2.7-2.3 4.8-5 4.8zm7.6-41.1c-.6 0-1.1-.1-1.7-.3-2.6-.9-4-3.8-3-6.4 1.4-4 3.1-7.9 4.8-11.6 1.2-2.5 4.2-3.5 6.7-2.3s3.5 4.2 2.3 6.7c-1.6 3.3-3.1 6.9-4.4 10.5-.8 2.1-2.7 3.4-4.7 3.4zm21.9-35.4c-1.3 0-2.6-.5-3.6-1.5-1.9-2-1.9-5.2.1-7.1 5.8-5.6 10.1-8 10.5-8.2 2.4-1.3 5.5-.4 6.8 2s.4 5.4-2 6.8c-.1 0-3.6 2-8.4 6.6-.9.9-2.2 1.4-3.4 1.4z"/></g><g><path d="M130.9 1806.7c-2.4 0-4.5-1.7-4.9-4.2-.6-3.5-1.2-7.6-1.9-12-.4-2.7 1.5-5.3 4.2-5.7 2.7-.4 5.3 1.5 5.7 4.2.6 4.4 1.3 8.3 1.8 11.8.5 2.7-1.4 5.3-4.1 5.8-.2.1-.5.1-.8.1zm-5.8-41.7c-2.5 0-4.6-1.9-5-4.4-.5-3.9-1-7.8-1.4-12-.3-2.7 1.6-5.2 4.4-5.6 2.8-.3 5.2 1.6 5.6 4.4.5 4.1 1 8.1 1.4 11.9.3 2.7-1.6 5.2-4.3 5.6-.3.1-.5.1-.7.1zm-4.9-41.8c-2.5 0-4.7-1.9-5-4.4-.4-3.9-.9-7.9-1.3-12-.3-2.7 1.7-5.2 4.4-5.5 2.8-.3 5.2 1.7 5.5 4.4.4 4 .9 8 1.3 11.9.3 2.7-1.7 5.2-4.4 5.5-.1.1-.3.1-.5.1zm-4.6-41.8c-2.5 0-4.7-1.9-5-4.5l-1.3-11.9c-.3-2.7 1.7-5.2 4.4-5.5 2.8-.3 5.2 1.7 5.5 4.4l1.3 11.9c.3 2.7-1.7 5.2-4.4 5.5-.2.1-.3.1-.5.1zm-4.6-41.8c-2.5 0-4.7-1.9-5-4.5l-1.3-11.9c-.3-2.7 1.7-5.2 4.4-5.5 2.8-.3 5.2 1.7 5.5 4.4l1.3 11.9c.3 2.7-1.7 5.2-4.4 5.5-.1.1-.3.1-.5.1zm-4.6-41.8c-2.5 0-4.7-1.9-5-4.4-.5-4-.9-7.9-1.4-11.9-.3-2.7 1.7-5.2 4.4-5.5 2.7-.3 5.2 1.7 5.5 4.4.5 4 .9 7.9 1.4 11.9.3 2.7-1.7 5.2-4.4 5.5h-.5zm-4.9-41.8c-2.5 0-4.7-1.9-5-4.4-.5-4-1-8-1.5-11.9-.3-2.7 1.6-5.2 4.3-5.6 2.7-.3 5.2 1.6 5.6 4.3.5 3.9 1 7.9 1.5 11.9.3 2.7-1.6 5.2-4.4 5.6-.1.1-.3.1-.5.1zm-5.3-41.7c-2.5 0-4.6-1.8-5-4.3-.5-4-1.1-8-1.6-11.9-.4-2.7 1.5-5.3 4.3-5.6 2.7-.4 5.3 1.5 5.6 4.3.5 3.9 1.1 7.9 1.6 11.9.4 2.7-1.6 5.3-4.3 5.6h-.6zm-6-41.6c-2.4 0-4.5-1.8-4.9-4.2-.7-4.1-1.3-8.1-1.9-11.8-.5-2.7 1.4-5.3 4.1-5.8s5.3 1.4 5.8 4.1c.6 3.8 1.3 7.8 2 11.9.4 2.7-1.4 5.3-4.2 5.7-.4.1-.7.1-.9.1zm-7.8-41.4c-2.3 0-4.3-1.6-4.9-3.9-.6-2.4-1.1-4.7-1.7-6.8l-1.2-4.8c-.7-2.7 1-5.4 3.7-6 2.7-.7 5.4 1 6 3.7.4 1.6.8 3.1 1.2 4.7.6 2.2 1.2 4.5 1.7 7.1.6 2.7-1 5.4-3.7 6h-1.1zm-9-41c-2.4 0-4.5-1.7-4.9-4.1-.7-3.8-1.3-7.8-2-11.9-.4-2.7 1.4-5.3 4.1-5.7 2.7-.4 5.3 1.4 5.7 4.1.6 4.1 1.3 8 2 11.8.5 2.7-1.3 5.3-4.1 5.8h-.8zm-6.2-41.6c-2.5 0-4.6-1.8-5-4.4-.5-3.9-1-7.9-1.5-12-.3-2.7 1.6-5.2 4.4-5.6 2.8-.3 5.2 1.6 5.6 4.4.5 4 1 8 1.5 11.9.4 2.7-1.6 5.2-4.3 5.6-.3.1-.5.1-.7.1zm-4.7-41.7c-2.5 0-4.7-1.9-5-4.5-.4-3.9-.8-7.9-1.2-12-.3-2.7 1.8-5.2 4.5-5.4 2.8-.3 5.2 1.8 5.4 4.5.4 4 .8 8 1.1 11.9.3 2.7-1.7 5.2-4.5 5.5h-.3zm-3.7-41.8c-2.6 0-4.8-2-5-4.6-.3-3.9-.6-7.9-.9-12-.2-2.8 1.9-5.2 4.6-5.4 2.8-.2 5.2 1.9 5.4 4.6.3 4 .6 8 .9 11.9.2 2.8-1.8 5.2-4.6 5.4-.2.1-.3.1-.4.1zm-3.1-41.9c-2.6 0-4.8-2-5-4.7-.3-4-.5-8-.8-12-.2-2.8 1.9-5.1 4.7-5.3 2.7-.2 5.1 1.9 5.3 4.7.3 4 .5 8 .8 12 .2 2.8-1.9 5.1-4.7 5.3h-.3zm-2.5-42c-2.6 0-4.8-2.1-5-4.7l-.6-12c-.1-2.8 2-5.1 4.7-5.3 2.8-.1 5.1 2 5.3 4.7l.6 12c.2 2.8-2 5.1-4.7 5.3h-.3zm-2.1-41.9c-2.7 0-4.9-2.1-5-4.8-.2-4-.4-8-.5-12-.1-2.8 2-5.1 4.8-5.2 2.7-.1 5.1 2 5.2 4.8.2 4 .4 8 .5 12 .1 2.8-2 5.1-4.8 5.2h-.2zm-1.7-42c-2.7 0-4.9-2.1-5-4.8-.2-4-.3-8-.4-12-.1-2.8 2.1-5.1 4.8-5.2s5.1 2.1 5.2 4.8c.1 4 .3 8 .4 12 .1 2.8-2 5.1-4.8 5.2h-.2zm-1.5-41.9c-2.7 0-4.9-2.1-5-4.8-.1-4-.2-8-.4-12-.1-2.8 2.1-5.1 4.8-5.1 2.8-.1 5.1 2.1 5.1 4.8.1 4 .2 8 .4 12 .1 2.8-2.1 5.1-4.9 5.1.1 0 .1 0 0 0zm-1.2-42c-2.7 0-4.9-2.2-5-4.9l-.3-12c-.1-2.8 2.1-5.1 4.9-5.1 2.8 0 5.1 2.1 5.1 4.9l.3 12c.1 2.8-2.1 5.1-5 5.1.1 0 .1 0 0 0zm-1-42c-2.7 0-4.9-2.2-5-4.9-.1-4-.2-8-.2-12-.1-2.8 2.1-5 4.9-5.1 2.7 0 5 2.1 5.1 4.9.1 4 .2 8 .2 12 .1 2.8-2.1 5-5 5.1.1 0 .1 0 0 0zm-.8-42c-2.7 0-5-2.2-5-4.9-.1-4-.1-8-.2-12 0-2.8 2.2-5 4.9-5.1 2.8 0 5 2.2 5.1 4.9.1 4 .1 8 .2 12 .1 2.8-2.1 5-5 5.1.1 0 .1 0 0 0zm-.3-42c-2.8 0-5-2.3-5-5 0-4 .1-8.1.2-12.1 0-2.7 2.3-4.9 5-4.9h.1c2.8.1 5 2.3 4.9 5.1-.1 3.9-.1 7.9-.2 11.9 0 2.8-2.3 5-5 5zm1.2-42h-.3c-2.8-.1-4.9-2.5-4.7-5.2.2-4.1.4-8.1.7-12 .2-2.8 2.6-4.8 5.3-4.7 2.8.2 4.8 2.6 4.7 5.3-.3 3.9-.5 7.9-.7 11.9-.2 2.7-2.4 4.7-5 4.7zm3.3-41.8h-.6c-2.7-.3-4.7-2.8-4.4-5.5.5-4.1 1-8.1 1.5-12 .4-2.7 2.9-4.6 5.7-4.3 2.7.4 4.6 2.9 4.3 5.6-.5 3.8-1 7.7-1.5 11.8-.3 2.5-2.5 4.4-5 4.4zm6.9-41.4c-.4 0-.7 0-1.1-.1-2.7-.6-4.4-3.3-3.8-6 .9-4.1 2-8.1 3-11.9.7-2.7 3.5-4.2 6.2-3.5s4.2 3.5 3.5 6.2c-1 3.6-2 7.4-2.9 11.4-.6 2.4-2.6 3.9-4.9 3.9zm13.6-39.5c-.8 0-1.6-.2-2.3-.6-2.5-1.3-3.4-4.3-2.1-6.7 2.1-4 4.3-7.7 6.6-10.8 1.6-2.2 4.8-2.7 7-1.1s2.7 4.8 1.1 7c-2 2.8-4 6-5.9 9.6-.9 1.6-2.6 2.6-4.4 2.6zm42.1-24.4c-.8 0-1.6-.2-2.3-.6-.1 0-2.9-1.4-7.1-1.4-.6 0-1.2 0-1.8.1-2.7.3-5.2-1.8-5.4-4.5-.3-2.7 1.8-5.2 4.5-5.4.9-.1 1.9-.1 2.8-.1 6.7 0 11.3 2.3 11.8 2.6 2.4 1.3 3.4 4.3 2 6.8-1 1.5-2.7 2.5-4.5 2.5z"/></g><g><path d="M1146.5 1863.2c-1.5 0-3-.7-4-1.9-1.7-2.2-1.3-5.3.9-7 1.9-1.5 4.1-4.2 6.4-7.9 1.5-2.3 4.5-3.1 6.9-1.6 2.3 1.5 3.1 4.5 1.6 6.9-3 4.8-5.8 8.2-8.8 10.5-.9.7-2 1-3 1zm20.2-36.3c-.6 0-1.2-.1-1.8-.3-2.6-1-3.9-3.9-2.9-6.5 1.3-3.5 2.7-7.2 4.1-11.2.9-2.6 3.8-4 6.4-3.1s4 3.8 3.1 6.4c-1.4 4-2.8 7.9-4.2 11.4-.8 2.1-2.7 3.3-4.7 3.3zm13.4-39.9c-.5 0-1-.1-1.5-.2-2.6-.8-4.1-3.6-3.3-6.2 1.1-3.7 2.3-7.6 3.4-11.5.8-2.7 3.5-4.2 6.2-3.4 2.7.8 4.2 3.5 3.4 6.2-1.2 4-2.3 7.8-3.4 11.6-.7 2.1-2.7 3.5-4.8 3.5zm11.5-40.4c-.4 0-.9-.1-1.3-.2-2.7-.7-4.2-3.5-3.5-6.1 1-3.8 2.1-7.7 3.1-11.6.7-2.7 3.5-4.3 6.1-3.5 2.7.7 4.3 3.5 3.5 6.1-1 3.9-2.1 7.8-3.1 11.6-.5 2.2-2.6 3.7-4.8 3.7zm10.8-40.7c-.4 0-.8-.1-1.3-.2-2.7-.7-4.3-3.4-3.6-6.1 1-3.8 2-7.7 3-11.6.7-2.7 3.4-4.3 6.1-3.6 2.7.7 4.3 3.4 3.6 6.1-1 3.9-2 7.8-3 11.6-.6 2.3-2.6 3.8-4.8 3.8zm10.3-40.8c-.4 0-.8 0-1.2-.2-2.7-.7-4.3-3.4-3.6-6.1l2.9-11.6c.7-2.7 3.4-4.3 6.1-3.6 2.7.7 4.3 3.4 3.6 6.1l-2.9 11.7c-.6 2.2-2.6 3.7-4.9 3.7zm10.3-40.8c-.4 0-.8 0-1.2-.2-2.7-.7-4.3-3.4-3.6-6.1l2.9-11.7c.7-2.7 3.4-4.3 6.1-3.6 2.7.7 4.3 3.4 3.6 6.1l-2.9 11.6c-.7 2.4-2.7 3.9-4.9 3.9zm10.3-40.8c-.4 0-.8-.1-1.2-.2-2.7-.7-4.3-3.4-3.6-6.1l3-11.7c.7-2.7 3.4-4.3 6.1-3.6 2.7.7 4.3 3.4 3.6 6.1-1 3.9-2 7.8-3 11.6-.7 2.4-2.7 3.9-4.9 3.9zm10.5-40.7c-.4 0-.8-.1-1.3-.2-2.7-.7-4.3-3.4-3.6-6.1 1-3.9 2-7.8 3.1-11.6.7-2.7 3.5-4.3 6.1-3.5 2.7.7 4.3 3.5 3.5 6.1-1 3.9-2 7.7-3.1 11.6-.5 2.2-2.5 3.7-4.7 3.7zm10.9-40.6c-.4 0-.9-.1-1.3-.2-2.7-.7-4.2-3.5-3.5-6.2 1.1-3.9 2.2-7.7 3.2-11.6.7-2.7 3.5-4.2 6.2-3.5s4.2 3.5 3.5 6.2c-1.1 3.8-2.2 7.7-3.2 11.5-.7 2.4-2.7 3.8-4.9 3.8zm11.6-40.4c-.5 0-1-.1-1.4-.2-2.6-.8-4.2-3.6-3.4-6.2 1.2-3.9 2.3-7.7 3.5-11.5.8-2.6 3.6-4.1 6.2-3.3 2.6.8 4.1 3.6 3.3 6.2-1.2 3.8-2.3 7.6-3.5 11.5-.5 2.1-2.5 3.5-4.7 3.5zm12.6-40.1c-.5 0-1-.1-1.6-.3-2.6-.9-4-3.7-3.2-6.3 1.3-3.9 2.6-7.7 3.8-11.4.9-2.6 3.7-4 6.4-3.1 2.6.9 4 3.7 3.1 6.4-1.3 3.7-2.5 7.5-3.8 11.3-.7 2-2.6 3.4-4.7 3.4zm14.2-39.6c-.6 0-1.3-.1-1.9-.4-2.6-1-3.8-3.9-2.8-6.5 1.5-3.7 3.1-7.5 4.7-11.2 1.1-2.5 4-3.7 6.6-2.6 2.5 1.1 3.7 4 2.6 6.6-1.6 3.6-3.1 7.3-4.6 11-.8 2-2.6 3.1-4.6 3.1zm17.3-38.2c-.8 0-1.5-.2-2.2-.5-2.5-1.2-3.5-4.2-2.2-6.7 1.8-3.6 3.7-7.2 5.6-10.8 1.3-2.4 4.3-3.4 6.8-2.1 2.4 1.3 3.4 4.3 2.1 6.8-1.9 3.5-3.7 7-5.5 10.5-1 1.8-2.8 2.8-4.6 2.8zm20.5-36.7c-.9 0-1.8-.2-2.6-.7-2.4-1.4-3.1-4.5-1.6-6.9 2.1-3.4 4.3-6.9 6.5-10.2 1.5-2.3 4.6-3 6.9-1.5s3 4.6 1.5 6.9c-2.1 3.3-4.3 6.7-6.4 10-1 1.6-2.7 2.4-4.3 2.4zm23.5-34.7c-1 0-2.1-.3-3-1-2.2-1.6-2.7-4.8-1-7 2.4-3.2 4.9-6.5 7.4-9.6 1.7-2.2 4.8-2.6 7-.9s2.6 4.8.9 7c-2.4 3.1-4.9 6.3-7.2 9.4-1 1.4-2.6 2.1-4.1 2.1zm26.6-32.6c-1.2 0-2.4-.4-3.3-1.3-2.1-1.8-2.2-5-.4-7.1 2.7-3 5.5-6 8.2-8.9 1.9-2 5.1-2.1 7.1-.2s2.1 5.1.2 7.1c-2.7 2.9-5.4 5.8-8 8.8-1.1 1.1-2.5 1.6-3.8 1.6zm29.4-30c-1.3 0-2.7-.5-3.7-1.6-1.9-2-1.8-5.2.3-7.1 3-2.8 6-5.5 9-8.1 2.1-1.8 5.2-1.6 7.1.5 1.8 2.1 1.6 5.2-.5 7.1-2.9 2.6-5.9 5.2-8.8 7.9-1 .9-2.2 1.3-3.4 1.3zm32.4-26.7c-1.5 0-3.1-.7-4.1-2.1-1.6-2.2-1.1-5.4 1.1-7 6.4-4.6 10.1-6.9 10.3-7 2.4-1.4 5.4-.7 6.9 1.7 1.4 2.4.7 5.4-1.7 6.9 0 0-3.6 2.2-9.6 6.6-.9.6-1.9.9-2.9.9z"/></g><g class="st3"><path d="M1530.7 1412.2c20.3-92.9 55.1-208.9-17-249.8 0 0-74.3 477-152.6 681.5-77.6 202.5-666.5 1078.9-678.2 1096.2.1 0 .2.1.2.1.3.1.7.3 1 .4l319.6 44.7h.6s43.6-261.7 101.8-392.5 186.1-203.5 194.8-299.5 197.7-456.5 197.7-567c.2-110.6 11.8-221.1 32.1-314.1z"/></g></svg>