<svg version="1.1" id="Layer_1" xmlns="http://www.w3.org/2000/svg" x="0" y="0" viewBox="0 0 1289.5 505.8" xml:space="preserve"><style>.st0{opacity:.1}.st1{fill:#0017df}.st2{opacity:.2}.st4{fill:#c8d3fc}.st5{fill:none;stroke:#000;stroke-width:40;stroke-miterlimit:10}</style><g class="st0"><path class="st1" d="M507.9 228.8c26.7.7 62.7 12.5 78.8 33.8 3.3 4.4 6.3 9.4 6.4 14.9.1 5.1-2.4 9.9-5.4 14.2-19.2 27.8-64.9 55.5-94.5 39.2"/></g><path class="st1" d="M345.7 236.7L309 280.9s-9.5-30.3 16.9-51.7l19.8 7.5zM263 248.5l-49.3 66.2s-17.9-15.3-.4-44.4l29-35.5 20.7 13.7zM111.5 227.3l25.7 29-83.5 68.6s-3.6-41.7 11.2-56.4c14.7-14.8 46.6-41.2 46.6-41.2zM65.6 162.4l16.9 32.9s-72.4 76.1-80.8 68.6c-8.5-7.5 15.9-80.8 63.9-101.5zM247.7 335.4l4.9 101.3s-116 33-130.7-17.6 125.8-83.7 125.8-83.7z"/><path d="M223 256.5l-6.6-6.7 86.8-84.9 32.3-20.9 5.1 7.9-31.5 20.4zM655 162.1l-61.6-28-190.6-84.6 3.8-8.6 190.7 84.6 61.6 28zM753.9 124.2l-115-37.7-122.4-58.4 4-8.4 121.9 58.1 114.4 37.5z"/><path transform="rotate(-64.266 659.932 43.835)" d="M655.2-28.7h9.4v145h-9.4z"/><g class="st2"><path class="st1" d="M667.4 505.8c-12.3 0-22.8-1.6-31.9-4.7-74.6-25.6-123.5-44.1-134.2-50.8-3.4-2.1-6.2-4.7-8.5-7.8-4.4-.7-11.7-1.4-23.4-1.4-19.7 0-59 3.1-100.6 6.3-90.9 7.1-152.6 11.3-181 6.4-17-3-28.5-19.2-25.5-36.2s19.2-28.5 36.2-25.5c5.3.9 20.6 2.1 63.9-.1 31-1.6 66.8-4.4 101.5-7.1 44.7-3.5 83.3-6.5 105.5-6.5 18.6 0 33 1.5 44.2 4.5 12.5 3.4 22 9.2 28.2 17.2 13.1 5.5 44.3 17.7 114.2 41.6 3.7 1.3 19.7 4.4 69.8-8.5 36.1-9.3 77.6-23.5 117.7-37.3 57.9-19.9 108-37.1 138.3-38.3 63.2-2.5 123.3 19.3 136.4 24.4 3.1-3.1 5.4-5.6 8.3-10l.2-.3c10.8-16 14.4-21.5 22.5-37.7 7.7-15.5 26.6-21.7 42-14 15.5 7.7 21.7 26.6 14 42-9.9 19.8-15.1 27.5-26.5 44.5l-.2.3c-7.6 11.4-14 17.5-20.2 23.4-2.7 2.6-5.2 5-8.1 8.1-3.1 3.3-5.2 5.3-7.4 7.1-8.9 7.2-17.8 8.4-23.7 8.1-7.9-.4-15.5-3.7-21.4-9.3-1.9-1.8-3.3-3.5-4.2-4.7-12.7-4.8-61-21.4-109.3-19.5-21.1.8-73.9 18.9-120.4 34.9-41.3 14.2-83.9 28.8-122.4 38.7-30.6 8.3-54.6 12.2-74 12.2zm-169-62zm-9.3-32.4zm0 0zm44-15c.1 0 .1 0 0 0 .1 0 0 0 0 0z"/></g><path class="st1" d="M685 275.6c.4 0 .4-.6 0-.6-.4-.1-.4.6 0 .6z" opacity=".3"/><g class="st0"><path class="st1" d="M345.9 140.8c-.8-7.6-.7-15.2.3-22.7-.1.8-.2 1.7-.3 2.5.8-5.4 2-10.7 3.6-15.9 1.5-4.7-1.8-10.5-6.6-11.6-5.1-1.2-10 1.5-11.6 6.6-4.2 13.2-5.7 27.4-4.3 41.2.3 2.6.9 4.8 2.8 6.6 1.6 1.6 4.3 2.9 6.6 2.8 4.8-.3 10.1-4.3 9.5-9.5z"/></g><g class="st0"><path class="st1" d="M220.6 251.1c-1.1-7.5-2.9-14.8-5.6-21.8-1.7-4.3-3.3-8.2-6.2-11.8s-7.9-6.4-12.6-5.8c-2.6.3-4.7.8-6.6 2.8-1.6 1.6-2.9 4.3-2.8 6.6.1 2.4.9 5 2.8 6.6 1.7 1.6 4.2 3.1 6.6 2.8.6-.1 1.1-.1 1.6 0-.8-.1-1.7-.2-2.5-.3.4.1.8.2 1.1.3-.7-.3-1.5-.6-2.2-.9.3.1.6.4.9.5.9.3-1.7-1.6-.8-.6.2.3.5.5.7.8.7.7-1.4-2.1-.5-.7.8 1.4 1.5 2.7 2.2 4.2-.3-.7-.6-1.5-.9-2.2 3.3 7.9 5.5 16.1 6.7 24.5.3 2.2 2.5 4.6 4.3 5.6 2 1.2 5 1.7 7.2.9 2.3-.7 4.5-2.1 5.6-4.3 1.4-2.4 1.4-4.6 1-7.2z"/></g><g class="st0"><path class="st1" d="M187.9 189.7c-.1-7.8-.1-15.6-.2-23.4 0-4.8-.3-9.5-2.4-13.9-2.5-5.3-7.8-8.3-13.4-8.7-4.9-.4-9.6 4.6-9.4 9.4.2 5.4 4.1 9 9.4 9.4h.4c-.8-.1-1.7-.2-2.5-.3.5.1.8.2 1.3.3-.7-.3-1.5-.6-2.2-.9.4.2 1.5.9.2-.1-1.7-1.3.1.1.1.2-.1 0-1.3-2-.6-.8l.6 1.2c-.3-.7-.6-1.5-.9-2.2.4 1.1.6 2.1.8 3.2-.1-.8-.2-1.7-.3-2.5.5 4.7.2 9.6.3 14.4 0 4.9.1 9.9.1 14.8s4.3 9.6 9.4 9.4c4.9-.3 9.3-4.2 9.3-9.5z"/></g><g class="st0"><path class="st1" d="M324.9 221.4c-3.9-2.1-7.7-4.4-11.2-7.1-.3-.2-1.9-1.4-.6-.4s-.3-.2-.5-.4c-.8-.7-1.7-1.4-2.5-2.1-1.7-1.5-3.4-3-5-4.6-3.5-3.5-9.9-3.7-13.3 0-3.4 3.8-3.7 9.6 0 13.3 6.9 6.9 14.9 12.9 23.6 17.5 4.3 2.3 10.4 1.2 12.9-3.4 2.2-4.3 1.2-10.3-3.4-12.8z"/></g><g class="st0"><path class="st1" d="M387.1 213.8c-.7.2-1.3.4-2 .5.8-.1 1.7-.2 2.5-.3-1 .1-1.9.1-2.9 0 .8.1 1.7.2 2.5.3-1.1-.2-2.1-.4-3.2-.9.7.3 1.5.6 2.2.9-.6-.3-1.1-.5-1.7-.9-.1-.1-.9-.4-.9-.6 0 0 2 1.8.8.5l-.6-.6c-1.2-1.2.7.7.6.8s-.9-1.6-1-1.8c.3.7.6 1.5.9 2.2-.6-1.5-.9-3.2-1.1-4.8-.4-2.3-1.2-4.5-2.3-6.6-2.3-4.3-8.7-6.1-12.9-3.4-4.4 2.8-5.9 8.2-3.4 12.9.2.3.3.6.5.9-.3-.7-.6-1.5-.9-2.2 1 2.5 1 5.3 1.9 7.9 1.2 3.3 3.1 6.4 5.8 8.7 5.5 4.6 13.1 6.8 20 4.5 4.6-1.6 8.2-6.5 6.6-11.6-1.3-4.4-6.4-8-11.4-6.4z"/></g><g class="st0"><path class="st1" d="M411.3 179.5c-.7.1-1.4.3-2.2.4 2.5-.3 5 8.4 7.5 8-3.3.4-6.5-8.6-9.8-9.1 2.5.3 5 9.7 7.5 10-4.6-.7-9-11-13.2-12.8 2.2.9 4.5 1.9 6.7 2.8-12.6-5.4-23-14.5-35.2-20.7-8.1-4.1-16.6-7.5-25.2-10.2-6.7-2.1-9.9 2.5-16.8 1.3-9.7-1.7-16.4 1.6-26.1 2.6s-24.4 3.3-34 4.9c-14.7 2.4-19.1 8.9-33.8 11.3-16.6 2.7-38.9 24.6-55.5 27.3-3.7.9-13.3 6-16 8.5-3.1 2 1.8-3.3 0 0-2.1 3.2 9.9 20 0 0-.8 3.7-8.7-2.8-7.5.9 2.2 6.8 4.5 3.7 11.1 7.1 2.2.9 4.5 1.9 6.7 2.8 5 1.3 10 1.3 15 0 28.8-4.6 57.6-9.2 86.4-13.9 8.2-1.3 16.4-2.8 24.6-3.9-2.5.3-5 .7-7.5 1 7.5-1 15-1.4 22.6-.4-2.5-.3-5-.7-7.5-1 6.3.9 12.4 2.5 18.5 4.2 5.8 1.7 11.6 3.6 17.2 6-2.2-.9-4.5-1.9-6.7-2.8 9.2 3.9 17.4 9.4 25.7 14.8 4.1 2.7 8.3 5.2 12.7 7.4 6.3 3.1 13.1 6.1 20 7.5 3.5.7-21-6.8-17.5-6.3 1.4.2 2.7.3 4.1.3 1.3 0 2.5 0 3.8-.1 3.8-.3 7.6-.8 11.3-1.6 3.7-.9 5.7-4.8 8.5-7.3 3.1-2 5.5-4.6 7.3-7.9 2.1-3.2 9.5-1.6 9.7-5.4.8-3.7 9-6.9 7.8-10.7-2.2-6.8 8.2.1 1.7-3.3-2.2-.9-4.5-1.9-6.7-2.8-5.2-1.3-10.2-10.3-15.2-8.9z"/></g><path class="st1" d="M342.9 142.7v-33.2c0-2.4-3.7-2.4-3.8 0-.4 10.1-.9 20.1-1.3 30.2h3.8c-.2-7.1-.3-14.2-.5-21.2-.1-5.7-.3-11.8-3.7-16.6-1-1.5-3.5-1-3.5.9-.3 13.4-.5 26.7-.8 40.1 1.2-.2 2.5-.3 3.7-.5-2.7-12.2-1.7-24.7-.3-37 .2-2.1-3.4-2.6-3.7-.5-2.3 15.4-5.5 30.6-9.7 45.6-.7 2.3 3 3.3 3.6 1 4.2-15 7.5-30.2 9.7-45.6-1.2-.2-2.5-.3-3.7-.5-1.5 12.6-2.3 25.4.5 38 .5 2.1 3.7 1.6 3.7-.5.3-13.4.5-26.7.8-40.1-1.2.3-2.3.6-3.5.9 3.3 4.6 3.1 10.5 3.2 15.9.2 6.7.3 13.3.5 20 .1 2.4 3.7 2.4 3.8 0 .4-10.1.9-20.1 1.3-30.2h-3.8v33.2c-.1 2.5 3.7 2.5 3.7.1zM188.1 179.8c-3.5-17.8-7.4-35.5-11.7-53.2-.4-1.8-3.2-1.8-3.6 0-1.5 5.6.7 11.7 1.6 17.3.9 6.2 1.5 12.4 1.7 18.7.1 3 .1 6.1 0 9.1-.1 2.8-.1 5.7.4 8.5.8 4.6 4 9.2 8.8 10 1.5.3 2.5-.8 2.3-2.3-1.6-11-3.3-22-4.8-33-1.5-10.9-2.5-21.9-1.8-32.9h-3.8c1.6 13.5 3.6 26.9 5.9 40.2.4 2.4 4 1.4 3.6-1-2.3-13-4.2-26.1-5.8-39.2-.3-2.4-3.6-2.5-3.8 0-.7 11.2.4 22.3 1.9 33.4 1.5 11.2 3.2 22.4 4.9 33.5l2.3-2.3c-4.7-.8-6.3-5.8-6.5-10-.3-5.5.2-11-.1-16.5s-.8-10.9-1.6-16.3c-.4-2.7-.9-5.4-1.4-8.1-.5-2.7-1-5.4-.3-8.1h-3.6c4.3 17.6 8.2 35.4 11.7 53.2.5 2.4 4.1 1.4 3.7-1zM216.5 247.5c-5.4-14-10.1-28.3-14.2-42.8-.5-2-3.9-1.7-3.7.5 1.7 15.4 9.3 29.2 18.6 41.4 1.4 1.9 4.5.3 3.2-1.9-7.6-13.5-7.4-30.4-17.8-42.5-.9-1.1-2.8-.5-3.1.8-.9 3.5-.3 7 .5 10.4.9 3.9 1.8 7.8 2.8 11.7 1.8 7.8 3.6 15.5 5.5 23.3 1.2-.3 2.4-.7 3.6-1l-12-30c-1.2.3-2.4.7-3.6 1 4 9.8 7.3 19.9 9.9 30.1.6 2.3 4.2 1.3 3.6-1-2.6-10.3-5.9-20.3-9.9-30.1-.9-2.2-4.5-1.3-3.6 1l12 30c.9 2.2 4.2 1.4 3.6-1-1.7-7.4-3.5-14.7-5.2-22.1-.9-3.6-1.7-7.3-2.6-10.9-.8-3.4-1.9-7-1-10.5-1 .3-2.1.6-3.1.8 5 5.8 7.3 13.1 9.4 20.3 2.1 7.3 4.1 14.8 7.8 21.5 1.1-.6 2.2-1.3 3.2-1.9-8.8-11.6-16.5-24.8-18.1-39.5-1.2.2-2.5.3-3.7.5 4 14.5 8.7 28.8 14.2 42.8 1 2.4 4.6 1.4 3.7-.9zM328.5 223.3c-3.7-.9-7.5-1.8-11.1-3-3.4-1.1-5.8-2.8-7.4-6-1.5-3.1-2.6-6.2-4.5-9.2-1.9-2.9-4.1-5.6-6.6-8-1.8-1.7-4.1.8-2.7 2.7 3.9 5 8.8 9 13.7 12.9 5.4 4.3 10.9 8.6 16.3 12.9.6-1 1.2-2.1 1.8-3.1-11-3.3-18.6-12.9-29.3-16.8-1.7-.6-3.3 2-1.8 3.1 4.9 3.9 10 7.3 15.3 10.4 4.1 2.4 8.9 5.2 10.3 10.1.9-.7 1.8-1.4 2.8-2.1-11-4.8-21.5-10.4-31.5-16.9-2-1.3-3.9 1.9-1.9 3.2 10 6.5 20.6 12.1 31.5 16.9 1.4.6 3.3-.4 2.8-2.1-1.5-5.3-5.9-8.7-10.5-11.4-5.6-3.4-11.1-6.7-16.2-10.8-.6 1-1.2 2.1-1.8 3.1 10.7 3.9 18.2 13.6 29.3 16.8 1.7.5 3.3-1.9 1.8-3.1-5.4-4.3-10.9-8.6-16.3-12.9-4.9-3.9-9.8-7.9-13.7-12.9l-2.7 2.7c2.7 2.6 5 5.4 6.8 8.6 1.8 3.1 2.7 6.6 4.6 9.6s4.9 4.7 8.2 5.8c3.8 1.3 7.7 2.3 11.6 3.2 2.6.5 3.6-3.2 1.2-3.7zM398.2 221.3c-7.8-1-16.6-5-18.9-13.1-1 .6-2.1 1.2-3.1 1.8 5.6 6.7 12.4 12.2 20.1 16.1.3-1.2.6-2.3.9-3.5-10.2-.2-16.7-9.4-21.8-16.9-1 .8-2 1.5-3 2.3 6.5 7.8 14.3 14.4 23 19.7 2.1 1.3 4-2 1.9-3.2-8.4-5.1-15.9-11.5-22.3-19.1-1.4-1.6-4.2.5-3 2.3 6 8.8 13.4 18.6 25.1 18.8 1.8 0 2.6-2.6.9-3.5-7.5-3.9-14-9.1-19.4-15.6-1.2-1.5-3.6.1-3.1 1.8 2.8 9.9 13.1 14.7 22.6 15.9 2.5.3 2.5-3.5.1-3.8z"/><path d="M637.6 503c-13.9 0-26-.9-33.9-3.2-32.8-9.5-56.1-26.4-76.6-41.4-2.4-1.8-4.7-3.4-7.1-5.1-21.7-15.6-42.1-28.4-70.7-26.6-14.3.9-34.9 2.6-58.8 4.6-26.1 2.2-55.7 4.7-84 6.6-90.3 6.3-110 3-117.1-.5-5.4-2.7-10.6-4.8-15.2-6.6-5-2-9.4-3.8-13.2-5.9-9.4-5.4-13.7-12.6-13.7-23.6 0-12.4 16.9-24.5 50.2-35.9 29.6-10.2 69.7-18.7 110-23.2 24-2.7 47.8-4.3 70.8-5.9 16.5-1.1 32-2.2 46.2-3.5 25.8-2.5 56.6-6.9 65.8-18.9 6.1-7.9 13.2-39.5 17-56.5 1.8-8.2 3.2-14.2 4.1-17 1.3-3.8.7-5.8.1-6.9-1.5-3-6.1-5.6-13.2-7.7-16.8-4.9-33.6-12.5-44.7-17.9-7.9-3.8-14-7.2-17.4-9.1-6.9 5.8-26.7 22.6-47.7 39.1-44.8 35.1-58.7 40.7-65 40.7-.4 0-.8 0-1.1-.1-5.6-.6-14.8-4.5-14.3-23.4 0-.8.1-1.6.1-2.4-5.3 5.5-12.2 12.4-20 19.4-23.5 21.2-42.6 32.9-56.9 34.5-7.2.8-13-.7-17-4.7-4.9-4.8-6.9-12.7-5.9-23.5.5-5.4 1.7-10.8 2.9-15.4-12.3 6.9-34.1 18.6-56.9 29-20.6 9.4-38.1 15.9-52 19.4-18.9 4.8-31.5 4-38.4-2.4-7.1-6.6-7.3-16.7-.4-30 5.2-10.1 14-21.1 21.8-30.5 2.3-2.8 5.2-5.6 8.5-8.3-8.3 3.3-16.1 6.4-22 9-14.3 6.2-26.4 10-36.1 11.3-13.6 1.8-22.7-1.2-27.2-9-2.7-4.8-2.2-11.2 1.6-19 3.4-7 9.4-15.1 17.8-24.2 18.5-19.9 47.4-42.7 83.4-66 36.1-23.3 85.6-51 132.5-74.1 21.9-10.8 41.7-19.8 57.3-26.1 25.8-10.4 32.2-10 34.3-9.9 29.3 1.6 56.5 3.3 68.7 7.6 1.8-1.1 5.5-3.5 13.4-8.8C435 19.7 469.5 7.9 479.1 7.9c7.6 0 16.9 2 27.7 5.9 5.3 1.9 9.6 3.8 11.9 4.9 3.7-1.5 12.3-4.8 22.7-7.9 18.8-5.6 33.8-7.6 44.6-5.9 9.4 1.4 11 .1 12.7-1.3.2-.1.4-.3.5-.4 4.4-3.5 9.3-4.6 23.9-.7 10 2.7 21.2 8 35.4 14.7 6.5 3.1 13.8 6.6 21.9 10.2 21.7 9.8 56.5 24.2 108 37.1.1 0 .1 0 .2.1l497.6 149c2.1.6 3.5 2.7 3.3 4.9-2.2 28.4-19.9 62.8-54.3 105.2-27.7 34.2-65.7 73.3-123 126.7-1.5 1.4-3.9 1.7-5.7.6-.2-.1-15.9-9.8-39.8-18.6-22.1-8.2-55.7-17.4-90.8-14.5-15.7 1.3-37.5 13.1-60.6 25.7-26.2 14.2-55.8 30.3-85.6 36.6-26.4 5.5-73.7 13.3-120 18.4-22.7 2.1-49.9 4.4-72.1 4.4zm-183-85.9c12.3 0 24.2 2.5 35.9 7.5s22.4 12 35 21c2.4 1.7 4.8 3.5 7.1 5.2 20.9 15.2 42.5 30.9 73.7 40 34.1 9.9 164.2-8.1 221.5-20.1 28.5-6 57.5-21.7 83.1-35.6 25-13.6 46.6-25.3 64.3-26.8 16.3-1.3 33.6-.3 51.4 3 14.2 2.6 28.8 6.7 43.4 12.1 18.8 7 32.5 14.3 38.4 17.6 55.5-51.9 92.5-90 119.5-123.3 31.6-39 48.6-70.5 51.9-96.2L786 73.5c-52.2-13-87.4-27.7-109.5-37.6-8.2-3.7-15.6-7.2-22.1-10.3-13.7-6.5-24.6-11.7-33.8-14.1-12.6-3.4-14.4-1.9-15.6-1-.1.1-.3.2-.4.4-3.6 2.9-7.6 5.2-20.1 3.3-9.3-1.4-23.3.5-40.5 5.6-13.2 3.9-23.6 8.4-23.7 8.4-1.3.5-2.7.5-4-.1-.1 0-5.5-2.7-12.9-5.4-9.6-3.5-18.1-5.4-24.5-5.4-3.1 0-12.5 2.3-24.6 6.8-12.8 4.7-24.2 10.2-31.4 15-3.8 2.5-6.9 4.6-9.4 6.3.3.6.5 1.3.5 2 0 .6-.1 1.3-.4 1.9-1.1 2.4-3.9 3.4-6.2 2.4l-4.2-1.9c-.4-.1-.7-.3-1-.4-10.7-4.4-45.9-6.3-67.1-7.4-6.6-.4-33.2 8.6-86.9 35-46.5 22.9-95.7 50.4-131.5 73.6-24.7 16-58.9 40.1-81.7 64.5-17.9 19.2-19.9 29.2-18.2 32.1 4.6 8.1 23.4 5.9 51.4-6.2 23.8-10.3 76.4-29.6 76.9-29.8 2.4-.9 5.1.3 6 2.7s-.2 5.1-2.5 6.1c-.4.2-41.5 17.8-55.9 35-7.5 9-15.8 19.5-20.7 28.8-7.1 13.7-3 17.5-1.6 18.7 3.9 3.6 19.5 9 80.1-18.7 34.4-15.7 66.2-34.4 66.5-34.5 1.7-1 3.9-.8 5.4.5s2.1 3.4 1.3 5.3c0 .1-4.9 12.7-6 24.6-.7 7.7.3 13.2 3.1 15.9 1.9 1.9 5.1 2.6 9.3 2.1 12.1-1.4 30-12.5 51.7-32.2 16.7-15.1 29.8-30 29.9-30.1 1.4-1.7 3.8-2.1 5.8-1 1.9 1 2.9 3.3 2.3 5.4 0 .1-2.2 8-2.4 16-.1 4.3.4 7.8 1.4 10.2 1 2.3 2.3 3.3 4.5 3.6.4 0 4.6.1 21.7-11.1 9.9-6.6 22.6-15.9 37.6-27.6 25.7-20.1 49.6-40.8 49.9-41 1.5-1.3 3.7-1.5 5.5-.5.1 0 8 4.7 19.7 10.4 10.8 5.3 27 12.6 43.2 17.3 9.9 2.9 16.1 7 18.9 12.4 2.1 4.1 2.3 8.9.4 14.3-.8 2.3-2.2 8.6-3.9 16-6 26.7-11.9 51.3-18.7 60.2-9.1 11.9-30.1 18.4-72.3 22.5-14.3 1.4-29.9 2.4-46.5 3.6-22.9 1.5-46.6 3.1-70.4 5.8-39.6 4.5-79 12.8-108 22.8-32.3 11.1-43.8 21.5-43.8 27 0 8.6 3.4 12.3 8.9 15.4 3.3 1.9 7.4 3.5 12.1 5.4 4.7 1.9 10.1 4.1 15.9 6.9 2.5 1.3 11 3.4 39.1 3 18.2-.2 42.1-1.4 73.1-3.5 28.2-2 57.8-4.4 83.8-6.6 24-2 44.6-3.7 59-4.6 2.2-.5 4.1-.6 6.1-.6z"/><g><path d="M142.8 222.2l-4.3-8.4c.5-.3 52.5-26.8 67-37.7 8.8-6.6 40.5-15.9 67.3-22.4 13-3.2 56.1-13.3 66.5-10.3 13.4 3.8 95 43.7 98.5 45.4l-4.1 8.4c-23.4-11.4-86.5-41.8-97-44.8-.6-.2-4.6-.9-21.6 1.9-11.2 1.9-25.4 4.9-40.1 8.4-31.5 7.7-57.7 16.2-63.8 20.8-15.2 11.5-66.2 37.6-68.4 38.7z"/></g><g><path transform="rotate(-38.993 354.996 206.204)" d="M304.2 201.5h101.6v9.4H304.2z"/></g></svg>