<svg version="1.1" id="Layer_1" xmlns="http://www.w3.org/2000/svg" x="0" y="0" viewBox="0 0 793.6 1167.8" xml:space="preserve"><style>.st0{fill:#cc32ff}.st1{opacity:.1}</style><path class="st0" d="M384.9 1058.7s-36 107.9-6.5 102.9 71.9-55.1 71.9-55.1M272.8 1083.4s-23.1 92.6 8.8 83.8c31.9-8.8 64.4-64 64.4-64M139.7 1012.2s-16.3 85.8 17.4 96.7c33.7 10.9 63-64.1 63-64.1M82.4 958.6s-23.7 84.7-52.3 78.6S3.1 974.3 7 929.4M36.6 595s70.5-18.2 56.8 40.9-77.3 179.6-91 131.9C-11.2 720.1 36.6 595 36.6 595z"/><path d="M296.9 1143.6c-2.6 0-5.1-.5-7.5-1.5-5.3-2.2-9.2-6.4-11.6-12.5-4-10.1-3.9-25.3.2-46.6 3.1-16.2 8.6-35.8 16.4-58.3 11.5-33.5 24.7-63.7 27.8-70.7-.5-4.2-1.7-15.8-1.1-31.6.6-17.8 3.8-44.5 15-71.1l2.2-127.2L328 719c-4.9 8.1-15.6 25.9-26.6 43.6-8.8 14.1-16.1 25.4-21.7 33.7-8.7 12.9-12.1 16.5-14.3 17.8-.5 1.1-1.7 4.1-3.6 12.3-1.7 7.2-3.5 16.7-5.4 26.6-4.5 23.3-9.5 49.8-16.2 67.4-.7 1.8-2 11.5-3.4 20.8-2.8 20.1-7.1 50.6-13.9 76.6-8.8 33.9-19 51.1-32.4 53.9-7.8 1.7-15 .2-21.3-4.4-8.3-6-14.9-17.2-19.6-33.3-3.4-11.5-4.5-21.4-4.5-21.8l-.1-.6 13.7-125.7c.5-3.9 11.4-96 16-120.9 4-22.3 33.2-85.9 41.5-103.7l-9.7-6.1c-17.7 21.2-55.6 68.9-61.3 88.2-7.7 26.4-38.2 109-41.2 117.3-.8 4.9-6.3 39.5-15.2 73.5-13.6 51.8-27.5 76.1-43.8 76.1h-1.2c-15.7-1.1-25.4-9.3-29.7-24.9-3.7-13.2-3.5-30.7-3.3-52.9 0-5.2.1-10.7.1-16.3 0-50 13-79.1 15.1-83.4 1.2-3.9 9.6-31.8 19.6-59.8 6.3-17.7 12.1-32.1 17.1-42.7.4-.9.8-1.7 1.2-2.6-.3.3-.7.5-1 .8-14.6 11.5-26.1 15.1-35.1 10.9-2.5-1.2-5.9-3.7-7.7-9.1-3.1-8.9-1.3-24 5.4-46.2 5.1-16.8 13-37.6 23.5-61.9 16.8-38.9 35.2-74.6 37.3-78.9 1.3-4.1 11.9-35.6 26.7-71.6 21.4-51.9 41-88 58.4-107.4 22.7-25.3 88.4-65.2 152-103.8 51.5-31.3 100.1-60.8 114.1-75.9 30.8-33 89.3-172 89.9-173.4l1.1-2.5 2.6-.8c.8-.2 20.8-5.9 50.7-7.6 17.5-1 34.8-.4 51.4 1.7 20.8 2.7 40.5 7.8 58.6 15.2 78.3 32.2 99.8 71.4 100.6 73.1l1.3 2.4-77.5 182.5c2.8 8.8 14 44.8 23.1 86.9 14.2 65.4 16.9 113.9 8.1 144.1-8.7 29.8-31.8 71.4-68.8 123.6-25.1 35.4-48.4 64-52.3 68.7L594.9 777l-35 129.4v.1l-27.5 84.7-.4.8c-.2.3-20.7 34.7-44.9 68.6-14.3 20-27 36-37.9 47.5-14.9 15.8-26.1 23.1-35.3 23.1-8.5 0-15.4-3.1-20.5-9.1-13.6-16.1-8.1-48.5-7.9-49.9l.2-1L460.4 946 485 836.5l-9.8-76.8-16.1-3-24.2 118-.1.4L397 984.2c-.1.3-12.6 34.9-29.6 71.2-10 21.4-19.7 39.1-28.7 52.8-11.8 18-22.3 28.9-32.2 33.3-3.3 1.4-6.5 2.1-9.6 2.1zm26.6-439.4l26.1 13.1-2.4 136.6-.4 1c-6 13.9-13.3 37-14.5 67.8-.7 18.6 1.2 31.3 1.2 31.4l.3 1.7-.7 1.5c-.2.3-15.2 33.7-28.1 71.3-16.5 48-22.5 82.4-16.7 96.9 1.3 3.2 3 5.2 5.4 6.2 2.4 1 5.1.8 8.2-.6 14.1-6.2 33.7-34.8 55.1-80.5 16.5-35.2 28.8-68.9 29.3-70.2l37.6-108.8 26.3-128.2 35.2 6.7 11.1 87-25.4 113.3-74.5 124.9c-1.3 8.7-2.6 30 5.5 39.6 2.9 3.4 6.7 5 11.8 5 2.6 0 10.3-1.9 27-19.5 10.5-11.1 22.9-26.7 36.9-46.3 22.3-31.2 41.4-62.8 44.1-67.3l27-83.4L584 773.6l.1-.3 32.2-80.4.6-.7c.2-.3 25.2-30.5 52.4-68.8 35.7-50.4 58.9-92 67.1-120.2 8.1-27.9 5.2-75.8-8.3-138.4-10.3-47.8-23.3-87.5-23.5-87.9l-.7-2 77-181.2c-2.3-3.5-7.8-10.9-17.9-20.1-13.1-12-36.9-29.6-75.6-45.6-17.1-7-35.8-11.9-55.5-14.4-15.8-2-32.4-2.6-49.1-1.6-22.7 1.3-39.7 5-46 6.5-8.5 20-60.8 141.9-90.9 174.2-15.1 16.2-62.1 44.8-116.5 77.9C269.5 307 201.6 348.3 180 372.3c-39.7 44.1-82.5 174-83 175.3l-.1.4-.2.4c-.2.4-19.5 37.7-37.2 78.6-10.3 23.9-18.1 44.3-23 60.7-7.7 25.6-6.8 35.6-5.6 39.2.7 2 1.5 2.3 1.8 2.5 3.4 1.6 17.6 3 57.7-44.5 22.6-26.7 41.8-55.5 42-55.8l9.8 5.8c-.1.2-9.9 19.2-21.5 38.4-21.5 35.7-30.8 42.3-36.4 44-1.1.6-9 6.6-28.5 61.4-10.4 29.3-18.9 57.9-19 58.2l-.1.5-.2.5c-.1.3-14.1 28.6-14.1 78.7 0 5.7 0 11.2-.1 16.4-.2 21.3-.3 38.2 2.9 49.8 3 11 8.7 15.8 19.6 16.6 2.1.2 8-1.3 16.4-18.5 5.7-11.6 11.3-28.1 16.7-49 9.4-35.9 15-72.6 15.1-73l.1-.6.2-.5c.3-.9 33.4-90.2 41.2-117 7.9-27.1 64.3-93.4 66.7-96.2l3.2-3.7 26.6 16.6-2.2 4.6c-.4.8-38.4 81.5-42.8 105.5-4.4 24.4-15.6 118.2-15.9 120.1l-13.6 124.4c1.3 10.5 7 37.6 19.4 46.5 3.7 2.7 7.7 3.5 12.3 2.5 4.7-1 14.1-8.3 23.7-45.6 6.6-25.4 10.8-55.5 13.6-75.4 2-14.1 2.9-20.4 4-23.3 6.3-16.7 11.3-42.7 15.6-65.6 6.8-35.3 9-44.2 14.4-46.7 1.6-1.5 8.2-9.2 33.5-49.8 14.4-23.1 27.8-45.6 27.9-45.8l2.6-4.7zm-58 109.5zM84.1 717.1z"/><path d="M141.9 634.9l-9.9-5.6 46-80.8 1.8-.7c46.4-18.9 89.5-80.7 90-81.4l.8-1.2 1.3-.7c.5-.3 13.2-6.5 27.7-8.1 11.5-1.3 81.5-20.5 127.4-57.9 28-22.8 49.6-50.7 62.7-70.1 14.3-21.1 22.1-37 22.2-37.1l10.2 5c-.3.7-8.1 16.6-22.9 38.4-13.6 20.1-36 49-65.1 72.7-47.8 39-119.4 58.8-133.4 60.4-10 1.1-19.4 5-22.6 6.4-3 4.2-13.1 18-27.7 33.7-22.5 24.3-44.3 41-64.6 49.7l-43.9 77.3zM618.9 700.9c-2.1-1-209.4-99-244-117.1l5.3-10.1c34.4 17.9 241.5 115.9 243.6 116.9l-4.9 10.3z"/><path d="M560.9 564.8c-4.4-.1-109.4-3.3-152.5-24.9-42.9-21.5-95-79.2-97.2-81.7l8.5-7.6c.5.6 52.8 58.6 93.8 79.1 40.8 20.4 146.7 23.6 147.7 23.7l-.3 11.4z"/><path transform="rotate(-75.965 412.107 737.84)" d="M406.4 667.5h11.4v140.6h-11.4z"/><path transform="rotate(-62.928 274.54 685.536)" d="M268.8 628h11.4v114.9h-11.4z"/><path transform="scale(.99996) rotate(-84.712 536.614 760.107)" d="M530.9 703.6h11.4v113h-11.4z"/><path transform="rotate(-50.957 178.404 626.261)" d="M172.7 591.8h11.4v69h-11.4z"/><g class="st1"><path class="st0" d="M510.1 293.5c-11.6 21.4-23.3 42.9-38.2 62.3 2.2-2.9 4.4-5.7 6.6-8.6-8.9 11.6-19 22.2-30.6 31.2 2.9-2.2 5.7-4.4 8.6-6.6-15.3 11.7-32.8 19.9-50.4 27.6-18.9 8.4-37.8 16.7-56.7 25-.5.2-.9.4-1.4.6-7.7 3.4-11.7 9.4-16.6 15.8v.1c-.1.1-.2.3-.3.4-.6.7-1.1 1.4-1.7 2.2 2.2-2.9 4.4-5.7 6.6-8.6-13.5 17.5-27.6 34.8-43.1 50.6-4.4 4.4-8.8 8.7-13.8 12.6 2.9-2.2 5.7-4.4 8.6-6.6-2.4 1.8-4.8 3.6-7.6 4.7 3.4-1.4 6.8-2.9 10.1-4.3-.9.4-1.8.7-2.7.8 3.8-.5 7.5-1 11.3-1.5-4.7.6-9.5.7-14.1 1.9-.6.2-1.2.4-1.7.6-4 1.5-8 3.2-12 5-3.5 1.6-6.8 3.6-10.1 5.7-12.5 8-24.1 17.3-35.8 26.3-10.4 8.1-20.6 16.4-30.8 24.8-8.6 7.1-17 14.3-25.5 21.6-4.1 3.5-8.2 7-12.2 10.6l-.2.2c-4.1 3.8-7.1 8.4-8.8 13.7-2.7 5.1-3.9 10.5-3.7 16.4-.2 5.8 1 11.3 3.7 16.4 1.7 5.3 4.6 9.8 8.8 13.7 2.9 2.2 5.7 4.4 8.6 6.6 6.6 3.8 13.8 5.8 21.4 5.8 3.8-.5 7.5-1 11.3-1.5 7.2-2 13.4-5.7 18.7-10.9 4.8-4.3 9.7-8.5 14.6-12.7 11-9.5 22.2-18.8 33.4-28 7.1-5.8 14.2-11.5 21.4-17.1-2.9 2.2-5.7 4.4-8.6 6.6 10.1-7.8 20.3-15.6 31.3-22 2-1.1 4-2.2 6.1-3.1-3.4 1.4-6.8 2.9-10.1 4.3 1.2-.5 2.5-1 3.9-1.2-3.8.5-7.5 1-11.3 1.5 4.5-.5 9-.7 13.4-1.7.5-.1.9-.2 1.4-.4 3.9-1.4 7.9-3.1 11.6-4.9 5.6-2.6 11-7.6 15.6-11.1 6.5-5.1 12.3-10.9 17.9-16.9 11.9-12.6 23-26.1 33.8-39.7 4.6-5.9 9.2-11.8 13.7-17.7l-15.2 15.2c16.2-7.1 32.3-14.2 48.5-21.4 15-6.6 30.3-13 44.5-21.3 9.7-5.6 18.6-12.4 27.4-19.4 5.6-4.5 10.9-9.4 15.8-14.6 7.4-7.8 13.9-16.3 20.4-24.9 4.5-5.9 8.6-11.9 12.6-18.1 8.9-13.9 16.8-28.4 24.6-42.9 3.1-4.9 4.8-10.1 5-15.8 1.3-5.6 1-11.3-.8-16.9-1.3-5.5-3.8-10.3-7.6-14.4-3-4.6-7-8.3-11.9-10.9-3.4-1.4-6.8-2.9-10.1-4.3-7.5-2-15-2-22.6 0-3.4 1.4-6.8 2.9-10.1 4.3-6.1 3.5-11.2 8.6-14.9 14.9z"/></g><path class="st0" d="M328.3 870.5c24.9-6.5 51.1-7.3 76.4-2.3 2.9.6 4.1-3.8 1.2-4.4-26-5.2-53.1-4.5-78.8 2.3-2.8.8-1.6 5.2 1.2 4.4zM333.1 961.1c17.9 11 41.6 11 59.5.1 2.5-1.5.2-5.5-2.3-3.9-16.6 10.1-38.4 10.1-54.9-.1-2.5-1.6-4.8 2.4-2.3 3.9zM477.8 876.4c22.7 2.9 45.3 5.8 68 8.8 2.9.4 2.9-4.2 0-4.5-22.7-2.9-45.3-5.8-68-8.8-2.9-.4-2.9 4.2 0 4.5zM468.1 958.5c19.6 5.7 39.2 11.4 58.8 17 2.8.8 4-3.6 1.2-4.4-19.6-5.7-39.2-11.4-58.8-17-2.8-.8-4 3.6-1.2 4.4zM184.6 762c15.9 11 33.2 19.9 51.4 26.4 2.8 1 3.9-3.4 1.2-4.4-17.8-6.4-34.7-15.2-50.3-26-2.4-1.6-4.7 2.4-2.3 4zM232.1 806.5c4.9-.3 9.7-.7 14.6-1 2.9-.2 3-4.5 0-4.5-22.8-.3-45.3-5.9-65.7-16.2.3 1 .5 2.1.8 3.1 2.7-4.2 10.9-1 14.5 0 7.1 1.8 14.1 3.6 21.2 5.4 14.4 3.7 28.8 7.4 43.2 11v-4.4c-12.7 2.5-25.4 5.1-38.2 7.6-2.9.6-1.7 5 1.2 4.4 12.7-2.5 25.4-5.1 38.2-7.6 2.2-.4 2.1-3.9 0-4.4l-46.8-12c-7.6-1.9-15.2-4.1-22.9-5.8-5-1.1-11.2-1.4-14.3 3.5-.6 1-.2 2.6.8 3.1 21 10.7 44.3 16.5 67.9 16.9v-4.5c-4.9.3-9.7.7-14.6 1-2.8.1-2.8 4.6.1 4.4zM225.3 922.3c-17.3 1-37.1 1.3-52.3-8.2-4.1-2.6-7.6-5.9-10.4-9.9-1.3.8-2.6 1.5-3.9 2.3 13.1 17.2 34.3 27.4 56 26.5 2.9-.1 2.9-4.5 0-4.5-11-.2-21.8-2.5-31.9-6.7-2.5-1-3.8 2.8-1.8 4.2 16.2 10.9 36.2 16 55.7 14 2.9-.3 2.9-4.8 0-4.5-18.8 1.9-37.7-2.9-53.4-13.4l-1.8 4.2c10.5 4.4 21.8 6.7 33.1 6.9v-4.5c-19.9.9-40-8.3-52.1-24.3-1.7-2.3-5.6-.2-3.9 2.3 11.2 16.2 31.5 20.3 50 20.7 5.6.1 11.1 0 16.7-.4 2.9-.3 2.9-4.9 0-4.7zM352.6 947.8c18.8 2.2 37.6 4.4 56.4 6.7V950c-17.2.9-34.5.1-51.6-2.4-2.9-.4-4.1 4-1.2 4.4 17.5 2.5 35.2 3.4 52.8 2.5 3-.2 2.9-4.2 0-4.5-18.8-2.2-37.6-4.4-56.4-6.7-2.9-.4-2.9 4.1 0 4.5zM351 854.6c14.1-2.2 28.6-.9 42.1 3.6 2.8.9 4-3.5 1.2-4.4-14.3-4.8-29.6-6-44.5-3.6-2.9.4-1.6 4.8 1.2 4.4zM145.7 726.1c-16.5.6-32.9-2.9-47.7-10.3-2.6-1.3-4.8 2.4-2.3 3.9 14.9 9.3 32.4 14 50 13.2 2.4-.1 3.2-3.9.6-4.5-13.8-2.8-27.5-5.6-41.3-8.4-2.9-.6-4.1 3.8-1.2 4.4 13.8 2.8 27.5 5.6 41.3 8.4l.6-4.5c-16.8.7-33.5-3.7-47.7-12.6-.8 1.3-1.5 2.6-2.3 3.9 15.5 7.7 32.7 11.5 50 10.9 2.9 0 2.9-4.5 0-4.4zM84.3 854.3H18.5v4.5h74c2.9 0 2.9-4.5 0-4.5H54.8c-2.9 0-2.9 4.5 0 4.5h37.7c2.9 0 2.9-4.5 0-4.5h-74c-2.9 0-2.9 4.5 0 4.5h65.8c2.9 0 2.9-4.5 0-4.5z"/><g class="st1"><path class="st0" d="M351.4 750.4c28.2-.7 56.5-.4 84.7 1v-22.7c-25.5 2.3-50.9 4.9-76.3 7.7-3.1.3-5.7 1-8 3.3-2 2-3.5 5.2-3.3 8 .3 6.1 5 11.4 11.4 11.4 13.4-.1 26.7.7 40 2.5-1-.1-2-.3-3-.4 13.3 1.8 26.4 4.5 39.2 8.1 1-7.4 2-14.9 3-22.3-22.5 3-45.2 5-67.9 6.1-5.9.3-11.7 5-11.4 11.4.3 5.9 5 11.7 11.4 11.4 22.7-1.1 45.3-3.1 67.9-6.1 3-.4 5.9-1 8-3.3 1.7-1.9 2.8-4 3.1-6.5.7-5.6-2.7-10.9-8.1-12.5-26.7-7.5-54.5-11.2-82.2-11v22.7c25.4-2.8 50.8-5.4 76.3-7.7 3.1-.3 5.8-1.1 8-3.3 2-2 3.5-5.2 3.3-8-.3-6.4-5-11.1-11.4-11.4-28.2-1.4-56.4-1.7-84.7-1-5.9.2-11.7 5.1-11.4 11.4.3 5.9 5.1 11.4 11.4 11.2z"/></g><g class="st1"><path class="st0" d="M507.6 788.2c28.3-.1 56.5-.2 84.8-.2v-22.7c-23 .8-46.2 1.6-69.1-1.5 1 .1 2 .3 3 .4-10-1.4-19.8-3.5-29.4-6.6v21.9c5.8-1.4 11.7-2.5 17.6-3.3-1 .1-2 .3-3 .4 15.2-2 30.5-2 45.7 0-1-.1-2-.3-3-.4 5.4.7 10.8 1.7 16.2 3v-21.9c-7.1 1.3-14.2 2.5-21.3 3.4 1-.1 2-.3 3-.4-21.1 2.8-42.4 4-63.8 3.6v22.7c14.4-.8 28.9-.3 43.2 1.6-1-.1-2-.3-3-.4 11.9 1.6 23.7 4.1 35.2 7.6 5.7 1.7 12.6-2 14-7.9 1.4-6.1-1.8-12.2-7.9-14-26.3-7.9-54.1-11.2-81.4-9.6-5.9.3-11.7 5-11.4 11.4.3 6.3 5 11.2 11.4 11.4 29.5.6 59.1-2 88.1-7.5 4.7-.9 8.6-6.3 8.3-11-.2-4.9-3.4-9.8-8.3-11-28.1-6.5-57.4-6.4-85.5.4-4.7 1.1-8.6 6.1-8.3 11 .2 5.2 3.4 9.4 8.3 11 25.5 8.3 52.7 9.6 79.3 9.1 7.4-.1 14.9-.4 22.3-.7 5.9-.2 11.7-5.1 11.4-11.4-.3-6.1-5-11.4-11.4-11.4-28.3.1-56.5.2-84.8.2-5.9 0-11.6 5.2-11.4 11.4.1 6.2 4.8 11.5 11.2 11.4z"/></g><g class="st1"><path class="st0" d="M287.7 715.4h6.3c4.8 0 9.9-3.5 11-8.3 1.2-5.2-.9-9.8-5.2-12.8-24.1-16.9-50.4-30.1-76.6-43.2-5.1-2.6-11.1-1.7-14.7 2.9-3.2 4.1-3.5 11.3.9 14.9 21.6 18.1 45 33.9 70 46.8 6.9 3.6 13.9 6.9 21.1 10 1.9-7.1 3.8-14.1 5.7-21.2-5.7.2-11.4-.2-17.1-.9 1 .1 2 .3 3 .4-15.2-2.1-29.9-6.8-44.4-11.6l-6 21.9c16.3 4 32.6 7.9 48.9 11.9 5.8 1.4 12.6-1.8 14-7.9 1.3-5.9-1.8-12.5-7.9-14-16.3-4-32.6-7.9-48.9-11.9-5.8-1.4-12.6 1.8-14 7.9-1.4 6.3 1.9 12 7.9 14 20.8 6.9 42.3 13.6 64.5 12.9 4.8-.1 9.8-3.4 11-8.3.5-2 .5-4 0-6-.5-2.4-2.9-5.8-5.2-6.8-24.8-10.8-48.4-24.4-70.2-40.4-1.5-1.1-3.1-2.3-4.6-3.4-.3-.2-.5-.4-.8-.6-.2-.1-2-1.5-.5-.3 1.4 1.1.2.1-.2-.1-.4-.3-.9-.7-1.3-1-3-2.4-6-4.8-8.9-7.2-4.6 6-9.2 11.9-13.8 17.9 26.2 13.1 52.5 26.3 76.6 43.2 1.9-7.1 3.8-14.1 5.7-21.2h-6.3c-5.9 0-11.6 5.2-11.4 11.4.4 5.8 5.1 11 11.4 11z"/></g><g class="st1"><path class="st0" d="M179.2 639c-12.7-7-26.5-12.3-40.7-15.3-4.8-1-10.4.6-12.8 5.2-2.4 4.5-1.9 10.1 1.8 13.8 15.2 14.9 33.5 26.2 53.4 33.5 1-7.4 2-14.9 3-22.3-8.2.3-16.4.5-24.6.8-5.7.2-10.4 4.2-11.2 9.9-.7 5.2 2.6 11.5 8.1 12.5 14.7 2.7 29.3 5.3 44 8-1.7-6.3-3.3-12.7-5-19-.8.8-.4.5 1.2-.9.9-.4 1.8-.8 2.7-1.1l-.9.3c1-.1 2-.3 3-.4h-1c1 .1 2 .3 3 .4-.2 0-.3-.1-.5-.1-5.7-1.5-12.6 1.9-14 7.9-1.4 5.9 1.8 12.4 7.9 14 5.1 1.3 11 .1 14.6-4 2.7-3.1 4.1-7 2.9-11.1-1-3.6-4.1-7.3-7.9-7.9-14.7-2.7-29.3-5.3-44-8-1 7.4-2 14.9-3 22.3 8.2-.3 16.4-.5 24.6-.8 5.7-.2 10.4-4.2 11.2-9.9.8-5.9-2.8-10.5-8.1-12.5-2-.7-4-1.5-6-2.3.9.4 1.8.8 2.7 1.1-7.8-3.3-15.3-7.3-22.3-11.9-1.7-1.1-3.4-2.3-5-3.5-.9-.6-1.7-1.2-2.6-1.9.6.5 1.9 1.5.5.4-.4-.3-.8-.7-1.3-1-3.3-2.7-6.5-5.6-9.6-8.5-3.7 6.3-7.4 12.7-11.1 19 8.6 1.8 16.9 4.4 25 7.8-.9-.4-1.8-.8-2.7-1.1 4.4 1.9 8.8 4 13 6.3 5.2 2.9 12.6 1.4 15.6-4.1 3-5.3 1.7-12.5-3.9-15.6z"/></g><g class="st1"><path class="st0" d="M293.8 475c-1.6 18.4 12.5 32.7 26.2 42.5 6.6 4.7 13.7 8.8 20.8 12.9 7.6 4.4 15.2 8.5 23 12.5 31.3 15.8 64.5 28.4 99 35.1 19.7 3.9 39.8 6 59.9 5.9 5.9 0 11.6-5.2 11.4-11.4-.3-6.1-5-11.4-11.4-11.4-13.1.1-26.2-.8-39.2-2.5 1 .1 2 .3 3 .4-23.4-3.2-46.3-9.1-68.4-17.1-6.3-2.3-12.5-4.7-18.7-7.3.9.4 1.8.8 2.7 1.1-13.6-5.8-26.9-12.2-39.9-19.3-6.6-3.6-13.1-7.3-19.5-11.2-2.9-1.8-5.8-3.5-8.6-5.4-1.3-.9-2.5-1.7-3.8-2.6-.7-.5-2.8-2.3 0 0-.7-.6-1.4-1.1-2-1.6-2.7-2.3-5.3-4.7-7.5-7.4-.2-.2-.5-.8-.7-.9.4.2 1.8 2.3.6.8-.5-.7-.9-1.3-1.4-2-1-1.5-1.8-3.1-2.5-4.7.4.9.8 1.8 1.1 2.7-.9-2.1-1.5-4.3-1.8-6.6.1 1 .3 2 .4 3-.2-1.8-.2-3.6-.1-5.4.2-2.7-1.4-6.2-3.3-8-2-2-5.2-3.5-8-3.3-6.6.2-10.8 4.9-11.3 11.2z"/></g><g class="st1"><path class="st0" d="M594.1 696.4c-26.2-14-52.5-28-78.7-42.1-13-6.9-26-13.9-39-20.8-12.7-6.8-25.3-14-38.3-20.2-15.2-7.2-32.6-12.8-49.3-7.2-4.4 1.5-7.5 4.8-8.1 9.5-.6 4.4 1.4 9.1 5.4 11.3 26.4 14.6 52.9 29.2 79.3 43.8 26.3 14.5 52.7 29 79 43.5l44.7 24.6c5 2.7 11.2 1.6 14.7-2.9s3.1-10.8-.9-14.9c-18.1-18.7-42.8-29.6-65.7-41.1-24.8-12.5-49.7-24.8-74.7-36.8-14.1-6.7-28.2-13.4-42.4-20-1.9 7.1-3.8 14.1-5.7 21.2 2.2-.1 4.4 0 6.5.3-1-.1-2-.3-3-.4 4.4.6 8.5 1.9 12.6 3.6-.9-.4-1.8-.8-2.7-1.1 10.5 4.5 20.2 11 29.9 17 10.4 6.4 20.7 12.9 31 19.4 20.6 13 41 26.3 61.5 39.5 2.1 1.4 4.3 2.8 6.3 4.2l3.3 2.4c-2.9-2-1.1-.8-.5-.3l1.8 1.5c2 1.8 3.7 3.8 5.6 5.8-2.3-2.4-1-1.3-.4-.5.4.6.8 1.3 1.2 1.9.7 1.2 1.3 2.3 1.8 3.6-.4-.9-.8-1.8-1.1-2.7.1.2.1.4.2.5l14-14-51.6-21.6v21.9c1.4-.4 2.8-.7 4.2-.9-1 .1-2 .3-3 .4 2.5-.3 4.9-.3 7.4 0-1-.1-2-.3-3-.4 2.5.4 4.8 1 7.1 2-.9-.4-1.8-.8-2.7-1.1 1.3.6 2.6 1.2 3.8 2 5.1 3.2 12.7 1.2 15.6-4.1 3-5.6 1.3-12.2-4.1-15.6-9.2-5.7-20.8-7.3-31.2-4.2-4.6 1.4-8.6 6-8.3 11 .1 2 .6 4 1.6 5.7 1.5 2.8 4.1 4.1 6.8 5.2l51.6 21.6c3.6 1.5 8.5-.3 11.1-2.9 2.6-2.6 4.4-7.4 2.9-11.1-2.7-6.5-6.3-12.2-11.4-17.1-4.6-4.4-9.8-8.1-15.1-11.5-11.5-7.6-23.2-15-34.8-22.5-23.5-15.1-47.1-30.1-71-44.7-13.3-8.1-27.6-16.3-43.7-15.7-4.8.2-9.8 3.4-11 8.3-.5 2-.5 4 0 6 .6 2.5 2.9 5.7 5.2 6.8 25 11.6 49.8 23.4 74.5 35.5 24.2 11.9 48.6 23.7 72.4 36.6 5.9 3.2 11.8 6.6 17.4 10.5 1.3.9 2.7 1.9 4 2.8.3.3.7.5 1 .8-.3-.3-1.9-1.5-.8-.6.7.5 1.4 1.1 2 1.6 2.7 2.2 5.2 4.6 7.7 7.1 4.6-6 9.2-11.9 13.8-17.9-26.5-14.5-52.9-29.1-79.4-43.7-26.3-14.5-52.7-29-79-43.6-14.9-8.2-29.7-16.4-44.6-24.7-.9 6.9-1.8 13.9-2.7 20.8 2.3-.8 4.6-1.3 7-1.6-1 .1-2 .3-3 .4 3.4-.4 6.9-.3 10.3.1-1-.1-2-.3-3-.4 6.2.8 12.2 2.8 17.9 5.2-.9-.4-1.8-.8-2.7-1.1 10.5 4.5 20.5 10.3 30.6 15.7 10.5 5.6 20.9 11.2 31.4 16.8 21.1 11.3 42.3 22.6 63.4 33.9l36 19.2c5.2 2.8 12.6 1.5 15.6-4.1 2.4-5.1 1.1-12.4-4.5-15.4z"/></g><g class="st1"><path class="st0" d="M273.8 456c-.9.4-1.8.6-2.8.8 1-.1 2-.3 3-.4-1 .1-1.9.1-2.9 0 1 .1 2 .3 3 .4-1.4-.2-2.7-.6-4-1.1.9.4 1.8.8 2.7 1.1-1.1-.5-2.2-1.1-3.3-1.7-.5-.3-1-.8-1.6-1.1 2.6 1.5 1 .8.3.2-1.9-1.6-3.6-3.4-5.3-5.3-1.6-1.8-3.2-3.6-4.7-5.4L257 442c-1.6-2 .9 1.3.2.3s-1.5-2-2.2-3c-5.8-8-10.6-16.7-14.5-25.8.4.9.8 1.8 1.1 2.7-4.4-10.4-7.4-21.2-9-32.3-.4-2.6-3.1-5.5-5.2-6.8-2.4-1.4-6-2-8.8-1.1-2.8.9-5.4 2.6-6.8 5.2-1.5 2.9-1.6 5.6-1.1 8.8 2.1 14.8 6.9 29 13.5 42.4 3.1 6.3 6.8 12.4 10.9 18.2 4.5 6.2 9.3 12.4 14.8 17.8 7.5 7.3 19 13.9 29.7 9.6 2.9-1.1 5.2-2.5 6.8-5.2 1.4-2.4 2-6 1.1-8.8-.9-2.8-2.6-5.4-5.2-6.8-2.3-1.4-5.7-2.3-8.5-1.2z"/></g><g class="st1"><path class="st0" d="M181.6 541c-2.5.3-4.9.3-7.4 0 1 .1 2 .3 3 .4-3-.4-5.8-1.2-8.6-2.3.9.4 1.8.8 2.7 1.1-2.1-.9-4.1-2-6-3.3-.4-.3-.9-.6-1.3-.9-1.7-1.2 2.2 1.8.6.5-.9-.8-1.7-1.5-2.6-2.3-.8-.8-1.6-1.6-2.3-2.5-.6-.7-1.4-2.3.5.6-.3-.4-.6-.9-.9-1.3-1.3-1.9-2.4-3.9-3.3-6 .4.9.8 1.8 1.1 2.7-1.1-2.6-1.8-5.3-2.2-8.1.1 1 .3 2 .4 3-.2-1.2-.2-2.5-.3-3.7-.1-5.9-5.2-11.7-11.4-11.4-6.1.3-11.5 5-11.4 11.4.2 12.4 6 24.5 15.3 32.7 9.2 8.1 21.6 13.4 34 12 3.1-.3 5.7-1 8-3.3 2-2 3.5-5.2 3.3-8-.1-2.9-1.1-6-3.3-8-1.9-1.8-5-3.6-7.9-3.3z"/></g><g class="st1"><path class="st0" d="M140.6 726c-.5.1-.9.1-1.4.2 1-.1 2-.3 3-.4-8.9 1.2-18 1.2-26.9.1 1 .1 2 .3 3 .4-5.9-.8-11.7-2.1-17.3-3.8-5.7-1.8-12.7 2.1-14 7.9-1.4 6.2 1.9 12.1 7.9 14 16.8 5.3 34.3 6.1 51.7 3.6 2.6-.4 5.5-3 6.8-5.2 1.4-2.4 2-6 1.1-8.8-.9-2.8-2.6-5.4-5.2-6.8-2.8-1.5-5.5-1.6-8.7-1.2z"/></g><g class="st1"><path class="st0" d="M95.2 857.3c-17.2-1.2-34.4-1.5-51.6-.7-5.9.3-11.7 5-11.4 11.4.3 5.9 5 11.6 11.4 11.4 17.2-.7 34.4-.5 51.6.7 5.9.4 11.6-5.5 11.4-11.4-.3-6.6-5-11-11.4-11.4z"/></g><g class="st1"><path class="st0" d="M248.5 793.6c-.8-.1-1.7-.1-2.5-.2 1 .1 2 .3 3 .4-3.4-.5-6.6-1.4-9.7-2.7.9.4 1.8.8 2.7 1.1-7.1-3.1-13.4-7.7-19.6-12.3-2.2-1.7-6.2-1.8-8.8-1.1-2.6.7-5.5 2.8-6.8 5.2-1.4 2.6-2.1 5.8-1.1 8.8 1 3 2.7 4.9 5.2 6.8 11.3 8.5 23.1 15.9 37.6 16.9 5.9.4 11.6-5.5 11.4-11.4-.3-6.6-5-11.1-11.4-11.5z"/></g><g class="st1"><path class="st0" d="M222.3 935.1l-3.3-2.4c-.5-.4-1.1-.9-1.6-1.2 2.7 1.7.8.6.1.1-2.2-1.8-4.5-3.6-6.6-5.5-4.2-3.7-8.3-7.6-12.1-11.7-4.1-4.3-12-4.4-16.1 0-4.3 4.6-4.4 11.5 0 16.1 8.6 9.1 18.1 17.1 28.2 24.4 2.3 1.6 6.2 1.9 8.8 1.1 2.6-.7 5.5-2.8 6.8-5.2 3-6 1-12-4.2-15.7z"/></g><g class="st1"><path class="st0" d="M416.3 862.1c-19.8-7.2-42-7.8-62.3-2.1-5.7 1.6-9.8 8.1-7.9 14 1.9 5.9 7.8 9.6 14 7.9 4.2-1.2 8.4-2 12.7-2.6-1 .1-2 .3-3 .4 8.1-1 16.3-1 24.4 0-1-.1-2-.3-3-.4 6.5.9 12.9 2.5 19.1 4.7 5.6 2 12.7-2.3 14-7.9 1.4-6.4-2-11.8-8-14z"/></g><g class="st1"><path class="st0" d="M392.5 940.6c-4.6 1.6-9.3 2.7-14.2 3.4 1-.1 2-.3 3-.4-6.4.8-12.8.8-19.2 0 1 .1 2 .3 3 .4-6.2-.8-12.2-2.4-17.9-4.8-2.5-1-6.5-.2-8.8 1.1-2.4 1.4-4.6 4.1-5.2 6.8-.7 2.9-.5 6.2 1.1 8.8 1.7 2.7 3.9 4 6.8 5.2 17.9 7.3 39.1 7.7 57.4 1.3 5.6-2 9.9-7.9 7.9-14-1.7-5.4-7.9-9.9-13.9-7.8z"/></g><g class="st1"><path class="st0" d="M478.8 882.6c12.6 1.4 25.4 2.5 38 1.3 6.8-.7 13.7-1.7 20.2-4 7.5-2.6 14-6.3 20.3-11.2 2.1-1.7 3.3-5.5 3.3-8 0-2.8-1.2-6.1-3.3-8-2.2-2-5-3.5-8-3.3-3.2.1-5.5 1.4-8 3.3 3-2.4-.2.1-1 .6-.9.6-1.8 1.1-2.7 1.7-1.9 1.1-3.9 2.1-6 2.9.9-.4 1.8-.8 2.7-1.1-5.4 2.2-11.1 3.6-16.8 4.4 1-.1 2-.3 3-.4-13.8 1.9-27.8.6-41.6-.9-2.7-.3-6.2 1.5-8 3.3-2 2-3.5 5.2-3.3 8 .1 2.9 1.1 6 3.3 8 2.2 2.2 4.7 3 7.9 3.4z"/></g><g class="st1"><path class="st0" d="M516.7 967.1c-15.7.4-31.4-.2-47-1.7-2.7-.3-6.2 1.5-8 3.3-2 2-3.5 5.2-3.3 8 .1 2.9 1.1 6 3.3 8 2.3 2.1 4.9 3 8 3.3 15.6 1.5 31.3 2.1 47 1.7 5.9-.2 11.7-5.1 11.4-11.4-.3-5.9-5-11.4-11.4-11.2z"/></g><g class="st1"><path class="st0" d="M270.6 467.5c0 1-.1 2.1-.2 3.1.1-1 .3-2 .4-3-.3 2-.9 4-1.7 5.9.4-.9.8-1.8 1.1-2.7-1.3 2.9-3 5.6-4.8 8.2-.5.7-1 1.4-1.5 2-.1.1 1.6-2 .8-1.1-.3.3-.5.7-.8 1-1.1 1.4-2.2 2.7-3.3 4-4.4 5.5-9 10.8-13.7 16-9.3 10.4-19.1 20.4-29.3 29.9-5.7 5.3-11.6 10.5-17.6 15.6-2.1 1.8-3.3 5.4-3.3 8 0 2.8 1.2 6.1 3.3 8 4.9 4.5 11.2 4.1 16.1 0 23.9-20 45.9-42.5 65.1-67.1 6.4-8.2 12.2-17.1 12.2-28 0-5.9-5.2-11.6-11.4-11.4-6.2.5-11.4 5.2-11.4 11.6z"/></g><g class="st1"><path class="st0" d="M189.4 552.6c-.7 2.8-1.7 5.5-2.8 8.2.4-.9.8-1.8 1.1-2.7-1.4 3.2-3 6.2-4.8 9.1-.5.7-1 1.4-1.4 2.1-.2.3-.4.6-.7.9-1.3 1.7.3-.7.6-.7-.3 0-1.4 1.8-1.6 2-.6.7-1.1 1.3-1.7 1.9-1.1 1.2-2.3 2.3-3.5 3.5-.6.6-1.3 1.2-1.9 1.7-.4.3-.7.6-1.1.9-.3.3-1.5 1.2 0 0 1.6-1.2.1-.1-.2.1-.3.2-.6.4-.9.7-.7.5-1.4 1-2.2 1.4-1.5 1-3.1 1.9-4.7 2.7-5.3 2.7-7.3 10.6-4.1 15.6 3.5 5.4 9.9 7 15.6 4.1 17.8-9.1 31.3-26.2 36.4-45.5 1.5-5.7-1.9-12.6-7.9-14-6.2-1.3-12.5 1.8-14.2 8z"/></g><g class="st1"><path class="st0" d="M155.8 639.6c.4 0 .8.1 1.2.2-1-.1-2-.3-3-.4 5.1.7 10 2.1 14.8 4-.9-.4-1.8-.8-2.7-1.1 3.4 1.4 6.7 3.2 9.8 5.2.7.4 1.4.9 2 1.4l1.2.9c1.1.8-1.9-1.6-.8-.6 1.5 1.3 3 2.5 4.4 3.9 4.3 4.2 11.9 4.6 16.1 0 4.1-4.5 4.6-11.6 0-16.1-5.4-5.3-11.8-9.9-18.6-13.1-7.9-3.7-15.7-5.8-24.3-6.9-2.7-.3-6.2 1.5-8 3.3-2 2-3.5 5.2-3.3 8 .1 2.9 1.1 6 3.3 8 2.3 2.2 4.8 2.9 7.9 3.3z"/></g><g class="st1"><path class="st0" d="M225.5 695.2c.2 0 .4-.1.6-.1-1 .1-2 .3-3 .4 2.1-.3 4.2-.2 6.3 0-1-.1-2-.3-3-.4 3.2.5 6.2 1.4 9.2 2.6-.9-.4-1.8-.8-2.7-1.1 4.7 2 9.1 4.5 13.5 7 4.7 2.6 9.6 5 14.5 7.2 10.6 4.6 21.4 8.2 32.8 10.5 5.6 1.1 11.1-1.2 13.4-6.6 1-2.3 1.3-5 .6-7.4-1-3-2.7-4.9-5.2-6.8-17.6-13.3-35.2-26.7-52.8-40-2.2-1.7-6.2-1.8-8.8-1.1-2.6.7-5.5 2.8-6.8 5.2-1.4 2.6-2.1 5.8-1.1 8.8 1 3 2.7 4.9 5.2 6.8 17.6 13.3 35.2 26.7 52.8 40 2.9-6.9 5.8-13.9 8.8-20.8-10-2-19.7-5.1-29.1-9 .9.4 1.8.8 2.7 1.1-8.1-3.4-15.6-7.9-23.3-11.9-4.3-2.2-8.9-4.4-13.6-5.6-5.7-1.5-11.2-1.6-17.1-.7-2.6.4-5.5 3-6.8 5.2-1.4 2.4-2 6-1.1 8.8.9 2.8 2.6 5.4 5.2 6.8 2.9 1.5 5.6 1.6 8.8 1.1z"/></g><g class="st1"><path class="st0" d="M346.9 747c4.1.4 8.2.8 12.3 1.4-1-.1-2-.3-3-.4 24.4 3.3 48.3 9.9 71 19.4-.9-.4-1.8-.8-2.7-1.1 5.5 2.3 10.9 4.8 16.3 7.5 5.3 2.7 12.6 1.6 15.6-4.1 2.7-5.2 1.6-12.7-4.1-15.6-25.2-12.6-52.1-21.7-79.8-26.5-8.5-1.5-17-2.6-25.6-3.4-2.7-.2-6.2 1.4-8 3.3-2 2-3.5 5.2-3.3 8 .2 6.7 4.9 10.9 11.3 11.5z"/></g><g class="st1"><path class="st0" d="M481.7 779.4c24.9-.6 49.9-1.2 74.6 2.1-1-.1-2-.3-3-.4 8.7 1.2 17.4 2.9 25.9 5.2 5.7 1.6 12.6-1.9 14-7.9 1.4-6-1.8-12.3-7.9-14-26.3-7.1-53.8-8.4-80.9-8.1-7.6.1-15.1.3-22.6.5-5.9.2-11.7 5.1-11.4 11.4.2 5.9 5 11.4 11.3 11.2z"/></g><g class="st1"><path class="st0" d="M571.2 783.5c-1.4.2-2.7.5-4.1.6 1-.1 2-.3 3-.4-7.7 1-15.6.9-23.3-.1 1 .1 2 .3 3 .4-6.8-1-13.5-2.7-19.9-5.2-2.6-1-6.5-.2-8.8 1.1-2.4 1.4-4.6 4.1-5.2 6.8-.7 2.9-.5 6.2 1.1 8.8 1.7 2.6 3.9 4.1 6.8 5.2 17 6.6 35.5 7.8 53.3 4.6 2.7-.5 5.5-3 6.8-5.2 1.4-2.4 2-6 1.1-8.8-.9-2.8-2.6-5.4-5.2-6.8-2.7-1.4-5.4-1.6-8.6-1z"/></g></svg>