<svg xmlns="http://www.w3.org/2000/svg" viewBox="0 0 2924.8 2826.4"><style>.st0{opacity:.2}.st1{fill:#ff9c3c}</style><g id="Layer_2"><g class="st0"><path class="st1" d="M962.4 1303.9c34.8 19.9 69.7 39.7 104.5 59.6v-103.6c-18.1 9.3-34.3 21.4-50 34.3-12.1 9.9-23 21.2-32.8 33.4-12.5 15.7-24.4 31.7-33.6 49.6-9.3 18-17.2 37-22.7 56.5-6 21.5-9.2 44.2-10 66.5-.5 15.1 7 31.9 17.6 42.4 10.4 10.4 27.5 18.2 42.4 17.6 15.5-.7 31.6-5.8 42.4-17.6 11-12 17-26 17.6-42.4.2-6.9.8-13.9 1.7-20.8-.7 5.3-1.4 10.6-2.1 16 2.6-19.2 7.8-37.9 15.2-55.8-2 4.8-4 9.6-6 14.3 7.8-18.3 17.8-35.5 29.9-51.3-3.1 4-6.3 8.1-9.4 12.1 11.6-14.9 24.9-28.3 39.8-39.9-4 3.1-8.1 6.3-12.1 9.4 10.2-7.9 21.1-14.8 32.6-20.7 18.5-9.5 29.7-31.5 29.7-51.8 0-21-11.4-41.4-29.7-51.8-34.8-19.9-69.7-39.7-104.5-59.6-13.6-7.8-31.1-10.2-46.2-6-13.9 3.8-29 14.6-35.9 27.6-7.4 13.9-11 30.8-6 46.2 4.8 14.8 13.8 28 27.6 35.8z"/></g><path class="st1" d="M2563.3 781.1s282.8-156.2 334.6-100.1c115.5 124.7-178.6 292-178.6 292l-156-191.9zM1303 1450.5s-230.9 4.9-276 57.1c-45.1 52.2-22.4 43.5 28.1 60.7 50.5 17.2 213.2-15 235.1-39.6s12.8-78.2 12.8-78.2z"/><g class="st0"><path class="st1" d="M1832.2 1000c26.1 64.5 4.3 151.4-47.1 187.4 32.5 32.9 51.4 84.5 49.8 135.7-1.6 51.2-23.8 100.9-58.3 130.7-25.5 22-57.2 33.9-78.7 61.5-40 51.6-28.9 134.9-51.5 200.1-14.3 41.3-56.3 46.7-82.9 77.9-39.5 46.3-176.5 165.7-216 212-12.9-64.2 91.6-169 108-232 18.5-71 9.9-144.5-16-212-3.8-9.8-37.6-23.5-34.1-33.5 2.8-8.2 55.7-22.4 62.1-26.5 35.4-22.4 96.7-34.9 132.1-57.3 15-9.5 30.8-19.8 39.8-37.3 8.8-17.1 9.7-38.3 10.3-58.5 1.2-39.2 2.4-78.4 3.6-117.7.6-18.9 1.5-39.1 10.9-54.2 7.4-12.1 19.1-19.1 28.8-28.6 19.4-19.1 30.4-48.3 36.2-77.7 6.5-33.2 7.9-70.2 26.2-96.2 18.3-26 62.4-25.3 67.3 8.4"/></g><g class="st0"><path class="st1" d="M1187.7 321.4s120-4 256 28 296 168 296 168l-56 32-496-228z"/></g><path class="st1" d="M2704.1 97.3s-254.7 47.7-302.7 37.5-138-74.7-60-98.4 347.9-50.9 377.9-27.2 65.5 57.3-15.2 88.1z"/><path d="M478 2802.4h-10.9c-93.2-.6-174.1-22-240.3-63.7-53.2-33.5-97-80-130.1-138.1-56-98.3-62.1-195-62.3-199-.1-2.3.3-4.6 1.2-6.7 3.6-8.5 358.7-849.3 395.7-1013.8 27.2-121.3 46.7-294.7 65.5-462.5C512.9 775.2 529.5 627 551 510.2c11.7-63.4 23.9-112.7 37.2-150.9 15.7-44.9 33.1-74.1 53.3-89.3 199.3-150.8 400.8-146.2 634.1-141 106.9 2.4 217.4 4.9 340.3-6.2 226.8-20.5 452.6-50 617.5-71.5 127.9-16.7 212.7-27.8 242.7-27.8h.7c71.7.4 128 4.6 169.5 23.3 49.3 22.3 73.1 63.2 72.7 125.2-.1 20.2-16.2 40.2-50.6 63-27.2 18-66.8 38.1-117.7 59.8-84.9 36.2-203 77.8-351.1 123.5-196.9 60.8-395.7 113.1-474.2 133.4 33.3 23 81.5 66.5 90.1 128.9 8.3 60-1.8 107.6-30 141.7-18 21.8-40.2 33.9-58.7 40.6 3.5 3 7 6.4 10.5 10.2 18.6 19.9 40.8 55.1 40.4 109.6-.5 89.2-84.1 180.4-107 203.8 2.6 17.8 8.2 64.9 7.8 131.7-.5 90.6-96.5 152-242.9 213.6 15.7 14.4 35.6 38.5 47 75.4 9.8 31.4 11.8 66.9 6 105.4-6.9 46-25.1 96.9-54 151.3-35.2 66.2-72.8 131.5-109.2 194.6-51.1 88.6-99.3 172.2-135 248.2-39.4 83.8-57.8 146.3-58.1 196.6-.5 84-66.4 160.3-185.5 215.1-58.9 27.1-129 48.1-208.2 62.4-80 14.3-167.6 21.6-260.6 21.6zM64.7 2403.2c1.6 17.5 11.4 101 58.7 183.5 30.7 53.6 71.1 96.3 120 127 61.3 38.5 136.7 58.2 223.9 58.8 95.2.6 184.6-6.6 265.8-21.2 76.8-13.9 144.4-34.1 201-60.1 107.9-49.6 167.6-116.3 168.1-188 .3-54.8 19.7-121.3 61-209.2 36.2-77.1 84.7-161.3 136.1-250.5 36.3-62.9 73.8-127.9 108.7-193.7 27.3-51.4 44.5-99.1 50.9-141.7 5.1-34.1 3.5-65-4.9-92.1-16.9-54.2-55-74.6-55.3-74.8-5.2-2.7-8.3-8.2-8.1-14 .3-5.8 3.9-11 9.3-13.2 87.8-35.8 146.9-66.4 186.1-96.2 42.4-32.4 62.3-64.2 62.5-99.9.5-81.5-8.5-133.6-8.6-134.1-.9-4.9.8-10 4.4-13.4 1-1 102.9-99.4 103.4-187.9.5-85-63.3-112.3-63.9-112.6-6.5-2.7-10.2-9.5-9.1-16.4 1.2-6.9 7-12.1 14-12.4.4 0 44.9-3 73.8-38.2 22.4-27.3 30.2-67.1 23.2-118.2-10.9-79.1-104.5-124.7-105.4-125.1-5.7-2.7-9.1-8.7-8.5-15 .6-6.3 5.1-11.5 11.3-13 2.5-.6 256.7-64.3 507.7-141.9C2337.9 344.1 2455 303 2539 267.2c142.7-60.9 150.1-90.1 150.1-95.4.3-50.2-16.7-80.3-55-97.7-36.7-16.6-89.5-20.3-157.4-20.7h-.6c-28 0-116.5 11.6-238.8 27.5-165.2 21.6-391.3 51.1-618.7 71.6-124.6 11.3-236 8.8-343.7 6.3-114.5-2.6-222.7-5-323.9 11.4-111.4 18.1-204 57.3-291.4 123.5-29.5 22.3-56.1 96.9-79.1 221.7-21.4 115.8-37.9 263.5-53.9 406.3-18.9 168.5-38.4 342.8-66 465.7-36.8 163.6-367.7 949-395.9 1015.8z"/><path d="M1327.1 2070.6l-22.3-20.1c.8-.9 85.5-94.6 194-204.6 146-148 263.3-253.6 348.7-313.8 88.9-62.8 223.6-140.4 366.2-222.5 185.5-106.9 377.4-217.4 485.3-305.1 89-72.3 144.3-119 162.3-157.6 14.3-30.8 7.4-58.1-30.9-121.9-7.9-13.1-23.8-19.1-48.7-18.1-25.2 1-59.1 9.4-100.8 24.9-79.7 29.7-178 81.7-264.8 127.5-104.5 55.3-194.8 103-241.3 107.6-118.9 11.9-411 28-413.9 28.2l-1.6-30c2.9-.2 294.3-16.2 412.6-28.1 40.7-4.1 132.7-52.8 230.2-104.3 87.6-46.3 186.8-98.8 268.3-129.1 45.3-16.9 81.3-25.6 110.1-26.8 36.3-1.4 61.8 9.5 75.6 32.6 15.7 26.2 31.2 53.9 38 79.2 6.8 25.4 5 47.9-5.6 70.8-20 43-69.7 86.3-170.6 168.3-109.8 89.2-302.7 200.4-489.3 307.8-142 81.8-276.1 159-363.9 221-200.2 141.6-534.3 510.4-537.6 514.1zM1674.6 557.5c-3.8-2-383.5-197.5-470.9-220.8-33.2-8.9-84.8 3.2-149.2 35-50.1 24.7-89.8 52.5-90.2 52.8L947 399.9c1.7-1.2 42-29.5 94.2-55.2 72-35.5 129.3-47.9 170.2-37 90.5 24.1 461.2 215 476.9 223.1l-13.7 26.7zM1679.7 867.6c-4-1.9-400.6-189.6-529.4-218.9-34.4-7.8-83.5-13.9-121.7 1.8-22 9-29.9 21-30.2 21.5l.1-.2-25.7-15.4c1.7-2.8 43.2-68.9 184.2-36.9 55.7 12.6 162.8 53.7 318.5 122.1 115.5 50.7 216.2 98.4 217.2 98.9l-13 27.1zM1640.3 1187c-26.9-46.4-117.3-110.3-248-175.3-90.3-44.9-214.6-95.4-257.8-98.7-69.1-5.3-124.8 60-125.3 60.7l-23-19.2c2.7-3.2 65.9-77.9 150.6-71.3 43.2 3.3 158.8 47.1 268.9 101.7 79.9 39.7 219.9 116.7 260.6 187.1l-26 15zM1170.7 1574.9c-16.3 0-31.2-.7-44.6-2.2-44.9-5-74-18-89.1-39.8-24.5-35.3-31.3-69-20.4-100.2 14.9-42.6 61.6-75.9 138.8-99.1l48.9-14.7c-2.3-.4-4.5-.8-6.8-1.2-60.9-11.3-93.7-29.6-100.3-56.1l29.1-7.3c2.5 10 23.9 24.1 76.7 33.9 39 7.2 77 8.7 77.3 8.8 7.3.3 13.4 5.8 14.3 13.1.9 7.3-3.5 14.2-10.6 16.3l-120 36c-66.5 20-107.7 47.7-119.1 80.3-7.6 21.6-1.9 46.2 16.8 73.2 10.7 15.5 48.9 39.2 184.5 24.7 80.4-8.6 155.2-26.9 155.9-27.1l7.2 29.1c-3.1.8-77.5 18.9-159.9 27.8-29 3-55.3 4.5-78.7 4.5z"/><g class="st0"><path class="st1" d="M987.7 984.2c-50-68.1 180.4-151.7 249.9-128.1 198 67.4 295.5 119.3 377.9 183.9 52.2 40.9 11.8 110.9 37.8 139.5 0 0-149.6-108.9-213.6-136.5s-272-173.1-344-145.5-108 86.7-108 86.7"/></g><g class="st0"><path class="st1" d="M1731.7 837.4s-116-136-288-188-360-76-440-16c0 0 160-32 280 32s388 184 388 184l60-12z"/></g><g class="st0"><path class="st1" d="M2250 370.5c-15.9 1.6-31.9 3-47.8 1.4-3.6-.3-.8-.1 0 0-1.1-.2-2.1-.3-3.2-.5-1.6-.3-3.1-.6-4.7-1-2.1-.5-4.1-1.1-6.1-1.7-.8-.2-1.5-.5-2.3-.8-.7-.3-4-1.8-.9-.3-3.4-1.6-6.7-3.4-9.8-5.5-.5-.4-1.1-.9-1.6-1.1-2.2-1.1 2.3 2.1.5.4-1.2-1.2-2.6-2.2-3.9-3.4-2.2-2.1-4.1-4.3-6.1-6.6-.4-.4-.9-1-1.2-1.5 1.8 3.3 1.1 1.5.5.6-1-1.4-2-2.8-2.9-4.3-3.5-5.3-6.5-10.9-9.2-16.6-5.8-11.9-10.6-24.3-16.4-36.2-6.8-14-15.3-27.5-26.8-38.1-6.9-6.4-18.7-7.4-25.5 0-6.4 6.9-7.4 18.6 0 25.5 2.4 2.2 4.7 4.6 6.8 7.1 1.1 1.2 3 3.8.9.9 1 1.4 2.1 2.8 3 4.3 3.8 5.7 7.1 11.7 10.1 17.9 6 12.3 10.9 25.1 17 37.4 6.1 12.5 13.7 24.8 23.8 34.6 12.5 12.1 28.7 20.2 45.9 23.2 19.9 3.5 39.8 2.3 59.8.2 9.3-1 18.5-7.6 18-18-.3-8.8-7.8-18.9-17.9-17.9z"/></g><g class="st0"><path class="st1" d="M957.9 2372.6c-28.3 32-56.1 64.5-83.8 97.1-17.8 20.9-35.5 42-54.9 61.5-8 8.1-16.4 15.8-25.4 22.7 8.1-6.3 16.2-12.5 24.3-18.8-12.3 9.5-25.6 17.3-39.9 23.3 9.6-4 19.1-8.1 28.7-12.1-36.8 15.4-77.2 22-116.1 29.4-17.4 3.3-34.8 6.9-52.4 9.3 10.6-1.4 21.3-2.9 31.9-4.3-31.7 4.2-63.7 5.4-95.7 5.6-32 .2-64-.2-96-2-17.3-1-34.5-2.5-51.6-4.8 10.6 1.4 21.3 2.9 31.9 4.3-54.4-7.4-106.7-23.5-158.4-41.4-12.6-4.4-25.1-8.9-37.4-14.1 9.6 4 19.1 8.1 28.7 12.1-16.6-7.1-32.7-15.3-47.1-26.3 8.1 6.3 16.2 12.5 24.3 18.8-9.4-7.3-17.7-15.7-25-25.1 6.3 8.1 12.5 16.2 18.8 24.3-11.4-14.9-19.8-31.7-27.1-48.9 4 9.6 8.1 19.1 12.1 28.7-4.3-10.2-8.2-20.5-11.9-30.8-3.7-15.6-10.9-29.2-21.5-40.8-8.5-13.1-19.7-23.4-33.7-30.9-13.8-8.8-28.6-13.5-44.6-14.2-16-3.6-31.9-2.9-47.9 2.1-9.6 4-19.1 8.1-28.7 12.1-18 10.7-32.4 25-43.1 43.1-4 9.6-8.1 19.1-12.1 28.7-5.7 21.3-5.7 42.5 0 63.8 9.7 27.2 20.4 54.4 33.5 80.1 11.3 22.1 26.7 42.4 43.1 60.8 4.7 5.2 9.8 10.1 15.2 14.5 13.2 10.7 26.7 21.8 41.3 30.8 22.9 14 48.8 23.9 73.6 33.6 43.3 16.9 88.4 31.4 133.7 41.6 56.2 12.7 114 18.2 171.5 19.6 50.2 1.2 100.8 1.8 150.7-4.5 47-5.9 93.6-14.4 139.9-24.6 12.3-2.7 24.7-5.7 36.8-9.3 19.8-5.9 38.6-14.2 57.5-22.4 26.8-11.6 50.5-30.5 72.3-49.5 18.9-16.5 35.5-35.6 51.9-54.5 25.8-29.8 51.1-60 76.9-89.7 8.4-9.7 16.8-19.3 25.3-28.9 11.7-10.9 20-23.7 24.8-38.6 7.5-14.3 11-29.7 10.3-46.2.6-16.5-2.8-31.9-10.3-46.2-4.8-14.9-13.1-27.8-24.8-38.6-8.1-6.3-16.2-12.5-24.3-18.8-18.7-10.9-38.9-16.3-60.6-16.4-10.6 1.4-21.3 2.9-31.9 4.3-20.2 5.3-37.9 15.6-52.8 30.5z"/></g><path class="st1" d="M2328.7 903.6c32.9 58.1 78.6 108.4 133 147 2-3.5 4-6.9 6.1-10.4-44.1-29.4-79.7-70.5-103-118-6.7-13.6-12.2-27.8-16.7-42.3-1.8-5.8-9.7-5.6-11.6 0-23.8 73 14 156.6 78.1 195.6 18.4 11.2 38.7 18.3 60 21 6.1.8 7.9-8.5 3-11.2-57.1-31.6-108-73.3-150.3-122.9-3.5-4.1-10.2-.6-10.2 4.2-1 63.3 28.5 125.9 78.2 165.2 6 4.7 14.5-3.7 8.5-8.5-47.4-37.4-75.6-96.3-74.7-156.7l-10.2 4.2c42.9 50.4 94.9 92.8 152.8 124.8 1-3.7 2-7.5 3-11.2-70-8.9-125.3-74.4-132.5-142.8-2.1-19.8-.2-39.6 5.9-58.6h-11.6c16.4 53 47.1 101.3 88.2 138.6 11.6 10.5 24 20.2 37.1 28.9 6.5 4.3 12.3-6 6.1-10.4-52.7-37.4-96.8-86.4-128.7-142.7-4-6.6-14.4-.5-10.5 6.2zM1817.3 1008.3c-8.6 59.2-10.1 119.4-4.1 178.9 5.9 59.2 18.8 117.8 38.6 173.9 11.2 31.8 24.6 62.7 40.1 92.7 3.5 6.9 13.9.8 10.4-6.1-53.7-104-81.4-220.9-80.7-337.9.2-32.9 2.6-65.8 7.3-98.4 1-7.5-10.5-10.7-11.6-3.1z"/><path class="st1" d="M1963.4 1442.1c-58.9-17.9-113.3-49.9-157.6-92.6-12.6-12.1-24.3-25-35.2-38.7-2.4 3.1-4.8 6.3-7.3 9.4 48.2 35.3 102.5 61.7 159.8 78.2 5.7 1.6 10.1-5.9 5.8-10-34.5-33.4-69.1-66.8-103.6-100.2l-8.5 8.5c38.4 33.7 86.2 56 136.9 63.2 4.2.6 8.9-2.6 7.4-7.4-20.2-63.1-96.2-78.1-144.3-112.8-13.8-9.9-25.8-22.1-33.9-37.1l-8.2 8.2c22.6 15.6 45.1 31.3 67.7 46.9 5.7 3.9 12-4.7 7.3-9.4-29-28.7-50.7-63.9-63.3-102.7-1.4 2.5-2.8 4.9-4.2 7.4 9.7-1.5 19.2 2.7 25.5 10.1 3.9 4.5 11.9-.3 10-5.8-16.7-49.3-18.1-102.8-3.9-152.9 2.1-7.4-9.5-10.6-11.6-3.2-14.8 52-13.5 108.1 3.9 159.3 3.3-1.9 6.7-3.9 10-5.8-9.3-10.8-23.3-15.3-37.2-13.2-3.1.5-5.1 4.6-4.2 7.4 13.2 40.7 36 77.9 66.4 108 2.4-3.1 4.8-6.3 7.3-9.4-22.6-15.6-45.1-31.3-67.7-46.9-5.2-3.6-10.9 3.3-8.2 8.2 31 57.6 103.3 67.4 149.7 107.5 12.4 10.7 22.3 23.8 27.4 39.6l7.4-7.4c-48.6-6.9-94.7-27.7-131.6-60.1-5.8-5.1-14.1 3.1-8.5 8.5 34.5 33.4 69.1 66.8 103.6 100.2 1.9-3.3 3.9-6.7 5.8-10-56.4-16.2-109.6-42.3-157-77-6-4.4-11.1 4.6-7.3 9.4 39.3 49.3 90.4 89.1 147.8 115.3 16.4 7.5 33.2 13.8 50.4 19.1 7.4 2 10.5-9.6 3.2-11.8zM2046.5 215.9c-9.9 57.4 16 117.8 64.5 150.1 3.6 2.4 9.4-.7 9-5.2-3.3-44.4-6.6-88.9-10-133.3-.4-5.5-8.2-8.7-11.2-3-29.1 55.3-24.9 125.8 11.4 176.9 3.7 5.2 13.3 2.3 11-4.6-14.1-42.1-24.6-85.4-31.4-129.3-1.1-7.2-11.2-4.6-11.8 1.6-6.3 61.8-1.6 124.5 13.4 184.8 1.9 7.5 13.5 4.3 11.6-3.2-14.9-59.3-19.2-120.8-13-181.6-3.9.5-7.9 1.1-11.8 1.6 6.8 43.9 17.3 87.2 31.4 129.3 3.7-1.5 7.3-3.1 11-4.6-33.8-47.5-38.6-113.1-11.4-164.8-3.7-1-7.5-2-11.2-3 3.3 44.4 6.6 88.9 10 133.3 3-1.7 6-3.5 9-5.2-43.8-29-68-84.7-59-136.5 1.4-7.6-10.2-10.9-11.5-3.3zM1669.1 375.5c-10.2 33.6-20.4 67.1-30.7 100.7 3.9.5 7.9 1.1 11.8 1.6 4.9-43.3 9.7-86.6 14.6-129.9h-12c3.1 56.3 1 112.8-6.6 168.6 3.9.5 7.9 1.1 11.8 1.6-6.2-46.6-1.9-93.8 12.7-138.5-3.9-.5-7.9-1.1-11.8-1.6.5 52.7 4.1 105.3 10.6 157.7.9 7.5 12.8 7.7 12 0-3.3-30.5-.7-61.1 7.9-90.5-3.7.5-7.3 1-11 1.4 13.5 19.8 21.1 42.8 21.8 66.8.2 7.7 12.2 7.7 12 0-.8-26-8.9-51.3-23.5-72.9-2.9-4.2-9.5-3.7-11 1.4-8.9 30.4-11.8 62.3-8.3 93.7h12c-6.5-52.3-10.1-104.9-10.6-157.7-.1-6.9-9.7-8-11.8-1.6-14.8 45.5-19.4 94.2-13.1 141.7.4 3 2 5.5 5.2 5.9 2.6.4 6.2-1.3 6.6-4.3 7.7-56.9 10.2-114.4 7-171.8-.4-7.9-11.2-7.6-12 0-4.9 43.3-9.7 86.6-14.6 129.9-.8 6.9 9.9 7.8 11.8 1.6 10.2-33.6 20.4-67.1 30.7-100.7 2.3-7.3-9.3-10.4-11.5-3.1zM1139.9 1334.2c-46.6 2.5-91.8-13.4-130.6-38.6-40.1-26-72.7-61.8-101.4-99.6-16.8-22.1-32.4-45-48-67.9-4.3-6.3-14.5-.6-10.4 6.1 47.2 76.2 120.3 135 204.2 166.1 23.5 8.7 47.7 15.1 72.4 19.1-.5-3.7-1-7.3-1.4-11-84.7 45.3-161.3 105.7-225.1 177.5-18.1 20.3-35 41.5-51 63.5 3.5 2 6.9 4 10.4 6.1 48.3-94.1 113.5-179.2 191.8-250.3 22.1-20.1 45.3-39.1 69.4-56.8l-8.2-8.2c-43.9 68.9-77.2 144.5-99.1 223.2-21.9 78.7-32.5 160.7-31 242.4.8 46.2 5.6 92.3 14.1 137.7 1.4 7.6 13 4.4 11.6-3.2-14.9-79.3-17.6-160.7-8.8-240.9 8.8-79.9 29.2-158.6 60.4-232.7 17.6-41.8 38.8-82.2 63.2-120.5 3.1-4.8-3.3-11.8-8.2-8.2-86.5 63.6-161.2 142.6-219.8 232.5-16.6 25.5-31.9 51.8-45.8 78.9-3.6 7 5.9 12.2 10.4 6.1 55.5-76.5 124.7-143 203.2-195.6 22.2-14.8 45-28.5 68.6-41.1 4.3-2.3 3.7-10.1-1.4-11-85.9-14-165.9-57.6-225-121.4-16.7-18-31.5-37.5-44.5-58.4-3.5 2-6.9 4-10.4 6.1 54.9 80.7 115.2 166.7 211.4 200.3 25.3 8.8 52.2 13.2 79 11.7 7.7-.4 7.7-12.4 0-11.9zM923.9 2580.9c-80.9 6.3-159.9-16.6-234.1-46.9-37.9-15.5-75-33.1-112-50.5-39.7-18.7-79.4-37.3-119.1-56-44.5-20.9-89-41.9-133.6-62.8-5.9-2.8-12.4 4.3-7.3 9.4 68.9 68.3 153.9 117.8 243.9 152.5 98.7 38.1 203.2 58 307.8 71 62.6 7.7 125.5 13 188.4 18.2v-12c-85.4-.5-169 19.2-253.3 29.6-70.2 8.7-142.9 10.1-211-11.5-36.4-11.5-70.4-30-98.2-56.3-5.6-5.3-14.1 3.2-8.5 8.5 51.1 48.3 120.1 69.8 188.9 75.6 79.7 6.7 158.6-8.3 236.9-20.4 48.1-7.5 96.5-13.7 145.2-13.5 7.8 0 7.6-11.4 0-12-110-9.1-220.3-18.3-328.5-41-96.2-20.2-190.8-51.4-276.1-100.9-46.1-26.7-89.1-58.7-127-96.3-2.4 3.1-4.8 6.3-7.3 9.4 80 37.6 160 75.2 240.1 112.9 74.5 35 149.4 72 229.7 92 44.1 11 89.6 16.4 135 12.9 7.8-.5 7.9-12.5.1-11.9z"/></g></svg>