<svg version="1.1" id="Layer_1" xmlns="http://www.w3.org/2000/svg" x="0" y="0" viewBox="0 0 5609.2 2510.1" xml:space="preserve"><style>.st0{opacity:.2}.st1{fill:#efdf00}</style><g class="st0"><path class="st1" d="M2632.5 1077.4c-20.6-2.2-40.8.1-61.2 3.4-15.6 2.5-30.8 7-45.4 12.7-34.8 13.6-66.9 31.1-98 51.6-57.8 38.2-113.8 79.4-168.7 121.7-34.7 26.8-69.1 54-102.9 82-3.1 4-6.3 8.1-9.4 12.1-2 4.8-4 9.6-6 14.3-.7 5.3-1.4 10.6-2.1 16-.3 8.3 1.4 16 5.2 23.1 1.4 5.1 4 9.5 7.7 13.2 2.7 4.5 6.3 8.1 10.8 10.8 10 7.7 23.4 13.7 36.4 12.9 56.3-3.5 112.7-4.7 169.1-3.6 14.5.3 32.5-6.7 42.4-17.6 3.1-4 6.3-8.1 9.4-12.1 4.4-6.9 6.8-14.3 7.1-22.3 1.4-5.3 1.4-10.6 0-16-.4-8-2.7-15.4-7.1-22.3-8.8-13.6-20.5-22.4-35.9-27.6-1.1-.4-2.2-.8-3.3-1.3 4.8 2 9.6 4 14.3 6-2.8-1.3-5.4-2.9-7.9-4.7 4 3.1 8.1 6.3 12.1 9.4-2.4-1.9-4.5-4.1-6.4-6.5 3.1 4 6.3 8.1 9.4 12.1-2.3-3.1-4.2-6.4-5.8-10 2 4.8 4 9.6 6 14.3-1.8-4.5-3.1-9-3.8-13.8.7 5.3 1.4 10.6 2.1 16-.7-5.3-.7-10.6-.1-15.8-.7 5.3-1.4 10.6-2.1 16 .7-4.9 1.9-9.5 3.7-14.1-2 4.8-4 9.6-6 14.3 2.2-5.1 5.1-9.7 8.4-14.1-3.1 4-6.3 8.1-9.4 12.1 4.3-5.4 9.2-10.2 14.7-14.4-4 3.1-8.1 6.3-12.1 9.4 8.8-6.7 18.6-11.9 28.8-16.3-4.8 2-9.6 4-14.3 6 13.1-5.4 26.6-9.2 40.2-12.9 19.3-5.3 37.5-11.4 55.9-19.3 28.4-12.1 51.4-33.4 72.7-55.3 9.9-10.1 19.8-20.3 31-29-4 3.1-8.1 6.3-12.1 9.4 7.5-5.7 15.5-10.7 24.2-14.4-4.8 2-9.6 4-14.3 6 1.3-.5 2.7-1.1 4-1.6 7.8-1.9 14.6-5.4 20.4-10.7 6.5-4.2 11.7-9.8 15.5-16.8 7.5-12.9 10.7-31.8 6-46.2-4.7-14.5-13.7-28.5-27.6-35.9-13.7-7.3-31-11.3-46.2-6-67.2 23.4-134.6 46-202.3 67.7-68 21.8-136.4 42.7-204.9 62.7-38.5 11.2-77.1 22.2-115.8 32.9-20.2 5.6-36.3 21.7-41.9 41.9-5.4 19.6-.4 44.5 15.4 58.4 13.6 11.9 28.2 22.9 43.9 31.9 15.9 9.1 32.9 16.2 49.8 23.1 25.5 10.4 51.9 18.2 77.9 26.8 14.7 4.8 29.3 10 43.5 16-4.8-2-9.6-4-14.3-6 18.3 7.8 36 17.1 51.8 29.2-4-3.1-8.1-6.3-12.1-9.4 10.2 8 19.5 17.1 27.4 27.4 5.4 5.9 11.9 10 19.3 12.4 7.2 3.8 14.9 5.5 23.1 5.2 14.7 0 32.3-6.5 42.4-17.6 10.5-11.4 18.3-26.4 17.6-42.4-.7-5.3-1.4-10.6-2.1-16-2.9-10.2-8-19-15.4-26.5-12.1-15.7-27.2-27.8-43.2-39.5-12-8.8-25.1-16.1-38.6-22.3-32.2-14.8-65.7-25.6-99.3-36.6-16.8-5.5-33.5-11.2-49.8-18 4.8 2 9.6 4 14.3 6-19.2-8.1-37.7-17.8-54.3-30.5 4 3.1 8.1 6.3 12.1 9.4-3.1-2.4-6.2-5-9.2-7.6-8.8 33.4-17.7 66.9-26.5 100.3 68.5-18.9 136.9-38.7 204.9-59.4 68.4-20.8 136.4-42.4 204.2-65 38.1-12.7 76.1-25.6 113.9-38.8-10.6-38.6-21.3-77.1-31.9-115.7-13.7 5.1-27.2 10.9-39.1 19.5-11.7 8.5-22.9 17.5-33.2 27.6-14.4 14-27.7 29.2-43.5 41.7 4-3.1 8.1-6.3 12.1-9.4-9.4 7.2-19.5 13-30.3 17.6 4.8-2 9.6-4 14.3-6-18.4 7.6-37.8 11.9-56.8 17.5-21 6.1-42.4 13.9-60.9 25.8-10.8 6.9-21.6 15-30.3 24.5-8.3 9.1-16.6 19.3-21.6 30.7-7.5 17-11.2 29.8-12.3 48.7-.2 3.3-.1 6.5.2 9.8.8 8.4 1.6 17.2 4 25.4 4.8 16.9 13.1 30.8 24.5 44 11.3 13 26.9 21.2 43 26.6 5.3-39.3 10.6-78.6 16-117.9-56.4-1.1-112.8.1-169.1 3.6 14.1 34.1 28.3 68.3 42.4 102.4 28.8-23.9 58.1-47.3 87.7-70.2-4 3.1-8.1 6.3-12.1 9.4 31.7-24.5 63.7-48.3 96.3-71.6 31.6-22.6 63.3-45.4 96.4-65.7 18.1-11.1 36.7-21.3 56.3-29.6-4.8 2-9.6 4-14.3 6 18-7.5 36.7-13.2 56.1-16-5.3.7-10.6 1.4-16 2.1 13.7-1.8 27.4-2.1 41.1-.6 8.3.3 16-1.4 23.1-5.2 7.4-2.4 13.9-6.6 19.3-12.4 10.4-10.4 18.2-27.5 17.6-42.4-.7-15.5-5.8-31.6-17.6-42.4-4-3.1-8.1-6.3-12.1-9.4-9.6-5.5-19.7-8.3-30.5-8.3z"/></g><g class="st0"><path class="st1" d="M2668.7 1580h192c15.4 0 31.5-6.7 42.4-17.6 10.4-10.4 18.2-27.5 17.6-42.4-.7-15.5-5.8-31.6-17.6-42.4-11.7-10.8-26.2-17.6-42.4-17.6h-192c-15.4 0-31.5 6.7-42.4 17.6-10.4 10.4-18.2 27.5-17.6 42.4.7 15.5 5.8 31.6 17.6 42.4 11.8 10.8 26.2 17.6 42.4 17.6z"/></g><g class="st0"><path class="st1" d="M2926.7 1591.4c82 2.5 164.1 1.8 246.1-2 15.8-.7 31-6.2 42.4-17.6 10.4-10.4 18.2-27.5 17.6-42.4-.7-15.5-5.8-31.6-17.6-42.4-11.4-10.5-26.5-18.3-42.4-17.6-82 3.8-164.1 4.5-246.1 2-15.1-.5-31.9 7-42.4 17.6-10.4 10.4-18.2 27.5-17.6 42.4.7 15.5 5.8 31.6 17.6 42.4 11.9 11 26 17.1 42.4 17.6z"/></g><g class="st0"><path class="st1" d="M3111.3 936.9c2.3 9.6 4.1 19.3 5.4 29.1-.7-5.3-1.4-10.6-2.1-16 3.4 26.2 3.3 52.6-.1 78.8.7-5.3 1.4-10.6 2.1-16-3.7 27.3-10.9 53.9-21.6 79.2 2-4.8 4-9.6 6-14.3-7.8 18.2-17.3 35.5-28.5 51.9-4.4 6.9-6.8 14.3-7.1 22.3-1.8 8-1.4 16 1.1 23.9 3.8 13.9 14.6 29 27.6 35.9 13.9 7.4 30.8 11 46.2 6 4.8-2 9.6-4 14.3-6 9-5.3 16.2-12.5 21.5-21.5 21.3-31 37.2-66.5 47.4-102.7 5.8-20.6 8.9-41.6 11.4-62.8 2-16.6 2.6-33.4 1.8-50.1-1.1-23.4-4.4-46.9-9.8-69.7-3.4-14.4-15-28.5-27.6-35.9-12.9-7.5-31.8-10.7-46.2-6-14.5 4.7-28.5 13.7-35.9 27.6-7.5 14.6-9.7 30-5.9 46.3z"/></g><g class="st0"><path class="st1" d="M3531.5 1047.4c2.9 12.2 5.6 24.5 7.3 37-.7-5.3-1.4-10.6-2.1-16 1.4 11 2 22 .6 33 .7-5.3 1.4-10.6 2.1-16-1.1 7.9-3.2 15.6-6.3 23 2-4.8 4-9.6 6-14.3-10.3 24.4-27.7 45.8-42.7 67.4-4.4 6.9-6.8 14.3-7.1 22.3-1.8 8-1.4 16 1.1 23.9 3.8 13.9 14.6 29 27.6 35.9 13.9 7.4 30.8 11 46.2 6 4.8-2 9.6-4 14.3-6 9-5.3 16.2-12.5 21.5-21.5 14-20.2 29.8-40.1 40.4-62.5 5.9-12.3 11.7-25.3 14-38.9 2.6-15.1 4.2-29.7 2.8-44.9-1.9-20.4-5.5-40.5-10.2-60.4-3.4-14.4-15-28.5-27.6-35.9-12.9-7.5-31.8-10.7-46.2-6-14.5 4.7-28.5 13.7-35.9 27.6-7.5 14.7-9.7 30.1-5.8 46.3z"/></g><path class="st1" d="M2950.7 1574l101.1.3c7.9 0 7.4-11.1 0-12-42.6-5.3-85.6-7.5-128.5-6.5-7.8.2-7.6 11.4 0 12 29.6 2.2 59.3.9 88.6-3.7 15.7-2.5 64.7-7.9 52.7-34.9-.8-1.9-3.3-3-5.2-3-63.4-.2-126.9-.3-190.3-.5v12c82.2-.9 164.3-8.2 245.5-21.7 7.6-1.3 4.4-12.8-3.2-11.6-80.1 13.3-161.1 20.4-242.3 21.3-7.7.1-7.7 12 0 12 63.4.2 126.9.3 190.3.5-1.7-1-3.5-2-5.2-3 1.4 3.2-4.1 6.5-6.2 7.8-4.4 2.5-9.3 3.5-14.2 4.6-12.1 2.8-24.4 5-36.7 6.5-24.5 3-49.2 3.5-73.9 1.7v12c42.9-1 85.9 1.1 128.5 6.5v-12l-101.1-.3c-7.6-.1-7.6 11.9.1 12zM2665.4 1538c37.4 17.5 80.6 18 118.5 1.6 5.8-2.5 2.4-11-3-11.2-35-1.1-70.1-2.3-105.1-3.4-7.8-.3-7.5 11.3 0 12 51.3 5 103.1 1.7 153.5-9.4 7-1.6 4.8-11.2-1.6-11.8-47.1-4.3-94.7 0-140.4 12.3-6.3 1.7-5.3 12.5 1.6 11.8 17.4-1.9 34.7-3.8 52.1-5.7 7.6-.8 7.7-12.8 0-12-17.4 1.9-34.7 3.8-52.1 5.7.5 3.9 1.1 7.9 1.6 11.8 44.7-12.1 91.1-16.1 137.2-11.9-.5-3.9-1.1-7.9-1.6-11.8-49.3 10.9-100 13.9-150.3 9v12c35 1.1 70.1 2.3 105.1 3.4-1-3.7-2-7.5-3-11.2-33.6 14.6-73.3 14-106.4-1.6-7-3.2-13.1 7.2-6.1 10.4zM2500.8 1550.7l101.4-2.4c6.6-.2 8.3-10 1.6-11.8-35.4-9.2-70.7-18.4-106.1-27.6v11.6c35.9-5.2 71.9-10.4 107.8-15.6 6.9-1 4.9-11.6-1.6-11.8-44.2-1.3-88.3-5-132-11.1-3.2-.5-6.4.8-7.4 4.2-.8 2.8 1 6.9 4.2 7.4 44.8 6.3 89.9 10.2 135.2 11.6-.5-3.9-1.1-7.9-1.6-11.8-35.9 5.2-71.9 10.4-107.8 15.6-6.1.9-5.4 10.2 0 11.6 35.4 9.2 70.7 18.4 106.1 27.6.5-3.9 1.1-7.9 1.6-11.8l-101.4 2.4c-7.7 0-7.7 12.1 0 11.9zM2728.7 2089.9s-114 138-174 132-102-102-102-102l138-126 138 96zM2584.8 1963.9s-114 138-174 132-102-102-102-102l138-126 138 96zM3128.5 1725.7l-24 176s232 120 312 64 67.9-154.2 32-184c-62.5-51.9-320-56-320-56zM4285.4 1004.1c-18.4-34.3-42-54-168-54-77 0-127.1-9-154.4-15.9-13.2-3.4-26.2 6.3-26.7 19.9l-4 95c-.5 11.6 8.4 21.5 20 22.3l306 19.7c17.8 1.1 21.3-16.3 26.3-33.4 8.2-27.2 6.7-42.7.8-53.6z"/><path class="st1" d="M2432.5 1513.5c51-28.9 77.1-11.6 131.8-33.5-7.7 3.1-15.3 6.1-23 9.2 33.1-13.2 66.9-24.9 101-35.7 41.2-13 82.6-27 120.6-47.2 16.9-9 33.5-18.7 51.4-26-7.7 3.1-15.3 6.1-23 9.2 12.4-4.9 25.2-8.2 38.5-10-8.5 1.1-17.1 2.2-25.6 3.3 18.3-2.2 36.7-2 55.1-2 18.9 0 37.8.1 56.8.1 38.2.1 76.3.1 114.5.2 21.9 0 43.8.1 65.7.1 13.3.5 25.6-2.1 37.1-7.9 11.9-3.7 22.3-10 31-18.9 9.4-8.3-41.6-18.1-37.7-29.4 6-10.9 8.8-22.6 8.3-35.2-1.1-8.1-2.3-16.2-3.4-24.3-4.6-15.5-12.8-28.9-24.8-40.3-18.9-16.4 15.6-26.7-10.5-26.8l-13.9-27.6c-59.1-.1-112.7 5.3-171.7 5.2-28.8-.1-79.5-26.3-108.3-25.7-21.7.5-53.6 22.8-74.9 26.9-20.3 4-32.9 13.3-51.5 21.6-27.1 12.2-65.6 28.8-93.3 40 7.7-3.1-16.7 17.3-9 14.3-42.4 16.9-7.9 31.4-50.7 47.2-49.8 18.4-98.9 38.8-146.4 62.1-23.1 11.3-45.8 23.3-68.1 35.9-11.2 5.7-20.2 13.6-27 23.5" opacity=".3"/><path d="M3149.9 2006.4c-48.7 0-99.6-6.1-147.8-18.2-162.4-40.6-524.7-87.4-672.8-79.6-58.6 3.1-106.2 18.5-156.7 34.8-78.9 25.5-160.6 51.9-293.7 37.1-153.9-17.1-344.7-147.3-498.1-251.9-67.5-46-125.7-85.8-171.3-109.7-42-22.1-174.4-52.6-566.8-72.3-236-11.8-456.2-14-458.4-14-5.4 0-10.4-3-13-7.8-.4-.8-43.2-78.9-85.3-174.6C28.9 1220.7 0 1122 0 1056.9c0-64.6 27.4-181.5 81.5-347.3 40-122.8 80.6-228.3 81-229.4 2.4-6.3 8.7-10.2 15.4-9.5 3.3.3 335.8 30.9 485.4 30.9 52.1 0 172.5-4.6 311.9-10 271.2-10.5 608.8-23.5 699.1-12.9 95.5 11.2 339.2 56.6 554.1 96.7 92.3 17.2 179.4 33.4 246.8 45.5 106.5 19 438.3 96.1 759.2 170.7 332.9 77.4 710.2 165.1 742.2 165.1 27.2 0 99.6 0 163.4 18.8 35.7 10.5 64.1 25.5 84.4 44.5 25.4 23.8 38.6 53.9 39.1 89.5.7 44.5-13 80.3-40.6 106.5-70.3 66.7-214 56.8-329.6 48.9-31.5-2.2-61.2-4.2-84.8-4.2-79.5 0-150.7-12.4-233.2-26.7-61.1-10.6-124.3-21.6-200.3-29.4-1.8-.2-185.5-18.3-245.9-15.9-8.7.3-16.5.3-23.2.1 17.5 41.9 32.6 77.9 46.1 110.2 83.5 199.5 90.3 215.7 107.2 283.3 9.5 38-.5 66.3-10.7 83.3-2 3.4-4.1 6.5-6.2 9.3 44.7 15.3 138.9 54.5 170.2 120.9 14.4 30.5 14 62.9-1.2 96.1-12.4 27.2-34 50.3-64.1 68.7-27.3 16.7-60.9 29-100 36.8-30.3 6-63.3 9-97.3 9zm-784.5-128.6c72.7 0 179.1 8.1 300.5 23 133.4 16.4 265 38.7 343.4 58.3 77.8 19.5 162.4 22.7 232.1 8.9 72.5-14.4 123.1-45.8 142.6-88.5 11.5-25.2 11.9-48.3 1.3-70.8-34.7-73.8-173.3-111.8-174.7-112.2-5.7-1.5-10-6.2-11-12s1.4-11.5 6.3-14.8c2.1-1.5 37.1-27.9 24-80.1-16.3-65.4-21.4-77.4-105.8-279-15.9-38-33.9-81-55.5-132.8-2.1-5-1.3-10.8 2-15 3.3-4.3 8.7-6.4 14.1-5.6.1 0 16.7 2.5 43 1.5 62.4-2.4 242.4 15.3 250.1 16.1 77.1 7.9 143.7 19.4 202.5 29.6 81.1 14.1 151.2 26.3 228.1 26.3 24.6 0 54.9 2.1 86.9 4.3 55 3.8 117.3 8 173.8 3.7 63-4.8 106.6-19.4 133.1-44.5 21.6-20.5 31.8-48 31.2-84.3-.4-27.5-10.1-49.8-29.6-68-16.9-15.8-41.3-28.5-72.4-37.6-59.7-17.5-128.9-17.5-155-17.5-33 0-305-62.7-749-165.8-320.5-74.5-651.9-151.5-757.7-170.4-67.5-12.1-154.7-28.3-247-45.5-214.5-40-457.5-85.2-552.1-96.4-88-10.4-438.5 3.2-694.4 13.1-139.7 5.4-260.4 10.1-313.1 10.1-135.1 0-416.8-24.6-476.8-30C161.6 567.5 30 922.7 30 1056.9c0 133.4 137.7 397.5 163.5 445.9 43.6.5 241 3.4 450.7 13.9 319.4 16 514.3 41.5 579.2 75.7 47.1 24.8 106 65 174.2 111.5 150.6 102.7 338 230.6 484.5 246.9 126.7 14.1 205.3-11.3 281.2-35.9 52.4-16.9 101.8-32.9 164.4-36.2 11.3-.6 23.9-.9 37.7-.9z"/><path d="M2310.8 1452.9l-265.5-105 11-27.9 250.4 99c31.2-21.9 164-114.8 221.9-151.7 4.6-2.9 9.7-6.2 15-9.7 73-47 208.8-134.6 319.9-112.4 116.7 23.3 262.4 13.5 263.8 13.4l2.1 29.9c-6.1.4-151.2 10.2-271.8-13.9-99.2-19.8-228.4 63.4-297.8 108.2-5.4 3.5-10.5 6.8-15.2 9.8-64.9 41.3-225.8 154.4-227.4 155.6l-6.4 4.7zM3208.5 1695.6c-23.8-10.6-156.3-33.8-284.4-56.2-155.7-27.3-316.7-55.4-373-74.8l-118.6-17.8 4.5-29.7 121.4 18.2 1.4.5c52.6 18.6 221 48.1 369.5 74.1 163.8 28.7 265.6 46.8 291.4 58.4l-12.2 27.3z"/><path d="M2891.8 1623.2l-26.2-14.6 25.9-46.6c-15.6-27.6-63.9-114.9-69.5-144.5-4.1-21.7-67.6-153.9-106.7-232l26.8-13.4c10.5 21.1 103.1 206.9 109.3 239.9 4 21.4 45.2 98.8 70.3 142.6l4.2 7.3-34.1 61.3zM2636.4 1572.3c-1.5-5-36.6-122.6-36.6-166.3 0-26.3-45.4-84.9-74-115.8l22-20.4c.8.9 20.3 21.9 40 48.5 28.2 38 42 66.7 42 87.7 0 32.6 25.5 124.9 35.4 157.7l-28.8 8.6zM2439.8 1548.1c-3.5 0-7.2-.8-10.9-2.4l-1.7-.7-127.5-97.1 18.2-23.9 117.6 89.6c1-10 .4-32.5-9.3-81.3-7.9-39.5-17.8-76.1-17.9-76.4l28.9-7.9c.5 1.7 11.2 41.1 19.4 83.6 15.9 82.1 8.3 101.8-2.1 110.9-4.2 3.8-9.3 5.6-14.7 5.6zM2626.8 2200.8c-27.8 0-53.4-6.8-76.2-20.3-19-11.2-35.8-27.2-48.7-46.3-15.1-22.4-23.8-47.5-24-67.3-26.4-3.8-80.2-14.7-118-43.1-11.7-8.8-17.9-20.8-17.8-34.6.1-21.1 14.3-45.4 43.4-74.4 20-19.9 39.7-34.5 40.5-35.1l17.8 24.2c-29.7 21.9-71.6 62.9-71.7 85.4 0 3 .7 6.7 5.8 10.5 43.8 32.9 117.4 39 118.1 39l20.3 1.6-7.6 18.9c-3.2 8.1 1.3 33.4 18 58 13.5 19.9 44.5 53.4 100 53.4 37.3 0 100.6-39.1 178.1-110 60.9-55.8 110-112.2 110.5-112.7l22.7 19.7c-.5.6-50.8 58.3-112.9 115.2-85.5 78.3-152.2 117.9-198.3 117.9z"/><path transform="rotate(-43.878 2572.742 1978.904)" d="M2464.6 1963.9H2681v30h-216.4z"/><path class="st1" d="M2678.4 1080.2l-256.5 88.8c-85.2 29.5-170.4 59-255.5 88.5-48.1 16.7-96.2 33.3-144.3 50 2.3 2.9 4.5 5.9 6.8 8.8 11.2-18.2 30.7-27.1 51-31.6 22.4-5 45.4-5.1 68.2-6.4 57.2-3.3 113.9-14 168.4-31.5 30.7-9.9 60.6-22 89.6-36.2 6-2.9 1.8-13.4-4.6-11-89.5 33.8-179 67.5-268.5 101.3-25.3 9.5-50.5 19.1-75.8 28.6-7.2 2.7-4.5 13.2 3.2 11.6 66.3-14.3 133.7-22.6 201.5-24.6 19.1-.6 38.2-.6 57.3-.2v-12c-96.4 2.4-192.5 16.6-285.4 42.5-26.1 7.3-52 15.5-77.6 24.6 1.1 3.9 2.1 7.7 3.2 11.6 51.2-20.9 108-25.6 162.3-15.5 54 10 105.8 33.8 147.6 69.6 23.6 20.2 43.8 44 59.4 70.8 3.9 6.7 14.3.6 10.4-6.1-28.8-49.4-72.7-88.9-123.4-114.9-50.8-26-108.5-39.1-165.5-36.2-32.2 1.7-64.1 8.4-94 20.7-7 2.8-4.2 14.2 3.2 11.6 89.8-31.9 183.6-52.9 278.5-61.9 27-2.6 54.1-4.1 81.2-4.8 7.7-.2 7.7-11.8 0-12-68.5-1.4-137.1 3.4-204.7 14.4-19.2 3.1-38.2 6.7-57.2 10.8 1.1 3.9 2.1 7.7 3.2 11.6 89.5-33.8 179-67.5 268.5-101.3 25.3-9.5 50.5-19.1 75.8-28.6-1.5-3.7-3.1-7.3-4.6-11-52.7 25.7-108.8 44.3-166.5 55.4-28.8 5.5-58 9.1-87.3 10.8-23 1.3-46.3 1.6-68.9 6.6-23.6 5.1-45.8 16.1-58.8 37.2-2.6 4.3 1.8 10.5 6.8 8.8l256.5-88.8c85.2-29.5 170.4-59 255.5-88.5 48.1-16.7 96.2-33.3 144.3-50 7.2-2.4 4.1-14-3.3-11.5zM3540.5 1038.8c-7.9 44.8-3.4 91.2 13.6 133.4 1.9 4.6 8.1 6.2 11 1.4 13.1-22 11.3-48.7 10.5-73.3-.7-21.5-2.3-49 16.7-63.7-2.9-2.3-5.9-4.5-8.8-6.8-21.2 51.7-42.6 105.2-41.2 162.1.1 5.5 8.6 8.8 11.2 3 19.2-42.5 38.5-85 57.7-127.5-3.7-1.5-7.3-3.1-11-4.6-11.3 37.2-15.9 76.3-13.6 115.1.4 7.7 12.4 7.7 12 0-2.2-37.9 2.2-75.6 13.2-112 1.9-6.4-8.1-10.9-11-4.6-19.2 42.5-38.5 85-57.7 127.5 3.7 1 7.5 2 11.2 3-1.3-55.7 20-108.2 40.8-158.9 1.9-4.6-4.8-9.9-8.8-6.8-44.5 34.3-6.1 98.4-31.6 141.2 3.7.5 7.3 1 11 1.4-16.2-40.2-21.2-84.3-13.6-127 1.3-7.3-10.3-10.5-11.6-2.9zM3201.1 1149.6c-19.8-21.6-38.2-44.4-54.8-68.5-7.5-10.8-16.2-22.9-17-36.5-.6-9.9 3.9-21.5 14.1-24.7-2.5-1.9-5.1-3.9-7.6-5.8-.6 53.2-4.5 106.5-11.8 159.2 3.9.5 7.9 1.1 11.8 1.6.2-55.2 20.8-109.6 57.5-151-3.1-2.4-6.3-4.8-9.4-7.3-28.6 52-51.8 106.9-69 163.7 3.9 1.1 7.7 2.1 11.6 3.2 13.7-65.2 34.3-128.8 61.8-189.5 3.2-7-5.8-12.4-10.4-6.1-38.9 54.1-65.1 117-76.1 182.6-1.3 7.6 10.3 10.8 11.6 3.2 10.9-64.8 36.5-126.4 74.9-179.8-3.5-2-6.9-4-10.4-6.1-27.9 61.6-49.1 126.1-63 192.3-1.6 7.5 9.3 10.6 11.6 3.2 16.9-55.8 39.6-109.7 67.8-160.8 3.2-5.8-4.8-12.5-9.4-7.3-38.8 43.8-60.7 101-61 159.5 0 6.5 10.8 8.5 11.8 1.6 7.4-53.8 11.6-108.1 12.2-162.4 0-3.8-3.9-7-7.6-5.8-12.5 3.9-20.4 15.3-22.4 27.9-2.3 15.1 4.3 29.6 12.2 42.1 18.2 28.4 39.9 54.9 62.6 79.7 5.2 6 13.7-2.5 8.4-8.2zM4215.8 648.3l20-41 20.2-41 40.3-81.9 40.6-81.8 40.8-81.7c13.6-27.2 26.9-54.6 40.3-81.9l10.2-20.4 10.4-20.3c7-13.5 14.1-26.9 21.4-40.3 14.5-26.7 29.4-53.3 44.6-79.7 15.3-26.4 30.9-52.5 47.4-78.2l1.8.9c-11.5 28.3-23.9 56.2-36.6 83.8-12.8 27.7-25.9 55.1-39.4 82.4-6.8 13.6-13.6 27.2-20.6 40.7l-10.6 20.2-10.8 20.1c-14.6 26.7-29.3 53.3-43.7 80.2l-43.2 80.4-43.5 80.3-43.7 80.1-21.9 40.1-22 40-2-1zM4456.8 792.8c46.9-30.4 94.2-60 141.6-89.7 47.4-29.6 94.9-58.9 142.6-88.1 95.3-58.3 191-115.9 287-172.9s192.4-113.5 289.2-169.2c96.8-55.7 194-110.9 292.1-164.3-93.9 60.6-188.9 119.5-284.1 177.8-95.3 58.3-191 115.9-287 172.9S4845.8 572.7 4749 628.5c-48.4 27.9-96.9 55.6-145.6 83-48.8 27.3-97.5 54.7-146.6 81.3zM4445 1140l45.3 10.9 45.3 11.1 90.5 22.2 90.5 22.4 90.4 22.7c30.1 7.6 60.3 14.8 90.5 22.2l22.6 5.7 22.5 5.9c15 4 30 8.1 44.9 12.4 29.9 8.6 59.6 17.5 89.3 26.8 29.6 9.4 59.2 19.1 88.5 29.9l-.5 1.9c-30.8-5.2-61.2-11.5-91.6-18.1-30.4-6.7-60.6-13.7-90.8-21.2-15.1-3.7-30.1-7.6-45.1-11.6l-22.5-6.2-22.4-6.4c-29.8-8.7-59.6-17.4-89.5-25.8l-89.7-25.3-89.6-25.6-89.5-25.9-44.8-12.9-44.7-13.1.4-2zM4193.4 1380.4l60.9 69.8 60.8 69.9 121.5 139.8 121.3 140 121.1 140.2c40.3 46.7 81 93.2 121.5 139.8 40.5 46.6 80.5 93.6 120.1 141 39.6 47.4 78.9 95 117.8 143 39 47.9 77.6 96.1 115.5 145l-1.5 1.3c-42.2-45.2-83.6-91-124.6-137.1-41.1-46.1-81.8-92.5-122.3-139.1-40.5-46.6-80.4-93.7-120-141.1-39.5-47.5-78.9-95-118.6-142.3l-119-141.9-118.9-142.3-118.6-142.3-59.3-71.2-59.2-71.3 1.5-1.2zM3916.6 1447c7.7 0 7.7-12 0-12-7.8 0-7.8 12 0 12z"/><path class="st1" d="M3916.6 1441c3.8 13 7.5 26.1 11 39.2 3.5 13.1 6.9 26.2 10.3 39.3 6.7 26.3 13.1 52.6 19.4 78.9 12.4 52.7 24.1 105.6 35.1 158.6s21.4 106.2 30.9 159.5c4.8 26.7 9.3 53.4 13.6 80.1 2.1 13.4 4.2 26.8 6.2 40.2 2 13.4 3.8 26.9 5.5 40.3-3.8-13-7.5-26.1-11-39.2-3.5-13.1-7-26.2-10.3-39.3-6.7-26.3-13.1-52.6-19.4-78.9a6143.327 6143.327 0 01-66-318.1c-4.8-26.7-9.3-53.4-13.6-80.1-2.1-13.4-4.2-26.8-6.2-40.2-2-13.3-3.8-26.8-5.5-40.3z"/></svg>