<svg version="1" xmlns="http://www.w3.org/2000/svg" viewBox="0 0 272 92"><path d="M116 47c0 13-10 22-22 22s-23-9-23-22 10-22 22-22 23 9 23 22zm-10 0c0-8-6-13-12-13s-13 5-13 13 6 14 13 14 12-6 12-14zm58 0c0 13-10 22-22 22s-23-9-23-22 10-22 23-22 22 9 22 22zm-10 0c0-8-6-13-12-13s-13 5-13 13 6 14 13 14 12-6 12-14zm56-21v40c0 16-10 23-21 23s-17-7-20-13l9-3c1 3 5 7 11 7 7 1 12-4 12-12v-4h-1c-2 3-6 5-11 5-12 0-22-9-22-22 0-12 11-22 22-22 5 0 9 2 11 5h1v-4h9zm-9 21c0-8-5-13-12-13-6 0-12 5-12 13s6 14 12 14c7 0 12-6 12-14zm24-44v65h-9V3h9zm37 52l8 5c-3 3-9 9-19 9-12 0-22-9-22-22s10-22 21-22c12 0 17 9 19 14l1 3-30 12c3 4 6 7 11 7s9-3 11-6zm-23-8l19-9c-1-3-4-4-8-4-5 0-11 4-11 13zM35 41v-9h32l1 6c0 7-2 16-9 22-6 6-14 9-24 9C16 69 0 54 0 35S16 1 35 1c11 0 18 4 24 9l-7 7c-4-4-9-7-17-7-14 0-24 11-24 25s10 25 24 25c9 0 14-4 18-7 2-3 4-6 5-12H35z" fill="silver"/></svg>