<svg id="svg3063" xmlns="http://www.w3.org/2000/svg" viewBox="0 0 241 351"><defs><style>.cls-1{fill:silver}</style></defs><g id="layer1"><g id="g3328"><g id="g3278"><path id="path3124" class="cls-1" d="M116 0h-2a106 106 0 00-44 10 18 18 0 013 0 2 2 0 011 0 9 9 0 014 2l4 5a10 10 0 005 1l11-2a55 55 0 0111 1 63 63 0 0115 4 85 85 0 0117 10l14 12c6 6 11 14 18 20a38 38 0 0010 5c5 3 17 4 17 4l4 1a42 42 0 017 2 21 21 0 015 2A106 106 0 00116 0z"/><path id="path3122" class="cls-1" d="M52 21a106 106 0 00-24 25 97 97 0 00-19 54v87c0 2 1 3 3 3h26a15 15 0 01-7-7c-10-20 22-56 73-84l4-4h-3c-24 10-46 25-65 42l-6-27-3-16V79l2-15 8-15a105 105 0 018-10 7 7 0 002-5l-1-3a19 19 0 010-4 7 7 0 010-4 14 14 0 012-2z"/><path id="path3094" class="cls-1" d="M219 99c-8 20-34 47-73 67-22 12-43 20-60 24h131c1 0 2-1 2-3V99z"/><path id="path3096" class="cls-1" d="M189 98c-14 0-43 9-73 27-44 25-64 49-56 54 10 6 43 3 88-23 19-11 54-37 50-54-1-3-4-4-9-4zm-68 30s10 19-6 31c-21 16-36-1-36-1 10-11 25-22 42-30z"/></g><g id="g3261"><g id="text3143"><path id="path3167" class="cls-1" d="M48 336a9 9 0 005-1 5 5 0 002-4v-1a5 5 0 00-2-4 9 9 0 00-6-1H34v11zm-5-23l5-1a5 5 0 002-5 4 4 0 00-2-4 8 8 0 00-5-1h-9v11zm-24-25h28a25 25 0 018 1 16 16 0 016 4 13 13 0 013 4 21 21 0 011 6v1a15 15 0 01-3 9c-1 2-4 2-6 3 4 1 9 5 12 7s3 6 3 10a17 17 0 01-6 13c-3 3-12 4-18 4H19v-62z"/><path id="path3169" class="cls-1" d="M76 288h47v13H91v12h28v12H91v12h33v14H76z"/><path id="path3171" class="cls-1" d="M130 288h17v49h28v13h-44v-62z"/><path id="path3187" class="cls-1" d="M181 288h16v49h29v13h-45v-62z"/></g><g id="g3255"><path id="path3157" class="cls-1" d="M19 228H0v-14h54v14H35v49H19z"/><path id="path3159" class="cls-1" d="M83 255l-8-21-8 21zm-14-41h13l26 63H91l-4-9H62l-3 9H43z"/><path id="path3163" class="cls-1" d="M196 213a37 37 0 00-13 3 30 30 0 00-10 7c-3 3-5 6-6 10a33 33 0 00-2 13 32 32 0 002 13 32 32 0 006 10 31 31 0 0011 7 32 32 0 0012 2 31 31 0 0013-2 32 32 0 0010-7 33 33 0 007-10c2-4 2-9 2-13 0-5 0-9-2-13a31 31 0 00-17-17 32 32 0 00-13-3zm0 14a14 14 0 017 2 17 17 0 015 4 19 19 0 014 6 22 22 0 011 7 22 22 0 01-1 7 19 19 0 01-4 6 15 15 0 01-5 4 15 15 0 01-7 2 14 14 0 01-6-2 16 16 0 01-5-4 18 18 0 01-4-6 22 22 0 01-1-7 21 21 0 011-7 19 19 0 014-6 16 16 0 015-4 14 14 0 016-2z"/><path id="path3189" class="cls-1" d="M105 246c0-8 2-17 8-23s15-10 24-10c17 0 25 12 25 12l-12 9-6-5a13 13 0 00-7-2c-4 1-9 3-12 6a18 18 0 00-4 12c0 6 2 13 7 16 2 3 6 3 9 3a18 18 0 009-2 26 26 0 005-4l13 9a36 36 0 01-27 12c-7 0-15-2-20-7-8-6-12-11-12-26z"/></g><g id="g3217"><g id="text3219"><path id="path3231" class="cls-1" d="M231 338h-2v-1h5v1h-2v6h-1v-6z"/><path id="path3233" class="cls-1" d="M234 337h1l3 4 2-4h1v7h-1v-6l-2 4-3-4v6h-1z"/></g></g></g></g></g></svg>