<svg id="Layer_1" data-name="Layer 1" xmlns="http://www.w3.org/2000/svg" viewBox="0 0 609 320.99"><defs><style>.cls-1{fill:silver}</style></defs><path id="path268" class="cls-1" d="M199 213.28h-26.7V319.1H199z"/><g id="use360"><path id="path284" class="cls-1" d="M414.26 243.6a46.47 46.47 0 00-22.43-5.6c-17.3 0-29.26 12-29.26 28.23 0 15.72 11.47 28.25 29.26 28.25a46.79 46.79 0 0022.43-5.62v28.41a84.78 84.78 0 01-24.35 3.73c-30 0-56.35-20.71-56.35-54.8 0-31.6 23.86-54.78 56.35-54.78a81.29 81.29 0 0124.35 3.8z"/></g><path class="cls-1" d="M135.53 243.6a46.47 46.47 0 00-22.43-5.6c-17.3 0-29.26 12-29.26 28.23 0 15.72 11.47 28.25 29.26 28.25a46.79 46.79 0 0022.43-5.62v28.41a84.78 84.78 0 01-24.35 3.73c-30 0-56.35-20.71-56.35-54.8 0-31.6 23.85-54.78 56.35-54.78a81.29 81.29 0 0124.35 3.8z"/><path id="path288" class="cls-1" d="M498.27 238.35c-15.84 0-27.61 12.47-27.61 27.83S482.43 294 498.27 294s27.62-12.46 27.62-27.85-11.8-27.83-27.62-27.83m55.92 27.83c0 30.27-23.37 54.8-55.92 54.8s-55.89-24.53-55.89-54.8 23.34-54.78 55.89-54.78 55.92 24.56 55.92 54.78"/><path id="path292" class="cls-1" d="M300.22 237.33c-.4-.12-11.64-3.23-20.88-3.23-10.7 0-16.52 3.59-16.52 8.67 0 6.45 7.85 8.7 12.24 10.09l7.37 2.34c17.33 5.51 25.23 17.38 25.23 30.27 0 26.59-23.38 35.52-43.81 35.52a158.9 158.9 0 01-28.82-2.9v-24.35c2.35.6 13.55 3.94 25.21 3.94 13.29 0 19.4-3.89 19.4-9.88 0-5.37-5.29-8.46-11.91-10.54-1.62-.54-4.05-1.3-5.7-1.85-14.87-4.7-27.27-13.44-27.27-31 0-19.8 14.82-33.08 39.43-33.08a114.7 114.7 0 0126 3.36z"/><g id="g383"><path id="path296" class="cls-1" d="M26.52 99.56a13.26 13.26 0 00-26.52 0v27.77a13.26 13.26 0 1026.52 0z"/><path id="path300" class="cls-1" d="M99.34 63.1a13.26 13.26 0 00-26.52 0v64.24a13.26 13.26 0 0026.52 0z"/><path id="path304" class="cls-1" d="M172.16 13.21a13.26 13.26 0 00-26.52 0v140.52a13.26 13.26 0 1026.52 0z"/><path id="path308" class="cls-1" d="M245 63.1a13.26 13.26 0 00-26.52 0v64.24a13.26 13.26 0 0026.52 0z"/><path id="path312" class="cls-1" d="M317.72 99.56a13.22 13.22 0 00-26.43 0v27.77a13.22 13.22 0 1026.43 0z"/></g><path class="cls-1" d="M317.75 99.56a13.26 13.26 0 00-26.51 0v27.77a13.26 13.26 0 1026.51 0zm72.82-36.46a13.26 13.26 0 00-26.51 0v64.24a13.26 13.26 0 0026.51 0zm72.83-49.89a13.26 13.26 0 00-26.52 0v140.52a13.26 13.26 0 1026.52 0zm72.82 49.89a13.26 13.26 0 00-26.52 0v64.24a13.26 13.26 0 0026.52 0zM609 99.56a13.22 13.22 0 00-26.44 0v27.77a13.22 13.22 0 1026.44 0z" id="use385"/><path id="path332" class="cls-1" d="M593.72 305.17v1.65H589v12.28h-1.93v-12.28h-4.75v-1.65z"/><path id="path336" class="cls-1" d="M594.71 305.17h3l4.17 11.42h.12l4-11.42h3v13.93h-2v-11.42h-.07l-4.22 11.42h-1.84l-4.13-11.42h-.09v11.42h-1.95z"/></svg>