<svg version="1" id="Layer_1" xmlns="http://www.w3.org/2000/svg" viewBox="0 0 800 168"><style>.st0{fill:silver}</style><path id="C" class="st0" d="M131 151a67 67 0 1135-124l-35 57 67-39c-7-12-18-22-31-30-16-9-38-15-63-15-35 0-66 13-84 32A77 77 0 000 84c0 19 8 37 20 51 18 20 48 32 83 32s65-12 83-32l3-3-3-10a68 68 0 01-55 29"/><path id="a" class="st0" d="M353 163L325 58a40 40 0 00-52-27l-61 22h63l11 40c-11-9-24-14-39-14-29 0-53 19-53 43 0 25 24 44 53 44 21 0 40-10 51-26l6 23h49m-86-16a24 24 0 110-49 24 24 0 010 49z"/><path id="n1" class="st0" d="M468 29c-3 0-7 0-10 2l-39 18a24 24 0 00-34-18l-48 22h33v110h49V65c0-6 6-12 13-12 6 0 12 6 12 12v98h49V53c0-13-11-24-25-24"/><path id="o" class="st0" d="M652 98a69 69 0 11-139 0 69 69 0 01139 0m-66-48a15 15 0 10-30 8l24 88c2 8 10 13 18 11 9-2 14-11 11-19l-23-88z"/><path id="n2" class="st0" d="M776 29c-4 0-8 0-11 2l-39 18a24 24 0 00-34-18l-48 22h34v110h49V65c0-6 5-12 12-12s12 6 12 12v98h49V53c0-13-11-24-24-24"/></svg>