<svg xmlns="http://www.w3.org/2000/svg" width="1024" height="213" viewBox="-0.82 -0.82 139.641 28.984"><path fill="#060807" d="M132.91 11.396v-.304h2.054v.304h-.852v2.233h-.35v-2.233zM137.642 11.343l-.813 2.286h-.329l-.812-2.286h-.008v2.286h-.348v-2.537h.626l.731 2.088h.009l.717-2.088H138v2.537h-.349v-2.286zM97.031 7.375v12.594h8.156v-2.094H99.72v-10.5H97.03zm9.719 0v2.25h2.781v-2.25h-2.781zm16.125 0v12.594h2.594v-4.75l.031-.031 2.656 4.78h3.031L128 14.939l3-3.813h-2.906l-2.594 3.656-.031-.031V7.375h-2.594zm-5.594 3.563c-1.327 0-2.143.54-2.687 1.343l-.031-.062v-1h-2.594v8.75h2.594v-5.282c.035-1.271.774-2 1.593-2 1.291 0 1.547 1.058 1.563 2v5.282h2.625V14.28c0-.296-.049-.865-.188-1.406-.315-1.274-2.004-1.938-2.875-1.938zm-10.469.28v8.75h2.626v-8.75h-2.626zM39.719 7.125c-3.628.306-4.813 3.666-4.813 6.563 0 3.524 1.47 6.53 5.188 6.53 2.459 0 4.609-1.387 4.781-3.5h-1.844c-.208 1.344-1.44 2-2.781 2-2.741 0-3.531-2.43-3.531-5.03 0-2.219.578-5.063 3.687-5.063 1.291 0 2.6.794 2.688 2h1.812c-.188-2.25-1.98-3.431-4.406-3.5-.264-.008-.54-.02-.781 0zm28 1.688l-1.656.53v1.876h-1.5v1.187h1.5v5.531c0 1.172.076 1.207.374 1.625.278.387.739.54 1 .594.4.068.691.063 1.094.063.381 0 .743-.074 1.125-.094v-1.281c-.26.069-.583.125-.844.125-.593 0-1.093-.312-1.093-.938v-5.625h2.031V11.22h-2.031V8.813zM50.25 10.937c-2.775 0-4.063 2.153-4.063 4.72 0 2.581 1.129 4.562 3.938 4.562 2.095 0 3.611-.98 3.875-2.969h-1.75c-.195 1.272-.833 1.781-2.125 1.781-1.691 0-2.308-1.589-2.188-3.125h6.188v-.812c0-2.423-1.257-4.104-3.875-4.156zm9.875 0c-.872 0-2.096.463-2.656 1.563h-.032v-1.281h-1.624v8.75h1.656v-4.75c0-1.71.442-2.101.687-2.344.698-.699 1.625-.656 1.625-.656 1.4 0 2 .8 2 2.25v5.5h1.657v-6.063c0-2.808-2.702-2.969-3.313-2.969zm25.031.157c-1.207 0-2.32.61-2.562 1.812h-.031V11.22h-1.657v8.75h1.656v-4.344c0-1.851.374-2.963 2.47-3.031.226 0 .459.007.687.094v-1.563c-.19 0-.354-.031-.563-.031zm-14 .125v5.844c0 1.763 1.043 3.156 2.875 3.156 1.221 0 2.336-.436 3-1.532h.031v1.282h1.626v-8.75H77.03v4.5c0 .212-.03 1.244-.344 2.062-.351.908-1.257 1.25-1.937 1.25-1.59 0-1.938-1.104-1.938-2.625V11.22h-1.656zm15.469 0l3.656 8.719-1.344 3.375h1.688l5.156-12.094H94l-2.781 6.906-2.75-6.906h-1.844zm-36.5.937c1.605 0 2.284 1.125 2.25 2.594h-4.438c0-1.434.809-2.594 2.188-2.594z"/><path d="M14.906 0v9.063l4.531-7.844A13.573 13.573 0 0014.907 0zM5.75 2.438A13.766 13.766 0 002.437 5.75l7.844 4.531L5.75 2.437zm15.813 0l-4.5 7.843 7.843-4.531a13.896 13.896 0 00-3.343-3.313zM10.28 17.03l-7.844 4.532a13.932 13.932 0 003.313 3.343l4.531-7.875zm6.75 0l4.532 7.875a14.044 14.044 0 003.343-3.343l-7.875-4.532zm-4.593 1.25l-4.532 7.844a13.664 13.664 0 004.532 1.219V18.28z" fill="#8dc643"/><path d="M12.438 0a13.568 13.568 0 00-4.532 1.219l4.532 7.843V0zM1.217 7.906A13.697 13.697 0 000 12.438h9.063L1.218 7.905zm24.907 0l-7.844 4.532h9.063a13.72 13.72 0 00-1.219-4.532zM0 14.906a13.712 13.712 0 001.219 4.531l7.843-4.53H0zm18.281 0l7.844 4.531a13.616 13.616 0 001.219-4.53H18.28zm-3.375 3.375v9.063a13.633 13.633 0 004.531-1.219l-4.53-7.844zM23.254.302V0h2.049v.302h-.849v2.233h-.35V.302zM27.984.251l-.811 2.284h-.329L26.032.251h-.008v2.284h-.352V0h.63l.73 2.089h.008L27.757 0h.587v2.535h-.35V.251z" fill="#118745"/></svg>