<svg version="1.1" id="Layer_1" xmlns="http://www.w3.org/2000/svg" x="0" y="0" viewBox="0 0 192 192" xml:space="preserve"><style>.st0{fill:#0e4bff}.st1{fill:#fff}</style><path transform="rotate(-.573 95.388 55.275) scale(.99995)" class="st0" d="M49.8 51.5H141v7.6H49.8z"/><path transform="rotate(-.573 96.606 136.7) scale(.99995)" class="st0" d="M51 132.9h91.2v7.6H51z"/><path class="st0" d="M71.4 67.4l.6 58.2 7.6-.1-.5-42.1 20.9 16.9-.1-9.8zM112.7 67l.6 58.2 7.5-.1-.4-42.1 20.8 16.9-.1-9.9zM-315 0h180v179h-180z"/><g><path transform="rotate(-.573 -225.587 49.297) scale(.99995)" class="st1" d="M-271.2 45.5h91.2v7.6h-91.2z"/><path transform="rotate(-.573 -224.38 130.722) scale(.99995)" class="st1" d="M-270 126.9h91.2v7.6H-270z"/><path class="st1" d="M-249.6 61.4l.6 58.2 7.6-.1-.5-42.1 20.9 16.9-.1-9.8zM-208.3 61l.6 58.2 7.5-.1-.4-42.1 20.8 16.9-.1-9.9z"/></g></svg>