<svg version="1.1" id="Layer_1" xmlns="http://www.w3.org/2000/svg" x="0" y="0" viewBox="0 0 360 718" xml:space="preserve"><style>.st2{fill:#fff}.st3{fill:#f2f2f2}</style><path fill="#deffe2" d="M17.7 16.3h325.8v672.4H17.7z"/><g id="XMLID_52_"><path id="XMLID_158_" d="M306.6 19h-28.5c-6.1 0-8.3-.8-8.7 6.9-.2 4-1.7 7-4 9.5-2.4 2.5-5.6 4.7-9.3 5.8-2.5.8-5.3 1.7-8 1.7H116.5c-2.7 0-5.5-1-8-1.8-3.7-1.2-7-3.3-9.3-5.8-2.4-2.6-3.8-5.5-4-9.5-.4-7.7-2.6-7-8.7-7H57.7C40.2 19 25 31.4 25 48.8v613.3c0 17.5 15.2 32.9 32.6 32.9h249c17.5 0 30.4-15.4 30.4-32.9V48.8c0-17.4-12.9-29.8-30.4-29.8z" fill="none"/><path id="XMLID_156_" class="st2" d="M356 163V50.6C356 21.8 333.6 0 304.8 0H56C27.2 0 3 21.9 3 50.6V94H0v27h3v25H0v51h3v15H0v51h3v401.4C3 693.2 27.3 718 56 718h248.8c28.8 0 51.2-24.8 51.2-53.6V246h4v-83h-4zM222.3 22.5c0 2.4-2 4.4-4.4 4.4s-4.4-2-4.4-4.4 2-4.4 4.4-4.4 4.4 2 4.4 4.4zm-59.5-.5h39c1.7 0 3 1 3 2.5s-1.3 2.5-3 2.5h-39c-1.7 0-3-1-3-2.5s1.3-2.5 3-2.5zM337 662.1c0 17.5-12.9 32.9-30.4 32.9h-249C40.1 695 25 679.6 25 662.1V48.8C25 31.4 40.2 19 57.6 19h28.8c6.1 0 8.3-.9 8.7 6.8.2 4 1.7 7 4 9.6 2.4 2.5 5.6 4.8 9.3 5.9 2.5.8 5.3 1.7 8 1.7h131.5c2.7 0 5.5-1.1 8-1.9 3.7-1.2 7-3.2 9.3-5.7 2.4-2.5 3.8-5.4 4-9.4.4-7.7 2.6-7.1 8.7-7.1h28.5c17.5 0 30.4 12.4 30.4 29.8v613.4h.2z"/><path id="XMLID_159_" class="st3" d="M201.8 22h-39c-1.7 0-3 1-3 2.5s1.3 2.5 3 2.5h39c1.7 0 3-1 3-2.5s-1.4-2.5-3-2.5z"/><circle id="XMLID_51_" class="st3" cx="217.9" cy="22.5" r="4.4"/></g><path d="M66.9 173.9c-4.2 0-7.4-.9-9.4-2.6-2-1.8-3-4-3-6.9 0-1.5.4-2.7 1.3-3.5.8-.9 1.9-1.3 3.3-1.3.2 3.3 1 6 2.5 8 1.4 2.1 3.4 3.1 5.8 3.1 2.3 0 4.1-.8 5.4-2.3 1.3-1.5 1.9-3.7 1.9-6.4 0-2-.3-3.6-1-4.9-.7-1.3-1.7-2.5-3-3.6-1.4-1.1-3.1-2.2-5.1-3.3-3.3-1.9-5.7-3.9-7.3-6.2-1.6-2.3-2.4-5.3-2.4-9.2 0-2.5.5-4.6 1.6-6.5 1.1-1.8 2.6-3.3 4.4-4.3 1.9-1 3.9-1.5 6.2-1.5 2.3 0 4.3.4 5.9 1.2 1.6.8 2.8 1.8 3.7 3 .8 1.2 1.3 2.5 1.3 3.7 0 1.5-.4 2.6-1.2 3.3-.8.7-2 1-3.6 1 0-2.3-.5-4.4-1.6-6.2-1.1-1.8-2.8-2.7-5-2.7-2.1 0-3.6.7-4.7 2.2-1.1 1.5-1.6 3.5-1.6 6 0 1.7.3 3.1.8 4.3.5 1.2 1.4 2.3 2.7 3.4 1.3 1 3 2.2 5.2 3.3 3.4 1.9 6 3.9 7.7 6.1 1.8 2.2 2.6 5.2 2.6 8.9 0 4.4-1.2 7.8-3.7 10.2s-5.8 3.7-9.7 3.7zM98.6 173.9c-4.2 0-7.5-1.7-9.8-5-2.3-3.4-3.4-8.1-3.4-14.1 0-6.6 1.1-11.5 3.3-14.8 2.2-3.3 5.3-4.9 9.3-4.9 3.7 0 6.6 1.4 8.7 4.3 2.1 2.9 3.2 7.1 3.2 12.6v2.8H91.5c0 5.2.8 9.1 2.2 11.6 1.4 2.5 3.5 3.7 6.1 3.7 1.9 0 3.5-.5 4.8-1.6 1.3-1.1 2.2-2.4 2.9-3.9.4.2.7.5 1 .8.3.4.4.9.4 1.5 0 1-.4 2-1.1 3.1-.7 1.1-1.8 2-3.4 2.8-1.5.7-3.4 1.1-5.8 1.1zm-7-22.6h12.3c0-3.8-.5-6.9-1.4-9.3-.9-2.4-2.3-3.5-4.4-3.5-2.1 0-3.7 1.1-4.8 3.3-1 2.2-1.6 5.4-1.7 9.5zM113.4 173.2v-2.9h.7c1.4 0 2.4-.3 3.2-.9s1.2-2 1.2-4.2v-37.5c0-2.1-.5-3.4-1.4-3.9-.9-.6-1.9-.8-3-.8h-.7v-3h11.1v45.2c0 2.2.4 3.6 1.2 4.2.8.6 1.9.9 3.2.9h.6v2.9h-16.1zM131.7 173.2v-2.9h.8c.7 0 1.5-.1 2.1-.4.7-.2 1.2-.7 1.6-1.4.4-.7.6-1.8.6-3.3V139h-5v-3.4h5V132c0-4.2.9-7.3 2.7-9.5 1.8-2.2 4.4-3.3 7.9-3.3 2.8 0 4.7.5 5.8 1.4 1.1.9 1.7 2.1 1.7 3.4 0 1.2-.4 2.1-1.2 2.9-.8.7-1.9 1.1-3.5 1.1 0-1.4-.2-2.8-.6-4s-1.3-1.8-2.7-1.8c-1.4 0-2.5.8-3.1 2.4-.6 1.6-.9 3.8-.9 6.7v4.2h7.8v3.4H143v26.2c0 2.2.4 3.6 1.3 4.2.9.6 1.9.9 3.1.9h2.2v2.9h-17.9zM152.7 156.7v-5.1h14.4v5.1h-14.4zM54 243.2v-2.9h1.3c1.2 0 2.1-.3 2.8-.9.7-.6 1.1-2 1.1-4v-34.5c0-2-.4-3.3-1.2-3.9-.8-.6-1.8-.9-3-.9h-1v-2.9h17.3c5.8 0 10.4 2.2 13.6 6.6 3.2 4.4 4.9 10.5 4.9 18.5 0 5.1-.7 9.6-2.1 13.3-1.4 3.7-3.4 6.6-6.2 8.6-2.7 2-6.1 3-10.3 3H54zm11.6-3.5H70c4.2 0 7.4-1.8 9.6-5.5 2.1-3.7 3.2-9 3.2-15.9 0-7-1.1-12.4-3.2-16.1-2.1-3.7-5.3-5.6-9.5-5.6h-4.4v43.1zM109 243.9c-4.2 0-7.5-1.7-9.8-5-2.3-3.4-3.4-8.1-3.4-14.1 0-6.6 1.1-11.5 3.3-14.8 2.2-3.3 5.3-4.9 9.3-4.9 3.7 0 6.6 1.4 8.7 4.3 2.1 2.9 3.2 7.1 3.2 12.6v2.8H102c0 5.2.8 9.1 2.2 11.6 1.4 2.5 3.5 3.7 6.1 3.7 1.9 0 3.5-.5 4.8-1.6 1.3-1.1 2.2-2.4 2.9-3.9.4.2.7.5 1 .8.3.4.4.9.4 1.5 0 1-.4 2-1.1 3.1-.7 1.1-1.8 2-3.4 2.8-1.5.7-3.5 1.1-5.9 1.1zm-7-22.6h12.3c0-3.8-.5-6.9-1.4-9.3-.9-2.4-2.3-3.5-4.4-3.5-2.1 0-3.7 1.1-4.8 3.3-1 2.2-1.6 5.4-1.7 9.5zM124.4 243.2v-2.9h.8c.7 0 1.5-.1 2.1-.4.7-.2 1.2-.7 1.6-1.4.4-.7.6-1.8.6-3.3V209h-5v-3.4h5V203c0-2.7.5-5 1.4-7.1.9-2.1 2.4-3.8 4.4-5 2-1.2 4.6-1.8 7.9-1.8 4.2 0 7.1.6 8.8 1.8 1.7 1.2 2.5 2.5 2.5 4.1 0 2.8-1.8 4.1-5.4 4.1 0-1.1-.2-2.2-.6-3.3-.4-1-1-1.9-1.9-2.6-.9-.7-2.2-1-3.8-1-2 0-3.5.6-4.5 1.9-1 1.2-1.7 2.8-2.1 4.6-.4 1.8-.6 3.7-.6 5.6v1.5h19.5v29.5c0 2.2.4 3.6 1.2 4.2.8.6 1.8.9 3.1.9h.7v2.9h-15.7v-2.9h.6c1.3 0 2.3-.3 3-.9.7-.6 1-1.9 1-4V209h-13.4v26.2c0 2.2.4 3.6 1.3 4.2.9.6 1.9.9 3.1.9h.9v2.9h-16.5zM162.5 243.2v-2.9h.5c1.3 0 2.3-.3 3.1-.9.8-.6 1.3-2 1.3-4.2v-22c0-2.1-.4-3.4-1.3-3.9s-1.8-.8-3-.8h-.3v-2.9h9.7l.7 5.7h.3c.9-2.4 2.1-4 3.5-5s3.1-1.4 5.1-1.4c2.9 0 5.2 1.1 6.8 3.3 1.6 2.2 2.4 5.7 2.4 10.5v16.5c0 2.2.4 3.6 1.1 4.2.7.6 1.7.9 2.9.9h.3v2.9h-10.4v-24.3c0-3-.4-5.3-1.2-7.1-.8-1.7-2.2-2.6-4.1-2.6-1.6 0-2.9.5-3.9 1.6s-1.6 2.5-2 4.3c-.4 1.8-.6 3.6-.6 5.6v14.9c0 2.1.4 3.4 1.2 3.9.8.5 1.8.8 3 .8h.4v2.9h-15.5zM213.3 243.9c-4.2 0-7.5-1.7-9.8-5-2.3-3.4-3.4-8.1-3.4-14.1 0-6.6 1.1-11.5 3.3-14.8 2.2-3.3 5.3-4.9 9.3-4.9 3.7 0 6.6 1.4 8.7 4.3 2.1 2.9 3.2 7.1 3.2 12.6v2.8h-18.4c0 5.2.8 9.1 2.2 11.6 1.4 2.5 3.5 3.7 6.1 3.7 1.9 0 3.5-.5 4.8-1.6 1.3-1.1 2.2-2.4 2.9-3.9.4.2.7.5 1 .8.3.4.4.9.4 1.5 0 1-.4 2-1.1 3.1-.7 1.1-1.8 2-3.4 2.8-1.5.7-3.4 1.1-5.8 1.1zm-7-22.6h12.3c0-3.8-.5-6.9-1.4-9.3-.9-2.4-2.3-3.5-4.4-3.5-2.1 0-3.7 1.1-4.8 3.3-1 2.2-1.6 5.4-1.7 9.5zM241.3 243.9c-3.5 0-6.3-1.6-8.2-4.7-1.9-3.1-2.9-8-2.9-14.7 0-6.8 1-11.7 2.9-14.8 1.9-3.1 4.7-4.7 8.4-4.7 2.1 0 3.9.6 5.1 1.7 1.3 1.1 2.3 2.6 3.1 4.4h.3c0-1.1-.1-2.2-.1-3.5v-10c0-2.1-.5-3.4-1.4-4-.9-.6-2-.8-3.2-.8h-.4V190h11v45.4c0 2.1.4 3.4 1.2 4 .8.6 1.8.9 3.1.9h.6v2.9h-9.9l-.7-6.4h-.2c-.9 2.2-2 3.9-3.4 5.2-1.3 1.3-3.1 1.9-5.3 1.9zm1.5-3.9c2.5 0 4.3-1.4 5.4-4.2 1.1-2.8 1.6-6.6 1.6-11.3 0-5-.5-8.9-1.5-11.6-1-2.7-2.9-4.1-5.6-4.1-2.3 0-3.9 1.4-4.9 4.1-1 2.7-1.5 6.6-1.5 11.7 0 5.2.5 9.1 1.5 11.6 1 2.6 2.7 3.8 5 3.8z"/><g><path d="M48 349.9v-1.1h.5c.5 0 .9-.1 1.2-.4.3-.3.6-.8.9-1.7l6-16h2.1l6.1 16.7c.2.6.4.9.7 1.1.3.2.7.3 1.2.3h.4v1.1h-7.4v-1.1h.6c1.1 0 1.6-.4 1.6-1.3 0-.1 0-.3-.1-.5s-.1-.3-.2-.5l-1.1-3h-7.1l-1 2.8c-.2.4-.2.8-.2 1.2 0 .9.6 1.3 1.8 1.3h.6v1.1H48zm6-7.8h6.1l-1.7-4.7c-.3-.8-.5-1.5-.8-2.2-.2-.7-.4-1.4-.6-2-.1.6-.3 1.3-.5 1.9-.2.6-.5 1.3-.8 2.2l-1.7 4.8zM74.9 349.9v-1.1h.4c.6 0 1.1-.1 1.5-.3.4-.2.6-.8.6-1.6v-8.4c0-.8-.2-1.3-.6-1.5-.4-.2-.9-.3-1.5-.3h-.1v-1.1h4.2l.4 2.2h.1c.5-1 1.1-1.7 1.8-2 .7-.3 1.4-.5 2.3-.5.9 0 1.6.2 2.3.6.7.4 1.2 1 1.6 1.9h.2c.5-1 1.2-1.7 1.9-2 .7-.3 1.5-.5 2.3-.5 1.4 0 2.4.4 3.2 1.3.8.8 1.2 2.2 1.2 4v6.4c0 .8.2 1.4.6 1.6.4.2.9.3 1.5.3h.1v1.1h-4.7v-9.3c0-1.2-.2-2.1-.6-2.7s-1.2-1-2.2-1c-.8 0-1.4.2-1.8.6-.4.4-.7.9-.9 1.5-.2.6-.3 1.3-.3 2v5.9c0 .8.2 1.4.6 1.6.4.2.9.3 1.5.3h.1v1.1h-4.7v-9.3c0-1.2-.2-2.1-.6-2.7-.4-.6-1.2-1-2.2-1-.8 0-1.4.2-1.9.6-.5.4-.8.9-1 1.6-.2.7-.3 1.4-.3 2.2v5.7c0 .8.2 1.3.7 1.5.4.2 1 .3 1.6.3h.1v1.1h-7.4zM107.4 350.2c-1.9 0-3.5-.6-4.6-1.9-1.1-1.2-1.7-3.1-1.7-5.7 0-2.5.5-4.4 1.6-5.6 1.1-1.2 2.7-1.8 4.7-1.8 1.9 0 3.5.6 4.6 1.8 1.1 1.2 1.7 3.1 1.7 5.6 0 2.5-.5 4.4-1.6 5.7s-2.7 1.9-4.7 1.9zm0-1.4c1.3 0 2.3-.5 2.8-1.6.5-1 .8-2.6.8-4.6s-.3-3.5-.8-4.5c-.6-1-1.5-1.5-2.9-1.5s-2.3.5-2.8 1.5-.8 2.5-.8 4.5.3 3.5.8 4.6c.6 1.1 1.6 1.6 2.9 1.6zM122.2 350.2c-1.8 0-3.1-.6-4.1-1.8-.9-1.2-1.4-3.1-1.4-5.7s.5-4.5 1.4-5.7c.9-1.2 2.3-1.8 4.1-1.8 1 0 1.9.2 2.6.7.7.4 1.2 1 1.6 1.7h.2c-.1-.4-.1-.9-.1-1.5v-3.7c0-.8-.2-1.3-.7-1.5-.4-.2-1-.3-1.6-.3h-.2v-1.1h5V347c0 .8.2 1.3.7 1.5.4.2 1 .3 1.6.3h.2v1.1h-4.6l-.3-2.4h-.1c-.4.8-.9 1.5-1.6 2s-1.7.7-2.7.7zm.4-1.7c1.4 0 2.4-.5 2.9-1.4.5-.9.8-2.4.8-4.3s-.3-3.3-.8-4.3-1.5-1.5-2.9-1.5c-1.2 0-2 .5-2.6 1.5s-.8 2.4-.8 4.3.3 3.3.8 4.3 1.4 1.4 2.6 1.4zM139.5 350.2c-2 0-3.5-.6-4.6-1.9s-1.7-3.1-1.7-5.5c0-2.5.5-4.4 1.6-5.7 1-1.3 2.5-1.9 4.4-1.9 1.7 0 3.1.5 4.1 1.6s1.5 2.7 1.5 4.8v1.2h-9c0 2 .4 3.4 1.1 4.3.7.9 1.7 1.3 3 1.3.9 0 1.7-.2 2.4-.6.7-.4 1.1-.8 1.5-1.3.1.1.2.2.4.3s.2.4.2.6c0 .4-.2.7-.5 1.2s-.9.8-1.6 1.1c-.8.3-1.7.5-2.8.5zm-3.6-8.8h6.2c0-1.4-.2-2.6-.7-3.5-.4-.9-1.2-1.3-2.3-1.3-1 0-1.8.4-2.3 1.2-.5.9-.8 2.1-.9 3.6zM147.1 349.9v-1.1h.1c.6 0 1.1-.1 1.6-.3.4-.2.6-.8.6-1.6v-8.4c0-.8-.2-1.3-.7-1.5-.4-.2-1-.3-1.6-.3h-.1v-1.1h4.2l.5 2.7h.1c.2-.5.5-1 .8-1.5.3-.4.6-.8 1.1-1.1.4-.3 1.1-.4 1.9-.4 1 0 1.7.2 2.2.5.5.3.7.8.7 1.5 0 .6-.2 1-.6 1.4-.4.4-1 .5-1.9.5 0-.7-.1-1.3-.3-1.6-.2-.3-.6-.5-1.1-.5-.5 0-.9.2-1.3.6-.3.4-.6.9-.8 1.5-.2.6-.3 1.2-.4 1.9-.1.7-.1 1.2-.1 1.8v4.2c0 .8.2 1.3.7 1.5.4.2 1 .3 1.6.3h.8v1.1h-8zM159.7 349.9v-1.1h.2c.6 0 1.1-.1 1.6-.3.4-.2.6-.8.6-1.6v-8.4c0-.8-.2-1.3-.6-1.5-.4-.2-.9-.3-1.5-.3h-.1v-1.1h4.4l.4 2.2h.1c.6-1 1.2-1.7 1.9-2 .7-.3 1.5-.5 2.3-.5 1.4 0 2.5.4 3.3 1.3s1.2 2.2 1.2 4v6.4c0 .8.2 1.4.6 1.6.4.2.9.3 1.5.3h.1v1.1H171v-9.3c0-1.2-.2-2.1-.7-2.7s-1.2-1-2.3-1c-.8 0-1.5.2-1.9.6-.5.4-.8.9-1 1.6-.2.7-.3 1.4-.3 2.2v5.7c0 .8.2 1.3.6 1.5s.9.3 1.5.3h.1v1.1h-7.3zM190.4 350.2c-1.8 0-3.1-.6-4.1-1.8-.9-1.2-1.4-3.1-1.4-5.7s.5-4.5 1.4-5.7c.9-1.2 2.3-1.8 4.1-1.8 1 0 1.9.2 2.6.7.7.4 1.2 1 1.6 1.7h.2c-.1-.4-.1-.9-.1-1.5v-3.7c0-.8-.2-1.3-.7-1.5-.4-.2-1-.3-1.6-.3h-.2v-1.1h5V347c0 .8.2 1.3.7 1.5.4.2 1 .3 1.6.3h.2v1.1h-4.6l-.3-2.4h-.1c-.4.8-.9 1.5-1.6 2-.8.5-1.7.7-2.7.7zm.4-1.7c1.4 0 2.4-.5 2.9-1.4.5-.9.8-2.4.8-4.3s-.3-3.3-.8-4.3-1.5-1.5-2.9-1.5c-1.2 0-2 .5-2.6 1.5-.5 1-.8 2.4-.8 4.3s.3 3.3.8 4.3c.5.9 1.4 1.4 2.6 1.4zM200.6 349.9v-1.1h.4c.6 0 1.1-.1 1.6-.3s.7-.7.7-1.5v-8.6c0-.8-.2-1.3-.7-1.5-.4-.2-1-.3-1.6-.3h-.1v-1.1h4.8v11.4c0 .8.2 1.4.6 1.6.4.2 1 .3 1.6.3h.4v1.1h-7.7zm3.7-17.1c-.4 0-.8-.1-1.1-.4s-.4-.7-.4-1.3c0-.6.1-1.1.4-1.3s.7-.4 1.1-.4c.4 0 .8.1 1.1.4.3.2.5.7.5 1.3 0 .6-.2 1-.5 1.3-.3.2-.7.4-1.1.4zM216.2 350.2c-1.2 0-2.3-.3-3.2-.8-.9-.5-1.6-1.3-2.2-2.4-.5-1.1-.8-2.5-.8-4.3 0-1.9.3-3.4.8-4.5s1.2-1.9 2.1-2.3c.9-.5 1.9-.7 3.1-.7.8 0 1.5.1 2.2.3.7.2 1.3.5 1.8.9s.7.9.7 1.5-.2 1-.6 1.3c-.4.3-1 .4-1.8.4 0-.8-.2-1.6-.5-2.2-.3-.6-.9-.9-1.8-.9-.7 0-1.3.2-1.8.5-.5.4-.9 1-1.2 1.9s-.4 2.2-.4 3.8c0 1.9.3 3.3 1 4.3s1.7 1.4 3.1 1.4c.8 0 1.6-.2 2.2-.5.6-.4 1.1-.8 1.4-1.4.3.3.5.6.5 1.1 0 .4-.2.8-.5 1.2-.3.4-.8.7-1.5 1-.7.3-1.6.4-2.6.4zM228.3 350.2c-1.4 0-2.4-.3-3-.9-.6-.6-.9-1.7-.9-3.3v-9h-2.1v-1.1c.3 0 .7-.1 1.1-.2.4-.1.7-.4 1-.7.3-.3.6-.7.8-1.2.2-.5.4-1 .5-1.7h1.2v3.3h3.5v1.5H227v9.1c0 .9.2 1.6.6 2 .4.4.9.6 1.5.6.3 0 .6 0 .9-.1.3 0 .5-.1.8-.1v1.2c-.2.1-.6.2-1.1.3-.5.2-.9.3-1.4.3zM232 349.9v-1.1h.4c.6 0 1.1-.1 1.6-.3s.7-.7.7-1.5v-8.6c0-.8-.2-1.3-.7-1.5-.4-.2-1-.3-1.6-.3h-.1v-1.1h4.8v11.4c0 .8.2 1.4.6 1.6.4.2 1 .3 1.6.3h.4v1.1H232zm3.7-17.1c-.4 0-.8-.1-1.1-.4-.3-.3-.4-.7-.4-1.3 0-.6.1-1.1.4-1.3.3-.2.7-.4 1.1-.4.4 0 .8.1 1.1.4s.5.7.5 1.3c0 .6-.2 1-.5 1.3s-.7.4-1.1.4zM247.8 350.2c-1.9 0-3.5-.6-4.6-1.9-1.1-1.2-1.7-3.1-1.7-5.7 0-2.5.5-4.4 1.6-5.6 1.1-1.2 2.7-1.8 4.7-1.8 1.9 0 3.5.6 4.6 1.8 1.1 1.2 1.7 3.1 1.7 5.6 0 2.5-.5 4.4-1.6 5.7s-2.7 1.9-4.7 1.9zm0-1.4c1.4 0 2.3-.5 2.8-1.6s.8-2.6.8-4.6-.3-3.5-.8-4.5-1.5-1.5-2.9-1.5-2.3.5-2.8 1.5-.8 2.5-.8 4.5.3 3.5.8 4.6c.6 1.1 1.6 1.6 2.9 1.6zM256.3 349.9v-1.1h.2c.6 0 1.1-.1 1.6-.3.4-.2.6-.8.6-1.6v-8.4c0-.8-.2-1.3-.6-1.5-.4-.2-.9-.3-1.5-.3h-.1v-1.1h4.4l.4 2.2h.1c.6-1 1.2-1.7 1.9-2 .7-.3 1.5-.5 2.3-.5 1.4 0 2.5.4 3.3 1.3.8.8 1.2 2.2 1.2 4v6.4c0 .8.2 1.4.6 1.6.4.2.9.3 1.5.3h.1v1.1h-4.7v-9.3c0-1.2-.2-2.1-.7-2.7-.4-.6-1.2-1-2.3-1-.8 0-1.5.2-1.9.6-.5.4-.8.9-1 1.6s-.3 1.4-.3 2.2v5.7c0 .8.2 1.3.6 1.5s.9.3 1.5.3h.1v1.1h-7.3zM278.5 350.2c-1.2 0-2.2-.4-3-1.1s-1.2-1.8-1.2-3.3c0-1.4.5-2.5 1.5-3.2 1-.7 2.6-1.1 4.6-1.1l2.2-.1v-1.6c0-.6-.1-1.2-.2-1.7s-.3-.9-.7-1.2-.9-.4-1.6-.4c-.7 0-1.2.1-1.6.4s-.6.6-.7 1.1-.2 1-.2 1.5c-.8 0-1.3-.1-1.7-.4-.4-.3-.6-.7-.6-1.3 0-.6.2-1.1.7-1.5.4-.4 1-.7 1.8-.8.7-.2 1.5-.3 2.4-.3 1.7 0 2.9.4 3.7 1.1.8.7 1.2 1.9 1.2 3.6v7c0 .8.1 1.3.4 1.5.3.3.7.4 1.3.4h.1v1.1h-3.6l-.4-2.3h-.2c-.4.5-.7 1-1.1 1.3s-.8.7-1.3.9-1 .4-1.8.4zm.7-1.7c1.1 0 2-.3 2.6-1 .6-.7 1-1.6 1-2.7v-2.2l-1.7.1c-1.5.1-2.6.4-3.2.9s-.9 1.4-.9 2.4c0 1.7.7 2.5 2.2 2.5zM289.1 349.9v-1.1h.1c.6 0 1.1-.1 1.6-.3.4-.2.6-.8.6-1.6v-8.4c0-.8-.2-1.3-.7-1.5-.4-.2-1-.3-1.6-.3h-.1v-1.1h4.2l.5 2.7h.1c.2-.5.5-1 .8-1.5.3-.4.6-.8 1.1-1.1.4-.3 1.1-.4 1.9-.4 1 0 1.7.2 2.2.5.5.3.7.8.7 1.5 0 .6-.2 1-.6 1.4-.4.4-1 .5-1.9.5 0-.7-.1-1.3-.3-1.6-.2-.3-.6-.5-1.1-.5-.5 0-.9.2-1.3.6-.3.4-.6.9-.8 1.5-.2.6-.3 1.2-.4 1.9-.1.7-.1 1.2-.1 1.8v4.2c0 .8.2 1.3.7 1.5.4.2 1 .3 1.6.3h.8v1.1h-8zM301.9 356.4v-1.3c1.2 0 2.2-.2 3-.7.8-.5 1.4-1.1 1.9-1.9.5-.8.9-1.7 1.2-2.7l-5-11.8c-.3-.6-.5-.9-.8-1.1s-.6-.3-1.2-.3v-1.1h6.5v1.1h-.1c-1.1 0-1.6.4-1.6 1.3 0 .3.1.6.2 1l2 4.8c.2.4.4.9.5 1.4s.3 1 .5 1.4c.1.5.2.8.3 1.1.1-.5.3-1 .5-1.6.2-.6.4-1.1.6-1.7l1.8-5.3c.2-.4.2-.8.2-1.2 0-.9-.6-1.3-1.8-1.3h-.1v-1.1h5.6v1.1h-.1c-.5 0-.9.1-1.2.4-.3.3-.6.8-.9 1.7l-4.1 11.3c-.5 1.3-.9 2.4-1.3 3.2-.4.8-.9 1.5-1.4 1.9-.5.5-1.2.8-2 1-.8.2-1.8.3-3 .3h-.2zM53.6 382.6c-1.2 0-2.2-.4-3-1.1-.8-.7-1.2-1.8-1.2-3.3 0-1.4.5-2.5 1.5-3.2 1-.7 2.6-1.1 4.6-1.1l2.2-.1v-1.6c0-.6-.1-1.2-.2-1.7s-.3-.9-.7-1.2-.9-.4-1.6-.4c-.7 0-1.2.1-1.6.4-.4.3-.6.6-.7 1.1-.1.5-.2 1-.2 1.5-.8 0-1.3-.1-1.7-.4-.4-.3-.6-.7-.6-1.3 0-.6.2-1.1.7-1.5.4-.4 1-.7 1.8-.8s1.5-.3 2.4-.3c1.7 0 2.9.4 3.7 1.1.8.7 1.2 1.9 1.2 3.6v7c0 .8.1 1.3.4 1.5.3.3.7.4 1.3.4h.1v1.1h-3.6L58 380h-.2c-.4.5-.7 1-1.1 1.3-.4.4-.8.7-1.3.9-.5.3-1.1.4-1.8.4zm.6-1.7c1.1 0 2-.3 2.6-1 .6-.7 1-1.6 1-2.7V375l-1.7.1c-1.5.1-2.6.4-3.2.9-.6.5-.9 1.4-.9 2.4 0 1.7.7 2.5 2.2 2.5zM72.8 382.6c-1 0-1.9-.2-2.6-.7-.7-.4-1.2-1-1.6-1.7h-.2l-.5 2.1h-4.3v-1.1h.2c.6 0 1.1-.1 1.6-.3.4-.2.6-.8.6-1.6v-14.5c0-.8-.2-1.3-.7-1.5-.4-.2-1-.3-1.6-.3h-.2v-1.1h5v7.6c0 .4 0 .8-.1 1h.1c.4-.8.9-1.5 1.6-2 .6-.5 1.5-.7 2.6-.7 1.8 0 3.1.6 4.1 1.8.9 1.2 1.4 3.1 1.4 5.7s-.5 4.5-1.4 5.7c-.8 1-2.2 1.6-4 1.6zm-.4-1.7c1.2 0 2-.5 2.6-1.5.5-1 .8-2.4.8-4.3s-.3-3.3-.8-4.3-1.4-1.4-2.6-1.4c-1.4 0-2.4.5-2.9 1.4-.5.9-.8 2.4-.8 4.3s.3 3.3.8 4.3 1.5 1.5 2.9 1.5zM87.6 382.6c-1.9 0-3.5-.6-4.6-1.9-1.1-1.2-1.7-3.1-1.7-5.7 0-2.5.5-4.4 1.6-5.6 1.1-1.2 2.7-1.8 4.7-1.8 1.9 0 3.5.6 4.6 1.8 1.1 1.2 1.7 3.1 1.7 5.6 0 2.5-.5 4.4-1.6 5.7s-2.7 1.9-4.7 1.9zm0-1.4c1.3 0 2.3-.5 2.8-1.6.5-1 .8-2.6.8-4.6s-.3-3.5-.8-4.5c-.6-1-1.5-1.5-2.9-1.5s-2.3.5-2.8 1.5-.8 2.5-.8 4.5.3 3.5.8 4.6c.6 1.1 1.6 1.6 2.9 1.6zM102.8 382.6c-1.4 0-2.5-.4-3.3-1.3-.8-.8-1.2-2.2-1.2-4v-6.5c0-.8-.2-1.3-.7-1.5-.4-.2-1-.3-1.6-.3v-1.1h4.8v9.3c0 1.2.2 2.1.6 2.7.4.6 1.1 1 2.2 1 1.2 0 2.1-.4 2.6-1.2s.8-1.9.8-3.2v-5.6c0-.8-.2-1.4-.6-1.6-.4-.2-1-.3-1.6-.3h-.1v-1.1h4.8v11.5c0 .8.2 1.3.7 1.5.4.2 1 .3 1.6.3h.1v1.1h-4.3l-.4-2.2h-.1c-.6 1-1.2 1.7-1.9 2-.7.3-1.5.5-2.4.5zM119 382.6c-1.4 0-2.4-.3-3-.9s-.9-1.7-.9-3.3v-9H113v-1.1c.3 0 .7-.1 1.1-.2.4-.1.7-.4 1-.7.3-.3.6-.7.8-1.2.2-.5.4-1 .5-1.7h1.2v3.3h3.5v1.5h-3.5v9.1c0 .9.2 1.6.6 2 .4.4.9.6 1.5.6.3 0 .6 0 .9-.1s.5-.1.8-.1v1.2c-.2.1-.6.2-1.1.3-.4.3-.8.3-1.3.3zM136.4 382.6c-1.4 0-2.5-.4-3.3-1.3-.8-.8-1.2-2.2-1.2-4v-6.5c0-.8-.2-1.3-.7-1.5-.4-.2-1-.3-1.6-.3h-.1v-1.1h4.8v9.3c0 1.2.2 2.1.6 2.7.4.6 1.1 1 2.2 1 1.2 0 2.1-.4 2.6-1.2s.8-1.9.8-3.2v-5.6c0-.8-.2-1.4-.6-1.6-.4-.2-1-.3-1.6-.3h-.1v-1.1h4.8v11.5c0 .8.2 1.3.7 1.5.4.2 1 .3 1.6.3h.1v1.1h-4.3l-.4-2.2h-.1c-.6 1-1.2 1.7-1.9 2-.6.3-1.4.5-2.3.5zM151.9 382.6c-1.4 0-2.4-.2-3.2-.7s-1.2-1.2-1.2-2.1c0-.5.1-.9.3-1.1.2-.3.4-.5.7-.6s.5-.2.7-.2c0 1 .2 1.8.6 2.4.4.7 1.2 1 2.3 1 1 0 1.7-.2 2.2-.7.5-.4.8-1 .8-1.8 0-.4-.1-.8-.3-1.1s-.5-.6-1-.9c-.5-.3-1.2-.6-2-1-.9-.4-1.7-.8-2.3-1.2-.6-.4-1.1-.8-1.4-1.3s-.4-1.2-.4-1.9c0-1.2.5-2.2 1.4-2.8.9-.7 2.2-1 3.7-1 1.3 0 2.3.2 2.9.7s1 1.1 1 1.7c0 .5-.2.9-.5 1.2-.3.3-.8.4-1.4.4 0-.9-.2-1.6-.6-2.1s-1-.8-1.8-.8c-.9 0-1.6.2-2 .6-.4.4-.6.9-.6 1.6 0 .7.3 1.2.8 1.6.5.4 1.4.8 2.6 1.3 1 .4 1.7.8 2.3 1.2.6.4 1 .9 1.3 1.4.3.5.4 1.2.4 1.9 0 1.4-.5 2.5-1.5 3.2-1 .7-2.2 1.1-3.8 1.1zM161.8 382.5c-.5 0-.9-.1-1.2-.4-.3-.3-.5-.7-.5-1.4s.2-1.2.5-1.4c.3-.3.7-.4 1.2-.4.4 0 .8.1 1.2.4.3.3.5.7.5 1.4s-.2 1.2-.5 1.4c-.4.3-.8.4-1.2.4zM179.6 382.3l-4.9-16.7c-.2-.6-.4-.9-.7-1.1-.3-.2-.7-.3-1.2-.3h-.4V363h7.4v1.1h-.6c-1.1 0-1.6.4-1.6 1.3 0 .1 0 .3.1.5 0 .2.1.3.1.5l2.5 8.6c.2.8.5 1.6.6 2.4.2.8.4 1.5.5 2.2.1-.7.3-1.5.5-2.3.2-.8.4-1.7.6-2.6l3.2-11.6h1.9l3.4 11.7c.3.9.5 1.8.7 2.6.2.8.4 1.5.5 2.2.1-.6.3-1.3.5-2.1.2-.7.4-1.5.6-2.4l2.4-8.3c.1-.2.1-.5.2-.8.1-.3.1-.5.1-.6 0-.9-.6-1.3-1.8-1.3h-.6V363h6.6v1.1h-.5c-.5 0-.9.1-1.2.4-.3.3-.6.8-.8 1.7l-4.6 16h-2.4l-4.4-15.1-4.1 15.1h-2.6zM206.6 382.6c-2 0-3.5-.6-4.6-1.9-1.1-1.3-1.7-3.1-1.7-5.5 0-2.5.5-4.4 1.6-5.7 1-1.3 2.5-1.9 4.4-1.9 1.7 0 3.1.5 4.1 1.6s1.5 2.7 1.5 4.8v1.2h-9c0 2 .4 3.4 1.1 4.3.7.9 1.7 1.3 3 1.3.9 0 1.7-.2 2.4-.6.7-.4 1.1-.8 1.5-1.3.1.1.2.2.4.3.1.2.2.4.2.6 0 .4-.2.7-.5 1.2s-.9.8-1.6 1.1-1.8.5-2.8.5zm-3.6-8.8h6.2c0-1.4-.2-2.6-.7-3.5s-1.2-1.3-2.3-1.3c-1 0-1.8.4-2.3 1.2-.5.9-.8 2.1-.9 3.6zM227.3 382.6c-1.8 0-3.1-.6-4.1-1.8s-1.4-3.1-1.4-5.7.5-4.5 1.4-5.7 2.3-1.8 4.1-1.8c1 0 1.9.2 2.6.7.7.4 1.2 1 1.6 1.7h.2c-.1-.4-.1-.9-.1-1.5v-3.7c0-.8-.2-1.3-.7-1.5-.4-.2-1-.3-1.6-.3h-.3v-1.1h5v17.5c0 .8.2 1.3.7 1.5s1 .3 1.6.3h.2v1.1h-4.6l-.3-2.4h-.1c-.4.8-.9 1.5-1.6 2-.7.5-1.6.7-2.6.7zm.4-1.7c1.4 0 2.4-.5 2.9-1.4.5-.9.8-2.4.8-4.3s-.3-3.3-.8-4.3-1.5-1.5-2.9-1.5c-1.2 0-2 .5-2.6 1.5-.5 1-.8 2.4-.8 4.3s.3 3.3.8 4.3c.6.9 1.4 1.4 2.6 1.4zM244.6 382.6c-2 0-3.5-.6-4.6-1.9s-1.7-3.1-1.7-5.5c0-2.5.5-4.4 1.6-5.7 1-1.3 2.5-1.9 4.4-1.9 1.7 0 3.1.5 4.1 1.6s1.5 2.7 1.5 4.8v1.2h-9c0 2 .4 3.4 1.1 4.3.7.9 1.7 1.3 3 1.3.9 0 1.7-.2 2.4-.6.7-.4 1.1-.8 1.5-1.3.1.1.2.2.4.3.1.2.2.4.2.6 0 .4-.2.7-.5 1.2-.3.4-.9.8-1.6 1.1s-1.7.5-2.8.5zm-3.6-8.8h6.2c0-1.4-.2-2.6-.7-3.5-.4-.9-1.2-1.3-2.3-1.3-1 0-1.8.4-2.3 1.2-.5.9-.8 2.1-.9 3.6zM252 382.3v-1.1h.4c.6 0 1.1-.1 1.6-.3.4-.2.6-.8.6-1.6v-10.1h-2.5v-1.3h2.5v-.9c0-1.7.5-3 1.6-4.1 1-1.1 2.7-1.6 4.9-1.6 1.7 0 2.9.2 3.8.6.8.4 1.3.9 1.3 1.6 0 .5-.2.9-.7 1.3-.5.3-1 .5-1.8.5 0-.4-.1-.8-.3-1.2-.2-.4-.5-.8-.9-1.1-.4-.3-1.1-.5-1.8-.5-.9 0-1.7.2-2.1.6-.5.4-.8 1-1 1.6-.2.7-.3 1.4-.3 2.1v.8h9.2V379c0 .8.2 1.4.6 1.6.4.2 1 .3 1.6.3h.4v1.1h-7.4v-1.1h.1c.6 0 1.1-.1 1.6-.3s.7-.7.7-1.5v-10.3h-6.6v10.1c0 .8.2 1.4.6 1.6.4.2 1 .3 1.6.3h.5v1.1H252zM270 382.3v-1.1h.2c.6 0 1.1-.1 1.6-.3.4-.2.6-.8.6-1.6v-8.4c0-.8-.2-1.3-.6-1.5-.4-.2-.9-.3-1.5-.3h-.1V368h4.4l.4 2.2h.1c.6-1 1.2-1.7 1.9-2 .7-.3 1.5-.5 2.3-.5 1.4 0 2.5.4 3.3 1.3.8.8 1.2 2.2 1.2 4v6.4c0 .8.2 1.4.6 1.6.4.2.9.3 1.5.3h.1v1.1h-4.7V373c0-1.2-.2-2.1-.7-2.7-.4-.6-1.2-1-2.3-1-.8 0-1.5.2-1.9.6-.5.4-.8.9-1 1.6s-.3 1.4-.3 2.2v5.7c0 .8.2 1.3.6 1.5s.9.3 1.5.3h.1v1.1H270zM294.4 382.6c-2 0-3.5-.6-4.6-1.9s-1.7-3.1-1.7-5.5c0-2.5.5-4.4 1.6-5.7 1-1.3 2.5-1.9 4.4-1.9 1.7 0 3.1.5 4.1 1.6s1.5 2.7 1.5 4.8v1.2h-9c0 2 .4 3.4 1.1 4.3.7.9 1.7 1.3 3 1.3.9 0 1.7-.2 2.4-.6.7-.4 1.1-.8 1.5-1.3.1.1.2.2.4.3.1.2.2.4.2.6 0 .4-.2.7-.5 1.2-.3.4-.9.8-1.6 1.1s-1.8.5-2.8.5zm-3.6-8.8h6.2c0-1.4-.2-2.6-.7-3.5-.4-.9-1.2-1.3-2.3-1.3-1 0-1.8.4-2.3 1.2-.5.9-.8 2.1-.9 3.6zM55.8 415c-1.9 0-3.5-.6-4.6-1.9-1.1-1.2-1.7-3.1-1.7-5.7 0-2.5.5-4.4 1.6-5.6 1.1-1.2 2.7-1.8 4.7-1.8 1.9 0 3.5.6 4.6 1.8 1.1 1.2 1.7 3.1 1.7 5.6 0 2.5-.5 4.4-1.6 5.7s-2.6 1.9-4.7 1.9zm0-1.4c1.3 0 2.3-.5 2.8-1.6.5-1 .8-2.6.8-4.6s-.3-3.5-.8-4.5c-.6-1-1.5-1.5-2.9-1.5s-2.3.5-2.8 1.5-.8 2.5-.8 4.5.3 3.5.8 4.6c.6 1.1 1.6 1.6 2.9 1.6zM71 415c-1.4 0-2.5-.4-3.3-1.3-.8-.8-1.2-2.2-1.2-4v-6.5c0-.8-.2-1.3-.7-1.5-.4-.2-1-.3-1.6-.3h-.1v-1.1h4.8v9.3c0 1.2.2 2.1.6 2.7.4.6 1.1 1 2.2 1 1.2 0 2.1-.4 2.6-1.2s.8-1.9.8-3.2v-5.6c0-.8-.2-1.4-.6-1.6-.4-.2-1-.3-1.6-.3h.1v-1.1h4.8v11.5c0 .8.2 1.3.7 1.5.4.2 1 .3 1.6.3h.1v1.1h-4.3l-.4-2.2h-.1c-.6 1-1.2 1.7-1.9 2-.8.3-1.6.5-2.5.5zM81.7 414.7v-1.1h.1c.6 0 1.1-.1 1.6-.3.4-.2.6-.8.6-1.6v-8.4c0-.8-.2-1.3-.7-1.5-.4-.2-1-.3-1.6-.3h-.1v-1.1h4.2l.5 2.7h.1c.2-.5.5-1 .8-1.5.3-.4.6-.8 1.1-1.1.4-.3 1.1-.4 1.9-.4 1 0 1.7.2 2.2.5.5.3.7.8.7 1.5 0 .6-.2 1-.6 1.4-.4.4-1 .5-1.9.5 0-.7-.1-1.3-.3-1.6-.2-.3-.6-.5-1.1-.5-.5 0-.9.2-1.3.6-.3.4-.6.9-.8 1.5-.2.6-.3 1.2-.4 1.9-.1.7-.1 1.2-.1 1.8v4.2c0 .8.2 1.3.7 1.5.4.2 1 .3 1.6.3h.8v1.1h-8zM106.1 414.7l-3.5-11.9c-.2-.6-.4-.9-.7-1.1-.3-.2-.7-.3-1.2-.3h-.1v-1.1h6.7v1.1h-.4c-.5 0-.9.1-1.2.2-.3.2-.4.5-.4.9 0 .1 0 .3.1.5s.1.4.1.6l1.3 4.5c.1.4.2.9.4 1.4.1.5.2 1 .4 1.5s.2.9.2 1.2h.1c.1-.5.2-1 .4-1.8.2-.7.4-1.4.7-2.1l2.8-8.2h1.7l2.7 8c.1.4.3.9.5 1.4.2.5.3 1 .4 1.5s.2.8.3 1.1h.1c.2-.9.5-2.2 1.1-3.9l1.3-4.3c.1-.2.1-.5.2-.7 0-.3.1-.5.1-.6 0-.9-.6-1.3-1.8-1.3h-.4v-1.1h5.8v1.1h-.4c-.5 0-.9.1-1.2.4-.3.3-.6.8-.8 1.7l-3.5 11.2h-2.2l-3.7-11.3-3.8 11.3h-2.1zM131.5 415c-1.9 0-3.5-.6-4.6-1.9-1.1-1.2-1.7-3.1-1.7-5.7 0-2.5.5-4.4 1.6-5.6 1.1-1.2 2.7-1.8 4.7-1.8 1.9 0 3.5.6 4.6 1.8 1.1 1.2 1.7 3.1 1.7 5.6 0 2.5-.5 4.4-1.6 5.7s-2.6 1.9-4.7 1.9zm.1-1.4c1.3 0 2.3-.5 2.8-1.6.5-1 .8-2.6.8-4.6s-.3-3.5-.8-4.5c-.6-1-1.5-1.5-2.9-1.5s-2.3.5-2.8 1.5-.8 2.5-.8 4.5.3 3.5.8 4.6c.6 1.1 1.5 1.6 2.9 1.6zM140.2 414.7v-1.1h.1c.6 0 1.1-.1 1.6-.3.4-.2.6-.8.6-1.6v-8.4c0-.8-.2-1.3-.7-1.5-.4-.2-1-.3-1.6-.3h-.1v-1.1h4.2l.5 2.7h.1c.2-.5.5-1 .8-1.5.3-.4.6-.8 1.1-1.1.4-.3 1.1-.4 1.9-.4 1 0 1.7.2 2.2.5.5.3.7.8.7 1.5 0 .6-.2 1-.6 1.4-.4.4-1 .5-1.9.5 0-.7-.1-1.3-.3-1.6-.2-.3-.6-.5-1.1-.5-.5 0-.9.2-1.3.6-.3.4-.6.9-.8 1.5-.2.6-.3 1.2-.4 1.9-.1.7-.1 1.2-.1 1.8v4.2c0 .8.2 1.3.7 1.5.4.2 1 .3 1.6.3h.8v1.1h-8zM159.1 415c-1.8 0-3.1-.6-4.1-1.8-.9-1.2-1.4-3.1-1.4-5.7s.5-4.5 1.4-5.7c.9-1.2 2.3-1.8 4.1-1.8 1 0 1.9.2 2.6.7.7.4 1.2 1 1.6 1.7h.2c-.1-.4-.1-.9-.1-1.5v-3.7c0-.8-.2-1.3-.7-1.5-.4-.2-1-.3-1.6-.3h-.2v-1.1h5v17.5c0 .8.2 1.3.7 1.5.4.2 1 .3 1.6.3h.2v1.1h-4.6l-.3-2.4h-.1c-.4.8-.9 1.5-1.6 2s-1.7.7-2.7.7zm.4-1.7c1.4 0 2.4-.5 2.9-1.4.5-.9.8-2.4.8-4.3s-.3-3.3-.8-4.3-1.5-1.5-2.9-1.5c-1.2 0-2 .5-2.6 1.5s-.8 2.4-.8 4.3.3 3.3.8 4.3 1.4 1.4 2.6 1.4zM174.3 415c-1.4 0-2.4-.2-3.2-.7s-1.2-1.2-1.2-2.1c0-.5.1-.9.3-1.1.2-.3.4-.5.7-.6s.5-.2.7-.2c0 1 .2 1.8.6 2.4.4.7 1.2 1 2.3 1 1 0 1.7-.2 2.2-.7.5-.4.8-1 .8-1.8 0-.4-.1-.8-.3-1.1s-.5-.6-1-.9c-.5-.3-1.2-.6-2-1-.9-.4-1.7-.8-2.3-1.2-.6-.4-1.1-.8-1.4-1.3s-.4-1.2-.4-1.9c0-1.2.5-2.2 1.4-2.8.9-.7 2.2-1 3.7-1 1.3 0 2.3.2 2.9.7s1 1.1 1 1.7c0 .5-.2.9-.5 1.2-.3.3-.8.4-1.4.4 0-.9-.2-1.6-.6-2.1s-1-.8-1.8-.8c-.9 0-1.6.2-2 .6-.4.4-.6.9-.6 1.6 0 .7.3 1.2.8 1.6.5.4 1.4.8 2.6 1.3 1 .4 1.7.8 2.3 1.2.6.4 1 .9 1.3 1.4.3.5.4 1.2.4 1.9 0 1.4-.5 2.5-1.5 3.2-.9.7-2.2 1.1-3.8 1.1zM181.6 418.9v-1.1c1.7-.6 2.6-1.4 2.6-2.4 0-.3-.1-.5-.3-.6-.2-.1-.4-.3-.7-.4s-.5-.3-.7-.5c-.2-.2-.3-.5-.3-.9 0-.5.2-.9.5-1.2s.8-.4 1.3-.4c.6 0 1 .2 1.5.6.4.4.6 1 .6 1.7 0 1.2-.3 2.2-1 3.2-.7.8-1.9 1.5-3.5 2zM204.2 415c-1 0-1.9-.2-2.6-.7-.7-.4-1.2-1-1.6-1.7h-.2l-.5 2.1H195v-1.1h.2c.6 0 1.1-.1 1.6-.3.4-.2.6-.8.6-1.6v-14.5c0-.8-.2-1.3-.7-1.5-.4-.2-1-.3-1.6-.3h-.2v-1.1h5v7.6c0 .4 0 .8-.1 1h.1c.4-.8.9-1.5 1.6-2 .6-.5 1.5-.7 2.6-.7 1.8 0 3.1.6 4.1 1.8.9 1.2 1.4 3.1 1.4 5.7s-.5 4.5-1.4 5.7c-.9 1-2.2 1.6-4 1.6zm-.5-1.7c1.2 0 2-.5 2.6-1.5s.8-2.4.8-4.3-.3-3.3-.8-4.3-1.4-1.4-2.6-1.4c-1.4 0-2.4.5-2.9 1.4-.5.9-.8 2.4-.8 4.3s.3 3.3.8 4.3c.6 1 1.5 1.5 2.9 1.5zM218.5 415c-1.4 0-2.5-.4-3.3-1.3-.8-.8-1.2-2.2-1.2-4v-6.5c0-.8-.2-1.3-.7-1.5-.4-.2-1-.3-1.6-.3h-.1v-1.1h4.8v9.3c0 1.2.2 2.1.6 2.7.4.6 1.1 1 2.2 1 1.2 0 2.1-.4 2.6-1.2s.8-1.9.8-3.2v-5.6c0-.8-.2-1.4-.6-1.6-.4-.2-1-.3-1.6-.3h-.1v-1.1h4.8v11.5c0 .8.2 1.3.7 1.5.4.2 1 .3 1.6.3h.1v1.1h-4.3l-.4-2.2h-.1c-.6 1-1.2 1.7-1.9 2-.6.3-1.4.5-2.3.5zM234.8 415c-1.4 0-2.4-.3-3-.9-.6-.6-.9-1.7-.9-3.3v-9h-2.1v-1.1c.3 0 .7-.1 1.1-.2.4-.1.7-.4 1-.7.3-.3.6-.7.8-1.2.2-.5.4-1 .5-1.7h1.2v3.3h3.5v1.5h-3.5v9.1c0 .9.2 1.6.6 2 .4.4.9.6 1.5.6.3 0 .6 0 .9-.1.3 0 .5-.1.8-.1v1.2c-.2.1-.6.2-1.1.3-.4.3-.9.3-1.3.3zM251.3 415c-1.4 0-2.4-.3-3-.9-.6-.6-.9-1.7-.9-3.3v-9h-2.1v-1.1c.3 0 .7-.1 1.1-.2.4-.1.7-.4 1-.7.3-.3.6-.7.8-1.2.2-.5.4-1 .5-1.7h1.2v3.3h3.5v1.5h-3.5v9.1c0 .9.2 1.6.6 2 .4.4.9.6 1.5.6.3 0 .6 0 .9-.1.3 0 .5-.1.8-.1v1.2c-.2.1-.6.2-1.1.3-.4.3-.8.3-1.3.3zM254.8 414.7v-1.1h.2c.6 0 1.1-.1 1.6-.3.4-.2.6-.8.6-1.6v-14.5c0-.8-.2-1.3-.7-1.5-.4-.2-1-.3-1.6-.3h-.2v-1.1h5v6.9c0 .3 0 .8-.1 1.3h.1c.8-1.6 2.1-2.5 4-2.5 1.5 0 2.7.4 3.6 1.3.8.8 1.2 2.2 1.2 4v6.4c0 .8.2 1.4.6 1.6.4.2.9.3 1.5.3h.1v1.1H266v-9.3c0-1.2-.2-2.1-.7-2.7s-1.2-1-2.3-1c-1.1 0-1.9.4-2.5 1.2-.5.8-.8 1.9-.8 3.2v5.7c0 .8.2 1.3.7 1.5s1 .3 1.6.3h.1v1.1h-7.3zM279.2 415c-2 0-3.5-.6-4.6-1.9s-1.7-3.1-1.7-5.5c0-2.5.5-4.4 1.6-5.7 1-1.3 2.5-1.9 4.4-1.9 1.7 0 3.1.5 4.1 1.6s1.5 2.7 1.5 4.8v1.2h-9c0 2 .4 3.4 1.1 4.3.7.9 1.7 1.3 3 1.3.9 0 1.7-.2 2.4-.6.7-.4 1.1-.8 1.5-1.3.1.1.2.2.4.3.1.2.2.4.2.6 0 .4-.2.7-.5 1.2-.3.4-.9.8-1.6 1.1s-1.7.5-2.8.5zm-3.6-8.8h6.2c0-1.4-.2-2.6-.7-3.5-.4-.9-1.2-1.3-2.3-1.3-1 0-1.8.4-2.3 1.2-.4.9-.8 2.1-.9 3.6zM287 421.2v-1.3c1.2 0 2.2-.2 3-.7.8-.5 1.4-1.1 1.9-1.9.5-.8.9-1.7 1.2-2.7l-5-11.8c-.3-.6-.5-.9-.8-1.1s-.6-.3-1.2-.3h-.1v-1.1h6.5v1.1h-.1c-1.1 0-1.6.4-1.6 1.3 0 .3.1.6.2 1l2 4.8c.2.4.4.9.5 1.4s.3 1 .5 1.4c.1.5.2.8.3 1.1.1-.5.3-1 .5-1.6.2-.6.4-1.1.6-1.7l1.8-5.3c.2-.4.2-.8.2-1.2 0-.9-.6-1.3-1.8-1.3h-.1v-1.1h5.6v1.1h-.1c-.5 0-.9.1-1.2.4-.3.3-.6.8-.9 1.7l-4.1 11.3c-.5 1.3-.9 2.4-1.3 3.2-.4.8-.9 1.5-1.4 1.9-.5.5-1.2.8-2 1-.8.2-1.8.3-3 .3h-.1zM55 447.4c-1.8 0-3.1-.6-4.1-1.8-.9-1.2-1.4-3.1-1.4-5.7s.5-4.5 1.4-5.7c.9-1.2 2.3-1.8 4.1-1.8 1 0 1.9.2 2.6.7.7.4 1.2 1 1.6 1.7h.2c-.1-.4-.1-.9-.1-1.5v-3.7c0-.8-.2-1.3-.7-1.5-.4-.2-1-.3-1.6-.3h-.2v-1.1h5v17.5c0 .8.2 1.3.7 1.5.4.2 1 .3 1.6.3h.2v1.1h-4.6l-.3-2.4h-.1c-.4.8-.9 1.5-1.6 2s-1.6.7-2.7.7zm.5-1.7c1.4 0 2.4-.5 2.9-1.4.5-.9.8-2.4.8-4.3s-.3-3.3-.8-4.3-1.5-1.5-2.9-1.5c-1.2 0-2 .5-2.6 1.5s-.8 2.4-.8 4.3.3 3.3.8 4.3 1.4 1.4 2.6 1.4zM72.4 447.4c-1.9 0-3.5-.6-4.6-1.9-1.1-1.2-1.7-3.1-1.7-5.7 0-2.5.5-4.4 1.6-5.6 1.1-1.2 2.7-1.8 4.7-1.8 1.9 0 3.5.6 4.6 1.8 1.1 1.2 1.7 3.1 1.7 5.6 0 2.5-.5 4.4-1.6 5.7s-2.7 1.9-4.7 1.9zm0-1.4c1.3 0 2.3-.5 2.8-1.6.5-1 .8-2.6.8-4.6s-.3-3.5-.8-4.5c-.6-1-1.5-1.5-2.9-1.5s-2.3.5-2.8 1.5-.8 2.5-.8 4.5.3 3.5.8 4.6c.6 1.1 1.6 1.6 2.9 1.6zM81 447.1V446h.2c.6 0 1.1-.1 1.6-.3.4-.2.6-.8.6-1.6v-8.4c0-.8-.2-1.3-.6-1.5-.4-.2-.9-.3-1.5-.3h-.1v-1.1h4.4l.4 2.2h.1c.6-1 1.2-1.7 1.9-2 .7-.3 1.5-.5 2.3-.5 1.4 0 2.5.4 3.3 1.3s1.2 2.2 1.2 4v6.4c0 .8.2 1.4.6 1.6.4.2.9.3 1.5.3h.1v1.1h-4.7v-9.3c0-1.2-.2-2.1-.7-2.7s-1.2-1-2.3-1c-.8 0-1.5.2-1.9.6-.5.4-.8.9-1 1.6-.2.7-.3 1.4-.3 2.2v5.7c0 .8.2 1.3.6 1.5s.9.3 1.5.3h.1v1.1H81zM98.4 435.5v-1.1c1.7-.6 2.6-1.4 2.6-2.4 0-.3-.1-.5-.3-.6-.2-.1-.4-.3-.7-.4-.3-.1-.5-.3-.7-.5-.2-.2-.3-.5-.3-.9 0-.5.2-.9.5-1.2.3-.3.8-.4 1.3-.4.6 0 1 .2 1.5.6.4.4.6 1 .6 1.7 0 1.2-.3 2.2-1 3.2-.7.8-1.9 1.5-3.5 2zM110.8 447.4c-1.4 0-2.4-.3-3-.9s-.9-1.7-.9-3.3v-9h-2.1v-1.1c.3 0 .7-.1 1.1-.2.4-.1.7-.4 1-.7.3-.3.6-.7.8-1.2.2-.5.4-1 .5-1.7h1.2v3.3h3.5v1.5h-3.5v9.1c0 .9.2 1.6.6 2 .4.4.9.6 1.5.6.3 0 .6 0 .9-.1s.5-.1.8-.1v1.2c-.2.1-.6.2-1.1.3-.4.3-.8.3-1.3.3zM127.9 447.4c-1.8 0-3.1-.6-4.1-1.8-.9-1.2-1.4-3.1-1.4-5.7s.5-4.5 1.4-5.7c.9-1.2 2.3-1.8 4.1-1.8 1 0 1.9.2 2.6.7.7.4 1.2 1 1.6 1.7h.2c-.1-.4-.1-.9-.1-1.5v-3.7c0-.8-.2-1.3-.7-1.5-.4-.2-1-.3-1.6-.3h-.2v-1.1h5v17.5c0 .8.2 1.3.7 1.5.4.2 1 .3 1.6.3h.2v1.1h-4.6l-.3-2.4h-.3c-.4.8-.9 1.5-1.6 2s-1.5.7-2.5.7zm.4-1.7c1.4 0 2.4-.5 2.9-1.4.5-.9.8-2.4.8-4.3s-.3-3.3-.8-4.3-1.5-1.5-2.9-1.5c-1.2 0-2 .5-2.6 1.5s-.8 2.4-.8 4.3.3 3.3.8 4.3 1.4 1.4 2.6 1.4zM145.2 447.4c-2 0-3.5-.6-4.6-1.9s-1.7-3.1-1.7-5.5c0-2.5.5-4.4 1.6-5.7 1-1.3 2.5-1.9 4.4-1.9 1.7 0 3.1.5 4.1 1.6s1.5 2.7 1.5 4.8v1.2h-9c0 2 .4 3.4 1.1 4.3.7.9 1.7 1.3 3 1.3.9 0 1.7-.2 2.4-.6.7-.4 1.1-.8 1.5-1.3.1.1.2.2.4.3s.2.4.2.6c0 .4-.2.7-.5 1.2s-.9.8-1.6 1.1c-.8.3-1.7.5-2.8.5zm-3.6-8.8h6.2c0-1.4-.2-2.6-.7-3.5-.4-.9-1.2-1.3-2.3-1.3-1 0-1.8.4-2.3 1.2-.5.9-.8 2.1-.9 3.6zM152.6 447.1V446h.4c.6 0 1.1-.1 1.6-.3.4-.2.6-.8.6-1.6V434h-2.5v-1.3h2.5v-.8c0-1.7.5-3 1.6-4.1s2.7-1.6 4.9-1.6c1.7 0 2.9.2 3.8.6s1.3.9 1.3 1.6c0 .5-.2.9-.7 1.3-.5.3-1 .5-1.8.5 0-.4-.1-.8-.3-1.2-.2-.4-.5-.8-.9-1.1-.4-.3-1.1-.5-1.8-.5-.9 0-1.7.2-2.1.6-.5.4-.8 1-1 1.6-.2.7-.3 1.4-.3 2.1v.8h9.2V444c0 .8.2 1.4.6 1.6.4.2 1 .3 1.6.3h.4v1.1h-7.4v-1h.1c.6 0 1.1-.1 1.6-.3.4-.2.7-.7.7-1.5v-10.3h-6.6V444c0 .8.2 1.4.6 1.6.4.2 1 .3 1.6.3h.5v1.1h-8.2zM170.6 447.1V446h.2c.6 0 1.1-.1 1.6-.3.4-.2.6-.8.6-1.6v-8.4c0-.8-.2-1.3-.6-1.5-.4-.2-.9-.3-1.5-.3h-.1v-1.1h4.4l.4 2.2h.1c.6-1 1.2-1.7 1.9-2 .7-.3 1.5-.5 2.3-.5 1.4 0 2.5.4 3.3 1.3s1.2 2.2 1.2 4v6.4c0 .8.2 1.4.6 1.6.4.2.9.3 1.5.3h.1v1.1h-4.7v-9.3c0-1.2-.2-2.1-.7-2.7-.4-.6-1.2-1-2.3-1-.8 0-1.5.2-1.9.6-.5.4-.8.9-1 1.6-.2.7-.3 1.4-.3 2.2v5.7c0 .8.2 1.3.6 1.5s.9.3 1.5.3h.1v1.1h-7.3zM195 447.4c-2 0-3.5-.6-4.6-1.9-1.1-1.3-1.7-3.1-1.7-5.5 0-2.5.5-4.4 1.6-5.7 1-1.3 2.5-1.9 4.4-1.9 1.7 0 3.1.5 4.1 1.6s1.5 2.7 1.5 4.8v1.2h-9c0 2 .4 3.4 1.1 4.3s1.7 1.3 3 1.3c.9 0 1.7-.2 2.4-.6.7-.4 1.1-.8 1.5-1.3.1.1.2.2.4.3.1.2.2.4.2.6 0 .4-.2.7-.5 1.2s-.9.8-1.6 1.1c-.9.3-1.8.5-2.8.5zm-3.6-8.8h6.2c0-1.4-.2-2.6-.7-3.5-.4-.9-1.2-1.3-2.3-1.3-1 0-1.8.4-2.3 1.2-.5.9-.8 2.1-.9 3.6zM216.1 447.4c-1.4 0-2.5-.4-3.3-1.3-.8-.8-1.2-2.2-1.2-4v-6.5c0-.8-.2-1.3-.7-1.5-.4-.2-1-.3-1.6-.3h-.1v-1.1h4.8v9.3c0 1.2.2 2.1.6 2.7.4.6 1.1 1 2.2 1 1.2 0 2.1-.4 2.6-1.2.5-.8.8-1.9.8-3.2v-5.6c0-.8-.2-1.4-.6-1.6-.4-.2-1-.3-1.6-.3h-.1v-1.1h4.8v11.5c0 .8.2 1.3.7 1.5s1 .3 1.6.3h.1v1.1h-4.3l-.4-2.2h-.1c-.6 1-1.2 1.7-1.9 2-.6.3-1.5.5-2.3.5zM231.5 447.4c-1.3 0-2.4-.2-3.2-.7-.8-.5-1.2-1.2-1.2-2.1 0-.5.1-.9.3-1.1.2-.3.4-.5.7-.6.3-.1.5-.2.7-.2 0 1 .2 1.8.6 2.4.4.7 1.2 1 2.3 1 1 0 1.7-.2 2.2-.7.5-.4.8-1 .8-1.8 0-.4-.1-.8-.3-1.1-.2-.3-.5-.6-1-.9-.5-.3-1.2-.6-2-1-.9-.4-1.7-.8-2.3-1.2-.6-.4-1.1-.8-1.3-1.3s-.4-1.2-.4-1.9c0-1.2.5-2.2 1.4-2.8.9-.7 2.2-1 3.7-1 1.3 0 2.3.2 2.9.7s1 1.1 1 1.7c0 .5-.2.9-.5 1.2-.3.3-.8.4-1.4.4 0-.9-.2-1.6-.6-2.1s-1-.8-1.8-.8c-.9 0-1.6.2-2 .6-.4.4-.6.9-.6 1.6 0 .7.3 1.2.8 1.6s1.4.8 2.6 1.3c1 .4 1.7.8 2.3 1.2.6.4 1 .9 1.3 1.4s.4 1.2.4 1.9c0 1.4-.5 2.5-1.5 3.2-1 .7-2.3 1.1-3.9 1.1zM241.4 447.3c-.5 0-.9-.1-1.2-.4-.3-.3-.5-.7-.5-1.4s.2-1.2.5-1.4c.3-.3.7-.4 1.2-.4s.8.1 1.2.4c.3.3.5.7.5 1.4s-.2 1.2-.5 1.4c-.4.3-.8.4-1.2.4z"/></g><g><path d="M59.5 524.9h-4.8v3.8h4.4v1.2h-4.4v5.5h-1.4v-11.7h6.2v1.2zM66.5 526.5c1.2 0 2.1.4 2.8 1.2s1.1 1.9 1.1 3.3-.4 2.5-1.1 3.3-1.6 1.3-2.8 1.3c-1.2 0-2.1-.4-2.8-1.2-.7-.8-1.1-1.9-1.1-3.3s.4-2.5 1.1-3.3 1.6-1.3 2.8-1.3zm0 8c.8 0 1.4-.3 1.9-1s.7-1.5.7-2.4c0-1-.2-1.8-.7-2.5s-1.1-1-1.9-1c-.8 0-1.4.3-1.9 1s-.7 1.5-.7 2.5.2 1.8.7 2.4c.5.7 1.1 1 1.9 1zM80.2 527l-.5 1.2c-.6-.2-1.1-.4-1.5-.4-.4 0-.8.1-1.1.3s-.7.5-1 .9c-.3.4-.5.6-.5.7v5.6h-1.3v-8.6h1.3v1.8c.7-1.3 1.6-2 2.7-2 .6 0 1.2.2 1.9.5zM100.4 535.4h-1.3v-5.5c0-.8-.1-1.3-.4-1.7-.2-.3-.6-.5-1.2-.5-.8 0-1.6.5-2.5 1.5v6.3h-1.3v-8.6H95v1.3c.9-1 1.9-1.5 2.9-1.5 1.6 0 2.4 1 2.4 2.9v5.8zM107.3 526.5c1.2 0 2.1.4 2.8 1.2s1.1 1.9 1.1 3.3-.4 2.5-1.1 3.3-1.6 1.3-2.8 1.3c-1.2 0-2.1-.4-2.8-1.2-.7-.8-1.1-1.9-1.1-3.3s.4-2.5 1.1-3.3 1.6-1.3 2.8-1.3zm0 8c.8 0 1.4-.3 1.9-1s.7-1.5.7-2.4c0-1-.2-1.8-.7-2.5s-1.1-1-1.9-1c-.8 0-1.4.3-1.9 1s-.7 1.5-.7 2.5.2 1.8.7 2.4c.5.7 1.1 1 1.9 1zM121.8 526.8l-1.2 8.6h-1l-2-4.9-2 4.9h-1l-1.2-8.6h1.3c.5 4 .7 6.2.7 6.4l1.6-3.8h1.3l1.6 3.7.7-6.3h1.2zM127.7 535.6c-.3 0-.5-.2-.7-.4s-.3-.4-.3-.7c0-.3.1-.5.3-.7s.4-.3.7-.3c.3 0 .6.1.8.4s.3.6.3.9c0 1.1-.6 1.9-1.8 2.5l-.3-.6c.7-.2 1-.6 1-1.1zM151.5 535c-.9.4-1.7.6-2.6.6-1.5 0-2.3-.8-2.3-2.4v-5.3H145v-1.1h1.7v-2.4h1.3v2.4h2.9v1.1H148v4.9c0 .5.1.9.3 1.2.2.3.5.4.9.4.7 0 1.4-.2 2.1-.5l.2 1.1zM161.6 535.4h-1.3v-5.5c0-.8-.1-1.3-.4-1.7-.2-.3-.6-.5-1.2-.5-.8 0-1.6.5-2.5 1.5v6.3H155v-11.7h1.3v4.3c.9-1 1.9-1.5 2.9-1.5 1.6 0 2.4 1 2.4 2.9v5.9zM169.7 535.4h-1.3v-7.5h-2.5v-1.1h3.8v8.6zm-.7-11.9c.2 0 .5.1.6.3.2.2.3.4.3.6 0 .3-.1.5-.3.6-.2.2-.4.3-.6.3-.2 0-.4-.1-.6-.3-.2-.2-.3-.4-.3-.6 0-.2.1-.4.3-.6.2-.2.4-.3.6-.3zM181.1 528c-.7-.2-1.4-.4-2-.4-.7 0-1.3.1-1.7.4s-.6.5-.6.9c0 .2.1.5.3.7s.6.4 1.1.5l1.2.4c.6.2 1 .4 1.4.6.4.2.6.5.8.8.2.3.3.7.3 1.1 0 .8-.3 1.5-1 2s-1.6.7-2.6.7c-1.1 0-1.9-.2-2.6-.5l.2-1.1c.7.3 1.5.5 2.3.5.7 0 1.3-.1 1.8-.4.5-.3.7-.6.7-1.1 0-.3-.1-.6-.3-.8-.2-.2-.8-.5-1.6-.7-.7-.2-1.2-.4-1.5-.5s-.6-.3-.9-.5-.5-.4-.6-.7c-.1-.3-.2-.6-.2-.9 0-.7.3-1.3 1-1.8s1.5-.7 2.6-.7c.7 0 1.5.1 2.3.4l-.4 1.1zM201.5 528c-.7-.2-1.4-.4-2-.4-.7 0-1.3.1-1.7.4-.4.2-.6.5-.6.9 0 .2.1.5.3.7.2.2.6.4 1.1.5l1.2.4c.6.2 1 .4 1.4.6.4.2.6.5.8.8.2.3.3.7.3 1.1 0 .8-.3 1.5-1 2s-1.6.7-2.6.7c-1.1 0-1.9-.2-2.6-.5l.2-1.1c.7.3 1.5.5 2.3.5.7 0 1.3-.1 1.8-.4s.7-.6.7-1.1c0-.3-.1-.6-.3-.8-.2-.2-.8-.5-1.6-.7-.7-.2-1.2-.4-1.5-.5s-.6-.3-.9-.5c-.3-.2-.5-.4-.6-.7-.1-.3-.2-.6-.2-.9 0-.7.3-1.3 1-1.8.7-.4 1.5-.7 2.6-.7.7 0 1.5.1 2.3.4l-.4 1.1zM212.7 535c-.9.4-1.7.6-2.6.6-1.5 0-2.3-.8-2.3-2.4v-5.3h-1.7v-1.1h1.7v-2.4h1.3v2.4h2.9v1.1h-2.9v4.9c0 .5.1.9.3 1.2.2.3.5.4.9.4.7 0 1.4-.2 2.1-.5l.3 1.1zM223.1 535.4h-1.3c-.1-.3-.2-.8-.2-1.4-.7 1.1-1.7 1.6-3 1.6-.6 0-1.2-.2-1.7-.7-.5-.5-.7-1-.7-1.8 0-.4.1-.8.3-1.1.2-.3.4-.6.8-.8.3-.2.7-.4 1.2-.5.5-.1 1-.2 1.7-.3l1.5-.1v-.4c0-1.5-.7-2.2-2.1-2.2-.3 0-.7.1-1.2.2s-.9.3-1.3.5l-.3-.9c1.2-.6 2.3-.9 3.3-.9 2 0 3 1 3 3.1v3.7c-.3.7-.2 1.4 0 2zm-1.6-2.6v-1.6c-1.2.1-2 .2-2.4.3-.4.1-.8.3-1.1.5-.3.2-.5.6-.5 1s.1.7.4.9.6.4 1 .4c.5 0 .9-.1 1.4-.4.5-.2.9-.6 1.2-1.1zM233 535.4h-1.3v-5.5c0-.8-.1-1.3-.4-1.7s-.6-.5-1.2-.5c-.8 0-1.6.5-2.5 1.5v6.3h-1.3v-8.6h1.3v1.3c.9-1 1.9-1.5 2.9-1.5 1.6 0 2.4 1 2.4 2.9v5.8zM243.2 535.4h-1.3v-1.2c-.3.4-.6.8-1.1 1.1-.5.3-1 .4-1.6.4-1 0-1.8-.4-2.3-1.3-.6-.9-.9-2-.9-3.4 0-1.3.3-2.3.9-3.2s1.4-1.2 2.4-1.2c1.1 0 2 .4 2.6 1.3v-4.2h1.3v11.7zm-1.3-2.6v-3.6c-.6-1-1.4-1.5-2.2-1.5-.7 0-1.3.3-1.7 1s-.6 1.4-.6 2.4.2 1.8.6 2.5c.4.7.9 1 1.6 1 .3 0 .7-.1 1-.3.3-.2.6-.4.9-.8.3-.5.4-.7.4-.7zM252.5 528c-.7-.2-1.4-.4-2-.4-.7 0-1.3.1-1.7.4-.4.2-.6.5-.6.9 0 .2.1.5.3.7.2.2.6.4 1.1.5l1.2.4c.6.2 1 .4 1.4.6.4.2.6.5.8.8s.3.7.3 1.1c0 .8-.3 1.5-1 2s-1.6.7-2.6.7c-1.1 0-1.9-.2-2.6-.5l.2-1.1c.7.3 1.5.5 2.3.5.7 0 1.3-.1 1.8-.4s.7-.6.7-1.1c0-.3-.1-.6-.3-.8-.2-.2-.8-.5-1.6-.7-.7-.2-1.2-.4-1.5-.5-.3-.1-.6-.3-.9-.5-.3-.2-.5-.4-.6-.7-.1-.3-.2-.6-.2-.9 0-.7.3-1.3 1-1.8.7-.4 1.5-.7 2.6-.7.7 0 1.5.1 2.3.4l-.4 1.1zM274.1 535.4h-1.3c-.1-.3-.2-.8-.2-1.4-.7 1.1-1.7 1.6-3 1.6-.6 0-1.2-.2-1.7-.7-.5-.5-.7-1-.7-1.8 0-.4.1-.8.3-1.1s.4-.6.8-.8c.3-.2.7-.4 1.2-.5.5-.1 1-.2 1.7-.3l1.5-.1v-.4c0-1.5-.7-2.2-2.1-2.2-.3 0-.7.1-1.2.2s-.9.3-1.3.5l-.3-.9c1.2-.6 2.3-.9 3.3-.9 2 0 3 1 3 3.1v3.7c-.3.7-.2 1.4 0 2zm-1.5-2.6v-1.6c-1.2.1-2 .2-2.4.3-.4.1-.8.3-1.1.5-.3.2-.5.6-.5 1s.1.7.4.9.6.4 1 .4c.5 0 .9-.1 1.4-.4.4-.2.8-.6 1.2-1.1zM283.1 528c-.7-.2-1.4-.4-2-.4-.7 0-1.3.1-1.7.4-.4.2-.6.5-.6.9 0 .2.1.5.3.7.2.2.6.4 1.1.5l1.2.4c.6.2 1 .4 1.4.6.4.2.6.5.8.8s.3.7.3 1.1c0 .8-.3 1.5-1 2s-1.6.7-2.6.7c-1.1 0-1.9-.2-2.6-.5l.2-1.1c.7.3 1.5.5 2.3.5.7 0 1.3-.1 1.8-.4s.7-.6.7-1.1c0-.3-.1-.6-.3-.8-.2-.2-.8-.5-1.6-.7-.7-.2-1.2-.4-1.5-.5-.3-.1-.6-.3-.9-.5-.3-.2-.5-.4-.6-.7-.1-.3-.2-.6-.2-.9 0-.7.3-1.3 1-1.8.7-.4 1.5-.7 2.6-.7.7 0 1.5.1 2.3.4l-.4 1.1zM59.8 555.8h-1.3c-.1-.3-.2-.8-.2-1.4-.7 1.1-1.7 1.6-3 1.6-.6 0-1.2-.2-1.7-.7-.5-.5-.7-1-.7-1.8 0-.4.1-.8.3-1.1s.4-.6.8-.8c.3-.2.7-.4 1.2-.5s1-.2 1.7-.3l1.5-.1v-.4c0-1.5-.7-2.2-2.1-2.2-.3 0-.7.1-1.2.2s-.9.3-1.3.5l-.3-.9c1.2-.6 2.3-.9 3.3-.9 2 0 3 1 3 3.1v3.7c-.2.7-.1 1.4 0 2zm-1.5-2.6v-1.6c-1.2.1-2 .2-2.4.3-.4.1-.8.3-1.1.5-.3.2-.5.6-.5 1s.1.7.4.9.6.4 1 .4c.5 0 .9-.1 1.4-.4.5-.2.9-.6 1.2-1.1zM79.4 555.8h-3.5v-10.6h-2.3v-1.1h3.6v10.6h2.2v1.1zM88.1 555.8h-1.3v-7.5h-2.5v-1.1h3.8v8.6zm-.7-11.9c.2 0 .5.1.6.3.2.2.3.4.3.6 0 .3-.1.5-.3.6-.2.2-.4.3-.6.3-.2 0-.4-.1-.6-.3-.2-.2-.3-.4-.3-.6 0-.2.1-.4.3-.6.2-.2.4-.3.6-.3zM99.5 548.4c-.7-.2-1.4-.4-2.1-.4-.7 0-1.3.1-1.7.4s-.6.5-.6.9c0 .2.1.5.3.7s.6.4 1.1.5l1.2.4c.6.2 1 .4 1.4.6.4.2.6.5.8.8.2.3.3.7.3 1.1 0 .8-.3 1.5-1 2s-1.6.7-2.6.7c-1.1 0-1.9-.2-2.6-.5l.2-1.1c.7.3 1.5.5 2.3.5.7 0 1.3-.1 1.8-.4.5-.3.7-.6.7-1.1 0-.3-.1-.6-.3-.8-.2-.2-.8-.5-1.6-.7-.7-.2-1.2-.4-1.5-.5s-.6-.3-.9-.5-.5-.4-.6-.7c-.1-.3-.2-.6-.2-.9 0-.7.3-1.3 1-1.8s1.5-.7 2.6-.7c.7 0 1.5.1 2.3.4l-.3 1.1zM110.7 555.4c-.9.4-1.7.6-2.6.6-1.5 0-2.3-.8-2.3-2.4v-5.3h-1.7v-1.1h1.7v-2.4h1.3v2.4h2.9v1.1h-2.9v4.9c0 .5.1.9.3 1.2.2.3.5.4.9.4.7 0 1.4-.2 2.1-.5l.3 1.1zM127.7 546.9c1.2 0 2.1.4 2.8 1.2s1.1 1.9 1.1 3.3-.4 2.5-1.1 3.3-1.6 1.3-2.8 1.3c-1.2 0-2.1-.4-2.8-1.2-.7-.8-1.1-1.9-1.1-3.3s.4-2.5 1.1-3.3 1.6-1.3 2.8-1.3zm0 8c.8 0 1.4-.3 1.9-1s.7-1.5.7-2.4c0-1-.2-1.8-.7-2.5s-1.1-1-1.9-1c-.8 0-1.4.3-1.9 1s-.7 1.5-.7 2.5.2 1.8.7 2.4c.5.7 1.1 1 1.9 1zM141.2 555.8h-1.3v-5.5c0-.8-.1-1.3-.4-1.7-.2-.3-.6-.5-1.2-.5-.8 0-1.6.5-2.5 1.5v6.3h-1.3v-8.6h1.3v1.3c.9-1 1.9-1.5 2.9-1.5 1.6 0 2.4 1 2.4 2.9v5.8zM150.8 555.8h-3.5v-10.6H145v-1.1h3.6v10.6h2.2v1.1zM162 547.2l-3.3 8.6c-.5 1.3-.9 2.2-1.4 2.7-.5.5-1 .8-1.6.8-.5 0-1.1-.1-1.6-.3l.2-1c.4.1.8.2 1.1.2.5 0 .8-.2 1.1-.5.3-.4.6-.9.9-1.8l-3.2-8.6h1.4l2.4 6.9 2.4-6.9h1.6zM168.5 556c-.3 0-.5-.2-.7-.4s-.3-.4-.3-.7c0-.3.1-.5.3-.7s.4-.3.7-.3c.3 0 .6.1.8.4s.3.6.3.9c0 1.1-.6 1.9-1.8 2.5l-.3-.6c.7-.2 1-.6 1-1.1zM192.3 544.2l-.3 1.1c-.6-.2-1.2-.3-1.7-.3s-.8.1-1 .4c-.2.3-.3.8-.3 1.6v.2h2.9v1.1H189v7.5h-1.3v-7.5h-2.2v-1.1h2.2v-.3c0-1.1.2-1.9.6-2.3.4-.4 1-.7 2-.7.6 0 1.3.1 2 .3zM202.6 547.4l-.5 1.2c-.6-.2-1.1-.4-1.5-.4-.4 0-.8.1-1.1.3s-.7.5-1 .9c-.3.4-.5.6-.5.7v5.6h-1.3v-8.6h1.3v1.8c.7-1.3 1.6-2 2.7-2 .6 0 1.3.2 1.9.5zM209.3 546.9c1.2 0 2.1.4 2.8 1.2.7.8 1.1 1.9 1.1 3.3s-.4 2.5-1.1 3.3c-.7.8-1.6 1.3-2.8 1.3-1.2 0-2.1-.4-2.8-1.2s-1-1.9-1-3.3.4-2.5 1.1-3.3c.6-.8 1.5-1.3 2.7-1.3zm0 8c.8 0 1.4-.3 1.9-1s.7-1.5.7-2.4c0-1-.2-1.8-.7-2.5s-1.1-1-1.9-1c-.8 0-1.4.3-1.9 1-.4.6-.7 1.5-.7 2.5s.2 1.8.7 2.4c.5.7 1.1 1 1.9 1zM223.5 555.8h-1.3v-5.7c0-1.4-.3-2.1-.8-2.1-.3 0-.5.2-.9.7-.3.5-.5.7-.5.8v6.2h-1.3V550c0-1.4-.3-2.1-.8-2.1-.3 0-.5.2-.9.7-.3.5-.5.7-.5.8v6.2h-1.3V547h1.2v1.3c.2-.5.5-.8.9-1.1.3-.3.7-.4 1-.4.3 0 .7.1.9.4.3.3.5.6.6 1.1.2-.5.5-.8.9-1.1.3-.3.7-.4 1-.4 1 0 1.6.9 1.6 2.8v6.2zM244.3 547.2l-1.2 8.6h-1l-2-4.9-2 4.9h-1l-1.2-8.6h1.3c.5 4 .7 6.2.7 6.4l1.6-3.8h1.3l1.6 3.7.7-6.3h1.2zM253.4 555.8h-1.3v-5.5c0-.8-.1-1.3-.4-1.7s-.6-.5-1.2-.5c-.8 0-1.6.5-2.5 1.5v6.3h-1.3v-11.7h1.3v4.3c.9-1 1.9-1.5 2.9-1.5 1.6 0 2.4 1 2.4 2.9v5.9zM261.5 555.8h-1.3v-7.5h-2.5v-1.1h3.8v8.6zm-.6-11.9c.2 0 .5.1.6.3.2.2.3.4.3.6 0 .3-.1.5-.3.6s-.4.3-.6.3c-.2 0-.4-.1-.6-.3-.2-.2-.3-.4-.3-.6 0-.2.1-.4.3-.6.1-.2.3-.3.6-.3zM273.8 555.5c-.8.3-1.6.5-2.5.5-1.4 0-2.4-.4-3.3-1.2s-1.2-1.9-1.2-3.3.4-2.5 1.2-3.3 1.9-1.2 3.2-1.2c.9 0 1.7.2 2.5.5l-.3 1.1c-.8-.3-1.5-.4-2.1-.4-1 0-1.7.3-2.3.9-.6.6-.8 1.4-.8 2.5 0 1 .3 1.8.9 2.4.6.7 1.3 1 2.2 1 .7 0 1.5-.1 2.3-.4l.2.9zM284 555.8h-1.3v-5.5c0-.8-.1-1.3-.4-1.7s-.6-.5-1.2-.5c-.8 0-1.6.5-2.5 1.5v6.3h-1.3v-11.7h1.3v4.3c.9-1 1.9-1.5 2.9-1.5 1.6 0 2.4 1 2.4 2.9v5.9zM60 567.6l-3.3 8.6c-.5 1.3-.9 2.2-1.4 2.7-.5.5-1 .8-1.6.8-.5 0-1.1-.1-1.6-.3l.2-1c.4.1.8.2 1.1.2.5 0 .8-.2 1.1-.5.3-.4.6-.9.9-1.8l-3.2-8.6h1.4l2.4 6.9 2.4-6.9H60zM66.5 567.3c1.2 0 2.1.4 2.8 1.2s1.1 1.9 1.1 3.3-.4 2.5-1.1 3.3-1.6 1.3-2.8 1.3c-1.2 0-2.1-.4-2.8-1.2-.7-.8-1.1-1.9-1.1-3.3s.4-2.5 1.1-3.3 1.6-1.3 2.8-1.3zm0 8c.8 0 1.4-.3 1.9-1s.7-1.5.7-2.4c0-1-.2-1.8-.7-2.5s-1.1-1-1.9-1c-.8 0-1.4.3-1.9 1s-.7 1.5-.7 2.5.2 1.8.7 2.4c.5.7 1.1 1 1.9 1zM80 576.2h-1.3v-1.3c-.9 1-1.9 1.5-2.9 1.5-1.6 0-2.4-1-2.4-2.9v-5.9h1.3v5.5c0 .7.1 1.3.3 1.6s.6.5 1.2.5c.8 0 1.6-.5 2.5-1.5v-6.3H80v8.8zM100.4 575.9c-.8.3-1.6.5-2.5.5-1.4 0-2.4-.4-3.3-1.2-.8-.8-1.2-1.9-1.2-3.3s.4-2.5 1.2-3.3c.8-.8 1.9-1.2 3.2-1.2.9 0 1.7.2 2.5.5l-.3 1.1c-.8-.3-1.5-.4-2.1-.4-1 0-1.7.3-2.3.9-.6.6-.8 1.4-.8 2.5 0 1 .3 1.8.9 2.4.6.7 1.3 1 2.2 1 .7 0 1.5-.1 2.3-.4l.2.9zM110.8 576.2h-1.3c-.1-.3-.2-.8-.2-1.4-.7 1.1-1.7 1.6-3 1.6-.6 0-1.2-.2-1.7-.7-.5-.5-.7-1-.7-1.8 0-.4.1-.8.3-1.1s.4-.6.8-.8c.3-.2.7-.4 1.2-.5s1-.2 1.7-.3l1.5-.1v-.4c0-1.5-.7-2.2-2.1-2.2-.3 0-.7.1-1.2.2s-.9.3-1.3.5l-.3-.9c1.2-.6 2.3-.9 3.3-.9 2 0 3 1 3 3.1v3.7c-.2.7-.1 1.4 0 2zm-1.5-2.6V572c-1.2.1-2 .2-2.4.3-.4.1-.8.3-1.1.5-.3.2-.5.6-.5 1s.1.7.4.9.6.4 1 .4c.5 0 .9-.1 1.4-.4.5-.2.9-.6 1.2-1.1zM120.8 576.2h-1.3v-5.5c0-.8-.1-1.3-.4-1.7-.2-.3-.6-.5-1.2-.5-.8 0-1.6.5-2.5 1.5v6.3h-1.3v-8.6h1.3v1.3c.9-1 1.9-1.5 2.9-1.5 1.6 0 2.4 1 2.4 2.9v5.8zM140.3 568.8c-.7-.2-1.4-.4-2.1-.4-.7 0-1.3.1-1.7.4s-.6.5-.6.9c0 .2.1.5.3.7s.6.4 1.1.5l1.2.4c.6.2 1 .4 1.4.6.4.2.6.5.8.8.2.3.3.7.3 1.1 0 .8-.3 1.5-1 2s-1.6.7-2.6.7c-1.1 0-1.9-.2-2.6-.5l.2-1.1c.7.3 1.5.5 2.3.5.7 0 1.3-.1 1.8-.4.5-.3.7-.6.7-1.1 0-.3-.1-.6-.3-.8-.2-.2-.8-.5-1.6-.7-.7-.2-1.2-.4-1.5-.5s-.6-.3-.9-.5-.5-.4-.6-.7c-.1-.3-.2-.6-.2-.9 0-.7.3-1.3 1-1.8s1.5-.7 2.6-.7c.7 0 1.5.1 2.3.4l-.3 1.1zM151.7 571.9h-5.9c0 1 .3 1.8.9 2.4.6.6 1.3 1 2.1 1s1.6-.1 2.4-.4l.2 1c-.8.3-1.7.5-2.7.5-1.3 0-2.3-.4-3.1-1.2s-1.2-1.9-1.2-3.3.4-2.5 1.1-3.3c.7-.8 1.6-1.2 2.7-1.2 1 0 1.8.4 2.5 1.1s1 1.8 1 3v.4zm-1.4-1c0-.7-.2-1.2-.6-1.7s-.9-.7-1.4-.7c-.7 0-1.2.2-1.7.7-.4.4-.7 1-.7 1.7h4.4zM161 576.2h-3.5v-10.6h-2.3v-1.1h3.6v10.6h2.2v1.1zM171.9 564.6l-.3 1.1c-.6-.2-1.2-.3-1.7-.3s-.8.1-1 .4c-.2.3-.3.8-.3 1.6v.2h2.9v1.1h-2.9v7.5h-1.3v-7.5h-2.2v-1.1h2.2v-.3c0-1.1.2-1.9.6-2.3s1-.7 2-.7c.6 0 1.3.1 2 .3zM181.1 572.2h-4.9v-1.3h4.9v1.3zM192.5 571.9h-5.9c0 1 .3 1.8.9 2.4.6.6 1.3 1 2.1 1s1.6-.1 2.4-.4l.2 1c-.8.3-1.7.5-2.7.5-1.3 0-2.3-.4-3.1-1.2-.8-.8-1.2-1.9-1.2-3.3s.4-2.5 1.1-3.3c.7-.8 1.6-1.2 2.7-1.2 1 0 1.8.4 2.5 1.1.7.8 1 1.8 1 3v.4zm-1.4-1c0-.7-.2-1.2-.6-1.7-.4-.5-.9-.7-1.4-.7-.7 0-1.2.2-1.7.7-.4.4-.7 1-.7 1.7h4.4zM202.4 576.2h-1.3V575c-.3.4-.6.8-1.1 1.1-.5.3-1 .4-1.6.4-1 0-1.8-.4-2.3-1.3-.6-.9-.9-2-.9-3.4 0-1.3.3-2.3.9-3.2.6-.8 1.4-1.2 2.4-1.2 1.1 0 2 .4 2.6 1.3v-4.2h1.3v11.7zm-1.3-2.6V570c-.6-1-1.4-1.5-2.2-1.5-.7 0-1.3.3-1.7 1s-.6 1.4-.6 2.4.2 1.8.6 2.5c.4.7.9 1 1.6 1 .3 0 .7-.1 1-.3.3-.2.6-.4.9-.8.3-.5.4-.7.4-.7zM212.6 576.2h-1.3v-1.3c-.9 1-1.9 1.5-2.9 1.5-1.6 0-2.4-1-2.4-2.9v-5.9h1.3v5.5c0 .7.1 1.3.3 1.6s.6.5 1.2.5c.8 0 1.6-.5 2.5-1.5v-6.3h1.3v8.8zM222.8 575.9c-.8.3-1.6.5-2.5.5-1.4 0-2.4-.4-3.3-1.2s-1.2-1.9-1.2-3.3.4-2.5 1.2-3.3 1.9-1.2 3.2-1.2c.9 0 1.7.2 2.5.5l-.3 1.1c-.8-.3-1.5-.4-2.1-.4-1 0-1.7.3-2.3.9-.6.6-.8 1.4-.8 2.5 0 1 .3 1.8.9 2.4.6.7 1.3 1 2.2 1 .7 0 1.5-.1 2.3-.4l.2.9zM233.3 576.2H232c-.1-.3-.2-.8-.2-1.4-.7 1.1-1.7 1.6-3 1.6-.6 0-1.2-.2-1.7-.7-.5-.5-.7-1-.7-1.8 0-.4.1-.8.3-1.1s.4-.6.8-.8c.3-.2.7-.4 1.2-.5.5-.1 1-.2 1.7-.3l1.5-.1v-.4c0-1.5-.7-2.2-2.1-2.2-.3 0-.7.1-1.2.2s-.9.3-1.3.5l-.3-.9c1.2-.6 2.3-.9 3.3-.9 2 0 3 1 3 3.1v3.7c-.3.7-.2 1.4 0 2zm-1.6-2.6V572c-1.2.1-2 .2-2.4.3-.4.1-.8.3-1.1.5-.3.2-.5.6-.5 1s.1.7.4.9.6.4 1 .4c.5 0 .9-.1 1.4-.4.5-.2.9-.6 1.2-1.1zM243.3 575.8c-.9.4-1.7.6-2.6.6-1.5 0-2.3-.8-2.3-2.4v-5.3h-1.7v-1.1h1.7v-2.4h1.3v2.4h2.9v1.1h-2.9v4.9c0 .5.1.9.3 1.2.2.3.5.4.9.4.7 0 1.4-.2 2.1-.5l.3 1.1zM253.7 571.9h-5.9c0 1 .3 1.8.9 2.4s1.3 1 2.1 1 1.6-.1 2.4-.4l.2 1c-.8.3-1.7.5-2.7.5-1.3 0-2.3-.4-3.1-1.2s-1.2-1.9-1.2-3.3.4-2.5 1.1-3.3c.7-.8 1.6-1.2 2.7-1.2 1 0 1.8.4 2.5 1.1s1 1.8 1 3v.4zm-1.4-1c0-.7-.2-1.2-.6-1.7-.4-.5-.9-.7-1.4-.7-.7 0-1.2.2-1.7.7-.4.4-.7 1-.7 1.7h4.4zM260.2 574.3c.3 0 .5.1.7.3s.3.4.3.7c0 .3-.1.6-.3.8s-.4.3-.7.3c-.3 0-.5-.1-.7-.3s-.3-.5-.3-.8.1-.5.3-.7.5-.3.7-.3zM59.5 586.1h-4.8v3.8h4.4v1.2h-4.4v5.5h-1.4v-11.7h6.2v1.2zM69.8 596.6h-1.3v-1.3c-.9 1-1.9 1.5-2.9 1.5-1.6 0-2.4-1-2.4-2.9V588h1.3v5.5c0 .7.1 1.3.3 1.6s.6.5 1.2.5c.8 0 1.6-.5 2.5-1.5V588h1.3v8.6zM80.1 596.2c-.9.4-1.7.6-2.6.6-1.5 0-2.3-.8-2.3-2.4v-5.3h-1.7V588h1.7v-2.4h1.3v2.4h2.9v1.1h-2.9v4.9c0 .5.1.9.3 1.2.2.3.5.4.9.4.7 0 1.4-.2 2.1-.5l.3 1.1zM90.2 596.6h-1.3v-1.3c-.9 1-1.9 1.5-2.9 1.5-1.6 0-2.4-1-2.4-2.9V588h1.3v5.5c0 .7.1 1.3.3 1.6s.6.5 1.2.5c.8 0 1.6-.5 2.5-1.5V588h1.3v8.6zM100.6 588.2l-.5 1.2c-.6-.2-1.1-.4-1.5-.4-.4 0-.8.1-1.1.3s-.7.5-1 .9c-.3.4-.5.6-.5.7v5.6h-1.3V588H96v1.8c.7-1.3 1.6-2 2.7-2 .6-.1 1.2.1 1.9.4zM110.9 592.3H105c0 1 .3 1.8.9 2.4.6.6 1.3 1 2.1 1s1.6-.1 2.4-.4l.2 1c-.8.3-1.7.5-2.7.5-1.3 0-2.3-.4-3.1-1.2s-1.2-1.9-1.2-3.3.4-2.5 1.1-3.3c.7-.8 1.6-1.2 2.7-1.2 1 0 1.8.4 2.5 1.1s1 1.8 1 3v.4zm-1.4-1c0-.7-.2-1.2-.6-1.7s-.9-.7-1.4-.7c-.7 0-1.2.2-1.7.7-.4.4-.7 1-.7 1.7h4.4zM125.7 589.1c.3-.4.7-.7 1.2-1 .5-.2 1-.4 1.5-.4 1 0 1.8.4 2.3 1.2.6.8.9 1.9.9 3.2 0 1.3-.3 2.4-.9 3.3-.6.9-1.4 1.3-2.4 1.3-.5 0-1-.1-1.5-.4-.5-.3-.8-.6-1.1-1.1v4.7h-1.3V588h1.3v1.1zm0 1.3v3.6c.2.5.6.9 1 1.2s.8.5 1.3.5c.7 0 1.3-.3 1.7-1 .4-.7.6-1.5.6-2.4 0-1-.2-1.8-.6-2.4s-.9-.9-1.6-.9c-1-.1-1.8.4-2.4 1.4zM141.2 596.6h-1.3v-5.5c0-.8-.1-1.3-.4-1.7-.2-.3-.6-.5-1.2-.5-.8 0-1.6.5-2.5 1.5v6.3h-1.3V585h1.3v4.3c.9-1 1.9-1.5 2.9-1.5 1.6 0 2.4 1 2.4 2.9v5.9zM151.6 596.6h-1.3c-.1-.3-.2-.8-.2-1.4-.7 1.1-1.7 1.6-3 1.6-.6 0-1.2-.2-1.7-.7-.5-.5-.7-1-.7-1.8 0-.4.1-.8.3-1.1s.4-.6.8-.8c.3-.2.7-.4 1.2-.5s1-.2 1.7-.3l1.5-.1v-.4c0-1.5-.7-2.2-2.1-2.2-.3 0-.7.1-1.2.2s-.9.3-1.3.5l-.3-.9c1.2-.6 2.3-.9 3.3-.9 2 0 3 1 3 3.1v3.7c-.2.7-.1 1.4 0 2zm-1.5-2.6v-1.6c-1.2.1-2 .2-2.4.3-.4.1-.8.3-1.1.5-.3.2-.5.6-.5 1s.1.7.4.9.6.4 1 .4c.5 0 .9-.1 1.4-.4.5-.2.9-.6 1.2-1.1zM160.7 589.2c-.7-.2-1.4-.4-2.1-.4-.7 0-1.3.1-1.7.4s-.6.5-.6.9c0 .2.1.5.3.7s.6.4 1.1.5l1.2.4c.6.2 1 .4 1.4.6.4.2.6.5.8.8.2.3.3.7.3 1.1 0 .8-.3 1.5-1 2s-1.6.7-2.6.7c-1.1 0-1.9-.2-2.6-.5l.2-1.1c.7.3 1.5.5 2.3.5.7 0 1.3-.1 1.8-.4.5-.3.7-.6.7-1.1 0-.3-.1-.6-.3-.8-.2-.2-.8-.5-1.6-.7-.7-.2-1.2-.4-1.5-.5s-.6-.3-.9-.5-.5-.4-.6-.7c-.1-.3-.2-.6-.2-.9 0-.7.3-1.3 1-1.8s1.5-.7 2.6-.7c.7 0 1.5.1 2.3.4l-.3 1.1zM172.1 592.3h-5.9c0 1 .3 1.8.9 2.4.6.6 1.3 1 2.1 1s1.6-.1 2.4-.4l.2 1c-.8.3-1.7.5-2.7.5-1.3 0-2.3-.4-3.1-1.2s-1.2-1.9-1.2-3.3.4-2.5 1.1-3.3c.7-.8 1.6-1.2 2.7-1.2 1 0 1.8.4 2.5 1.1s1 1.8 1 3v.4zm-1.4-1c0-.7-.2-1.2-.6-1.7s-.9-.7-1.4-.7c-.7 0-1.2.2-1.7.7-.4.4-.7 1-.7 1.7h4.4zM181.1 589.2c-.7-.2-1.4-.4-2-.4-.7 0-1.3.1-1.7.4s-.6.5-.6.9c0 .2.1.5.3.7s.6.4 1.1.5l1.2.4c.6.2 1 .4 1.4.6.4.2.6.5.8.8.2.3.3.7.3 1.1 0 .8-.3 1.5-1 2s-1.6.7-2.6.7c-1.1 0-1.9-.2-2.6-.5l.2-1.1c.7.3 1.5.5 2.3.5.7 0 1.3-.1 1.8-.4.5-.3.7-.6.7-1.1 0-.3-.1-.6-.3-.8-.2-.2-.8-.5-1.6-.7-.7-.2-1.2-.4-1.5-.5s-.6-.3-.9-.5-.5-.4-.6-.7c-.1-.3-.2-.6-.2-.9 0-.7.3-1.3 1-1.8s1.5-.7 2.6-.7c.7 0 1.5.1 2.3.4l-.4 1.1zM203.5 588l-1.2 8.6h-1l-2-4.9-2 4.9h-1l-1.2-8.6h1.3c.5 4 .7 6.2.7 6.4l1.6-3.8h1.3l1.6 3.7.7-6.3h1.2zM210.5 596.6h-1.3v-7.5h-2.5V588h3.8v8.6zm-.6-11.9c.2 0 .5.1.6.3.2.2.3.4.3.6 0 .3-.1.5-.3.6s-.4.3-.6.3c-.2 0-.4-.1-.6-.3-.2-.2-.3-.4-.3-.6 0-.2.1-.4.3-.6.1-.2.3-.3.6-.3zM222.2 596.6h-3.5V586h-2.3v-1.1h3.6v10.6h2.2v1.1zM232.4 596.6h-3.5V586h-2.3v-1.1h3.6v10.6h2.2v1.1zM57.5 617h-1.3v-7.5h-2.5v-1.1h3.8v8.6zm-.7-11.9c.2 0 .5.1.6.3.2.2.3.4.3.6 0 .3-.1.5-.3.6-.2.2-.4.3-.6.3-.2 0-.4-.1-.6-.3-.2-.2-.3-.4-.3-.6 0-.2.1-.4.3-.6.2-.2.4-.3.6-.3zM69.8 617h-1.3v-5.5c0-.8-.1-1.3-.4-1.7-.2-.3-.6-.5-1.2-.5-.8 0-1.6.5-2.5 1.5v6.3h-1.3v-8.6h1.3v1.3c.9-1 1.9-1.5 2.9-1.5 1.6 0 2.4 1 2.4 2.9v5.8zM80 616.7c-.8.3-1.6.5-2.5.5-1.4 0-2.4-.4-3.3-1.2-.8-.8-1.2-1.9-1.2-3.3s.4-2.5 1.2-3.3c.8-.8 1.9-1.2 3.2-1.2.9 0 1.7.2 2.5.5l-.3 1.1c-.8-.3-1.5-.4-2.1-.4-1 0-1.7.3-2.3.9-.6.6-.8 1.4-.8 2.5 0 1 .3 1.8.9 2.4.6.7 1.3 1 2.2 1 .7 0 1.5-.1 2.3-.4l.2.9zM89.6 617h-3.5v-10.6h-2.3v-1.1h3.6v10.6h2.2v1.1zM100.4 617h-1.3v-1.3c-.9 1-1.9 1.5-2.9 1.5-1.6 0-2.4-1-2.4-2.9v-5.9H95v5.5c0 .7.1 1.3.3 1.6s.6.5 1.2.5c.8 0 1.6-.5 2.5-1.5v-6.3h1.3v8.8zM110.6 617h-1.3v-1.2c-.3.4-.6.8-1.1 1.1-.5.3-1 .4-1.6.4-1 0-1.8-.4-2.3-1.3s-.9-2-.9-3.4c0-1.3.3-2.3.9-3.2.6-.8 1.4-1.2 2.4-1.2 1.1 0 2 .4 2.6 1.3v-4.2h1.3V617zm-1.3-2.6v-3.6c-.6-1-1.4-1.5-2.2-1.5-.7 0-1.3.3-1.7 1s-.6 1.4-.6 2.4.2 1.8.6 2.5c.4.7.9 1 1.6 1 .3 0 .7-.1 1-.3.3-.2.6-.4.9-.8.2-.5.4-.7.4-.7zM121.1 612.7h-5.9c0 1 .3 1.8.9 2.4.6.6 1.3 1 2.1 1s1.6-.1 2.4-.4l.2 1c-.8.3-1.7.5-2.7.5-1.3 0-2.3-.4-3.1-1.2s-1.2-1.9-1.2-3.3.4-2.5 1.1-3.3c.7-.8 1.6-1.2 2.7-1.2 1 0 1.8.4 2.5 1.1s1 1.8 1 3v.4zm-1.4-1c0-.7-.2-1.2-.6-1.7s-.9-.7-1.4-.7c-.7 0-1.2.2-1.7.7-.4.4-.7 1-.7 1.7h4.4zM141.2 617h-1.3v-1.2c-.3.4-.6.8-1.1 1.1-.5.3-1 .4-1.6.4-1 0-1.8-.4-2.3-1.3s-.9-2-.9-3.4c0-1.3.3-2.3.9-3.2.6-.8 1.4-1.2 2.4-1.2 1.1 0 2 .4 2.6 1.3v-4.2h1.3V617zm-1.3-2.6v-3.6c-.6-1-1.4-1.5-2.2-1.5-.7 0-1.3.3-1.7 1s-.6 1.4-.6 2.4.2 1.8.6 2.5c.4.7.9 1 1.6 1 .3 0 .7-.1 1-.3.3-.2.6-.4.9-.8.3-.5.4-.7.4-.7zM151.7 612.7h-5.9c0 1 .3 1.8.9 2.4.6.6 1.3 1 2.1 1s1.6-.1 2.4-.4l.2 1c-.8.3-1.7.5-2.7.5-1.3 0-2.3-.4-3.1-1.2s-1.2-1.9-1.2-3.3.4-2.5 1.1-3.3c.7-.8 1.6-1.2 2.7-1.2 1 0 1.8.4 2.5 1.1s1 1.8 1 3v.4zm-1.4-1c0-.7-.2-1.2-.6-1.7s-.9-.7-1.4-.7c-.7 0-1.2.2-1.7.7-.4.4-.7 1-.7 1.7h4.4zM161.7 605.4l-.3 1.1c-.6-.2-1.2-.3-1.7-.3s-.8.1-1 .4c-.2.3-.3.8-.3 1.6v.2h2.9v1.1h-2.9v7.5h-1.3v-7.5H155v-1.1h2.2v-.3c0-1.1.2-1.9.6-2.3s1-.7 2-.7c.5 0 1.2.1 1.9.3zM169.7 617h-1.3v-7.5h-2.5v-1.1h3.8v8.6zm-.7-11.9c.2 0 .5.1.6.3.2.2.3.4.3.6 0 .3-.1.5-.3.6-.2.2-.4.3-.6.3-.2 0-.4-.1-.6-.3-.2-.2-.3-.4-.3-.6 0-.2.1-.4.3-.6.2-.2.4-.3.6-.3zM182 617h-1.3v-5.5c0-.8-.1-1.3-.4-1.7-.2-.3-.6-.5-1.2-.5-.8 0-1.6.5-2.5 1.5v6.3h-1.3v-8.6h1.3v1.3c.9-1 1.9-1.5 2.9-1.5 1.6 0 2.4 1 2.4 2.9v5.8zM190.1 617h-1.3v-7.5h-2.5v-1.1h3.8v8.6zm-.7-11.9c.2 0 .5.1.6.3.2.2.3.4.3.6 0 .3-.1.5-.3.6s-.4.3-.6.3c-.2 0-.4-.1-.6-.3-.2-.2-.3-.4-.3-.6 0-.2.1-.4.3-.6.2-.2.4-.3.6-.3zM202.5 616.6c-.9.4-1.7.6-2.6.6-1.5 0-2.3-.8-2.3-2.4v-5.3H196v-1.1h1.7V606h1.3v2.4h2.9v1.1H199v4.9c0 .5.1.9.3 1.2.2.3.5.4.9.4.7 0 1.4-.2 2.1-.5l.2 1.1zM210.5 617h-1.3v-7.5h-2.5v-1.1h3.8v8.6zm-.6-11.9c.2 0 .5.1.6.3.2.2.3.4.3.6 0 .3-.1.5-.3.6s-.4.3-.6.3c-.2 0-.4-.1-.6-.3-.2-.2-.3-.4-.3-.6 0-.2.1-.4.3-.6.1-.2.3-.3.6-.3zM219.5 608.1c1.2 0 2.1.4 2.8 1.2s1.1 1.9 1.1 3.3-.4 2.5-1.1 3.3-1.6 1.3-2.8 1.3c-1.2 0-2.1-.4-2.8-1.2-.7-.8-1.1-1.9-1.1-3.3s.4-2.5 1.1-3.3 1.6-1.3 2.8-1.3zm0 8c.8 0 1.4-.3 1.9-1s.7-1.5.7-2.4c0-1-.2-1.8-.7-2.5-.4-.6-1.1-1-1.9-1-.8 0-1.4.3-1.9 1-.4.6-.7 1.5-.7 2.5s.2 1.8.7 2.4c.5.7 1.1 1 1.9 1zM233 617h-1.3v-5.5c0-.8-.1-1.3-.4-1.7s-.6-.5-1.2-.5c-.8 0-1.6.5-2.5 1.5v6.3h-1.3v-8.6h1.3v1.3c.9-1 1.9-1.5 2.9-1.5 1.6 0 2.4 1 2.4 2.9v5.8zM242.3 609.6c-.7-.2-1.4-.4-2-.4-.7 0-1.3.1-1.7.4-.4.2-.6.5-.6.9 0 .2.1.5.3.7.2.2.6.4 1.1.5l1.2.4c.6.2 1 .4 1.4.6.4.2.6.5.8.8s.3.7.3 1.1c0 .8-.3 1.5-1 2s-1.6.7-2.6.7c-1.1 0-1.9-.2-2.6-.5l.2-1.1c.7.3 1.5.5 2.3.5.7 0 1.3-.1 1.8-.4s.7-.6.7-1.1c0-.3-.1-.6-.3-.8-.2-.2-.8-.5-1.6-.7-.7-.2-1.2-.4-1.5-.5-.3-.1-.6-.3-.9-.5-.3-.2-.5-.4-.6-.7-.1-.3-.2-.6-.2-.9 0-.7.3-1.3 1-1.8.7-.4 1.5-.7 2.6-.7.7 0 1.5.1 2.3.4l-.4 1.1zM253.1 605.1l-5.1 12.2h-1.2l5.1-12.2h1.2zM59.8 637.4h-1.3c-.1-.3-.2-.8-.2-1.4-.7 1.1-1.7 1.6-3 1.6-.6 0-1.2-.2-1.7-.7-.5-.5-.7-1-.7-1.8 0-.4.1-.8.3-1.1s.4-.6.8-.8c.3-.2.7-.4 1.2-.5s1-.2 1.7-.3l1.5-.1v-.4c0-1.5-.7-2.2-2.1-2.2-.3 0-.7.1-1.2.2s-.9.3-1.3.5l-.3-.9c1.2-.6 2.3-.9 3.3-.9 2 0 3 1 3 3.1v3.7c-.2.7-.1 1.4 0 2zm-1.5-2.6v-1.6c-1.2.1-2 .2-2.4.3-.4.1-.8.3-1.1.5-.3.2-.5.6-.5 1s.1.7.4.9.6.4 1 .4c.5 0 .9-.1 1.4-.4.5-.2.9-.6 1.2-1.1zM69.8 637.4h-1.3v-5.5c0-.8-.1-1.3-.4-1.7-.2-.3-.6-.5-1.2-.5-.8 0-1.6.5-2.5 1.5v6.3h-1.3v-8.6h1.3v1.3c.9-1 1.9-1.5 2.9-1.5 1.6 0 2.4 1 2.4 2.9v5.8zM80 637.4h-1.3v-1.2c-.3.4-.6.8-1.1 1.1-.5.3-1 .4-1.6.4-1 0-1.8-.4-2.3-1.3s-.9-2-.9-3.4c0-1.3.3-2.3.9-3.2.6-.8 1.4-1.2 2.4-1.2 1.1 0 2 .4 2.6 1.3v-4.2H80v11.7zm-1.3-2.6v-3.6c-.6-1-1.4-1.5-2.2-1.5-.7 0-1.3.3-1.7 1s-.6 1.4-.6 2.4.2 1.8.6 2.5c.4.7.9 1 1.6 1 .3 0 .7-.1 1-.3.3-.2.6-.4.9-.8.2-.5.4-.7.4-.7zM100.6 629l-.5 1.2c-.6-.2-1.1-.4-1.5-.4-.4 0-.8.1-1.1.3s-.7.5-1 .9c-.3.4-.5.6-.5.7v5.6h-1.3v-8.6H96v1.8c.7-1.3 1.6-2 2.7-2 .6 0 1.2.2 1.9.5zM110.9 633.1H105c0 1 .3 1.8.9 2.4.6.6 1.3 1 2.1 1s1.6-.1 2.4-.4l.2 1c-.8.3-1.7.5-2.7.5-1.3 0-2.3-.4-3.1-1.2s-1.2-1.9-1.2-3.3.4-2.5 1.1-3.3c.7-.8 1.6-1.2 2.7-1.2 1 0 1.8.4 2.5 1.1s1 1.8 1 3v.4zm-1.4-1c0-.7-.2-1.2-.6-1.7s-.9-.7-1.4-.7c-.7 0-1.2.2-1.7.7-.4.4-.7 1-.7 1.7h4.4zM119.9 630c-.7-.2-1.4-.4-2.1-.4-.7 0-1.3.1-1.7.4s-.6.5-.6.9c0 .2.1.5.3.7s.6.4 1.1.5l1.2.4c.6.2 1 .4 1.4.6.4.2.6.5.8.8.2.3.3.7.3 1.1 0 .8-.3 1.5-1 2s-1.6.7-2.6.7c-1.1 0-1.9-.2-2.6-.5l.2-1.1c.7.3 1.5.5 2.3.5.7 0 1.3-.1 1.8-.4.5-.3.7-.6.7-1.1 0-.3-.1-.6-.3-.8-.2-.2-.8-.5-1.6-.7-.7-.2-1.2-.4-1.5-.5s-.6-.3-.9-.5-.5-.4-.6-.7c-.1-.3-.2-.6-.2-.9 0-.7.3-1.3 1-1.8s1.5-.7 2.6-.7c.7 0 1.5.1 2.3.4l-.3 1.1zM127.7 628.5c1.2 0 2.1.4 2.8 1.2s1.1 1.9 1.1 3.3-.4 2.5-1.1 3.3-1.6 1.3-2.8 1.3c-1.2 0-2.1-.4-2.8-1.2-.7-.8-1.1-1.9-1.1-3.3s.4-2.5 1.1-3.3 1.6-1.3 2.8-1.3zm0 8c.8 0 1.4-.3 1.9-1s.7-1.5.7-2.4c0-1-.2-1.8-.7-2.5s-1.1-1-1.9-1c-.8 0-1.4.3-1.9 1s-.7 1.5-.7 2.5.2 1.8.7 2.4c.5.7 1.1 1 1.9 1zM141.2 637.4h-1.3v-1.3c-.9 1-1.9 1.5-2.9 1.5-1.6 0-2.4-1-2.4-2.9v-5.9h1.3v5.5c0 .7.1 1.3.3 1.6s.6.5 1.2.5c.8 0 1.6-.5 2.5-1.5v-6.3h1.3v8.8zM151.6 629l-.5 1.2c-.6-.2-1.1-.4-1.5-.4-.4 0-.8.1-1.1.3s-.7.5-1 .9c-.3.4-.5.6-.5.7v5.6h-1.3v-8.6h1.3v1.8c.7-1.3 1.6-2 2.7-2 .6 0 1.2.2 1.9.5zM161.6 637.1c-.8.3-1.6.5-2.5.5-1.4 0-2.4-.4-3.3-1.2-.8-.8-1.2-1.9-1.2-3.3s.4-2.5 1.2-3.3c.8-.8 1.9-1.2 3.2-1.2.9 0 1.7.2 2.5.5l-.3 1.1c-.8-.3-1.5-.4-2.1-.4-1 0-1.7.3-2.3.9-.6.6-.8 1.4-.8 2.5 0 1 .3 1.8.9 2.4.6.7 1.3 1 2.2 1 .7 0 1.5-.1 2.3-.4l.2.9zM172.1 633.1h-5.9c0 1 .3 1.8.9 2.4.6.6 1.3 1 2.1 1s1.6-.1 2.4-.4l.2 1c-.8.3-1.7.5-2.7.5-1.3 0-2.3-.4-3.1-1.2s-1.2-1.9-1.2-3.3.4-2.5 1.1-3.3c.7-.8 1.6-1.2 2.7-1.2 1 0 1.8.4 2.5 1.1s1 1.8 1 3v.4zm-1.4-1c0-.7-.2-1.2-.6-1.7s-.9-.7-1.4-.7c-.7 0-1.2.2-1.7.7-.4.4-.7 1-.7 1.7h4.4zM181.1 630c-.7-.2-1.4-.4-2-.4-.7 0-1.3.1-1.7.4s-.6.5-.6.9c0 .2.1.5.3.7s.6.4 1.1.5l1.2.4c.6.2 1 .4 1.4.6.4.2.6.5.8.8.2.3.3.7.3 1.1 0 .8-.3 1.5-1 2s-1.6.7-2.6.7c-1.1 0-1.9-.2-2.6-.5l.2-1.1c.7.3 1.5.5 2.3.5.7 0 1.3-.1 1.8-.4.5-.3.7-.6.7-1.1 0-.3-.1-.6-.3-.8-.2-.2-.8-.5-1.6-.7-.7-.2-1.2-.4-1.5-.5s-.6-.3-.9-.5-.5-.4-.6-.7c-.1-.3-.2-.6-.2-.9 0-.7.3-1.3 1-1.8s1.5-.7 2.6-.7c.7 0 1.5.1 2.3.4l-.4 1.1zM188.8 635.5c.3 0 .5.1.7.3s.3.4.3.7c0 .3-.1.6-.3.8-.2.2-.4.3-.7.3-.3 0-.5-.1-.7-.3s-.3-.5-.3-.8.1-.5.3-.7c.2-.2.4-.3.7-.3z"/></g><path class="st2" d="M47.9 262.4H318V277H47.9z"/></svg>