<svg id="Layer_1" data-name="Layer 1" xmlns="http://www.w3.org/2000/svg" viewBox="0 0 1178.31 1246.42"><defs><style>.cls-2{fill:none;stroke:#fff;stroke-miterlimit:10;stroke-width:10px}</style></defs><path d="M514.78 185.18C403 154.47 69.63 157.83 69.63 314.5s-156.63 136.78 0 307.13S104.45 814.36 179.05 971s278.53 298.42 482.46 268.58 619.22 22.38 579.43-67.14 318.32-139.27 200.2-245-441.42-190.17-381.74-256.08 141.75-192.73 0-211.38 41-203.92-108.18-165.38S623.21 215 514.78 185.18z" fill="#42ff0d"/><path class="cls-2" d="M842 207.7l-1.5-175.3a87.74 87.74 0 00-86.6 80.2A116.85 116.85 0 00636.8 5L489.2 6.2l2 233.5 147.2-1.2h.3A116.77 116.77 0 00753.9 129a87.84 87.84 0 0088.1 78.7z"/><path class="cls-2" d="M1004 324.7l-1.5-175.3a87.74 87.74 0 00-86.6 80.2A116.85 116.85 0 00798.8 122l-147.6 1.2 2 233.5 147.2-1.2h.3A116.77 116.77 0 00915.9 246a87.84 87.84 0 0088.1 78.7z"/><path class="cls-2" d="M1130 482.7l-1.5-175.3a87.74 87.74 0 00-86.6 80.2A116.85 116.85 0 00924.8 280l-147.6 1.2 2 233.5 147.2-1.2h.3A116.77 116.77 0 001041.9 404a87.84 87.84 0 0088.1 78.7z"/></svg>