<svg id="Layer_1" data-name="Layer 1" xmlns="http://www.w3.org/2000/svg" viewBox="0 0 1178.31 1033.42"><defs><style>.cls-2{fill:none;stroke:#fff;stroke-miterlimit:10;stroke-width:10px}</style></defs><path d="M414 182.2c-89.9-24.7-358-22-358 104s-126 110 0 247 28 155 88 281 224 240 388 216 498 18 466-54 256-112 161-197-355-153-307-206 114-155 0-170 33-164-87-133-263.8-64-351-88z" fill="#42ff0d"/><path class="cls-2" d="M842 207.7l-1.5-175.3a87.74 87.74 0 00-86.6 80.2A116.85 116.85 0 00636.8 5L489.2 6.2l2 233.5 147.2-1.2h.3A116.77 116.77 0 00753.9 129a87.84 87.84 0 0088.1 78.7z"/><path class="cls-2" d="M1004 324.7l-1.5-175.3a87.74 87.74 0 00-86.6 80.2A116.85 116.85 0 00798.8 122l-147.6 1.2 2 233.5 147.2-1.2h.3A116.77 116.77 0 00915.9 246a87.84 87.84 0 0088.1 78.7z"/><path class="cls-2" d="M1130 482.7l-1.5-175.3a87.74 87.74 0 00-86.6 80.2A116.85 116.85 0 00924.8 280l-147.6 1.2 2 233.5 147.2-1.2h.3A116.77 116.77 0 001041.9 404a87.84 87.84 0 0088.1 78.7z"/></svg>