<svg version="1" id="Layer_1" xmlns="http://www.w3.org/2000/svg" viewBox="0 0 1020 1653"><style>.st1{fill:#b8b8ff}.st3{fill:#ffa31d}.st4{fill:#a06313}.st5{fill:#fff}.st7{fill:#651395}</style><path id="BOTTOM_-_BG_3_" fill="#d4d4ff" d="M0 688h1020v965H0z"/><path id="BOTTOM_-_BG_1_" class="st1" d="M0 0h1020v692H0z"/><path class="st1" d="M60 692h30v30H60zm-60 0h30v30H0zm120 0h30v31h-30zm120 0h30v30h-30zm-60 0h30v30h-30zm120 0h30v30h-30zm120 0h30v30h-30zm-60 0h30v30h-30zm120 0h30v30h-30zm120 0h30v30h-30zm-60 0h30v30h-30zm180 0h30v30h-30zm-60 0h30v30h-30zm120 0h30v31h-30zm120 0h30v30h-30zm-60 0h30v30h-30zm-535-85h10v10h-10zM30 722h30v30H30zM0 752h30v30H0zm0 60h30v30H0zm90-90h30v31H90zm120 0h30v30h-30zm-60 0h30v30h-30zm120 0h30v30h-30zm120 0h30v30h-30zm-60 0h30v30h-30zm120 0h30v30h-30zm120 0h30v30h-30zm-60 0h30v30h-30zm180 0h30v30h-30zm-60 0h30v30h-30zm120 0h30v31h-30zm120 0h30v30h-30zm-60 0h30v30h-30zM296 617h10v10h-10zm147-442h13v13h-13zM120 752h30v30h-30zm-60 0h30v30H60zm120 0h30v31h-30zm120 0h30v30h-30zm-60 0h30v30h-30zm120 0h30v30h-30zm120 0h30v30h-30zm-60 0h30v30h-30zm120 0h30v30h-30zm120 0h30v30h-30zm-60 0h30v30h-30zm180 0h30v30h-30zm-60 0h30v30h-30zm120 0h30v31h-30z"/><path class="st1" d="M305 626h10v10h-10zm595 126h30v30h-30zM90 782h30v30H90zm-60 0h30v30H30zm120 0h30v31h-30zm120 0h30v30h-30zm-60 0h30v30h-30zm120 0h30v30h-30zm120 0h30v30h-30zm-60 0h30v30h-30zm120 0h30v30h-30zm120 0h30v30h-30zm-60 0h30v30h-30zm180 0h30v30h-30zm-60 0h30v30h-30zm120 0h30v31h-30zM296 636h10v10h-10zm574 146h30v30h-30zM443 202h13v13h-13zM120 811h30v30h-30zm-60 0h30v30H60zm120 0h30v31h-30zm120 0h30v30h-30zm-60 0h30v30h-30zm120 0h30v30h-30zm120 0h30v30h-30zm-60 0h30v30h-30zm120 0h30v30h-30zm120 0h30v30h-30zm-60 0h30v30h-30zm180 0h30v30h-30zm-60 0h30v30h-30zm120 0h30v31h-30z"/><path class="st1" d="M305 645h10v10h-10zm595 166h30v30h-30zm60-119h30v30h-30zm-30 30h30v30h-30zm30 30h30v30h-30zm-30 30h30v30h-30zm60-60h30v30h-30zm0 60h30v30h-30zm-30 29h30v30h-30z"/><path d="M300 482h240v600H300zm-60 60h60v480h-60zm300 0h60v480h-60zm60 48h60v384h-60zm-420 0h60v384h-60zm-60 48h60v288h-60zm540 0h60v288h-60z" fill="#ffe000"/><path class="st3" d="M273 885h153v199H273zm153-65h394v264H426zm394 87h131v177H820z"/><path class="st4" d="M361 1084h503v24H361z"/><path class="st3" d="M448 798h328v22H448zm22-22h284v22H470zm22-22h241v22H492zm438 240h15v394h-15zm-698 0h42v658h-42z"/><path class="st3" d="M273 994h87v658h-87zm590 0h109v658H863z"/><path class="st5" d="M820 885h153v22H820zm-569 0h153v22H251zm-22 88h22v22h-22zm722 0h22v22h-22zM798 820h22v66h-22zm-22-22h22v22h-22zm-22-22h22v22h-22zm-22-22h22v22h-22zm-240-22h241v22H492zm-22 22h22v22h-22zm-22 22h22v22h-22zm-22 22h22v22h-22zm-22 22h22v66h-22zm547 87h22v66h-22zm-700 0h22v87h-22zm317-87h22v22h-22zm66 0h22v22h-22zm-44-22h44v22h-44zm-44 109h131v22H546zm110-66h22v66h-22z"/><path d="M590 820h22v66h-22zm22 21h22v66h-22zm22 0h22v66h-22zm-66 0h22v66h-22z" fill="#f0c"/><path class="st5" d="M546 841h22v66h-22z"/><path class="st7" d="M634 841h22v44h-22zm-22-21h22v22h-22z"/><path fill="#fff800" d="M590 885h22v22h-22z"/><path class="st4" d="M361 1084h22v568h-22z"/><path class="st7" d="M382 990h40v13h-40zm14 13h13v53h-13zm106-13h27v13h-27zm0 53h27v13h-27zm-53-53h27v13h-27zm-13 27h40v13h-40z"/><path class="st7" d="M436 990h13v67h-13zm53 0h13v67h-13zm80 0h13v67h-13z"/><path class="st7" d="M556 990h27v13h-27zm0 53h27v13h-27zm-14-53h13v67h-13zm-80 0h13v67h-13z"/><g id="Bell_2_"><path class="st7" d="M642 990h40v13h-40zm0 26h40v13h-40zm0 27h40v13h-40z"/><path class="st7" d="M642 1003h13v40h-13zm53-13h40v13h-40zm0 53h40v13h-40zm67 0h27v13h-27zm-67-27h27v13h-27z"/><path class="st7" d="M695 1003h13v40h-13zm53-13h13v67h-13zm67 53h27v13h-27zm-13-53h13v67h-13zm-134 13h13v40h-13z"/></g><path id="Doorway_1_" fill="#333" d="M382 1067h481v584H382z"/></svg>