<svg version="1.1" id="Layer_1" xmlns="http://www.w3.org/2000/svg" x="0" y="0" viewBox="0 0 131.5 216.1" xml:space="preserve"><style>.st0{fill:#ffa31d}.st1{fill:#a06313}.st2{fill:#fff}.st3{fill:#f0c}.st4{fill:#651395}.st6{fill:#ffe000}</style><path class="st0" d="M31.5 105.7h21.9v28.4H31.5zM53.4 96.3h56.2v37.8H53.4zM109.6 108.8h18.8V134h-18.8z"/><path class="st1" d="M44 134.1h71.9v3.4H44z"/><path class="st0" d="M56.5 93.2h46.9v3.1H56.5zM59.6 90.1h40.6v3.1H59.6zM62.8 86.9h34.4V90H62.8zM125.4 121.4h2.2v56.2h-2.2zM25.2 121.3h6.5v94.8h-6.5z"/><path class="st0" d="M31.5 121.3H44v94.8H31.5zM115.9 121.3h15.6v94.8h-15.6z"/><path class="st2" d="M109.6 105.7h21.9v3.1h-21.9zM28.4 105.7h21.9v3.1H28.4zM25.2 118.2h3.1v3.1h-3.1zM128.4 118.2h3.1v3.1h-3.1zM106.5 96.3h3.1v9.4h-3.1zM103.4 93.2h3.1v3.1h-3.1zM100.2 90.1h3.1v3.1h-3.1zM97.1 86.9h3.1V90h-3.1zM62.8 83.8h34.4v3.1H62.8zM59.6 86.9h3.1V90h-3.1zM56.5 90.1h3.1v3.1h-3.1zM53.4 93.2h3.1v3.1h-3.1zM50.2 96.3h3.1v9.4h-3.1zM128.4 108.8h3.1v9.4h-3.1zM28.4 108.8h3.1v12.5h-3.1zM73.7 96.3h3.1v3.1h-3.1zM83.1 96.3h3.1v3.1h-3.1zM76.8 93.2H83v3.1h-6.2zM70.6 108.8h18.8v3.1H70.6z"/><path class="st2" d="M86.2 99.4h3.1v9.4h-3.1z"/><path class="st3" d="M76.8 96.3h3.1v9.4h-3.1zM79.9 99.4H83v9.4h-3.1zM83.1 99.4h3.1v9.4h-3.1zM73.7 99.4h3.1v9.4h-3.1z"/><path class="st2" d="M70.6 99.4h3.1v9.4h-3.1z"/><path class="st4" d="M83.1 99.4h3.1v6.2h-3.1zM79.9 96.3H83v3.1h-3.1z"/><path fill="#fff800" d="M76.8 105.7h3.1v3.1h-3.1z"/><path class="st1" d="M44 134.1h3.1v82H44z"/><g><path class="st4" d="M47.1 120.7h5.7v1.9h-5.7z"/><path class="st4" d="M49 122.6h1.9v7.6H49zM64.3 120.7h3.8v1.9h-3.8zM64.3 128.3h3.8v1.9h-3.8zM56.6 120.7h3.8v1.9h-3.8zM54.7 124.5h5.7v1.9h-5.7z"/><path class="st4" d="M54.7 120.7h1.9v9.5h-1.9zM62.4 120.7h1.9v9.5h-1.9zM73.8 120.7h1.9v9.5h-1.9z"/><path class="st4" d="M71.9 120.7h3.8v1.9h-3.8zM71.9 128.3h3.8v1.9h-3.8zM70 120.7h1.9v9.5H70zM58.5 120.7h1.9v9.5h-1.9z"/><g id="Bell_2_"><path class="st4" d="M84.2 120.6h5.7v1.9h-5.7zM84.2 124.4h5.7v1.9h-5.7zM84.2 128.2h5.7v1.9h-5.7z"/><path class="st4" d="M84.2 122.5h1.9v5.7h-1.9zM91.8 120.6h5.7v1.9h-5.7zM91.8 128.2h5.7v1.9h-5.7zM101.3 128.2h3.8v1.9h-3.8zM91.8 124.4h3.8v1.9h-3.8z"/><path class="st4" d="M91.8 122.5h1.9v5.7h-1.9zM99.4 120.6h1.9v9.5h-1.9zM108.9 128.2h3.8v1.9h-3.8zM107 120.6h1.9v9.5H107zM88 122.5h1.9v5.7H88z"/></g></g><g id="_x37__AM_-_1"><path class="st6" d="M18.7 0h25v62.5h-25zM12.4 6.2h6.2v50h-6.2zM43.7 6.2h6.2v50h-6.2zM50 11.2h6.2v40H50zM6.2 11.2h6.2v40H6.2zM0 16.2h6.2v30H0zM56.2 16.2h6.2v30h-6.2z"/></g></svg>