<svg version="1.1" id="Layer_1" xmlns="http://www.w3.org/2000/svg" x="0" y="0" viewBox="0 0 312 400" xml:space="preserve"><style>.st1{enable-background:new}.st2{fill:#fff}.st3{fill:#23b35d}</style><path fill="#030303" d="M1 1h311v398H1z"/><g class="st1"><path class="st2" d="M89 233.2v4.6h-5v-14.3h5v4.6h15.6v5.1H89zM84 222.6v-5.1h7.9v-6H84v-5.1h20.6v5.1h-7.9v6h7.9v5.1H84zM84 205.6v-13h5v7.9h3v-5.4h4.8v5.4h3v-7.9h4.9v13H84z"/></g><g class="st1"><path class="st2" d="M82.8 248.1h10.5c5.5 0 9.5.2 12.1.7 4.2.7 8.1 2.4 11.9 5.1 3.7 2.7 6.8 6.1 9.1 10.4 2.3 4.2 3.5 8.9 3.5 14 0 4.5-.9 8.6-2.7 12.4-1.8 3.8-4.2 7-7.2 9.7-3 2.7-6.4 4.6-10.1 5.9-3.9 1.3-9.4 2-16.6 2H82.8v-60.2zm15 45.8c3.6 0 6.7-.7 9.3-2.1 2.6-1.4 4.6-3.3 5.9-5.7 1.3-2.4 2-5 2-7.8s-.7-5.4-2-7.8c-1.3-2.4-3.3-4.3-5.9-5.8-2.6-1.5-5.7-2.2-9.3-2.2h-.2v31.4h.2zM131.7 248.1h14.8v60.1h-14.8v-60.1zM149.1 248.1H187v14.4h-23.1v8.7h15.7v13.9h-15.7v23.1h-14.8v-60.1zM189.6 248.1h37.9v14.4h-23.1v8.7h15.7v13.9h-15.7v23.1h-14.8v-60.1z"/></g><path class="st3" d="M174.8 138.3V91.8h-91v91h46.6v-44.5z"/><path class="st3" d="M229.2 237.1H122.6V175h44.5v-44.5h62.1v106.6zm-91.1-15.5h75.5v-75.5h-31v44.5h-44.5v31z"/><path fill="none" d="M130.4 138.3h44.5v44.5h-44.5z"/></svg>