<svg id="Layer_1" data-name="Layer 1" xmlns="http://www.w3.org/2000/svg" viewBox="0 0 2613.92 1413.36"><defs><style>.cls-1{fill:#fff}.cls-2{fill:#27b300}</style></defs><g id="type"><path class="cls-1" d="M796.49 278.28s-113.34 15-140.74 12.46-98.4 11.26-100.89-39.86 51.06-53.56 100.89-56 357.47-22.42 382.38-10 39.86 18.69 32.39 51.07-66 39.86-95.91 39.86-97.16 2.49-97.16 2.49S859.39 741 809 801.41c-35 41.94-31.14 47.33-54.81 42.35S719.27 840 733 732.91s63.49-454.63 63.49-454.63zM1139.24 147.5c-58.69 155.66-157 642.7-157 642.7s-8.19 28.65 8.19 38.61 46.41 6.23 54.6-17.43 104.89-408.29 118.08-427.85c10.92-16.19 47.09-33 58-23s-79.11 399.78-65.49 414.73 49.14 43.59 76.44-42.35 105.79-369.31 86.68-409.17-34.81-50.44-75.76-40.48-71 39.86-71 39.86 49.14-139.5 51.87-173.13-9.55-43.6-29.35-45.46c-12.72-1.21-35.59-9.19-55.26 42.97zM493.82 1369.38C462.15 1254.5 515 1028.1 538.66 894.83s52.34-155.69 98.4-144.48 2.49 171.88 2.49 171.88l-62.9 380.52s187.46-64.15 218.6-49.2 53.56 36.12 51.07 58.54-114 74.11-194.31 92.17c-56.11 12.61-142.94 20.41-158.19-34.88zM953.43 906s-5-29.89-49.82-23.67-107.74 21.8-117.7 82.83 8.72 69.75 21.79 77.85c23.68 14.66 33.63 6.23 18.69 21.17s-29.9 66-26.16 90.93 19.93 57.3 71 48.58 115.83-44.84 118.32-71-10-61-41.1-39.86-72.24 42.35-83.45 33.63 10-57.29 29.89-69.75 77.23-34.87 77.23-48.58-10-29.89-51.07-13.7-74.73 26.16-82.21 7.48 11.21-56.05 48.58-64.77 64.77-8.68 66.01-31.14zM1243.86 961.52c-9.9-15.65-34.7-20.94-44.52-2.15s-1-14.25-2.68-20.46c-5.43-20.81-45.62-49.77-79.9-31.87s-112.86 117.21-103 183.93 23.14 91.82 47 90.29 35.91-10.6 57.89-32.12 41.66-47.64 41.66-47.64 8.28 93.88 25.74 109.12 43 21 55.28 13.13-9.76-52.06-17.14-96.36 29.56-150.21 19.67-165.87zm-94.55 85c-6.47 13.06-56.35 67.52-70.93 70.79s-16.3-7.2 2.25-61.14 72.7-99.9 72.7-99.9c36.61-1.81 3.45 75.19-4.02 90.27zM1721.07 864.53s-2.49-41.1-54.8-24.91c-67.83 21-92.17 37.36-108.36 64.77s-13.08 64.14-.63 81.58 28 10.59 31.76 20.55c3.16 8.41-51 51.19-53.55 78.47-2.5 26.16 6.22 57.3 28.64 74.74s66.64 28 100.27 8.09 78.47-44.84 74.73-74.73-26.78-35.5-48-26.78-76 79.71-94.66 46.08c-9.76-17.55 15.86-69.34 37.36-84.69 26.16-18.69 87.19-37.37 90.93-54.81s-2.49-26.15-21.17-27.4-59.17 16.82-82.21 21.17c-22.06 4.18-28-6.59-21.18-26.15 8.1-23 47.71-27.36 71-34.88 38.66-12.45 49.87-41.1 49.87-41.1zM1709.48 143.76S1730-10.06 1794.18.52c38.49 6.36-8.09 145.11-8.09 145.11s157.56-1.87 182.47 18.06 52.31 46.09 27.4 66-227.31 10-227.31 10-28 477.05-57.92 492-71.23-12.84-65.39-120.19c6.23-114.59 48-376.78 48-376.78s-194.3 31.14-198-19.93 31.14-66 72.24-69.75 141.9-1.28 141.9-1.28z"/><path class="cls-1" d="M1525.14 304.44c-65.39-6.85-204.27 134.52-179.36 254.09s81 132 112.1 124.56 142-79.72 155.7-178.12-24.64-193.85-88.44-200.53zm18.06 213.61c-14.72 36.8-56.67 104-103.38 104.63-20.27.27-23.64-94.41-16.19-127 8.1-35.5 47.33-116.46 91.55-116.46 42.97-.05 50.44 82.78 28.02 138.83zM1478.43 1088.51c2.49-52.31 62.9-313.25 62.9-313.25 0-44.84-10-49.83-51.06-28.65S1438 902.3 1438 902.3s-21.41-9.12-41.1-1.24c-37.37 14.94-77.85 43-109 101.51s6.85 168.77 44.22 172.51 81-33.63 81-33.63a507.42 507.42 0 006.23 73.49c6.23 37.36 51.07 27.4 71 12.45s-14.41-86.56-11.92-138.88zm-53.56-44.84c-11.19 39.57-31.76 51.69-55.42 60.41s-39.75-1.76-28-55.43c11.84-54.18 65.87-110.87 89.68-93.41 15.44 11.34 3.09 55.43-6.26 88.43zM2119.73 982.5c-46.76-23.56-176.08-67.16-176.08-67.16s107-103.17 92.59-145.59-42.18-66.45-64.91-65.43-70.88 26.9-70.88 26.9-2.09-11.27-5.14-13.31c-18.19-12.21-64.9-2.13-78.67 50.32s-19.9 231.56-23.12 275.42-48.32 289.69-8.62 306.09 78.56 11.83 80.76-29.53 5-341.91 5-341.91 231.62 108.78 259.58 109.33 48.75-7.21 56.89-27.17-20.64-54.39-67.4-77.96zm-172.6-152.67c-2.1 29.62-68.51 75.78-68.51 75.78l25.19-140.89c41.95.83 45.42 35.49 43.32 65.11z"/><path class="cls-2" d="M405.34 512.94S185.13 386.35 161.16 404.09s-17.56 29.83 29.22 53.5 194.33 77.1 205.36 79.9c21.42 5.42 47.7.36 9.6-24.55zM354.21 653.16s-338 16.09-350.39 51.78 3.79 43.52 72.67 33.94 279.84-40.06 293.94-45.19c27.4-9.97 44.18-42.52-16.22-40.53zM154.11 990.63S425.4 863.75 408.59 826.18c-7.53-16.83-7.91-9.88-61.3 14.83C295 865.2 131.38 936.06 122.1 944.76c-18.01 16.92-14.28 64.24 32.01 45.87zM2187.15 487.86s209.73-118.75 231.09-101.53 14.65 28.2-30.55 48.52-184.05 81.89-194.54 84.1c-20.37 4.3-43.15-9.32-6-31.09zM2570.32 576.07s-201.2 24.68-307.19 46.61c-37.94 7.85-63.52 21.47-63.52 24.91 0 20.59 10.77 25.15 82.92 25 62.81-.11 292.18-29.27 306.78-35.13 28.37-11.38 43.54-63.72-18.99-61.39zM2478.13 861.9s-143.69-51.15-223.9-72.09c-27.19-7.09-52.59-12.37-58-7.32-21.45 19.94-3.56 19.3 49.44 38.1S2460.54 904 2472.5 905.7c23.24 3.3 49.86-22.9 5.63-43.8z"/></g></svg>