<svg id="Layer_1" xmlns="http://www.w3.org/2000/svg" viewBox="0 0 458.3 573.8"><style>.st0{fill:none;stroke:#c00;stroke-width:7;stroke-miterlimit:10}.st2{fill:#d8976a}.st4{fill:#f0ffee}.st6{fill:#fff}.st11{fill:#fc9}.st12{fill:#247c15}.st16{fill:#95533b}</style><circle class="st0" cx="72.7" cy="69.6" r="52.5"/><circle class="st0" cx="448.7" cy="195.6" r="52.5"/><path d="M180.5 179.4L93.7 282.3 208.5 330zm172-220L293.7-2.3l42.8 79.7z" stroke="#ffec00" fill="none" stroke-width="7" stroke-miterlimit="10"/><circle class="st2" cx="103.7" cy="269.4" r="35.7"/><path class="st2" d="M93.4 299.6h20.7v18.1H93.4z"/><path d="M78.8 257.6c2-2 7.5-15.2 11.2-18.1 3.7-2.9 13.6 9.4 20.2 9.4s9.6-6.8 14.6-6.8c4.9 0 10 23 12.3 23 2.3 0 2.6-2.2 2.6-2.2v-7c0-2.9-1.7-15.5-4.3-18.1-2.6-2.6 7-4.2 7.7-7.6.6-3.3-9.6 2.5-6.9 1.4 2.7-1 2.6-4.5 2.6-6.1 0-1.5-8.6 2.4-8.6 2.4 2.7-1.3.7-4.6-3.5-1.3-4.3 3.4-26.2-5.3-36.8-5.3-10.7 0-18.5 15.5-18.5 15.5l-6.9-3.9s6.3 5.3 3.7 7.3c-2.6 2.1-5.2 18.3 0 22 2.3 1.9 6.5-.5 10.6-4.6z" fill="#444331"/><path class="st4" d="M61 430.6v-93.2c0-11.5 9.4-20.8 20.8-20.8h45.6c11.5 0 20.8 9.4 20.8 20.8v93.2H61z"/><path d="M148.7 430.6H61.1l-.3 68.4-.3 82.8c6.9 2.7 22.5 12.6 30 0s11.2-97.4 19-97.4c7.6 0 1.1 77.6 9 91.4 7.9 13.8 26.3 13.6 33 11l-1.4-85.3-1.4-70.9z" fill="#005b93"/><path class="st2" d="M151.6 359.5l22.6 29.6a3 3 0 01.2 3.3L140.5 446l2.8 10.8 47.6-61.2c3.1-3.9 3.1-9.4 0-13.3L159 342.5l-7.4 17z"/><path class="st6" d="M146.9 357.2l6.4 6.4 7.6-21.5L143 324z"/><path fill="none" stroke="#abaab2" stroke-width="3" stroke-miterlimit="10" d="M144.1 460.7l-5.7-20.8"/><path class="st2" d="M57.6 359s-14.7 54.5-19.5 52.8c-3.9-1.4-14.3-3.7-16.1-13.8-1.9-10.1 27-55 28-56l7.6 17z"/><path class="st4" d="M62.5 357.2l-6.3 6.4-7.6-21.5L66.4 324z"/><ellipse transform="rotate(-44.2 79.3 391.6)" cx="79.3" cy="391.6" rx="24.9" ry="42.6" fill="#b1ff5f"/><path class="st2" d="M34.7 410.6c5.4 3.3 48.9 4.9 53.3 6.5 4.3 1.7 4.8 8 12 13.2 7.3 5.3 10.4 4.5 13.5.4 2.9-4.1-12.2-14.4-11.5-15.5 1.1-1.7 4.1 2.8 6.5 3.7s.2-2.8.2-2.8-5.1-5.6-10.3-8.6c-5.2-3-34.9-8.8-47.7-15.2-13.8-6.9-16.7 2.8-16.7 2.8s-6.3 11.4.7 15.5z"/><circle class="st2" cx="61.1" cy="375.1" r="11.2"/><path d="M338.9 581.4c5 1.7 22.2 36.4 28 18s-1.8-134.2 3.8-134.2c7.2 0 10.8 109.2 16.2 125.2 5.4 15.9 11.8-1.3 18-4l3.4-105.7 1.6-66.6-36.3 1.1-36.3 1.1.2 70.9 1.4 94.2z" fill="#919191"/><path d="M380.9 374.4h-15.2a28.6 28.6 0 01-28.5-28.5v-51.6a28.6 28.6 0 0128.5-28.5H377a32.4 32.4 0 0132.4 32.4v47.6a28.6 28.6 0 01-28.5 28.6z" fill="#ff641f"/><path class="st11" d="M347.3 347.2S319.6 373 312 387.7c-7.5 14.7-12.5 36.8-12.5 36.8l8.6 2.8 14-35.5 30.6-34.7-5.4-9.9z"/><circle class="st11" cx="372.8" cy="303.7" r="29.8"/><path class="st12" d="M341.6 348.8l-8.5 33 5.3-5.3zm63.4 0l3.2 27.7-5-3.1 12.5 17.6-14.7 8.7-21.1 4.6 1.6 13.2 53-20.6-26.7-44.5z"/><path class="st11" d="M309.5 439.4l-2-7.1.7-4.9-8.6-2.8s-.7 3.7-1.1 4.9c-1.1 2.3-2.7 4.7-4.2 8.8-1.1 2.9-.1 10.2 4.2 10.6 5.4.5 8.1-7.2 8.1-9.6 0-2.5-.3 7.1 1.2 7.5 2.4.6 1.7-7.4 1.7-7.4z"/><path class="st11" d="M289.9 449.4c.7.3 1.5.1 1.8-.6l6.5-12.5c.3-.7.1-1.5-.6-1.8-.7-.3-1.5-.1-1.7.3l-6.5 12.5c-.4.9-.1 1.7.5 2.1z"/><path class="st11" d="M292.4 455.6c.7.3 1.5-.1 1.7-.8l6-16.6c.3-.7-.1-1.5-.8-1.7-.7-.3-1.5.1-1.7.8l-6 16.6c-.3.7.1 1.5.8 1.7zm4 2.6c.7.2 1.5-.3 1.7-1l4.4-17.1c.2-.7-.3-1.5-1-1.7-.7-.2-1.5.3-1.7 1l-4.4 17.1c-.2.8.3 1.5 1 1.7zm4.2 1.1c.9.1 1.7-.4 1.9-1.3l3.1-16.8c.1-.9-.4-1.7-1.3-1.9l-.7-.1c-.3-.1-.6.1-.7.5l-3.1 16.5v.1c-.2 2.3.2 2.8.8 3z"/><path d="M364.3 301.1h-6.8a5.7 5.7 0 110-11.4h6.8c3.2 0 5.7 2.6 5.7 5.7a5.6 5.6 0 01-5.7 5.7zm25.1 0h-6.8a5.7 5.7 0 110-11.4h6.8c3.2 0 5.7 2.6 5.7 5.7s-2.6 5.7-5.7 5.7zm-19.3-5.8h6.8" fill="none" stroke="#161414" stroke-width="3" stroke-miterlimit="10"/><path class="st12" d="M337.2 426.1h72.7v-65.8c0-9.5-7.8-17.4-17.4-17.4h-38.1c-9.5 0-17.4 7.8-17.4 17.4l.2 65.8z"/><path class="st11" d="M359.5 343.1l13.3 24.5 11.1-24.5z"/><path class="st12" d="M341.6 348.8s-27.9 31-30.9 36.9c-3.1 5.9-7.2 19-7.2 19l12.6 5.9 8.5-19.3 8.4-9.6"/><path class="st11" d="M378.1 416.4l-6.8 1.2s-5.9.8-8.9 2.1c-2.1.5-6.7 1.7-6.3 2.6.7 1.5 1.5 2.1 3.9 1.9-1.7 3.3-6.1 5.9-3.7 8.4.7.8 1.9.9 1.9.9s-.4 1.1.2 1.7c.6.6 2.2.5 2.2.5s-.3 1.4.3 1.9c.7.5 2.1.3 2.1.3s.3 2.2 3 1.5a15 15 0 005.1-2.7c3.7-2.7 7.7-6.7 7.7-6.7l4.5-3.8.8-1.5-6-8.3z"/><path class="st12" d="M382.2 413.4l-5.8 3.3 5.3 11 7.3-3.8z"/><path class="st6" d="M411.5 386.5l13.3-9.2 11.9 20.2-47.2 28-8.6-14.7 31.8-21.4z"/><path d="M399 405.5a2.1 2.1 0 00-3.5-1.1c-1.5 1.1-1.3 3.3-.6 4.9.6 1.3 1.7 3.7 3.4 3.7.7 0 1.6-.3 2.1-.9.7-.9.3-1.8.5-2.7.4-1.3-1.5-1.7-1.9-.5l-.1 1.6c-.3 1-.9.1-1.2-.3-.4-.5-.7-1.1-1-1.8l-.3-1.3.1-.5c0-.4.2-.5.7-.5.2 1.2 2.2.7 1.8-.6zm6.2-3.7c-.6-.6-1.5-1.6-2.4-1.6-.9 0-1.4.7-1.5 1.5a4 4 0 001.1 2.9l1.4 1.4c.2.2.8.5.6.9-.3.4-1.2.2-1.4-.3-.4-1.2-2.3-.7-1.9.5.4 1.1 1.3 1.9 2.5 1.9 1.1.1 2.5-.3 2.9-1.3s-.2-2.1-.9-2.8c-.6-.6-1.3-1.1-1.8-1.8-.1-.1-.3-.3-.3-.5 0-.3-.2-.4-.5-.2l.9.8c.7.9 2.1-.5 1.3-1.4zm7.9-3.7c-1.3-1.1-5.9-3.5-5.9-.1 0 1.2.8 2.4 1.7 3.1.5.3 1.3.5 1.7.9.6.7-.5.9-1 .7-.5-.1-.9-.5-1.2-.7-1-.8-2.4.6-1.4 1.4 1.1.9 2.3 1.7 3.8 1.3 1.2-.3 2.2-1.3 2.1-2.7-.1-1.5-1.3-1.8-2.4-2.4l-1-.9-.2-.5-.1-.3 1.1.5c.5.2 1 .5 1.4.9 1 1 2.4-.4 1.4-1.2z" fill="#e20ee2"/><path class="st11" d="M364.1 328.9h17.3V344h-17.3z"/><g><path d="M311.8 433.6c1.4 2.1 3.3 4.2 5.2 6 24.4 20.9 12.6 58.9-3.4 81.6a93.2 93.2 0 01-6.6 7.5 79.6 79.6 0 01-57.7 26.6 75.6 75.6 0 01-50.5-19.9c-2.8-3.5-6.4-6.2-7.3-10.7-.9-22.6-9-41.5-26.2-58.7-7.2-7.2-4.5-19.9-2.7-29.8.3-2.9.4-5.7.2-8.5l-.8-8.4c-5.7-18.3-2.1-38.2 17.8-47.2 19-9 12.6-34.3 24.4-50.6a32 32 0 0110-6.9 71.8 71.8 0 0161.9-3.9c6.5 2.6 14.6 5.3 18.2 11.6l12.6 22.8 4.3 7.3c18.1 19.4 26.3 44.7 3.7 66.4a16.4 16.4 0 00-4.8 8.8c.1 2.3.4 4.2 1.7 6z" fill="#082c4a"/><path class="st6" d="M296.3 575.2v-36.4h-90.7v40.5a138.7 138.7 0 0090.7-4.1z"/><circle transform="rotate(-80.8 252.3 368.7)" class="st16" cx="252.3" cy="368.7" r="40.5"/><path class="st16" d="M240.5 402.9H264v20.5h-23.5zm-31.8 117.4h84.7v18.5h-84.7zM287 435s37.7 35 47.9 55c10.2 20 17 49.9 17 49.9l-11.6 3.8-19.1-48.1-41.5-47.1L287 435z"/><path class="st6" d="M300.6 523.3h-98.7v-77.6a23.7 23.7 0 0123.6-23.6h51.6a23.7 23.7 0 0123.6 23.6l-.1 77.6z"/><path class="st6" d="M294.5 437.1l20.3 20.4-8.6 24.4-7.2-7.2zm-85.8 0l-13 17.7 1.3 27.1 7.2-7.2z"/><path d="M205.5 547.2h90.7v3.8h-90.7zm0 10.9h90.7v3.8h-90.7zm0 10.9h90.7v3.8h-90.7zm0 10.9h90.7v3.8h-90.7z" fill="#161414"/><path class="st16" d="M338.2 560l2.7-9.7-.9-6.7 11.6-3.8s.9 5.1 1.5 6.6c1.4 3.1 3.6 6.4 5.7 11.9 1.4 3.9.1 13.8-5.7 14.4-7.3.6-11-9.8-11-13 0-3.3.4 9.7-1.6 10.2-3.3 1-2.3-9.9-2.3-9.9z"/><path class="st16" d="M364.7 573.6c-.9.5-2 .1-2.4-.8l-8.8-17c-.5-.9-.1-2 .8-2.4.9-.5 2-.1 2.3.4l8.8 17c.6 1.1.2 2.3-.7 2.8z"/><path class="st16" d="M361.4 582c-1 .4-2-.2-2.3-1.1l-8.1-22.5c-.4-1 .2-2 1.1-2.3 1-.4 2 .2 2.3 1.1l8.1 22.5c.4.8-.2 1.9-1.1 2.3zm-5.4 3.5c-1 .3-2-.4-2.3-1.4l-6-23.2c-.3-1 .4-2 1.4-2.3 1-.3 2 .4 2.3 1.4l6 23.2c.2 1-.4 2-1.4 2.3zm-5.7 1.4c-1.2.2-2.3-.5-2.6-1.8l-4.2-22.8c-.2-1.2.5-2.3 1.8-2.6l1-.1c.5-.1.8.2.9.6l4.2 22.4v.1c.2 3.3-.3 4.1-1.1 4.2z"/></g><path d="M219.7 80.6H288v68.3h-68.3zM-35.5 237.1h68.3v68.3h-68.3z" fill="none" stroke="#0c00f7" stroke-width="7" stroke-miterlimit="10"/></svg>