<svg xmlns="http://www.w3.org/2000/svg" viewBox="0 0 808.3 203.3"><path d="M261 79.5c0-14.5-14.1-29.9-38.5-29.9-27.4 0-57.5 20.1-62.1 60.2-4.7 40.5 20.5 58.5 45.9 58.5s38.7-9.9 52.3-23.1c-11.7-14.7-26.8-7.9-29.7-6.4-3.2 1.6-7.3 3.8-15.7 3.8-9.8 0-19.8-4.4-19.8-22.7C256.2 113.7 261 94 261 79.5zm-31.1 2.4c-.4 4.5-2.2 12.2-34 16.5 6.7-23.8 19.5-25.6 25.4-25.6 5.5 0 9 4.3 8.6 9.1zm-106.4 3.9s-13.5 42.4-14.6 45.9c-.4-3.6-10.3-79.7-10.3-79.7-23 0-35.3 16.4-41.8 33.7 0 0-16.4 42.5-17.8 46.1-.1-3.3-2.5-45.6-2.5-45.6C35.1 65 15.7 52.1 0 52.1l19 115.3c24.1-.1 37.1-16.4 43.9-33.7 0 0 14.5-37.5 15.1-39.2.1 1.6 10.4 72.9 10.4 72.9 24.2 0 37.2-15.3 44.2-32l33.9-83.3c-23.9 0-36.5 16.3-43 33.7zm226.3-36.4c-14.9 0-26.3 8.1-35.9 20v-.1L322.5 0c-19.8 0-35.9 17.2-39 42.8l-15 123.7c11.4 0 23.5-3.3 30-11.7 5.8 7.5 14.5 13.5 27.4 13.5 33.4 0 56.3-38.8 56.3-75.2-.2-33.2-16.3-43.7-32.4-43.7zm-3.1 59.5c-3.5 20.3-14.8 34.1-25.7 34.1-11 0-15.7-4.9-15.7-4.9 2.1-17.8 3.4-28.7 7.4-38.1 4-9.4 13.5-24.4 23.4-24.4 9.7 0 14.1 12.9 10.6 33.3zm118.9-56.8h-23.3l.1-1.2c1.6-15.2 5.2-23.2 17.1-24.5 8.1-.8 11.7-5 12.6-9.6.7-3.6 2.9-16.1 2.9-16.1-46.8-.3-61.5 19.9-65.3 50.7l-.1.7h-.5c-7.6 0-16 8.6-17.4 19.5l-.5 4h15.6l-13.1 108.2-4 19.4c.5 0 1.1.1 1.6.1 21.9-.8 35.9-18.1 39-43.2l10.2-84.5h7.3c7.2 0 15.6-7.2 17.1-19.2l.7-4.3zm121.2-2c-26.9 0-52.3 19.8-60.1 50.9s4 67.9 43.6 67.9c39.5 0 62.3-38.3 62.3-70.2 0-31.7-21.5-48.6-45.8-48.6zm10.9 57.8c-1.4 14.1-7.6 35.5-24.6 35.5-17.1 0-14.7-25-13-36.9 1.8-12.7 8.9-30.8 24.2-30.8 13.7 0 15 16.3 13.4 32.2zm167.8-22.1s-13.5 42.4-14.6 45.9c-.4-3.6-10.3-79.7-10.3-79.7-23 0-35.3 16.4-41.8 33.7 0 0-16.4 42.5-17.8 46.1-.1-3.3-2.5-45.6-2.5-45.6-1.4-21.2-20.8-34.1-36.5-34.1l18.9 115.3c24.1-.1 37.1-16.4 43.9-33.7 0 0 14.5-37.5 15-39.2.2 1.6 10.4 72.9 10.4 72.9 24.2 0 37.2-15.3 44.2-32l33.9-83.3c-23.8 0-36.4 16.3-42.8 33.7zM487.6.7L468 158.8l-4 19.5c.5 0 1.1.1 1.6.1 21.1-.3 36.1-18.8 38.9-42.1l11.3-90.7C519.2 17.9 502.7.7 487.6.7z"/></svg>