<?xml version="1.0" encoding="utf-8"?>
<!-- Generator: Adobe Illustrator 22.1.0, SVG Export Plug-In . SVG Version: 6.00 Build 0)  -->
<svg version="1.1" id="Layer_1" xmlns="http://www.w3.org/2000/svg" xmlns:xlink="http://www.w3.org/1999/xlink" x="0px" y="0px"
	 viewBox="0 0 889 900" style="enable-background:new 0 0 889 900;" xml:space="preserve">
<style type="text/css">
	.st0{fill:#D07947;}
	.st1{fill:#231F20;}
	.st2{fill:#FAB68E;}
	.st3{fill:#FFFFFF;}
	.st4{fill:#E01D8D;}
	.st5{fill:#C98240;}
	.st6{fill:#41BFBF;}
	.st7{fill:#D01A86;}
	.st8{fill:#59C4C6;}
</style>
<g>
	<g>
		<line class="st0" x1="2129" y1="619.6" x2="2207.3" y2="539.5"/>
		<path class="st1" d="M2129,622.3c-0.7,0-1.4-0.3-1.9-0.8c-1.1-1-1.1-2.7,0-3.8l78.3-80.1c1-1.1,2.8-1.1,3.8,0c1.1,1,1.1,2.7,0,3.8
			l-78.3,80.1C2130.4,622.1,2129.7,622.3,2129,622.3z"/>
	</g>
	<g>
		<g>
			<path class="st2" d="M2117.9,607.6L2117.9,607.6l-467.9,0c0,0,38.8,78.6,100.6,78.6c10.5,0,28.1,0,50,0V638
				c0-7.9,6.4-14.4,14.4-14.4c7.9,0,14.4,6.4,14.4,14.4v48.2c21.1,0,44.5,0,68.6,0V638c0-7.9,6.4-14.4,14.4-14.4
				c7.9,0,14.4,6.4,14.4,14.4v48.2c23.3,0,46.6,0,68.6,0V638c0-7.9,6.4-14.4,14.4-14.4c7.9,0,14.4,6.4,14.4,14.4v48.2
				c54,0,94,0,94,0v0c21.5-0.2,38.9-17.7,38.9-39.3C2156.7,625.3,2139.3,607.9,2117.9,607.6z"/>
		</g>
		<g>
			<path class="st3" d="M2009.5,623.6c-7.9,0-14.4,6.4-14.4,14.4v48.2c9.9,0,19.5,0,28.7,0V638
				C2023.8,630,2017.4,623.6,2009.5,623.6z"/>
		</g>
		<g>
			<path class="st3" d="M1912.2,623.6c-7.9,0-14.4,6.4-14.4,14.4v48.2c9.5,0,19.1,0,28.7,0V638
				C1926.5,630,1920.1,623.6,1912.2,623.6z"/>
		</g>
		<g>
			<path class="st3" d="M1814.9,623.6c-7.9,0-14.4,6.4-14.4,14.4v48.2c8.9,0,18.5,0,28.7,0V638
				C1829.2,630,1822.8,623.6,1814.9,623.6z"/>
		</g>
	</g>
	<g>
		<g>
			<path class="st1" d="M1961.9,607.7l-88.6-229.1c-5.5-12.7-23.9-15.7-34.1-5.6l-24.8,24.6c-26.1,25.8-31.1,63.7-12.5,94.3
				l70.3,115.8H1961.9z"/>
		</g>
	</g>
	<path class="st4" d="M1882.1,401.4c-12.1,3-21.6,13.3-23.1,26.3l-14.9,133.7l28.1,46.3h25.9c4.4-4.7,7.4-10.7,8.1-17.5l10.9-98.1
		L1882.1,401.4z"/>
	<g>
		<g>
			<circle class="st1" cx="1766.2" cy="649.3" r="15.5"/>
		</g>
	</g>
	<g>
		<g>
			<circle class="st1" cx="1863.5" cy="649.3" r="15.5"/>
		</g>
	</g>
	<g>
		<g>
			<circle class="st1" cx="1960.8" cy="649.3" r="15.5"/>
		</g>
	</g>
	<g>
		<g>
			<circle class="st1" cx="2058.1" cy="649.3" r="15.5"/>
		</g>
	</g>
	<g>
		<g>
			<g>
				<path class="st1" d="M2043.1,464.5l50.4,56.6l3-304.1c3-30.4-32.9-48.7-59.6-35.5l40.7,210.5c1.7,8.7-4,17.1-12.7,18.8l0,0
					c-8.7,1.7-17.1-4-18.8-12.7l-37.2-192.4l-16.4,15.7l43.3,224.2c1.7,8.7-4,17.1-12.7,18.8h0c-8.7,1.7-17.1-4-18.8-12.7
					L1965,247.7l-17.8,17l45,233.1c1.7,8.7-4,17.1-12.7,18.8c-8.7,1.7-17.1-4-18.8-12.7l-41.1-212.8l-21.6,20.8
					c-10.2,9.8-13.6,23.8-8.9,36.6l96.6,259.2h106.8l0.4-44.1l-71.3-80L2043.1,464.5z"/>
			</g>
		</g>
		<path class="st5" d="M2077.5,392l-40.7-210.5c-3.7,1.8-7.2,4.2-10.4,7.3l-17.6,16.9l37.2,192.4c1.7,8.7,10.1,14.4,18.8,12.7l0,0
			C2073.5,409.1,2079.2,400.7,2077.5,392z"/>
		<path class="st5" d="M2035.8,445.5l-43.3-224.2l-27.5,26.4l39.4,203.8c1.7,8.7,10.1,14.4,18.8,12.7h0
			C2031.8,462.6,2037.5,454.2,2035.8,445.5z"/>
		<path class="st5" d="M1992.3,497.9l-45-233.1l-27.5,26.4l41.1,212.8c1.7,8.7,10.1,14.4,18.8,12.7
			C1988.3,515,1994,506.6,1992.3,497.9z"/>
		<polygon class="st6" points="2043.1,464.5 2021.8,483.5 2093,563.5 2093.5,521.1 		"/>
	</g>
	<g>
		<circle class="st6" cx="2019.7" cy="446.5" r="12.5"/>
	</g>
	<g>
		<path class="st2" d="M1807.8,508.5L1799,494c-2.4-4-4.5-8.1-6.2-12.4c-1.7-4.2-3-8.5-3.9-12.9c-0.9-4.3-1.5-8.7-1.6-13.1
			c-0.2-4.4,0-8.8,0.6-13.2c0.6-4.3,1.5-8.7,2.8-12.9c1.3-4.2,3-8.4,5-12.4c2-4,4.4-8,7.1-11.7c2.7-3.8,5.8-7.4,9.2-10.7l24.8-24.6
			l5.7,5.8l-24.8,24.6c-3.1,3-5.9,6.3-8.4,9.7c-2.4,3.4-4.6,6.9-6.4,10.6c-1.8,3.6-3.3,7.4-4.5,11.2c-1.2,3.8-2,7.7-2.5,11.6
			c-0.5,3.9-0.7,7.9-0.6,11.8c0.1,3.9,0.6,7.9,1.5,11.8c0.8,3.9,2,7.8,3.5,11.6c1.5,3.8,3.4,7.6,5.6,11.2l8.8,14.5L1807.8,508.5z"/>
	</g>
</g>
<rect x="-1.8" y="1.1" class="st2" width="889.9" height="897.3"/>
<path class="st1" d="M537.2,211.7L537.2,211.7c0,37.3,30.5,67.8,67.8,67.8h284.3V143.9H604.9C567.7,143.9,537.2,174.4,537.2,211.7z"
	/>
<path class="st5" d="M643.4,342c0,14.8,12,26.7,26.7,26.7h129.9c14.8,0,26.7-12,26.7-26.7c0-14.8-12-26.7-26.7-26.7H670.1
	C655.3,315.3,643.4,327.2,643.4,342z"/>
<path class="st5" d="M643.4,81.4c0,14.8,12,26.7,26.7,26.7h129.9c14.8,0,26.7-12,26.7-26.7c0-14.8-12-26.7-26.7-26.7H670.1
	C655.3,54.6,643.4,66.6,643.4,81.4z"/>
<rect x="282.4" y="335.3" transform="matrix(0.7071 -0.7071 0.7071 0.7071 -286.5402 413.6996)" class="st5" width="147.4" height="434.8"/>
<rect x="178.3" y="435" transform="matrix(-0.7071 -0.7071 0.7071 -0.7071 -17.3776 1085.3657)" class="st3" width="75.5" height="222.6"/>
<circle class="st7" cx="348.9" cy="324.2" r="32.7"/>
<circle class="st7" cx="420.3" cy="408" r="32.7"/>
<circle class="st7" cx="684.9" cy="646.2" r="32.7"/>
<circle class="st7" cx="793" cy="646.2" r="32.7"/>
<rect x="503.5" y="417.7" transform="matrix(-0.7071 -0.7071 0.7071 -0.7071 549.9124 1285.7496)" class="st3" width="75.5" height="222.6"/>
<path class="st8" d="M719.2,801.5c0-19-15.4-34.4-34.4-34.4c-19,0-34.4,15.4-34.4,34.4V905h68.7V801.5z"/>
<path class="st8" d="M830.4,801.5c0-19-15.4-34.4-34.4-34.4c-19,0-34.4,15.4-34.4,34.4V905h68.7V801.5z"/>
<path class="st8" d="M608,801.5c0-19-15.4-34.4-34.4-34.4c-19,0-34.4,15.4-34.4,34.4V905H608V801.5z"/>
<rect x="175.9" y="-1" class="st8" width="70.7" height="141.3"/>
<g>
	<path class="st3" d="M425.5,265.6l-11.2-40.5c-3.1-11.1-5.2-22.5-6.4-33.8c-1.1-11.1-1.3-22.4-0.6-33.4c0.7-10.9,2.4-21.9,5-32.5
		c2.6-10.6,6.1-21,10.4-31c4.3-10,9.5-19.7,15.5-28.9c6-9.2,12.8-18.1,20.3-26.3c7.6-8.3,16-16.1,24.9-23.1
		c9.1-7.1,18.9-13.6,29.2-19.3L588.4-45l9.7,17.6l-75.8,41.9c-9.4,5.2-18.3,11.1-26.5,17.6c-8.1,6.4-15.7,13.4-22.5,20.8
		c-6.8,7.4-12.9,15.3-18.3,23.6c-5.3,8.3-10,17-13.9,25.9c-3.9,8.9-7,18.3-9.3,27.8c-2.3,9.5-3.8,19.3-4.5,29.1
		c-0.7,9.9-0.5,20,0.5,30c1,10.1,3,20.4,5.8,30.4l11.2,40.5L425.5,265.6z"/>
</g>
<path class="st7" d="M193.1,753.6c-11.5-2.5-23.2-4-34.7-4.5c-11.4-0.6-22.8-0.2-33.9,1.1c-11,1.3-22,3.5-32.5,6.5
	c-10.5,3-20.8,7-30.6,11.7c-9.8,4.7-19.2,10.3-28.1,16.6c-8.9,6.3-17.3,13.5-25.1,21.3c-3.4,3.4-6.7,7.1-9.9,10.8v33.7
	c1.6-2.5,3.2-4.9,4.9-7.3c5.8-8.2,12.3-16,19.3-23c6.9-7,14.5-13.4,22.5-19c8-5.7,16.4-10.7,25.2-14.9c8.8-4.2,18-7.8,27.5-10.5
	c9.5-2.7,19.3-4.7,29.3-5.9c10.1-1.2,20.4-1.5,30.7-1c10.5,0.5,21.1,1.9,31.5,4.1l84.7,18l4.2-19.6L193.1,753.6z"/>
</svg>
