<?xml version="1.0" encoding="utf-8"?>
<!-- Generator: Adobe Illustrator 22.0.1, SVG Export Plug-In . SVG Version: 6.00 Build 0)  -->
<svg version="1.1" id="Layer_1" xmlns="http://www.w3.org/2000/svg" xmlns:xlink="http://www.w3.org/1999/xlink" x="0px" y="0px"
	 viewBox="0 0 1289.5 505.8" style="enable-background:new 0 0 1289.5 505.8;" xml:space="preserve">
<style type="text/css">
	.st0{opacity:0.1;}
	.st1{fill:#0017DF;}
	.st2{opacity:0.2;}
	.st3{fill:none;stroke:#0017DF;stroke-width:200;stroke-linecap:round;stroke-linejoin:round;stroke-miterlimit:10;}
	.st4{fill:#C8D3FC;}
	.st5{fill:none;stroke:#000000;stroke-width:40;stroke-miterlimit:10;}
	.st6{opacity:0.3;}
</style>
<g class="st0">
	<g>
		<path class="st1" d="M507.9,228.8c26.7,0.7,62.7,12.5,78.8,33.8c3.3,4.4,6.3,9.4,6.4,14.9c0.1,5.1-2.4,9.9-5.4,14.2
			c-19.2,27.8-64.9,55.5-94.5,39.2"/>
	</g>
</g>
<g>
	<path class="st1" d="M345.7,236.7L309,280.9c0,0-9.5-30.3,16.9-51.7L345.7,236.7z"/>
</g>
<g>
	<path class="st1" d="M263,248.5l-49.3,66.2c0,0-17.9-15.3-0.4-44.4l29-35.5L263,248.5z"/>
</g>
<g>
	<path class="st1" d="M111.5,227.3l25.7,29l-83.5,68.6c0,0-3.6-41.7,11.2-56.4C79.6,253.7,111.5,227.3,111.5,227.3z"/>
</g>
<g>
	<path class="st1" d="M65.6,162.4l16.9,32.9c0,0-72.4,76.1-80.8,68.6C-6.8,256.4,17.6,183.1,65.6,162.4z"/>
</g>
<g>
	<path class="st1" d="M247.7,335.4l4.9,101.3c0,0-116,33-130.7-17.6S247.7,335.4,247.7,335.4z"/>
</g>
<g>
	<polygon points="223,256.5 216.4,249.8 303.2,164.9 335.5,144 340.6,151.9 309.1,172.3 	"/>
</g>
<g>
	<polygon points="655,162.1 593.4,134.1 402.8,49.5 406.6,40.9 597.3,125.5 658.9,153.5 	"/>
</g>
<g>
	<polygon points="753.9,124.2 638.9,86.5 516.5,28.1 520.5,19.7 642.4,77.8 756.8,115.3 	"/>
</g>
<g>
	<rect x="655.2" y="-28.7" transform="matrix(0.4342 -0.9008 0.9008 0.4342 333.9032 619.2682)" width="9.4" height="145"/>
</g>
<g class="st2">
	<path class="st1" d="M667.4,505.8c-12.3,0-22.8-1.6-31.9-4.7C560.9,475.5,512,457,501.3,450.3c-3.4-2.1-6.2-4.7-8.5-7.8
		c-4.4-0.7-11.7-1.4-23.4-1.4c-19.7,0-59,3.1-100.6,6.3c-90.9,7.1-152.6,11.3-181,6.4c-17-3-28.5-19.2-25.5-36.2
		s19.2-28.5,36.2-25.5c5.3,0.9,20.6,2.1,63.9-0.1c31-1.6,66.8-4.4,101.5-7.1c44.7-3.5,83.3-6.5,105.5-6.5c18.6,0,33,1.5,44.2,4.5
		c12.5,3.4,22,9.2,28.2,17.2c13.1,5.5,44.3,17.7,114.2,41.6c3.7,1.3,19.7,4.4,69.8-8.5c36.1-9.3,77.6-23.5,117.7-37.3
		c57.9-19.9,108-37.1,138.3-38.3c63.2-2.5,123.3,19.3,136.4,24.4c3.1-3.1,5.4-5.6,8.3-10l0.2-0.3c10.8-16,14.4-21.5,22.5-37.7
		c7.7-15.5,26.6-21.7,42-14c15.5,7.7,21.7,26.6,14,42c-9.9,19.8-15.1,27.5-26.5,44.5l-0.2,0.3c-7.6,11.4-14,17.5-20.2,23.4
		c-2.7,2.6-5.2,5-8.1,8.1c-3.1,3.3-5.2,5.3-7.4,7.1c-8.9,7.2-17.8,8.4-23.7,8.1c-7.9-0.4-15.5-3.7-21.4-9.3
		c-1.9-1.8-3.3-3.5-4.2-4.7c-12.7-4.8-61-21.4-109.3-19.5c-21.1,0.8-73.9,18.9-120.4,34.9c-41.3,14.2-83.9,28.8-122.4,38.7
		C710.8,501.9,686.8,505.8,667.4,505.8z M498.4,443.8L498.4,443.8L498.4,443.8z M489.1,411.4L489.1,411.4L489.1,411.4z M489.1,411.4
		L489.1,411.4L489.1,411.4z M533.1,396.4C533.2,396.4,533.2,396.4,533.1,396.4C533.2,396.4,533.1,396.4,533.1,396.4z"/>
</g>
<g class="st2">
	<path class="st3" d="M1244.7,215.5"/>
</g>
<g>
	<g>
		<path class="st4" d="M317.4,97.9"/>
	</g>
	<g>
		<g>
			<path class="st5" d="M317.4,97.9"/>
		</g>
	</g>
</g>
<g>
	<g>
		<path class="st4" d="M304.5,151.9"/>
	</g>
	<g>
		<g>
			<path class="st5" d="M304.5,151.9"/>
		</g>
	</g>
</g>
<g class="st6">
	<g>
		<path class="st1" d="M685,275.6c0.4,0,0.4-0.6,0-0.6C684.6,274.9,684.6,275.6,685,275.6L685,275.6z"/>
	</g>
</g>
<g class="st0">
	<g>
		<path class="st1" d="M345.9,140.8c-0.8-7.6-0.7-15.2,0.3-22.7c-0.1,0.8-0.2,1.7-0.3,2.5c0.8-5.4,2-10.7,3.6-15.9
			c1.5-4.7-1.8-10.5-6.6-11.6c-5.1-1.2-10,1.5-11.6,6.6c-4.2,13.2-5.7,27.4-4.3,41.2c0.3,2.6,0.9,4.8,2.8,6.6
			c1.6,1.6,4.3,2.9,6.6,2.8C341.2,150,346.5,146,345.9,140.8L345.9,140.8z"/>
	</g>
</g>
<g class="st0">
	<g>
		<path class="st1" d="M220.6,251.1c-1.1-7.5-2.9-14.8-5.6-21.8c-1.7-4.3-3.3-8.2-6.2-11.8s-7.9-6.4-12.6-5.8
			c-2.6,0.3-4.7,0.8-6.6,2.8c-1.6,1.6-2.9,4.3-2.8,6.6c0.1,2.4,0.9,5,2.8,6.6c1.7,1.6,4.2,3.1,6.6,2.8c0.6-0.1,1.1-0.1,1.6,0
			c-0.8-0.1-1.7-0.2-2.5-0.3c0.4,0.1,0.8,0.2,1.1,0.3c-0.7-0.3-1.5-0.6-2.2-0.9c0.3,0.1,0.6,0.4,0.9,0.5c0.9,0.3-1.7-1.6-0.8-0.6
			c0.2,0.3,0.5,0.5,0.7,0.8c0.7,0.7-1.4-2.1-0.5-0.7c0.8,1.4,1.5,2.7,2.2,4.2c-0.3-0.7-0.6-1.5-0.9-2.2c3.3,7.9,5.5,16.1,6.7,24.5
			c0.3,2.2,2.5,4.6,4.3,5.6c2,1.2,5,1.7,7.2,0.9c2.3-0.7,4.5-2.1,5.6-4.3C221,255.9,221,253.7,220.6,251.1L220.6,251.1z"/>
	</g>
</g>
<g class="st0">
	<g>
		<path class="st1" d="M187.9,189.7c-0.1-7.8-0.1-15.6-0.2-23.4c0-4.8-0.3-9.5-2.4-13.9c-2.5-5.3-7.8-8.3-13.4-8.7
			c-4.9-0.4-9.6,4.6-9.4,9.4c0.2,5.4,4.1,9,9.4,9.4c0.1,0,0.3,0,0.4,0c-0.8-0.1-1.7-0.2-2.5-0.3c0.5,0.1,0.8,0.2,1.3,0.3
			c-0.7-0.3-1.5-0.6-2.2-0.9c0.4,0.2,1.5,0.9,0.2-0.1c-1.7-1.3,0.1,0.1,0.1,0.2c-0.1,0-1.3-2-0.6-0.8c0.2,0.4,0.4,0.8,0.6,1.2
			c-0.3-0.7-0.6-1.5-0.9-2.2c0.4,1.1,0.6,2.1,0.8,3.2c-0.1-0.8-0.2-1.7-0.3-2.5c0.5,4.7,0.2,9.6,0.3,14.4c0,4.9,0.1,9.9,0.1,14.8
			c0,4.9,4.3,9.6,9.4,9.4C183.5,198.9,187.9,195,187.9,189.7L187.9,189.7z"/>
	</g>
</g>
<g class="st0">
	<g>
		<path class="st1" d="M324.9,221.4c-3.9-2.1-7.7-4.4-11.2-7.1c-0.3-0.2-1.9-1.4-0.6-0.4s-0.3-0.2-0.5-0.4c-0.8-0.7-1.7-1.4-2.5-2.1
			c-1.7-1.5-3.4-3-5-4.6c-3.5-3.5-9.9-3.7-13.3,0c-3.4,3.8-3.7,9.6,0,13.3c6.9,6.9,14.9,12.9,23.6,17.5c4.3,2.3,10.4,1.2,12.9-3.4
			C330.5,229.9,329.5,223.9,324.9,221.4L324.9,221.4z"/>
	</g>
</g>
<g class="st0">
	<g>
		<path class="st1" d="M387.1,213.8c-0.7,0.2-1.3,0.4-2,0.5c0.8-0.1,1.7-0.2,2.5-0.3c-1,0.1-1.9,0.1-2.9,0c0.8,0.1,1.7,0.2,2.5,0.3
			c-1.1-0.2-2.1-0.4-3.2-0.9c0.7,0.3,1.5,0.6,2.2,0.9c-0.6-0.3-1.1-0.5-1.7-0.9c-0.1-0.1-0.9-0.4-0.9-0.6c0,0,2,1.8,0.8,0.5
			c-0.2-0.2-0.4-0.4-0.6-0.6c-1.2-1.2,0.7,0.7,0.6,0.8s-0.9-1.6-1-1.8c0.3,0.7,0.6,1.5,0.9,2.2c-0.6-1.5-0.9-3.2-1.1-4.8
			c-0.4-2.3-1.2-4.5-2.3-6.6c-2.3-4.3-8.7-6.1-12.9-3.4c-4.4,2.8-5.9,8.2-3.4,12.9c0.2,0.3,0.3,0.6,0.5,0.9
			c-0.3-0.7-0.6-1.5-0.9-2.2c1,2.5,1,5.3,1.9,7.9c1.2,3.3,3.1,6.4,5.8,8.7c5.5,4.6,13.1,6.8,20,4.5c4.6-1.6,8.2-6.5,6.6-11.6
			C397.2,215.8,392.1,212.2,387.1,213.8L387.1,213.8z"/>
	</g>
</g>
<g class="st0">
	<g>
		<path class="st1" d="M411.3,179.5c-0.7,0.1-1.4,0.3-2.2,0.4c2.5-0.3,5,8.4,7.5,8c-3.3,0.4-6.5-8.6-9.8-9.1c2.5,0.3,5,9.7,7.5,10
			c-4.6-0.7-9-11-13.2-12.8c2.2,0.9,4.5,1.9,6.7,2.8c-12.6-5.4-23-14.5-35.2-20.7c-8.1-4.1-16.6-7.5-25.2-10.2
			c-6.7-2.1-9.9,2.5-16.8,1.3c-9.7-1.7-16.4,1.6-26.1,2.6s-24.4,3.3-34,4.9c-14.7,2.4-19.1,8.9-33.8,11.3
			c-16.6,2.7-38.9,24.6-55.5,27.3c-3.7,0.9-13.3,6-16,8.5c-3.1,2,1.8-3.3,0,0c-2.1,3.2,9.9,20,0,0c-0.8,3.7-8.7-2.8-7.5,0.9
			c2.2,6.8,4.5,3.7,11.1,7.1c2.2,0.9,4.5,1.9,6.7,2.8c5,1.3,10,1.3,15,0c28.8-4.6,57.6-9.2,86.4-13.9c8.2-1.3,16.4-2.8,24.6-3.9
			c-2.5,0.3-5,0.7-7.5,1c7.5-1,15-1.4,22.6-0.4c-2.5-0.3-5-0.7-7.5-1c6.3,0.9,12.4,2.5,18.5,4.2c5.8,1.7,11.6,3.6,17.2,6
			c-2.2-0.9-4.5-1.9-6.7-2.8c9.2,3.9,17.4,9.4,25.7,14.8c4.1,2.7,8.3,5.2,12.7,7.4c6.3,3.1,13.1,6.1,20,7.5c3.5,0.7-21-6.8-17.5-6.3
			c1.4,0.2,2.7,0.3,4.1,0.3c1.3,0,2.5,0,3.8-0.1c3.8-0.3,7.6-0.8,11.3-1.6c3.7-0.9,5.7-4.8,8.5-7.3c3.1-2,5.5-4.6,7.3-7.9
			c2.1-3.2,9.5-1.6,9.7-5.4c0.8-3.7,9-6.9,7.8-10.7c-2.2-6.8,8.2,0.1,1.7-3.3c-2.2-0.9-4.5-1.9-6.7-2.8
			C421.3,187.1,416.3,178.1,411.3,179.5L411.3,179.5z"/>
	</g>
</g>
<g>
	<g>
		<path class="st1" d="M342.9,142.7c0-11.1,0-22.1,0-33.2c0-2.4-3.7-2.4-3.8,0c-0.4,10.1-0.9,20.1-1.3,30.2c1.3,0,2.5,0,3.8,0
			c-0.2-7.1-0.3-14.2-0.5-21.2c-0.1-5.7-0.3-11.8-3.7-16.6c-1-1.5-3.5-1-3.5,0.9c-0.3,13.4-0.5,26.7-0.8,40.1
			c1.2-0.2,2.5-0.3,3.7-0.5c-2.7-12.2-1.7-24.7-0.3-37c0.2-2.1-3.4-2.6-3.7-0.5c-2.3,15.4-5.5,30.6-9.7,45.6c-0.7,2.3,3,3.3,3.6,1
			c4.2-15,7.5-30.2,9.7-45.6c-1.2-0.2-2.5-0.3-3.7-0.5c-1.5,12.6-2.3,25.4,0.5,38c0.5,2.1,3.7,1.6,3.7-0.5
			c0.3-13.4,0.5-26.7,0.8-40.1c-1.2,0.3-2.3,0.6-3.5,0.9c3.3,4.6,3.1,10.5,3.2,15.9c0.2,6.7,0.3,13.3,0.5,20c0.1,2.4,3.7,2.4,3.8,0
			c0.4-10.1,0.9-20.1,1.3-30.2c-1.3,0-2.5,0-3.8,0c0,11.1,0,22.1,0,33.2C339.1,145.1,342.9,145.1,342.9,142.7L342.9,142.7z"/>
	</g>
</g>
<g>
	<g>
		<path class="st1" d="M188.1,179.8c-3.5-17.8-7.4-35.5-11.7-53.2c-0.4-1.8-3.2-1.8-3.6,0c-1.5,5.6,0.7,11.7,1.6,17.3
			c0.9,6.2,1.5,12.4,1.7,18.7c0.1,3,0.1,6.1,0,9.1c-0.1,2.8-0.1,5.7,0.4,8.5c0.8,4.6,4,9.2,8.8,10c1.5,0.3,2.5-0.8,2.3-2.3
			c-1.6-11-3.3-22-4.8-33c-1.5-10.9-2.5-21.9-1.8-32.9c-1.3,0-2.5,0-3.8,0c1.6,13.5,3.6,26.9,5.9,40.2c0.4,2.4,4,1.4,3.6-1
			c-2.3-13-4.2-26.1-5.8-39.2c-0.3-2.4-3.6-2.5-3.8,0c-0.7,11.2,0.4,22.3,1.9,33.4c1.5,11.2,3.2,22.4,4.9,33.5
			c0.8-0.8,1.5-1.5,2.3-2.3c-4.7-0.8-6.3-5.8-6.5-10c-0.3-5.5,0.2-11-0.1-16.5s-0.8-10.9-1.6-16.3c-0.4-2.7-0.9-5.4-1.4-8.1
			c-0.5-2.7-1-5.4-0.3-8.1c-1.2,0-2.4,0-3.6,0c4.3,17.6,8.2,35.4,11.7,53.2C184.9,183.2,188.5,182.2,188.1,179.8L188.1,179.8z"/>
	</g>
</g>
<g>
	<g>
		<path class="st1" d="M216.5,247.5c-5.4-14-10.1-28.3-14.2-42.8c-0.5-2-3.9-1.7-3.7,0.5c1.7,15.4,9.3,29.2,18.6,41.4
			c1.4,1.9,4.5,0.3,3.2-1.9c-7.6-13.5-7.4-30.4-17.8-42.5c-0.9-1.1-2.8-0.5-3.1,0.8c-0.9,3.5-0.3,7,0.5,10.4
			c0.9,3.9,1.8,7.8,2.8,11.7c1.8,7.8,3.6,15.5,5.5,23.3c1.2-0.3,2.4-0.7,3.6-1c-4-10-8-20-12-30c-1.2,0.3-2.4,0.7-3.6,1
			c4,9.8,7.3,19.9,9.9,30.1c0.6,2.3,4.2,1.3,3.6-1c-2.6-10.3-5.9-20.3-9.9-30.1c-0.9-2.2-4.5-1.3-3.6,1c4,10,8,20,12,30
			c0.9,2.2,4.2,1.4,3.6-1c-1.7-7.4-3.5-14.7-5.2-22.1c-0.9-3.6-1.7-7.3-2.6-10.9c-0.8-3.4-1.9-7-1-10.5c-1,0.3-2.1,0.6-3.1,0.8
			c5,5.8,7.3,13.1,9.4,20.3c2.1,7.3,4.1,14.8,7.8,21.5c1.1-0.6,2.2-1.3,3.2-1.9c-8.8-11.6-16.5-24.8-18.1-39.5
			c-1.2,0.2-2.5,0.3-3.7,0.5c4,14.5,8.7,28.8,14.2,42.8C213.8,250.8,217.4,249.8,216.5,247.5L216.5,247.5z"/>
	</g>
</g>
<g>
	<g>
		<path class="st1" d="M328.5,223.3c-3.7-0.9-7.5-1.8-11.1-3c-3.4-1.1-5.8-2.8-7.4-6c-1.5-3.1-2.6-6.2-4.5-9.2
			c-1.9-2.9-4.1-5.6-6.6-8c-1.8-1.7-4.1,0.8-2.7,2.7c3.9,5,8.8,9,13.7,12.9c5.4,4.3,10.9,8.6,16.3,12.9c0.6-1,1.2-2.1,1.8-3.1
			c-11-3.3-18.6-12.9-29.3-16.8c-1.7-0.6-3.3,2-1.8,3.1c4.9,3.9,10,7.3,15.3,10.4c4.1,2.4,8.9,5.2,10.3,10.1
			c0.9-0.7,1.8-1.4,2.8-2.1c-11-4.8-21.5-10.4-31.5-16.9c-2-1.3-3.9,1.9-1.9,3.2c10,6.5,20.6,12.1,31.5,16.9
			c1.4,0.6,3.3-0.4,2.8-2.1c-1.5-5.3-5.9-8.7-10.5-11.4c-5.6-3.4-11.1-6.7-16.2-10.8c-0.6,1-1.2,2.1-1.8,3.1
			c10.7,3.9,18.2,13.6,29.3,16.8c1.7,0.5,3.3-1.9,1.8-3.1c-5.4-4.3-10.9-8.6-16.3-12.9c-4.9-3.9-9.8-7.9-13.7-12.9
			c-0.9,0.9-1.8,1.8-2.7,2.7c2.7,2.6,5,5.4,6.8,8.6c1.8,3.1,2.7,6.6,4.6,9.6s4.9,4.7,8.2,5.8c3.8,1.3,7.7,2.3,11.6,3.2
			C329.9,227.5,330.9,223.8,328.5,223.3L328.5,223.3z"/>
	</g>
</g>
<g>
	<g>
		<path class="st1" d="M398.2,221.3c-7.8-1-16.6-5-18.9-13.1c-1,0.6-2.1,1.2-3.1,1.8c5.6,6.7,12.4,12.2,20.1,16.1
			c0.3-1.2,0.6-2.3,0.9-3.5c-10.2-0.2-16.7-9.4-21.8-16.9c-1,0.8-2,1.5-3,2.3c6.5,7.8,14.3,14.4,23,19.7c2.1,1.3,4-2,1.9-3.2
			c-8.4-5.1-15.9-11.5-22.3-19.1c-1.4-1.6-4.2,0.5-3,2.3c6,8.8,13.4,18.6,25.1,18.8c1.8,0,2.6-2.6,0.9-3.5
			c-7.5-3.9-14-9.1-19.4-15.6c-1.2-1.5-3.6,0.1-3.1,1.8c2.8,9.9,13.1,14.7,22.6,15.9C400.6,225.4,400.6,221.6,398.2,221.3
			L398.2,221.3z"/>
	</g>
</g>
<g>
	<path d="M637.6,503c-13.9,0-26-0.9-33.9-3.2c-32.8-9.5-56.1-26.4-76.6-41.4c-2.4-1.8-4.7-3.4-7.1-5.1
		c-21.7-15.6-42.1-28.4-70.7-26.6c-14.3,0.9-34.9,2.6-58.8,4.6c-26.1,2.2-55.7,4.7-84,6.6c-90.3,6.3-110,3-117.1-0.5
		c-5.4-2.7-10.6-4.8-15.2-6.6c-5-2-9.4-3.8-13.2-5.9c-9.4-5.4-13.7-12.6-13.7-23.6c0-12.4,16.9-24.5,50.2-35.9
		c29.6-10.2,69.7-18.7,110-23.2c24-2.7,47.8-4.3,70.8-5.9c16.5-1.1,32-2.2,46.2-3.5c25.8-2.5,56.6-6.9,65.8-18.9
		c6.1-7.9,13.2-39.5,17-56.5c1.8-8.2,3.2-14.2,4.1-17c1.3-3.8,0.7-5.8,0.1-6.9c-1.5-3-6.1-5.6-13.2-7.7
		c-16.8-4.9-33.6-12.5-44.7-17.9c-7.9-3.8-14-7.2-17.4-9.1c-6.9,5.8-26.7,22.6-47.7,39.1c-44.8,35.1-58.7,40.7-65,40.7
		c-0.4,0-0.8,0-1.1-0.1c-5.6-0.6-14.8-4.5-14.3-23.4c0-0.8,0.1-1.6,0.1-2.4c-5.3,5.5-12.2,12.4-20,19.4
		c-23.5,21.2-42.6,32.9-56.9,34.5c-7.2,0.8-13-0.7-17-4.7c-4.9-4.8-6.9-12.7-5.9-23.5c0.5-5.4,1.7-10.8,2.9-15.4
		c-12.3,6.9-34.1,18.6-56.9,29c-20.6,9.4-38.1,15.9-52,19.4c-18.9,4.8-31.5,4-38.4-2.4c-7.1-6.6-7.3-16.7-0.4-30
		c5.2-10.1,14-21.1,21.8-30.5c2.3-2.8,5.2-5.6,8.5-8.3c-8.3,3.3-16.1,6.4-22,9c-14.3,6.2-26.4,10-36.1,11.3
		c-13.6,1.8-22.7-1.2-27.2-9c-2.7-4.8-2.2-11.2,1.6-19c3.4-7,9.4-15.1,17.8-24.2c18.5-19.9,47.4-42.7,83.4-66
		c36.1-23.3,85.6-51,132.5-74.1c21.9-10.8,41.7-19.8,57.3-26.1c25.8-10.4,32.2-10,34.3-9.9c29.3,1.6,56.5,3.3,68.7,7.6
		c1.8-1.1,5.5-3.5,13.4-8.8C435,19.7,469.5,7.9,479.1,7.9c7.6,0,16.9,2,27.7,5.9c5.3,1.9,9.6,3.8,11.9,4.9
		c3.7-1.5,12.3-4.8,22.7-7.9c18.8-5.6,33.8-7.6,44.6-5.9c9.4,1.4,11,0.1,12.7-1.3c0.2-0.1,0.4-0.3,0.5-0.4c4.4-3.5,9.3-4.6,23.9-0.7
		c10,2.7,21.2,8,35.4,14.7c6.5,3.1,13.8,6.6,21.9,10.2c21.7,9.8,56.5,24.2,108,37.1c0.1,0,0.1,0,0.2,0.1l497.6,149
		c2.1,0.6,3.5,2.7,3.3,4.9c-2.2,28.4-19.9,62.8-54.3,105.2c-27.7,34.2-65.7,73.3-123,126.7c-1.5,1.4-3.9,1.7-5.7,0.6
		c-0.2-0.1-15.9-9.8-39.8-18.6c-22.1-8.2-55.7-17.4-90.8-14.5c-15.7,1.3-37.5,13.1-60.6,25.7c-26.2,14.2-55.8,30.3-85.6,36.6
		c-26.4,5.5-73.7,13.3-120,18.4C687,500.7,659.8,503,637.6,503z M454.6,417.1c12.3,0,24.2,2.5,35.9,7.5c11.7,5,22.4,12,35,21
		c2.4,1.7,4.8,3.5,7.1,5.2c20.9,15.2,42.5,30.9,73.7,40c34.1,9.9,164.2-8.1,221.5-20.1c28.5-6,57.5-21.7,83.1-35.6
		c25-13.6,46.6-25.3,64.3-26.8c16.3-1.3,33.6-0.3,51.4,3c14.2,2.6,28.8,6.7,43.4,12.1c18.8,7,32.5,14.3,38.4,17.6
		c55.5-51.9,92.5-90,119.5-123.3c31.6-39,48.6-70.5,51.9-96.2L786,73.5c-52.2-13-87.4-27.7-109.5-37.6c-8.2-3.7-15.6-7.2-22.1-10.3
		c-13.7-6.5-24.6-11.7-33.8-14.1c-12.6-3.4-14.4-1.9-15.6-1c-0.1,0.1-0.3,0.2-0.4,0.4c-3.6,2.9-7.6,5.2-20.1,3.3
		c-9.3-1.4-23.3,0.5-40.5,5.6c-13.2,3.9-23.6,8.4-23.7,8.4c-1.3,0.5-2.7,0.5-4-0.1c-0.1,0-5.5-2.7-12.9-5.4
		c-9.6-3.5-18.1-5.4-24.5-5.4c-3.1,0-12.5,2.3-24.6,6.8c-12.8,4.7-24.2,10.2-31.4,15c-3.8,2.5-6.9,4.6-9.4,6.3
		c0.3,0.6,0.5,1.3,0.5,2c0,0.6-0.1,1.3-0.4,1.9c-1.1,2.4-3.9,3.4-6.2,2.4l-4.2-1.9c-0.4-0.1-0.7-0.3-1-0.4
		c-10.7-4.4-45.9-6.3-67.1-7.4c-6.6-0.4-33.2,8.6-86.9,35c-46.5,22.9-95.7,50.4-131.5,73.6c-24.7,16-58.9,40.1-81.7,64.5
		c-17.9,19.2-19.9,29.2-18.2,32.1c4.6,8.1,23.4,5.9,51.4-6.2c23.8-10.3,76.4-29.6,76.9-29.8c2.4-0.9,5.1,0.3,6,2.7s-0.2,5.1-2.5,6.1
		c-0.4,0.2-41.5,17.8-55.9,35c-7.5,9-15.8,19.5-20.7,28.8c-7.1,13.7-3,17.5-1.6,18.7c3.9,3.6,19.5,9,80.1-18.7
		c34.4-15.7,66.2-34.4,66.5-34.5c1.7-1,3.9-0.8,5.4,0.5s2.1,3.4,1.3,5.3c0,0.1-4.9,12.7-6,24.6c-0.7,7.7,0.3,13.2,3.1,15.9
		c1.9,1.9,5.1,2.6,9.3,2.1c12.1-1.4,30-12.5,51.7-32.2c16.7-15.1,29.8-30,29.9-30.1c1.4-1.7,3.8-2.1,5.8-1c1.9,1,2.9,3.3,2.3,5.4
		c0,0.1-2.2,8-2.4,16c-0.1,4.3,0.4,7.8,1.4,10.2c1,2.3,2.3,3.3,4.5,3.6c0.4,0,4.6,0.1,21.7-11.1c9.9-6.6,22.6-15.9,37.6-27.6
		c25.7-20.1,49.6-40.8,49.9-41c1.5-1.3,3.7-1.5,5.5-0.5c0.1,0,8,4.7,19.7,10.4c10.8,5.3,27,12.6,43.2,17.3c9.9,2.9,16.1,7,18.9,12.4
		c2.1,4.1,2.3,8.9,0.4,14.3c-0.8,2.3-2.2,8.6-3.9,16c-6,26.7-11.9,51.3-18.7,60.2c-9.1,11.9-30.1,18.4-72.3,22.5
		c-14.3,1.4-29.9,2.4-46.5,3.6c-22.9,1.5-46.6,3.1-70.4,5.8c-39.6,4.5-79,12.8-108,22.8c-32.3,11.1-43.8,21.5-43.8,27
		c0,8.6,3.4,12.3,8.9,15.4c3.3,1.9,7.4,3.5,12.1,5.4c4.7,1.9,10.1,4.1,15.9,6.9c2.5,1.3,11,3.4,39.1,3c18.2-0.2,42.1-1.4,73.1-3.5
		c28.2-2,57.8-4.4,83.8-6.6c24-2,44.6-3.7,59-4.6C450.7,417.2,452.6,417.1,454.6,417.1z"/>
</g>
<g>
	<path d="M142.8,222.2l-4.3-8.4c0.5-0.3,52.5-26.8,67-37.7c8.8-6.6,40.5-15.9,67.3-22.4c13-3.2,56.1-13.3,66.5-10.3
		c13.4,3.8,95,43.7,98.5,45.4l-4.1,8.4c-23.4-11.4-86.5-41.8-97-44.8c-0.6-0.2-4.6-0.9-21.6,1.9c-11.2,1.9-25.4,4.9-40.1,8.4
		c-31.5,7.7-57.7,16.2-63.8,20.8C196,195,145,221.1,142.8,222.2z"/>
</g>
<g>
	<rect x="304.2" y="201.5" transform="matrix(0.7772 -0.6292 0.6292 0.7772 -50.6626 269.2987)" width="101.6" height="9.4"/>
</g>
</svg>
