<?xml version="1.0" encoding="utf-8"?>
<!-- Generator: Adobe Illustrator 22.0.1, SVG Export Plug-In . SVG Version: 6.00 Build 0)  -->
<svg version="1.1" id="Layer_1" xmlns="http://www.w3.org/2000/svg" xmlns:xlink="http://www.w3.org/1999/xlink" x="0px" y="0px"
	 viewBox="0 0 1572.2 3166.4" style="enable-background:new 0 0 1572.2 3166.4;" xml:space="preserve">
<style type="text/css">
	.st0{fill:#A36400;}
	.st1{opacity:0.2;}
	.st2{fill:#FFEC8D;}
	.st3{opacity:0.3;}
	.st4{fill:#F98200;}
</style>
<g>
	<path class="st0" d="M1004.4,2985.3c0,0,43.6-261.7,101.8-392.5s186.1-203.5,194.8-299.5c8.7-96,197.7-456.5,197.7-567
		s11.6-221,32-314s55.2-209.4-17.4-250.1c-72.7-40.7-161.4-16-239.9,175.9s-127.9,404.2-127.9,404.2s-8.7,101.8-52.3,101.8
		c-43.6,0,52.3-616.4,66.9-837.4c14.5-221,49.4-703.7,49.4-703.7s5.8-104.7-55.2-107.6c-61.1-2.9-107.6,2.9-130.8,81.4
		s-96,680.4-96,680.4l-26.2,308.2c0,0,11.6,101.8-58.2,93s-17.4-418.7-17.4-418.7V174.9c0,0,37.8-159.9-84.3-159.9
		S619.2,160.4,619.2,160.4l-32,761.8l-5.8,270.4c0,0,20.4,110.5-20.4,110.5s-58.2-110.5-58.2-110.5l-43.6-639.7
		c0,0,20.4-145.4-104.7-145.4s-93,162.8-93,162.8l17.4,633.9c0,0,32,116.3-17.4,116.3s-43.6-116.3-43.6-116.3L183,747.8
		c0,0-14.5-116.3-75.6-116.3S20.2,739,20.2,739s-11.6,424.5,0,500.1S78.4,1620,90,1724.7s61.1,305.3,78.5,340.2
		s55.2,148.3,78.5,191.9c23.3,43.6-29.1,459.4-29.1,459.4s29.1,20.4,113.4,66.9s244.3,116.3,351.8,157S1004.4,2985.3,1004.4,2985.3z
		"/>
	<path d="M1017.1,3000.5l-13-0.3c-8.8-0.2-217.6-4.9-326.3-46c-105.7-40-266.9-110-353.8-157.9c-84.1-46.4-113.5-66.9-114.8-67.7
		l-7.4-5.2l1.1-9c0.1-1,13.2-105,23.2-212.9c5.9-63.2,9.6-115.4,11-155c2.5-67.7-2.5-80.6-3.5-82.6c-13.4-25.2-30.6-70.4-47.3-114.2
		c-12.4-32.6-24.1-63.3-31.4-78c-10.9-21.8-29.2-90.3-42.6-147.2C94,1846.6,80.4,1774.4,75,1726.4c-12.4-111.6-63.9-447.1-69.7-485
		c-11.7-76-0.6-485.4-0.1-502.8V737l0.4-1.5c0.3-1.2,7.2-29,22-57.2c26.9-51.1,58.2-61.8,79.8-61.8c22.1,0,53,11.8,74.7,67.7
		c11.8,30.5,15.6,60.5,15.8,61.7l0.1,0.7l35,457.5v0.9c-1.4,28.1,2.4,79.1,18.3,95.8c3.1,3.3,6.3,4.8,10.3,4.8c3.7,0,5.4-1.2,6.8-3
		c11.1-14.6,4.3-64.9-3.8-94.3l-0.5-1.8L246.6,572c-2.1-11.9-15.2-94.9,25.2-144c19.3-23.5,47.2-35.4,82.8-35.4
		c38,0,67.9,12.2,88.9,36.3c38.3,44.1,32.3,112.7,30.9,124.5l43.5,637.5c0.7,4.1,5,28.5,13.2,52.4c11.4,33.1,23.3,44.8,30,44.8
		c1.3,0,2-0.2,3.2-1.6c10.7-12.8,7.8-62,2.4-91.2l-0.3-1.5v-1.5l5.8-270.7l32-761.6c0-4.2,0.8-41,16.4-78.1
		C643.1,28.3,684.8,0,741.3,0c34.8,0,61.6,11.6,79.7,34.5c37.8,47.8,22.5,128.6,19.6,142v764l-0.1,0.9
		c-0.1,0.9-11.1,87.7-16.2,180.9c-9,165.8,8.4,207.5,16.4,217.7c1.1,1.4,2.8,3.2,4.3,3.4c11.6,1.4,20.3-0.9,26.7-7.2
		c16.6-16.4,16.3-55.6,14.7-69.3l-0.2-1.5l0.1-1.5l26.2-308.5v-0.3c3-24.6,73.1-604.1,96.5-682.9c12-40.5,31.3-66.8,59-80.4
		c24.4-12,52.4-13.3,86.9-11.7c16.8,0.8,31.1,7.6,42.4,20.1c30.6,33.9,27.3,100.5,27.1,103.3v0.2c-0.3,4.8-35.1,485.2-49.4,703.6
		c-5,75.9-19.4,197.1-34.7,325.4c-13.6,114.5-27.7,232.9-36,327.2c-4.5,50.7-6.9,89.6-7.3,118.8c-0.4,27.9,1.1,41.7,2.4,48.3
		c8-4.6,15.7-17.9,21.8-38c7.2-23.7,9.3-48,9.3-48.2l0.1-1.1l0.2-1c0.5-2.1,50.6-215.6,128.7-406.5c44.7-109.2,96.8-174.8,155-195.1
		c34.7-12.1,70.4-8.2,106.1,11.8c18.5,10.4,32.2,25.6,40.7,45.4c7.2,16.8,10.8,36.6,10.9,60.5c0.1,42.1-10.6,88.9-20.9,134.2
		c-2.1,9.1-4,17.7-5.9,26.3c-20.4,93.3-31.6,203.7-31.6,310.8c0,63.6-56.3,198.1-110.7,328.1c-41,97.9-83.4,199.2-87.1,240.3
		c-5.1,56.3-47.1,104.5-91.5,155.5c-36.8,42.3-78.6,90.2-104.6,148.8c-56.7,127.6-100.2,386.3-100.7,388.9L1017.1,3000.5z
		 M233.9,2708.9c13.2,8.5,45.1,28.3,104.6,61.1c85.7,47.3,245.2,116.5,349.9,156.1c89,33.7,256,42,303.4,43.7
		c9.7-55,49.1-267.3,100.6-383.2c27.9-62.7,71.2-112.4,109.4-156.3c42.9-49.3,80-91.8,84.2-138.5c4.2-45.7,43.6-140,89.3-249.1
		c50.8-121.4,108.4-259,108.4-316.5c0-109.3,11.5-221.9,32.3-317.2c1.9-8.7,4-17.8,6-26.5c10-43.7,20.2-88.8,20.1-127.4
		c-0.1-40.6-11.6-66-36.2-79.8c-27.8-15.6-55.3-18.8-81.5-9.7c-22.9,8-45.4,25.5-67,52c-24.7,30.4-48.3,72.9-70.2,126.2
		c-74.4,182-123.2,385.1-127,400.9c-0.5,5.5-3.1,28.9-10.3,52.8c-15.3,50.9-39.4,61.6-56.9,61.6c-5.7,0-11.1-2.5-15-7
		c-9.5-10.7-17.6-34-4.2-188.3c8.3-95.7,22.7-217,36.7-334.3c15.2-127.9,29.6-248.7,34.5-323.8c14.3-217.2,48.7-693.3,49.4-703.6
		c0.8-15.9-1.1-61.1-19.5-81.5c-5.9-6.5-12.7-9.8-21.5-10.2c-29.9-1.4-53.7-0.5-72.3,8.7c-20,9.9-33.9,29.6-43.5,62
		c-22.5,75.8-93.5,662.2-95.4,677.7l-26,306.5c1.1,11.3,4.6,64.6-23.6,92.4c-9,8.9-25.3,18.9-51.5,15.6c-6.5-0.8-15.9-4-24.2-14.8
		c-12.9-16.7-20.7-48.8-23.7-98.2c-2.3-37.1-1.9-84.1,1.1-139.7c4.8-88.9,15-172.1,16.2-181.9V173.2l0.4-1.7
		c0.2-0.8,17.9-78.6-13.6-118.4c-12.2-15.5-30.5-23.1-56-23.1c-43.8,0-75,21.1-92.7,62.8c-14.1,33.2-14.4,67.3-14.4,67.6v0.6
		l-32,761.7l-5.8,268.8c0.9,5.3,3.7,22.9,4.7,43.1c1.7,34.7-2.8,57.9-13.9,71.2c-6.8,8.1-15.8,12.4-26.2,12.4
		c-24,0-43.7-22-58.5-65.4c-9.8-28.5-14.2-56.6-14.4-57.8l-0.1-0.7v-0.7l-43.7-641.3l0.2-1.5c0.1-0.6,8.5-65.5-23.7-102.4
		c-15-17.2-37.3-25.9-66.1-25.9c-26.6,0-46.1,8-59.6,24.4c-33.7,40.9-18.9,119.8-18.7,120.6l0.2,1.2v1.3l17.4,632.1
		c1.5,5.6,5.8,23.4,8.4,43.8c4.4,35.6,1.1,60.1-10.1,74.8c-7.4,9.7-18,14.9-30.6,14.9c-12.2,0-23.3-4.9-32.1-14.1
		c-29-30.5-27.1-104.6-26.6-117l-34.8-455.2c-0.4-3.1-4.2-29.3-14.1-54.7c-8.6-22-23.6-48.1-46.5-48.1c-44.7,0-69,82.9-72.3,94.7
		c-0.8,29.7-11,424.7-0.1,495.7c5.8,38,57.4,374,69.9,486.2c11.4,102.4,60.5,302.2,77,335.2c8,16.1,19.4,46.1,32.6,80.8
		c15.5,40.9,33.2,87.3,45.7,110.8c4.6,8.5,16.7,31.2-4.1,254.5C247.8,2594,237.3,2681,233.9,2708.9z"/>
</g>
<g class="st1">
	<g>
		<path class="st2" d="M1132.5,236.9c0.8,0,1.5,0.1,2.3,0.2c3.2,0.1-4.7-0.3-4.2-0.5c0.8-0.5,4,1,5,1.3c0.7,0.2,1.4,0.6,2,0.7
			c0.1,0-6.1-3.1-3.9-1.6c1.3,0.9,3,1.6,4.4,2.5c0.6,0.4,1.2,0.8,1.8,1.2c3,1.8-5.1-4.6-2.7-2c1,1.1,2.2,2,3.2,3
			c1,1.1,1.9,2.3,3,3.3c2.1,2-2.4-3.3-2.3-3.1c0.6,1.1,1.5,2.1,2.2,3.1c1.8,2.6,3.4,5.4,4.8,8.1c0.8,1.4,1.4,2.9,2.1,4.3
			c3,6.1-2.2-5.9,0.2,0.4c2.6,6.7,4.6,13.6,6.2,20.6c0.8,3.4,1.5,6.9,2,10.3c0.3,1.8,0.6,3.7,0.8,5.5c0.2,1.2,0.3,2.4,0.5,3.6
			c0.7,4.5-0.7-5.3-0.1-0.8c1.3,10.8,2.6,21.6,3.5,32.4c1.8,20.8,2.8,41.7,3.2,62.5c0.7,42.3-1.4,84.6-5.1,126.7
			c-1.8,21-4.1,41.9-6.6,62.8c-1.3,10.9-2.7,21.7-4.1,32.6c-0.3,2.4-0.6,4.8-1,7.2c-0.8,6,0.6-4.3-0.2,1.7
			c-0.8,5.6-1.5,11.2-2.3,16.9c-12.1,86.3-24.9,172.5-35.6,259c-10.5,84.8-19.5,169.8-27.2,254.9s-13.9,170.3-18.8,255.7
			c-0.6,10.6-1.2,21.1-1.7,31.7c-0.8,15.7,14.4,30.7,30,30c17-0.8,29.1-13.2,30-30c4.6-87.4,10.7-174.7,18.3-261.8
			c7.5-86.8,16.5-173.4,26.9-259.8c2.6-21.8,5.4-43.6,8.2-65.4c1.4-10.9,2.8-21.8,4.3-32.7c0.8-6-0.6,4.3,0.2-1.7
			c0.4-2.8,0.8-5.6,1.1-8.5c0.8-5.6,1.5-11.3,2.3-16.9c5.9-43,12.4-85.9,18.5-128.8c12.4-87.8,23.5-176.1,22.8-264.9
			c-0.3-43.5-2.8-87.9-10.7-130.8c-5.9-32-21.3-69-52-84.6c-10.2-5.2-20.1-7.6-31.5-8.2c-15.7-0.9-30.7,14.5-30,30
			C1103.2,224,1115.6,235.9,1132.5,236.9L1132.5,236.9z"/>
	</g>
</g>
<g class="st1">
	<g>
		<path class="st2" d="M701.1,62.9c3.1,2.7,6.2,5.6,9.1,8.6c3.3,3.4,6,8,9.5,10.9c-0.1-0.1-3.4-4.7-1.6-1.9c0.6,0.9,1.2,1.7,1.8,2.5
			c1.2,1.7,2.4,3.4,3.5,5.2c2.5,3.8,4.8,7.7,6.9,11.6c2.2,4,4.2,8,6.2,12.2c0.8,1.8,1.4,4.2,2.6,5.8c-0.1-0.1-2.2-5.4-1-2.3
			c0.5,1.3,1.1,2.6,1.6,3.9c3.2,8.2,6,16.6,8.5,25.1c5.8,19.7,10,39.9,13.3,60.2c0.8,4.9,1.6,9.9,2.3,14.9c0.9,6-0.5-4,0.3,2
			c0.4,2.9,0.7,5.8,1,8.7c1.2,10.8,2.2,21.6,3,32.5c6.3,87,1.8,174.8,0.4,261.9c-1.5,89.4-2.5,178.9-4.9,268.2
			s-9.8,177.9-18.8,266.7c-8.9,87.7-17.6,175.7-15.3,263.9c0.3,11.2,0.8,22.5,1.4,33.7c0.9,15.6,13.1,30.8,30,30
			c15.5-0.7,31-13.2,30-30c-5.2-89.4,2-178.9,10.8-267.9c8.9-89.6,18-178.9,21-268.9c3.1-90.7,3.8-181.5,5.3-272.2
			c0.8-44.8,1.5-89.5,2.3-134.3c0.7-43.7,1.3-87.4-1-131.1c-2.3-45.2-7.5-90.6-18.1-134.7c-9.3-39-24-76.5-49.1-108
			c-5.6-7.1-11.8-13.6-18.6-19.5c-11.8-10.3-31-12.5-42.4,0C690.7,31.8,688.5,51.9,701.1,62.9L701.1,62.9z"/>
	</g>
</g>
<g class="st1">
	<g>
		<path class="st2" d="M347.4,459c3.4,1,6.8,2.1,10.1,3.5c-2.4-1-4.8-2-7.2-3c5.2,2.2,10.1,4.8,14.9,7.8c1.1,0.7,2.1,1.4,3.2,2.2
			c4.8,3.5-1.9-1.3-1.8-1.5c0,0,5.8,5.1,6.3,5.6c1.8,1.8,3.6,3.6,5.3,5.5c0.8,1,1.6,2,2.4,2.9c-5.7-5.8-2.6-3.3-1-1.2
			c3.4,4.9,6.2,10.1,8.6,15.6c-1-2.4-2-4.8-3-7.2c5.2,12.3,8,25.3,9.8,38.5c-0.4-2.7-0.7-5.3-1.1-8c3.5,26.2,5.1,52.7,7.5,79.1
			c2.5,27.5,4.9,55.1,7.4,82.6c4.8,54.1,9.2,108.4,5.7,162.8c-1.8,27.1-4.9,54-6.7,81.1c-1.8,27.2-1.8,54.5-0.1,81.7
			c3.4,54.6,11.5,109.2,22.3,162.8c11.6,57.4,27.4,114,48.9,168.5c3,7.5,6.6,13.7,13.8,17.9c6.4,3.8,15.9,5.4,23.1,3
			c7.3-2.3,14.3-6.8,17.9-13.8c3.5-6.7,5.9-15.7,3-23.1c-24.8-63.1-42.1-128.8-54-195.5c-3.4-19-6.3-38-8.9-57.1
			c0.4,2.7,0.7,5.3,1.1,8c-6.2-46.3-10.1-93-7.9-139.8c2.3-46.5,9-92.7,8.8-139.4c-0.2-47.2-5-94.2-9.2-141.1
			c-2.1-23.6-4.2-47.1-6.3-70.7c-2-22.4-3.5-44.8-6.4-67.1c-1.8-13.6-3.8-27.1-8.4-40c-5.2-14.5-12-26.9-21.5-38.9
			c-15.2-19.2-37.1-33-60.6-39.7c-15.1-4.3-33.3,5.2-36.9,21C322.8,438,331.3,454.4,347.4,459L347.4,459z"/>
	</g>
</g>
<g class="st1">
	<g>
		<path class="st2" d="M79.2,687.7c0.9-0.2,1.7-0.4,2.6-0.5c-2.7,0.4-5.3,0.7-8,1.1c1.7-0.1,3.3-0.1,5.1,0c-2.7-0.4-5.3-0.7-8-1.1
			c2.1,0.3,4,0.8,5.9,1.6c-2.4-1-4.8-2-7.2-3c1.6,0.7,3,1.5,4.4,2.4c4.2,2.3-5.7-5.1-1.9-1.5c1,0.9,2,1.8,2.9,2.8
			c0.8,0.9,4.8,5.8,1.2,1.2c-3.6-4.6,0.3,0.7,0.9,1.6c0.8,1.2,1.5,2.5,2.2,3.7c1.6,2.9,3.1,5.9,4.4,9c-1-2.4-2-4.8-3-7.2
			c16.1,39,24.2,81.9,29.8,123.5c-0.4-2.7-0.7-5.3-1.1-8c9.3,70.1,10.6,141.1,17.5,211.5c7.3,74.9,18.4,149.5,33.4,223.2
			c8.3,40.5,17.7,80.6,28.4,120.5c4,15.2,21.6,25.9,36.9,21c15.6-5,25.3-20.7,21-36.9c-17.7-66.4-32.2-133.6-43.2-201.4
			c-3.2-19.4-6.1-38.9-8.7-58.4c0.4,2.7,0.7,5.3,1.1,8c-8.9-66.4-13.4-133-18-199.8c-4.6-66.2-10.9-133.4-31.3-196.9
			c-6.1-19.1-13-37-25.5-52.8c-14.1-17.9-35.6-26-57.9-21.5c-15.4,3.1-25.7,22.2-21,36.9C47.6,683.1,62.7,691.1,79.2,687.7
			L79.2,687.7z"/>
	</g>
</g>
<g class="st3">
	<g>
		<path class="st2" d="M950.3,1603.7c-5.4,37.6-17.7,73.6-32.4,108.5c1-2.4,2-4.8,3-7.2c-23.4,55.2-51.2,108.4-72.2,164.6
			c-20.8,55.8-36.6,113.4-47,172c-6.2,35-10.7,70.3-13.4,105.7c-1.2,15.7,14.7,30.7,30,30c17.3-0.8,28.7-13.2,30-30
			c1.5-19.2,3.5-38.3,6-57.3c-0.4,2.7-0.7,5.3-1.1,8c9.1-67,25-133,47.6-196.7c6.4-18.1,13.4-36,20.8-53.8c-1,2.4-2,4.8-3,7.2
			c25.7-60.8,58.4-119,77.6-182.4c5.2-17.3,9.3-34.8,11.9-52.7c1.2-8.3,1.4-15.6-3-23.1c-3.6-6.2-10.8-12.2-17.9-13.8
			c-7.7-1.7-16.3-1.4-23.1,3C958,1589.7,951.4,1596.2,950.3,1603.7L950.3,1603.7z"/>
	</g>
</g>
<g class="st3">
	<g>
		<path class="st2" d="M664,1508.4c-5.9,38.4-6.2,76.6-2.6,115.2c3.6,38.7,10,77.2,15.2,115.7c-0.4-2.7-0.7-5.3-1.1-8
			c5,37.2,8.2,74.5,7.8,112c-0.4,37.9-3.8,75.7-8.9,113.2c0.4-2.7,0.7-5.3,1.1-8c-6.5,48.1-15.6,95.8-24.7,143.4
			c-1.5,8-1.2,15.9,3,23.1c3.6,6.2,10.8,12.2,17.9,13.8c14.8,3.4,33.7-4.5,36.9-21c22-114.7,43.3-230.9,30.4-348
			c-3.8-33.9-9.2-67.7-13.7-101.5c0.4,2.7,0.7,5.3,1.1,8c-6.3-47.2-10.7-95.1-4.6-142.5c-0.4,2.7-0.7,5.3-1.1,8
			c0.3-2.5,0.7-5.1,1.1-7.6c1.3-8.3,1.4-15.6-3-23.1c-3.6-6.2-10.8-12.2-17.9-13.8c-7.7-1.7-16.3-1.4-23.1,3
			C671.7,1494.4,665.2,1500.8,664,1508.4L664,1508.4z"/>
	</g>
</g>
<g class="st3">
	<g>
		<path class="st2" d="M386.6,1558c22.4,70.7,43.2,141.9,62.4,213.6c19.2,72,36.7,144.4,52.5,217.3c8.9,40.8,17.2,81.8,25,122.9
			c2.9,15.4,22.4,25.7,36.9,21c16.5-5.3,24.1-20.4,21-36.9c-13.9-72.9-29.4-145.5-46.6-217.6c-17.3-72.5-36.3-144.6-57-216.1
			c-11.6-40.2-23.7-80.2-36.4-120c-4.7-14.9-21.1-26.1-36.9-21C392.5,1526,381.5,1542,386.6,1558L386.6,1558z"/>
	</g>
</g>
<g class="st3">
	<path d="M70.7,1639.4c0,0,256,747,289,774s141.7,197.8,275,270c144,78,582-300,582-300l-236,602c0,0-328.5-35.3-448.3-89.1
		s-338.7-179.9-338.7-179.9s72-381,57-444s-141.6-300.5-162.3-381.2C67.7,1810.4,70.7,1639.4,70.7,1639.4z"/>
</g>
<g>
	<path d="M492.7,2078.4c-7.1,0-13.3-5-14.7-12.2l-100-524c-1.6-8.1,3.8-16,11.9-17.5c8.1-1.6,16,3.8,17.5,11.9l100,524
		c1.6,8.1-3.8,16-11.9,17.5C494.6,2078.3,493.6,2078.4,492.7,2078.4z"/>
</g>
<g>
	<path d="M660.7,2114.4c-8.3,0-15-6.7-15-15v-588c0-8.3,6.7-15,15-15s15,6.7,15,15v588C675.7,2107.7,669,2114.4,660.7,2114.4z"/>
</g>
<g>
	<path d="M796.7,2138.4c-1.3,0-2.7-0.2-4-0.5c-8-2.2-12.7-10.5-10.5-18.5l148-536c2.2-8,10.5-12.7,18.5-10.5s12.7,10.5,10.5,18.5
		l-148,536C809.3,2134,803.3,2138.4,796.7,2138.4z"/>
</g>
<g>
	<g>
		<path d="M432.7,2080.4c-2.4,0-4.5-1.7-4.9-4.1l-1.1-5.9c-0.5-2.7,1.3-5.3,4-5.8s5.3,1.3,5.8,4l1.1,5.9c0.5,2.7-1.3,5.3-4,5.8
			C433.3,2080.4,433,2080.4,432.7,2080.4z"/>
	</g>
	<g>
		<path d="M426.2,2044c-2.4,0-4.5-1.7-4.9-4.1l-2.2-12.2c-0.5-2.7,1.3-5.3,4-5.8s5.3,1.3,5.8,4l2.2,12.2c0.5,2.7-1.3,5.3-4,5.8
			C426.8,2044,426.5,2044,426.2,2044z M418.5,2001.3c-2.4,0-4.5-1.7-4.9-4.1l-2.2-12.2c-0.5-2.7,1.3-5.3,4-5.8s5.3,1.3,5.8,4
			l2.2,12.2c0.5,2.7-1.3,5.3-4,5.8C419.1,2001.3,418.8,2001.3,418.5,2001.3z M410.8,1958.6c-2.4,0-4.5-1.7-4.9-4.1l-2.2-12.2
			c-0.5-2.7,1.3-5.3,4-5.8s5.3,1.3,5.8,4l2.2,12.2c0.5,2.7-1.3,5.3-4,5.8C411.4,1958.6,411.1,1958.6,410.8,1958.6z M403.2,1915.9
			c-2.4,0-4.5-1.7-4.9-4.1l-2.2-12.2c-0.5-2.7,1.3-5.3,4-5.8s5.3,1.3,5.8,4l2.2,12.2c0.5,2.7-1.3,5.3-4,5.8
			C403.8,1915.9,403.5,1915.9,403.2,1915.9z M395.5,1873.2c-2.4,0-4.5-1.7-4.9-4.1l-2.2-12.2c-0.5-2.7,1.3-5.3,4-5.8s5.3,1.3,5.8,4
			l2.2,12.2c0.5,2.7-1.3,5.3-4,5.8C396.1,1873.2,395.8,1873.2,395.5,1873.2z M387.8,1830.5c-2.4,0-4.5-1.7-4.9-4.1l-2.2-12.2
			c-0.5-2.7,1.3-5.3,4-5.8s5.3,1.3,5.8,4l2.2,12.2c0.5,2.7-1.3,5.3-4,5.8C388.4,1830.5,388.1,1830.5,387.8,1830.5z M380.1,1787.8
			c-2.4,0-4.5-1.7-4.9-4.1l-2.2-12.2c-0.5-2.7,1.3-5.3,4-5.8s5.3,1.3,5.8,4l2.2,12.2c0.5,2.7-1.3,5.3-4,5.8
			C380.7,1787.8,380.4,1787.8,380.1,1787.8z M372.5,1745.1c-2.4,0-4.5-1.7-4.9-4.1l-2.2-12.2c-0.5-2.7,1.3-5.3,4-5.8s5.3,1.3,5.8,4
			l2.2,12.2c0.5,2.7-1.3,5.3-4,5.8C373.1,1745.1,372.8,1745.1,372.5,1745.1z M364.8,1702.4c-2.4,0-4.5-1.7-4.9-4.1l-2.2-12.2
			c-0.5-2.7,1.3-5.3,4-5.8s5.3,1.3,5.8,4l2.2,12.2c0.5,2.7-1.3,5.3-4,5.8C365.4,1702.4,365.1,1702.4,364.8,1702.4z M357.1,1659.7
			c-2.4,0-4.5-1.7-4.9-4.1l-2.2-12.2c-0.5-2.7,1.3-5.3,4-5.8s5.3,1.3,5.8,4l2.2,12.2c0.5,2.7-1.3,5.3-4,5.8
			C357.7,1659.7,357.4,1659.7,357.1,1659.7z M349.5,1617c-2.4,0-4.5-1.7-4.9-4.1l-2.2-12.2c-0.5-2.7,1.3-5.3,4-5.8s5.3,1.3,5.8,4
			l2.2,12.2c0.5,2.7-1.3,5.3-4,5.8C350,1617,349.7,1617,349.5,1617z"/>
	</g>
	<g>
		<path d="M341.8,1574.3c-2.4,0-4.5-1.7-4.9-4.1l-1.1-5.9c-0.5-2.7,1.3-5.3,4-5.8s5.3,1.3,5.8,4l1.1,5.9c0.5,2.7-1.3,5.3-4,5.8
			C342.4,1574.3,342.1,1574.3,341.8,1574.3z"/>
	</g>
</g>
<g>
	<g>
		<path d="M612.7,2116.4L612.7,2116.4c-2.8,0-5-2.3-5-5v-6c0-2.8,2.3-5,5-5l0,0c2.8,0,5,2.3,5,5v6
			C617.7,2114.2,615.5,2116.4,612.7,2116.4z"/>
	</g>
	<g>
		<path d="M613,2080C613,2080,612.9,2080,613,2080c-2.8,0-5-2.3-5-5l0.1-12.2c0-2.7,2.3-5,5-5l0,0c2.8,0,5,2.3,5,5L618,2075
			C618,2077.8,615.7,2080,613,2080z M613.3,2037.4C613.2,2037.4,613.2,2037.4,613.3,2037.4c-2.8,0-5-2.3-5-5l0.1-12.2
			c0-2.8,2.3-5,5-5l0,0c2.8,0,5,2.3,5,5l-0.1,12.2C618.2,2035.2,616,2037.4,613.3,2037.4z M613.5,1994.8L613.5,1994.8
			c-2.8,0-5-2.3-5-5l0.1-12.2c0-2.8,2.3-5,5-5l0,0c2.8,0,5,2.3,5,5l-0.1,12.2C618.5,1992.6,616.3,1994.8,613.5,1994.8z
			 M613.8,1952.2L613.8,1952.2c-2.8,0-5-2.3-5-5l0.1-12.2c0-2.7,2.3-5,5-5l0,0c2.8,0,5,2.3,5,5l-0.1,12.2
			C618.8,1950,616.6,1952.2,613.8,1952.2z M614.1,1909.6L614.1,1909.6c-2.8,0-5-2.3-5-5l0.1-12.2c0-2.8,2.3-5,5-5l0,0
			c2.8,0,5,2.3,5,5l-0.1,12.2C619.1,1907.4,616.9,1909.6,614.1,1909.6z M614.4,1867.1L614.4,1867.1c-2.8,0-5-2.3-5-5l0.1-12.2
			c0-2.8,2.3-4.9,5-5c2.8,0,5,2.3,5,5l-0.1,12.2C619.4,1864.8,617.1,1867.1,614.4,1867.1z M614.7,1824.5L614.7,1824.5
			c-2.8,0-5-2.3-5-5l0.1-12.2c0-2.7,2.3-5,5-5l0,0c2.8,0,5,2.3,5,5l-0.1,12.2C619.7,1822.3,617.4,1824.5,614.7,1824.5z M615,1781.9
			C615,1781.9,614.9,1781.9,615,1781.9c-2.8,0-5-2.3-5-5l0.1-12.2c0-2.8,2.3-5,5-5l0,0c2.8,0,5,2.3,5,5l-0.1,12.2
			C620,1779.7,617.7,1781.9,615,1781.9z M615.3,1739.3C615.2,1739.3,615.2,1739.3,615.3,1739.3c-2.8,0-5-2.3-5-5l0.1-12.2
			c0-2.8,2.3-5,5-5l0,0c2.8,0,5,2.3,5,5l-0.1,12.2C620.2,1737.1,618,1739.3,615.3,1739.3z M615.5,1696.7L615.5,1696.7
			c-2.8,0-5-2.3-5-5l0.1-12.2c0-2.8,2.3-5,5-5c2.8,0,5,2.3,5,5l-0.1,12.2C620.5,1694.5,618.3,1696.7,615.5,1696.7z M615.8,1654.1
			L615.8,1654.1c-2.8,0-5-2.3-5-5l0.1-12.2c0-2.8,2.3-5,5-5l0,0c2.8,0,5,2.3,5,5l-0.1,12.2C620.8,1651.9,618.6,1654.1,615.8,1654.1z
			 M616.1,1611.6L616.1,1611.6c-2.8,0-5-2.3-5-5l0.1-12.2c0-2.8,2.3-5,5-5l0,0c2.8,0,5,2.3,5,5l-0.1,12.2
			C621.1,1609.3,618.9,1611.6,616.1,1611.6z M616.4,1569L616.4,1569c-2.8,0-5-2.3-5-5l0.1-12.2c0-2.8,2.3-5,5-5l0,0c2.8,0,5,2.3,5,5
			l-0.1,12.2C621.4,1566.7,619.1,1569,616.4,1569z"/>
	</g>
	<g>
		<path d="M616.7,1526.4L616.7,1526.4c-2.8,0-5-2.3-5-5v-6c0-2.8,2.3-5,5-5l0,0c2.8,0,5,2.3,5,5v6
			C621.7,1524.2,619.4,1526.4,616.7,1526.4z"/>
	</g>
</g>
<g>
	<g>
		<path d="M752.7,2116.4c-0.4,0-0.8-0.1-1.3-0.2c-2.7-0.7-4.3-3.4-3.6-6.1l1.5-5.8c0.7-2.7,3.4-4.3,6.1-3.6c2.7,0.7,4.3,3.4,3.6,6.1
			l-1.5,5.8C757,2114.9,754.9,2116.4,752.7,2116.4z"/>
	</g>
	<g>
		<path d="M761.9,2081.1c-0.4,0-0.8-0.1-1.3-0.2c-2.7-0.7-4.3-3.4-3.6-6.1l3.1-11.8c0.7-2.7,3.4-4.3,6.1-3.6
			c2.7,0.7,4.3,3.4,3.6,6.1l-3.1,11.8C766.2,2079.6,764.2,2081.1,761.9,2081.1z M772.7,2039.9c-0.4,0-0.8-0.1-1.3-0.2
			c-2.7-0.7-4.3-3.4-3.6-6.1l3.1-11.8c0.7-2.7,3.4-4.3,6.1-3.6c2.7,0.7,4.3,3.4,3.6,6.1l-3.1,11.8
			C777,2038.4,774.9,2039.9,772.7,2039.9z M783.5,1998.6c-0.4,0-0.8-0.1-1.3-0.2c-2.7-0.7-4.3-3.4-3.6-6.1l3.1-11.8
			c0.7-2.7,3.4-4.3,6.1-3.6c2.7,0.7,4.3,3.4,3.6,6.1l-3.1,11.8C787.7,1997.1,785.7,1998.6,783.5,1998.6z M794.3,1957.4
			c-0.4,0-0.8-0.1-1.3-0.2c-2.7-0.7-4.3-3.4-3.6-6.1l3.1-11.8c0.7-2.7,3.4-4.3,6.1-3.6c2.7,0.7,4.3,3.4,3.6,6.1l-3.1,11.8
			C798.5,1955.9,796.5,1957.4,794.3,1957.4z M805,1916.1c-0.4,0-0.8-0.1-1.3-0.2c-2.7-0.7-4.3-3.4-3.6-6.1l3.1-11.8
			c0.7-2.7,3.4-4.3,6.1-3.6c2.7,0.7,4.3,3.4,3.6,6.1l-3.1,11.8C809.3,1914.7,807.3,1916.1,805,1916.1z M815.8,1874.9
			c-0.4,0-0.8-0.1-1.3-0.2c-2.7-0.7-4.3-3.4-3.6-6.1l3.1-11.8c0.7-2.7,3.4-4.3,6.1-3.6c2.7,0.7,4.3,3.4,3.6,6.1l-3.1,11.8
			C820.1,1873.4,818,1874.9,815.8,1874.9z M826.6,1833.7c-0.4,0-0.8-0.1-1.3-0.2c-2.7-0.7-4.3-3.4-3.6-6.1l3.1-11.8
			c0.7-2.7,3.4-4.3,6.1-3.6c2.7,0.7,4.3,3.4,3.6,6.1l-3.1,11.8C830.8,1832.2,828.8,1833.7,826.6,1833.7z M837.3,1792.4
			c-0.4,0-0.8-0.1-1.3-0.2c-2.7-0.7-4.3-3.4-3.6-6.1l3.1-11.8c0.7-2.7,3.4-4.3,6.1-3.6c2.7,0.7,4.3,3.4,3.6,6.1l-3.1,11.8
			C841.6,1790.9,839.6,1792.4,837.3,1792.4z M848.1,1751.2c-0.4,0-0.8-0.1-1.3-0.2c-2.7-0.7-4.3-3.4-3.6-6.1l3.1-11.8
			c0.7-2.7,3.4-4.3,6.1-3.6c2.7,0.7,4.3,3.4,3.6,6.1l-3.1,11.8C852.4,1749.7,850.3,1751.2,848.1,1751.2z M858.9,1709.9
			c-0.4,0-0.8-0.1-1.3-0.2c-2.7-0.7-4.3-3.4-3.6-6.1l3.1-11.8c0.7-2.7,3.4-4.3,6.1-3.6c2.7,0.7,4.3,3.4,3.6,6.1l-3.1,11.8
			C863.1,1708.4,861.1,1709.9,858.9,1709.9z M869.7,1668.7c-0.4,0-0.8-0.1-1.3-0.2c-2.7-0.7-4.3-3.4-3.6-6.1l3.1-11.8
			c0.7-2.7,3.4-4.3,6.1-3.6c2.7,0.7,4.3,3.4,3.6,6.1l-3.1,11.8C873.9,1667.2,871.9,1668.7,869.7,1668.7z M880.4,1627.4
			c-0.4,0-0.8-0.1-1.3-0.2c-2.7-0.7-4.3-3.4-3.6-6.1l3.1-11.8c0.7-2.7,3.4-4.3,6.1-3.6c2.7,0.7,4.3,3.4,3.6,6.1l-3.1,11.8
			C884.7,1625.9,882.7,1627.4,880.4,1627.4z"/>
	</g>
	<g>
		<path d="M891.2,1586.2c-0.4,0-0.8-0.1-1.3-0.2c-2.7-0.7-4.3-3.4-3.6-6.1l1.5-5.8c0.7-2.7,3.4-4.3,6.1-3.6c2.7,0.7,4.3,3.4,3.6,6.1
			l-1.5,5.8C895.5,1584.7,893.4,1586.2,891.2,1586.2z"/>
	</g>
</g>
<g>
	<path d="M967.7,2986.4l-81.8,180c-98.8-6-748-249-748-249l106.8-186"/>
</g>
<g>
	<path class="st4" d="M1152.7,2587.4"/>
</g>
<g>
	<path d="M930.5,1321.3c-0.2,0-0.4,0-0.6,0c-2.7-0.3-4.7-2.8-4.4-5.6l1.4-12c0.3-2.7,2.8-4.7,5.6-4.4c2.7,0.3,4.7,2.8,4.4,5.6
		l-1.4,12C935.2,1319.5,933,1321.3,930.5,1321.3z M935.6,1279.4c-0.2,0-0.4,0-0.6,0c-2.7-0.3-4.7-2.8-4.4-5.6l1.4-11.9
		c0.3-2.7,2.8-4.7,5.6-4.4c2.7,0.3,4.7,2.8,4.4,5.6l-1.4,11.9C940.2,1277.5,938.1,1279.4,935.6,1279.4z M940.6,1237.6
		c-0.2,0-0.4,0-0.6,0c-2.7-0.3-4.7-2.8-4.4-5.6l1.4-11.9c0.3-2.7,2.8-4.7,5.6-4.4c2.7,0.3,4.7,2.8,4.4,5.6l-1.4,11.9
		C945.3,1235.7,943.1,1237.6,940.6,1237.6z M945.7,1195.8c-0.2,0-0.4,0-0.6,0c-2.7-0.3-4.7-2.8-4.4-5.6l1.4-11.9
		c0.3-2.7,2.8-4.7,5.6-4.4c2.7,0.3,4.7,2.8,4.4,5.6l-1.4,11.9C950.3,1193.9,948.2,1195.8,945.7,1195.8z M950.7,1154
		c-0.2,0-0.4,0-0.6,0c-2.7-0.3-4.7-2.8-4.4-5.6l1.4-11.9c0.3-2.7,2.8-4.7,5.6-4.4c2.7,0.3,4.7,2.8,4.4,5.6l-1.4,11.9
		C955.4,1152.1,953.2,1154,950.7,1154z M955.8,1112.2c-0.2,0-0.4,0-0.6,0c-2.7-0.3-4.7-2.8-4.4-5.6l1.4-11.9
		c0.3-2.7,2.8-4.7,5.6-4.4c2.7,0.3,4.7,2.8,4.4,5.6l-1.4,11.9C960.4,1110.3,958.3,1112.2,955.8,1112.2z M960.8,1070.4
		c-0.2,0-0.4,0-0.6,0c-2.7-0.3-4.7-2.8-4.4-5.6l1.4-11.9c0.3-2.7,2.8-4.7,5.6-4.4c2.7,0.3,4.7,2.8,4.4,5.6l-1.4,11.9
		C965.5,1068.6,963.3,1070.4,960.8,1070.4z M965.9,1028.7c-0.2,0-0.4,0-0.6,0c-2.7-0.3-4.7-2.8-4.4-5.6l1.5-11.9
		c0.3-2.7,2.8-4.7,5.6-4.4c2.7,0.3,4.7,2.8,4.4,5.6l-1.4,11.9C970.6,1026.8,968.4,1028.7,965.9,1028.7z M971,986.9
		c-0.2,0-0.4,0-0.6,0c-2.7-0.3-4.7-2.8-4.4-5.6l1.5-11.9c0.3-2.7,2.8-4.7,5.6-4.4c2.7,0.3,4.7,2.8,4.4,5.6l-1.5,11.9
		C975.6,985,973.5,986.9,971,986.9z M976.1,945.1c-0.2,0-0.4,0-0.6,0c-2.7-0.3-4.7-2.8-4.4-5.6l1.5-11.9c0.3-2.7,2.8-4.7,5.6-4.4
		c2.7,0.3,4.7,2.8,4.4,5.6l-1.5,11.9C980.7,943.3,978.6,945.1,976.1,945.1z M981.2,903.4c-0.2,0-0.4,0-0.6,0
		c-2.7-0.3-4.7-2.8-4.4-5.6l1.5-11.9c0.3-2.7,2.8-4.7,5.6-4.4c2.7,0.3,4.7,2.8,4.4,5.6l-1.5,11.9
		C985.8,901.5,983.7,903.4,981.2,903.4z M986.3,861.6c-0.2,0-0.4,0-0.6,0c-2.7-0.3-4.7-2.8-4.4-5.6l1.5-11.9
		c0.3-2.7,2.8-4.7,5.6-4.4c2.7,0.3,4.7,2.8,4.4,5.6l-1.5,11.9C990.9,859.7,988.8,861.6,986.3,861.6z M991.4,819.9
		c-0.2,0-0.4,0-0.6,0c-2.7-0.3-4.7-2.8-4.4-5.6l1.5-11.9c0.3-2.7,2.8-4.7,5.6-4.4c2.7,0.3,4.7,2.8,4.4,5.6l-1.5,11.9
		C996,818,993.9,819.9,991.4,819.9z M996.5,778.1c-0.2,0-0.4,0-0.6,0c-2.7-0.3-4.7-2.8-4.3-5.6l1.5-11.9c0.3-2.7,2.8-4.7,5.6-4.4
		c2.7,0.3,4.7,2.8,4.4,5.6l-1.5,11.9C1001.2,776.3,999,778.1,996.5,778.1z M1001.7,736.4c-0.2,0-0.4,0-0.6,0
		c-2.7-0.3-4.7-2.8-4.3-5.6l1.5-11.9c0.3-2.7,2.8-4.7,5.6-4.3c2.7,0.3,4.7,2.8,4.3,5.6l-1.5,11.9
		C1006.3,734.5,1004.2,736.4,1001.7,736.4z M1006.9,694.6c-0.2,0-0.4,0-0.6,0c-2.7-0.3-4.7-2.8-4.3-5.6l1.5-11.9
		c0.3-2.7,2.8-4.7,5.6-4.3c2.7,0.3,4.7,2.8,4.3,5.6l-1.5,11.9C1011.5,692.8,1009.3,694.6,1006.9,694.6z M1012.1,652.9
		c-0.2,0-0.4,0-0.6,0c-2.7-0.3-4.7-2.8-4.3-5.6l1.5-11.9c0.3-2.7,2.8-4.7,5.6-4.3c2.7,0.3,4.7,2.8,4.3,5.6l-1.5,11.9
		C1016.7,651,1014.5,652.9,1012.1,652.9z M1017.3,611.1c-0.2,0-0.4,0-0.6,0c-2.7-0.3-4.7-2.8-4.3-5.6l1.5-11.9
		c0.3-2.7,2.9-4.7,5.6-4.3c2.7,0.3,4.7,2.8,4.3,5.6l-1.5,11.9C1021.9,609.3,1019.8,611.1,1017.3,611.1z M1022.6,569.4
		c-0.2,0-0.4,0-0.6,0c-2.7-0.3-4.7-2.9-4.3-5.6l1.5-11.9c0.3-2.7,2.8-4.7,5.6-4.3c2.7,0.3,4.7,2.9,4.3,5.6l-1.5,11.9
		C1027.2,567.5,1025,569.4,1022.6,569.4z M1027.9,527.6c-0.2,0-0.4,0-0.6,0c-2.7-0.4-4.7-2.9-4.3-5.6l1.5-11.9
		c0.4-2.7,2.9-4.7,5.6-4.3c2.7,0.4,4.7,2.9,4.3,5.6l-1.5,11.9C1032.5,525.7,1030.4,527.6,1027.9,527.6z M1033.3,485.8
		c-0.2,0-0.4,0-0.7,0c-2.7-0.4-4.7-2.9-4.3-5.6c0.5-4.2,1.1-8.1,1.6-11.9c0.4-2.7,2.9-4.7,5.6-4.3c2.7,0.4,4.7,2.9,4.3,5.6
		c-0.5,3.8-1,7.8-1.6,11.9C1037.9,484,1035.8,485.8,1033.3,485.8z M1039,444.1c-0.2,0-0.5,0-0.7-0.1c-2.7-0.4-4.6-2.9-4.2-5.7
		c0.6-4,1.2-8,1.7-11.9c0.4-2.7,2.9-4.6,5.7-4.2c2.7,0.4,4.6,3,4.2,5.7c-0.6,3.9-1.2,7.8-1.7,11.8
		C1043.6,442.3,1041.5,444.1,1039,444.1z M1045.4,402.6c-0.3,0-0.5,0-0.8-0.1c-2.7-0.5-4.6-3-4.1-5.7c0.7-4,1.3-8,2-11.9
		c0.5-2.7,3.1-4.5,5.8-4.1c2.7,0.5,4.5,3.1,4.1,5.8c-0.7,3.9-1.3,7.8-2,11.8C1049.9,400.9,1047.8,402.6,1045.4,402.6z M1052.8,361.3
		c-0.3,0-0.6,0-0.9-0.1c-2.7-0.5-4.5-3.1-4-5.9c0.8-4,1.5-8,2.3-11.8c0.5-2.7,3.2-4.5,5.9-3.9c2.7,0.5,4.5,3.2,3.9,5.9
		c-0.8,3.8-1.5,7.7-2.3,11.7C1057.2,359.6,1055.1,361.3,1052.8,361.3z M1061.3,320.2c-0.4,0-0.7,0-1.1-0.1c-2.7-0.6-4.4-3.3-3.8-6
		c0.9-3.9,1.8-7.9,2.7-11.7c0.6-2.7,3.3-4.3,6-3.7c2.7,0.6,4.3,3.3,3.7,6c-0.9,3.8-1.8,7.7-2.7,11.6
		C1065.6,318.6,1063.6,320.2,1061.3,320.2z M1071.4,279.4c-0.4,0-0.9-0.1-1.3-0.2c-2.7-0.7-4.2-3.5-3.5-6.1c1.1-4,2.2-7.9,3.3-11.6
		c0.8-2.6,3.6-4.2,6.2-3.4c2.6,0.8,4.2,3.6,3.4,6.2c-1.1,3.7-2.2,7.5-3.3,11.4C1075.6,278,1073.6,279.4,1071.4,279.4z M1084.1,239.4
		c-0.6,0-1.2-0.1-1.8-0.3c-2.6-1-3.9-3.9-2.9-6.4c3-7.8,4.7-11.4,4.8-11.5c1.2-2.5,4.2-3.5,6.7-2.2c2.5,1.2,3.5,4.2,2.2,6.7
		c-0.1,0.2-1.7,3.5-4.4,10.6C1088.1,238.2,1086.2,239.4,1084.1,239.4z"/>
</g>
<g>
	<g>
		<path d="M719,51.1c-1.1,0-2.1-0.3-3-1c-2.2-1.7-2.6-4.8-0.9-7c2.4-3.1,3.7-4.7,3.8-4.8c1.7-2.1,4.9-2.5,7-0.7
			c2.1,1.7,2.5,4.9,0.7,7c0,0-1.4,1.7-3.6,4.6C722,50.4,720.5,51.1,719,51.1z"/>
	</g>
	<g>
		<path d="M617.8,1294.9c-0.1,0-0.1,0-0.2,0c-2.8-0.1-4.9-2.4-4.8-5.2l0.4-12c0.1-2.8,2.4-4.9,5.2-4.8s4.9,2.4,4.8,5.2l-0.4,12
			C622.7,1292.8,620.5,1294.9,617.8,1294.9z M619.2,1252.8c-0.1,0-0.1,0-0.2,0c-2.8-0.1-4.9-2.4-4.8-5.2l0.4-12
			c0.1-2.8,2.4-4.9,5.2-4.8s4.9,2.4,4.8,5.2l-0.4,12C624.2,1250.7,621.9,1252.8,619.2,1252.8z M620.6,1210.8c-0.1,0-0.1,0-0.2,0
			c-2.8-0.1-4.9-2.4-4.8-5.2l0.4-12c0.1-2.8,2.4-4.9,5.2-4.8s4.9,2.4,4.8,5.2l-0.4,12C625.6,1208.6,623.3,1210.8,620.6,1210.8z
			 M622,1168.7c-0.1,0-0.1,0-0.2,0c-2.8-0.1-4.9-2.4-4.8-5.2l0.4-12c0.1-2.8,2.4-4.9,5.2-4.8s4.9,2.4,4.8,5.2l-0.4,12
			C626.9,1166.6,624.7,1168.7,622,1168.7z M623.4,1126.7c-0.1,0-0.1,0-0.2,0c-2.8-0.1-4.9-2.4-4.8-5.2l0.4-12
			c0.1-2.8,2.4-4.9,5.2-4.8s4.9,2.4,4.8,5.2l-0.4,12C628.3,1124.6,626.1,1126.7,623.4,1126.7z M624.8,1084.7c-0.1,0-0.1,0-0.2,0
			c-2.8-0.1-4.9-2.4-4.8-5.2l0.4-12c0.1-2.8,2.4-4.9,5.2-4.8s4.9,2.4,4.8,5.2l-0.4,12C629.7,1082.5,627.5,1084.7,624.8,1084.7z
			 M626.2,1042.7c-0.1,0-0.1,0-0.2,0c-2.8-0.1-4.9-2.4-4.8-5.2l0.4-12c0.1-2.8,2.4-4.9,5.2-4.8c2.8,0.1,4.9,2.4,4.8,5.2l-0.4,12
			C631.1,1040.5,628.9,1042.7,626.2,1042.7z M627.6,1000.6c-0.1,0-0.1,0-0.2,0c-2.8-0.1-4.9-2.4-4.8-5.2l0.4-12
			c0.1-2.8,2.4-4.9,5.2-4.8c2.8,0.1,4.9,2.4,4.8,5.2l-0.4,12C632.5,998.5,630.3,1000.6,627.6,1000.6z M629,958.6c-0.1,0-0.1,0-0.2,0
			c-2.8-0.1-4.9-2.4-4.8-5.2l0.4-12c0.1-2.8,2.4-4.9,5.2-4.8c2.8,0.1,4.9,2.4,4.8,5.2l-0.4,12C633.9,956.5,631.7,958.6,629,958.6z
			 M630.4,916.6c-0.1,0-0.1,0-0.2,0c-2.8-0.1-4.9-2.4-4.8-5.2l0.4-12c0.1-2.8,2.4-4.9,5.2-4.8c2.8,0.1,4.9,2.4,4.8,5.2l-0.4,12
			C635.3,914.5,633,916.6,630.4,916.6z M631.7,874.6c-0.1,0-0.1,0-0.2,0c-2.8-0.1-4.9-2.4-4.8-5.2l0.4-12c0.1-2.8,2.4-4.9,5.2-4.8
			c2.8,0.1,4.9,2.4,4.8,5.2l-0.4,12C636.6,872.5,634.4,874.6,631.7,874.6z M633.1,832.6c-0.1,0-0.1,0-0.2,0
			c-2.8-0.1-4.9-2.4-4.8-5.2l0.4-12c0.1-2.8,2.4-4.9,5.2-4.8c2.8,0.1,4.9,2.4,4.8,5.2l-0.4,12C638,830.5,635.8,832.6,633.1,832.6z
			 M634.5,790.7c-0.1,0-0.1,0-0.2,0c-2.8-0.1-4.9-2.4-4.8-5.2l0.4-12c0.1-2.8,2.4-4.9,5.2-4.8c2.8,0.1,4.9,2.4,4.8,5.2l-0.4,12
			C639.4,788.5,637.2,790.7,634.5,790.7z M635.8,748.6c-0.1,0-0.1,0-0.2,0c-2.8-0.1-4.9-2.4-4.8-5.2l0.4-12c0.1-2.7,2.3-4.8,5-4.8
			c0.1,0,0.1,0,0.2,0c2.8,0.1,4.9,2.4,4.8,5.2l-0.4,12C640.8,746.4,638.5,748.6,635.8,748.6z M637.2,706.5c-0.1,0-0.1,0-0.2,0
			c-2.8-0.1-4.9-2.4-4.8-5.2l0.4-12c0.1-2.8,2.4-4.9,5.2-4.8c2.8,0.1,4.9,2.4,4.8,5.2l-0.4,12C642.1,704.4,639.9,706.5,637.2,706.5z
			 M638.6,664.6c-0.1,0-0.1,0-0.2,0c-2.8-0.1-4.9-2.4-4.8-5.2l0.4-12c0.1-2.8,2.4-4.9,5.2-4.8c2.8,0.1,4.9,2.4,4.8,5.2l-0.4,12
			C643.5,662.4,641.3,664.6,638.6,664.6z M639.9,622.6c-0.1,0-0.1,0-0.2,0c-2.8-0.1-4.9-2.4-4.8-5.2l0.4-12c0.1-2.8,2.4-4.9,5.2-4.8
			c2.8,0.1,4.9,2.4,4.8,5.2l-0.4,12C644.8,620.4,642.6,622.6,639.9,622.6z M641.3,580.6c-0.1,0-0.1,0-0.2,0
			c-2.8-0.1-4.9-2.4-4.8-5.2l0.4-12c0.1-2.8,2.4-4.9,5.2-4.8c2.8,0.1,4.9,2.4,4.8,5.2l-0.4,12C646.2,578.4,643.9,580.6,641.3,580.6z
			 M642.6,538.6c-0.1,0-0.1,0-0.2,0c-2.8-0.1-4.9-2.4-4.8-5.2l0.4-12c0.1-2.8,2.4-4.9,5.2-4.8c2.8,0.1,4.9,2.4,4.8,5.2l-0.4,12
			C647.5,536.4,645.3,538.6,642.6,538.6z M643.9,496.6c-0.1,0-0.1,0-0.2,0c-2.8-0.1-4.9-2.4-4.8-5.2l0.4-12c0.1-2.8,2.4-4.9,5.2-4.8
			s4.9,2.4,4.8,5.2l-0.4,12C648.8,494.4,646.6,496.6,643.9,496.6z M645.3,454.5c-0.1,0-0.1,0-0.2,0c-2.8-0.1-4.9-2.4-4.8-5.2l0.4-12
			c0.1-2.8,2.4-4.9,5.2-4.8s4.9,2.4,4.8,5.2l-0.4,12C650.2,452.4,647.9,454.5,645.3,454.5z M646.6,412.5c-0.1,0-0.1,0-0.2,0
			c-2.8-0.1-4.9-2.4-4.8-5.2l0.4-12c0.1-2.8,2.4-4.9,5.2-4.8s4.9,2.4,4.8,5.2l-0.4,12C651.5,410.4,649.3,412.5,646.6,412.5z
			 M647.9,370.5c-0.1,0-0.1,0-0.2,0c-2.8-0.1-4.9-2.4-4.8-5.2l0.4-12c0.1-2.8,2.4-5,5.2-4.8c2.8,0.1,4.9,2.4,4.8,5.1l-0.4,12
			C652.8,368.4,650.6,370.5,647.9,370.5z M649.1,328.5c-0.1,0-0.1,0-0.2,0c-2.8-0.1-4.9-2.4-4.8-5.1l0.4-12c0.1-2.8,2.4-4.9,5.1-4.8
			c2.8,0.1,4.9,2.4,4.8,5.1l-0.4,12C654.1,326.3,651.8,328.5,649.1,328.5z M650.4,286.4c0,0-0.1,0-0.2,0c-2.8-0.1-4.9-2.4-4.9-5.1
			l0.3-12c0.1-2.8,2.4-4.9,5.1-4.9c2.8,0.1,4.9,2.4,4.9,5.1l-0.3,12C655.3,284.2,653.1,286.4,650.4,286.4z M651.6,244.3L651.6,244.3
			c-2.9-0.1-5-2.4-5-5.1c0.1-4.2,0.2-8.2,0.3-12c0.1-2.7,2.3-4.9,5-4.9h0.1c2.8,0.1,4.9,2.4,4.9,5.1c-0.1,3.8-0.2,7.8-0.3,12
			C656.5,242.1,654.3,244.3,651.6,244.3z M652.6,202.1C652.6,202.1,652.5,202.1,652.6,202.1c-2.9-0.1-5.1-2.3-5-5.1
			c0.1-4.4,0.1-7.6,0.1-9.6c0-0.8,0-1.7,0-2.6c0.1-2.8,2.4-5,5.1-4.8c2.8,0.1,4.9,2.4,4.8,5.1c0,0.8,0,1.5,0,2.2
			c0,2.1,0,5.3-0.1,9.8C657.5,199.9,655.3,202.1,652.6,202.1z M658,160.5c-0.5,0-1-0.1-1.4-0.2c-2.6-0.8-4.2-3.6-3.4-6.2
			c1.1-3.8,2.4-7.7,3.9-11.7c1-2.6,3.8-3.9,6.4-3c2.6,1,3.9,3.8,3,6.4c-1.4,3.8-2.6,7.5-3.7,11.1C662.1,159.1,660.1,160.5,658,160.5
			z M673.9,121.8c-0.8,0-1.5-0.2-2.3-0.5c-2.5-1.2-3.4-4.3-2.2-6.7c1.8-3.5,3.7-7.1,5.7-10.8c1.3-2.4,4.4-3.3,6.8-2
			c2.4,1.3,3.3,4.4,2,6.8c-1.9,3.5-3.8,7-5.5,10.5C677.5,120.8,675.7,121.8,673.9,121.8z M694.9,85.4c-0.9,0-1.9-0.3-2.7-0.8
			c-2.3-1.5-3-4.6-1.5-6.9c2.2-3.3,4.4-6.8,6.7-10.1c1.5-2.3,4.7-2.9,6.9-1.3c2.3,1.5,2.9,4.7,1.3,6.9c-2.2,3.3-4.4,6.6-6.5,9.9
			C698.1,84.6,696.5,85.4,694.9,85.4z"/>
	</g>
	<g>
		<path d="M616.7,1328.4c-0.1,0-0.1,0-0.2,0c-2.8-0.1-4.9-2.4-4.8-5.2l0.2-6c0.1-2.8,2.4-4.9,5.2-4.8s4.9,2.4,4.8,5.2l-0.2,6
			C621.6,1326.3,619.4,1328.4,616.7,1328.4z"/>
	</g>
</g>
<g>
	<path d="M319,1297.1c-2.7,0-4.9-2.2-5-4.9l-0.3-12c-0.1-2.8,2.1-5.1,4.9-5.1s5.1,2.1,5.1,4.9l0.3,12.1c0.1,2.8-2.1,5.1-4.9,5.1
		C319.1,1297.1,319.1,1297.1,319,1297.1z M317.9,1255c-2.7,0-4.9-2.2-5-4.9l-0.3-12c-0.1-2.8,2.1-5.1,4.9-5.1
		c2.7-0.1,5.1,2.1,5.1,4.9l0.3,12c0.1,2.8-2.1,5.1-4.9,5.1C318,1255,318,1255,317.9,1255z M316.8,1212.8c-2.7,0-4.9-2.2-5-4.9
		l-0.3-12c-0.1-2.8,2.1-5.1,4.9-5.1c2.8-0.1,5.1,2.1,5.1,4.9l0.3,12c0.1,2.8-2.1,5.1-4.9,5.1
		C316.9,1212.8,316.9,1212.8,316.8,1212.8z M315.7,1170.8c-2.7,0-4.9-2.1-5-4.9l-0.3-12c-0.1-2.8,2.1-5.1,4.9-5.1h0.1
		c2.7,0,4.9,2.1,5,4.9l0.3,12c0.1,2.8-2.1,5.1-4.9,5.1C315.7,1170.8,315.7,1170.8,315.7,1170.8z M314.4,1128.7c-2.7,0-4.9-2.1-5-4.9
		l-0.4-12c-0.1-2.8,2.1-5.1,4.9-5.1c2.7-0.1,5.1,2.1,5.1,4.9l0.4,12c0.1,2.8-2.1,5.1-4.9,5.1
		C314.5,1128.7,314.5,1128.7,314.4,1128.7z M313.2,1086.6c-2.7,0-4.9-2.1-5-4.8l-0.4-12c-0.1-2.8,2.1-5.1,4.8-5.2
		c2.8-0.1,5.1,2.1,5.2,4.8l0.4,12c0.1,2.8-2.1,5.1-4.8,5.1C313.3,1086.6,313.2,1086.6,313.2,1086.6z M311.9,1044.5
		c-2.7,0-4.9-2.1-5-4.8l-0.4-12c-0.1-2.8,2.1-5.1,4.8-5.2c2.8-0.1,5.1,2.1,5.2,4.8l0.4,12c0.1,2.8-2.1,5.1-4.8,5.2
		C312,1044.5,311.9,1044.5,311.9,1044.5z M310.5,1002.5c-2.7,0-4.9-2.1-5-4.8l-0.4-12c-0.1-2.8,2.1-5.1,4.8-5.2
		c2.7-0.1,5.1,2.1,5.2,4.8l0.4,12c0.1,2.8-2.1,5.1-4.8,5.2C310.7,1002.5,310.6,1002.5,310.5,1002.5z M309.1,960.4
		c-2.7,0-4.9-2.1-5-4.8l-0.4-12c-0.1-2.8,2.1-5.1,4.8-5.2c2.7-0.1,5.1,2.1,5.2,4.8l0.4,12c0.1,2.8-2.1,5.1-4.8,5.2
		C309.2,960.4,309.2,960.4,309.1,960.4z M307.6,918.4c-2.7,0-4.9-2.1-5-4.8l-0.4-12c-0.1-2.8,2.1-5.1,4.8-5.2
		c2.8-0.1,5.1,2.1,5.2,4.8l0.4,12c0.1,2.8-2.1,5.1-4.8,5.2C307.8,918.4,307.7,918.4,307.6,918.4z M306.1,876.3c-2.7,0-4.9-2.1-5-4.8
		l-0.5-12c-0.1-2.8,2-5.1,4.8-5.2c2.8-0.1,5.1,2,5.2,4.8l0.5,12c0.1,2.8-2,5.1-4.8,5.2C306.2,876.3,306.1,876.3,306.1,876.3z
		 M304.4,834.3c-2.7,0-4.9-2.1-5-4.8c-0.2-4-0.3-8-0.5-12c-0.1-2.8,2-5.1,4.8-5.2c2.7-0.1,5.1,2,5.2,4.8c0.2,4,0.3,8,0.5,12
		c0.1,2.8-2,5.1-4.8,5.2C304.6,834.3,304.5,834.3,304.4,834.3z M302.6,792.3c-2.7,0-4.9-2.1-5-4.8c-0.2-4-0.4-8-0.5-12
		c-0.1-2.8,2-5.1,4.8-5.2c2.7-0.1,5.1,2,5.2,4.8c0.2,4,0.4,8,0.5,12c0.1,2.8-2,5.1-4.8,5.2C302.8,792.3,302.7,792.3,302.6,792.3z
		 M300.7,750.2c-2.7,0-4.9-2.1-5-4.8c-0.2-4-0.4-8-0.6-12c-0.1-2.8,2-5.1,4.7-5.2c2.8-0.1,5.1,2,5.2,4.7c0.2,4,0.4,8,0.6,12
		c0.1,2.8-2,5.1-4.8,5.2C300.9,750.2,300.8,750.2,300.7,750.2z M298.5,708.2c-2.6,0-4.8-2.1-5-4.7c-0.2-4.1-0.4-8.1-0.7-12
		c-0.2-2.8,2-5.1,4.7-5.3s5.1,2,5.3,4.7c0.2,3.9,0.4,7.9,0.7,12c0.2,2.8-2,5.1-4.7,5.3C298.7,708.2,298.6,708.2,298.5,708.2z
		 M296.1,666.1c-2.6,0-4.8-2-5-4.7c-0.3-4.1-0.5-8.1-0.8-12c-0.2-2.8,1.9-5.1,4.6-5.3s5.1,1.9,5.3,4.6c0.3,3.9,0.5,7.9,0.8,12
		c0.2,2.8-1.9,5.1-4.7,5.3C296.3,666.1,296.2,666.1,296.1,666.1z M293,624.1c-2.6,0-4.8-2-5-4.6c-0.4-4.2-0.7-8.2-1.1-11.9
		c-0.3-2.7,1.8-5.2,4.5-5.4c2.8-0.3,5.2,1.8,5.4,4.5c0.4,3.8,0.7,7.8,1.1,12c0.2,2.8-1.8,5.2-4.6,5.4
		C293.3,624.1,293.2,624.1,293,624.1z M288.4,582.2c-2.4,0-4.6-1.8-4.9-4.3c-0.6-4.1-1.1-8.2-1.6-12.1c-0.3-2.7,1.7-5.2,4.5-5.5
		s5.2,1.7,5.5,4.5c0.4,3.8,0.9,7.7,1.5,11.7c0.4,2.7-1.5,5.3-4.2,5.7C288.9,582.1,288.6,582.2,288.4,582.2z M285.8,540.3
		c-0.1,0-0.1,0-0.2,0c-2.8-0.1-4.9-2.4-4.8-5.2c0.2-4.2,0.5-8.3,1-12.3c0.3-2.7,2.8-4.7,5.5-4.4s4.7,2.8,4.4,5.5
		c-0.4,3.8-0.7,7.7-0.9,11.6C290.7,538.2,288.5,540.3,285.8,540.3z M293.4,499.2c-0.6,0-1.1-0.1-1.7-0.3c-2.6-0.9-4-3.8-3-6.4
		c1.4-4,3.1-7.9,4.8-11.6c1.2-2.5,4.2-3.5,6.7-2.3s3.5,4.2,2.3,6.7c-1.6,3.3-3.1,6.9-4.4,10.5C297.3,497.9,295.4,499.2,293.4,499.2z
		 M315.3,463.8c-1.3,0-2.6-0.5-3.6-1.5c-1.9-2-1.9-5.2,0.1-7.1c5.8-5.6,10.1-8,10.5-8.2c2.4-1.3,5.5-0.4,6.8,2s0.4,5.4-2,6.8
		c-0.1,0-3.6,2-8.4,6.6C317.8,463.3,316.5,463.8,315.3,463.8z"/>
</g>
<g>
	<path d="M130.9,1806.7c-2.4,0-4.5-1.7-4.9-4.2c-0.6-3.5-1.2-7.6-1.9-12c-0.4-2.7,1.5-5.3,4.2-5.7c2.7-0.4,5.3,1.5,5.7,4.2
		c0.6,4.4,1.3,8.3,1.8,11.8c0.5,2.7-1.4,5.3-4.1,5.8C131.5,1806.7,131.2,1806.7,130.9,1806.7z M125.1,1765c-2.5,0-4.6-1.9-5-4.4
		c-0.5-3.9-1-7.8-1.4-12c-0.3-2.7,1.6-5.2,4.4-5.6c2.8-0.3,5.2,1.6,5.6,4.4c0.5,4.1,1,8.1,1.4,11.9c0.3,2.7-1.6,5.2-4.3,5.6
		C125.5,1765,125.3,1765,125.1,1765z M120.2,1723.2c-2.5,0-4.7-1.9-5-4.4c-0.4-3.9-0.9-7.9-1.3-12c-0.3-2.7,1.7-5.2,4.4-5.5
		c2.8-0.3,5.2,1.7,5.5,4.4c0.4,4,0.9,8,1.3,11.9c0.3,2.7-1.7,5.2-4.4,5.5C120.6,1723.2,120.4,1723.2,120.2,1723.2z M115.6,1681.4
		c-2.5,0-4.7-1.9-5-4.5l-1.3-11.9c-0.3-2.7,1.7-5.2,4.4-5.5c2.8-0.3,5.2,1.7,5.5,4.4l1.3,11.9c0.3,2.7-1.7,5.2-4.4,5.5
		C115.9,1681.4,115.8,1681.4,115.6,1681.4z M111,1639.6c-2.5,0-4.7-1.9-5-4.5l-1.3-11.9c-0.3-2.7,1.7-5.2,4.4-5.5
		c2.8-0.3,5.2,1.7,5.5,4.4l1.3,11.9c0.3,2.7-1.7,5.2-4.4,5.5C111.4,1639.6,111.2,1639.6,111,1639.6z M106.4,1597.8
		c-2.5,0-4.7-1.9-5-4.4c-0.5-4-0.9-7.9-1.4-11.9c-0.3-2.7,1.7-5.2,4.4-5.5c2.7-0.3,5.2,1.7,5.5,4.4c0.5,4,0.9,7.9,1.4,11.9
		c0.3,2.7-1.7,5.2-4.4,5.5C106.7,1597.8,106.5,1597.8,106.4,1597.8z M101.5,1556c-2.5,0-4.7-1.9-5-4.4c-0.5-4-1-8-1.5-11.9
		c-0.3-2.7,1.6-5.2,4.3-5.6c2.7-0.3,5.2,1.6,5.6,4.3c0.5,3.9,1,7.9,1.5,11.9c0.3,2.7-1.6,5.2-4.4,5.6
		C101.9,1556,101.7,1556,101.5,1556z M96.2,1514.3c-2.5,0-4.6-1.8-5-4.3c-0.5-4-1.1-8-1.6-11.9c-0.4-2.7,1.5-5.3,4.3-5.6
		c2.7-0.4,5.3,1.5,5.6,4.3c0.5,3.9,1.1,7.9,1.6,11.9c0.4,2.7-1.6,5.3-4.3,5.6C96.6,1514.3,96.4,1514.3,96.2,1514.3z M90.2,1472.7
		c-2.4,0-4.5-1.8-4.9-4.2c-0.7-4.1-1.3-8.1-1.9-11.8c-0.5-2.7,1.4-5.3,4.1-5.8s5.3,1.4,5.8,4.1c0.6,3.8,1.3,7.8,2,11.9
		c0.4,2.7-1.4,5.3-4.2,5.7C90.7,1472.7,90.4,1472.7,90.2,1472.7z M82.4,1431.3c-2.3,0-4.3-1.6-4.9-3.9c-0.6-2.4-1.1-4.7-1.7-6.8
		c-0.4-1.6-0.8-3.2-1.2-4.8c-0.7-2.7,1-5.4,3.7-6c2.7-0.7,5.4,1,6,3.7c0.4,1.6,0.8,3.1,1.2,4.7c0.6,2.2,1.2,4.5,1.7,7.1
		c0.6,2.7-1,5.4-3.7,6C83.2,1431.3,82.8,1431.3,82.4,1431.3z M73.4,1390.3c-2.4,0-4.5-1.7-4.9-4.1c-0.7-3.8-1.3-7.8-2-11.9
		c-0.4-2.7,1.4-5.3,4.1-5.7c2.7-0.4,5.3,1.4,5.7,4.1c0.6,4.1,1.3,8,2,11.8c0.5,2.7-1.3,5.3-4.1,5.8
		C74,1390.3,73.7,1390.3,73.4,1390.3z M67.2,1348.7c-2.5,0-4.6-1.8-5-4.4c-0.5-3.9-1-7.9-1.5-12c-0.3-2.7,1.6-5.2,4.4-5.6
		c2.8-0.3,5.2,1.6,5.6,4.4c0.5,4,1,8,1.5,11.9c0.4,2.7-1.6,5.2-4.3,5.6C67.6,1348.7,67.4,1348.7,67.2,1348.7z M62.5,1307
		c-2.5,0-4.7-1.9-5-4.5c-0.4-3.9-0.8-7.9-1.2-12c-0.3-2.7,1.8-5.2,4.5-5.4c2.8-0.3,5.2,1.8,5.4,4.5c0.4,4,0.8,8,1.1,11.9
		c0.3,2.7-1.7,5.2-4.5,5.5C62.8,1307,62.7,1307,62.5,1307z M58.8,1265.2c-2.6,0-4.8-2-5-4.6c-0.3-3.9-0.6-7.9-0.9-12
		c-0.2-2.8,1.9-5.2,4.6-5.4c2.8-0.2,5.2,1.9,5.4,4.6c0.3,4,0.6,8,0.9,11.9c0.2,2.8-1.8,5.2-4.6,5.4
		C59,1265.2,58.9,1265.2,58.8,1265.2z M55.7,1223.3c-2.6,0-4.8-2-5-4.7c-0.3-4-0.5-8-0.8-12c-0.2-2.8,1.9-5.1,4.7-5.3
		c2.7-0.2,5.1,1.9,5.3,4.7c0.3,4,0.5,8,0.8,12c0.2,2.8-1.9,5.1-4.7,5.3C56,1223.3,55.8,1223.3,55.7,1223.3z M53.2,1181.3
		c-2.6,0-4.8-2.1-5-4.7c-0.2-4-0.4-8-0.6-12c-0.1-2.8,2-5.1,4.7-5.3c2.8-0.1,5.1,2,5.3,4.7c0.2,4,0.4,8,0.6,12
		c0.2,2.8-2,5.1-4.7,5.3C53.4,1181.3,53.3,1181.3,53.2,1181.3z M51.1,1139.4c-2.7,0-4.9-2.1-5-4.8c-0.2-4-0.4-8-0.5-12
		c-0.1-2.8,2-5.1,4.8-5.2c2.7-0.1,5.1,2,5.2,4.8c0.2,4,0.4,8,0.5,12c0.1,2.8-2,5.1-4.8,5.2C51.3,1139.4,51.2,1139.4,51.1,1139.4z
		 M49.4,1097.4c-2.7,0-4.9-2.1-5-4.8c-0.2-4-0.3-8-0.4-12c-0.1-2.8,2.1-5.1,4.8-5.2s5.1,2.1,5.2,4.8c0.1,4,0.3,8,0.4,12
		c0.1,2.8-2,5.1-4.8,5.2C49.5,1097.4,49.5,1097.4,49.4,1097.4z M47.9,1055.5c-2.7,0-4.9-2.1-5-4.8c-0.1-4-0.2-8-0.4-12
		c-0.1-2.8,2.1-5.1,4.8-5.1c2.8-0.1,5.1,2.1,5.1,4.8c0.1,4,0.2,8,0.4,12C52.9,1053.2,50.7,1055.5,47.9,1055.5
		C48,1055.5,48,1055.5,47.9,1055.5z M46.7,1013.5c-2.7,0-4.9-2.2-5-4.9c-0.1-4-0.2-8-0.3-12c-0.1-2.8,2.1-5.1,4.9-5.1
		c2.8,0,5.1,2.1,5.1,4.9c0.1,4,0.2,8,0.3,12C51.8,1011.2,49.6,1013.5,46.7,1013.5C46.8,1013.5,46.8,1013.5,46.7,1013.5z M45.7,971.5
		c-2.7,0-4.9-2.2-5-4.9c-0.1-4-0.2-8-0.2-12c-0.1-2.8,2.1-5,4.9-5.1c2.7,0,5,2.1,5.1,4.9c0.1,4,0.2,8,0.2,12
		C50.8,969.2,48.6,971.4,45.7,971.5C45.8,971.5,45.8,971.5,45.7,971.5z M44.9,929.5c-2.7,0-5-2.2-5-4.9c-0.1-4-0.1-8-0.2-12
		c0-2.8,2.2-5,4.9-5.1c2.8,0,5,2.2,5.1,4.9c0.1,4,0.1,8,0.2,12C50,927.2,47.8,929.4,44.9,929.5C45,929.5,45,929.5,44.9,929.5z
		 M44.6,887.5L44.6,887.5c-2.8,0-5-2.3-5-5c0-4,0.1-8.1,0.2-12.1c0-2.7,2.3-4.9,5-4.9h0.1c2.8,0.1,5,2.3,4.9,5.1
		c-0.1,3.9-0.1,7.9-0.2,11.9C49.6,885.3,47.3,887.5,44.6,887.5z M45.8,845.5c-0.1,0-0.2,0-0.3,0c-2.8-0.1-4.9-2.5-4.7-5.2
		c0.2-4.1,0.4-8.1,0.7-12c0.2-2.8,2.6-4.8,5.3-4.7c2.8,0.2,4.8,2.6,4.7,5.3c-0.3,3.9-0.5,7.9-0.7,11.9
		C50.6,843.5,48.4,845.5,45.8,845.5z M49.1,803.7c-0.2,0-0.4,0-0.6,0c-2.7-0.3-4.7-2.8-4.4-5.5c0.5-4.1,1-8.1,1.5-12
		c0.4-2.7,2.9-4.6,5.7-4.3c2.7,0.4,4.6,2.9,4.3,5.6c-0.5,3.8-1,7.7-1.5,11.8C53.8,801.8,51.6,803.7,49.1,803.7z M56,762.3
		c-0.4,0-0.7,0-1.1-0.1c-2.7-0.6-4.4-3.3-3.8-6c0.9-4.1,2-8.1,3-11.9c0.7-2.7,3.5-4.2,6.2-3.5s4.2,3.5,3.5,6.2
		c-1,3.6-2,7.4-2.9,11.4C60.3,760.8,58.3,762.3,56,762.3z M69.6,722.8c-0.8,0-1.6-0.2-2.3-0.6c-2.5-1.3-3.4-4.3-2.1-6.7
		c2.1-4,4.3-7.7,6.6-10.8c1.6-2.2,4.8-2.7,7-1.1c2.2,1.6,2.7,4.8,1.1,7c-2,2.8-4,6-5.9,9.6C73.1,721.8,71.4,722.8,69.6,722.8z
		 M111.7,698.4c-0.8,0-1.6-0.2-2.3-0.6c-0.1,0-2.9-1.4-7.1-1.4c-0.6,0-1.2,0-1.8,0.1c-2.7,0.3-5.2-1.8-5.4-4.5
		c-0.3-2.7,1.8-5.2,4.5-5.4c0.9-0.1,1.9-0.1,2.8-0.1c6.7,0,11.3,2.3,11.8,2.6c2.4,1.3,3.4,4.3,2,6.8
		C115.2,697.4,113.5,698.4,111.7,698.4z"/>
</g>
<g>
	<path d="M1146.5,1863.2c-1.5,0-3-0.7-4-1.9c-1.7-2.2-1.3-5.3,0.9-7c1.9-1.5,4.1-4.2,6.4-7.9c1.5-2.3,4.5-3.1,6.9-1.6
		c2.3,1.5,3.1,4.5,1.6,6.9c-3,4.8-5.8,8.2-8.8,10.5C1148.6,1862.9,1147.5,1863.2,1146.5,1863.2z M1166.7,1826.9
		c-0.6,0-1.2-0.1-1.8-0.3c-2.6-1-3.9-3.9-2.9-6.5c1.3-3.5,2.7-7.2,4.1-11.2c0.9-2.6,3.8-4,6.4-3.1s4,3.8,3.1,6.4
		c-1.4,4-2.8,7.9-4.2,11.4C1170.6,1825.7,1168.7,1826.9,1166.7,1826.9z M1180.1,1787c-0.5,0-1-0.1-1.5-0.2c-2.6-0.8-4.1-3.6-3.3-6.2
		c1.1-3.7,2.3-7.6,3.4-11.5c0.8-2.7,3.5-4.2,6.2-3.4c2.7,0.8,4.2,3.5,3.4,6.2c-1.2,4-2.3,7.8-3.4,11.6
		C1184.2,1785.6,1182.2,1787,1180.1,1787z M1191.6,1746.6c-0.4,0-0.9-0.1-1.3-0.2c-2.7-0.7-4.2-3.5-3.5-6.1c1-3.8,2.1-7.7,3.1-11.6
		c0.7-2.7,3.5-4.3,6.1-3.5c2.7,0.7,4.3,3.5,3.5,6.1c-1,3.9-2.1,7.8-3.1,11.6C1195.9,1745.1,1193.8,1746.6,1191.6,1746.6z
		 M1202.4,1705.9c-0.4,0-0.8-0.1-1.3-0.2c-2.7-0.7-4.3-3.4-3.6-6.1c1-3.8,2-7.7,3-11.6c0.7-2.7,3.4-4.3,6.1-3.6
		c2.7,0.7,4.3,3.4,3.6,6.1c-1,3.9-2,7.8-3,11.6C1206.6,1704.4,1204.6,1705.9,1202.4,1705.9z M1212.7,1665.1c-0.4,0-0.8,0-1.2-0.2
		c-2.7-0.7-4.3-3.4-3.6-6.1l2.9-11.6c0.7-2.7,3.4-4.3,6.1-3.6c2.7,0.7,4.3,3.4,3.6,6.1l-2.9,11.7
		C1217,1663.6,1215,1665.1,1212.7,1665.1z M1223,1624.3c-0.4,0-0.8,0-1.2-0.2c-2.7-0.7-4.3-3.4-3.6-6.1l2.9-11.7
		c0.7-2.7,3.4-4.3,6.1-3.6c2.7,0.7,4.3,3.4,3.6,6.1l-2.9,11.6C1227.2,1622.8,1225.2,1624.3,1223,1624.3z M1233.3,1583.5
		c-0.4,0-0.8-0.1-1.2-0.2c-2.7-0.7-4.3-3.4-3.6-6.1c1-3.9,2-7.8,3-11.7c0.7-2.7,3.4-4.3,6.1-3.6c2.7,0.7,4.3,3.4,3.6,6.1
		c-1,3.9-2,7.8-3,11.6C1237.5,1582,1235.5,1583.5,1233.3,1583.5z M1243.8,1542.8c-0.4,0-0.8-0.1-1.3-0.2c-2.7-0.7-4.3-3.4-3.6-6.1
		c1-3.9,2-7.8,3.1-11.6c0.7-2.7,3.5-4.3,6.1-3.5c2.7,0.7,4.3,3.5,3.5,6.1c-1,3.9-2,7.7-3.1,11.6
		C1248,1541.3,1246,1542.8,1243.8,1542.8z M1254.7,1502.2c-0.4,0-0.9-0.1-1.3-0.2c-2.7-0.7-4.2-3.5-3.5-6.2
		c1.1-3.9,2.2-7.7,3.2-11.6c0.7-2.7,3.5-4.2,6.2-3.5s4.2,3.5,3.5,6.2c-1.1,3.8-2.2,7.7-3.2,11.5
		C1258.9,1500.8,1256.9,1502.2,1254.7,1502.2z M1266.3,1461.8c-0.5,0-1-0.1-1.4-0.2c-2.6-0.8-4.2-3.6-3.4-6.2
		c1.2-3.9,2.3-7.7,3.5-11.5c0.8-2.6,3.6-4.1,6.2-3.3c2.6,0.8,4.1,3.6,3.3,6.2c-1.2,3.8-2.3,7.6-3.5,11.5
		C1270.5,1460.4,1268.5,1461.8,1266.3,1461.8z M1278.9,1421.7c-0.5,0-1-0.1-1.6-0.3c-2.6-0.9-4-3.7-3.2-6.3
		c1.3-3.9,2.6-7.7,3.8-11.4c0.9-2.6,3.7-4,6.4-3.1c2.6,0.9,4,3.7,3.1,6.4c-1.3,3.7-2.5,7.5-3.8,11.3
		C1282.9,1420.3,1281,1421.7,1278.9,1421.7z M1293.1,1382.1c-0.6,0-1.3-0.1-1.9-0.4c-2.6-1-3.8-3.9-2.8-6.5
		c1.5-3.7,3.1-7.5,4.7-11.2c1.1-2.5,4-3.7,6.6-2.6c2.5,1.1,3.7,4,2.6,6.6c-1.6,3.6-3.1,7.3-4.6,11
		C1296.9,1381,1295.1,1382.1,1293.1,1382.1z M1310.4,1343.9c-0.8,0-1.5-0.2-2.2-0.5c-2.5-1.2-3.5-4.2-2.2-6.7
		c1.8-3.6,3.7-7.2,5.6-10.8c1.3-2.4,4.3-3.4,6.8-2.1c2.4,1.3,3.4,4.3,2.1,6.8c-1.9,3.5-3.7,7-5.5,10.5
		C1314,1342.9,1312.2,1343.9,1310.4,1343.9z M1330.9,1307.2c-0.9,0-1.8-0.2-2.6-0.7c-2.4-1.4-3.1-4.5-1.6-6.9
		c2.1-3.4,4.3-6.9,6.5-10.2c1.5-2.3,4.6-3,6.9-1.5s3,4.6,1.5,6.9c-2.1,3.3-4.3,6.7-6.4,10
		C1334.2,1306.4,1332.5,1307.2,1330.9,1307.2z M1354.4,1272.5c-1,0-2.1-0.3-3-1c-2.2-1.6-2.7-4.8-1-7c2.4-3.2,4.9-6.5,7.4-9.6
		c1.7-2.2,4.8-2.6,7-0.9s2.6,4.8,0.9,7c-2.4,3.1-4.9,6.3-7.2,9.4C1357.5,1271.8,1355.9,1272.5,1354.4,1272.5z M1381,1239.9
		c-1.2,0-2.4-0.4-3.3-1.3c-2.1-1.8-2.2-5-0.4-7.1c2.7-3,5.5-6,8.2-8.9c1.9-2,5.1-2.1,7.1-0.2s2.1,5.1,0.2,7.1
		c-2.7,2.9-5.4,5.8-8,8.8C1383.7,1239.4,1382.3,1239.9,1381,1239.9z M1410.4,1209.9c-1.3,0-2.7-0.5-3.7-1.6c-1.9-2-1.8-5.2,0.3-7.1
		c3-2.8,6-5.5,9-8.1c2.1-1.8,5.2-1.6,7.1,0.5c1.8,2.1,1.6,5.2-0.5,7.1c-2.9,2.6-5.9,5.2-8.8,7.9
		C1412.8,1209.5,1411.6,1209.9,1410.4,1209.9z M1442.8,1183.2c-1.5,0-3.1-0.7-4.1-2.1c-1.6-2.2-1.1-5.4,1.1-7
		c6.4-4.6,10.1-6.9,10.3-7c2.4-1.4,5.4-0.7,6.9,1.7c1.4,2.4,0.7,5.4-1.7,6.9l0,0c0,0-3.6,2.2-9.6,6.6
		C1444.8,1182.9,1443.8,1183.2,1442.8,1183.2z"/>
</g>
<g class="st3">
	<path d="M1530.7,1412.2c20.3-92.9,55.1-208.9-17-249.8l0,0c0,0-74.3,477-152.6,681.5c-77.6,202.5-666.5,1078.9-678.2,1096.2
		c0.1,0,0.2,0.1,0.2,0.1c0.3,0.1,0.7,0.3,1,0.4l319.6,44.7c0.4,0,0.6,0,0.6,0s43.6-261.7,101.8-392.5s186.1-203.5,194.8-299.5
		s197.7-456.5,197.7-567C1498.8,1615.7,1510.4,1505.2,1530.7,1412.2z"/>
</g>
</svg>
