<svg id="Layer_1" xmlns="http://www.w3.org/2000/svg" viewBox="0 0 642.9 408.6"><style>.st0{fill:silver}</style><path class="st0" d="M246.4 237.7v-14.3l6.2-.5v-60.2l-.6-.2-17.7 64.7h-1.6c-6-21.6-12-43.3-18.1-64.9l-.6.1v60.4l6.4.5v14.3h-26.6v-14.3l6.1-.5v-78l-6-.3v-14.6h20c9.3 0 9.3 0 11.6 9 3 11.9 6 23.8 9 35.6.3 1.1.7 2.2 1.3 4.4 2.2-8.4 4.1-15.8 6-23.1 2-7.6 4-15.2 5.8-22.9.5-2.1 1.3-3.1 3.6-3 7.9.1 15.8.1 23.7 0 2.3 0 3.3.7 3.1 3.1-.2 3.7 0 7.5 0 11.4l-6.5.4v77.7c2.2.4 5.4.1 5.9 1.1 1 2.1.6 4.9.6 7.4.1 2 0 4.1 0 6.4l-31.6.3zM471.5 130.2h28.6v14.4l-5 .5c3 18.5 6 36.8 9 55.1l.7.1c.7-4 1.5-8.1 2.1-12.1 3-18.3 5.9-36.6 8.8-54.9.4-2.5 1.3-3.2 3.7-3.2 10.1-.1 10.1-.2 11.7 9.9 3.1 19.6 6.3 39.3 9.5 58.9.2 1 .6 1.9 1.3 2.6 2.8-18.7 5.7-37.5 8.5-56.4l-5.8-.5c0-4.2-.1-8.3.1-12.4 0-.7 1-1.9 1.5-1.9 7.6-.1 15.2-.1 23-.1v14.5l-6.2.3c-5.1 30.9-10.1 61.9-15.2 92.9h-17.2c-3.3-19.4-6.5-38.7-9.8-57.9l-.7.1c-2.7 17.1-5.5 34.2-8.1 51.3-1 6.7-.9 6.7-7.9 6.7h-10.2c-1.2-6.9-2.5-13.6-3.7-20.4-4-22.8-8.1-45.6-11.8-68.4-.8-4.7-3.4-4.6-7-4.3l.1-14.8zM622.6 191.3V145l-6.2-.3v-14.3h26.5v14.2h-6.2v93h-17.5c-7.4-22.4-14.9-45-22.4-67.6l-.6.1v52.4c6.7 1.4 6.7 1.4 6.7 8.5v6.6h-27.1c0-4.3-.1-8.6.1-12.9 0-.6 1.3-1.4 2.2-1.6 1.4-.2 2.8-.2 4.2-.1v-78.1l-6.2-.4V130c8.3 0 16.4-.1 24.5.1.9 0 2 2.1 2.5 3.4 6.1 18.2 12.1 36.3 18.1 54.5l1.2 3.3h.2zM472.8 184.3c-1.2 10.6-2.2 21.2-3.9 31.7-.6 3.7-2.3 7.4-4 10.8-4.6 9.2-12.3 13.7-22.6 13.5s-17.5-4.7-22.2-13.8c-3.4-7-5.5-14.6-5.9-22.3-1.3-17.2-1.9-34.4 1.9-51.4 1-4.6 2.8-9 5.2-13.1 9.8-16.6 33.7-16.2 43.2.5 4.2 7.4 6 15.6 6.7 24 .6 6.6.7 13.3 1 20l.6.1zm-39.9-.5h1.2c0 8.2-.3 16.5.1 24.7.3 4.1 1.2 8.1 2.5 12 .8 2.6 3 3.9 5.9 4 2.6.2 5.1-1.4 6-3.9.8-1.8 1.3-3.6 1.6-5.6 2.4-18 1.8-36.1.9-54.1-.4-4.6-1.2-9.1-2.5-13.5-.7-2.6-2.9-4.1-5.8-4.2-2.8-.3-5.4 1.4-6.3 4.1-.9 2.1-1.5 4.3-1.8 6.6-.7 10.1-1.2 20-1.8 29.9zM128.4 145l-6.4-.3v-14.3c1.5-.1 2.9-.2 4.3-.3 7.5 0 15 .1 22.6-.1 2.6 0 3.8.6 3.6 3.4-.2 3.6-.1 7.2-.1 11.1l-5.4.5c-.2.6-.3 1.1-.4 1.7 0 21.2.1 42.5.2 63.7 0 2.2.2 4.4.7 6.5 1.2 5.7 3.8 7.7 9.3 7.6 5.1-.1 7.6-2.4 8.5-8.1.4-2.6.6-5.3.7-8 .1-20.1.1-40.3.1-60.4 0-.9-.1-1.9-.1-3l-5.2-.4v-14.2h25.6v14.2h-6.5v58.5c0 4.5-.2 9-.6 13.4-1.2 17-13.5 26.4-30.3 23.5-12.2-2.2-19.5-10.4-19.8-23.8-.5-22.1-.4-44.2-.6-66.2-.2-1.5-.2-3.1-.2-5zM290.5 145l-6.2-.3v-13.9c.2-.2.4-.5.6-.5 11 0 22.1-.6 33.1.4 12.9 1.1 20.9 9.4 23.7 22.2 1.6 7.4 1.5 15-.2 22.4-3 12.8-12.7 20.4-27 21.3-5.6.3-5.6.3-5.6 6.1v20.5h8.8V238h-33.2v-14.6l6.1-.5V145zm18.5 36.8c6.3.7 10.4-1 12.4-5.8 3.4-8 3.4-17 0-25-2.2-5.2-6.5-6.9-12.4-5.5v36.3zM15.1 233l-1.6 4.9H2.2v-36.5h12.5c.6 3.4 1 6.9 2.1 10.2.9 3.1 2.4 6 4.4 8.6 3.6 4.3 9.6 3.3 11.4-2 1.1-3.4 1.6-7.8.3-10.9-2.5-5.7-5.8-11.1-9.6-16-4.1-5.4-9.1-10.1-13.4-15.4C3.7 168.4-.5 160 0 150c.6-11.8 7.3-20.2 17.4-22.1 5.1-1.1 10.4.4 14.2 3.9l3.3 2.9c1.7-4.9 4.6-5.8 13-4v31.2c-3.8 0-7.5.1-11.2-.1-.7 0-1.4-1.6-1.8-2.6-1.2-3.7-2-7.5-3.4-11-1.3-3.1-3.8-5.3-7.4-4.7-3.8.6-5.2 3.7-5.8 7.1-.8 4.4.9 8.2 3.6 11.5 4.7 5.7 9.6 11.3 14.4 16.9 6.8 8 13.3 16.1 15.6 26.7 1.8 8.1 1.2 16-2.6 23.4-6.6 12.6-21.7 15.2-32.2 5.7-.6-.6-1.1-1.1-2-1.8zM76.2 145H67v21.4H55v-36.1h61v36.2h-11.6v-21.4h-9.5v77.8l6.9.5v14.3H69.3v-14.3l6.9-.5V145zM387.5 145.1v77.8l7 .5v14.4h-32.3v-14.3l6.8-.5v-77.8h-9.2v21.5h-12.1v-6.9-26.6c0-2.1.5-3.1 2.8-3.1 18.9.1 37.9 0 56.8.1.6.1 1.1.2 1.6.3v36.1h-11.7v-21.5h-9.7zM150.9 369.9l4.1 2.1-3 6.8-13.4-5.8c1.4-3.4 2.8-6.6 4.1-9.8 2.6-6.2 2.1-7.4-4.2-10.2-1.3-.6-2.7-1.1-4.3-1.8l-4.2 9.5 4.4 2.5-2.9 6.7-17.6-7.7 2.8-6.8 4.8 1.6 11.2-25.8-4.4-2.4 3-6.9c8.1 3.6 16 7 23.8 10.9 4.9 2.4 8 6.4 7.3 12.2-.7 5.5-3.5 9.2-8.1 9.8l-3.4 15.1zm-13.6-25.7c3.5 1.4 6.7 2.9 10 3.9 2.4.8 4.2-.3 5.3-2.7s1-4.7-1.4-6c-3.1-1.7-6.4-3.1-9.8-4.7l-4.1 9.5zM442 359.6l-4.8 1c-.7-2.3-1.3-4.5-2.2-7.4 9.4-2.3 18.3-5 27.5-6.5 7.6-1.2 13.1 3.8 13.2 11 0 2.6-1.3 5.2-2.1 8.3 4.4 2.2 4.3 7.6 6.1 12.4l5.2-1c.6 2.2 1.2 4.5 1.9 7.1l-14 3.9c-1-3.4-1.9-6.6-2.9-9.8-2-6.8-3.1-7.4-9.8-5.7-1.4.4-2.7.8-4.5 1.4.9 3.4 1.8 6.6 2.7 10l4.8-.9c.6 2.2 1.3 4.5 2 7.1l-18.5 5.1c-.7-2.4-1.3-4.6-2-7l4.7-1.8c-2.3-9-4.7-17.9-7.3-27.2zm11.7 7.3c3.8-1.1 7-2 10.1-3.2 2.5-1 3.2-3 2.5-5.6s-2.2-4.1-4.9-3.6c-3.4.6-6.8 1.5-10.4 2.4.9 3.4 1.7 6.4 2.7 10zM268.7 405.6l-19-3c.4-2.5.7-4.7 1.1-7.1h4.4c.5-3.8-1-5.5-4.6-5.8-2.5-.1-5.1-.4-7.5-1.1-3.7-1.1-5.5.3-6.3 4.1l4.3 1.2-1 7.3-18.1-2.8c.4-2.6.7-4.9 1.1-7.6 4.5 2.2 5.6-1.2 7.2-3.9 4.2-7.1 8.4-14.1 12.8-21.5l-3.6-1.2 1.1-7.2 22.7 3.4c-.4 2.5-.7 4.8-1 7.1l-3.8.2c2.3 9.5 4.4 18.8 6.8 28 .3 1.1 2.4 1.8 4.4 3.2-.3 1.6-.6 4.1-1 6.7zM252.6 382c-1-4.3-1.8-7.9-2.8-12.5l-6.5 11.1 9.3 1.4zM313.3 366.1c2.1-3.5 4.9-.8 7.7-1.5-.2 5.4-.5 10.2-.7 15.4l-6.7-.3c-.8-7-10.9-11.3-16.6-7.4-2.8 1.9-2.7 5.2.4 6.6 2.8 1.1 5.7 2 8.6 2.7 2.3.7 4.7 1.2 7 2 6.6 2.4 8.7 5.6 8.3 12-.4 6.5-3.8 10.8-9.9 12.3-6.3 1.5-12.1.7-18.8-2.8-1.8 3.5-4.8 1.5-7.3 1.7v-15.4h6.5c1.6 7.1 11.2 11.6 17.7 8.2 1.3-.7 2.8-2.5 2.7-3.8s-1.7-3-3.1-3.5c-4.9-1.8-10-2.9-14.9-4.7-6.7-2.5-9.6-9.4-7.1-16.1 1.8-4.6 5.4-7 10.1-8 5.7-1.2 10.1-.4 16.1 2.6zM524.1 339.2l-6.1 2.6c-3.7-5.8-14.7-5.4-18.1.5-.7 1.2-.7 2.7-.2 4 .9 1.2 2.3 1.8 3.8 1.8 4.7-.5 9.3-1.6 14-2.3 7.7-1.2 11.8.8 14.2 6.9 2.7 6.8 1 12.6-5.3 16.7-5 3.3-10.4 5.1-16.5 4.3l.6 1.1-6.8 4.5c-2.2-5.2-4.2-9.8-6.4-14.9l6.2-2.8c3.9 6.1 16.1 5.6 19.7-.7.6-1.1.9-3.2.3-4-1.1-1.2-2.7-1.8-4.3-1.8-4.5.4-8.8 1.5-13.3 2.1-7.3 1-12.2-1.7-14.6-7.9-2.2-5.9-.1-11.7 5.8-15.7 4.3-2.9 8.5-4 14-4.6l6.9-4.2c2.2 5.1 4.1 9.6 6.1 14.4zM391.6 368.5l-4.9.5c-.4-2.2-.8-4.5-1.3-7.3l36-5.5c.7 4.6 1.4 9.1 2.2 13.9l-8.3 1.5-1.3-6.6-13.2 2c.5 3.1.9 5.8 1.3 9l11.4-1.5c.4 2.5.7 4.9 1.1 7.5l-11.2 2c.5 3.6 1 7.1 1.7 11.1l13.9-2c-.3-2.5-.5-4.7-.8-7.4l8.4-1.2c.8 5 1.5 9.6 2.3 14.8l-36.7 5.6-1.1-7.4 4.8-1.1c-1.5-9.2-2.9-18.3-4.3-27.9zM217 368.5c0 12.9-9.8 23.1-22.1 23.1-13 .1-23.1-9.8-23-22.6s10-23 22.3-23c12.7.2 22.8 10.1 22.8 22.5zm-35.6.4c.1 7.8 3.6 12.6 9 14.1 5.6 1.5 11.1-.5 13.9-5.8 1.6-3.1 2.6-6.5 2.9-10 .4-6.7-4.7-12.5-11.4-12.9-4.7-.3-9.2 2.2-11.4 6.4-1.3 2.7-2.3 5.4-3 8.2zM344.2 372.3v8.4h-8.3c-.3-5.1-.6-10.3-1-15.9l38.6-2c.3 5.6.6 10.8.9 16.4h-8.5c-.2-2.7-.4-5.4-.7-8.4l-5.9.5c.4 9 .8 17.7 1.3 26.4 0 .6 1.2 1.5 2 1.7 1.3.2 2.7.2 4 .1.1 2.4.2 4.7.4 7.4l-21 1.1c-.2-2.6-.4-4.7-.6-7.2l5.7-1c0-2.7.1-5.5 0-8.2-.2-5.1-.5-10.2-.7-15.2-.3-5.3-.4-5.4-6.2-4.1zM418.5 51.4l1.8-6.5 4.4.7c2.2-8 4.4-16 6.6-24.2l-4.1-1.6c.5-2.1 1-4 1.6-6.6l31.9 8.6c-1.2 4.3-2.2 8.2-3.4 12.4l-7.4-2c.3-2 .6-3.7 1-5.8l-11.2-3.1c-.8 2.6-1.4 4.9-2.2 7.6l9.9 3c-.6 2.3-1.1 4.3-1.7 6.8l-10-2.5c-.9 3.1-1.7 6.1-2.7 9.6l11.9 3.4c.7-2 1.4-3.9 2.2-6.2l7.5 1.9c-1.2 4.4-2.3 8.5-3.5 13.2l-32.6-8.7zM404.2 48.3c-10.8-1.7-20.9-3.2-31-5-.7-.1-1.6-1.6-1.6-2.5 0-1.5.3-2.9.7-4.3h4.4c1.3-8.1 2.6-16.2 3.9-24.5l-4.2-1.4c.3-2.1.6-4 .9-6.6l32.5 5.2c-.7 4.4-1.3 8.3-2 12.7l-7.7-1.2c.2-2 .4-3.8.6-5.9l-11.6-1.9c-.4 2.7-.8 5.1-1.2 7.8l10 1.9c-.3 2.3-.6 4.5-1 6.9L386.7 28c-.5 3.4-1 6.5-1.6 9.9l12.3 1.9 1.4-6.5 7.6 1.2c-.7 4.9-1.4 9.1-2.2 13.8zM260.8 25.2c0 11.6-8.9 20.2-20.7 20.1-11.5-.1-20.1-9.1-20-21 .1-11.3 9.1-20 20.7-20s20 9.1 20 20.9zm-20 12.7c6.6-.1 11.2-5.1 11.1-12.2-.1-8-5.1-14.1-11.7-14s-11 5-11 12.3c0 8.3 4.8 14 11.6 13.9zM202.4 28.1l-6.3 1.8c-.6-4.6-3.6-6.7-7.8-7.3-6.2-1-11.1 2.6-12.6 8.9-1.2 5.4 1.3 12.1 5.8 15.1 4.2 2.8 9.7 2.5 13.6-.7 2.2-1.9 3.8-4.6 5.9-7.3l5.3 2.5c-3.1 11-14.3 17.5-25.4 14.8-9.4-2.4-16.2-14.3-14-24.6 2.5-11.7 11.9-17.5 24.2-16.1l6.7-3.5 4.6 16.4zM281.4 8.2l-4.6-.4c-.1-2-.2-4-.3-6.7L309.3 0v12.7h-7.2l-.7-5.1H290v8h10.2c.1 2.3.2 4.4.4 6.9l-10.1.8V33l5.4.3c.1 2.2.2 4.2.3 6.6l-18.5.8v-7l3.6-.4V8.2zM330.9 7.7l-4.4-.7c.1-2.1.3-4.2.5-6.7l16.5 1c5.3.3 10.6.6 16.3.9-.3 4.4-.6 8.4-.9 12.9l-7.6-.5V8.9L339.6 8c-.2 2.7-.3 5.2-.5 8l10.3 1c-.2 2.3-.3 4.4-.5 6.7h-10.2c-.3 3-.5 6.1-.8 9.5l5.4.8c-.1 2.2-.2 4.3-.4 6.8l-18-1.1V33l4.5-.4c.5-8.2 1-16.5 1.5-24.9zM193.5 300.8c-7.3 0-12.8-5.4-12.8-12.5s5.7-12.4 13-12.3 12.8 5.4 12.7 12.5-5.5 12.4-12.9 12.3zm.1-20c-4.3 0-7.3 3.3-7.2 7.8.2 4.1 3.7 7.2 7.7 6.9 4.1-.2 7.2-3.7 6.9-7.7-.2-3.9-3.5-7-7.4-7zM328.6 300.6V276c4.7.4 9.3.2 13.7 1.1 5.2 1.1 8.4 6 8.3 11.5 0 5.4-3.7 10.2-9 11.4-1.2.3-2.4.5-3.6.5-3 .1-6 .1-9.4.1zm5.2-5c4 .2 7.9.8 10.3-3.1 1.8-2.6 1.6-6.1-.3-8.5-2.5-3.5-6.2-3.1-10-2.7v14.3zM168.5 292.2c1.8 2.6 3.4 5.1 5.3 8-3.4.8-5.9.9-7.8-2.5-1.4-2.5-2.5-6.2-7.2-4.6-.1 2.2-.2 4.6-.3 6.9-4.7 1.2-5.1 1-5.1-3.4 0-5.5.2-10.9-.1-16.4-.1-3.3 1.1-4.3 4.2-4 2.2.2 4.4 0 6.5.1 5.1.2 8 1.9 9.1 5.3 1.2 3.9-.1 7.1-4.6 10.6zm-9.8-3.2c3-.7 5.9-1.6 8.7-2.6.5-.2.5-3.3.1-3.5-2.9-1-5.8-1.9-8.8-2.6v8.7zM376 276.1c4.2.2 8.1.1 11.9.6 6.1.9 9.9 5.5 9.9 11.5s-3.6 10.8-9.7 11.8c-3.9.6-7.9.5-12.1.7v-24.6zm5 19.6c4.2.2 8.1.7 10.4-3.4 1.6-2.6 1.4-5.8-.4-8.2-2.5-3.5-6.1-3.2-10-2.8v14.4zM318.3 276.3v4.6h-12.5v5.2h10.8v4.4h-10.8v5.2h12.1c1.5 4.3 1.2 4.9-2.6 4.9s-7.8-.1-11.6 0c-2.4.1-3.5-.5-3.4-3.2.2-6 0-12.1.1-18.2 0-1 1.2-2.8 2-2.9 5.1-.1 10.3 0 15.9 0zM212.7 300.2c3.2-7.6 6.3-15.1 9.6-22.5.4-.8 2-1.4 3.1-1.5 1.1 0 2.1.5 2.8 1.4 3.3 7.4 6.4 14.8 9.6 22.5-3.3.7-5.6.9-6.7-2.9-.3-1-2.1-2-3.4-2.2-1.8-.4-3.6-.4-5.4 0-1.2.2-2.8 1.2-3.1 2.1-.8 3.5-3 4-6.5 3.1zm15.8-9.8c-1.1-2.6-2-4.8-3.3-8-1.3 3.4-2.2 5.6-3.1 8h6.4zM404 300.1c3.3-7.7 6.4-15.3 9.8-22.8.8-1.9 4.9-1.8 5.7.1 3.3 7.5 6.4 15 9.7 22.8-3.3.7-5.8.9-6.6-2.7-.4-2-1.7-2.7-3.7-2.5-1.6.1-3.1.1-4.7 0-1.9-.2-3.3.4-3.8 2.4-.8 3.5-3.1 3.7-6.4 2.7zm15.8-9.8c-1.1-2.6-2.1-4.8-3.4-7.8-1.2 3.1-2 5.2-3 7.8h6.4zM262.9 279.3c-.7 1-1.4 2.1-2.2 3.3-2.1-.7-4-1.6-5.9-1.8-1.1-.1-2.4 1-3.6 1.6.8 1 1.5 2.4 2.6 2.9 1.8.9 3.9 1.2 5.8 2 2.8.9 4.6 3.6 4.2 6.5-.1 3.3-1.8 5.6-4.9 6.5-5 1.5-9.5.4-14-3.1l2.5-3.3c2.5.9 4.9 2 7.3 2.3 1.2.1 2.5-1.2 3.8-1.9-.9-1-1.6-2.3-2.7-2.8-1.8-.9-3.9-1.2-5.9-1.9-2.7-.8-4.4-3.4-4.2-6.2-.1-2.8 1.5-5.3 4.1-6.4 3.9-1.9 9.2-1 13.1 2.3zM383.6 90.8c-1.7.2-3.3.3-5 .3-3.3-.1-5.5-1.9-6.1-5.2-.7-2.9.7-6 3.3-7.4 3.7-2.4 8.7-1.4 11.2 2.3.6.9 1 1.9 1.2 3 .4 2.1.5 4.3.1 6.5-1.4 8.2-8 10.9-15.3 6.1l1.8-2.9c6.8 1.8 7.7 1.5 8.8-2.7zm-3.7-2.7l1.6-.1c.8-1.3 2.4-2.7 2.3-3.9s-2-2.5-3.3-2.8c-2-.4-3.8.9-3.4 3.1.2 1.4 1.8 2.5 2.8 3.7zM352.2 96.3l1.8-2.9c6.1 2.1 7.4 1.7 8.7-2.7-.9.1-1.7.3-2.5.4-4.3.5-7.4-1-8.4-4.1-1.2-3.4.3-7 3.5-8.7 3.6-1.9 8.3-1 10.6 2 3 4 2.4 12.8-1.2 16.3-3.2 3-8.1 3-12.5-.3zm8.3-15.6l-1.6-.1c-.9 1.2-2.6 2.5-2.6 3.7 0 1 2 3 3 2.9 1.4-.1 3.4-1.5 3.7-2.8.2-.9-1.6-2.4-2.5-3.7zM341.8 90.8c-1.9.1-3.4.4-4.9.3-3-.1-5.2-1.4-6-4.4-.8-3.2-.1-6 2.8-8 3.7-2.6 8.8-1.8 11.4 1.9.8 1.2 1.3 2.5 1.5 3.9.2 1.8.2 3.6 0 5.4-.8 8.2-8.3 11.5-15.4 6.4l1.8-2.9c6.3 2.1 7.4 1.7 8.8-2.6zm-3-1.7c1.7-2.2 3.5-3.7 3.3-4.7-.6-1.5-1.9-2.6-3.5-2.9-1.6.4-2.8 1.5-3.3 3-.2 1.1 1.7 2.4 3.5 4.6zM238.5 77.8c4.6 0 8.9-.1 13.3.1.9.1 1.7 1.5 2.6 2.4l-.7 1.2h-10.9v4.4h9.5v4h-9.2c-1.3 3.6-.4 5 3.1 4.7 2.4-.2 4.8 0 7.5 0 .1 1.2.2 2.3.3 3.6h-15.6V77.8zM474.2 276.4c3.2-.1 5.9-1 7.4 2.4 1.3 2.5 2.7 4.8 4.2 7.1 1.4-2 2.7-4.1 3.9-6.3 1.6-3.4 4-4 7.5-2.9-3.7 7.6-11.6 13.5-8.3 23.6h-6c2.7-9.9-4.6-16-8.7-23.9zM284 300.4h-5.3v-19.1l-7-.3c-1-4.5-.9-4.7 3.5-4.7H291v4.7l-7 .3v19.1zM258.2 95.4l1.9-2.4c2.4.7 4.9 1.2 7.3 1.6.7.1 1.5-1.1 2.3-1.8-.6-.7-1-1.7-1.8-2-1.8-.8-3.6-1.2-5.5-1.9-2.6-.9-4.3-3-3.6-5.6.7-2.2 2.1-4.1 4.1-5.3 3.5-1.7 7-.6 10.4 1.9l-1.8 2.9c-1.9-.6-3.9-1-5.9-1.3-.8 0-1.6 1-2.4 1.6.5.7 1 1.7 1.7 2 1.6.6 3.2 1.1 4.8 1.6 3 1 4.7 3 4.4 6.3s-2.4 4.9-5.5 5.4c-3.6.8-7.5-.3-10.4-3zM454.9 276.5h4.9v19.2h11.9v4.7h-16.8v-23.9zM278.4 81.5V78h16.7c.1 1.1.1 2.1.2 3.5l-6.3.5v16.2h-4.4V88c0-5.9 0-5.9-6.2-6.5zM443.2 300.4h-4.6v-23.9h4.6v23.9zM317 82.6c-1.3-3.7 1.3-5.4 7.6-4.8v20.3l-3.9.2V82.5l-3.7.1zM301.8 98.2h-4.5c-.1-1.2-.1-2.5-.2-4.1l4.4-.2c.1 1.4.2 2.6.3 4.3z"/></svg>