<svg id="svg2985" xmlns="http://www.w3.org/2000/svg" viewBox="0 0 441.1 301.7"><style>.st0{fill:silver}</style><g id="g2993" transform="matrix(1.25 0 0 -1.25 -1250.338 2253.85)"><path id="path3" class="st0" d="M1159.8 1778.6c1.6 0 2.6 1.6 3.6 4.1 1.3 3 7.3 8.7 15.6 8.7 6.3 0 12.5-3.9 17.5-8 4.7-3.9 8.6-4.1 8.6-5.8 0-.6-1-1-2.1-1-4.7 0-13 7.1-21.9 7.1-10 0-18.2-8.7-18.2-13.6 0-1.5.6-2.6 2.4-2.6 2.2 0 4.6 5.2 10.2 5.2 5.2 0 9.5-4.9 16.6-3.9.9.1 1.1-1.2.6-1.5-14.3-8.1-29.5-15.8-29.5-41.5 0-19.7 11-38.7 35.4-38.7 25.4 0 37.6 16.5 37.6 38.7 0 19.1-11.6 36.8-27.2 36.8-.6 0-1.1 0-1.7-.1-1-.3-1.9-1.2-1.9-2.5 0-1.6.4-2 1.4-2.8 10-7.1 13.5-14.1 13.5-33.4 0-13.6-5.6-28.8-19.7-28.8-15.2 0-21.7 16.3-21.7 30.9 0 17 4.3 25 14.9 32.9 11.5 8.7 25.1 12.8 25.1 20.7 0 3.9-4.2 4.6-6.9 4.8-2.4.1-5.9 1-7.6 3.5-7 7.4-15.2 15.1-24.9 15.1-13.9 0-22.1-14.8-22.1-20.3 0-2 .4-4 2.4-4z"/><path id="path5" class="st0" d="M1298.7 1756.8h2.2c.7 0 1.5-.7 1.8-1.7.3-.9.4-1.4.4-4.3v-49.6c0-3-.1-3.6-.4-4.4-.2-.8-1-1.4-1.8-1.4h-2.2c-1.5 0-2.7-1.3-2.7-3 0-2.4 1.2-3.2 4.9-3.2h43l2.1.1c1.7.1 2.3.5 3.1 2.4l3.2 7.4c.7 1.6.9 2.6.9 3.1 0 1.6-1.1 2.7-2.9 2.7-1.4 0-2-.4-3.3-2.4-2.2-3.2-4.3-4.9-6.8-5.3-1.9-.3-4.7-.5-10.2-.5-5.8 0-8 .2-9.4.8-1.8.7-2.1 1.9-2.1 7.8v17.6c0 2.4.3 3.6 1 4 .6.3 1.3.4 4.5.4h8.6c2.9 0 4.3 1.3 4.3 3.9 0 2.7-1.1 3.7-4.3 3.7h-14.1v14.2c0 5.9.7 6.7 6.7 6.7h7.4c6.9 0 9-.8 11.2-4 .8-1 1.2-1.7 1.3-1.9.4-.4 1-.9 1.5-1.1.3-.2.8-.3 1.2-.3 1.7 0 3 1.2 3 2.6 0 .3-.2 1-.6 1.9l-3.2 8.2c-.7 1.7-1.5 2.2-3.8 2.2h-42.3c-3.7 0-5.1-.8-5.1-3.2 0-2 1.3-3.4 2.9-3.4z"/><path id="path7" class="st0" d="M1239.9 1756.8h2.1c.8 0 1.6-.6 1.9-1.4.3-.9.5-1.3.5-4.3v-50.2c0-2.8-.1-3.3-.5-4.1-.2-.8-1.1-1.4-1.9-1.4h-2.1c-1.5 0-2.7-1.3-2.7-3 0-2.4 1.2-3.2 4.8-3.2h42.3c3.4 0 4.3.6 5.4 3.3l3.4 8.4.4 1.2c.2.5.3.9.3 1.3 0 1.3-1.3 2.4-3 2.4-1.3 0-2-.4-3.3-2.3-2.6-3.8-4.1-5.2-5.9-6-1.9-.8-3.1-.8-9.7-.8-7.6 0-9.7.1-10.8.9-1.3.8-1.5 1.9-1.5 6.8v46.7c0 2.9 0 3.6.3 4.3.3.9 1.3 1.4 2.3 1.4h2.4c1.5 0 2.9 1.3 2.9 3.1 0 2.4-1.3 3.2-5.3 3.2H1242c-3.7 0-5.1-.8-5.1-3.2.1-1.8 1.4-3.1 3-3.1z"/><path id="path9" class="st0" d="M1222.1 1617.6c-.1-2.5-.3-2.8-3.7-3.3-1.9-.2-3-1.3-3-3 0-.9.5-1.9 1.3-2.4 3.9-3 16.9-5.6 28.3-5.6 12.2 0 20.6 2.4 27.1 7.7 8.1 6.5 12.6 17.7 12.6 31.1 0 12-3.5 22.1-10 28.7-6.7 6.9-15.7 9.9-28.9 9.9-12.4 0-25.3-2.3-29.1-5.3-.9-.7-1.4-1.7-1.4-2.7 0-1.7 1.2-2.8 3.3-2.9 3-.2 3.3-.7 3.4-3.6l.1-2.4v-46.2zm15.5 44.7c0 6.3.2 7.7 1.6 8.8 1.7 1.3 4.8 2.2 8.2 2.2 13.1 0 20.9-11.6 20.9-31.1 0-19.6-7.8-30.9-21.3-30.9-4.2 0-7.5 1.1-8.7 2.8-.7 1.1-.8 2-.8 6.4v41.8h.1z"/><path id="path11" class="st0" d="M1293.6 1651.1c3.4-4 4.4-4.7 14.8-12 6.3-4.4 9.2-6.9 11.6-9.6 2.3-2.7 3.5-5.3 3.5-8.3 0-5.9-4.8-9.9-12-9.9-6.3 0-12.4 3.3-16.2 8.8l-1.5 2.2c-.7.9-1.7 1.4-2.7 1.4-2 0-3.5-1.4-3.5-3.4 0-.5.1-1.6.3-2.2l2.7-11.1c.7-2.7 1.5-3.7 3.4-3.7 1 0 1.5.2 2.5 1 1 .9 1.4 1.1 2.3 1.1.7 0 .9-.1 2.4-.6 3.2-1 7.5-1.6 11.5-1.6 14.5 0 23.9 8.4 23.9 21.3 0 5.7-2.2 11.2-5.9 15.1-3.5 3.7-6.4 5.9-15 12-2.3 1.7-4.1 2.9-5.4 3.9-2.2 1.7-4 3.4-5 5.1-.9 1.2-1.2 2.9-1.2 4.6 0 4.6 3.3 7.4 8.3 7.4 3.6 0 7.3-1.2 10.3-3.6 2.3-1.8 2.7-2.2 5.3-6 1-1.4 1.6-1.9 2.9-1.9 1.9 0 3.2 1.2 3.2 2.7 0 .3 0 1-.2 1.5l-2.6 12c-.4 2-1.4 3.1-3.1 3.1-.9 0-1.2-.1-2.3-.9-1-.7-1.8-1-2.5-1-.4 0-1 .1-1.5.2-1.5.3-2.4.6-2.7.7-3.2.7-6.4 1-9.4 1-12.1 0-20.2-7.1-20.2-17.9-.2-4.2 1.3-8.2 4-11.4z"/><path id="path13" class="st0" d="M1050.2 1671.5c11.4 0 12.7-.5 15.8-5.1 1.1-1.7 1.9-2.3 3.1-2.3 1.7 0 2.8 1.2 2.8 2.7 0 .4-.1.9-.4 1.8l-2.9 7.6c-.5 1.3-1.1 2.2-1.8 2.5-.6.3-.9.5-2.6.5H1024c-3.6 0-4.8-.8-4.8-3.2 0-1.7 1.1-3.1 2.6-3.1h2.2c.8 0 1.5-.6 1.9-1.4.2-.8.3-1.4.3-4.3v-49.9c0-3-.1-3.6-.3-4.3-.3-.9-1.1-1.4-1.9-1.4h-2.2c-1.5 0-2.9-1.4-2.9-3.1 0-2.4 1.3-3.2 5-3.2h20.2c4.1 0 5.4.8 5.4 3.2 0 1.7-1.2 3.1-2.9 3.1h-2.5c-.9 0-1.9.5-2.3 1.4-.3.8-.3 1.3-.3 4.3v22.1c0 2.3.1 3 .9 3.3.4.2 1 .3 1.5.3h11.2c3.1 0 4.7 1.3 4.7 3.8 0 2.6-1.5 3.8-4.7 3.8h-13.6v16.5c0 4.2.7 4.4 8.7 4.4z"/><path id="path15" class="st0" d="M1331.5 1596h-306c-9.4 0-17-7.7-17-17.1 0-9.5 7.6-17.1 17-17.1h306c9.4 0 17 7.7 17 17.1 0 9.5-7.6 17.1-17 17.1zm-264.4-23.3c0-.3.4-.5.8-.5h.7c.6 0 1.1-.6 1.1-1.2 0-.8-.4-1.2-1.8-1.2h-7.9c-1.4 0-1.9.3-1.9 1.2 0 .7.5 1.2 1.2 1.2h.8c.3 0 .6.2.8.5.1.3.1.5.1 1.7v8.9l-7.1-7c-.4-.5-.9-.7-1.4-.7-.5 0-.8.2-1.3.7l-6.7 7.2v-9.1c0-1.1 0-1.4.1-1.7.1-.3.4-.5.8-.5h.8c.7 0 1.2-.6 1.2-1.2 0-.8-.5-1.2-2-1.2h-5.7c-1.4 0-1.9.3-1.9 1.2 0 .7.6 1.2 1.2 1.2h.8c.3 0 .6.2.8.5.1.3.2.7.2 1.7v9.9c0 1.2 0 1.4-.2 1.8-.1.3-.4.6-.8.6h-.8c-.6 0-1.2.5-1.2 1.2 0 .9.6 1.2 1.9 1.2h6.4c.7 0 1.1-.2 2-1.2l6.1-6.7 7.1 7c.7.7 1.2.9 1.8.9h4.9c1.3 0 1.8-.3 1.8-1.2 0-.7-.5-1.2-1.1-1.2h-.9c-.3 0-.5-.2-.6-.5-.1-.3-.1-.7-.1-1.8v-9.9c-.2-1.2-.2-1.5 0-1.8zm52.7-3h-8.9c-.8 0-1.3.5-1.3 1.2 0 .9.5 1.1 1.6 1.3 1 .2 1 .7.7 1.6l-.1.3c-.2.6-.5.6-1.5.6h-6.4c-.6 0-1-.1-1.2-.1-.2-.1-.3-.2-.4-.3l-.1-.2c-.3-.6 0-1.6 1.2-1.8 1.1-.1 1.5-.5 1.5-1.2 0-.8-.6-1.2-1.5-1.2h-7c-1 0-1.5.3-1.5 1.1 0 .7.4 1 1.2 1.2.6.1.8.3 1 .6.2.3.6 1 1 1.8l6.6 13.2c.8 1.5 2.2 1.8 3.5 1.8 1.2 0 2.7-.4 3.4-1.8l6.4-12.7c1-2 1.3-2.4 1.9-2.6l.6-.2c.4-.1.8-.5.8-1.1 0-1-.5-1.5-1.5-1.5zm51.8 0h-5.2c-1.2 0-1.7.4-2.6 1.2l-5.9 6.7c-.6.7-.8 1.1-.8 1.3 0 .6.5.8 1.7.9 3 .3 4.5 1.3 4.5 3.6 0 2.5-2 3.7-4.6 3.7-1 0-2-.2-2.5-.6-.4-.3-.6-.9-.7-2.1l-.1-1.4v-8.7c0-1.1 0-1.4.1-1.7.1-.4.5-.6.8-.6h.9c.6 0 1.1-.5 1.1-1.2 0-.9-.5-1.2-1.9-1.2h-7.9c-1.4 0-1.9.3-1.9 1.2 0 .7.6 1.2 1.2 1.2h.8c.4 0 .7.2.8.6.1.3.1.6.1 1.7v9.7c0 1.2-.2 1.4-1.3 1.4-.8 0-1.3.4-1.3 1.2 0 .4.2.8.5 1.1 1.4 1.1 6.7 1.6 10.9 1.6 7.2 0 11.2-1.9 11.2-5.4 0-2.5-1.1-4.5-5-5.2l3.8-4.1c1.4-1.6 2.4-2.1 3.6-2.3.8-.2 1-.3 1.2-.4.2-.1.5-.5.5-1-.2-.7-.8-1.2-2-1.2zm37.7 0h-7.9c-1.4 0-1.9.3-1.9 1.2 0 .7.6 1.2 1.2 1.2h.8c.4 0 .7.2.8.6.1.3.1.6.1 1.7v9.9c0 1.1 0 1.5-.1 1.7-.1.3-.4.6-.8.6h-.8c-.6 0-1.2.5-1.2 1.2 0 .9.6 1.2 1.9 1.2h7.9c1.4 0 1.9-.3 1.9-1.2 0-.7-.5-1.2-1.1-1.2h-.8c-.3 0-.6-.2-.7-.6-.1-.4-.2-.5-.2-1.7v-9.9c0-.7 0-1.4.2-1.8.2-.3.4-.5.7-.5h.8c.5 0 1.1-.5 1.1-1.2.1-.8-.5-1.2-1.9-1.2zm16.8 0h-5.3c-1.2 0-1.5.4-2.3 1.2l-7.7 7.7c-.4.4-.5.6-.5.8 0 .2.2.5.5.7l5.6 4.8c.8.7.3 1.6-.1 1.6-.5 0-.8.5-.8 1.3s.4 1.2 1.3 1.2h8.9c.9 0 1.4-.4 1.4-1.2 0-.7-.4-1.1-1.4-1.2-1-.1-1.4-.1-2-.3-.6-.2-1.5-.7-2-1.1l-5.1-4.4 6.3-6.3c1.7-1.6 2.6-2.2 3.4-2.4.9-.2 1.4-.4 1.4-1.2 0-.7-.6-1.2-1.6-1.2zm49.9 4.4l-1.5-3.7c-.2-.5-.4-.6-1.1-.6l-.8-.1h-17.2c-1.5 0-1.9.3-1.9 1.2 0 .7.5 1.2 1.1 1.2h.9c.3 0 .6.3.6.6.2.3.2.6.2 1.7v9.8c0 1.1 0 1.4-.2 1.7-.1.4-.4.7-.6.7h-.9c-.6 0-1.1.6-1.1 1.2 0 .9.6 1.2 2 1.2h17.1c.9 0 1.2-.1 1.4-.6l1.3-3.3c.1-.2.2-.4.2-.5-.1-.3-.8-.6-1.4-.6-.2 0-.4 0-.5.1-.2.1-.4.2-.5.2-.1.1-.2.3-.4.5-.7.8-1.9 1.7-4.7 1.7h-2.8c-2.4 0-2.6-.2-2.6-1.8v-3.2h5.5c1.3 0 1.7-.7 1.7-1.4 0-.8-.5-1.5-1.7-1.5h-3.3c-.9 0-1.5.1-1.8-.1-.2-.2-.4-.5-.4-1.1v-3c0-1.5.1-1.8.9-2 .5-.1 1.4-.2 3.7-.2 2.1 0 3.3.1 3.9.1 1 .1 2.4 1.7 3.1 2.6.4.5.6.6 1.2.6.7 0 1.1-.3 1.2-.7-.4-.1-.4-.3-.6-.7zm48 9.6c-.4 0-.8.2-1.2.7-.2.3-.3.3-.3.4-.4.5-1.1 1.5-1.6 1.7-.5.2-1.1.2-2.7.2-2 0-2.3-.1-2.3-1.4v-10.8c0-1.1 0-1.4.1-1.7.1-.4.5-.6.8-.6h1.2c.7 0 1.1-.5 1.1-1.2 0-.9-.5-1.2-2.1-1.2h-8.5c-1.5 0-2 .3-2 1.2 0 .7.5 1.2 1.1 1.2h1.3c.3 0 .6.2.8.6.1.3.2.6.2 1.7v10.8c0 1.2-.2 1.4-2.7 1.4-2.2 0-3.2-.9-4-2l-.2-.3c-.4-.6-.7-.7-1.3-.7-.6 0-1.5.3-1.5.7 0 .1 0 .4.1.6l1.3 3.4c.2.7.4.7 1.5.7h19.7c.6 0 .7 0 1-.1.1-.1.2-.3.4-.6l1.4-3.5c.1-.2.1-.4.1-.5-.2-.4-1-.7-1.7-.7z"/><path id="path17" class="st0" d="M1107.7 1583c-.3.7-.5 1.3-.6 1.8h-.2c-.1-.4-.4-1.1-.7-1.8l-2.1-4.8-.4-.7.7.1h5.2l.6-.1-.4.7-2.1 4.8z"/><path id="path19" class="st0" d="M1030.6 1693c1.5-4.2 3.1-5.5 6.3-5.5 1.4 0 2.9.5 3.7 1.2.9.9 1.2 1.7 2.2 4.3l10.8 30.4 10.1-30.4c1.3-4.1 3-5.5 6.3-5.5s4.7 1.5 6.4 7l17.5 57c1.2 3.9 2 5 4.3 5.4h.6c.8 0 1.5-.6 1.9-1.4.3-.8.3-1.3.3-4.3v-49.9c0-3 0-3.5-.3-4.4-.2-.8-1.1-1.3-1.9-1.3h-2.2c-1.5 0-2.9-1.4-2.9-3.1 0-2.4 1.3-3.2 5-3.2h20c3.5 0 4.7.8 4.7 3.1 0 1.8-1.1 3.2-2.6 3.2h-2.1c-.9 0-1.8.6-2.1 1.3-.2.9-.3 1.5-.3 4.4v20.3c0 5.1.4 5.6 4.5 5.6h14.9c2.2 0 3.3-.3 3.8-1 .6-.7.6-1.1.6-5.2v-19.7c0-2.9 0-3.5-.3-4.4-.3-.8-1.2-1.3-2-1.3h-2.1c-1.5 0-2.9-1.4-2.9-3.1 0-2.4 1.2-3.2 4.9-3.2h20c3.9 0 5.1.8 5.1 3.2 0 1.7-1.2 3.1-2.9 3.1h-2.2c-.8 0-1.6.6-1.9 1.3-.3.9-.4 1.5-.4 4.4v49.9c0 2.8.1 3.6.4 4.3.2.8 1.1 1.4 1.9 1.4h2.2c1.5 0 2.9 1.3 2.9 3.1 0 2.4-1.3 3.2-5.1 3.2h-20c-3.7 0-5.1-.8-5.1-3.2 0-1.8 1.3-3.1 3-3.1h2.1c.8 0 1.6-.6 2-1.4.3-.8.3-1.4.3-4.3v-16.4h-23.8v16.4c0 2.8.1 3.6.3 4.3.3.8 1.2 1.4 2.1 1.4h2.1c1.5 0 2.7 1.3 2.7 3.1 0 2.4-1.2 3.2-4.8 3.2h-36.3c-3 0-4.2-.9-4.2-3.1 0-1.8 1.1-2.9 3.5-3.1 2.6-.3 3.8-1.2 3.8-2.9 0-.7-.1-1.6-.4-2.7l-13-42.5-13.1 40.7c-.9 2.7-1.1 3.7-1.1 4.7 0 2 .8 2.7 3.7 3 2.4.3 3.5 1.2 3.5 3 0 2-1.2 3-3.7 3h-21.5c-2.5 0-3.8-1.2-3.8-3.3 0-1.7.9-2.5 3.2-3 2.5-.7 3.4-1.2 4.1-2.9.2-.4.4-1.3.9-2.6l5-14.9-10.2-28.8-14.8 41.8-.9 2.6c-.3.9-.4 1.7-.4 2.4 0 1.8 1 2.6 3.4 2.8 2.9.2 4 1 4 2.9 0 2-1.1 3-3.6 3H1004c-2.5 0-3.7-1-3.7-2.9 0-1.8.8-2.6 3.1-3 3.5-.8 4.1-1.3 5.7-5.9l21.5-58.5z"/><path id="path21" class="st0" d="M1105.8 1603.3c18.6 0 31.5 10.6 35.3 27.9 3.7-17.1 16.6-27.9 34.8-27.9 22.3 0 36.5 15.2 36.5 39 0 23.3-14.2 38.3-36.2 38.3-18.4 0-31.2-10.5-34.9-27.7-3.7 17.2-16.6 27.7-35.1 27.7-22.1 0-36.1-15.1-36.1-38.9-.2-23.2 14-38.4 35.7-38.4zm70.2 69.4c12.2 0 19.9-11.9 19.9-31 0-18.7-7.6-30.4-19.6-30.4-12.4 0-19.8 11.3-19.8 30.3 0 19.4 7.3 31.1 19.5 31.1zm-70.1 0c12.2 0 19.9-11.9 19.9-31 0-18.7-7.6-30.4-19.7-30.4-12.4 0-19.8 11.3-19.8 30.3.1 19.4 7.5 31.1 19.6 31.1z"/></g></svg>