<?xml version="1.0" encoding="utf-8"?>
<!-- Generator: Adobe Illustrator 22.0.1, SVG Export Plug-In . SVG Version: 6.00 Build 0)  -->
<svg version="1.1" id="Layer_1" xmlns="http://www.w3.org/2000/svg" xmlns:xlink="http://www.w3.org/1999/xlink" x="0px" y="0px"
	 viewBox="0 0 192 192" style="enable-background:new 0 0 192 192;" xml:space="preserve">
<style type="text/css">
	.st0{fill:#0E4BFF;}
	.st1{fill:#FFFFFF;}
</style>
<g>
	<g>
		
			<rect x="49.8" y="51.5" transform="matrix(0.9999 -1.004512e-02 1.004512e-02 0.9999 -0.5505 0.961)" class="st0" width="91.2" height="7.6"/>
	</g>
	<g>
		
			<rect x="51" y="132.9" transform="matrix(0.9999 -1.004512e-02 1.004512e-02 0.9999 -1.3684 0.9773)" class="st0" width="91.2" height="7.6"/>
	</g>
	<polygon class="st0" points="71.4,67.4 72,125.6 79.6,125.5 79.1,83.4 100,100.3 99.9,90.5 	"/>
	<polygon class="st0" points="112.7,67 113.3,125.2 120.8,125.1 120.4,83 141.2,99.9 141.1,90 	"/>
</g>
<rect x="-315" class="st0" width="180" height="179"/>
<g>
	<g>
		
			<rect x="-271.2" y="45.5" transform="matrix(0.9999 -1.004512e-02 1.004512e-02 0.9999 -0.5065 -2.2637)" class="st1" width="91.2" height="7.6"/>
	</g>
	<g>
		
			<rect x="-270" y="126.9" transform="matrix(0.9999 -1.004512e-02 1.004512e-02 0.9999 -1.3244 -2.2475)" class="st1" width="91.2" height="7.6"/>
	</g>
	<polygon class="st1" points="-249.6,61.4 -249,119.6 -241.4,119.5 -241.9,77.4 -221,94.3 -221.1,84.5 	"/>
	<polygon class="st1" points="-208.3,61 -207.7,119.2 -200.2,119.1 -200.6,77 -179.8,93.9 -179.9,84 	"/>
</g>
</svg>
