<svg id="Layer_1" data-name="Layer 1" xmlns="http://www.w3.org/2000/svg" viewBox="0 0 2613.92 1413.36">
  <defs>
    <style>
      .cls-1 {
        fill: #fff;
      }

      .cls-2 {
        fill: #27b300;
      }
    </style>
  </defs>
  <title>thot-leader</title>
  <g id="type">
    <path class="cls-1" d="M796.49,278.28s-113.34,15-140.74,12.46S557.35,302,554.86,250.88s51.06-53.56,100.89-56,357.47-22.42,382.38-10,39.86,18.69,32.39,51.07-66,39.86-95.91,39.86-97.16,2.49-97.16,2.49S859.39,741,809,801.41c-35,41.94-31.14,47.33-54.81,42.35S719.27,840,733,732.91,796.49,278.28,796.49,278.28Z"/>
    <path class="cls-1" d="M1139.24,147.5c-58.69,155.66-157,642.7-157,642.7s-8.19,28.65,8.19,38.61,46.41,6.23,54.6-17.43,104.89-408.29,118.08-427.85c10.92-16.19,47.09-33,58-23S1142,760.31,1155.62,775.26s49.14,43.59,76.44-42.35,105.79-369.31,86.68-409.17-34.81-50.44-75.76-40.48-71,39.86-71,39.86,49.14-139.5,51.87-173.13-9.55-43.6-29.35-45.46C1181.78,103.32,1158.91,95.34,1139.24,147.5Z"/>
    <path class="cls-1" d="M493.82,1369.38C462.15,1254.5,515,1028.1,538.66,894.83S591,739.14,637.06,750.35s2.49,171.88,2.49,171.88l-62.9,380.52s187.46-64.15,218.6-49.2,53.56,36.12,51.07,58.54-114,74.11-194.31,92.17C595.9,1416.87,509.07,1424.67,493.82,1369.38Z"/>
    <path class="cls-1" d="M1330.84,1273.48"/>
    <path class="cls-1" d="M953.43,906s-5-29.89-49.82-23.67-107.74,21.8-117.7,82.83,8.72,69.75,21.79,77.85c23.68,14.66,33.63,6.23,18.69,21.17s-29.9,66-26.16,90.93,19.93,57.3,71,48.58,115.83-44.84,118.32-71-10-61-41.1-39.86-72.24,42.35-83.45,33.63,10-57.29,29.89-69.75,77.23-34.87,77.23-48.58-10-29.89-51.07-13.7-74.73,26.16-82.21,7.48,11.21-56.05,48.58-64.77S952.19,928.46,953.43,906Z"/>
    <path class="cls-1" d="M1243.86,961.52c-9.9-15.65-34.7-20.94-44.52-2.15s-1-14.25-2.68-20.46c-5.43-20.81-45.62-49.77-79.9-31.87s-112.86,117.21-103,183.93,23.14,91.82,47,90.29,35.91-10.6,57.89-32.12,41.66-47.64,41.66-47.64,8.28,93.88,25.74,109.12,43,21,55.28,13.13-9.76-52.06-17.14-96.36S1253.75,977.18,1243.86,961.52Zm-94.55,85c-6.47,13.06-56.35,67.52-70.93,70.79s-16.3-7.2,2.25-61.14,72.7-99.9,72.7-99.9C1189.94,954.46,1156.78,1031.46,1149.31,1046.54Z"/>
    <path class="cls-1" d="M1721.07,864.53s-2.49-41.1-54.8-24.91c-67.83,21-92.17,37.36-108.36,64.77s-13.08,64.14-.63,81.58,28,10.59,31.76,20.55c3.16,8.41-51,51.19-53.55,78.47-2.5,26.16,6.22,57.3,28.64,74.74s66.64,28,100.27,8.09,78.47-44.84,74.73-74.73-26.78-35.5-48-26.78-76,79.71-94.66,46.08c-9.76-17.55,15.86-69.34,37.36-84.69,26.16-18.69,87.19-37.37,90.93-54.81s-2.49-26.15-21.17-27.4-59.17,16.82-82.21,21.17c-22.06,4.18-28-6.59-21.18-26.15,8.1-23,47.71-27.36,71-34.88C1709.86,893.18,1721.07,864.53,1721.07,864.53Z"/>
    <path class="cls-1" d="M1709.48,143.76S1730-10.06,1794.18.52c38.49,6.36-8.09,145.11-8.09,145.11s157.56-1.87,182.47,18.06,52.31,46.09,27.4,66-227.31,10-227.31,10-28,477.05-57.92,492-71.23-12.84-65.39-120.19c6.23-114.59,48-376.78,48-376.78s-194.3,31.14-198-19.93,31.14-66,72.24-69.75S1709.48,143.76,1709.48,143.76Z"/>
    <path class="cls-1" d="M1424.25,257.11"/>
    <path class="cls-1" d="M1525.14,304.44c-65.39-6.85-204.27,134.52-179.36,254.09s81,132,112.1,124.56,142-79.72,155.7-178.12S1588.94,311.12,1525.14,304.44Zm18.06,213.61c-14.72,36.8-56.67,104-103.38,104.63-20.27.27-23.64-94.41-16.19-127,8.1-35.5,47.33-116.46,91.55-116.46C1558.15,379.17,1565.62,462,1543.2,518.05Z"/>
    <path class="cls-1" d="M1478.43,1088.51c2.49-52.31,62.9-313.25,62.9-313.25,0-44.84-10-49.83-51.06-28.65S1438,902.3,1438,902.3s-21.41-9.12-41.1-1.24c-37.37,14.94-77.85,43-109,101.51s6.85,168.77,44.22,172.51,81-33.63,81-33.63a507.42,507.42,0,0,0,6.23,73.49c6.23,37.36,51.07,27.4,71,12.45S1475.94,1140.83,1478.43,1088.51Zm-53.56-44.84c-11.19,39.57-31.76,51.69-55.42,60.41s-39.75-1.76-28-55.43c11.84-54.18,65.87-110.87,89.68-93.41C1446.57,966.58,1434.22,1010.67,1424.87,1043.67Z"/>
    <path class="cls-1" d="M2119.73,982.5c-46.76-23.56-176.08-67.16-176.08-67.16s107-103.17,92.59-145.59-42.18-66.45-64.91-65.43-70.88,26.9-70.88,26.9-2.09-11.27-5.14-13.31c-18.19-12.21-64.9-2.13-78.67,50.32s-19.9,231.56-23.12,275.42-48.32,289.69-8.62,306.09,78.56,11.83,80.76-29.53,5-341.91,5-341.91,231.62,108.78,259.58,109.33,48.75-7.21,56.89-27.17S2166.49,1006.07,2119.73,982.5Zm-172.6-152.67c-2.1,29.62-68.51,75.78-68.51,75.78l25.19-140.89C1945.76,765.55,1949.23,800.21,1947.13,829.83Z"/>
    <path class="cls-2" d="M405.34,512.94S185.13,386.35,161.16,404.09s-17.56,29.83,29.22,53.5,194.33,77.1,205.36,79.9C417.16,542.91,443.44,537.85,405.34,512.94Z"/>
    <path class="cls-2" d="M354.21,653.16s-338,16.09-350.39,51.78,3.79,43.52,72.67,33.94,279.84-40.06,293.94-45.19C397.83,683.72,414.61,651.17,354.21,653.16Z"/>
    <path class="cls-2" d="M154.11,990.63S425.4,863.75,408.59,826.18c-7.53-16.83-7.91-9.88-61.3,14.83C295,865.2,131.38,936.06,122.1,944.76,104.09,961.68,107.82,1009,154.11,990.63Z"/>
    <path class="cls-2" d="M2187.15,487.86s209.73-118.75,231.09-101.53,14.65,28.2-30.55,48.52-184.05,81.89-194.54,84.1C2172.78,523.25,2150,509.63,2187.15,487.86Z"/>
    <path class="cls-2" d="M2570.32,576.07s-201.2,24.68-307.19,46.61c-37.94,7.85-63.52,21.47-63.52,24.91,0,20.59,10.77,25.15,82.92,25,62.81-.11,292.18-29.27,306.78-35.13C2617.68,626.08,2632.85,573.74,2570.32,576.07Z"/>
    <path class="cls-2" d="M2478.13,861.9s-143.69-51.15-223.9-72.09c-27.19-7.09-52.59-12.37-58-7.32-21.45,19.94-3.56,19.3,49.44,38.1S2460.54,904,2472.5,905.7C2495.74,909,2522.36,882.8,2478.13,861.9Z"/>
  </g>
</svg>
